<?xml version="1.0" encoding="UTF-8" standalone="no"?>
<!-- Created with Inkscape (http://www.inkscape.org/) -->

<svg
   width="210mm"
   height="297mm"
   viewBox="0 0 210 297"
   version="1.1"
   id="svg64711"
   inkscape:version="1.2.1 (0f2f062aeb, 2022-09-21, custom)"
   sodipodi:docname="4UP-panel-art-import.svg"
   xmlns:inkscape="http://www.inkscape.org/namespaces/inkscape"
   xmlns:sodipodi="http://sodipodi.sourceforge.net/DTD/sodipodi-0.dtd"
   xmlns="http://www.w3.org/2000/svg"
   xmlns:svg="http://www.w3.org/2000/svg">
  <sodipodi:namedview
     id="namedview64713"
     pagecolor="#ffffff"
     bordercolor="#666666"
     borderopacity="1.0"
     inkscape:showpageshadow="2"
     inkscape:pageopacity="0.0"
     inkscape:pagecheckerboard="0"
     inkscape:deskcolor="#d1d1d1"
     inkscape:document-units="mm"
     showgrid="false"
     inkscape:zoom="32"
     inkscape:cx="378.57812"
     inkscape:cy="204.125"
     inkscape:window-width="2493"
     inkscape:window-height="1385"
     inkscape:window-x="67"
     inkscape:window-y="27"
     inkscape:window-maximized="1"
     inkscape:current-layer="path4876" />
  <defs
     id="defs64708" />
  <g
     inkscape:label="Layer 1"
     inkscape:groupmode="layer"
     id="layer1">
    <g
       transform="matrix(0.28222223,0,0,0.28222223,-29.144976,3.942727)"
       aria-label="SYSTEM 80"
       style="font-style:normal;font-variant:normal;font-weight:bold;font-stretch:normal;font-size:15px;line-height:125%;font-family:'Ostrich Sans Rounded';-inkscape-font-specification:'Ostrich Sans Rounded Bold';text-align:start;letter-spacing:0px;word-spacing:0px;writing-mode:lr-tb;text-anchor:start;display:inline;fill:#bfbfc0;fill-opacity:1;stroke:#fa4616;stroke-width:0.531496;stroke-linecap:butt;stroke-linejoin:miter;stroke-miterlimit:4;stroke-dasharray:none;stroke-opacity:1"
       id="text6040-7">
      <g
         aria-label="15~18V DC "
         id="text9660"
         style="font-weight:normal;font-size:9.89539px;line-height:1.25;-inkscape-font-specification:'Ostrich Sans Rounded';display:inline;fill:#b3b3b3;stroke:none;stroke-width:0.247386">
        <path
           d="m 431.89911,230.04861 v 4.83884 h 1.38535 v -7.01583 h -0.92027 c -0.2177,0.83121 -0.94006,1.25671 -2.1473,1.25671 v 0.92028 z"
           style="font-weight:600;font-family:FreeSans;-inkscape-font-specification:'FreeSans Semi-Bold'"
           id="path94378" />
        <path
           d="m 439.88469,227.87162 h -3.75036 l -0.62341,3.90868 h 1.24682 c 0.14843,-0.34634 0.46509,-0.53435 0.89059,-0.53435 0.70257,0 1.12807,0.50466 1.12807,1.35567 0,0.82131 -0.43539,1.32598 -1.12807,1.32598 -0.60362,0 -0.94006,-0.30676 -0.96975,-0.8708 h -1.36556 c 0.0198,1.22703 0.94995,2.05825 2.31552,2.05825 1.5041,0 2.53322,-1.02913 2.53322,-2.54312 0,-1.43483 -0.89059,-2.42437 -2.18688,-2.42437 -0.46509,0 -0.81143,0.11874 -1.21714,0.4255 l 0.2276,-1.46452 h 2.89935 z"
           style="font-weight:600;font-family:FreeSans;-inkscape-font-specification:'FreeSans Semi-Bold'"
           id="path94380" />
        <path
           d="m 443.99127,232.69067 c -0.2078,0 -0.34634,-0.0594 -0.60362,-0.24738 l -0.56404,-0.41561 c -0.23748,-0.16822 -0.49476,-0.24738 -0.82131,-0.24738 -0.78174,0 -1.20724,0.47498 -1.25672,1.43483 h 0.77184 c 0.0198,-0.39582 0.0693,-0.6432 0.52446,-0.6432 0.2078,0 0.37602,0.0693 0.60362,0.23749 l 0.56403,0.41561 c 0.25729,0.17811 0.49477,0.25728 0.82132,0.25728 0.79163,0 1.19734,-0.47498 1.25672,-1.44473 h -0.77184 c -0.01,0.38592 -0.0495,0.65309 -0.52446,0.65309 z"
           style="font-weight:600;font-family:FreeSans;-inkscape-font-specification:'FreeSans Semi-Bold'"
           id="path94382" />
        <path
           d="m 447.85045,230.04861 v 4.83884 h 1.38536 v -7.01583 h -0.92027 c -0.2177,0.83121 -0.94007,1.25671 -2.1473,1.25671 v 0.92028 z"
           style="font-weight:600;font-family:FreeSans;-inkscape-font-specification:'FreeSans Semi-Bold'"
           id="path94384" />
        <path
           d="m 455.95477,229.6231 c 0,-1.09838 -0.94995,-1.89991 -2.24625,-1.89991 -1.30619,0 -2.25615,0.80153 -2.25615,1.90981 0,0.67289 0.27707,1.09839 0.91038,1.43483 -0.81142,0.4354 -1.14787,0.96975 -1.14787,1.80096 0,1.32598 1.01923,2.24626 2.49364,2.24626 1.46452,0 2.48374,-0.92028 2.48374,-2.24626 0,-0.83121 -0.33644,-1.36556 -1.14786,-1.80096 0.48487,-0.25728 0.91037,-0.6333 0.91037,-1.44473 z m -2.23635,-0.78173 c 0.61351,0 1.03901,0.37602 1.03901,0.92027 0,0.53435 -0.43539,0.92027 -1.03901,0.92027 -0.61352,0 -1.04891,-0.38592 -1.04891,-0.93017 0,-0.53435 0.4255,-0.91037 1.04891,-0.91037 z m -0.0198,2.7806 c 0.68278,0 1.10828,0.45519 1.10828,1.18745 0,0.67289 -0.4354,1.11818 -1.10828,1.11818 -0.67289,0 -1.09839,-0.44529 -1.09839,-1.13797 0,-0.71247 0.4354,-1.16766 1.09839,-1.16766 z"
           style="font-weight:600;font-family:FreeSans;-inkscape-font-specification:'FreeSans Semi-Bold'"
           id="path94386" />
        <path
           d="m 460.38791,234.88745 2.47385,-7.21374 h -1.49421 l -1.57337,5.43257 -1.60305,-5.43257 h -1.4942 l 2.43426,7.21374 z"
           style="font-weight:600;font-family:FreeSans;-inkscape-font-specification:'FreeSans Semi-Bold'"
           id="path94388" />
        <path
           d="m 466.60219,234.88745 h 2.82019 c 1.09839,0 1.79106,-0.25728 2.27594,-0.84111 0.57393,-0.67288 0.88069,-1.65253 0.88069,-2.77071 0,-1.10828 -0.30676,-2.08792 -0.88069,-2.77071 -0.48488,-0.58382 -1.16766,-0.83121 -2.27594,-0.83121 h -2.82019 z m 1.48431,-1.23692 v -4.73989 h 1.33588 c 1.11818,0 1.67232,0.78173 1.67232,2.37489 0,1.58326 -0.55414,2.365 -1.67232,2.365 z"
           style="font-weight:600;font-family:FreeSans;-inkscape-font-specification:'FreeSans Semi-Bold'"
           id="path94390" />
        <path
           d="m 478.26885,230.11787 h 1.41504 c -0.12864,-1.62284 -1.32598,-2.5629 -3.0082,-2.5629 -2.03845,0 -3.30506,1.45462 -3.30506,3.78993 0,2.31552 1.25672,3.77015 3.26548,3.77015 1.79107,0 2.98841,-1.03902 3.07747,-2.69155 h -1.44473 c -0.0891,0.92027 -0.67289,1.44473 -1.59316,1.44473 -1.14786,0 -1.82075,-0.93017 -1.82075,-2.50354 0,-1.59316 0.70257,-2.54311 1.87023,-2.54311 1.23692,0 1.46452,0.93016 1.54368,1.29629 z"
           style="font-weight:600;font-family:FreeSans;-inkscape-font-specification:'FreeSans Semi-Bold'"
           id="path94392" />
      </g>
      <g
         transform="matrix(1.03125,0,0,1.03125,337.31696,179.97653)"
         id="g14226"
         style="display:inline">
        <path
           style="fill:none;stroke:#b3b3b3;stroke-width:1.32283;stroke-linecap:butt;stroke-linejoin:miter;stroke-miterlimit:4;stroke-dasharray:none;stroke-opacity:1"
           d="m 102.23024,-2.5460479 h 7.55862"
           id="path4874"
           inkscape:connector-curvature="0"
           sodipodi:nodetypes="cc" />
        <g
           id="path4876">
          <path
             style="color:#000000;-inkscape-font-specification:'Ostrich Sans Rounded Bold';fill:#b3b3b3;stroke:none;-inkscape-stroke:none"
             d="m 114.92773,-8.1875 c -1.44635,0 -2.89248,0.5487502 -3.99218,1.6484375 -2.19939,2.1994235 -2.19939,5.78691396 0,7.9863281 2.1994,2.1994278 5.78497,2.1994278 7.98437,0 l -0.93554,-0.93554685 c -1.6939,1.69390825 -4.4194,1.69390825 -6.11329,0 -1.69388,-1.69390205 -1.69388,-4.42132175 0,-6.11523435 1.69389,-1.6938616 4.4194,-1.6938616 6.11329,0 l 0.93554,-0.9355469 C 117.82022,-7.6387498 116.37408,-8.1875 114.92773,-8.1875 Z"
             id="path97676" />
        </g>
        <path
           inkscape:connector-curvature="0"
           style="color:#000000;display:inline;overflow:visible;visibility:visible;fill:#b3b3b3;fill-opacity:1;fill-rule:nonzero;stroke:#b3b3b3;stroke-width:0.389633;stroke-linecap:butt;stroke-linejoin:miter;stroke-miterlimit:4;stroke-dashoffset:0;stroke-opacity:1;marker:none;enable-background:accumulate"
           d="m 116.74886,-2.5460479 c 0,1.04656 -0.84839,1.89494998 -1.89494,1.89494998 -1.04656,0 -1.89495,-0.84838998 -1.89495,-1.89494998 0,-1.04655 0.84839,-1.89494 1.89495,-1.89494 1.04655,0 1.89494,0.84839 1.89494,1.89494 z"
           id="path4878" />
        <path
           style="fill:none;stroke:#b3b3b3;stroke-width:1.32283;stroke-linecap:butt;stroke-linejoin:miter;stroke-miterlimit:4;stroke-dasharray:none;stroke-opacity:1"
           d="m 114.91906,-2.5460479 h 12.61483"
           id="path4874-1"
           inkscape:connector-curvature="0"
           sodipodi:nodetypes="cc" />
        <g
           aria-label="+"
           transform="scale(1.0179433,0.98237298)"
           id="text13286"
           style="font-weight:normal;font-size:10.5551px;line-height:1.25;-inkscape-font-specification:'Ostrich Sans Rounded';fill:#b3b3b3;stroke:none;stroke-width:0.263878">
          <path
             d="m 131.96339,-3.3168243 h -1.92103 v -1.9210283 h -1.25606 v 1.9210283 h -1.92103 v 1.2560569 h 1.92103 v 1.9210283 h 1.25606 v -1.9210283 h 1.92103 z"
             style="font-weight:600;font-family:FreeSans;-inkscape-font-specification:'FreeSans Semi-Bold'"
             id="path95121" />
        </g>
        <g
           aria-label="+"
           transform="matrix(1.0179433,0,0,0.98237298,1.9270435,22.740137)"
           style="font-style:normal;font-variant:normal;font-weight:normal;font-stretch:normal;font-size:10.5551px;line-height:1.25;font-family:'Ostrich Sans Rounded';-inkscape-font-specification:'Ostrich Sans Rounded';letter-spacing:0px;word-spacing:0px;fill:#b3b3b3;fill-opacity:1;stroke:none;stroke-width:0.263878"
           id="text13290">
          <path
             d="m 97.063476,-26.367933 v 1.25606 h -1.921034 v 0 h -1.25606 v 0 h -1.921034 v -1.25606 h 1.921034 v 0 h 1.25606 v 0 z"
             style="font-style:normal;font-variant:normal;font-weight:600;font-stretch:normal;font-family:FreeSans;-inkscape-font-specification:'FreeSans Semi-Bold';fill:#b3b3b3;fill-opacity:1;stroke-width:0.263878"
             id="path13292"
             inkscape:connector-curvature="0"
             sodipodi:nodetypes="ccccccccccccc" />
        </g>
        <circle
           style="opacity:0.98;fill:none;fill-opacity:1;stroke:#b3b3b3;stroke-width:1.32283;stroke-miterlimit:4;stroke-dasharray:none;stroke-dashoffset:0;stroke-opacity:1"
           id="path13299"
           cx="131.73645"
           cy="-2.641408"
           r="4.132452" />
        <circle
           r="4.132452"
           cy="-2.641408"
           cx="98.098885"
           id="circle13301"
           style="opacity:0.98;fill:none;fill-opacity:1;stroke:#b3b3b3;stroke-width:1.32283;stroke-miterlimit:4;stroke-dasharray:none;stroke-dashoffset:0;stroke-opacity:1" />
      </g>
      <g
         aria-label="4UP"
         id="text36129"
         style="font-weight:normal;font-size:14.3891px;line-height:1.25;-inkscape-font-specification:'Ostrich Sans Rounded';display:inline;fill:#afafaf;stroke:none;stroke-width:0.359731">
        <path
           d="m 467.5213,157.63006 h -1.06479 v -6.27364 h -2.3742 l -3.72678,6.24487 v 1.69791 h 4.08651 v 2.25909 h 2.01447 v -2.25909 h 1.06479 z m -3.07926,0 h -2.66199 l 2.66199,-4.35989 z"
           style="font-weight:600;font-family:FreeSans;-inkscape-font-specification:'FreeSans Semi-Bold'"
           id="path95850" />
        <path
           d="m 473.32011,161.88924 c 1.76986,0 4.15845,-0.74824 4.15845,-3.71239 v -7.10822 h -2.15837 v 7.10822 c 0,1.26624 -0.64751,1.87058 -2.00008,1.87058 -1.35258,0 -2.00009,-0.60434 -2.00009,-1.87058 v -7.10822 h -2.15836 v 7.10822 c 0,2.96415 2.38859,3.71239 4.15845,3.71239 z"
           style="font-weight:600;font-family:FreeSans;-inkscape-font-specification:'FreeSans Semi-Bold'"
           id="path95852" />
        <path
           d="m 481.93916,157.81712 h 2.69076 c 1.92814,0 3.16561,-1.36696 3.16561,-3.49655 0,-2.10081 -1.1943,-3.25194 -3.38144,-3.25194 h -4.63329 v 10.48966 h 2.15836 z m 0,-1.79863 v -3.15122 h 2.01448 c 1.15112,0 1.68352,0.50362 1.68352,1.5828 0,1.0648 -0.5324,1.56842 -1.68352,1.56842 z"
           style="font-weight:600;font-family:FreeSans;-inkscape-font-specification:'FreeSans Semi-Bold'"
           id="path95854" />
      </g>
      <g
         transform="translate(81.937099,106.46249)"
         aria-label="SYSTEM 80"
         style="font-style:normal;font-variant:normal;font-weight:bold;font-stretch:normal;font-size:15px;line-height:125%;font-family:'Ostrich Sans Rounded';-inkscape-font-specification:'Ostrich Sans Rounded Bold';text-align:start;letter-spacing:0px;word-spacing:0px;writing-mode:lr-tb;text-anchor:start;display:inline;fill:#bfbfc0;fill-opacity:1;stroke:#bfbfc0;stroke-width:0.531496;stroke-linecap:butt;stroke-linejoin:miter;stroke-miterlimit:4;stroke-dasharray:none;stroke-opacity:1"
         id="text6040-7-4">
        <g
           id="path8814-3">
          <path
             style="color:#000000;-inkscape-font-specification:'Ostrich Sans Rounded Bold';stroke:none;-inkscape-stroke:none"
             d="m 387.8457,478.66602 c -0.76844,0 -1.38324,0.26098 -1.76758,0.77343 -0.38433,0.51246 -0.53906,1.23151 -0.53906,2.13282 0,0.90203 0.16853,1.6146 0.53125,2.11718 0.0901,0.12945 0.21848,0.20207 0.33399,0.29688 -0.11539,0.0946 -0.24387,0.16575 -0.33399,0.29492 -0.36403,0.50272 -0.53125,1.21749 -0.53125,2.12109 0,0.90131 0.15473,1.61841 0.53906,2.13086 0.38434,0.51246 0.99914,0.77539 1.76758,0.77539 0.75179,0 1.36073,-0.24857 1.7461,-0.75586 0.38536,-0.50728 0.54297,-1.22662 0.54297,-2.15039 0,-0.91644 -0.1661,-1.6299 -0.53321,-2.12109 -0.0862,-0.12354 -0.2101,-0.19818 -0.32031,-0.29297 0.10951,-0.0948 0.23299,-0.17458 0.32031,-0.29101 0.36846,-0.49127 0.53321,-1.20697 0.53321,-2.125 0,-0.92377 -0.15761,-1.64311 -0.54297,-2.1504 -0.38537,-0.50728 -0.99431,-0.75585 -1.7461,-0.75585 z m 0,0.99609 c 0.48956,0 0.76354,0.11858 0.96094,0.39258 0.1974,0.274 0.31836,0.76398 0.31836,1.51758 0,0.75359 -0.12096,1.24357 -0.31836,1.51757 -0.1974,0.274 -0.47138,0.39063 -0.96094,0.39063 -0.48385,0 -0.77172,-0.13063 -0.97265,-0.38867 -0.19729,-0.26774 -0.32227,-0.76772 -0.32227,-1.51953 0,-0.75275 0.12345,-1.24105 0.32422,-1.51563 0.20077,-0.27458 0.48115,-0.39453 0.9707,-0.39453 z m 3e-5,4.81639 c 0.48833,0 0.76269,0.12029 0.96094,0.39843 0.19825,0.27814 0.31836,0.7718 0.31836,1.52539 0,0.75275 -0.12651,1.25399 -0.32422,1.52149 v 0.002 c -0.18424,0.25333 -0.46921,0.38477 -0.95508,0.38477 -0.48955,0 -0.76993,-0.11801 -0.9707,-0.39258 -0.20077,-0.27458 -0.32422,-0.76288 -0.32422,-1.51563 0,-0.75274 0.12261,-1.24669 0.32422,-1.52539 0.20161,-0.2787 0.48238,-0.39843 0.9707,-0.39843 z"
             id="path85966"
             sodipodi:nodetypes="ssscccsssssccssssssssscsssssccsssssss" />
        </g>
        <g
           id="path8816-4">
          <path
             style="color:#000000;-inkscape-font-specification:'Ostrich Sans Rounded Bold';stroke:none;-inkscape-stroke:none"
             d="m 392.92969,478.66602 c -0.77125,0 -1.40413,0.27131 -1.81446,0.78906 -0.41032,0.51774 -0.5957,1.24701 -0.5957,2.14648 v 4.75586 c 0,1.16988 0.30887,1.90407 0.78711,2.36524 0.48541,0.46807 1.10429,0.58593 1.62305,0.58593 0.53258,0 1.15521,-0.11786 1.64062,-0.58593 0.47825,-0.46117 0.78516,-1.19536 0.78516,-2.36524 v -4.75586 c 0,-0.90665 -0.18457,-1.63598 -0.59766,-2.15234 -0.41308,-0.51636 -1.05091,-0.7832 -1.82812,-0.7832 z m 0,0.99609 c 0.51053,0 0.82846,0.13438 1.05273,0.42187 0.22428,0.2875 0.36133,0.7769 0.36133,1.51758 v 4.75586 c 0,0.74678 -0.14252,1.23867 -0.37109,1.5293 -0.22857,0.29063 -0.54887,0.42383 -1.04297,0.42383 -0.50699,0 -0.82441,-0.14124 -1.05078,-0.4375 -0.22638,-0.29627 -0.36329,-0.79058 -0.36329,-1.51563 v -4.75586 c 0,-0.71811 0.1352,-1.21005 0.35938,-1.5039 0.22418,-0.29386 0.53947,-0.43555 1.05469,-0.43555 z"
             id="path90377"
             sodipodi:nodetypes="ssssssssssssssssssssss" />
        </g>
      </g>
      <g
         id="path5122">
        <path
           style="color:#000000;-inkscape-font-specification:'Ostrich Sans Rounded Bold';fill-rule:evenodd;stroke:none;-inkscape-stroke:none"
           d="m 421.32422,581.64648 v 1.1211 h 67.32226 v -1.1211 z"
           id="path92561" />
      </g>
    </g>
  </g>
</svg>
