G04 #@! TF.GenerationSoftware,KiCad,Pcbnew,6.0.4-6f826c9f35~116~ubuntu18.04.1*
G04 #@! TF.CreationDate,2022-10-10T17:48:02-04:00*
G04 #@! TF.ProjectId,4UP,3455502e-6b69-4636-9164-5f7063625858,rev?*
G04 #@! TF.SameCoordinates,Original*
G04 #@! TF.FileFunction,Copper,L4,Bot*
G04 #@! TF.FilePolarity,Positive*
%FSLAX46Y46*%
G04 Gerber Fmt 4.6, Leading zero omitted, Abs format (unit mm)*
G04 Created by KiCad (PCBNEW 6.0.4-6f826c9f35~116~ubuntu18.04.1) date 2022-10-10 17:48:02*
%MOMM*%
%LPD*%
G01*
G04 APERTURE LIST*
G04 Aperture macros list*
%AMRoundRect*
0 Rectangle with rounded corners*
0 $1 Rounding radius*
0 $2 $3 $4 $5 $6 $7 $8 $9 X,Y pos of 4 corners*
0 Add a 4 corners polygon primitive as box body*
4,1,4,$2,$3,$4,$5,$6,$7,$8,$9,$2,$3,0*
0 Add four circle primitives for the rounded corners*
1,1,$1+$1,$2,$3*
1,1,$1+$1,$4,$5*
1,1,$1+$1,$6,$7*
1,1,$1+$1,$8,$9*
0 Add four rect primitives between the rounded corners*
20,1,$1+$1,$2,$3,$4,$5,0*
20,1,$1+$1,$4,$5,$6,$7,0*
20,1,$1+$1,$6,$7,$8,$9,0*
20,1,$1+$1,$8,$9,$2,$3,0*%
%AMHorizOval*
0 Thick line with rounded ends*
0 $1 width*
0 $2 $3 position (X,Y) of the first rounded end (center of the circle)*
0 $4 $5 position (X,Y) of the second rounded end (center of the circle)*
0 Add line between two ends*
20,1,$1,$2,$3,$4,$5,0*
0 Add two circle primitives to create the rounded ends*
1,1,$1,$2,$3*
1,1,$1,$4,$5*%
G04 Aperture macros list end*
G04 #@! TA.AperFunction,ComponentPad*
%ADD10R,1.800000X1.800000*%
G04 #@! TD*
G04 #@! TA.AperFunction,ComponentPad*
%ADD11C,1.800000*%
G04 #@! TD*
G04 #@! TA.AperFunction,ComponentPad*
%ADD12R,4.000000X2.500000*%
G04 #@! TD*
G04 #@! TA.AperFunction,ComponentPad*
%ADD13O,4.000000X2.500000*%
G04 #@! TD*
G04 #@! TA.AperFunction,ComponentPad*
%ADD14R,2.000000X2.500000*%
G04 #@! TD*
G04 #@! TA.AperFunction,ComponentPad*
%ADD15O,2.000000X2.500000*%
G04 #@! TD*
G04 #@! TA.AperFunction,ComponentPad*
%ADD16HorizOval,2.540000X1.226726X-0.328700X-1.226726X0.328700X0*%
G04 #@! TD*
G04 #@! TA.AperFunction,ComponentPad*
%ADD17R,2.540000X5.080000*%
G04 #@! TD*
G04 #@! TA.AperFunction,ComponentPad*
%ADD18O,5.080000X2.540000*%
G04 #@! TD*
G04 #@! TA.AperFunction,SMDPad,CuDef*
%ADD19R,1.900000X2.500000*%
G04 #@! TD*
G04 #@! TA.AperFunction,ComponentPad*
%ADD20R,2.750000X2.000000*%
G04 #@! TD*
G04 #@! TA.AperFunction,ComponentPad*
%ADD21O,2.750000X2.000000*%
G04 #@! TD*
G04 #@! TA.AperFunction,SMDPad,CuDef*
%ADD22RoundRect,0.250000X0.550000X-1.500000X0.550000X1.500000X-0.550000X1.500000X-0.550000X-1.500000X0*%
G04 #@! TD*
G04 #@! TA.AperFunction,SMDPad,CuDef*
%ADD23RoundRect,0.243750X-0.243750X-0.456250X0.243750X-0.456250X0.243750X0.456250X-0.243750X0.456250X0*%
G04 #@! TD*
G04 #@! TA.AperFunction,ComponentPad*
%ADD24R,2.500000X1.800000*%
G04 #@! TD*
G04 #@! TA.AperFunction,ComponentPad*
%ADD25O,2.500000X1.800000*%
G04 #@! TD*
G04 #@! TA.AperFunction,ComponentPad*
%ADD26R,2.800000X1.600000*%
G04 #@! TD*
G04 #@! TA.AperFunction,SMDPad,CuDef*
%ADD27RoundRect,0.250000X-0.375000X-0.625000X0.375000X-0.625000X0.375000X0.625000X-0.375000X0.625000X0*%
G04 #@! TD*
G04 #@! TA.AperFunction,SMDPad,CuDef*
%ADD28RoundRect,0.250000X0.375000X0.625000X-0.375000X0.625000X-0.375000X-0.625000X0.375000X-0.625000X0*%
G04 #@! TD*
G04 #@! TA.AperFunction,ComponentPad*
%ADD29R,1.727200X1.727200*%
G04 #@! TD*
G04 #@! TA.AperFunction,ComponentPad*
%ADD30O,1.727200X1.727200*%
G04 #@! TD*
G04 #@! TA.AperFunction,SMDPad,CuDef*
%ADD31R,2.500000X1.800000*%
G04 #@! TD*
G04 #@! TA.AperFunction,SMDPad,CuDef*
%ADD32R,2.500000X1.900000*%
G04 #@! TD*
G04 #@! TA.AperFunction,SMDPad,CuDef*
%ADD33RoundRect,0.218750X-0.218750X-0.256250X0.218750X-0.256250X0.218750X0.256250X-0.218750X0.256250X0*%
G04 #@! TD*
G04 #@! TA.AperFunction,SMDPad,CuDef*
%ADD34RoundRect,0.250000X0.625000X-0.375000X0.625000X0.375000X-0.625000X0.375000X-0.625000X-0.375000X0*%
G04 #@! TD*
G04 #@! TA.AperFunction,SMDPad,CuDef*
%ADD35RoundRect,0.250000X-0.625000X0.375000X-0.625000X-0.375000X0.625000X-0.375000X0.625000X0.375000X0*%
G04 #@! TD*
G04 #@! TA.AperFunction,ViaPad*
%ADD36C,0.800000*%
G04 #@! TD*
G04 #@! TA.AperFunction,Conductor*
%ADD37C,0.250000*%
G04 #@! TD*
G04 #@! TA.AperFunction,Conductor*
%ADD38C,1.000000*%
G04 #@! TD*
G04 #@! TA.AperFunction,Conductor*
%ADD39C,0.350000*%
G04 #@! TD*
G04 APERTURE END LIST*
D10*
X41000000Y-101500000D03*
D11*
X41000000Y-98960000D03*
D12*
X41000000Y-60000000D03*
D13*
X41000000Y-67000000D03*
D14*
X45960000Y-144500000D03*
D15*
X48500000Y-144500000D03*
D14*
X39730000Y-144500000D03*
D15*
X42270000Y-144500000D03*
D16*
X40000000Y-50810000D03*
D17*
X44810000Y-47000000D03*
D18*
X41000000Y-43190000D03*
D14*
X33480000Y-144500000D03*
D15*
X36020000Y-144500000D03*
D19*
X46550000Y-72250000D03*
X42450000Y-72250000D03*
D20*
X33507750Y-73790000D03*
D21*
X33507750Y-71250000D03*
X33507750Y-68710000D03*
D22*
X46500000Y-58200000D03*
X46500000Y-52800000D03*
D23*
X32962500Y-138000000D03*
X34837500Y-138000000D03*
D24*
X42912000Y-88417500D03*
D25*
X42912000Y-90957500D03*
X42912000Y-93497500D03*
D26*
X34000000Y-42750000D03*
D27*
X46100000Y-140500000D03*
X48900000Y-140500000D03*
D28*
X36400000Y-85750000D03*
X33600000Y-85750000D03*
D29*
X44500000Y-127265000D03*
D30*
X47040000Y-127265000D03*
X44500000Y-124725000D03*
X47040000Y-124725000D03*
X44500000Y-122185000D03*
X47040000Y-122185000D03*
X44500000Y-119645000D03*
X47040000Y-119645000D03*
X44500000Y-117105000D03*
X47040000Y-117105000D03*
X44500000Y-114565000D03*
X47040000Y-114565000D03*
X44500000Y-112025000D03*
X47040000Y-112025000D03*
X44500000Y-109485000D03*
X47040000Y-109485000D03*
D31*
X46500000Y-63500000D03*
X42500000Y-63500000D03*
D27*
X33100000Y-140250000D03*
X35900000Y-140250000D03*
D23*
X47162500Y-138250000D03*
X49037500Y-138250000D03*
D28*
X42650000Y-77000000D03*
X39850000Y-77000000D03*
D32*
X46500000Y-76950000D03*
X46500000Y-81050000D03*
D27*
X33100000Y-134250000D03*
X35900000Y-134250000D03*
D33*
X47512500Y-136250000D03*
X49087500Y-136250000D03*
D32*
X35000000Y-98450000D03*
X35000000Y-102550000D03*
D33*
X42962500Y-99000000D03*
X44537500Y-99000000D03*
D19*
X37550000Y-80500000D03*
X33450000Y-80500000D03*
D34*
X49000000Y-93650000D03*
X49000000Y-90850000D03*
X33500000Y-64150000D03*
X33500000Y-61350000D03*
D35*
X39750000Y-93100000D03*
X39750000Y-95900000D03*
D33*
X32912500Y-136250000D03*
X34487500Y-136250000D03*
D27*
X46600000Y-83500000D03*
X49400000Y-83500000D03*
D29*
X34855000Y-127265000D03*
D30*
X37395000Y-127265000D03*
X34855000Y-124725000D03*
X37395000Y-124725000D03*
X34855000Y-122185000D03*
X37395000Y-122185000D03*
X34855000Y-119645000D03*
X37395000Y-119645000D03*
X34855000Y-117105000D03*
X37395000Y-117105000D03*
X34855000Y-114565000D03*
X37395000Y-114565000D03*
X34855000Y-112025000D03*
X37395000Y-112025000D03*
X34855000Y-109485000D03*
X37395000Y-109485000D03*
D27*
X46600000Y-68000000D03*
X49400000Y-68000000D03*
D24*
X33412000Y-88417500D03*
D25*
X33412000Y-90957500D03*
X33412000Y-93497500D03*
D27*
X46100000Y-134250000D03*
X48900000Y-134250000D03*
D36*
X49250000Y-72000000D03*
X49250000Y-85750000D03*
X49250000Y-71000000D03*
X37750000Y-77000000D03*
X49250000Y-86750000D03*
X49250000Y-70000000D03*
X49250000Y-65250000D03*
X49250000Y-63250000D03*
X35750000Y-77000000D03*
X36750000Y-77000000D03*
X40250000Y-79000000D03*
X49250000Y-64250000D03*
X49250000Y-73000000D03*
X36500000Y-104500000D03*
X35500000Y-105500000D03*
X36500000Y-106500000D03*
X35500000Y-106500000D03*
X37500000Y-106500000D03*
X36500000Y-105500000D03*
X34500000Y-105500000D03*
X33500000Y-104500000D03*
X34500000Y-106500000D03*
X33500000Y-106500000D03*
X33500000Y-105500000D03*
X37500000Y-104500000D03*
X34500000Y-104500000D03*
X35500000Y-104500000D03*
X37500000Y-105500000D03*
X49000000Y-101000000D03*
X46000000Y-101000000D03*
X47000000Y-100000000D03*
X49000000Y-97000000D03*
X48000000Y-98000000D03*
X47000000Y-98000000D03*
X49000000Y-96000000D03*
X49000000Y-100000000D03*
X49000000Y-98000000D03*
X47000000Y-99000000D03*
X46000000Y-96000000D03*
X46000000Y-97000000D03*
X48000000Y-96000000D03*
X47000000Y-97000000D03*
X46000000Y-99000000D03*
X48000000Y-99000000D03*
X48000000Y-101000000D03*
X48000000Y-100000000D03*
X49000000Y-99000000D03*
X46000000Y-100000000D03*
X47000000Y-96000000D03*
X47000000Y-101000000D03*
X46000000Y-98000000D03*
X48000000Y-97000000D03*
D37*
X41000000Y-101515000D02*
X41000000Y-102250000D01*
D38*
X33507750Y-68710000D02*
X33507750Y-64157750D01*
D39*
X33507750Y-64157750D02*
X33500000Y-64150000D01*
D37*
X41040000Y-99000000D02*
X41000000Y-98960000D01*
X42962500Y-99000000D02*
X41040000Y-99000000D01*
G04 #@! TA.AperFunction,Conductor*
G36*
X35767813Y-89820002D02*
G01*
X35786474Y-89834650D01*
X36748840Y-90748898D01*
X36751153Y-90751153D01*
X37963095Y-91963095D01*
X37997121Y-92025407D01*
X38000000Y-92052190D01*
X38000000Y-94500000D01*
X40624000Y-94500000D01*
X40692121Y-94520002D01*
X40738614Y-94573658D01*
X40750000Y-94626000D01*
X40750000Y-97124000D01*
X40729998Y-97192121D01*
X40676342Y-97238614D01*
X40624000Y-97250000D01*
X38500000Y-97250000D01*
X38500000Y-100124000D01*
X38479998Y-100192121D01*
X38426342Y-100238614D01*
X38374000Y-100250000D01*
X32126500Y-100250000D01*
X32058379Y-100229998D01*
X32011886Y-100176342D01*
X32000500Y-100124000D01*
X32000500Y-94704518D01*
X32020502Y-94636397D01*
X32074158Y-94589904D01*
X32144432Y-94579800D01*
X32206391Y-94607084D01*
X32261752Y-94652478D01*
X32261758Y-94652482D01*
X32265880Y-94655862D01*
X32270516Y-94658501D01*
X32270519Y-94658503D01*
X32351356Y-94704518D01*
X32472433Y-94773439D01*
X32695844Y-94854534D01*
X32701092Y-94855483D01*
X32925641Y-94896088D01*
X32925648Y-94896089D01*
X32929725Y-94896826D01*
X32947991Y-94897687D01*
X32953131Y-94897930D01*
X32953138Y-94897930D01*
X32954619Y-94898000D01*
X33821680Y-94898000D01*
X33904026Y-94891013D01*
X33993512Y-94883420D01*
X33993516Y-94883419D01*
X33998823Y-94882969D01*
X34003978Y-94881631D01*
X34003984Y-94881630D01*
X34223703Y-94824602D01*
X34223702Y-94824602D01*
X34228874Y-94823260D01*
X34345327Y-94770802D01*
X34440715Y-94727833D01*
X34440718Y-94727832D01*
X34445576Y-94725643D01*
X34642732Y-94592909D01*
X34662913Y-94573658D01*
X34719158Y-94520002D01*
X34814705Y-94428855D01*
X34956579Y-94238170D01*
X35064295Y-94026307D01*
X35103079Y-93901404D01*
X35133193Y-93804419D01*
X35134775Y-93799324D01*
X35166004Y-93563711D01*
X35157087Y-93326205D01*
X35108281Y-93093596D01*
X35020980Y-92872537D01*
X34897681Y-92669347D01*
X34741910Y-92489836D01*
X34737784Y-92486453D01*
X34737780Y-92486449D01*
X34562248Y-92342523D01*
X34558120Y-92339138D01*
X34553484Y-92336499D01*
X34553481Y-92336497D01*
X34413278Y-92256689D01*
X34351567Y-92221561D01*
X34128156Y-92140466D01*
X34085950Y-92132834D01*
X33898359Y-92098912D01*
X33898352Y-92098911D01*
X33894275Y-92098174D01*
X33876009Y-92097313D01*
X33870869Y-92097070D01*
X33870862Y-92097070D01*
X33869381Y-92097000D01*
X33002320Y-92097000D01*
X32919974Y-92103987D01*
X32830488Y-92111580D01*
X32830484Y-92111581D01*
X32825177Y-92112031D01*
X32820022Y-92113369D01*
X32820016Y-92113370D01*
X32708612Y-92142285D01*
X32595126Y-92171740D01*
X32497766Y-92215597D01*
X32383285Y-92267167D01*
X32383282Y-92267168D01*
X32378424Y-92269357D01*
X32374000Y-92272336D01*
X32373999Y-92272336D01*
X32196867Y-92391589D01*
X32129189Y-92413040D01*
X32060657Y-92394497D01*
X32013030Y-92341845D01*
X32000500Y-92287069D01*
X32000500Y-89944000D01*
X32020502Y-89875879D01*
X32074158Y-89829386D01*
X32126500Y-89818000D01*
X34129522Y-89817999D01*
X34709376Y-89817999D01*
X34712770Y-89817630D01*
X34712776Y-89817630D01*
X34762722Y-89812205D01*
X34762726Y-89812204D01*
X34770580Y-89811351D01*
X34777980Y-89808577D01*
X34777984Y-89808576D01*
X34779472Y-89808018D01*
X34783084Y-89807363D01*
X34785663Y-89806750D01*
X34785696Y-89806890D01*
X34823700Y-89800000D01*
X35699692Y-89800000D01*
X35767813Y-89820002D01*
G37*
G04 #@! TD.AperFunction*
G04 #@! TA.AperFunction,Conductor*
G36*
X44192121Y-70520002D02*
G01*
X44238614Y-70573658D01*
X44250000Y-70626000D01*
X44250000Y-77874000D01*
X44229998Y-77942121D01*
X44176342Y-77988614D01*
X44124000Y-78000000D01*
X41126000Y-78000000D01*
X41057879Y-77979998D01*
X41011386Y-77926342D01*
X41000000Y-77874000D01*
X41000000Y-75250000D01*
X32126500Y-75250000D01*
X32058379Y-75229998D01*
X32011886Y-75176342D01*
X32000500Y-75124000D01*
X32000500Y-72626000D01*
X32020502Y-72557879D01*
X32074158Y-72511386D01*
X32126500Y-72500000D01*
X32263459Y-72500000D01*
X32334462Y-72521911D01*
X32389050Y-72559149D01*
X32500952Y-72611092D01*
X32608159Y-72660856D01*
X32608163Y-72660857D01*
X32612854Y-72663035D01*
X32850621Y-72728974D01*
X32855758Y-72729523D01*
X33048707Y-72750144D01*
X33048715Y-72750144D01*
X33052042Y-72750500D01*
X33945304Y-72750500D01*
X33947877Y-72750288D01*
X33947888Y-72750288D01*
X34123510Y-72735849D01*
X34123516Y-72735848D01*
X34128661Y-72735425D01*
X34367967Y-72675316D01*
X34594243Y-72576928D01*
X34681919Y-72520208D01*
X34750359Y-72500000D01*
X39000000Y-72500000D01*
X39000000Y-70626000D01*
X39020002Y-70557879D01*
X39073658Y-70511386D01*
X39126000Y-70500000D01*
X44124000Y-70500000D01*
X44192121Y-70520002D01*
G37*
G04 #@! TD.AperFunction*
G04 #@! TA.AperFunction,Conductor*
G36*
X47006163Y-126250607D02*
G01*
X47182740Y-126267999D01*
X47206957Y-126272815D01*
X47370809Y-126322518D01*
X47393629Y-126331971D01*
X47544631Y-126412683D01*
X47565158Y-126426399D01*
X47697521Y-126535026D01*
X47714974Y-126552479D01*
X47823601Y-126684842D01*
X47837319Y-126705372D01*
X47918029Y-126856371D01*
X47927482Y-126879190D01*
X47977185Y-127043043D01*
X47982002Y-127067263D01*
X47999393Y-127243837D01*
X48000000Y-127256187D01*
X48000000Y-127493813D01*
X47999393Y-127506163D01*
X47982002Y-127682737D01*
X47977185Y-127706957D01*
X47927482Y-127870809D01*
X47918029Y-127893629D01*
X47837319Y-128044628D01*
X47823601Y-128065158D01*
X47714974Y-128197521D01*
X47697521Y-128214974D01*
X47565158Y-128323601D01*
X47544631Y-128337317D01*
X47452417Y-128386607D01*
X47393629Y-128418029D01*
X47370810Y-128427482D01*
X47206957Y-128477185D01*
X47182740Y-128482001D01*
X47006163Y-128499393D01*
X46993813Y-128500000D01*
X33250000Y-128500000D01*
X33250000Y-126250000D01*
X46993813Y-126250000D01*
X47006163Y-126250607D01*
G37*
G04 #@! TD.AperFunction*
G04 #@! TA.AperFunction,Conductor*
G36*
X42946859Y-139687747D02*
G01*
X42987765Y-139745775D01*
X42994500Y-139786418D01*
X42994500Y-142736915D01*
X42974498Y-142805036D01*
X42920842Y-142851529D01*
X42850568Y-142861633D01*
X42826440Y-142855688D01*
X42659357Y-142796520D01*
X42649386Y-142793886D01*
X42537837Y-142774016D01*
X42524540Y-142775476D01*
X42520000Y-142790033D01*
X42520000Y-146211171D01*
X42523918Y-146224515D01*
X42538194Y-146226502D01*
X42613700Y-146214947D01*
X42623728Y-146212558D01*
X42848348Y-146139141D01*
X42857852Y-146135146D01*
X43045114Y-146037663D01*
X43114774Y-146023950D01*
X43180789Y-146050075D01*
X43190852Y-146058971D01*
X43192635Y-146061029D01*
X43196028Y-146063969D01*
X43294562Y-146149350D01*
X43294565Y-146149352D01*
X43301374Y-146155252D01*
X43432252Y-146215022D01*
X43500373Y-146235024D01*
X43504813Y-146235662D01*
X43504816Y-146235663D01*
X43638342Y-146254861D01*
X43638345Y-146254861D01*
X43642788Y-146255500D01*
X46829000Y-146255500D01*
X46868799Y-146251221D01*
X46882269Y-146250499D01*
X47007376Y-146250499D01*
X47010770Y-146250130D01*
X47010776Y-146250130D01*
X47060722Y-146244705D01*
X47060726Y-146244704D01*
X47068580Y-146243851D01*
X47202824Y-146193526D01*
X47210003Y-146188146D01*
X47210006Y-146188144D01*
X47250000Y-146158170D01*
X47250000Y-147749500D01*
X34750000Y-147749500D01*
X34750000Y-146190315D01*
X34777732Y-146184255D01*
X34844275Y-146209002D01*
X34874858Y-146241819D01*
X34884854Y-146257373D01*
X34887803Y-146260776D01*
X34887805Y-146260779D01*
X34894557Y-146268571D01*
X34931347Y-146311029D01*
X34934740Y-146313969D01*
X35033274Y-146399350D01*
X35033277Y-146399352D01*
X35040086Y-146405252D01*
X35170964Y-146465022D01*
X35239085Y-146485024D01*
X35243525Y-146485662D01*
X35243528Y-146485663D01*
X35377054Y-146504861D01*
X35377057Y-146504861D01*
X35381500Y-146505500D01*
X38111317Y-146505500D01*
X38128723Y-146505107D01*
X38133456Y-146505000D01*
X38133461Y-146505000D01*
X38134162Y-146504984D01*
X38145546Y-146504469D01*
X38168373Y-146502918D01*
X38308356Y-146469658D01*
X38312550Y-146468002D01*
X38370200Y-146445238D01*
X38370201Y-146445237D01*
X38374391Y-146443583D01*
X38499334Y-146372232D01*
X38579955Y-146288476D01*
X38641606Y-146253269D01*
X38677548Y-146250040D01*
X38679225Y-146250131D01*
X38682623Y-146250500D01*
X39730000Y-146250500D01*
X40777376Y-146250499D01*
X40780770Y-146250130D01*
X40780776Y-146250130D01*
X40830722Y-146244705D01*
X40830726Y-146244704D01*
X40838580Y-146243851D01*
X40972824Y-146193526D01*
X40980003Y-146188146D01*
X40980006Y-146188144D01*
X41080365Y-146112928D01*
X41087546Y-146107546D01*
X41092928Y-146100365D01*
X41168142Y-146000008D01*
X41168142Y-146000007D01*
X41173526Y-145992824D01*
X41176500Y-145984890D01*
X41226578Y-145934923D01*
X41295968Y-145919908D01*
X41364933Y-145946695D01*
X41433013Y-146000462D01*
X41441591Y-146006161D01*
X41648482Y-146120370D01*
X41657881Y-146124595D01*
X41880643Y-146203480D01*
X41890614Y-146206114D01*
X42002163Y-146225984D01*
X42015460Y-146224524D01*
X42020000Y-146209967D01*
X42020000Y-142788829D01*
X42016082Y-142775485D01*
X42001806Y-142773498D01*
X41926300Y-142785053D01*
X41916272Y-142787442D01*
X41691652Y-142860859D01*
X41682143Y-142864856D01*
X41472535Y-142973971D01*
X41463812Y-142979464D01*
X41362630Y-143055433D01*
X41296146Y-143080338D01*
X41226750Y-143065345D01*
X41176568Y-143015291D01*
X41173526Y-143007176D01*
X41087546Y-142892454D01*
X41064798Y-142875405D01*
X40980006Y-142811856D01*
X40980003Y-142811854D01*
X40972824Y-142806474D01*
X40870500Y-142768115D01*
X40845975Y-142758921D01*
X40845973Y-142758921D01*
X40838580Y-142756149D01*
X40830730Y-142755296D01*
X40830729Y-142755296D01*
X40780774Y-142749869D01*
X40780773Y-142749869D01*
X40777377Y-142749500D01*
X40731336Y-142749500D01*
X39131500Y-142749501D01*
X39063379Y-142729499D01*
X39016886Y-142675843D01*
X39005500Y-142623501D01*
X39005500Y-139786418D01*
X39025502Y-139718297D01*
X39079158Y-139671804D01*
X39149432Y-139661700D01*
X39188704Y-139674151D01*
X39513170Y-139839475D01*
X39870385Y-139976597D01*
X40239977Y-140075628D01*
X40440654Y-140107413D01*
X40614647Y-140134971D01*
X40614655Y-140134972D01*
X40617895Y-140135485D01*
X40904402Y-140150500D01*
X41095598Y-140150500D01*
X41382105Y-140135485D01*
X41385345Y-140134972D01*
X41385353Y-140134971D01*
X41559346Y-140107413D01*
X41760023Y-140075628D01*
X42129615Y-139976597D01*
X42486830Y-139839475D01*
X42811296Y-139674151D01*
X42881074Y-139661047D01*
X42946859Y-139687747D01*
G37*
G04 #@! TD.AperFunction*
G04 #@! TA.AperFunction,Conductor*
G36*
X43088074Y-118775502D02*
G01*
X43120713Y-118805847D01*
X43155862Y-118852661D01*
X43158566Y-118856262D01*
X43208840Y-118906393D01*
X43221641Y-118915947D01*
X43223818Y-118917572D01*
X43266446Y-118974347D01*
X43271612Y-119045155D01*
X43262740Y-119071599D01*
X43218062Y-119167848D01*
X43214503Y-119177522D01*
X43157988Y-119381309D01*
X43159853Y-119391608D01*
X43172230Y-119395000D01*
X45401959Y-119395000D01*
X45461268Y-119411007D01*
X45461613Y-119410303D01*
X45525360Y-119441557D01*
X45594981Y-119464092D01*
X45653675Y-119483091D01*
X45653677Y-119483091D01*
X45662243Y-119485864D01*
X45732567Y-119487795D01*
X45801581Y-119489691D01*
X45801585Y-119489691D01*
X45806069Y-119489814D01*
X45876594Y-119481643D01*
X45880933Y-119480497D01*
X45880940Y-119480496D01*
X45958061Y-119460132D01*
X46015712Y-119444910D01*
X46068211Y-119413172D01*
X46133395Y-119395000D01*
X47164000Y-119395000D01*
X47232121Y-119415002D01*
X47278614Y-119468658D01*
X47290000Y-119521000D01*
X47290000Y-120558162D01*
X47274309Y-120619055D01*
X47259626Y-120645654D01*
X47251109Y-120661082D01*
X47225993Y-120727487D01*
X47225019Y-120731867D01*
X47225017Y-120731874D01*
X47207986Y-120808468D01*
X47194763Y-120867934D01*
X47204367Y-121011493D01*
X47219139Y-121080936D01*
X47268799Y-121215975D01*
X47274168Y-121223216D01*
X47274864Y-121224505D01*
X47290000Y-121284382D01*
X47290000Y-123098162D01*
X47274309Y-123159055D01*
X47259626Y-123185654D01*
X47251109Y-123201082D01*
X47225993Y-123267487D01*
X47225019Y-123271867D01*
X47225017Y-123271874D01*
X47207986Y-123348468D01*
X47194763Y-123407934D01*
X47204367Y-123551493D01*
X47219139Y-123620936D01*
X47268799Y-123755975D01*
X47274168Y-123763216D01*
X47274864Y-123764505D01*
X47290000Y-123824382D01*
X47290000Y-124849000D01*
X47269998Y-124917121D01*
X47216342Y-124963614D01*
X47164000Y-124975000D01*
X46135373Y-124975000D01*
X46077156Y-124960744D01*
X46034156Y-124938342D01*
X46030158Y-124936259D01*
X45943305Y-124905781D01*
X45902896Y-124891601D01*
X45902895Y-124891601D01*
X45894389Y-124888616D01*
X45885388Y-124888149D01*
X45885385Y-124888148D01*
X45755199Y-124881388D01*
X45755193Y-124881388D01*
X45750703Y-124881155D01*
X45746228Y-124881563D01*
X45746226Y-124881563D01*
X45729447Y-124883093D01*
X45679999Y-124887601D01*
X45675620Y-124888644D01*
X45675617Y-124888644D01*
X45548797Y-124918836D01*
X45548796Y-124918836D01*
X45540027Y-124920924D01*
X45513202Y-124936259D01*
X45474492Y-124958388D01*
X45411959Y-124975000D01*
X43176583Y-124975000D01*
X43163052Y-124978973D01*
X43161615Y-124988966D01*
X43193203Y-125129126D01*
X43196283Y-125138955D01*
X43276755Y-125337137D01*
X43281398Y-125346328D01*
X43393160Y-125528707D01*
X43402294Y-125541186D01*
X43401122Y-125542044D01*
X43427847Y-125600588D01*
X43417732Y-125670860D01*
X43371231Y-125724509D01*
X43303127Y-125744500D01*
X39089446Y-125744500D01*
X39021325Y-125724498D01*
X38974832Y-125670842D01*
X38971314Y-125662326D01*
X38950501Y-125606225D01*
X38950499Y-125606220D01*
X38948935Y-125602005D01*
X38937723Y-125581385D01*
X38884509Y-125483526D01*
X38880203Y-125475607D01*
X38778643Y-125373690D01*
X38722546Y-125331543D01*
X38680100Y-125274633D01*
X38675160Y-125203809D01*
X38677674Y-125194180D01*
X38730869Y-125019094D01*
X38733047Y-125009021D01*
X38735161Y-124992961D01*
X38732950Y-124978779D01*
X38719792Y-124975000D01*
X36490374Y-124975000D01*
X36432158Y-124960745D01*
X36385154Y-124936257D01*
X36380908Y-124934767D01*
X36257887Y-124891598D01*
X36257885Y-124891598D01*
X36249388Y-124888616D01*
X36197475Y-124885920D01*
X36110197Y-124881388D01*
X36110191Y-124881388D01*
X36105701Y-124881155D01*
X36101226Y-124881563D01*
X36101224Y-124881563D01*
X36039481Y-124887192D01*
X36039477Y-124887193D01*
X36034998Y-124887601D01*
X36030614Y-124888645D01*
X36030612Y-124888645D01*
X35988342Y-124898708D01*
X35895031Y-124920922D01*
X35887206Y-124925395D01*
X35887204Y-124925396D01*
X35829491Y-124958388D01*
X35766959Y-124975000D01*
X34731000Y-124975000D01*
X34662879Y-124954998D01*
X34616386Y-124901342D01*
X34605000Y-124849000D01*
X34605000Y-123812687D01*
X34622213Y-123749115D01*
X34635952Y-123725605D01*
X34635953Y-123725602D01*
X34638222Y-123721720D01*
X34664954Y-123655948D01*
X34699608Y-123516300D01*
X34695014Y-123407934D01*
X35009763Y-123407934D01*
X35019367Y-123551493D01*
X35034139Y-123620936D01*
X35083799Y-123755975D01*
X35089168Y-123763216D01*
X35089864Y-123764505D01*
X35105000Y-123824382D01*
X35105000Y-124456885D01*
X35109475Y-124472124D01*
X35110865Y-124473329D01*
X35118548Y-124475000D01*
X35756959Y-124475000D01*
X35816268Y-124491007D01*
X35816613Y-124490303D01*
X35880360Y-124521557D01*
X35949981Y-124544092D01*
X36008675Y-124563091D01*
X36008677Y-124563091D01*
X36017243Y-124565864D01*
X36087567Y-124567795D01*
X36156581Y-124569691D01*
X36156585Y-124569691D01*
X36161069Y-124569814D01*
X36231594Y-124561643D01*
X36235933Y-124560497D01*
X36235940Y-124560496D01*
X36313061Y-124540132D01*
X36370712Y-124524910D01*
X36423211Y-124493172D01*
X36488395Y-124475000D01*
X37126885Y-124475000D01*
X37142124Y-124470525D01*
X37143329Y-124469135D01*
X37145000Y-124461452D01*
X37145000Y-123812687D01*
X37162213Y-123749115D01*
X37175952Y-123725605D01*
X37175953Y-123725602D01*
X37178222Y-123721720D01*
X37204954Y-123655948D01*
X37239608Y-123516300D01*
X37235014Y-123407934D01*
X37549763Y-123407934D01*
X37559367Y-123551493D01*
X37574139Y-123620936D01*
X37623799Y-123755975D01*
X37629168Y-123763216D01*
X37629864Y-123764505D01*
X37645000Y-123824382D01*
X37645000Y-124456885D01*
X37649475Y-124472124D01*
X37650865Y-124473329D01*
X37658548Y-124475000D01*
X38720122Y-124475000D01*
X38733653Y-124471027D01*
X38734958Y-124461947D01*
X38691534Y-124289067D01*
X38688213Y-124279311D01*
X38683749Y-124269044D01*
X38674927Y-124198598D01*
X38705591Y-124134565D01*
X38731176Y-124112800D01*
X38753591Y-124098395D01*
X38753596Y-124098392D01*
X38757373Y-124095964D01*
X38811029Y-124049471D01*
X38857617Y-123995706D01*
X38899350Y-123947544D01*
X38899352Y-123947541D01*
X38905252Y-123940732D01*
X38913814Y-123921985D01*
X38948540Y-123845945D01*
X38965022Y-123809854D01*
X38980842Y-123755975D01*
X38983758Y-123746045D01*
X38983758Y-123746044D01*
X38985024Y-123741733D01*
X38987343Y-123725605D01*
X39004861Y-123603764D01*
X39004861Y-123603761D01*
X39005500Y-123599318D01*
X39005500Y-123517768D01*
X42994500Y-123517768D01*
X43010292Y-123643133D01*
X43025791Y-123703676D01*
X43072178Y-123821203D01*
X43077256Y-123827967D01*
X43077257Y-123827968D01*
X43155864Y-123932664D01*
X43155868Y-123932669D01*
X43158566Y-123936262D01*
X43161757Y-123939444D01*
X43161758Y-123939445D01*
X43169880Y-123947544D01*
X43208840Y-123986393D01*
X43221314Y-123995703D01*
X43223818Y-123997572D01*
X43266446Y-124054347D01*
X43271612Y-124125155D01*
X43262740Y-124151599D01*
X43218062Y-124247848D01*
X43214503Y-124257522D01*
X43157988Y-124461309D01*
X43159853Y-124471608D01*
X43172230Y-124475000D01*
X44231885Y-124475000D01*
X44247124Y-124470525D01*
X44248329Y-124469135D01*
X44250000Y-124461452D01*
X44250000Y-123812687D01*
X44267213Y-123749115D01*
X44280952Y-123725605D01*
X44280953Y-123725602D01*
X44283222Y-123721720D01*
X44309954Y-123655948D01*
X44344608Y-123516300D01*
X44340014Y-123407934D01*
X44654763Y-123407934D01*
X44664367Y-123551493D01*
X44679139Y-123620936D01*
X44728799Y-123755975D01*
X44734168Y-123763216D01*
X44734864Y-123764505D01*
X44750000Y-123824382D01*
X44750000Y-124456885D01*
X44754475Y-124472124D01*
X44755865Y-124473329D01*
X44763548Y-124475000D01*
X45401959Y-124475000D01*
X45461268Y-124491007D01*
X45461613Y-124490303D01*
X45525360Y-124521557D01*
X45594981Y-124544092D01*
X45653675Y-124563091D01*
X45653677Y-124563091D01*
X45662243Y-124565864D01*
X45732567Y-124567795D01*
X45801581Y-124569691D01*
X45801585Y-124569691D01*
X45806069Y-124569814D01*
X45876594Y-124561643D01*
X45880933Y-124560497D01*
X45880940Y-124560496D01*
X45958061Y-124540132D01*
X46015712Y-124524910D01*
X46068211Y-124493172D01*
X46133395Y-124475000D01*
X46771885Y-124475000D01*
X46787124Y-124470525D01*
X46788329Y-124469135D01*
X46790000Y-124461452D01*
X46790000Y-123812687D01*
X46807213Y-123749115D01*
X46820952Y-123725605D01*
X46820953Y-123725602D01*
X46823222Y-123721720D01*
X46849954Y-123655948D01*
X46884608Y-123516300D01*
X46878514Y-123372549D01*
X46865443Y-123302766D01*
X46819100Y-123166559D01*
X46812980Y-123157868D01*
X46812555Y-123156527D01*
X46809824Y-123151161D01*
X46810712Y-123150709D01*
X46790000Y-123085323D01*
X46790000Y-122453115D01*
X46785525Y-122437876D01*
X46784135Y-122436671D01*
X46776452Y-122435000D01*
X46135374Y-122435000D01*
X46077158Y-122420745D01*
X46072634Y-122418388D01*
X46030154Y-122396257D01*
X45986453Y-122380922D01*
X45902887Y-122351598D01*
X45902885Y-122351598D01*
X45894388Y-122348616D01*
X45842475Y-122345920D01*
X45755197Y-122341388D01*
X45755191Y-122341388D01*
X45750701Y-122341155D01*
X45746226Y-122341563D01*
X45746224Y-122341563D01*
X45684481Y-122347192D01*
X45684477Y-122347193D01*
X45679998Y-122347601D01*
X45675614Y-122348645D01*
X45675612Y-122348645D01*
X45663208Y-122351598D01*
X45540031Y-122380922D01*
X45532206Y-122385395D01*
X45532204Y-122385396D01*
X45474491Y-122418388D01*
X45411959Y-122435000D01*
X44768115Y-122435000D01*
X44752876Y-122439475D01*
X44751671Y-122440865D01*
X44750000Y-122448548D01*
X44750000Y-123098162D01*
X44734309Y-123159055D01*
X44719626Y-123185654D01*
X44711109Y-123201082D01*
X44685993Y-123267487D01*
X44685019Y-123271867D01*
X44685017Y-123271874D01*
X44667986Y-123348468D01*
X44654763Y-123407934D01*
X44340014Y-123407934D01*
X44338514Y-123372549D01*
X44325443Y-123302766D01*
X44279100Y-123166559D01*
X44272980Y-123157868D01*
X44272555Y-123156527D01*
X44269824Y-123151161D01*
X44270712Y-123150709D01*
X44250000Y-123085323D01*
X44250000Y-122453115D01*
X44245525Y-122437876D01*
X44244135Y-122436671D01*
X44236452Y-122435000D01*
X43176583Y-122435000D01*
X43163052Y-122438973D01*
X43161615Y-122448966D01*
X43193203Y-122589126D01*
X43196283Y-122598955D01*
X43264700Y-122767450D01*
X43271796Y-122838092D01*
X43239574Y-122901355D01*
X43230470Y-122910078D01*
X43188971Y-122946037D01*
X43186031Y-122949430D01*
X43100650Y-123047964D01*
X43100648Y-123047967D01*
X43094748Y-123054776D01*
X43034978Y-123185654D01*
X43014976Y-123253775D01*
X43014338Y-123258215D01*
X43014337Y-123258218D01*
X43008544Y-123298513D01*
X42994500Y-123396190D01*
X42994500Y-123517768D01*
X39005500Y-123517768D01*
X39005500Y-123313165D01*
X39005194Y-123295592D01*
X39004889Y-123286824D01*
X39003969Y-123269214D01*
X38981825Y-123166559D01*
X38974578Y-123132962D01*
X38974577Y-123132957D01*
X38973630Y-123128569D01*
X38948935Y-123062005D01*
X38880203Y-122935607D01*
X38778643Y-122833690D01*
X38722546Y-122791543D01*
X38680100Y-122734633D01*
X38675160Y-122663809D01*
X38677674Y-122654180D01*
X38730869Y-122479094D01*
X38733047Y-122469021D01*
X38735161Y-122452961D01*
X38732950Y-122438779D01*
X38719792Y-122435000D01*
X37663115Y-122435000D01*
X37647876Y-122439475D01*
X37646671Y-122440865D01*
X37645000Y-122448548D01*
X37645000Y-123098162D01*
X37629309Y-123159055D01*
X37614626Y-123185654D01*
X37606109Y-123201082D01*
X37580993Y-123267487D01*
X37580019Y-123271867D01*
X37580017Y-123271874D01*
X37562986Y-123348468D01*
X37549763Y-123407934D01*
X37235014Y-123407934D01*
X37233514Y-123372549D01*
X37220443Y-123302766D01*
X37174100Y-123166559D01*
X37167980Y-123157868D01*
X37167555Y-123156527D01*
X37164824Y-123151161D01*
X37165712Y-123150709D01*
X37145000Y-123085323D01*
X37145000Y-122453115D01*
X37140525Y-122437876D01*
X37139135Y-122436671D01*
X37131452Y-122435000D01*
X36490374Y-122435000D01*
X36432158Y-122420745D01*
X36427634Y-122418388D01*
X36385154Y-122396257D01*
X36341453Y-122380922D01*
X36257887Y-122351598D01*
X36257885Y-122351598D01*
X36249388Y-122348616D01*
X36197475Y-122345920D01*
X36110197Y-122341388D01*
X36110191Y-122341388D01*
X36105701Y-122341155D01*
X36101226Y-122341563D01*
X36101224Y-122341563D01*
X36039481Y-122347192D01*
X36039477Y-122347193D01*
X36034998Y-122347601D01*
X36030614Y-122348645D01*
X36030612Y-122348645D01*
X36018208Y-122351598D01*
X35895031Y-122380922D01*
X35887206Y-122385395D01*
X35887204Y-122385396D01*
X35829491Y-122418388D01*
X35766959Y-122435000D01*
X35123115Y-122435000D01*
X35107876Y-122439475D01*
X35106671Y-122440865D01*
X35105000Y-122448548D01*
X35105000Y-123098162D01*
X35089309Y-123159055D01*
X35074626Y-123185654D01*
X35066109Y-123201082D01*
X35040993Y-123267487D01*
X35040019Y-123271867D01*
X35040017Y-123271874D01*
X35022986Y-123348468D01*
X35009763Y-123407934D01*
X34695014Y-123407934D01*
X34693514Y-123372549D01*
X34680443Y-123302766D01*
X34634100Y-123166559D01*
X34627980Y-123157868D01*
X34627555Y-123156527D01*
X34624824Y-123151161D01*
X34625712Y-123150709D01*
X34605000Y-123085323D01*
X34605000Y-121272687D01*
X34622213Y-121209115D01*
X34635952Y-121185605D01*
X34635953Y-121185602D01*
X34638222Y-121181720D01*
X34664954Y-121115948D01*
X34699608Y-120976300D01*
X34695014Y-120867934D01*
X35009763Y-120867934D01*
X35019367Y-121011493D01*
X35034139Y-121080936D01*
X35083799Y-121215975D01*
X35089168Y-121223216D01*
X35089864Y-121224505D01*
X35105000Y-121284382D01*
X35105000Y-121916885D01*
X35109475Y-121932124D01*
X35110865Y-121933329D01*
X35118548Y-121935000D01*
X35756959Y-121935000D01*
X35816268Y-121951007D01*
X35816613Y-121950303D01*
X35880360Y-121981557D01*
X35949981Y-122004092D01*
X36008675Y-122023091D01*
X36008677Y-122023091D01*
X36017243Y-122025864D01*
X36087567Y-122027795D01*
X36156581Y-122029691D01*
X36156585Y-122029691D01*
X36161069Y-122029814D01*
X36231594Y-122021643D01*
X36235933Y-122020497D01*
X36235940Y-122020496D01*
X36313061Y-122000132D01*
X36370712Y-121984910D01*
X36423211Y-121953172D01*
X36488395Y-121935000D01*
X37126885Y-121935000D01*
X37142124Y-121930525D01*
X37143329Y-121929135D01*
X37145000Y-121921452D01*
X37145000Y-121272687D01*
X37162213Y-121209115D01*
X37175952Y-121185605D01*
X37175953Y-121185602D01*
X37178222Y-121181720D01*
X37204954Y-121115948D01*
X37239608Y-120976300D01*
X37235014Y-120867934D01*
X37549763Y-120867934D01*
X37559367Y-121011493D01*
X37574139Y-121080936D01*
X37623799Y-121215975D01*
X37629168Y-121223216D01*
X37629864Y-121224505D01*
X37645000Y-121284382D01*
X37645000Y-121916885D01*
X37649475Y-121932124D01*
X37650865Y-121933329D01*
X37658548Y-121935000D01*
X38720122Y-121935000D01*
X38733653Y-121931027D01*
X38734958Y-121921947D01*
X38691534Y-121749067D01*
X38688213Y-121739311D01*
X38683749Y-121729044D01*
X38674927Y-121658598D01*
X38705591Y-121594565D01*
X38731176Y-121572800D01*
X38753591Y-121558395D01*
X38753596Y-121558392D01*
X38757373Y-121555964D01*
X38811029Y-121509471D01*
X38857617Y-121455706D01*
X38899350Y-121407544D01*
X38899352Y-121407541D01*
X38905252Y-121400732D01*
X38913814Y-121381985D01*
X38948540Y-121305945D01*
X38965022Y-121269854D01*
X38980842Y-121215975D01*
X38983758Y-121206045D01*
X38983758Y-121206044D01*
X38985024Y-121201733D01*
X38987343Y-121185605D01*
X39004861Y-121063764D01*
X39004861Y-121063761D01*
X39005500Y-121059318D01*
X39005500Y-120977768D01*
X42994500Y-120977768D01*
X43010292Y-121103133D01*
X43025791Y-121163676D01*
X43072178Y-121281203D01*
X43077256Y-121287967D01*
X43077257Y-121287968D01*
X43155864Y-121392664D01*
X43155868Y-121392669D01*
X43158566Y-121396262D01*
X43161757Y-121399444D01*
X43161758Y-121399445D01*
X43169880Y-121407544D01*
X43208840Y-121446393D01*
X43221314Y-121455703D01*
X43223818Y-121457572D01*
X43266446Y-121514347D01*
X43271612Y-121585155D01*
X43262740Y-121611599D01*
X43218062Y-121707848D01*
X43214503Y-121717522D01*
X43157988Y-121921309D01*
X43159853Y-121931608D01*
X43172230Y-121935000D01*
X44231885Y-121935000D01*
X44247124Y-121930525D01*
X44248329Y-121929135D01*
X44250000Y-121921452D01*
X44250000Y-121272687D01*
X44267213Y-121209115D01*
X44280952Y-121185605D01*
X44280953Y-121185602D01*
X44283222Y-121181720D01*
X44309954Y-121115948D01*
X44344608Y-120976300D01*
X44340014Y-120867934D01*
X44654763Y-120867934D01*
X44664367Y-121011493D01*
X44679139Y-121080936D01*
X44728799Y-121215975D01*
X44734168Y-121223216D01*
X44734864Y-121224505D01*
X44750000Y-121284382D01*
X44750000Y-121916885D01*
X44754475Y-121932124D01*
X44755865Y-121933329D01*
X44763548Y-121935000D01*
X45401959Y-121935000D01*
X45461268Y-121951007D01*
X45461613Y-121950303D01*
X45525360Y-121981557D01*
X45594981Y-122004092D01*
X45653675Y-122023091D01*
X45653677Y-122023091D01*
X45662243Y-122025864D01*
X45732567Y-122027795D01*
X45801581Y-122029691D01*
X45801585Y-122029691D01*
X45806069Y-122029814D01*
X45876594Y-122021643D01*
X45880933Y-122020497D01*
X45880940Y-122020496D01*
X45958061Y-122000132D01*
X46015712Y-121984910D01*
X46068211Y-121953172D01*
X46133395Y-121935000D01*
X46771885Y-121935000D01*
X46787124Y-121930525D01*
X46788329Y-121929135D01*
X46790000Y-121921452D01*
X46790000Y-121272687D01*
X46807213Y-121209115D01*
X46820952Y-121185605D01*
X46820953Y-121185602D01*
X46823222Y-121181720D01*
X46849954Y-121115948D01*
X46884608Y-120976300D01*
X46878514Y-120832549D01*
X46865443Y-120762766D01*
X46819100Y-120626559D01*
X46812980Y-120617868D01*
X46812555Y-120616527D01*
X46809824Y-120611161D01*
X46810712Y-120610709D01*
X46790000Y-120545323D01*
X46790000Y-119913115D01*
X46785525Y-119897876D01*
X46784135Y-119896671D01*
X46776452Y-119895000D01*
X46135374Y-119895000D01*
X46077158Y-119880745D01*
X46072634Y-119878388D01*
X46030154Y-119856257D01*
X45986453Y-119840922D01*
X45902887Y-119811598D01*
X45902885Y-119811598D01*
X45894388Y-119808616D01*
X45842475Y-119805920D01*
X45755197Y-119801388D01*
X45755191Y-119801388D01*
X45750701Y-119801155D01*
X45746226Y-119801563D01*
X45746224Y-119801563D01*
X45684481Y-119807192D01*
X45684477Y-119807193D01*
X45679998Y-119807601D01*
X45675614Y-119808645D01*
X45675612Y-119808645D01*
X45663208Y-119811598D01*
X45540031Y-119840922D01*
X45532206Y-119845395D01*
X45532204Y-119845396D01*
X45474491Y-119878388D01*
X45411959Y-119895000D01*
X44768115Y-119895000D01*
X44752876Y-119899475D01*
X44751671Y-119900865D01*
X44750000Y-119908548D01*
X44750000Y-120558162D01*
X44734309Y-120619055D01*
X44719626Y-120645654D01*
X44711109Y-120661082D01*
X44685993Y-120727487D01*
X44685019Y-120731867D01*
X44685017Y-120731874D01*
X44667986Y-120808468D01*
X44654763Y-120867934D01*
X44340014Y-120867934D01*
X44338514Y-120832549D01*
X44325443Y-120762766D01*
X44279100Y-120626559D01*
X44272980Y-120617868D01*
X44272555Y-120616527D01*
X44269824Y-120611161D01*
X44270712Y-120610709D01*
X44250000Y-120545323D01*
X44250000Y-119913115D01*
X44245525Y-119897876D01*
X44244135Y-119896671D01*
X44236452Y-119895000D01*
X43176583Y-119895000D01*
X43163052Y-119898973D01*
X43161615Y-119908966D01*
X43193203Y-120049126D01*
X43196283Y-120058955D01*
X43264700Y-120227450D01*
X43271796Y-120298092D01*
X43239574Y-120361355D01*
X43230470Y-120370078D01*
X43188971Y-120406037D01*
X43186031Y-120409430D01*
X43100650Y-120507964D01*
X43100648Y-120507967D01*
X43094748Y-120514776D01*
X43034978Y-120645654D01*
X43014976Y-120713775D01*
X43014338Y-120718215D01*
X43014337Y-120718218D01*
X43008544Y-120758513D01*
X42994500Y-120856190D01*
X42994500Y-120977768D01*
X39005500Y-120977768D01*
X39005500Y-120773165D01*
X39005194Y-120755592D01*
X39004889Y-120746824D01*
X39003969Y-120729214D01*
X38981825Y-120626559D01*
X38974578Y-120592962D01*
X38974577Y-120592957D01*
X38973630Y-120588569D01*
X38948935Y-120522005D01*
X38880203Y-120395607D01*
X38778643Y-120293690D01*
X38722546Y-120251543D01*
X38680100Y-120194633D01*
X38675160Y-120123809D01*
X38677674Y-120114180D01*
X38730869Y-119939094D01*
X38733047Y-119929021D01*
X38735161Y-119912961D01*
X38732950Y-119898779D01*
X38719792Y-119895000D01*
X37663115Y-119895000D01*
X37647876Y-119899475D01*
X37646671Y-119900865D01*
X37645000Y-119908548D01*
X37645000Y-120558162D01*
X37629309Y-120619055D01*
X37614626Y-120645654D01*
X37606109Y-120661082D01*
X37580993Y-120727487D01*
X37580019Y-120731867D01*
X37580017Y-120731874D01*
X37562986Y-120808468D01*
X37549763Y-120867934D01*
X37235014Y-120867934D01*
X37233514Y-120832549D01*
X37220443Y-120762766D01*
X37174100Y-120626559D01*
X37167980Y-120617868D01*
X37167555Y-120616527D01*
X37164824Y-120611161D01*
X37165712Y-120610709D01*
X37145000Y-120545323D01*
X37145000Y-119913115D01*
X37140525Y-119897876D01*
X37139135Y-119896671D01*
X37131452Y-119895000D01*
X36490374Y-119895000D01*
X36432158Y-119880745D01*
X36427634Y-119878388D01*
X36385154Y-119856257D01*
X36341453Y-119840922D01*
X36257887Y-119811598D01*
X36257885Y-119811598D01*
X36249388Y-119808616D01*
X36197475Y-119805920D01*
X36110197Y-119801388D01*
X36110191Y-119801388D01*
X36105701Y-119801155D01*
X36101226Y-119801563D01*
X36101224Y-119801563D01*
X36039481Y-119807192D01*
X36039477Y-119807193D01*
X36034998Y-119807601D01*
X36030614Y-119808645D01*
X36030612Y-119808645D01*
X36018208Y-119811598D01*
X35895031Y-119840922D01*
X35887206Y-119845395D01*
X35887204Y-119845396D01*
X35829491Y-119878388D01*
X35766959Y-119895000D01*
X35123115Y-119895000D01*
X35107876Y-119899475D01*
X35106671Y-119900865D01*
X35105000Y-119908548D01*
X35105000Y-120558162D01*
X35089309Y-120619055D01*
X35074626Y-120645654D01*
X35066109Y-120661082D01*
X35040993Y-120727487D01*
X35040019Y-120731867D01*
X35040017Y-120731874D01*
X35022986Y-120808468D01*
X35009763Y-120867934D01*
X34695014Y-120867934D01*
X34693514Y-120832549D01*
X34680443Y-120762766D01*
X34634100Y-120626559D01*
X34627980Y-120617868D01*
X34627555Y-120616527D01*
X34624824Y-120611161D01*
X34625712Y-120610709D01*
X34605000Y-120545323D01*
X34605000Y-119521000D01*
X34625002Y-119452879D01*
X34678658Y-119406386D01*
X34731000Y-119395000D01*
X38720122Y-119395000D01*
X38733653Y-119391027D01*
X38734958Y-119381947D01*
X38691534Y-119209064D01*
X38688216Y-119199317D01*
X38602924Y-119003159D01*
X38598059Y-118994087D01*
X38569499Y-118949939D01*
X38549293Y-118881879D01*
X38569090Y-118813698D01*
X38622605Y-118767044D01*
X38675292Y-118755500D01*
X43019953Y-118755500D01*
X43088074Y-118775502D01*
G37*
G04 #@! TD.AperFunction*
G04 #@! TA.AperFunction,Conductor*
G36*
X39987217Y-97775502D02*
G01*
X40033710Y-97829158D01*
X40043814Y-97899432D01*
X40010190Y-97968551D01*
X39907877Y-98075616D01*
X39778099Y-98265863D01*
X39775923Y-98270552D01*
X39775919Y-98270558D01*
X39683315Y-98470057D01*
X39681136Y-98474752D01*
X39619592Y-98696673D01*
X39595119Y-98925665D01*
X39608376Y-99155580D01*
X39609513Y-99160626D01*
X39609514Y-99160632D01*
X39641438Y-99302289D01*
X39659006Y-99380242D01*
X39745649Y-99593618D01*
X39865979Y-99789978D01*
X39869360Y-99793881D01*
X39869365Y-99793888D01*
X39985230Y-99927646D01*
X40014713Y-99992231D01*
X40004598Y-100062503D01*
X39958097Y-100116152D01*
X39934222Y-100128125D01*
X39865823Y-100153767D01*
X39850237Y-100162299D01*
X39749991Y-100237430D01*
X39737430Y-100249991D01*
X39662299Y-100350237D01*
X39653767Y-100365823D01*
X39609414Y-100484133D01*
X39605789Y-100499379D01*
X39600369Y-100549271D01*
X39600000Y-100556085D01*
X39600000Y-101231885D01*
X39604475Y-101247124D01*
X39605865Y-101248329D01*
X39613548Y-101250000D01*
X42381885Y-101250000D01*
X42397124Y-101245525D01*
X42398329Y-101244135D01*
X42400000Y-101236452D01*
X42400000Y-100556085D01*
X42399631Y-100549271D01*
X42394211Y-100499379D01*
X42390586Y-100484133D01*
X42346233Y-100365823D01*
X42337701Y-100350237D01*
X42262570Y-100249991D01*
X42250009Y-100237430D01*
X42149763Y-100162299D01*
X42134179Y-100153768D01*
X42064948Y-100127814D01*
X42008184Y-100085172D01*
X41983484Y-100018611D01*
X41998691Y-99949262D01*
X42020238Y-99920581D01*
X42028298Y-99912549D01*
X42070190Y-99870803D01*
X42073204Y-99866609D01*
X42073213Y-99866598D01*
X42096955Y-99833557D01*
X42152949Y-99789909D01*
X42223653Y-99783463D01*
X42283569Y-99815393D01*
X42284011Y-99814833D01*
X42287110Y-99817280D01*
X42288298Y-99817913D01*
X42294939Y-99824543D01*
X42301169Y-99828383D01*
X42301170Y-99828384D01*
X42348926Y-99857821D01*
X42437713Y-99912549D01*
X42444661Y-99914854D01*
X42444662Y-99914854D01*
X42483229Y-99927646D01*
X42596902Y-99965350D01*
X42603735Y-99966050D01*
X42603739Y-99966051D01*
X42656346Y-99971441D01*
X42695965Y-99975500D01*
X42703397Y-99975500D01*
X42868500Y-99975499D01*
X42936620Y-99995501D01*
X42983113Y-100049156D01*
X42994500Y-100101499D01*
X42994500Y-108277768D01*
X43010292Y-108403133D01*
X43025791Y-108463676D01*
X43072178Y-108581203D01*
X43077256Y-108587967D01*
X43077257Y-108587968D01*
X43155864Y-108692664D01*
X43155868Y-108692669D01*
X43158566Y-108696262D01*
X43208840Y-108746393D01*
X43223408Y-108757266D01*
X43266036Y-108814041D01*
X43271202Y-108884849D01*
X43262331Y-108911291D01*
X43215414Y-109012364D01*
X43155470Y-109228517D01*
X43131634Y-109451558D01*
X43144546Y-109675497D01*
X43145683Y-109680543D01*
X43145684Y-109680549D01*
X43165647Y-109769129D01*
X43193860Y-109894320D01*
X43195802Y-109899102D01*
X43195803Y-109899106D01*
X43264301Y-110067796D01*
X43271397Y-110138437D01*
X43239175Y-110201701D01*
X43230074Y-110210421D01*
X43188971Y-110246037D01*
X43186031Y-110249430D01*
X43100650Y-110347964D01*
X43100648Y-110347967D01*
X43094748Y-110354776D01*
X43034978Y-110485654D01*
X43014976Y-110553775D01*
X43014338Y-110558215D01*
X43014337Y-110558218D01*
X43008964Y-110595592D01*
X42994500Y-110696190D01*
X42994500Y-110817768D01*
X43010292Y-110943133D01*
X43025791Y-111003676D01*
X43072178Y-111121203D01*
X43077256Y-111127967D01*
X43077257Y-111127968D01*
X43155864Y-111232664D01*
X43155868Y-111232669D01*
X43158566Y-111236262D01*
X43208840Y-111286393D01*
X43223408Y-111297266D01*
X43266036Y-111354041D01*
X43271202Y-111424849D01*
X43262331Y-111451291D01*
X43215414Y-111552364D01*
X43155470Y-111768517D01*
X43131634Y-111991558D01*
X43144546Y-112215497D01*
X43145683Y-112220543D01*
X43145684Y-112220549D01*
X43165647Y-112309129D01*
X43193860Y-112434320D01*
X43195802Y-112439102D01*
X43195803Y-112439106D01*
X43264301Y-112607796D01*
X43271397Y-112678437D01*
X43239175Y-112741701D01*
X43230074Y-112750421D01*
X43188971Y-112786037D01*
X43186031Y-112789430D01*
X43100650Y-112887964D01*
X43100648Y-112887967D01*
X43094748Y-112894776D01*
X43034978Y-113025654D01*
X43014976Y-113093775D01*
X43014338Y-113098215D01*
X43014337Y-113098218D01*
X43008964Y-113135592D01*
X42994500Y-113236190D01*
X42994500Y-113357768D01*
X43010292Y-113483133D01*
X43025791Y-113543676D01*
X43072178Y-113661203D01*
X43077256Y-113667967D01*
X43077257Y-113667968D01*
X43155864Y-113772664D01*
X43155868Y-113772669D01*
X43158566Y-113776262D01*
X43208840Y-113826393D01*
X43223408Y-113837266D01*
X43266036Y-113894041D01*
X43271202Y-113964849D01*
X43262331Y-113991291D01*
X43215414Y-114092364D01*
X43155470Y-114308517D01*
X43131634Y-114531558D01*
X43144546Y-114755497D01*
X43145683Y-114760543D01*
X43145684Y-114760549D01*
X43165647Y-114849129D01*
X43193860Y-114974320D01*
X43195802Y-114979102D01*
X43195803Y-114979106D01*
X43264301Y-115147796D01*
X43271397Y-115218437D01*
X43239175Y-115281701D01*
X43230074Y-115290421D01*
X43188971Y-115326037D01*
X43186031Y-115329430D01*
X43100650Y-115427964D01*
X43100648Y-115427967D01*
X43094748Y-115434776D01*
X43093132Y-115438315D01*
X43041431Y-115483114D01*
X42989089Y-115494500D01*
X38652626Y-115494500D01*
X38584505Y-115474498D01*
X38538012Y-115420842D01*
X38527908Y-115350568D01*
X38550303Y-115294975D01*
X38565247Y-115274177D01*
X38565249Y-115274174D01*
X38568269Y-115269971D01*
X38585257Y-115235600D01*
X38665361Y-115073522D01*
X38665362Y-115073520D01*
X38667655Y-115068880D01*
X38732862Y-114854256D01*
X38762141Y-114631864D01*
X38763775Y-114565000D01*
X38757693Y-114491030D01*
X38745819Y-114346595D01*
X38745818Y-114346589D01*
X38745395Y-114341444D01*
X38690750Y-114123891D01*
X38684173Y-114108765D01*
X38675354Y-114038319D01*
X38706020Y-113974287D01*
X38731600Y-113952527D01*
X38757373Y-113935964D01*
X38811029Y-113889471D01*
X38863355Y-113829084D01*
X38899350Y-113787544D01*
X38899352Y-113787541D01*
X38905252Y-113780732D01*
X38965022Y-113649854D01*
X38985024Y-113581733D01*
X38998651Y-113486953D01*
X39004861Y-113443764D01*
X39004861Y-113443761D01*
X39005500Y-113439318D01*
X39005500Y-113153165D01*
X39005194Y-113135592D01*
X39004889Y-113126824D01*
X39003969Y-113109214D01*
X38973630Y-112968569D01*
X38948935Y-112902005D01*
X38880203Y-112775607D01*
X38800476Y-112695600D01*
X38781821Y-112676879D01*
X38781820Y-112676878D01*
X38778643Y-112673690D01*
X38722973Y-112631864D01*
X38680527Y-112574956D01*
X38675585Y-112504131D01*
X38678100Y-112494501D01*
X38731359Y-112319202D01*
X38732862Y-112314256D01*
X38762141Y-112091864D01*
X38763775Y-112025000D01*
X38757693Y-111951030D01*
X38745819Y-111806595D01*
X38745818Y-111806589D01*
X38745395Y-111801444D01*
X38690750Y-111583891D01*
X38684173Y-111568765D01*
X38675354Y-111498319D01*
X38706020Y-111434287D01*
X38731600Y-111412527D01*
X38757373Y-111395964D01*
X38811029Y-111349471D01*
X38863355Y-111289084D01*
X38899350Y-111247544D01*
X38899352Y-111247541D01*
X38905252Y-111240732D01*
X38965022Y-111109854D01*
X38985024Y-111041733D01*
X38998651Y-110946953D01*
X39004861Y-110903764D01*
X39004861Y-110903761D01*
X39005500Y-110899318D01*
X39005500Y-110613165D01*
X39005194Y-110595592D01*
X39004889Y-110586824D01*
X39003969Y-110569214D01*
X38973630Y-110428569D01*
X38948935Y-110362005D01*
X38880203Y-110235607D01*
X38800476Y-110155600D01*
X38781821Y-110136879D01*
X38781820Y-110136878D01*
X38778643Y-110133690D01*
X38722973Y-110091864D01*
X38680527Y-110034956D01*
X38675585Y-109964131D01*
X38678100Y-109954501D01*
X38731359Y-109779202D01*
X38732862Y-109774256D01*
X38762141Y-109551864D01*
X38763775Y-109485000D01*
X38757693Y-109411030D01*
X38745819Y-109266595D01*
X38745818Y-109266589D01*
X38745395Y-109261444D01*
X38690750Y-109043891D01*
X38684173Y-109028765D01*
X38675354Y-108958319D01*
X38706020Y-108894287D01*
X38731600Y-108872527D01*
X38757373Y-108855964D01*
X38811029Y-108809471D01*
X38863355Y-108749084D01*
X38899350Y-108707544D01*
X38899352Y-108707541D01*
X38905252Y-108700732D01*
X38965022Y-108569854D01*
X38985024Y-108501733D01*
X38998651Y-108406953D01*
X39004861Y-108363764D01*
X39004861Y-108363761D01*
X39005500Y-108359318D01*
X39005500Y-102443915D01*
X39600000Y-102443915D01*
X39600369Y-102450729D01*
X39605789Y-102500621D01*
X39609414Y-102515867D01*
X39653767Y-102634177D01*
X39662299Y-102649763D01*
X39737430Y-102750009D01*
X39749991Y-102762570D01*
X39850237Y-102837701D01*
X39865823Y-102846233D01*
X39984133Y-102890586D01*
X39999379Y-102894211D01*
X40049271Y-102899631D01*
X40056085Y-102900000D01*
X40731885Y-102900000D01*
X40747124Y-102895525D01*
X40748329Y-102894135D01*
X40750000Y-102886452D01*
X40750000Y-102881885D01*
X41250000Y-102881885D01*
X41254475Y-102897124D01*
X41255865Y-102898329D01*
X41263548Y-102900000D01*
X41943915Y-102900000D01*
X41950729Y-102899631D01*
X42000621Y-102894211D01*
X42015867Y-102890586D01*
X42134177Y-102846233D01*
X42149763Y-102837701D01*
X42250009Y-102762570D01*
X42262570Y-102750009D01*
X42337701Y-102649763D01*
X42346233Y-102634177D01*
X42390586Y-102515867D01*
X42394211Y-102500621D01*
X42399631Y-102450729D01*
X42400000Y-102443915D01*
X42400000Y-101768115D01*
X42395525Y-101752876D01*
X42394135Y-101751671D01*
X42386452Y-101750000D01*
X41268115Y-101750000D01*
X41252876Y-101754475D01*
X41251671Y-101755865D01*
X41250000Y-101763548D01*
X41250000Y-102881885D01*
X40750000Y-102881885D01*
X40750000Y-101768115D01*
X40745525Y-101752876D01*
X40744135Y-101751671D01*
X40736452Y-101750000D01*
X39618115Y-101750000D01*
X39602876Y-101754475D01*
X39601671Y-101755865D01*
X39600000Y-101763548D01*
X39600000Y-102443915D01*
X39005500Y-102443915D01*
X39005500Y-100876000D01*
X38993948Y-100768551D01*
X38982562Y-100716209D01*
X38948433Y-100613667D01*
X38920807Y-100570680D01*
X38900805Y-100502562D01*
X38912190Y-100450221D01*
X38965022Y-100334536D01*
X38985024Y-100266415D01*
X38985663Y-100261972D01*
X39004861Y-100128446D01*
X39004861Y-100128443D01*
X39005500Y-100124000D01*
X39005500Y-97881500D01*
X39025502Y-97813379D01*
X39079158Y-97766886D01*
X39131500Y-97755500D01*
X39919096Y-97755500D01*
X39987217Y-97775502D01*
G37*
G04 #@! TD.AperFunction*
G04 #@! TA.AperFunction,Conductor*
G36*
X49941621Y-40770502D02*
G01*
X49988114Y-40824158D01*
X49999500Y-40876500D01*
X49999500Y-66503326D01*
X49979498Y-66571447D01*
X49925842Y-66617940D01*
X49860659Y-66628670D01*
X49828037Y-66625328D01*
X49821617Y-66625000D01*
X49668115Y-66625000D01*
X49652876Y-66629475D01*
X49651671Y-66630865D01*
X49650000Y-66638548D01*
X49650000Y-69356884D01*
X49654475Y-69372123D01*
X49655865Y-69373328D01*
X49663548Y-69374999D01*
X49821567Y-69374999D01*
X49828087Y-69374661D01*
X49860498Y-69371299D01*
X49930319Y-69384164D01*
X49982100Y-69432736D01*
X49999500Y-69496626D01*
X49999500Y-82003326D01*
X49979498Y-82071447D01*
X49925842Y-82117940D01*
X49860659Y-82128670D01*
X49828037Y-82125328D01*
X49821617Y-82125000D01*
X49668115Y-82125000D01*
X49652876Y-82129475D01*
X49651671Y-82130865D01*
X49650000Y-82138548D01*
X49650000Y-84856884D01*
X49654475Y-84872123D01*
X49655865Y-84873328D01*
X49663548Y-84874999D01*
X49821567Y-84874999D01*
X49828087Y-84874661D01*
X49860498Y-84871299D01*
X49930319Y-84884164D01*
X49982100Y-84932736D01*
X49999500Y-84996626D01*
X49999500Y-89634467D01*
X49979498Y-89702588D01*
X49925842Y-89749081D01*
X49855568Y-89759185D01*
X49833832Y-89754060D01*
X49784657Y-89737749D01*
X49771281Y-89734882D01*
X49678034Y-89725328D01*
X49671617Y-89725000D01*
X49268115Y-89725000D01*
X49252876Y-89729475D01*
X49251671Y-89730865D01*
X49250000Y-89738548D01*
X49250000Y-90974000D01*
X49229998Y-91042121D01*
X49176342Y-91088614D01*
X49124000Y-91100000D01*
X47643116Y-91100000D01*
X47627877Y-91104475D01*
X47626672Y-91105865D01*
X47625001Y-91113548D01*
X47625001Y-91271567D01*
X47625339Y-91278087D01*
X47635140Y-91372560D01*
X47638031Y-91385951D01*
X47688882Y-91538368D01*
X47695055Y-91551545D01*
X47695459Y-91552198D01*
X47695599Y-91552706D01*
X47698157Y-91558167D01*
X47697222Y-91558605D01*
X47714296Y-91620650D01*
X47693134Y-91688420D01*
X47638693Y-91733990D01*
X47588314Y-91744500D01*
X44637874Y-91744500D01*
X44569753Y-91724498D01*
X44523260Y-91670842D01*
X44513156Y-91600568D01*
X44525557Y-91561395D01*
X44561412Y-91490874D01*
X44565412Y-91481023D01*
X44632704Y-91264307D01*
X44634986Y-91253929D01*
X44638759Y-91225458D01*
X44636562Y-91211293D01*
X44623378Y-91207500D01*
X41202053Y-91207500D01*
X41188522Y-91211473D01*
X41186997Y-91222080D01*
X41215103Y-91356032D01*
X41218163Y-91366229D01*
X41301507Y-91577272D01*
X41306523Y-91587378D01*
X41318892Y-91657289D01*
X41291501Y-91722789D01*
X41233046Y-91763082D01*
X41220442Y-91766517D01*
X41219509Y-91766720D01*
X41219506Y-91766721D01*
X41216209Y-91767438D01*
X41113667Y-91801567D01*
X40992627Y-91879354D01*
X40938971Y-91925847D01*
X40936031Y-91929240D01*
X40936024Y-91929247D01*
X40859035Y-92018097D01*
X40799309Y-92056481D01*
X40728313Y-92056481D01*
X40707218Y-92047084D01*
X40706988Y-92047577D01*
X40687173Y-92038337D01*
X40534657Y-91987749D01*
X40521281Y-91984882D01*
X40428034Y-91975328D01*
X40421617Y-91975000D01*
X40018115Y-91975000D01*
X40002876Y-91979475D01*
X40001671Y-91980865D01*
X40000000Y-91988548D01*
X40000000Y-93224000D01*
X39979998Y-93292121D01*
X39926342Y-93338614D01*
X39874000Y-93350000D01*
X39626000Y-93350000D01*
X39557879Y-93329998D01*
X39511386Y-93276342D01*
X39500000Y-93224000D01*
X39500000Y-91993116D01*
X39495525Y-91977877D01*
X39494135Y-91976672D01*
X39486452Y-91975001D01*
X39078433Y-91975001D01*
X39071913Y-91975339D01*
X38977440Y-91985140D01*
X38964049Y-91988031D01*
X38811632Y-92038882D01*
X38798454Y-92045056D01*
X38695281Y-92108901D01*
X38626829Y-92127739D01*
X38559060Y-92106578D01*
X38513488Y-92052137D01*
X38503159Y-92008501D01*
X38503121Y-92007787D01*
X38502605Y-91998163D01*
X38499726Y-91971380D01*
X38491067Y-91917949D01*
X38440785Y-91783141D01*
X38432794Y-91768506D01*
X38408917Y-91724781D01*
X38406759Y-91720829D01*
X38404062Y-91717227D01*
X38404058Y-91717220D01*
X38323242Y-91609266D01*
X38323240Y-91609264D01*
X38320537Y-91605653D01*
X37108595Y-90393711D01*
X37104029Y-90389201D01*
X37101716Y-90386946D01*
X37097003Y-90382411D01*
X37096878Y-90382292D01*
X37096787Y-90382205D01*
X36135708Y-89469180D01*
X36135698Y-89469171D01*
X36134637Y-89468163D01*
X36098595Y-89437019D01*
X36079934Y-89422371D01*
X36041106Y-89394748D01*
X36035663Y-89392262D01*
X36035659Y-89392260D01*
X35957937Y-89356766D01*
X35910228Y-89334978D01*
X35842107Y-89314976D01*
X35837667Y-89314338D01*
X35837664Y-89314337D01*
X35704138Y-89295139D01*
X35704135Y-89295139D01*
X35699692Y-89294500D01*
X35381500Y-89294500D01*
X35313379Y-89274498D01*
X35266886Y-89220842D01*
X35255500Y-89168500D01*
X35255500Y-86970430D01*
X35275502Y-86902309D01*
X35329158Y-86855816D01*
X35399432Y-86845712D01*
X35464012Y-86875206D01*
X35470518Y-86881257D01*
X35551820Y-86962418D01*
X35563232Y-86971430D01*
X35699646Y-87055516D01*
X35712827Y-87061663D01*
X35865343Y-87112251D01*
X35878719Y-87115118D01*
X35971966Y-87124672D01*
X35978382Y-87125000D01*
X36131885Y-87125000D01*
X36147124Y-87120525D01*
X36148329Y-87119135D01*
X36150000Y-87111452D01*
X36150000Y-87106884D01*
X36650000Y-87106884D01*
X36654475Y-87122123D01*
X36655865Y-87123328D01*
X36663548Y-87124999D01*
X36821567Y-87124999D01*
X36828087Y-87124661D01*
X36922560Y-87114860D01*
X36935951Y-87111969D01*
X37088368Y-87061118D01*
X37101547Y-87054944D01*
X37237804Y-86970626D01*
X37249205Y-86961590D01*
X37362418Y-86848179D01*
X37371430Y-86836768D01*
X37455516Y-86700354D01*
X37461663Y-86687173D01*
X37512251Y-86534657D01*
X37515118Y-86521281D01*
X37524672Y-86428034D01*
X37525000Y-86421618D01*
X37525000Y-86018115D01*
X37520525Y-86002876D01*
X37519135Y-86001671D01*
X37511452Y-86000000D01*
X36668115Y-86000000D01*
X36652876Y-86004475D01*
X36651671Y-86005865D01*
X36650000Y-86013548D01*
X36650000Y-87106884D01*
X36150000Y-87106884D01*
X36150000Y-85481885D01*
X36650000Y-85481885D01*
X36654475Y-85497124D01*
X36655865Y-85498329D01*
X36663548Y-85500000D01*
X37506884Y-85500000D01*
X37522123Y-85495525D01*
X37523328Y-85494135D01*
X37524999Y-85486452D01*
X37524999Y-85078433D01*
X37524661Y-85071913D01*
X37514860Y-84977440D01*
X37511969Y-84964049D01*
X37461118Y-84811632D01*
X37454944Y-84798453D01*
X37370626Y-84662196D01*
X37361590Y-84650795D01*
X37248179Y-84537582D01*
X37236768Y-84528570D01*
X37100354Y-84444484D01*
X37087173Y-84438337D01*
X36934657Y-84387749D01*
X36921281Y-84384882D01*
X36828034Y-84375328D01*
X36821617Y-84375000D01*
X36668115Y-84375000D01*
X36652876Y-84379475D01*
X36651671Y-84380865D01*
X36650000Y-84388548D01*
X36650000Y-85481885D01*
X36150000Y-85481885D01*
X36150000Y-84393116D01*
X36145525Y-84377877D01*
X36144135Y-84376672D01*
X36136452Y-84375001D01*
X35978433Y-84375001D01*
X35971913Y-84375339D01*
X35877440Y-84385140D01*
X35864049Y-84388031D01*
X35711632Y-84438882D01*
X35698453Y-84445056D01*
X35562196Y-84529374D01*
X35550795Y-84538410D01*
X35470673Y-84618672D01*
X35408391Y-84652751D01*
X35337571Y-84647748D01*
X35280698Y-84605251D01*
X35255829Y-84538752D01*
X35255500Y-84529654D01*
X35255500Y-82447810D01*
X35994500Y-82447810D01*
X35997395Y-82501837D01*
X36000274Y-82528620D01*
X36008933Y-82582051D01*
X36059215Y-82716859D01*
X36093241Y-82779171D01*
X36095938Y-82782773D01*
X36095942Y-82782780D01*
X36176758Y-82890734D01*
X36179463Y-82894347D01*
X36605653Y-83320537D01*
X36645897Y-83356688D01*
X36666871Y-83373591D01*
X36710776Y-83405252D01*
X36841654Y-83465022D01*
X36909775Y-83485024D01*
X36914215Y-83485662D01*
X36914218Y-83485663D01*
X37047744Y-83504861D01*
X37047747Y-83504861D01*
X37052190Y-83505500D01*
X37738426Y-83505500D01*
X37806547Y-83525502D01*
X37827521Y-83542405D01*
X38207595Y-83922479D01*
X38241621Y-83984791D01*
X38244500Y-84011574D01*
X38244500Y-88197810D01*
X38247395Y-88251837D01*
X38250274Y-88278620D01*
X38258933Y-88332051D01*
X38309215Y-88466859D01*
X38343241Y-88529171D01*
X38345938Y-88532773D01*
X38345942Y-88532780D01*
X38426758Y-88640734D01*
X38429463Y-88644347D01*
X39355653Y-89570537D01*
X39395897Y-89606688D01*
X39416871Y-89623591D01*
X39460776Y-89655252D01*
X39591654Y-89715022D01*
X39625636Y-89725000D01*
X39645611Y-89730865D01*
X39659775Y-89735024D01*
X39664215Y-89735662D01*
X39664218Y-89735663D01*
X39797744Y-89754861D01*
X39797747Y-89754861D01*
X39802190Y-89755500D01*
X41381595Y-89755500D01*
X41425824Y-89763518D01*
X41495825Y-89789760D01*
X41552590Y-89832401D01*
X41577290Y-89898963D01*
X41562083Y-89968312D01*
X41538567Y-89998912D01*
X41513533Y-90022793D01*
X41506488Y-90030756D01*
X41371034Y-90212812D01*
X41365430Y-90221849D01*
X41262588Y-90424126D01*
X41258588Y-90433977D01*
X41191296Y-90650693D01*
X41189014Y-90661071D01*
X41185241Y-90689542D01*
X41187438Y-90703707D01*
X41200622Y-90707500D01*
X44621947Y-90707500D01*
X44635478Y-90703527D01*
X44637003Y-90692920D01*
X44613705Y-90581885D01*
X47625000Y-90581885D01*
X47629475Y-90597124D01*
X47630865Y-90598329D01*
X47638548Y-90600000D01*
X48731885Y-90600000D01*
X48747124Y-90595525D01*
X48748329Y-90594135D01*
X48750000Y-90586452D01*
X48750000Y-89743116D01*
X48745525Y-89727877D01*
X48744135Y-89726672D01*
X48736452Y-89725001D01*
X48328433Y-89725001D01*
X48321913Y-89725339D01*
X48227440Y-89735140D01*
X48214049Y-89738031D01*
X48061632Y-89788882D01*
X48048453Y-89795056D01*
X47912196Y-89879374D01*
X47900795Y-89888410D01*
X47787582Y-90001821D01*
X47778570Y-90013232D01*
X47694484Y-90149646D01*
X47688337Y-90162827D01*
X47637749Y-90315343D01*
X47634882Y-90328719D01*
X47625328Y-90421966D01*
X47625000Y-90428383D01*
X47625000Y-90581885D01*
X44613705Y-90581885D01*
X44608897Y-90558968D01*
X44605837Y-90548771D01*
X44522493Y-90337729D01*
X44517762Y-90328197D01*
X44400043Y-90134203D01*
X44393779Y-90125612D01*
X44276591Y-89990566D01*
X44247051Y-89926006D01*
X44257105Y-89855725D01*
X44303559Y-89802036D01*
X44327527Y-89790003D01*
X44398176Y-89763518D01*
X44442405Y-89755500D01*
X45947810Y-89755500D01*
X45974684Y-89754060D01*
X46000145Y-89752696D01*
X46000157Y-89752695D01*
X46001837Y-89752605D01*
X46028620Y-89749726D01*
X46032600Y-89749081D01*
X46075944Y-89742057D01*
X46075947Y-89742056D01*
X46082051Y-89741067D01*
X46087846Y-89738906D01*
X46087848Y-89738905D01*
X46124248Y-89725328D01*
X46216859Y-89690785D01*
X46220803Y-89688631D01*
X46220806Y-89688630D01*
X46275219Y-89658917D01*
X46279171Y-89656759D01*
X46282773Y-89654062D01*
X46282780Y-89654058D01*
X46390734Y-89573242D01*
X46390736Y-89573240D01*
X46394347Y-89570537D01*
X48320537Y-87644347D01*
X48356688Y-87604103D01*
X48373591Y-87583129D01*
X48405252Y-87539224D01*
X48465022Y-87408346D01*
X48485024Y-87340225D01*
X48505500Y-87197810D01*
X48505500Y-84911525D01*
X48525502Y-84843404D01*
X48579158Y-84796911D01*
X48649432Y-84786807D01*
X48692943Y-84802572D01*
X48693012Y-84802423D01*
X48694687Y-84803204D01*
X48697618Y-84804266D01*
X48699648Y-84805518D01*
X48712827Y-84811663D01*
X48865343Y-84862251D01*
X48878719Y-84865118D01*
X48971966Y-84874672D01*
X48978382Y-84875000D01*
X49131885Y-84875000D01*
X49147124Y-84870525D01*
X49148329Y-84869135D01*
X49150000Y-84861452D01*
X49150000Y-82143116D01*
X49145525Y-82127877D01*
X49144135Y-82126672D01*
X49136452Y-82125001D01*
X48978433Y-82125001D01*
X48971913Y-82125339D01*
X48877440Y-82135140D01*
X48864049Y-82138031D01*
X48711632Y-82188882D01*
X48698455Y-82195055D01*
X48697802Y-82195459D01*
X48697294Y-82195599D01*
X48691833Y-82198157D01*
X48691395Y-82197222D01*
X48629350Y-82214296D01*
X48561580Y-82193134D01*
X48516010Y-82138693D01*
X48505500Y-82088314D01*
X48505500Y-80126000D01*
X48493948Y-80018551D01*
X48482562Y-79966209D01*
X48448433Y-79863667D01*
X48370646Y-79742627D01*
X48324153Y-79688971D01*
X48312955Y-79679267D01*
X48222226Y-79600650D01*
X48222223Y-79600648D01*
X48215414Y-79594748D01*
X48084536Y-79534978D01*
X48016415Y-79514976D01*
X48011975Y-79514338D01*
X48011972Y-79514337D01*
X47878446Y-79495139D01*
X47878443Y-79495139D01*
X47874000Y-79494500D01*
X39761574Y-79494500D01*
X39693453Y-79474498D01*
X39672479Y-79457595D01*
X39144347Y-78929463D01*
X39104103Y-78893312D01*
X39083129Y-78876409D01*
X39075830Y-78871145D01*
X39044244Y-78848368D01*
X39039224Y-78844748D01*
X38908346Y-78784978D01*
X38840225Y-78764976D01*
X38835785Y-78764338D01*
X38835782Y-78764337D01*
X38702256Y-78745139D01*
X38702253Y-78745139D01*
X38697810Y-78744500D01*
X36626000Y-78744500D01*
X36586200Y-78748779D01*
X36572731Y-78749501D01*
X36552624Y-78749501D01*
X36549230Y-78749870D01*
X36549224Y-78749870D01*
X36499278Y-78755295D01*
X36499274Y-78755296D01*
X36491420Y-78756149D01*
X36424659Y-78781176D01*
X36420314Y-78782714D01*
X36363667Y-78801567D01*
X36242627Y-78879354D01*
X36239224Y-78882303D01*
X36239221Y-78882305D01*
X36225205Y-78894450D01*
X36188971Y-78925847D01*
X36186031Y-78929240D01*
X36100650Y-79027774D01*
X36100648Y-79027777D01*
X36094748Y-79034586D01*
X36034978Y-79165464D01*
X36014976Y-79233585D01*
X35994500Y-79376000D01*
X35994500Y-82447810D01*
X35255500Y-82447810D01*
X35255500Y-79126000D01*
X35243948Y-79018551D01*
X35232562Y-78966209D01*
X35198433Y-78863667D01*
X35120646Y-78742627D01*
X35074153Y-78688971D01*
X35062955Y-78679267D01*
X34972226Y-78600650D01*
X34972223Y-78600648D01*
X34965414Y-78594748D01*
X34834536Y-78534978D01*
X34766415Y-78514976D01*
X34761975Y-78514338D01*
X34761972Y-78514337D01*
X34628446Y-78495139D01*
X34628443Y-78495139D01*
X34624000Y-78494500D01*
X32126500Y-78494500D01*
X32058379Y-78474498D01*
X32011886Y-78420842D01*
X32000500Y-78368500D01*
X32000500Y-77671567D01*
X38725001Y-77671567D01*
X38725339Y-77678087D01*
X38735140Y-77772560D01*
X38738031Y-77785951D01*
X38788882Y-77938368D01*
X38795056Y-77951547D01*
X38879374Y-78087804D01*
X38888410Y-78099205D01*
X39001821Y-78212418D01*
X39013232Y-78221430D01*
X39149646Y-78305516D01*
X39162827Y-78311663D01*
X39315343Y-78362251D01*
X39328719Y-78365118D01*
X39421966Y-78374672D01*
X39428382Y-78375000D01*
X39581885Y-78375000D01*
X39597124Y-78370525D01*
X39598329Y-78369135D01*
X39600000Y-78361452D01*
X39600000Y-77268115D01*
X39595525Y-77252876D01*
X39594135Y-77251671D01*
X39586452Y-77250000D01*
X38743116Y-77250000D01*
X38727877Y-77254475D01*
X38726672Y-77255865D01*
X38725001Y-77263548D01*
X38725001Y-77671567D01*
X32000500Y-77671567D01*
X32000500Y-75881500D01*
X32020502Y-75813379D01*
X32074158Y-75766886D01*
X32126500Y-75755500D01*
X38750116Y-75755500D01*
X38818237Y-75775502D01*
X38864730Y-75829158D01*
X38874834Y-75899432D01*
X38857376Y-75947616D01*
X38794484Y-76049646D01*
X38788337Y-76062827D01*
X38737749Y-76215343D01*
X38734882Y-76228719D01*
X38725328Y-76321966D01*
X38725000Y-76328383D01*
X38725000Y-76731885D01*
X38729475Y-76747124D01*
X38730865Y-76748329D01*
X38738548Y-76750000D01*
X39974000Y-76750000D01*
X40042121Y-76770002D01*
X40088614Y-76823658D01*
X40100000Y-76876000D01*
X40100000Y-78356884D01*
X40104475Y-78372123D01*
X40105865Y-78373328D01*
X40113548Y-78374999D01*
X40271567Y-78374999D01*
X40278087Y-78374661D01*
X40372560Y-78364860D01*
X40385951Y-78361969D01*
X40538376Y-78311115D01*
X40553562Y-78304002D01*
X40623735Y-78293219D01*
X40689522Y-78322879D01*
X40708523Y-78339343D01*
X40784586Y-78405252D01*
X40915464Y-78465022D01*
X40983585Y-78485024D01*
X40988025Y-78485662D01*
X40988028Y-78485663D01*
X41121554Y-78504861D01*
X41121557Y-78504861D01*
X41126000Y-78505500D01*
X44124000Y-78505500D01*
X44127348Y-78505140D01*
X44127349Y-78505140D01*
X44153032Y-78502379D01*
X44231449Y-78493948D01*
X44234733Y-78493234D01*
X44234737Y-78493233D01*
X44259808Y-78487779D01*
X44283791Y-78482562D01*
X44386333Y-78448433D01*
X44507373Y-78370646D01*
X44514051Y-78364860D01*
X44543499Y-78339343D01*
X44608080Y-78309850D01*
X44678354Y-78319955D01*
X44708523Y-78339343D01*
X44784586Y-78405252D01*
X44915464Y-78465022D01*
X44983585Y-78485024D01*
X44988025Y-78485662D01*
X44988028Y-78485663D01*
X45121554Y-78504861D01*
X45121557Y-78504861D01*
X45126000Y-78505500D01*
X47874000Y-78505500D01*
X47877348Y-78505140D01*
X47877349Y-78505140D01*
X47903032Y-78502379D01*
X47981449Y-78493948D01*
X47984733Y-78493234D01*
X47984737Y-78493233D01*
X48009808Y-78487779D01*
X48033791Y-78482562D01*
X48136333Y-78448433D01*
X48257373Y-78370646D01*
X48264051Y-78364860D01*
X48307636Y-78327093D01*
X48311029Y-78324153D01*
X48328490Y-78304002D01*
X48399350Y-78222226D01*
X48399352Y-78222223D01*
X48405252Y-78215414D01*
X48465022Y-78084536D01*
X48485024Y-78016415D01*
X48485663Y-78011972D01*
X48504861Y-77878446D01*
X48504861Y-77878443D01*
X48505500Y-77874000D01*
X48505500Y-69411525D01*
X48525502Y-69343404D01*
X48579158Y-69296911D01*
X48649432Y-69286807D01*
X48692943Y-69302572D01*
X48693012Y-69302423D01*
X48694687Y-69303204D01*
X48697618Y-69304266D01*
X48699648Y-69305518D01*
X48712827Y-69311663D01*
X48865343Y-69362251D01*
X48878719Y-69365118D01*
X48971966Y-69374672D01*
X48978382Y-69375000D01*
X49131885Y-69375000D01*
X49147124Y-69370525D01*
X49148329Y-69369135D01*
X49150000Y-69361452D01*
X49150000Y-66643116D01*
X49145525Y-66627877D01*
X49144135Y-66626672D01*
X49136452Y-66625001D01*
X48978433Y-66625001D01*
X48971913Y-66625339D01*
X48877440Y-66635140D01*
X48864049Y-66638031D01*
X48711632Y-66688882D01*
X48698455Y-66695055D01*
X48697802Y-66695459D01*
X48697294Y-66695599D01*
X48691833Y-66698157D01*
X48691395Y-66697222D01*
X48629350Y-66714296D01*
X48561580Y-66693134D01*
X48516010Y-66638693D01*
X48505500Y-66588314D01*
X48505500Y-55626000D01*
X48493948Y-55518551D01*
X48482562Y-55466209D01*
X48448433Y-55363667D01*
X48370646Y-55242627D01*
X48324153Y-55188971D01*
X48258757Y-55132305D01*
X48222226Y-55100650D01*
X48222223Y-55100648D01*
X48215414Y-55094748D01*
X48084536Y-55034978D01*
X48016415Y-55014976D01*
X48011975Y-55014338D01*
X48011972Y-55014337D01*
X47878446Y-54995139D01*
X47878443Y-54995139D01*
X47874000Y-54994500D01*
X47720299Y-54994500D01*
X47652178Y-54974498D01*
X47605685Y-54920842D01*
X47595581Y-54850568D01*
X47625075Y-54785988D01*
X47631126Y-54779482D01*
X47637418Y-54773179D01*
X47646430Y-54761768D01*
X47730516Y-54625354D01*
X47736663Y-54612173D01*
X47787251Y-54459657D01*
X47790118Y-54446281D01*
X47799672Y-54353034D01*
X47800000Y-54346618D01*
X47800000Y-53068115D01*
X47795525Y-53052876D01*
X47794135Y-53051671D01*
X47786452Y-53050000D01*
X45218116Y-53050000D01*
X45202877Y-53054475D01*
X45201672Y-53055865D01*
X45200001Y-53063548D01*
X45200001Y-54346567D01*
X45200339Y-54353087D01*
X45210140Y-54447560D01*
X45213031Y-54460951D01*
X45263882Y-54613368D01*
X45270056Y-54626547D01*
X45354374Y-54762804D01*
X45363410Y-54774205D01*
X45368541Y-54779327D01*
X45402620Y-54841609D01*
X45397617Y-54912429D01*
X45355120Y-54969302D01*
X45288622Y-54994171D01*
X45279523Y-54994500D01*
X45126000Y-54994500D01*
X45122652Y-54994860D01*
X45122651Y-54994860D01*
X45120056Y-54995139D01*
X45018551Y-55006052D01*
X45015267Y-55006766D01*
X45015263Y-55006767D01*
X44990192Y-55012221D01*
X44966209Y-55017438D01*
X44863667Y-55051567D01*
X44742627Y-55129354D01*
X44688971Y-55175847D01*
X44686031Y-55179240D01*
X44600650Y-55277774D01*
X44600648Y-55277777D01*
X44594748Y-55284586D01*
X44534978Y-55415464D01*
X44514976Y-55483585D01*
X44514338Y-55488025D01*
X44514337Y-55488028D01*
X44509949Y-55518551D01*
X44494500Y-55626000D01*
X44494500Y-61368500D01*
X44474498Y-61436621D01*
X44420842Y-61483114D01*
X44368500Y-61494500D01*
X43619515Y-61494500D01*
X43551394Y-61474498D01*
X43504901Y-61420842D01*
X43494252Y-61354892D01*
X43500131Y-61300774D01*
X43500131Y-61300773D01*
X43500500Y-61297377D01*
X43500499Y-58702624D01*
X43493851Y-58641420D01*
X43443526Y-58507176D01*
X43438146Y-58499997D01*
X43438144Y-58499994D01*
X43362928Y-58399635D01*
X43357546Y-58392454D01*
X43350365Y-58387072D01*
X43250006Y-58311856D01*
X43250003Y-58311854D01*
X43242824Y-58306474D01*
X43153439Y-58272966D01*
X43115975Y-58258921D01*
X43115973Y-58258921D01*
X43108580Y-58256149D01*
X43100730Y-58255296D01*
X43100729Y-58255296D01*
X43050774Y-58249869D01*
X43050773Y-58249869D01*
X43047377Y-58249500D01*
X41000300Y-58249500D01*
X38952624Y-58249501D01*
X38949230Y-58249870D01*
X38949224Y-58249870D01*
X38899278Y-58255295D01*
X38899274Y-58255296D01*
X38891420Y-58256149D01*
X38757176Y-58306474D01*
X38749997Y-58311854D01*
X38749994Y-58311856D01*
X38649635Y-58387072D01*
X38642454Y-58392454D01*
X38637072Y-58399635D01*
X38561856Y-58499994D01*
X38561854Y-58499997D01*
X38556474Y-58507176D01*
X38506149Y-58641420D01*
X38499500Y-58702623D01*
X38499501Y-61297376D01*
X38505749Y-61354892D01*
X38505749Y-61354893D01*
X38493221Y-61424775D01*
X38444899Y-61476791D01*
X38380486Y-61494500D01*
X38126000Y-61494500D01*
X38122652Y-61494860D01*
X38122651Y-61494860D01*
X38096968Y-61497621D01*
X38018551Y-61506052D01*
X38015267Y-61506766D01*
X38015263Y-61506767D01*
X37992012Y-61511825D01*
X37966209Y-61517438D01*
X37863667Y-61551567D01*
X37742627Y-61629354D01*
X37688971Y-61675847D01*
X37686031Y-61679240D01*
X37600650Y-61777774D01*
X37600648Y-61777777D01*
X37594748Y-61784586D01*
X37534978Y-61915464D01*
X37514976Y-61983585D01*
X37514338Y-61988025D01*
X37514337Y-61988028D01*
X37504638Y-62055490D01*
X37494500Y-62126000D01*
X37494500Y-68374000D01*
X37506052Y-68481449D01*
X37517438Y-68533791D01*
X37551567Y-68636333D01*
X37629354Y-68757373D01*
X37675847Y-68811029D01*
X37679240Y-68813969D01*
X37777774Y-68899350D01*
X37777777Y-68899352D01*
X37784586Y-68905252D01*
X37915464Y-68965022D01*
X37983585Y-68985024D01*
X37988025Y-68985662D01*
X37988028Y-68985663D01*
X38121554Y-69004861D01*
X38121557Y-69004861D01*
X38126000Y-69005500D01*
X44368500Y-69005500D01*
X44436621Y-69025502D01*
X44483114Y-69079158D01*
X44494500Y-69131500D01*
X44494500Y-69913632D01*
X44474498Y-69981753D01*
X44420842Y-70028246D01*
X44350568Y-70038350D01*
X44333010Y-70034530D01*
X44266415Y-70014976D01*
X44261975Y-70014338D01*
X44261972Y-70014337D01*
X44128446Y-69995139D01*
X44128443Y-69995139D01*
X44124000Y-69994500D01*
X39126000Y-69994500D01*
X39122652Y-69994860D01*
X39122651Y-69994860D01*
X39120056Y-69995139D01*
X39018551Y-70006052D01*
X39015267Y-70006766D01*
X39015263Y-70006767D01*
X38990192Y-70012221D01*
X38966209Y-70017438D01*
X38863667Y-70051567D01*
X38742627Y-70129354D01*
X38688971Y-70175847D01*
X38686031Y-70179240D01*
X38600650Y-70277774D01*
X38600648Y-70277777D01*
X38594748Y-70284586D01*
X38534978Y-70415464D01*
X38514976Y-70483585D01*
X38494500Y-70626000D01*
X38494500Y-71868500D01*
X38474498Y-71936621D01*
X38420842Y-71983114D01*
X38368500Y-71994500D01*
X35388752Y-71994500D01*
X35320631Y-71974498D01*
X35274138Y-71920842D01*
X35264034Y-71850568D01*
X35269979Y-71826440D01*
X35336230Y-71639357D01*
X35338864Y-71629386D01*
X35358734Y-71517837D01*
X35357274Y-71504540D01*
X35342717Y-71500000D01*
X33383750Y-71500000D01*
X33315629Y-71479998D01*
X33269136Y-71426342D01*
X33257750Y-71374000D01*
X33257750Y-71126000D01*
X33277752Y-71057879D01*
X33331408Y-71011386D01*
X33383750Y-71000000D01*
X35343921Y-71000000D01*
X35357265Y-70996082D01*
X35359252Y-70981806D01*
X35347697Y-70906300D01*
X35345308Y-70896272D01*
X35271891Y-70671652D01*
X35267894Y-70662143D01*
X35158779Y-70452535D01*
X35153285Y-70443810D01*
X35011397Y-70254832D01*
X35004554Y-70247125D01*
X34833701Y-70083856D01*
X34825436Y-70077162D01*
X34785085Y-70018746D01*
X34782722Y-69947789D01*
X34819934Y-69886050D01*
X34980086Y-69740324D01*
X34980088Y-69740322D01*
X34983908Y-69736846D01*
X34987107Y-69732795D01*
X34987111Y-69732791D01*
X35133631Y-69547264D01*
X35133634Y-69547259D01*
X35136832Y-69543210D01*
X35229689Y-69375000D01*
X35253580Y-69331722D01*
X35253582Y-69331718D01*
X35256077Y-69327198D01*
X35261579Y-69311663D01*
X35336715Y-69099485D01*
X35336716Y-69099481D01*
X35338441Y-69094610D01*
X35339349Y-69089514D01*
X35380805Y-68856783D01*
X35380806Y-68856777D01*
X35381711Y-68851694D01*
X35384725Y-68604972D01*
X35347403Y-68361070D01*
X35270747Y-68126540D01*
X35156815Y-67907679D01*
X35017797Y-67722523D01*
X35011772Y-67714499D01*
X35011770Y-67714496D01*
X35008667Y-67710364D01*
X34830282Y-67539896D01*
X34626450Y-67400851D01*
X34581200Y-67379847D01*
X34527833Y-67333023D01*
X34508250Y-67265559D01*
X34508250Y-65240646D01*
X34528252Y-65172525D01*
X34567946Y-65133502D01*
X34588120Y-65121018D01*
X34594345Y-65117166D01*
X34717984Y-64993311D01*
X34809814Y-64844334D01*
X34864910Y-64678228D01*
X34875500Y-64574866D01*
X34875500Y-63725134D01*
X34864641Y-63620481D01*
X34809256Y-63454471D01*
X34717166Y-63305655D01*
X34593311Y-63182016D01*
X34444334Y-63090186D01*
X34437385Y-63087881D01*
X34284759Y-63037256D01*
X34284757Y-63037255D01*
X34278228Y-63035090D01*
X34174866Y-63024500D01*
X32825134Y-63024500D01*
X32821888Y-63024837D01*
X32821884Y-63024837D01*
X32727339Y-63034647D01*
X32727335Y-63034648D01*
X32720481Y-63035359D01*
X32713945Y-63037540D01*
X32713943Y-63037540D01*
X32574860Y-63083942D01*
X32554471Y-63090744D01*
X32405655Y-63182834D01*
X32282016Y-63306689D01*
X32278176Y-63312919D01*
X32278175Y-63312920D01*
X32233760Y-63384975D01*
X32180988Y-63432468D01*
X32110916Y-63443892D01*
X32045793Y-63415618D01*
X32006293Y-63356624D01*
X32000500Y-63318859D01*
X32000500Y-62180208D01*
X32020502Y-62112087D01*
X32074158Y-62065594D01*
X32144432Y-62055490D01*
X32209012Y-62084984D01*
X32233644Y-62113905D01*
X32279374Y-62187804D01*
X32288410Y-62199205D01*
X32401821Y-62312418D01*
X32413232Y-62321430D01*
X32549646Y-62405516D01*
X32562827Y-62411663D01*
X32715343Y-62462251D01*
X32728719Y-62465118D01*
X32821966Y-62474672D01*
X32828382Y-62475000D01*
X33231885Y-62475000D01*
X33247124Y-62470525D01*
X33248329Y-62469135D01*
X33250000Y-62461452D01*
X33250000Y-62456884D01*
X33750000Y-62456884D01*
X33754475Y-62472123D01*
X33755865Y-62473328D01*
X33763548Y-62474999D01*
X34171567Y-62474999D01*
X34178087Y-62474661D01*
X34272560Y-62464860D01*
X34285951Y-62461969D01*
X34438368Y-62411118D01*
X34451547Y-62404944D01*
X34587804Y-62320626D01*
X34599205Y-62311590D01*
X34712418Y-62198179D01*
X34721430Y-62186768D01*
X34805516Y-62050354D01*
X34811663Y-62037173D01*
X34862251Y-61884657D01*
X34865118Y-61871281D01*
X34874672Y-61778034D01*
X34875000Y-61771618D01*
X34875000Y-61618115D01*
X34870525Y-61602876D01*
X34869135Y-61601671D01*
X34861452Y-61600000D01*
X33768115Y-61600000D01*
X33752876Y-61604475D01*
X33751671Y-61605865D01*
X33750000Y-61613548D01*
X33750000Y-62456884D01*
X33250000Y-62456884D01*
X33250000Y-61081885D01*
X33750000Y-61081885D01*
X33754475Y-61097124D01*
X33755865Y-61098329D01*
X33763548Y-61100000D01*
X34856884Y-61100000D01*
X34872123Y-61095525D01*
X34873328Y-61094135D01*
X34874999Y-61086452D01*
X34874999Y-60928433D01*
X34874661Y-60921913D01*
X34864860Y-60827440D01*
X34861969Y-60814049D01*
X34811118Y-60661632D01*
X34804944Y-60648453D01*
X34720626Y-60512196D01*
X34711590Y-60500795D01*
X34598179Y-60387582D01*
X34586768Y-60378570D01*
X34450354Y-60294484D01*
X34437173Y-60288337D01*
X34284657Y-60237749D01*
X34271281Y-60234882D01*
X34178034Y-60225328D01*
X34171617Y-60225000D01*
X33768115Y-60225000D01*
X33752876Y-60229475D01*
X33751671Y-60230865D01*
X33750000Y-60238548D01*
X33750000Y-61081885D01*
X33250000Y-61081885D01*
X33250000Y-60243116D01*
X33245525Y-60227877D01*
X33244135Y-60226672D01*
X33236452Y-60225001D01*
X32828433Y-60225001D01*
X32821913Y-60225339D01*
X32727440Y-60235140D01*
X32714049Y-60238031D01*
X32561632Y-60288882D01*
X32548453Y-60295056D01*
X32412196Y-60379374D01*
X32400795Y-60388410D01*
X32287582Y-60501821D01*
X32278570Y-60513232D01*
X32233760Y-60585928D01*
X32180988Y-60633421D01*
X32110917Y-60644845D01*
X32045793Y-60616571D01*
X32006293Y-60557577D01*
X32000500Y-60519812D01*
X32000500Y-50388380D01*
X37000242Y-50388380D01*
X37005983Y-50651471D01*
X37050548Y-50910825D01*
X37132958Y-51160742D01*
X37251403Y-51395733D01*
X37254103Y-51399554D01*
X37254104Y-51399555D01*
X37400584Y-51606819D01*
X37403281Y-51610635D01*
X37406510Y-51614008D01*
X37532812Y-51745944D01*
X37585256Y-51800728D01*
X37588954Y-51803591D01*
X37588957Y-51803594D01*
X37789631Y-51958971D01*
X37793330Y-51961835D01*
X37797412Y-51964121D01*
X37797415Y-51964123D01*
X37843270Y-51989803D01*
X38022931Y-52090418D01*
X38228348Y-52168244D01*
X39585475Y-52531885D01*
X40830782Y-52865564D01*
X40830787Y-52865565D01*
X40833022Y-52866164D01*
X40835293Y-52866595D01*
X40835301Y-52866597D01*
X41021148Y-52901881D01*
X41021151Y-52901881D01*
X41025737Y-52902752D01*
X41157213Y-52907918D01*
X41284021Y-52912901D01*
X41284027Y-52912901D01*
X41288689Y-52913084D01*
X41390982Y-52901881D01*
X41545625Y-52884945D01*
X41545630Y-52884944D01*
X41550278Y-52884435D01*
X41554802Y-52883244D01*
X41800238Y-52818626D01*
X41800240Y-52818625D01*
X41804761Y-52817435D01*
X42046545Y-52713556D01*
X42145240Y-52652482D01*
X42266345Y-52577540D01*
X42266349Y-52577537D01*
X42270318Y-52575081D01*
X42321343Y-52531885D01*
X45200000Y-52531885D01*
X45204475Y-52547124D01*
X45205865Y-52548329D01*
X45213548Y-52550000D01*
X46231885Y-52550000D01*
X46247124Y-52545525D01*
X46248329Y-52544135D01*
X46250000Y-52536452D01*
X46250000Y-52531885D01*
X46750000Y-52531885D01*
X46754475Y-52547124D01*
X46755865Y-52548329D01*
X46763548Y-52550000D01*
X47781884Y-52550000D01*
X47797123Y-52545525D01*
X47798328Y-52544135D01*
X47799999Y-52536452D01*
X47799999Y-51253433D01*
X47799661Y-51246913D01*
X47789860Y-51152440D01*
X47786969Y-51139049D01*
X47736118Y-50986632D01*
X47729944Y-50973453D01*
X47645626Y-50837196D01*
X47636590Y-50825795D01*
X47523179Y-50712582D01*
X47511768Y-50703570D01*
X47375354Y-50619484D01*
X47362173Y-50613337D01*
X47209657Y-50562749D01*
X47196281Y-50559882D01*
X47103034Y-50550328D01*
X47096617Y-50550000D01*
X46768115Y-50550000D01*
X46752876Y-50554475D01*
X46751671Y-50555865D01*
X46750000Y-50563548D01*
X46750000Y-52531885D01*
X46250000Y-52531885D01*
X46250000Y-50568116D01*
X46245525Y-50552877D01*
X46244135Y-50551672D01*
X46236452Y-50550001D01*
X45903433Y-50550001D01*
X45896913Y-50550339D01*
X45802440Y-50560140D01*
X45789049Y-50563031D01*
X45636632Y-50613882D01*
X45623453Y-50620056D01*
X45487196Y-50704374D01*
X45475795Y-50713410D01*
X45362582Y-50826821D01*
X45353570Y-50838232D01*
X45269484Y-50974646D01*
X45263337Y-50987827D01*
X45212749Y-51140343D01*
X45209882Y-51153719D01*
X45200328Y-51246966D01*
X45200000Y-51253383D01*
X45200000Y-52531885D01*
X42321343Y-52531885D01*
X42471165Y-52405051D01*
X42491923Y-52381381D01*
X42641593Y-52210716D01*
X42641597Y-52210711D01*
X42644675Y-52207201D01*
X42787035Y-51985878D01*
X42895117Y-51745944D01*
X42966548Y-51492670D01*
X42999758Y-51231620D01*
X42994017Y-50968529D01*
X42949452Y-50709175D01*
X42900222Y-50559882D01*
X42868506Y-50463700D01*
X42868505Y-50463697D01*
X42867041Y-50459258D01*
X42748597Y-50224267D01*
X42745903Y-50220456D01*
X42745900Y-50220450D01*
X42615206Y-50035525D01*
X42596718Y-50009365D01*
X42471503Y-49878564D01*
X42417978Y-49822651D01*
X42417976Y-49822649D01*
X42414743Y-49819272D01*
X42206670Y-49658165D01*
X42202588Y-49655879D01*
X42202585Y-49655877D01*
X42074087Y-49583915D01*
X43040000Y-49583915D01*
X43040369Y-49590729D01*
X43045789Y-49640621D01*
X43049414Y-49655867D01*
X43093767Y-49774177D01*
X43102299Y-49789763D01*
X43177430Y-49890009D01*
X43189991Y-49902570D01*
X43290237Y-49977701D01*
X43305823Y-49986233D01*
X43424133Y-50030586D01*
X43439379Y-50034211D01*
X43489271Y-50039631D01*
X43496085Y-50040000D01*
X44541885Y-50040000D01*
X44557124Y-50035525D01*
X44558329Y-50034135D01*
X44560000Y-50026452D01*
X44560000Y-50021885D01*
X45060000Y-50021885D01*
X45064475Y-50037124D01*
X45065865Y-50038329D01*
X45073548Y-50040000D01*
X46123915Y-50040000D01*
X46130729Y-50039631D01*
X46180621Y-50034211D01*
X46195867Y-50030586D01*
X46314177Y-49986233D01*
X46329763Y-49977701D01*
X46430009Y-49902570D01*
X46442570Y-49890009D01*
X46517701Y-49789763D01*
X46526233Y-49774177D01*
X46570586Y-49655867D01*
X46574211Y-49640621D01*
X46579631Y-49590729D01*
X46580000Y-49583915D01*
X46580000Y-47268115D01*
X46575525Y-47252876D01*
X46574135Y-47251671D01*
X46566452Y-47250000D01*
X45078115Y-47250000D01*
X45062876Y-47254475D01*
X45061671Y-47255865D01*
X45060000Y-47263548D01*
X45060000Y-50021885D01*
X44560000Y-50021885D01*
X44560000Y-47268115D01*
X44555525Y-47252876D01*
X44554135Y-47251671D01*
X44546452Y-47250000D01*
X43058115Y-47250000D01*
X43042876Y-47254475D01*
X43041671Y-47255865D01*
X43040000Y-47263548D01*
X43040000Y-49583915D01*
X42074087Y-49583915D01*
X41977069Y-49529582D01*
X41771652Y-49451756D01*
X39745707Y-48908906D01*
X39169217Y-48754436D01*
X39169212Y-48754435D01*
X39166977Y-48753836D01*
X39164706Y-48753405D01*
X39164698Y-48753403D01*
X38978851Y-48718119D01*
X38978848Y-48718119D01*
X38974262Y-48717248D01*
X38842786Y-48712082D01*
X38715979Y-48707099D01*
X38715973Y-48707099D01*
X38711311Y-48706916D01*
X38630799Y-48715734D01*
X38454374Y-48735055D01*
X38454369Y-48735056D01*
X38449721Y-48735565D01*
X38445198Y-48736756D01*
X38445197Y-48736756D01*
X38199762Y-48801374D01*
X38199760Y-48801375D01*
X38195239Y-48802565D01*
X37953455Y-48906444D01*
X37854760Y-48967518D01*
X37733655Y-49042460D01*
X37733651Y-49042463D01*
X37729682Y-49044919D01*
X37528834Y-49214949D01*
X37355325Y-49412799D01*
X37352801Y-49416723D01*
X37352798Y-49416727D01*
X37278736Y-49531870D01*
X37212965Y-49634122D01*
X37211048Y-49638377D01*
X37211045Y-49638383D01*
X37210037Y-49640621D01*
X37104882Y-49874055D01*
X37103612Y-49878560D01*
X37103610Y-49878564D01*
X37096840Y-49902570D01*
X37033452Y-50127330D01*
X37000242Y-50388380D01*
X32000500Y-50388380D01*
X32000500Y-43962092D01*
X32020502Y-43893971D01*
X32074158Y-43847478D01*
X32144432Y-43837374D01*
X32209012Y-43866868D01*
X32227327Y-43886528D01*
X32237431Y-43900010D01*
X32249991Y-43912570D01*
X32350237Y-43987701D01*
X32365823Y-43996233D01*
X32484133Y-44040586D01*
X32499379Y-44044211D01*
X32549271Y-44049631D01*
X32556085Y-44050000D01*
X33731885Y-44050000D01*
X33747124Y-44045525D01*
X33748329Y-44044135D01*
X33750000Y-44036452D01*
X33750000Y-44031885D01*
X34250000Y-44031885D01*
X34254475Y-44047124D01*
X34255865Y-44048329D01*
X34263548Y-44050000D01*
X35443915Y-44050000D01*
X35450729Y-44049631D01*
X35500621Y-44044211D01*
X35515867Y-44040586D01*
X35634177Y-43996233D01*
X35649763Y-43987701D01*
X35750009Y-43912570D01*
X35762570Y-43900009D01*
X35837701Y-43799763D01*
X35846233Y-43784177D01*
X35890586Y-43665867D01*
X35894211Y-43650621D01*
X35899631Y-43600729D01*
X35900000Y-43593915D01*
X35900000Y-43457710D01*
X37980034Y-43457710D01*
X37993193Y-43554396D01*
X37995134Y-43563532D01*
X38066132Y-43807112D01*
X38069401Y-43815855D01*
X38175625Y-44046273D01*
X38180145Y-44054428D01*
X38319261Y-44266616D01*
X38324944Y-44274021D01*
X38493890Y-44463310D01*
X38500606Y-44469795D01*
X38695680Y-44632035D01*
X38703267Y-44637448D01*
X38920186Y-44769078D01*
X38928502Y-44773315D01*
X39162482Y-44871430D01*
X39171328Y-44874390D01*
X39417242Y-44936844D01*
X39426439Y-44938466D01*
X39637150Y-44959684D01*
X39643442Y-44960000D01*
X40731885Y-44960000D01*
X40747124Y-44955525D01*
X40748329Y-44954135D01*
X40750000Y-44946452D01*
X40750000Y-44941885D01*
X41250000Y-44941885D01*
X41254475Y-44957124D01*
X41255865Y-44958329D01*
X41263548Y-44960000D01*
X42334442Y-44960000D01*
X42339120Y-44959827D01*
X42527691Y-44945814D01*
X42536922Y-44944434D01*
X42784388Y-44888438D01*
X42793304Y-44885712D01*
X42868332Y-44856535D01*
X42939071Y-44850487D01*
X43001849Y-44883644D01*
X43036737Y-44945477D01*
X43040000Y-44973968D01*
X43040000Y-46731885D01*
X43044475Y-46747124D01*
X43045865Y-46748329D01*
X43053548Y-46750000D01*
X44541885Y-46750000D01*
X44557124Y-46745525D01*
X44558329Y-46744135D01*
X44560000Y-46736452D01*
X44560000Y-46731885D01*
X45060000Y-46731885D01*
X45064475Y-46747124D01*
X45065865Y-46748329D01*
X45073548Y-46750000D01*
X46561885Y-46750000D01*
X46577124Y-46745525D01*
X46578329Y-46744135D01*
X46580000Y-46736452D01*
X46580000Y-44416085D01*
X46579631Y-44409271D01*
X46574211Y-44359379D01*
X46570586Y-44344133D01*
X46526233Y-44225823D01*
X46517701Y-44210237D01*
X46442570Y-44109991D01*
X46430009Y-44097430D01*
X46329763Y-44022299D01*
X46314177Y-44013767D01*
X46195867Y-43969414D01*
X46180621Y-43965789D01*
X46130729Y-43960369D01*
X46123915Y-43960000D01*
X45078115Y-43960000D01*
X45062876Y-43964475D01*
X45061671Y-43965865D01*
X45060000Y-43973548D01*
X45060000Y-46731885D01*
X44560000Y-46731885D01*
X44560000Y-43978115D01*
X44555525Y-43962876D01*
X44554135Y-43961671D01*
X44546452Y-43960000D01*
X44054709Y-43960000D01*
X43986588Y-43939998D01*
X43940095Y-43886342D01*
X43929991Y-43816068D01*
X43934707Y-43795587D01*
X43994498Y-43608802D01*
X43996671Y-43599751D01*
X44019776Y-43457880D01*
X44018079Y-43444285D01*
X44003973Y-43440000D01*
X41268115Y-43440000D01*
X41252876Y-43444475D01*
X41251671Y-43445865D01*
X41250000Y-43453548D01*
X41250000Y-44941885D01*
X40750000Y-44941885D01*
X40750000Y-43458115D01*
X40745525Y-43442876D01*
X40744135Y-43441671D01*
X40736452Y-43440000D01*
X37995739Y-43440000D01*
X37982055Y-43444018D01*
X37980034Y-43457710D01*
X35900000Y-43457710D01*
X35900000Y-43018115D01*
X35895525Y-43002876D01*
X35894135Y-43001671D01*
X35886452Y-43000000D01*
X34268115Y-43000000D01*
X34252876Y-43004475D01*
X34251671Y-43005865D01*
X34250000Y-43013548D01*
X34250000Y-44031885D01*
X33750000Y-44031885D01*
X33750000Y-42922120D01*
X37980224Y-42922120D01*
X37981921Y-42935715D01*
X37996027Y-42940000D01*
X40731885Y-42940000D01*
X40747124Y-42935525D01*
X40748329Y-42934135D01*
X40750000Y-42926452D01*
X40750000Y-42921885D01*
X41250000Y-42921885D01*
X41254475Y-42937124D01*
X41255865Y-42938329D01*
X41263548Y-42940000D01*
X44004261Y-42940000D01*
X44017945Y-42935982D01*
X44019966Y-42922290D01*
X44006807Y-42825604D01*
X44004866Y-42816468D01*
X43933868Y-42572888D01*
X43930599Y-42564145D01*
X43824375Y-42333727D01*
X43819855Y-42325572D01*
X43680739Y-42113384D01*
X43675056Y-42105979D01*
X43506110Y-41916690D01*
X43499394Y-41910205D01*
X43304320Y-41747965D01*
X43296733Y-41742552D01*
X43079814Y-41610922D01*
X43071498Y-41606685D01*
X42837518Y-41508570D01*
X42828672Y-41505610D01*
X42582758Y-41443156D01*
X42573561Y-41441534D01*
X42362850Y-41420316D01*
X42356558Y-41420000D01*
X41268115Y-41420000D01*
X41252876Y-41424475D01*
X41251671Y-41425865D01*
X41250000Y-41433548D01*
X41250000Y-42921885D01*
X40750000Y-42921885D01*
X40750000Y-41438115D01*
X40745525Y-41422876D01*
X40744135Y-41421671D01*
X40736452Y-41420000D01*
X39665558Y-41420000D01*
X39660880Y-41420173D01*
X39472309Y-41434186D01*
X39463078Y-41435566D01*
X39215612Y-41491562D01*
X39206695Y-41494288D01*
X38970213Y-41586252D01*
X38961800Y-41590265D01*
X38741510Y-41716170D01*
X38733785Y-41721381D01*
X38534520Y-41878469D01*
X38527652Y-41884762D01*
X38353801Y-42069572D01*
X38347927Y-42076827D01*
X38203305Y-42285296D01*
X38198572Y-42293331D01*
X38086348Y-42520899D01*
X38082860Y-42529532D01*
X38005502Y-42771198D01*
X38003329Y-42780249D01*
X37980224Y-42922120D01*
X33750000Y-42922120D01*
X33750000Y-42481885D01*
X34250000Y-42481885D01*
X34254475Y-42497124D01*
X34255865Y-42498329D01*
X34263548Y-42500000D01*
X35881885Y-42500000D01*
X35897124Y-42495525D01*
X35898329Y-42494135D01*
X35900000Y-42486452D01*
X35900000Y-41906085D01*
X35899631Y-41899271D01*
X35894211Y-41849379D01*
X35890586Y-41834133D01*
X35846233Y-41715823D01*
X35837701Y-41700237D01*
X35762570Y-41599991D01*
X35750009Y-41587430D01*
X35649763Y-41512299D01*
X35634177Y-41503767D01*
X35515867Y-41459414D01*
X35500621Y-41455789D01*
X35450729Y-41450369D01*
X35443915Y-41450000D01*
X34268115Y-41450000D01*
X34252876Y-41454475D01*
X34251671Y-41455865D01*
X34250000Y-41463548D01*
X34250000Y-42481885D01*
X33750000Y-42481885D01*
X33750000Y-41468115D01*
X33745525Y-41452876D01*
X33744135Y-41451671D01*
X33736452Y-41450000D01*
X32556085Y-41450000D01*
X32549271Y-41450369D01*
X32499379Y-41455789D01*
X32484133Y-41459414D01*
X32365823Y-41503767D01*
X32350237Y-41512299D01*
X32249991Y-41587430D01*
X32237431Y-41599990D01*
X32227327Y-41613472D01*
X32170468Y-41655988D01*
X32099650Y-41661014D01*
X32037356Y-41626955D01*
X32003365Y-41564624D01*
X32000500Y-41537908D01*
X32000500Y-40876500D01*
X32020502Y-40808379D01*
X32074158Y-40761886D01*
X32126500Y-40750500D01*
X49873500Y-40750500D01*
X49941621Y-40770502D01*
G37*
G04 #@! TD.AperFunction*
G04 #@! TA.AperFunction,Conductor*
G36*
X48000000Y-118250000D02*
G01*
X34756187Y-118250000D01*
X34743837Y-118249393D01*
X34567260Y-118232001D01*
X34543043Y-118227185D01*
X34379190Y-118177482D01*
X34356371Y-118168029D01*
X34297583Y-118136607D01*
X34205369Y-118087317D01*
X34184842Y-118073601D01*
X34052479Y-117964974D01*
X34035026Y-117947521D01*
X33926399Y-117815158D01*
X33912681Y-117794628D01*
X33831971Y-117643629D01*
X33822518Y-117620809D01*
X33772815Y-117456957D01*
X33767998Y-117432737D01*
X33750607Y-117256163D01*
X33750000Y-117243813D01*
X33750000Y-117006187D01*
X33750607Y-116993837D01*
X33767998Y-116817263D01*
X33772815Y-116793043D01*
X33822518Y-116629190D01*
X33831971Y-116606371D01*
X33912681Y-116455372D01*
X33926399Y-116434842D01*
X34035026Y-116302479D01*
X34052479Y-116285026D01*
X34184842Y-116176399D01*
X34205369Y-116162683D01*
X34356371Y-116081971D01*
X34379191Y-116072518D01*
X34543043Y-116022815D01*
X34567260Y-116017999D01*
X34743837Y-116000607D01*
X34756187Y-116000000D01*
X48000000Y-116000000D01*
X48000000Y-118250000D01*
G37*
G04 #@! TD.AperFunction*
G04 #@! TA.AperFunction,Conductor*
G36*
X38765931Y-79270002D02*
G01*
X38786905Y-79286905D01*
X39500000Y-80000000D01*
X47874000Y-80000000D01*
X47942121Y-80020002D01*
X47988614Y-80073658D01*
X48000000Y-80126000D01*
X48000000Y-87197810D01*
X47979998Y-87265931D01*
X47963095Y-87286905D01*
X46036905Y-89213095D01*
X45974593Y-89247121D01*
X45947810Y-89250000D01*
X39802190Y-89250000D01*
X39734069Y-89229998D01*
X39713095Y-89213095D01*
X38786905Y-88286905D01*
X38752879Y-88224593D01*
X38750000Y-88197810D01*
X38750000Y-83750000D01*
X38000000Y-83000000D01*
X37052190Y-83000000D01*
X36984069Y-82979998D01*
X36963095Y-82963095D01*
X36536905Y-82536905D01*
X36502879Y-82474593D01*
X36500000Y-82447810D01*
X36500000Y-79376000D01*
X36520002Y-79307879D01*
X36573658Y-79261386D01*
X36626000Y-79250000D01*
X38697810Y-79250000D01*
X38765931Y-79270002D01*
G37*
G04 #@! TD.AperFunction*
G04 #@! TA.AperFunction,Conductor*
G36*
X38442121Y-100770002D02*
G01*
X38488614Y-100823658D01*
X38500000Y-100876000D01*
X38500000Y-108359318D01*
X38479998Y-108427439D01*
X38426342Y-108473932D01*
X38356068Y-108484036D01*
X38295908Y-108458200D01*
X38156524Y-108348120D01*
X38156520Y-108348118D01*
X38152469Y-108344918D01*
X38115234Y-108324363D01*
X37960619Y-108239012D01*
X37956092Y-108236513D01*
X37951223Y-108234789D01*
X37951219Y-108234787D01*
X37749523Y-108163362D01*
X37749519Y-108163361D01*
X37744648Y-108161636D01*
X37739558Y-108160729D01*
X37739553Y-108160728D01*
X37619964Y-108139427D01*
X37523813Y-108122300D01*
X37438968Y-108121263D01*
X37304689Y-108119622D01*
X37304687Y-108119622D01*
X37299519Y-108119559D01*
X37077789Y-108153489D01*
X36864578Y-108223177D01*
X36859990Y-108225565D01*
X36859986Y-108225567D01*
X36670201Y-108324363D01*
X36665612Y-108326752D01*
X36661479Y-108329855D01*
X36661476Y-108329857D01*
X36490369Y-108458328D01*
X36486234Y-108461433D01*
X36331262Y-108623602D01*
X36328348Y-108627874D01*
X36328347Y-108627875D01*
X36228327Y-108774499D01*
X36173416Y-108819502D01*
X36102891Y-108827673D01*
X36039144Y-108796419D01*
X36018447Y-108771935D01*
X35942276Y-108654193D01*
X35939466Y-108649849D01*
X35788502Y-108483941D01*
X35784451Y-108480742D01*
X35784447Y-108480738D01*
X35616524Y-108348120D01*
X35616520Y-108348118D01*
X35612469Y-108344918D01*
X35575234Y-108324363D01*
X35420619Y-108239012D01*
X35416092Y-108236513D01*
X35411223Y-108234789D01*
X35411219Y-108234787D01*
X35209523Y-108163362D01*
X35209519Y-108163361D01*
X35204648Y-108161636D01*
X35199558Y-108160729D01*
X35199553Y-108160728D01*
X35079964Y-108139427D01*
X34983813Y-108122300D01*
X34898968Y-108121263D01*
X34764689Y-108119622D01*
X34764687Y-108119622D01*
X34759519Y-108119559D01*
X34537789Y-108153489D01*
X34324578Y-108223177D01*
X34319990Y-108225565D01*
X34319986Y-108225567D01*
X34130201Y-108324363D01*
X34125612Y-108326752D01*
X34121479Y-108329855D01*
X34121476Y-108329857D01*
X33950369Y-108458328D01*
X33946234Y-108461433D01*
X33791262Y-108623602D01*
X33788348Y-108627874D01*
X33788347Y-108627875D01*
X33770394Y-108654193D01*
X33664857Y-108808905D01*
X33570414Y-109012364D01*
X33510470Y-109228517D01*
X33486634Y-109451558D01*
X33499546Y-109675497D01*
X33500683Y-109680543D01*
X33500684Y-109680549D01*
X33521802Y-109774256D01*
X33548860Y-109894320D01*
X33633251Y-110102150D01*
X33750453Y-110293406D01*
X33897318Y-110462952D01*
X34069903Y-110606235D01*
X34134862Y-110644194D01*
X34183584Y-110695832D01*
X34196655Y-110765615D01*
X34169923Y-110831387D01*
X34134127Y-110860902D01*
X34134573Y-110861610D01*
X34130200Y-110864364D01*
X34125612Y-110866752D01*
X34121479Y-110869855D01*
X34121476Y-110869857D01*
X33950369Y-110998328D01*
X33946234Y-111001433D01*
X33791262Y-111163602D01*
X33788348Y-111167874D01*
X33788347Y-111167875D01*
X33770394Y-111194193D01*
X33664857Y-111348905D01*
X33570414Y-111552364D01*
X33510470Y-111768517D01*
X33486634Y-111991558D01*
X33499546Y-112215497D01*
X33500683Y-112220543D01*
X33500684Y-112220549D01*
X33521802Y-112314256D01*
X33548860Y-112434320D01*
X33633251Y-112642150D01*
X33750453Y-112833406D01*
X33897318Y-113002952D01*
X34069903Y-113146235D01*
X34134862Y-113184194D01*
X34183584Y-113235832D01*
X34196655Y-113305615D01*
X34169923Y-113371387D01*
X34134127Y-113400902D01*
X34134573Y-113401610D01*
X34130200Y-113404364D01*
X34125612Y-113406752D01*
X34121479Y-113409855D01*
X34121476Y-113409857D01*
X33950369Y-113538328D01*
X33946234Y-113541433D01*
X33791262Y-113703602D01*
X33788348Y-113707874D01*
X33788347Y-113707875D01*
X33770394Y-113734193D01*
X33664857Y-113888905D01*
X33570414Y-114092364D01*
X33510470Y-114308517D01*
X33486634Y-114531558D01*
X33499546Y-114755497D01*
X33500683Y-114760543D01*
X33500684Y-114760549D01*
X33521802Y-114854256D01*
X33548860Y-114974320D01*
X33633251Y-115182150D01*
X33750453Y-115373406D01*
X33897318Y-115542952D01*
X33901293Y-115546252D01*
X33901297Y-115546256D01*
X33912646Y-115555678D01*
X33952281Y-115614581D01*
X33953778Y-115685562D01*
X33916662Y-115746084D01*
X33904857Y-115755520D01*
X33903997Y-115756094D01*
X33864157Y-115785641D01*
X33862961Y-115786623D01*
X33862954Y-115786628D01*
X33732983Y-115893292D01*
X33731794Y-115894268D01*
X33730661Y-115895295D01*
X33730647Y-115895307D01*
X33713884Y-115910501D01*
X33695037Y-115927584D01*
X33677584Y-115945037D01*
X33660501Y-115963884D01*
X33645307Y-115980647D01*
X33645295Y-115980661D01*
X33644268Y-115981794D01*
X33535641Y-116114157D01*
X33506094Y-116153997D01*
X33492376Y-116174527D01*
X33466869Y-116217082D01*
X33386159Y-116368081D01*
X33364958Y-116412906D01*
X33355505Y-116435725D01*
X33338784Y-116482455D01*
X33289081Y-116646308D01*
X33277025Y-116694438D01*
X33272208Y-116718658D01*
X33264932Y-116767715D01*
X33264784Y-116769223D01*
X33264781Y-116769243D01*
X33247622Y-116943463D01*
X33247541Y-116944289D01*
X33245716Y-116969022D01*
X33245109Y-116981372D01*
X33244500Y-117006187D01*
X33244500Y-117243813D01*
X33245109Y-117268628D01*
X33245716Y-117280978D01*
X33247541Y-117305711D01*
X33247620Y-117306509D01*
X33247622Y-117306537D01*
X33264781Y-117480757D01*
X33264784Y-117480777D01*
X33264932Y-117482285D01*
X33272208Y-117531342D01*
X33277025Y-117555562D01*
X33289081Y-117603693D01*
X33338784Y-117767545D01*
X33355502Y-117814267D01*
X33356091Y-117815689D01*
X33356098Y-117815707D01*
X33364365Y-117835663D01*
X33364955Y-117837087D01*
X33386159Y-117881919D01*
X33466869Y-118032918D01*
X33492376Y-118075473D01*
X33506094Y-118096003D01*
X33535641Y-118135843D01*
X33644268Y-118268206D01*
X33645295Y-118269339D01*
X33645307Y-118269353D01*
X33660501Y-118286116D01*
X33677584Y-118304963D01*
X33695037Y-118322416D01*
X33713884Y-118339499D01*
X33730647Y-118354693D01*
X33730661Y-118354705D01*
X33731794Y-118355732D01*
X33864157Y-118464359D01*
X33865395Y-118465277D01*
X33865414Y-118465292D01*
X33885369Y-118480092D01*
X33928168Y-118536738D01*
X33933547Y-118607531D01*
X33901403Y-118668346D01*
X33823034Y-118750355D01*
X33791262Y-118783602D01*
X33788348Y-118787874D01*
X33788347Y-118787875D01*
X33703431Y-118912358D01*
X33664857Y-118968905D01*
X33570414Y-119172364D01*
X33510470Y-119388517D01*
X33486634Y-119611558D01*
X33499546Y-119835497D01*
X33500683Y-119840543D01*
X33500684Y-119840549D01*
X33521802Y-119934256D01*
X33548860Y-120054320D01*
X33633251Y-120262150D01*
X33750453Y-120453406D01*
X33897318Y-120622952D01*
X34069903Y-120766235D01*
X34134862Y-120804194D01*
X34183584Y-120855832D01*
X34196655Y-120925615D01*
X34169923Y-120991387D01*
X34134127Y-121020902D01*
X34134573Y-121021610D01*
X34130200Y-121024364D01*
X34125612Y-121026752D01*
X34121479Y-121029855D01*
X34121476Y-121029857D01*
X33950369Y-121158328D01*
X33946234Y-121161433D01*
X33791262Y-121323602D01*
X33788348Y-121327874D01*
X33788347Y-121327875D01*
X33770394Y-121354193D01*
X33664857Y-121508905D01*
X33570414Y-121712364D01*
X33510470Y-121928517D01*
X33486634Y-122151558D01*
X33499546Y-122375497D01*
X33500683Y-122380543D01*
X33500684Y-122380549D01*
X33521802Y-122474256D01*
X33548860Y-122594320D01*
X33633251Y-122802150D01*
X33750453Y-122993406D01*
X33897318Y-123162952D01*
X34069903Y-123306235D01*
X34134862Y-123344194D01*
X34183584Y-123395832D01*
X34196655Y-123465615D01*
X34169923Y-123531387D01*
X34134127Y-123560902D01*
X34134573Y-123561610D01*
X34130200Y-123564364D01*
X34125612Y-123566752D01*
X34121479Y-123569855D01*
X34121476Y-123569857D01*
X33950369Y-123698328D01*
X33946234Y-123701433D01*
X33791262Y-123863602D01*
X33788348Y-123867874D01*
X33788347Y-123867875D01*
X33770394Y-123894193D01*
X33664857Y-124048905D01*
X33570414Y-124252364D01*
X33510470Y-124468517D01*
X33486634Y-124691558D01*
X33499546Y-124915497D01*
X33500683Y-124920543D01*
X33500684Y-124920549D01*
X33521802Y-125014256D01*
X33548860Y-125134320D01*
X33633251Y-125342150D01*
X33750453Y-125533406D01*
X33897318Y-125702952D01*
X34069903Y-125846235D01*
X34263572Y-125959406D01*
X34473124Y-126039426D01*
X34478190Y-126040457D01*
X34478191Y-126040457D01*
X34575856Y-126060327D01*
X34692932Y-126084146D01*
X34819012Y-126088769D01*
X34911928Y-126092177D01*
X34911932Y-126092177D01*
X34917092Y-126092366D01*
X34922212Y-126091710D01*
X34922214Y-126091710D01*
X34991864Y-126082787D01*
X35139584Y-126063864D01*
X35144532Y-126062379D01*
X35144539Y-126062378D01*
X35349484Y-126000891D01*
X35349483Y-126000891D01*
X35354434Y-125999406D01*
X35555871Y-125900723D01*
X35628602Y-125848845D01*
X35734283Y-125773463D01*
X35738486Y-125770465D01*
X35773888Y-125735187D01*
X35893714Y-125615778D01*
X35897375Y-125612130D01*
X36024899Y-125434661D01*
X36080894Y-125391013D01*
X36151597Y-125384567D01*
X36214562Y-125417370D01*
X36234655Y-125442352D01*
X36290453Y-125533406D01*
X36437318Y-125702952D01*
X36609903Y-125846235D01*
X36803572Y-125959406D01*
X37013124Y-126039426D01*
X37018190Y-126040457D01*
X37018191Y-126040457D01*
X37115856Y-126060327D01*
X37232932Y-126084146D01*
X37359012Y-126088769D01*
X37451928Y-126092177D01*
X37451932Y-126092177D01*
X37457092Y-126092366D01*
X37462212Y-126091710D01*
X37462214Y-126091710D01*
X37531864Y-126082787D01*
X37679584Y-126063864D01*
X37684532Y-126062379D01*
X37684539Y-126062378D01*
X37889484Y-126000891D01*
X37889483Y-126000891D01*
X37894434Y-125999406D01*
X38095871Y-125900723D01*
X38168602Y-125848845D01*
X38274283Y-125773463D01*
X38278486Y-125770465D01*
X38282151Y-125766813D01*
X38285061Y-125763914D01*
X38347433Y-125729998D01*
X38418239Y-125735187D01*
X38475000Y-125777833D01*
X38499695Y-125844397D01*
X38500000Y-125853165D01*
X38500000Y-126250000D01*
X33250000Y-126250000D01*
X33250000Y-128500000D01*
X38500000Y-128500000D01*
X38500000Y-133785223D01*
X38479998Y-133853344D01*
X38463095Y-133874318D01*
X38283427Y-134053986D01*
X38042630Y-134351345D01*
X37834235Y-134672245D01*
X37660525Y-135013170D01*
X37523403Y-135370385D01*
X37424372Y-135739977D01*
X37403466Y-135871972D01*
X37386435Y-135979502D01*
X37364515Y-136117895D01*
X37344490Y-136500000D01*
X37364515Y-136882105D01*
X37365028Y-136885345D01*
X37365029Y-136885353D01*
X37392587Y-137059346D01*
X37424372Y-137260023D01*
X37523403Y-137629615D01*
X37660525Y-137986830D01*
X37834235Y-138327755D01*
X38042630Y-138648655D01*
X38283427Y-138946014D01*
X38463095Y-139125682D01*
X38497121Y-139187994D01*
X38500000Y-139214777D01*
X38500000Y-142733836D01*
X38479998Y-142801957D01*
X38449565Y-142834662D01*
X38372454Y-142892454D01*
X38367072Y-142899635D01*
X38291856Y-142999994D01*
X38291854Y-142999997D01*
X38286474Y-143007176D01*
X38236149Y-143141420D01*
X38229500Y-143202623D01*
X38229501Y-145797376D01*
X38229870Y-145800770D01*
X38229870Y-145800776D01*
X38236149Y-145858580D01*
X38233169Y-145858904D01*
X38230191Y-145915773D01*
X38188736Y-145973410D01*
X38122701Y-145999485D01*
X38111317Y-146000000D01*
X35381500Y-146000000D01*
X35313379Y-145979998D01*
X35266886Y-145926342D01*
X35255500Y-145874000D01*
X35255500Y-145549490D01*
X35254847Y-145544993D01*
X35254846Y-145544986D01*
X35235895Y-145414577D01*
X35235894Y-145414575D01*
X35234592Y-145405613D01*
X35174428Y-145274915D01*
X35145699Y-145230506D01*
X35135942Y-145212309D01*
X35078962Y-145081265D01*
X35072307Y-145061718D01*
X35037492Y-144923114D01*
X35034120Y-144902742D01*
X35025424Y-144796971D01*
X35025000Y-144786647D01*
X35025000Y-144202948D01*
X35025713Y-144189558D01*
X35038148Y-144073206D01*
X35042018Y-144052924D01*
X35080205Y-143915227D01*
X35087334Y-143895850D01*
X35147502Y-143766226D01*
X35157701Y-143748273D01*
X35167592Y-143733773D01*
X35235024Y-143591326D01*
X35240782Y-143551277D01*
X35254861Y-143453358D01*
X35254862Y-143453351D01*
X35255500Y-143448910D01*
X35255500Y-142250000D01*
X35243948Y-142142548D01*
X35193667Y-142007740D01*
X35107442Y-141892558D01*
X34292405Y-141077521D01*
X34258379Y-141015209D01*
X34255500Y-140988426D01*
X34255500Y-137004725D01*
X34243854Y-136896842D01*
X34193455Y-136762078D01*
X34107131Y-136646971D01*
X34104806Y-136644650D01*
X34093464Y-136629240D01*
X34081581Y-136610036D01*
X34069205Y-136583615D01*
X34061478Y-136560455D01*
X34055001Y-136520578D01*
X34055000Y-135979502D01*
X34061408Y-135939833D01*
X34069071Y-135916731D01*
X34081402Y-135890285D01*
X34092690Y-135871972D01*
X34105900Y-135854298D01*
X34107752Y-135852442D01*
X34175254Y-135768604D01*
X34235024Y-135637726D01*
X34236306Y-135628810D01*
X34254861Y-135499758D01*
X34254862Y-135499751D01*
X34255500Y-135495310D01*
X34255500Y-133000000D01*
X34250355Y-132928060D01*
X34231697Y-132864515D01*
X34212358Y-132798655D01*
X34209819Y-132790008D01*
X34204947Y-132782427D01*
X34136903Y-132676548D01*
X34136901Y-132676545D01*
X34132031Y-132668968D01*
X34023294Y-132574746D01*
X33892416Y-132514976D01*
X33883501Y-132513694D01*
X33883500Y-132513694D01*
X33754448Y-132495139D01*
X33754441Y-132495138D01*
X33750000Y-132494500D01*
X32126500Y-132494500D01*
X32058379Y-132474498D01*
X32011886Y-132420842D01*
X32000500Y-132368500D01*
X32000500Y-100876000D01*
X32020502Y-100807879D01*
X32074158Y-100761386D01*
X32126500Y-100750000D01*
X38374000Y-100750000D01*
X38442121Y-100770002D01*
G37*
G04 #@! TD.AperFunction*
G04 #@! TA.AperFunction,Conductor*
G36*
X44442121Y-62020002D02*
G01*
X44488614Y-62073658D01*
X44500000Y-62126000D01*
X44500000Y-68374000D01*
X44479998Y-68442121D01*
X44426342Y-68488614D01*
X44374000Y-68500000D01*
X38126000Y-68500000D01*
X38057879Y-68479998D01*
X38011386Y-68426342D01*
X38000000Y-68374000D01*
X38000000Y-62126000D01*
X38020002Y-62057879D01*
X38073658Y-62011386D01*
X38126000Y-62000000D01*
X44374000Y-62000000D01*
X44442121Y-62020002D01*
G37*
G04 #@! TD.AperFunction*
G04 #@! TA.AperFunction,Conductor*
G36*
X34692121Y-79020002D02*
G01*
X34738614Y-79073658D01*
X34750000Y-79126000D01*
X34750000Y-89224000D01*
X34729998Y-89292121D01*
X34676342Y-89338614D01*
X34624000Y-89350000D01*
X32126500Y-89350000D01*
X32058379Y-89329998D01*
X32011886Y-89276342D01*
X32000500Y-89224000D01*
X32000500Y-79126000D01*
X32020502Y-79057879D01*
X32074158Y-79011386D01*
X32126500Y-79000000D01*
X34624000Y-79000000D01*
X34692121Y-79020002D01*
G37*
G04 #@! TD.AperFunction*
G04 #@! TA.AperFunction,Conductor*
G36*
X42038887Y-92257561D02*
G01*
X42190829Y-92312714D01*
X42190833Y-92312715D01*
X42195844Y-92314534D01*
X42201093Y-92315483D01*
X42201096Y-92315484D01*
X42425641Y-92356088D01*
X42425648Y-92356089D01*
X42429725Y-92356826D01*
X42447991Y-92357687D01*
X42453131Y-92357930D01*
X42453138Y-92357930D01*
X42454619Y-92358000D01*
X43321680Y-92358000D01*
X43404026Y-92351013D01*
X43493512Y-92343420D01*
X43493516Y-92343419D01*
X43498823Y-92342969D01*
X43503978Y-92341631D01*
X43503984Y-92341630D01*
X43608379Y-92314534D01*
X43728874Y-92283260D01*
X43733740Y-92281068D01*
X43733743Y-92281067D01*
X43778028Y-92261118D01*
X43829778Y-92250000D01*
X49873500Y-92250000D01*
X49941621Y-92270002D01*
X49988114Y-92323658D01*
X49999500Y-92376000D01*
X49999500Y-132618500D01*
X49979498Y-132686621D01*
X49925842Y-132733114D01*
X49873500Y-132744500D01*
X48250000Y-132744500D01*
X48247749Y-132744661D01*
X48184796Y-132749163D01*
X48184794Y-132749163D01*
X48178060Y-132749645D01*
X48171585Y-132751546D01*
X48171581Y-132751547D01*
X48050258Y-132787171D01*
X48040008Y-132790181D01*
X48032427Y-132795053D01*
X47926548Y-132863097D01*
X47926545Y-132863099D01*
X47918968Y-132867969D01*
X47824746Y-132976706D01*
X47764976Y-133107584D01*
X47763694Y-133116499D01*
X47763694Y-133116500D01*
X47745139Y-133245552D01*
X47745138Y-133245559D01*
X47744500Y-133250000D01*
X47744500Y-135495275D01*
X47756146Y-135603158D01*
X47806545Y-135737922D01*
X47892869Y-135853029D01*
X47895194Y-135855350D01*
X47906536Y-135870760D01*
X47918419Y-135889963D01*
X47930795Y-135916385D01*
X47938522Y-135939545D01*
X47944999Y-135979422D01*
X47945000Y-136520498D01*
X47938592Y-136560167D01*
X47930929Y-136583269D01*
X47918598Y-136609715D01*
X47907310Y-136628028D01*
X47894100Y-136645702D01*
X47892248Y-136647558D01*
X47824746Y-136731396D01*
X47764976Y-136862274D01*
X47763694Y-136871189D01*
X47763694Y-136871190D01*
X47745139Y-137000242D01*
X47745138Y-137000249D01*
X47744500Y-137004690D01*
X47744500Y-141238426D01*
X47724498Y-141306547D01*
X47707595Y-141327521D01*
X46892558Y-142142558D01*
X46824746Y-142226706D01*
X46764976Y-142357584D01*
X46763694Y-142366499D01*
X46763694Y-142366500D01*
X46745139Y-142495552D01*
X46745138Y-142495559D01*
X46744500Y-142500000D01*
X46744500Y-142841830D01*
X46745768Y-142877606D01*
X46776272Y-143018216D01*
X46845155Y-143144536D01*
X46851523Y-143150911D01*
X46918145Y-143217609D01*
X46952135Y-143279941D01*
X46954999Y-143306654D01*
X46955000Y-145624000D01*
X46934998Y-145692121D01*
X46881342Y-145738614D01*
X46829000Y-145750000D01*
X43642788Y-145750000D01*
X43574667Y-145729998D01*
X43528174Y-145676342D01*
X43518070Y-145606068D01*
X43538700Y-145552996D01*
X43576230Y-145497979D01*
X43579149Y-145493700D01*
X43683035Y-145269896D01*
X43748974Y-145032129D01*
X43770500Y-144830708D01*
X43770500Y-144187446D01*
X43770288Y-144184862D01*
X43755849Y-144009240D01*
X43755848Y-144009234D01*
X43755425Y-144004089D01*
X43695316Y-143764783D01*
X43596928Y-143538507D01*
X43520208Y-143419916D01*
X43500000Y-143351476D01*
X43500000Y-139214777D01*
X43520002Y-139146656D01*
X43536905Y-139125682D01*
X43716573Y-138946014D01*
X43957370Y-138648655D01*
X44165765Y-138327755D01*
X44339475Y-137986830D01*
X44476597Y-137629615D01*
X44575628Y-137260023D01*
X44635485Y-136882105D01*
X44655510Y-136500000D01*
X44635485Y-136117895D01*
X44612396Y-135972115D01*
X44576144Y-135743238D01*
X44575628Y-135739977D01*
X44476597Y-135370385D01*
X44339475Y-135013170D01*
X44165765Y-134672245D01*
X43957370Y-134351345D01*
X43716573Y-134053986D01*
X43536905Y-133874318D01*
X43502879Y-133812006D01*
X43500000Y-133785223D01*
X43500000Y-129131500D01*
X43520002Y-129063379D01*
X43573658Y-129016886D01*
X43626000Y-129005500D01*
X46993813Y-129005500D01*
X46994542Y-129005482D01*
X46994551Y-129005482D01*
X47013427Y-129005019D01*
X47018628Y-129004891D01*
X47019435Y-129004851D01*
X47019444Y-129004851D01*
X47022470Y-129004702D01*
X47030978Y-129004284D01*
X47055713Y-129002459D01*
X47056468Y-129002385D01*
X47056487Y-129002383D01*
X47230738Y-128985220D01*
X47230743Y-128985219D01*
X47232290Y-128985067D01*
X47233819Y-128984840D01*
X47233837Y-128984838D01*
X47279794Y-128978021D01*
X47279799Y-128978020D01*
X47281337Y-128977792D01*
X47305554Y-128972976D01*
X47353692Y-128960919D01*
X47517545Y-128911216D01*
X47519003Y-128910694D01*
X47519013Y-128910691D01*
X47538993Y-128903541D01*
X47564275Y-128894495D01*
X47565690Y-128893909D01*
X47585692Y-128885623D01*
X47585699Y-128885620D01*
X47587094Y-128885042D01*
X47631919Y-128863841D01*
X47633280Y-128863114D01*
X47633293Y-128863107D01*
X47781552Y-128783861D01*
X47781560Y-128783856D01*
X47782921Y-128783129D01*
X47825476Y-128757622D01*
X47846003Y-128743906D01*
X47885843Y-128714359D01*
X47891165Y-128709992D01*
X48017017Y-128606708D01*
X48017022Y-128606704D01*
X48018206Y-128605732D01*
X48019339Y-128604705D01*
X48019353Y-128604693D01*
X48036116Y-128589499D01*
X48054963Y-128572416D01*
X48072416Y-128554963D01*
X48089499Y-128536116D01*
X48104693Y-128519353D01*
X48104705Y-128519339D01*
X48105732Y-128518206D01*
X48214359Y-128385843D01*
X48243906Y-128346003D01*
X48257624Y-128325473D01*
X48283131Y-128282918D01*
X48363841Y-128131919D01*
X48385045Y-128087087D01*
X48385635Y-128085663D01*
X48393902Y-128065707D01*
X48393909Y-128065689D01*
X48394498Y-128064267D01*
X48411216Y-128017545D01*
X48460919Y-127853693D01*
X48472975Y-127805562D01*
X48477792Y-127781342D01*
X48485068Y-127732285D01*
X48485216Y-127730777D01*
X48485219Y-127730757D01*
X48502378Y-127556537D01*
X48502380Y-127556509D01*
X48502459Y-127555711D01*
X48504284Y-127530978D01*
X48504891Y-127518628D01*
X48505500Y-127493813D01*
X48505500Y-127256187D01*
X48504891Y-127231372D01*
X48504284Y-127219022D01*
X48502459Y-127194289D01*
X48502378Y-127193463D01*
X48485219Y-127019243D01*
X48485216Y-127019223D01*
X48485068Y-127017715D01*
X48477792Y-126968658D01*
X48472975Y-126944438D01*
X48460919Y-126896308D01*
X48411216Y-126732455D01*
X48394495Y-126685725D01*
X48385042Y-126662906D01*
X48363841Y-126618081D01*
X48283131Y-126467082D01*
X48257624Y-126424527D01*
X48243906Y-126403997D01*
X48214359Y-126364157D01*
X48105732Y-126231794D01*
X48104705Y-126230661D01*
X48104693Y-126230647D01*
X48089499Y-126213884D01*
X48072416Y-126195037D01*
X48054963Y-126177584D01*
X48036116Y-126160501D01*
X48019353Y-126145307D01*
X48019339Y-126145295D01*
X48018206Y-126144268D01*
X47885843Y-126035641D01*
X47884581Y-126034705D01*
X47861177Y-126017347D01*
X47818376Y-125960702D01*
X47812995Y-125889909D01*
X47846741Y-125827446D01*
X47863065Y-125813564D01*
X47919275Y-125773470D01*
X47919285Y-125773462D01*
X47923486Y-125770465D01*
X48082375Y-125612130D01*
X48213269Y-125429971D01*
X48232524Y-125391013D01*
X48310361Y-125233522D01*
X48310362Y-125233520D01*
X48312655Y-125228880D01*
X48377862Y-125014256D01*
X48407141Y-124791864D01*
X48408775Y-124725000D01*
X48402693Y-124651030D01*
X48390819Y-124506595D01*
X48390818Y-124506589D01*
X48390395Y-124501444D01*
X48335750Y-124283891D01*
X48246306Y-124078184D01*
X48234220Y-124059502D01*
X48127277Y-123894193D01*
X48127272Y-123894187D01*
X48124466Y-123889849D01*
X47973502Y-123723941D01*
X47969451Y-123720742D01*
X47969447Y-123720738D01*
X47801524Y-123588120D01*
X47801520Y-123588118D01*
X47797469Y-123584918D01*
X47792945Y-123582421D01*
X47792941Y-123582418D01*
X47763546Y-123566191D01*
X47713576Y-123515759D01*
X47698804Y-123446316D01*
X47723920Y-123379911D01*
X47751272Y-123353304D01*
X47919278Y-123233467D01*
X47919282Y-123233464D01*
X47923486Y-123230465D01*
X48082375Y-123072130D01*
X48213269Y-122889971D01*
X48232524Y-122851013D01*
X48310361Y-122693522D01*
X48310362Y-122693520D01*
X48312655Y-122688880D01*
X48377862Y-122474256D01*
X48407141Y-122251864D01*
X48408775Y-122185000D01*
X48402693Y-122111030D01*
X48390819Y-121966595D01*
X48390818Y-121966589D01*
X48390395Y-121961444D01*
X48335750Y-121743891D01*
X48246306Y-121538184D01*
X48234220Y-121519502D01*
X48127277Y-121354193D01*
X48127272Y-121354187D01*
X48124466Y-121349849D01*
X47973502Y-121183941D01*
X47969451Y-121180742D01*
X47969447Y-121180738D01*
X47801524Y-121048120D01*
X47801520Y-121048118D01*
X47797469Y-121044918D01*
X47792945Y-121042421D01*
X47792941Y-121042418D01*
X47763546Y-121026191D01*
X47713576Y-120975759D01*
X47698804Y-120906316D01*
X47723920Y-120839911D01*
X47751272Y-120813304D01*
X47919278Y-120693467D01*
X47919282Y-120693464D01*
X47923486Y-120690465D01*
X48082375Y-120532130D01*
X48213269Y-120349971D01*
X48232524Y-120311013D01*
X48310361Y-120153522D01*
X48310362Y-120153520D01*
X48312655Y-120148880D01*
X48377862Y-119934256D01*
X48407141Y-119711864D01*
X48408775Y-119645000D01*
X48402693Y-119571030D01*
X48390819Y-119426595D01*
X48390818Y-119426589D01*
X48390395Y-119421444D01*
X48335750Y-119203891D01*
X48246306Y-118998184D01*
X48234220Y-118979502D01*
X48127277Y-118814193D01*
X48127272Y-118814187D01*
X48124466Y-118809849D01*
X47973502Y-118643941D01*
X47969451Y-118640742D01*
X47969447Y-118640738D01*
X47801524Y-118508120D01*
X47801520Y-118508118D01*
X47797469Y-118504918D01*
X47785501Y-118498311D01*
X47605619Y-118399012D01*
X47601092Y-118396513D01*
X47596223Y-118394789D01*
X47596219Y-118394787D01*
X47394523Y-118323362D01*
X47394519Y-118323361D01*
X47389648Y-118321636D01*
X47384558Y-118320729D01*
X47384553Y-118320728D01*
X47264964Y-118299427D01*
X47168813Y-118282300D01*
X47083968Y-118281263D01*
X46949689Y-118279622D01*
X46949687Y-118279622D01*
X46944519Y-118279559D01*
X46722789Y-118313489D01*
X46509578Y-118383177D01*
X46504990Y-118385565D01*
X46504986Y-118385567D01*
X46315201Y-118484363D01*
X46310612Y-118486752D01*
X46306479Y-118489855D01*
X46306476Y-118489857D01*
X46208481Y-118563434D01*
X46131234Y-118621433D01*
X45976262Y-118783602D01*
X45973348Y-118787874D01*
X45973347Y-118787875D01*
X45873327Y-118934499D01*
X45818416Y-118979502D01*
X45747891Y-118987673D01*
X45684144Y-118956419D01*
X45663447Y-118931935D01*
X45587276Y-118814193D01*
X45584466Y-118809849D01*
X45433502Y-118643941D01*
X45429451Y-118640742D01*
X45429447Y-118640738D01*
X45261524Y-118508120D01*
X45261520Y-118508118D01*
X45257469Y-118504918D01*
X45245501Y-118498311D01*
X45065619Y-118399012D01*
X45061092Y-118396513D01*
X45056223Y-118394789D01*
X45056219Y-118394787D01*
X44854523Y-118323362D01*
X44854519Y-118323361D01*
X44849648Y-118321636D01*
X44844558Y-118320729D01*
X44844553Y-118320728D01*
X44724964Y-118299427D01*
X44628813Y-118282300D01*
X44543968Y-118281263D01*
X44409689Y-118279622D01*
X44409687Y-118279622D01*
X44404519Y-118279559D01*
X44182789Y-118313489D01*
X43969578Y-118383177D01*
X43964990Y-118385565D01*
X43964986Y-118385567D01*
X43775201Y-118484363D01*
X43770612Y-118486752D01*
X43766479Y-118489855D01*
X43766476Y-118489857D01*
X43701653Y-118538528D01*
X43635168Y-118563434D01*
X43565773Y-118548442D01*
X43515499Y-118498311D01*
X43500000Y-118437768D01*
X43500000Y-118250000D01*
X48000000Y-118250000D01*
X48000000Y-116000000D01*
X43500000Y-116000000D01*
X43500000Y-115776190D01*
X43520002Y-115708069D01*
X43573658Y-115661576D01*
X43643932Y-115651472D01*
X43706486Y-115679247D01*
X43714903Y-115686235D01*
X43908572Y-115799406D01*
X44118124Y-115879426D01*
X44123190Y-115880457D01*
X44123191Y-115880457D01*
X44220856Y-115900327D01*
X44337932Y-115924146D01*
X44464012Y-115928769D01*
X44556928Y-115932177D01*
X44556932Y-115932177D01*
X44562092Y-115932366D01*
X44567212Y-115931710D01*
X44567214Y-115931710D01*
X44636864Y-115922787D01*
X44784584Y-115903864D01*
X44789532Y-115902379D01*
X44789539Y-115902378D01*
X44994484Y-115840891D01*
X44994483Y-115840891D01*
X44999434Y-115839406D01*
X45200871Y-115740723D01*
X45246651Y-115708069D01*
X45379283Y-115613463D01*
X45383486Y-115610465D01*
X45542375Y-115452130D01*
X45669899Y-115274661D01*
X45725894Y-115231013D01*
X45796597Y-115224567D01*
X45859562Y-115257370D01*
X45879655Y-115282352D01*
X45935453Y-115373406D01*
X46082318Y-115542952D01*
X46254903Y-115686235D01*
X46448572Y-115799406D01*
X46658124Y-115879426D01*
X46663190Y-115880457D01*
X46663191Y-115880457D01*
X46760856Y-115900327D01*
X46877932Y-115924146D01*
X47004012Y-115928769D01*
X47096928Y-115932177D01*
X47096932Y-115932177D01*
X47102092Y-115932366D01*
X47107212Y-115931710D01*
X47107214Y-115931710D01*
X47176864Y-115922787D01*
X47324584Y-115903864D01*
X47329532Y-115902379D01*
X47329539Y-115902378D01*
X47534484Y-115840891D01*
X47534483Y-115840891D01*
X47539434Y-115839406D01*
X47740871Y-115740723D01*
X47786651Y-115708069D01*
X47919283Y-115613463D01*
X47923486Y-115610465D01*
X48082375Y-115452130D01*
X48213269Y-115269971D01*
X48232524Y-115231013D01*
X48310361Y-115073522D01*
X48310362Y-115073520D01*
X48312655Y-115068880D01*
X48377862Y-114854256D01*
X48407141Y-114631864D01*
X48408775Y-114565000D01*
X48402693Y-114491030D01*
X48390819Y-114346595D01*
X48390818Y-114346589D01*
X48390395Y-114341444D01*
X48335750Y-114123891D01*
X48246306Y-113918184D01*
X48234220Y-113899502D01*
X48127277Y-113734193D01*
X48127272Y-113734187D01*
X48124466Y-113729849D01*
X47973502Y-113563941D01*
X47969451Y-113560742D01*
X47969447Y-113560738D01*
X47801524Y-113428120D01*
X47801520Y-113428118D01*
X47797469Y-113424918D01*
X47792945Y-113422421D01*
X47792941Y-113422418D01*
X47763546Y-113406191D01*
X47713576Y-113355759D01*
X47698804Y-113286316D01*
X47723920Y-113219911D01*
X47751272Y-113193304D01*
X47919278Y-113073467D01*
X47919282Y-113073464D01*
X47923486Y-113070465D01*
X48082375Y-112912130D01*
X48213269Y-112729971D01*
X48232524Y-112691013D01*
X48310361Y-112533522D01*
X48310362Y-112533520D01*
X48312655Y-112528880D01*
X48377862Y-112314256D01*
X48407141Y-112091864D01*
X48408775Y-112025000D01*
X48402693Y-111951030D01*
X48390819Y-111806595D01*
X48390818Y-111806589D01*
X48390395Y-111801444D01*
X48335750Y-111583891D01*
X48246306Y-111378184D01*
X48234220Y-111359502D01*
X48127277Y-111194193D01*
X48127272Y-111194187D01*
X48124466Y-111189849D01*
X47973502Y-111023941D01*
X47969451Y-111020742D01*
X47969447Y-111020738D01*
X47801524Y-110888120D01*
X47801520Y-110888118D01*
X47797469Y-110884918D01*
X47792945Y-110882421D01*
X47792941Y-110882418D01*
X47763546Y-110866191D01*
X47713576Y-110815759D01*
X47698804Y-110746316D01*
X47723920Y-110679911D01*
X47751272Y-110653304D01*
X47919278Y-110533467D01*
X47919282Y-110533464D01*
X47923486Y-110530465D01*
X48082375Y-110372130D01*
X48213269Y-110189971D01*
X48232524Y-110151013D01*
X48310361Y-109993522D01*
X48310362Y-109993520D01*
X48312655Y-109988880D01*
X48377862Y-109774256D01*
X48407141Y-109551864D01*
X48408775Y-109485000D01*
X48402693Y-109411030D01*
X48390819Y-109266595D01*
X48390818Y-109266589D01*
X48390395Y-109261444D01*
X48335750Y-109043891D01*
X48246306Y-108838184D01*
X48234220Y-108819502D01*
X48127277Y-108654193D01*
X48127272Y-108654187D01*
X48124466Y-108649849D01*
X47973502Y-108483941D01*
X47969451Y-108480742D01*
X47969447Y-108480738D01*
X47801524Y-108348120D01*
X47801520Y-108348118D01*
X47797469Y-108344918D01*
X47785501Y-108338311D01*
X47605619Y-108239012D01*
X47601092Y-108236513D01*
X47596223Y-108234789D01*
X47596219Y-108234787D01*
X47394523Y-108163362D01*
X47394519Y-108163361D01*
X47389648Y-108161636D01*
X47384558Y-108160729D01*
X47384553Y-108160728D01*
X47264964Y-108139427D01*
X47168813Y-108122300D01*
X47083968Y-108121263D01*
X46949689Y-108119622D01*
X46949687Y-108119622D01*
X46944519Y-108119559D01*
X46722789Y-108153489D01*
X46509578Y-108223177D01*
X46504990Y-108225565D01*
X46504986Y-108225567D01*
X46315201Y-108324363D01*
X46310612Y-108326752D01*
X46306479Y-108329855D01*
X46306476Y-108329857D01*
X46208481Y-108403434D01*
X46131234Y-108461433D01*
X45976262Y-108623602D01*
X45973348Y-108627874D01*
X45973347Y-108627875D01*
X45873327Y-108774499D01*
X45818416Y-108819502D01*
X45747891Y-108827673D01*
X45684144Y-108796419D01*
X45663447Y-108771935D01*
X45587276Y-108654193D01*
X45584466Y-108649849D01*
X45433502Y-108483941D01*
X45429451Y-108480742D01*
X45429447Y-108480738D01*
X45261524Y-108348120D01*
X45261520Y-108348118D01*
X45257469Y-108344918D01*
X45245501Y-108338311D01*
X45065619Y-108239012D01*
X45061092Y-108236513D01*
X45056223Y-108234789D01*
X45056219Y-108234787D01*
X44854523Y-108163362D01*
X44854519Y-108163361D01*
X44849648Y-108161636D01*
X44844558Y-108160729D01*
X44844553Y-108160728D01*
X44724964Y-108139427D01*
X44628813Y-108122300D01*
X44543968Y-108121263D01*
X44409689Y-108119622D01*
X44409687Y-108119622D01*
X44404519Y-108119559D01*
X44182789Y-108153489D01*
X43969578Y-108223177D01*
X43964990Y-108225565D01*
X43964986Y-108225567D01*
X43775201Y-108324363D01*
X43770612Y-108326752D01*
X43766479Y-108329855D01*
X43766476Y-108329857D01*
X43701653Y-108378528D01*
X43635168Y-108403434D01*
X43565773Y-108388442D01*
X43515499Y-108338311D01*
X43500000Y-108277768D01*
X43500000Y-99975059D01*
X43520002Y-99906938D01*
X43559697Y-99867915D01*
X43624826Y-99827612D01*
X43624833Y-99827606D01*
X43631052Y-99823758D01*
X43749543Y-99705061D01*
X43837549Y-99562287D01*
X43890350Y-99403098D01*
X43900500Y-99304035D01*
X43900499Y-98695966D01*
X43890093Y-98595665D01*
X43887914Y-98589134D01*
X43887913Y-98589129D01*
X43839332Y-98443516D01*
X43837014Y-98436568D01*
X43748758Y-98293948D01*
X43630061Y-98175457D01*
X43559884Y-98132200D01*
X43512391Y-98079428D01*
X43500000Y-98024940D01*
X43500000Y-97250000D01*
X41376000Y-97250000D01*
X41307879Y-97229998D01*
X41261386Y-97176342D01*
X41250000Y-97124000D01*
X41250000Y-92376000D01*
X41270002Y-92307879D01*
X41323658Y-92261386D01*
X41376000Y-92250000D01*
X41995896Y-92250000D01*
X42038887Y-92257561D01*
G37*
G04 #@! TD.AperFunction*
G04 #@! TA.AperFunction,Conductor*
G36*
X47942121Y-55520002D02*
G01*
X47988614Y-55573658D01*
X48000000Y-55626000D01*
X48000000Y-77874000D01*
X47979998Y-77942121D01*
X47926342Y-77988614D01*
X47874000Y-78000000D01*
X45126000Y-78000000D01*
X45057879Y-77979998D01*
X45011386Y-77926342D01*
X45000000Y-77874000D01*
X45000000Y-55626000D01*
X45020002Y-55557879D01*
X45073658Y-55511386D01*
X45126000Y-55500000D01*
X47874000Y-55500000D01*
X47942121Y-55520002D01*
G37*
G04 #@! TD.AperFunction*
G04 #@! TA.AperFunction,Conductor*
G36*
X49999500Y-147623500D02*
G01*
X49979498Y-147691621D01*
X49925842Y-147738114D01*
X49873500Y-147749500D01*
X47250000Y-147749500D01*
X47250000Y-146158170D01*
X47310365Y-146112928D01*
X47317546Y-146107546D01*
X47322928Y-146100365D01*
X47398144Y-146000006D01*
X47398146Y-146000003D01*
X47403526Y-145992824D01*
X47453851Y-145858580D01*
X47460500Y-145797377D01*
X47460499Y-143202624D01*
X47453851Y-143141420D01*
X47403526Y-143007176D01*
X47398146Y-142999997D01*
X47398144Y-142999994D01*
X47322928Y-142899635D01*
X47317546Y-142892454D01*
X47310365Y-142887072D01*
X47250000Y-142841830D01*
X47250000Y-142500000D01*
X48250000Y-141500000D01*
X48250000Y-137004690D01*
X48294374Y-136960239D01*
X48299543Y-136955061D01*
X48387549Y-136812287D01*
X48440350Y-136653098D01*
X48450500Y-136554035D01*
X48450499Y-135945966D01*
X48440093Y-135845665D01*
X48437914Y-135839134D01*
X48437913Y-135839129D01*
X48389332Y-135693516D01*
X48387014Y-135686568D01*
X48298758Y-135543948D01*
X48250000Y-135495275D01*
X48250000Y-133250000D01*
X49999500Y-133250000D01*
X49999500Y-147623500D01*
G37*
G04 #@! TD.AperFunction*
G04 #@! TA.AperFunction,Conductor*
G36*
X33750000Y-135495310D02*
G01*
X33700457Y-135544939D01*
X33612451Y-135687713D01*
X33559650Y-135846902D01*
X33549500Y-135945965D01*
X33549501Y-136554034D01*
X33559907Y-136654335D01*
X33562086Y-136660866D01*
X33562087Y-136660871D01*
X33607699Y-136797585D01*
X33612986Y-136813432D01*
X33701242Y-136956052D01*
X33706424Y-136961225D01*
X33750000Y-137004725D01*
X33750000Y-141250000D01*
X34750000Y-142250000D01*
X34750000Y-143448910D01*
X34710851Y-143506300D01*
X34606965Y-143730104D01*
X34541026Y-143967871D01*
X34519500Y-144169292D01*
X34519500Y-144812554D01*
X34519712Y-144815127D01*
X34519712Y-144815138D01*
X34534151Y-144990760D01*
X34534152Y-144990766D01*
X34534575Y-144995911D01*
X34594684Y-145235217D01*
X34693072Y-145461493D01*
X34695885Y-145465841D01*
X34750000Y-145549490D01*
X34750000Y-147749500D01*
X32126500Y-147749500D01*
X32058379Y-147729498D01*
X32011886Y-147675842D01*
X32000500Y-147623500D01*
X32000500Y-133000000D01*
X33750000Y-133000000D01*
X33750000Y-135495310D01*
G37*
G04 #@! TD.AperFunction*
M02*
