G04 #@! TF.GenerationSoftware,KiCad,Pcbnew,6.0.10-86aedd382b~118~ubuntu18.04.1*
G04 #@! TF.CreationDate,2024-03-18T10:27:50-04:00*
G04 #@! TF.ProjectId,4UP,3455502e-6b69-4636-9164-5f7063625858,rev?*
G04 #@! TF.SameCoordinates,Original*
G04 #@! TF.FileFunction,Copper,L4,Bot*
G04 #@! TF.FilePolarity,Positive*
%FSLAX46Y46*%
G04 Gerber Fmt 4.6, Leading zero omitted, Abs format (unit mm)*
G04 Created by KiCad (PCBNEW 6.0.10-86aedd382b~118~ubuntu18.04.1) date 2024-03-18 10:27:50*
%MOMM*%
%LPD*%
G01*
G04 APERTURE LIST*
G04 Aperture macros list*
%AMRoundRect*
0 Rectangle with rounded corners*
0 $1 Rounding radius*
0 $2 $3 $4 $5 $6 $7 $8 $9 X,Y pos of 4 corners*
0 Add a 4 corners polygon primitive as box body*
4,1,4,$2,$3,$4,$5,$6,$7,$8,$9,$2,$3,0*
0 Add four circle primitives for the rounded corners*
1,1,$1+$1,$2,$3*
1,1,$1+$1,$4,$5*
1,1,$1+$1,$6,$7*
1,1,$1+$1,$8,$9*
0 Add four rect primitives between the rounded corners*
20,1,$1+$1,$2,$3,$4,$5,0*
20,1,$1+$1,$4,$5,$6,$7,0*
20,1,$1+$1,$6,$7,$8,$9,0*
20,1,$1+$1,$8,$9,$2,$3,0*%
%AMHorizOval*
0 Thick line with rounded ends*
0 $1 width*
0 $2 $3 position (X,Y) of the first rounded end (center of the circle)*
0 $4 $5 position (X,Y) of the second rounded end (center of the circle)*
0 Add line between two ends*
20,1,$1,$2,$3,$4,$5,0*
0 Add two circle primitives to create the rounded ends*
1,1,$1,$2,$3*
1,1,$1,$4,$5*%
G04 Aperture macros list end*
G04 #@! TA.AperFunction,ComponentPad*
%ADD10R,1.800000X1.800000*%
G04 #@! TD*
G04 #@! TA.AperFunction,ComponentPad*
%ADD11C,1.800000*%
G04 #@! TD*
G04 #@! TA.AperFunction,SMDPad,CuDef*
%ADD12RoundRect,0.200000X-0.200000X-0.275000X0.200000X-0.275000X0.200000X0.275000X-0.200000X0.275000X0*%
G04 #@! TD*
G04 #@! TA.AperFunction,ComponentPad*
%ADD13RoundRect,0.220589X-0.879411X-0.529411X0.879411X-0.529411X0.879411X0.529411X-0.879411X0.529411X0*%
G04 #@! TD*
G04 #@! TA.AperFunction,ComponentPad*
%ADD14O,2.200000X1.500000*%
G04 #@! TD*
G04 #@! TA.AperFunction,SMDPad,CuDef*
%ADD15R,2.500000X1.800000*%
G04 #@! TD*
G04 #@! TA.AperFunction,SMDPad,CuDef*
%ADD16RoundRect,0.250000X0.550000X-1.500000X0.550000X1.500000X-0.550000X1.500000X-0.550000X-1.500000X0*%
G04 #@! TD*
G04 #@! TA.AperFunction,SMDPad,CuDef*
%ADD17RoundRect,0.250000X-0.250000X-0.475000X0.250000X-0.475000X0.250000X0.475000X-0.250000X0.475000X0*%
G04 #@! TD*
G04 #@! TA.AperFunction,SMDPad,CuDef*
%ADD18RoundRect,0.225000X0.225000X0.250000X-0.225000X0.250000X-0.225000X-0.250000X0.225000X-0.250000X0*%
G04 #@! TD*
G04 #@! TA.AperFunction,SMDPad,CuDef*
%ADD19RoundRect,0.225000X-0.225000X-0.250000X0.225000X-0.250000X0.225000X0.250000X-0.225000X0.250000X0*%
G04 #@! TD*
G04 #@! TA.AperFunction,SMDPad,CuDef*
%ADD20RoundRect,0.250000X-0.325000X-0.650000X0.325000X-0.650000X0.325000X0.650000X-0.325000X0.650000X0*%
G04 #@! TD*
G04 #@! TA.AperFunction,SMDPad,CuDef*
%ADD21RoundRect,0.250000X0.325000X0.650000X-0.325000X0.650000X-0.325000X-0.650000X0.325000X-0.650000X0*%
G04 #@! TD*
G04 #@! TA.AperFunction,SMDPad,CuDef*
%ADD22RoundRect,0.250000X0.650000X-0.325000X0.650000X0.325000X-0.650000X0.325000X-0.650000X-0.325000X0*%
G04 #@! TD*
G04 #@! TA.AperFunction,ComponentPad*
%ADD23R,4.000000X2.500000*%
G04 #@! TD*
G04 #@! TA.AperFunction,ComponentPad*
%ADD24O,4.000000X2.500000*%
G04 #@! TD*
G04 #@! TA.AperFunction,ComponentPad*
%ADD25R,2.000000X2.500000*%
G04 #@! TD*
G04 #@! TA.AperFunction,ComponentPad*
%ADD26O,2.000000X2.500000*%
G04 #@! TD*
G04 #@! TA.AperFunction,ComponentPad*
%ADD27HorizOval,2.540000X1.226726X-0.328700X-1.226726X0.328700X0*%
G04 #@! TD*
G04 #@! TA.AperFunction,ComponentPad*
%ADD28R,2.540000X5.080000*%
G04 #@! TD*
G04 #@! TA.AperFunction,ComponentPad*
%ADD29O,5.080000X2.540000*%
G04 #@! TD*
G04 #@! TA.AperFunction,SMDPad,CuDef*
%ADD30R,1.900000X2.500000*%
G04 #@! TD*
G04 #@! TA.AperFunction,ComponentPad*
%ADD31R,2.750000X2.000000*%
G04 #@! TD*
G04 #@! TA.AperFunction,ComponentPad*
%ADD32O,2.750000X2.000000*%
G04 #@! TD*
G04 #@! TA.AperFunction,ComponentPad*
%ADD33R,2.500000X1.800000*%
G04 #@! TD*
G04 #@! TA.AperFunction,ComponentPad*
%ADD34O,2.500000X1.800000*%
G04 #@! TD*
G04 #@! TA.AperFunction,ComponentPad*
%ADD35R,2.800000X1.600000*%
G04 #@! TD*
G04 #@! TA.AperFunction,SMDPad,CuDef*
%ADD36R,2.500000X1.900000*%
G04 #@! TD*
G04 #@! TA.AperFunction,ViaPad*
%ADD37C,0.800000*%
G04 #@! TD*
G04 #@! TA.AperFunction,Conductor*
%ADD38C,0.350000*%
G04 #@! TD*
G04 #@! TA.AperFunction,Conductor*
%ADD39C,1.000000*%
G04 #@! TD*
G04 #@! TA.AperFunction,Conductor*
%ADD40C,0.250000*%
G04 #@! TD*
G04 APERTURE END LIST*
D10*
X41000000Y-101500000D03*
D11*
X41000000Y-98960000D03*
D12*
X42925000Y-99000000D03*
X44575000Y-99000000D03*
D13*
X34855000Y-127265000D03*
D14*
X37395000Y-127265000D03*
X34855000Y-124725000D03*
X37395000Y-124725000D03*
X34855000Y-122185000D03*
X37395000Y-122185000D03*
X34855000Y-119645000D03*
X37395000Y-119645000D03*
X34855000Y-117105000D03*
X37395000Y-117105000D03*
X34855000Y-114565000D03*
X37395000Y-114565000D03*
X34855000Y-112025000D03*
X37395000Y-112025000D03*
X34855000Y-109485000D03*
X37395000Y-109485000D03*
D13*
X44500000Y-127265000D03*
D14*
X47040000Y-127265000D03*
X44500000Y-124725000D03*
X47040000Y-124725000D03*
X44500000Y-122185000D03*
X47040000Y-122185000D03*
X44500000Y-119645000D03*
X47040000Y-119645000D03*
X44500000Y-117105000D03*
X47040000Y-117105000D03*
X44500000Y-114565000D03*
X47040000Y-114565000D03*
X44500000Y-112025000D03*
X47040000Y-112025000D03*
X44500000Y-109485000D03*
X47040000Y-109485000D03*
D15*
X46500000Y-63500000D03*
X42500000Y-63500000D03*
D16*
X46500000Y-58200000D03*
X46500000Y-52800000D03*
D17*
X32950000Y-138000000D03*
X34850000Y-138000000D03*
X47150000Y-138250000D03*
X49050000Y-138250000D03*
D18*
X38725000Y-96957500D03*
X40275000Y-96957500D03*
X40275000Y-103250000D03*
X38725000Y-103250000D03*
D19*
X47525000Y-136250000D03*
X49075000Y-136250000D03*
X32925000Y-136250000D03*
X34475000Y-136250000D03*
D20*
X46025000Y-140500000D03*
X48975000Y-140500000D03*
D21*
X37475000Y-83750000D03*
X34525000Y-83750000D03*
D20*
X33025000Y-140250000D03*
X35975000Y-140250000D03*
D21*
X42725000Y-77250000D03*
X39775000Y-77250000D03*
D20*
X33025000Y-134250000D03*
X35975000Y-134250000D03*
D22*
X33500000Y-64225000D03*
X33500000Y-61275000D03*
D20*
X46525000Y-83500000D03*
X49475000Y-83500000D03*
X46525000Y-68000000D03*
X49475000Y-68000000D03*
X46025000Y-134250000D03*
X48975000Y-134250000D03*
D23*
X41000000Y-60000000D03*
D24*
X41000000Y-67000000D03*
D25*
X45960000Y-144500000D03*
D26*
X48500000Y-144500000D03*
D25*
X39730000Y-144500000D03*
D26*
X42270000Y-144500000D03*
D27*
X40000000Y-50810000D03*
D28*
X44810000Y-47000000D03*
D29*
X41000000Y-43190000D03*
D25*
X33480000Y-144500000D03*
D26*
X36020000Y-144500000D03*
D30*
X46550000Y-72250000D03*
X42450000Y-72250000D03*
D31*
X33507750Y-73290000D03*
D32*
X33507750Y-70750000D03*
X33507750Y-68210000D03*
D33*
X42912000Y-88417500D03*
D34*
X42912000Y-90957500D03*
X42912000Y-93497500D03*
D35*
X34000000Y-42750000D03*
D36*
X46500000Y-76950000D03*
X46500000Y-81050000D03*
X35000000Y-102550000D03*
X35000000Y-98450000D03*
D30*
X37550000Y-79000000D03*
X33450000Y-79000000D03*
D33*
X33412000Y-88417500D03*
D34*
X33412000Y-90957500D03*
X33412000Y-93497500D03*
D37*
X33000000Y-76500000D03*
X34000000Y-76500000D03*
X35000000Y-76500000D03*
X36000000Y-76500000D03*
X37000000Y-76500000D03*
X38000000Y-76500000D03*
X32500000Y-59500000D03*
X33500000Y-59500000D03*
X34500000Y-59500000D03*
X40250000Y-104750000D03*
X40250000Y-95000000D03*
X36000000Y-86000000D03*
X37500000Y-86000000D03*
X49250000Y-72000000D03*
X49250000Y-85750000D03*
X49250000Y-71000000D03*
X49250000Y-86750000D03*
X49250000Y-70000000D03*
X49250000Y-65250000D03*
X49250000Y-63250000D03*
X49250000Y-64250000D03*
X49250000Y-73000000D03*
X35500000Y-104750000D03*
X34500000Y-105750000D03*
X35500000Y-106750000D03*
X34500000Y-106750000D03*
X36500000Y-106750000D03*
X35500000Y-105750000D03*
X33500000Y-105750000D03*
X32500000Y-104750000D03*
X33500000Y-106750000D03*
X32500000Y-106750000D03*
X32500000Y-105750000D03*
X36500000Y-104750000D03*
X33500000Y-104750000D03*
X34500000Y-104750000D03*
X36500000Y-105750000D03*
X49000000Y-103500000D03*
X46000000Y-103500000D03*
X47000000Y-102500000D03*
X49000000Y-99500000D03*
X48000000Y-100500000D03*
X47000000Y-100500000D03*
X49000000Y-98500000D03*
X49000000Y-102500000D03*
X49000000Y-100500000D03*
X47000000Y-101500000D03*
X46000000Y-98500000D03*
X46000000Y-99500000D03*
X48000000Y-98500000D03*
X47000000Y-99500000D03*
X46000000Y-101500000D03*
X48000000Y-101500000D03*
X48000000Y-103500000D03*
X48000000Y-102500000D03*
X49000000Y-101500000D03*
X46000000Y-102500000D03*
X47000000Y-98500000D03*
X47000000Y-103500000D03*
X46000000Y-100500000D03*
X48000000Y-99500000D03*
D38*
X38750000Y-77250000D02*
X35750000Y-77250000D01*
X39000000Y-77250000D02*
X38750000Y-77250000D01*
X38000000Y-76500000D02*
X38750000Y-76500000D01*
X38750000Y-76500000D02*
X39025000Y-76500000D01*
X38750000Y-77250000D02*
X38750000Y-76500000D01*
X39775000Y-77250000D02*
X39000000Y-77250000D01*
X39025000Y-76500000D02*
X39025000Y-77225000D01*
X39025000Y-77225000D02*
X39000000Y-77250000D01*
X39025000Y-76500000D02*
X39775000Y-77250000D01*
X35750000Y-77250000D02*
X35000000Y-76500000D01*
X40275000Y-103250000D02*
X40275000Y-102225000D01*
D39*
X33507750Y-68710000D02*
X33507750Y-64157750D01*
D40*
X42962500Y-99000000D02*
X41040000Y-99000000D01*
G04 #@! TA.AperFunction,Conductor*
G36*
X35767813Y-89820002D02*
G01*
X35786474Y-89834650D01*
X36748840Y-90748898D01*
X36751153Y-90751153D01*
X37963095Y-91963095D01*
X37997121Y-92025407D01*
X38000000Y-92052190D01*
X38000000Y-95750000D01*
X39374000Y-95750000D01*
X39442121Y-95770002D01*
X39488614Y-95823658D01*
X39500000Y-95876000D01*
X39500000Y-96182986D01*
X39479998Y-96251107D01*
X39478879Y-96252676D01*
X39476769Y-96254789D01*
X39387997Y-96398803D01*
X39334737Y-96559376D01*
X39324500Y-96659293D01*
X39324501Y-97255706D01*
X39334997Y-97356872D01*
X39388537Y-97517352D01*
X39440500Y-97601323D01*
X39477560Y-97661211D01*
X39476118Y-97662103D01*
X39499383Y-97719583D01*
X39500000Y-97732036D01*
X39500000Y-102475486D01*
X39479998Y-102543607D01*
X39478879Y-102545176D01*
X39476769Y-102547289D01*
X39387997Y-102691303D01*
X39334737Y-102851876D01*
X39324500Y-102951793D01*
X39324501Y-103548206D01*
X39334997Y-103649372D01*
X39388537Y-103809852D01*
X39392387Y-103816074D01*
X39394484Y-103820550D01*
X39405268Y-103890723D01*
X39376402Y-103955586D01*
X39317050Y-103994547D01*
X39280383Y-104000000D01*
X37876000Y-104000000D01*
X37807879Y-103979998D01*
X37761386Y-103926342D01*
X37750000Y-103874000D01*
X37750000Y-100500000D01*
X32126500Y-100500000D01*
X32058379Y-100479998D01*
X32011886Y-100426342D01*
X32000500Y-100374000D01*
X32000500Y-94704518D01*
X32020502Y-94636397D01*
X32074158Y-94589904D01*
X32144432Y-94579800D01*
X32206391Y-94607084D01*
X32261752Y-94652478D01*
X32261758Y-94652482D01*
X32265880Y-94655862D01*
X32270516Y-94658501D01*
X32270519Y-94658503D01*
X32351356Y-94704518D01*
X32472433Y-94773439D01*
X32695844Y-94854534D01*
X32701092Y-94855483D01*
X32925641Y-94896088D01*
X32925648Y-94896089D01*
X32929725Y-94896826D01*
X32947991Y-94897687D01*
X32953131Y-94897930D01*
X32953138Y-94897930D01*
X32954619Y-94898000D01*
X33821680Y-94898000D01*
X33904026Y-94891013D01*
X33993512Y-94883420D01*
X33993516Y-94883419D01*
X33998823Y-94882969D01*
X34003978Y-94881631D01*
X34003984Y-94881630D01*
X34223703Y-94824602D01*
X34223702Y-94824602D01*
X34228874Y-94823260D01*
X34345327Y-94770802D01*
X34440715Y-94727833D01*
X34440718Y-94727832D01*
X34445576Y-94725643D01*
X34642732Y-94592909D01*
X34814705Y-94428855D01*
X34956579Y-94238170D01*
X35064295Y-94026307D01*
X35134775Y-93799324D01*
X35166004Y-93563711D01*
X35157087Y-93326205D01*
X35108281Y-93093596D01*
X35020980Y-92872537D01*
X34897681Y-92669347D01*
X34741910Y-92489836D01*
X34737784Y-92486453D01*
X34737780Y-92486449D01*
X34562248Y-92342523D01*
X34558120Y-92339138D01*
X34553484Y-92336499D01*
X34553481Y-92336497D01*
X34431685Y-92267167D01*
X34351567Y-92221561D01*
X34128156Y-92140466D01*
X34122908Y-92139517D01*
X33898359Y-92098912D01*
X33898352Y-92098911D01*
X33894275Y-92098174D01*
X33876009Y-92097313D01*
X33870869Y-92097070D01*
X33870862Y-92097070D01*
X33869381Y-92097000D01*
X33002320Y-92097000D01*
X32919974Y-92103987D01*
X32830488Y-92111580D01*
X32830484Y-92111581D01*
X32825177Y-92112031D01*
X32820022Y-92113369D01*
X32820016Y-92113370D01*
X32708612Y-92142285D01*
X32595126Y-92171740D01*
X32497766Y-92215597D01*
X32383285Y-92267167D01*
X32383282Y-92267168D01*
X32378424Y-92269357D01*
X32374000Y-92272336D01*
X32373999Y-92272336D01*
X32196867Y-92391589D01*
X32129189Y-92413040D01*
X32060657Y-92394497D01*
X32013030Y-92341845D01*
X32000500Y-92287069D01*
X32000500Y-89944000D01*
X32020502Y-89875879D01*
X32074158Y-89829386D01*
X32126500Y-89818000D01*
X34129522Y-89817999D01*
X34709376Y-89817999D01*
X34712770Y-89817630D01*
X34712776Y-89817630D01*
X34762722Y-89812205D01*
X34762726Y-89812204D01*
X34770580Y-89811351D01*
X34777980Y-89808577D01*
X34777984Y-89808576D01*
X34779472Y-89808018D01*
X34783084Y-89807363D01*
X34785663Y-89806750D01*
X34785696Y-89806890D01*
X34823700Y-89800000D01*
X35699692Y-89800000D01*
X35767813Y-89820002D01*
G37*
G04 #@! TD.AperFunction*
G04 #@! TA.AperFunction,Conductor*
G36*
X44192121Y-70520002D02*
G01*
X44238614Y-70573658D01*
X44250000Y-70626000D01*
X44250000Y-77874000D01*
X44229998Y-77942121D01*
X44176342Y-77988614D01*
X44124000Y-78000000D01*
X41126000Y-78000000D01*
X41057879Y-77979998D01*
X41011386Y-77926342D01*
X41000000Y-77874000D01*
X41000000Y-75250000D01*
X32126500Y-75250000D01*
X32058379Y-75229998D01*
X32011886Y-75176342D01*
X32000500Y-75124000D01*
X32000500Y-72626000D01*
X32020502Y-72557879D01*
X32074158Y-72511386D01*
X32126500Y-72500000D01*
X39000000Y-72500000D01*
X39000000Y-70626000D01*
X39020002Y-70557879D01*
X39073658Y-70511386D01*
X39126000Y-70500000D01*
X44124000Y-70500000D01*
X44192121Y-70520002D01*
G37*
G04 #@! TD.AperFunction*
G04 #@! TA.AperFunction,Conductor*
G36*
X47006163Y-126250607D02*
G01*
X47182740Y-126267999D01*
X47206957Y-126272815D01*
X47370809Y-126322518D01*
X47393629Y-126331971D01*
X47544631Y-126412683D01*
X47565158Y-126426399D01*
X47697521Y-126535026D01*
X47714974Y-126552479D01*
X47823601Y-126684842D01*
X47837319Y-126705372D01*
X47918029Y-126856371D01*
X47927482Y-126879190D01*
X47977185Y-127043043D01*
X47982002Y-127067263D01*
X47998784Y-127237650D01*
X47998784Y-127262350D01*
X47982002Y-127432737D01*
X47977185Y-127456957D01*
X47927482Y-127620809D01*
X47918029Y-127643629D01*
X47837319Y-127794628D01*
X47823601Y-127815158D01*
X47714974Y-127947521D01*
X47697521Y-127964974D01*
X47565158Y-128073601D01*
X47544631Y-128087317D01*
X47452417Y-128136607D01*
X47393629Y-128168029D01*
X47370810Y-128177482D01*
X47206957Y-128227185D01*
X47182740Y-128232001D01*
X47006163Y-128249393D01*
X46993813Y-128250000D01*
X33250000Y-128250000D01*
X33250000Y-126250000D01*
X46993813Y-126250000D01*
X47006163Y-126250607D01*
G37*
G04 #@! TD.AperFunction*
G04 #@! TA.AperFunction,Conductor*
G36*
X42931984Y-139082826D02*
G01*
X42980749Y-139134425D01*
X42994500Y-139191664D01*
X42994500Y-142736915D01*
X42974498Y-142805036D01*
X42920842Y-142851529D01*
X42850568Y-142861633D01*
X42826440Y-142855688D01*
X42659357Y-142796520D01*
X42649386Y-142793886D01*
X42537837Y-142774016D01*
X42524540Y-142775476D01*
X42520000Y-142790033D01*
X42520000Y-146211171D01*
X42523918Y-146224515D01*
X42538194Y-146226502D01*
X42613700Y-146214947D01*
X42623728Y-146212558D01*
X42848348Y-146139141D01*
X42857852Y-146135146D01*
X43045114Y-146037663D01*
X43114774Y-146023950D01*
X43180789Y-146050075D01*
X43190852Y-146058971D01*
X43192635Y-146061029D01*
X43196028Y-146063969D01*
X43294562Y-146149350D01*
X43294565Y-146149352D01*
X43301374Y-146155252D01*
X43432252Y-146215022D01*
X43500373Y-146235024D01*
X43504813Y-146235662D01*
X43504816Y-146235663D01*
X43638342Y-146254861D01*
X43638345Y-146254861D01*
X43642788Y-146255500D01*
X46829000Y-146255500D01*
X46868799Y-146251221D01*
X46882269Y-146250499D01*
X47007376Y-146250499D01*
X47010770Y-146250130D01*
X47010776Y-146250130D01*
X47060722Y-146244705D01*
X47060726Y-146244704D01*
X47068580Y-146243851D01*
X47202824Y-146193526D01*
X47210003Y-146188146D01*
X47210006Y-146188144D01*
X47250000Y-146158170D01*
X47250000Y-147749500D01*
X34750000Y-147749500D01*
X34750000Y-146190315D01*
X34777732Y-146184255D01*
X34844275Y-146209002D01*
X34874858Y-146241819D01*
X34884854Y-146257373D01*
X34887803Y-146260776D01*
X34887805Y-146260779D01*
X34894557Y-146268571D01*
X34931347Y-146311029D01*
X34934740Y-146313969D01*
X35033274Y-146399350D01*
X35033277Y-146399352D01*
X35040086Y-146405252D01*
X35170964Y-146465022D01*
X35239085Y-146485024D01*
X35243525Y-146485662D01*
X35243528Y-146485663D01*
X35377054Y-146504861D01*
X35377057Y-146504861D01*
X35381500Y-146505500D01*
X38111317Y-146505500D01*
X38128723Y-146505107D01*
X38133456Y-146505000D01*
X38133461Y-146505000D01*
X38134162Y-146504984D01*
X38145546Y-146504469D01*
X38168373Y-146502918D01*
X38308356Y-146469658D01*
X38312550Y-146468002D01*
X38370200Y-146445238D01*
X38370201Y-146445237D01*
X38374391Y-146443583D01*
X38499334Y-146372232D01*
X38579955Y-146288476D01*
X38641606Y-146253269D01*
X38677548Y-146250040D01*
X38679225Y-146250131D01*
X38682623Y-146250500D01*
X39730000Y-146250500D01*
X40777376Y-146250499D01*
X40780770Y-146250130D01*
X40780776Y-146250130D01*
X40830722Y-146244705D01*
X40830726Y-146244704D01*
X40838580Y-146243851D01*
X40972824Y-146193526D01*
X40980003Y-146188146D01*
X40980006Y-146188144D01*
X41080365Y-146112928D01*
X41087546Y-146107546D01*
X41092928Y-146100365D01*
X41168142Y-146000008D01*
X41168142Y-146000007D01*
X41173526Y-145992824D01*
X41176500Y-145984890D01*
X41226578Y-145934923D01*
X41295968Y-145919908D01*
X41364933Y-145946695D01*
X41433013Y-146000462D01*
X41441591Y-146006161D01*
X41648482Y-146120370D01*
X41657881Y-146124595D01*
X41880643Y-146203480D01*
X41890614Y-146206114D01*
X42002163Y-146225984D01*
X42015460Y-146224524D01*
X42020000Y-146209967D01*
X42020000Y-142788829D01*
X42016082Y-142775485D01*
X42001806Y-142773498D01*
X41926300Y-142785053D01*
X41916272Y-142787442D01*
X41691652Y-142860859D01*
X41682143Y-142864856D01*
X41472535Y-142973971D01*
X41463812Y-142979464D01*
X41362630Y-143055433D01*
X41296146Y-143080338D01*
X41226750Y-143065345D01*
X41176568Y-143015291D01*
X41173526Y-143007176D01*
X41087546Y-142892454D01*
X41080365Y-142887072D01*
X40980006Y-142811856D01*
X40980003Y-142811854D01*
X40972824Y-142806474D01*
X40870500Y-142768115D01*
X40845975Y-142758921D01*
X40845973Y-142758921D01*
X40838580Y-142756149D01*
X40830730Y-142755296D01*
X40830729Y-142755296D01*
X40780774Y-142749869D01*
X40780773Y-142749869D01*
X40777377Y-142749500D01*
X40732699Y-142749500D01*
X39153438Y-142749501D01*
X39085317Y-142729499D01*
X39038824Y-142675843D01*
X39027441Y-142622683D01*
X39046741Y-139650347D01*
X39049512Y-139223643D01*
X39069956Y-139155653D01*
X39123912Y-139109510D01*
X39194250Y-139099863D01*
X39249570Y-139122525D01*
X39290659Y-139152378D01*
X39596970Y-139326386D01*
X39600205Y-139327773D01*
X39600210Y-139327775D01*
X39917536Y-139463781D01*
X39917540Y-139463782D01*
X39920768Y-139465166D01*
X39965287Y-139478607D01*
X40254642Y-139565969D01*
X40254647Y-139565970D01*
X40258018Y-139566988D01*
X40407608Y-139594443D01*
X40601042Y-139629945D01*
X40601049Y-139629946D01*
X40604515Y-139630582D01*
X40794855Y-139643892D01*
X40887168Y-139650347D01*
X40887172Y-139650347D01*
X40889358Y-139650500D01*
X41088788Y-139650500D01*
X41090517Y-139650403D01*
X41090529Y-139650403D01*
X41277765Y-139639935D01*
X41351736Y-139635799D01*
X41455307Y-139618281D01*
X41695619Y-139577636D01*
X41695624Y-139577635D01*
X41699088Y-139577049D01*
X42037727Y-139479946D01*
X42222046Y-139403975D01*
X42360186Y-139347038D01*
X42360193Y-139347034D01*
X42363431Y-139345700D01*
X42585452Y-139223643D01*
X42669057Y-139177681D01*
X42669064Y-139177676D01*
X42672141Y-139175985D01*
X42679173Y-139171025D01*
X42766375Y-139109510D01*
X42795870Y-139088704D01*
X42863064Y-139065781D01*
X42931984Y-139082826D01*
G37*
G04 #@! TD.AperFunction*
G04 #@! TA.AperFunction,Conductor*
G36*
X43034519Y-118625502D02*
G01*
X43080123Y-118677254D01*
X43085068Y-118687622D01*
X43087565Y-118691369D01*
X43087568Y-118691374D01*
X43099922Y-118709910D01*
X43124441Y-118746701D01*
X43127439Y-118750046D01*
X43127440Y-118750048D01*
X43129365Y-118752196D01*
X43129782Y-118753070D01*
X43130201Y-118753611D01*
X43130083Y-118753702D01*
X43159929Y-118816276D01*
X43150998Y-118886708D01*
X43140110Y-118906559D01*
X43053316Y-119035721D01*
X43047935Y-119045510D01*
X42962758Y-119239548D01*
X42959191Y-119250146D01*
X42928644Y-119377384D01*
X42929349Y-119391470D01*
X42938228Y-119395000D01*
X47164000Y-119395000D01*
X47232121Y-119415002D01*
X47278614Y-119468658D01*
X47290000Y-119521000D01*
X47290000Y-120879467D01*
X47292119Y-120938804D01*
X47290000Y-120948546D01*
X47290000Y-123419467D01*
X47292119Y-123478804D01*
X47290000Y-123488546D01*
X47290000Y-124849000D01*
X47269998Y-124917121D01*
X47216342Y-124963614D01*
X47164000Y-124975000D01*
X42939165Y-124975000D01*
X42925183Y-124979105D01*
X42923600Y-124989308D01*
X42924025Y-124991305D01*
X42986335Y-125193849D01*
X42990556Y-125204193D01*
X43087753Y-125392507D01*
X43093738Y-125401938D01*
X43201054Y-125541796D01*
X43226654Y-125608017D01*
X43212389Y-125677566D01*
X43162788Y-125728361D01*
X43101091Y-125744500D01*
X39212803Y-125744500D01*
X39144682Y-125724498D01*
X39098189Y-125670842D01*
X39094827Y-125662744D01*
X39064744Y-125582473D01*
X38980786Y-125465629D01*
X38931574Y-125414456D01*
X38928018Y-125411684D01*
X38916495Y-125402701D01*
X38875067Y-125345045D01*
X38871386Y-125274144D01*
X38878587Y-125252681D01*
X38932242Y-125130453D01*
X38935809Y-125119854D01*
X38966356Y-124992616D01*
X38965651Y-124978530D01*
X38956772Y-124975000D01*
X34731000Y-124975000D01*
X34662879Y-124954998D01*
X34616386Y-124901342D01*
X34605000Y-124849000D01*
X34605000Y-124456885D01*
X35105000Y-124456885D01*
X35109475Y-124472124D01*
X35110865Y-124473329D01*
X35118548Y-124475000D01*
X37126885Y-124475000D01*
X37142124Y-124470525D01*
X37143329Y-124469135D01*
X37145000Y-124461452D01*
X37145000Y-124456885D01*
X37645000Y-124456885D01*
X37649475Y-124472124D01*
X37650865Y-124473329D01*
X37658548Y-124475000D01*
X38955835Y-124475000D01*
X38969817Y-124470895D01*
X38971400Y-124460692D01*
X38970975Y-124458695D01*
X38908665Y-124256151D01*
X38904442Y-124245801D01*
X38891172Y-124220091D01*
X38877703Y-124150383D01*
X38904059Y-124084460D01*
X38921245Y-124066545D01*
X38923557Y-124064568D01*
X38953645Y-124038836D01*
X38966473Y-124024225D01*
X39042617Y-123937492D01*
X39048566Y-123930716D01*
X39109185Y-123800229D01*
X39118042Y-123770774D01*
X39128332Y-123736555D01*
X39128333Y-123736548D01*
X39129629Y-123732240D01*
X39135479Y-123693350D01*
X39150360Y-123594416D01*
X39150360Y-123594411D01*
X39151030Y-123589959D01*
X39152741Y-123326430D01*
X39138635Y-123204518D01*
X39124383Y-123145484D01*
X39122038Y-123139226D01*
X39084238Y-123038370D01*
X39084237Y-123038368D01*
X39081309Y-123030556D01*
X38997349Y-122913714D01*
X38948136Y-122862542D01*
X38944597Y-122859783D01*
X38944591Y-122859778D01*
X38924615Y-122844207D01*
X38883186Y-122786552D01*
X38879505Y-122715651D01*
X38886706Y-122694186D01*
X38932242Y-122590453D01*
X38935809Y-122579854D01*
X38966356Y-122452616D01*
X38966190Y-122449308D01*
X42923600Y-122449308D01*
X42924025Y-122451305D01*
X42986335Y-122653849D01*
X42990556Y-122664193D01*
X43087753Y-122852507D01*
X43093738Y-122861938D01*
X43222750Y-123030071D01*
X43230306Y-123038287D01*
X43387050Y-123180912D01*
X43395947Y-123187665D01*
X43575466Y-123300279D01*
X43585426Y-123305354D01*
X43664883Y-123337295D01*
X43720628Y-123381261D01*
X43743753Y-123448386D01*
X43726916Y-123517358D01*
X43672132Y-123567928D01*
X43516187Y-123642311D01*
X43506574Y-123647996D01*
X43334482Y-123771656D01*
X43326016Y-123778964D01*
X43178544Y-123931142D01*
X43171514Y-123939824D01*
X43053316Y-124115721D01*
X43047935Y-124125510D01*
X42962758Y-124319548D01*
X42959191Y-124330146D01*
X42928644Y-124457384D01*
X42929349Y-124471470D01*
X42938228Y-124475000D01*
X44231885Y-124475000D01*
X44247124Y-124470525D01*
X44248329Y-124469135D01*
X44250000Y-124461452D01*
X44250000Y-124456885D01*
X44750000Y-124456885D01*
X44754475Y-124472124D01*
X44755865Y-124473329D01*
X44763548Y-124475000D01*
X46771885Y-124475000D01*
X46787124Y-124470525D01*
X46788329Y-124469135D01*
X46790000Y-124461452D01*
X46790000Y-123490533D01*
X46787881Y-123431196D01*
X46790000Y-123421454D01*
X46790000Y-122453115D01*
X46785525Y-122437876D01*
X46784135Y-122436671D01*
X46776452Y-122435000D01*
X44768115Y-122435000D01*
X44752876Y-122439475D01*
X44751671Y-122440865D01*
X44750000Y-122448548D01*
X44750000Y-123419467D01*
X44752119Y-123478804D01*
X44750000Y-123488546D01*
X44750000Y-124456885D01*
X44250000Y-124456885D01*
X44250000Y-123490533D01*
X44247881Y-123431196D01*
X44250000Y-123421454D01*
X44250000Y-122453115D01*
X44245525Y-122437876D01*
X44244135Y-122436671D01*
X44236452Y-122435000D01*
X42939165Y-122435000D01*
X42925183Y-122439105D01*
X42923600Y-122449308D01*
X38966190Y-122449308D01*
X38965651Y-122438530D01*
X38956772Y-122435000D01*
X37663115Y-122435000D01*
X37647876Y-122439475D01*
X37646671Y-122440865D01*
X37645000Y-122448548D01*
X37645000Y-123419467D01*
X37647119Y-123478804D01*
X37645000Y-123488546D01*
X37645000Y-124456885D01*
X37145000Y-124456885D01*
X37145000Y-123490533D01*
X37142881Y-123431196D01*
X37145000Y-123421454D01*
X37145000Y-122453115D01*
X37140525Y-122437876D01*
X37139135Y-122436671D01*
X37131452Y-122435000D01*
X35123115Y-122435000D01*
X35107876Y-122439475D01*
X35106671Y-122440865D01*
X35105000Y-122448548D01*
X35105000Y-123419467D01*
X35107119Y-123478804D01*
X35105000Y-123488546D01*
X35105000Y-124456885D01*
X34605000Y-124456885D01*
X34605000Y-123490533D01*
X34602881Y-123431196D01*
X34605000Y-123421454D01*
X34605000Y-121916885D01*
X35105000Y-121916885D01*
X35109475Y-121932124D01*
X35110865Y-121933329D01*
X35118548Y-121935000D01*
X37126885Y-121935000D01*
X37142124Y-121930525D01*
X37143329Y-121929135D01*
X37145000Y-121921452D01*
X37145000Y-121916885D01*
X37645000Y-121916885D01*
X37649475Y-121932124D01*
X37650865Y-121933329D01*
X37658548Y-121935000D01*
X38955835Y-121935000D01*
X38969817Y-121930895D01*
X38971400Y-121920692D01*
X38970975Y-121918695D01*
X38908665Y-121716151D01*
X38904442Y-121705803D01*
X38899893Y-121696989D01*
X38886423Y-121627282D01*
X38912777Y-121561359D01*
X38929959Y-121543446D01*
X38970072Y-121509141D01*
X39064993Y-121401021D01*
X39125612Y-121270534D01*
X39135105Y-121238964D01*
X39144759Y-121206860D01*
X39144760Y-121206853D01*
X39146056Y-121202545D01*
X39153456Y-121153350D01*
X39166787Y-121064721D01*
X39166787Y-121064716D01*
X39167457Y-121060264D01*
X39169312Y-120774522D01*
X39155206Y-120652610D01*
X39140954Y-120593576D01*
X39139611Y-120589992D01*
X39100809Y-120486462D01*
X39100808Y-120486460D01*
X39097880Y-120478648D01*
X39013920Y-120361806D01*
X38964707Y-120310634D01*
X38932736Y-120285713D01*
X38891306Y-120228058D01*
X38887623Y-120157157D01*
X38894824Y-120135692D01*
X38932244Y-120050447D01*
X38935809Y-120039854D01*
X38966356Y-119912616D01*
X38966190Y-119909308D01*
X42923600Y-119909308D01*
X42924025Y-119911305D01*
X42986335Y-120113849D01*
X42990556Y-120124193D01*
X43087753Y-120312507D01*
X43093738Y-120321938D01*
X43222750Y-120490071D01*
X43230306Y-120498287D01*
X43387050Y-120640912D01*
X43395947Y-120647665D01*
X43575466Y-120760279D01*
X43585426Y-120765354D01*
X43664883Y-120797295D01*
X43720628Y-120841261D01*
X43743753Y-120908386D01*
X43726916Y-120977358D01*
X43672132Y-121027928D01*
X43516187Y-121102311D01*
X43506574Y-121107996D01*
X43334482Y-121231656D01*
X43326016Y-121238964D01*
X43178544Y-121391142D01*
X43171514Y-121399824D01*
X43053316Y-121575721D01*
X43047935Y-121585510D01*
X42962758Y-121779548D01*
X42959191Y-121790146D01*
X42928644Y-121917384D01*
X42929349Y-121931470D01*
X42938228Y-121935000D01*
X44231885Y-121935000D01*
X44247124Y-121930525D01*
X44248329Y-121929135D01*
X44250000Y-121921452D01*
X44250000Y-121916885D01*
X44750000Y-121916885D01*
X44754475Y-121932124D01*
X44755865Y-121933329D01*
X44763548Y-121935000D01*
X46771885Y-121935000D01*
X46787124Y-121930525D01*
X46788329Y-121929135D01*
X46790000Y-121921452D01*
X46790000Y-120950533D01*
X46787881Y-120891196D01*
X46790000Y-120881454D01*
X46790000Y-119913115D01*
X46785525Y-119897876D01*
X46784135Y-119896671D01*
X46776452Y-119895000D01*
X44768115Y-119895000D01*
X44752876Y-119899475D01*
X44751671Y-119900865D01*
X44750000Y-119908548D01*
X44750000Y-120879467D01*
X44752119Y-120938804D01*
X44750000Y-120948546D01*
X44750000Y-121916885D01*
X44250000Y-121916885D01*
X44250000Y-120950533D01*
X44247881Y-120891196D01*
X44250000Y-120881454D01*
X44250000Y-119913115D01*
X44245525Y-119897876D01*
X44244135Y-119896671D01*
X44236452Y-119895000D01*
X42939165Y-119895000D01*
X42925183Y-119899105D01*
X42923600Y-119909308D01*
X38966190Y-119909308D01*
X38965651Y-119898530D01*
X38956772Y-119895000D01*
X37663115Y-119895000D01*
X37647876Y-119899475D01*
X37646671Y-119900865D01*
X37645000Y-119908548D01*
X37645000Y-120879467D01*
X37647119Y-120938804D01*
X37645000Y-120948546D01*
X37645000Y-121916885D01*
X37145000Y-121916885D01*
X37145000Y-120950533D01*
X37142881Y-120891196D01*
X37145000Y-120881454D01*
X37145000Y-119913115D01*
X37140525Y-119897876D01*
X37139135Y-119896671D01*
X37131452Y-119895000D01*
X35123115Y-119895000D01*
X35107876Y-119899475D01*
X35106671Y-119900865D01*
X35105000Y-119908548D01*
X35105000Y-120879467D01*
X35107119Y-120938804D01*
X35105000Y-120948546D01*
X35105000Y-121916885D01*
X34605000Y-121916885D01*
X34605000Y-120950533D01*
X34602881Y-120891196D01*
X34605000Y-120881454D01*
X34605000Y-119521000D01*
X34625002Y-119452879D01*
X34678658Y-119406386D01*
X34731000Y-119395000D01*
X38955835Y-119395000D01*
X38969817Y-119390895D01*
X38971400Y-119380692D01*
X38970975Y-119378695D01*
X38908665Y-119176151D01*
X38904444Y-119165807D01*
X38807247Y-118977493D01*
X38801258Y-118968056D01*
X38678600Y-118808203D01*
X38653000Y-118741983D01*
X38667265Y-118672434D01*
X38716867Y-118621639D01*
X38778563Y-118605500D01*
X42966398Y-118605500D01*
X43034519Y-118625502D01*
G37*
G04 #@! TD.AperFunction*
G04 #@! TA.AperFunction,Conductor*
G36*
X42277542Y-99821136D02*
G01*
X42278245Y-99820239D01*
X42283321Y-99824219D01*
X42283735Y-99824440D01*
X42289592Y-99830297D01*
X42434617Y-99918127D01*
X42441864Y-99920398D01*
X42441866Y-99920399D01*
X42507106Y-99940844D01*
X42596406Y-99968829D01*
X42669007Y-99975500D01*
X42676325Y-99975500D01*
X42868500Y-99975499D01*
X42936620Y-99995501D01*
X42983113Y-100049156D01*
X42994500Y-100101499D01*
X42994500Y-108209779D01*
X43000262Y-108285887D01*
X43005974Y-108323393D01*
X43023127Y-108397757D01*
X43085068Y-108527622D01*
X43087565Y-108531369D01*
X43087568Y-108531374D01*
X43112585Y-108568911D01*
X43124441Y-108586701D01*
X43127441Y-108590049D01*
X43127445Y-108590054D01*
X43129020Y-108591812D01*
X43129361Y-108592527D01*
X43130201Y-108593611D01*
X43129965Y-108593794D01*
X43159585Y-108655892D01*
X43150652Y-108726325D01*
X43139765Y-108746173D01*
X43052885Y-108875465D01*
X43052880Y-108875474D01*
X43049750Y-108880132D01*
X42960026Y-109084529D01*
X42958718Y-109089977D01*
X42958716Y-109089983D01*
X42909225Y-109296128D01*
X42907915Y-109301585D01*
X42895066Y-109524438D01*
X42921883Y-109746044D01*
X42987519Y-109959400D01*
X43089901Y-110157759D01*
X43093310Y-110162201D01*
X43093312Y-110162205D01*
X43176808Y-110271019D01*
X43225790Y-110334854D01*
X43390893Y-110485086D01*
X43579990Y-110603707D01*
X43585200Y-110605801D01*
X43585207Y-110605805D01*
X43663640Y-110637335D01*
X43719385Y-110681301D01*
X43742510Y-110748426D01*
X43725673Y-110817398D01*
X43670888Y-110867968D01*
X43510871Y-110944292D01*
X43329595Y-111074552D01*
X43174251Y-111234854D01*
X43049750Y-111420132D01*
X43047491Y-111425278D01*
X43047490Y-111425280D01*
X43012691Y-111504555D01*
X42960026Y-111624529D01*
X42958718Y-111629977D01*
X42958716Y-111629983D01*
X42909225Y-111836128D01*
X42907915Y-111841585D01*
X42895066Y-112064438D01*
X42921883Y-112286044D01*
X42987519Y-112499400D01*
X42990095Y-112504390D01*
X42990095Y-112504391D01*
X43017286Y-112557071D01*
X43089901Y-112697759D01*
X43093310Y-112702201D01*
X43093312Y-112702205D01*
X43185944Y-112822926D01*
X43225790Y-112874854D01*
X43390893Y-113025086D01*
X43579990Y-113143707D01*
X43585200Y-113145801D01*
X43585207Y-113145805D01*
X43663640Y-113177335D01*
X43719385Y-113221301D01*
X43742510Y-113288426D01*
X43725673Y-113357398D01*
X43670888Y-113407968D01*
X43510871Y-113484292D01*
X43329595Y-113614552D01*
X43174251Y-113774854D01*
X43049750Y-113960132D01*
X42960026Y-114164529D01*
X42958718Y-114169977D01*
X42958716Y-114169983D01*
X42909225Y-114376128D01*
X42907915Y-114381585D01*
X42895066Y-114604438D01*
X42921883Y-114826044D01*
X42987519Y-115039400D01*
X43089901Y-115237759D01*
X43093319Y-115242214D01*
X43093320Y-115242215D01*
X43134941Y-115296457D01*
X43160541Y-115362677D01*
X43146276Y-115432226D01*
X43130202Y-115455673D01*
X43100650Y-115489777D01*
X43100648Y-115489780D01*
X43094748Y-115496589D01*
X43091004Y-115504786D01*
X43091004Y-115504787D01*
X43083672Y-115520842D01*
X43037179Y-115574498D01*
X42969058Y-115594500D01*
X38786358Y-115594500D01*
X38718237Y-115574498D01*
X38671744Y-115520842D01*
X38661640Y-115450568D01*
X38695874Y-115380815D01*
X38716846Y-115359174D01*
X38716848Y-115359171D01*
X38720749Y-115355146D01*
X38845250Y-115169868D01*
X38934974Y-114965471D01*
X38936282Y-114960023D01*
X38936284Y-114960017D01*
X38985775Y-114753872D01*
X38985775Y-114753871D01*
X38987085Y-114748415D01*
X38999934Y-114525562D01*
X38973117Y-114303956D01*
X38913639Y-114110617D01*
X38912727Y-114039627D01*
X38950340Y-113979413D01*
X38959214Y-113972214D01*
X38961574Y-113970471D01*
X38965380Y-113968060D01*
X38968803Y-113965133D01*
X38968808Y-113965129D01*
X38995174Y-113942580D01*
X39019336Y-113921917D01*
X39022300Y-113918541D01*
X39022304Y-113918537D01*
X39108320Y-113820560D01*
X39114264Y-113813790D01*
X39174882Y-113683303D01*
X39195325Y-113615315D01*
X39216724Y-113473039D01*
X39219025Y-113118799D01*
X39204918Y-112996882D01*
X39190666Y-112937850D01*
X39167056Y-112874854D01*
X39150522Y-112830741D01*
X39147593Y-112822926D01*
X39142724Y-112816151D01*
X39142723Y-112816148D01*
X39066265Y-112709747D01*
X39063633Y-112706084D01*
X39014420Y-112654912D01*
X38957498Y-112610541D01*
X38916068Y-112552886D01*
X38912387Y-112481985D01*
X38919585Y-112460527D01*
X38934974Y-112425471D01*
X38968448Y-112286044D01*
X38985775Y-112213872D01*
X38985775Y-112213871D01*
X38987085Y-112208415D01*
X38999934Y-111985562D01*
X38973117Y-111763956D01*
X38971469Y-111758598D01*
X38971467Y-111758590D01*
X38920048Y-111591448D01*
X38919136Y-111520458D01*
X38956749Y-111460243D01*
X38973043Y-111447964D01*
X38977982Y-111444835D01*
X38981780Y-111442429D01*
X38985198Y-111439506D01*
X38985202Y-111439503D01*
X39032315Y-111399212D01*
X39032319Y-111399208D01*
X39035737Y-111396285D01*
X39038701Y-111392909D01*
X39038705Y-111392905D01*
X39124723Y-111294927D01*
X39124725Y-111294924D01*
X39130666Y-111288157D01*
X39134462Y-111279986D01*
X39189388Y-111161749D01*
X39189389Y-111161745D01*
X39191283Y-111157669D01*
X39211726Y-111089680D01*
X39233125Y-110947404D01*
X39235595Y-110566892D01*
X39235155Y-110563085D01*
X39221930Y-110448788D01*
X39221929Y-110448780D01*
X39221489Y-110444981D01*
X39207237Y-110385947D01*
X39205894Y-110382363D01*
X39167092Y-110278833D01*
X39167091Y-110278831D01*
X39164163Y-110271019D01*
X39080203Y-110154177D01*
X39030990Y-110103005D01*
X38965617Y-110052048D01*
X38924188Y-109994395D01*
X38920505Y-109923494D01*
X38927706Y-109902028D01*
X38932719Y-109890608D01*
X38934974Y-109885471D01*
X38967161Y-109751406D01*
X38985775Y-109673872D01*
X38985775Y-109673871D01*
X38987085Y-109668415D01*
X38999934Y-109445562D01*
X38973117Y-109223956D01*
X38926563Y-109072628D01*
X38925651Y-109001637D01*
X38963264Y-108941423D01*
X38979564Y-108929140D01*
X38994373Y-108919758D01*
X38998176Y-108917349D01*
X39001594Y-108914426D01*
X39001598Y-108914423D01*
X39048708Y-108874134D01*
X39052132Y-108871206D01*
X39147059Y-108763082D01*
X39164135Y-108726325D01*
X39205784Y-108636669D01*
X39207677Y-108632594D01*
X39228121Y-108564604D01*
X39249521Y-108422326D01*
X39255486Y-107503745D01*
X39255494Y-107502316D01*
X39255497Y-107501498D01*
X39255500Y-107499644D01*
X39255500Y-105876000D01*
X39243948Y-105768551D01*
X39232562Y-105716209D01*
X39198433Y-105613667D01*
X39120646Y-105492627D01*
X39074153Y-105438971D01*
X39062955Y-105429267D01*
X38972226Y-105350650D01*
X38972223Y-105350648D01*
X38965414Y-105344748D01*
X38834536Y-105284978D01*
X38766415Y-105264976D01*
X38761975Y-105264338D01*
X38761972Y-105264337D01*
X38628446Y-105245139D01*
X38628443Y-105245139D01*
X38624000Y-105244500D01*
X37631500Y-105244500D01*
X37563379Y-105224498D01*
X37516886Y-105170842D01*
X37505500Y-105118500D01*
X37505500Y-104586368D01*
X37525502Y-104518247D01*
X37579158Y-104471754D01*
X37649432Y-104461650D01*
X37666990Y-104465470D01*
X37733585Y-104485024D01*
X37738025Y-104485662D01*
X37738028Y-104485663D01*
X37871554Y-104504861D01*
X37871557Y-104504861D01*
X37876000Y-104505500D01*
X39280383Y-104505500D01*
X39354742Y-104500001D01*
X39391409Y-104494548D01*
X39393663Y-104494040D01*
X39393671Y-104494039D01*
X39457498Y-104479668D01*
X39457500Y-104479667D01*
X39464159Y-104478168D01*
X39594452Y-104417132D01*
X39653804Y-104378171D01*
X39698627Y-104338565D01*
X39754872Y-104288867D01*
X39754874Y-104288864D01*
X39761622Y-104282902D01*
X39766416Y-104275280D01*
X39766421Y-104275275D01*
X39769577Y-104270257D01*
X39822780Y-104223246D01*
X39892952Y-104212462D01*
X39902644Y-104214147D01*
X39908819Y-104215471D01*
X39998625Y-104224672D01*
X40005041Y-104225000D01*
X40006885Y-104225000D01*
X40022124Y-104220525D01*
X40023329Y-104219135D01*
X40025000Y-104211452D01*
X40025000Y-104206885D01*
X40525000Y-104206885D01*
X40529475Y-104222124D01*
X40530865Y-104223329D01*
X40538548Y-104225000D01*
X40544909Y-104225000D01*
X40551428Y-104224663D01*
X40642413Y-104215222D01*
X40655808Y-104212329D01*
X40802695Y-104163323D01*
X40815859Y-104157157D01*
X40947178Y-104075895D01*
X40958567Y-104066868D01*
X41067666Y-103957579D01*
X41076678Y-103946168D01*
X41157707Y-103814714D01*
X41163851Y-103801536D01*
X41212605Y-103654548D01*
X41215471Y-103641183D01*
X41224672Y-103551375D01*
X41225000Y-103544959D01*
X41225000Y-103518115D01*
X41220525Y-103502876D01*
X41219135Y-103501671D01*
X41211452Y-103500000D01*
X40543115Y-103500000D01*
X40527876Y-103504475D01*
X40526671Y-103505865D01*
X40525000Y-103513548D01*
X40525000Y-104206885D01*
X40025000Y-104206885D01*
X40025000Y-103126000D01*
X40045002Y-103057879D01*
X40098658Y-103011386D01*
X40151000Y-103000000D01*
X41206885Y-103000000D01*
X41222124Y-102995525D01*
X41227843Y-102988925D01*
X41256247Y-102936906D01*
X41318559Y-102902880D01*
X41345344Y-102900000D01*
X41943915Y-102900000D01*
X41950729Y-102899631D01*
X42000621Y-102894211D01*
X42015867Y-102890586D01*
X42134177Y-102846233D01*
X42149763Y-102837701D01*
X42250009Y-102762570D01*
X42262570Y-102750009D01*
X42337701Y-102649763D01*
X42346233Y-102634177D01*
X42390586Y-102515867D01*
X42394211Y-102500621D01*
X42399631Y-102450729D01*
X42400000Y-102443915D01*
X42400000Y-101768115D01*
X42395525Y-101752876D01*
X42394135Y-101751671D01*
X42386452Y-101750000D01*
X40876000Y-101750000D01*
X40807879Y-101729998D01*
X40761386Y-101676342D01*
X40750000Y-101624000D01*
X40750000Y-101376000D01*
X40770002Y-101307879D01*
X40823658Y-101261386D01*
X40876000Y-101250000D01*
X42381885Y-101250000D01*
X42397124Y-101245525D01*
X42398329Y-101244135D01*
X42400000Y-101236452D01*
X42400000Y-100556085D01*
X42399631Y-100549271D01*
X42394211Y-100499379D01*
X42390586Y-100484133D01*
X42346233Y-100365823D01*
X42337701Y-100350237D01*
X42262570Y-100249991D01*
X42250009Y-100237430D01*
X42149763Y-100162299D01*
X42134179Y-100153768D01*
X42064948Y-100127814D01*
X42008184Y-100085172D01*
X41983484Y-100018611D01*
X41998691Y-99949262D01*
X42020238Y-99920581D01*
X42066529Y-99874451D01*
X42070190Y-99870803D01*
X42092318Y-99840008D01*
X42148310Y-99796362D01*
X42219014Y-99789915D01*
X42277542Y-99821136D01*
G37*
G04 #@! TD.AperFunction*
G04 #@! TA.AperFunction,Conductor*
G36*
X49941621Y-40770502D02*
G01*
X49988114Y-40824158D01*
X49999500Y-40876500D01*
X49999500Y-66475765D01*
X49979498Y-66543886D01*
X49925842Y-66590379D01*
X49860656Y-66601109D01*
X49853030Y-66600328D01*
X49846617Y-66600000D01*
X49743115Y-66600000D01*
X49727876Y-66604475D01*
X49726671Y-66605865D01*
X49725000Y-66613548D01*
X49725000Y-69381884D01*
X49729475Y-69397123D01*
X49730865Y-69398328D01*
X49738548Y-69399999D01*
X49846567Y-69399999D01*
X49853078Y-69399662D01*
X49860502Y-69398892D01*
X49930323Y-69411760D01*
X49982103Y-69460333D01*
X49999500Y-69524220D01*
X49999500Y-81975765D01*
X49979498Y-82043886D01*
X49925842Y-82090379D01*
X49860656Y-82101109D01*
X49853030Y-82100328D01*
X49846617Y-82100000D01*
X49743115Y-82100000D01*
X49727876Y-82104475D01*
X49726671Y-82105865D01*
X49725000Y-82113548D01*
X49725000Y-84881884D01*
X49729475Y-84897123D01*
X49730865Y-84898328D01*
X49738548Y-84899999D01*
X49846567Y-84899999D01*
X49853078Y-84899662D01*
X49860502Y-84898892D01*
X49930323Y-84911760D01*
X49982103Y-84960333D01*
X49999500Y-85024220D01*
X49999500Y-91618500D01*
X49979498Y-91686621D01*
X49925842Y-91733114D01*
X49873500Y-91744500D01*
X44637874Y-91744500D01*
X44569753Y-91724498D01*
X44523260Y-91670842D01*
X44513156Y-91600568D01*
X44525557Y-91561395D01*
X44561412Y-91490874D01*
X44565412Y-91481023D01*
X44632704Y-91264307D01*
X44634986Y-91253929D01*
X44638759Y-91225458D01*
X44636562Y-91211293D01*
X44623378Y-91207500D01*
X41202053Y-91207500D01*
X41188522Y-91211473D01*
X41186997Y-91222080D01*
X41215103Y-91356032D01*
X41218163Y-91366229D01*
X41301507Y-91577272D01*
X41306523Y-91587378D01*
X41318892Y-91657289D01*
X41291501Y-91722789D01*
X41233046Y-91763082D01*
X41220442Y-91766517D01*
X41219509Y-91766720D01*
X41219506Y-91766721D01*
X41216209Y-91767438D01*
X41113667Y-91801567D01*
X40992627Y-91879354D01*
X40938971Y-91925847D01*
X40936031Y-91929240D01*
X40850650Y-92027774D01*
X40850648Y-92027777D01*
X40844748Y-92034586D01*
X40841004Y-92042783D01*
X40841004Y-92042784D01*
X40835930Y-92053895D01*
X40784978Y-92165464D01*
X40764976Y-92233585D01*
X40744500Y-92376000D01*
X40744500Y-95863045D01*
X40724498Y-95931166D01*
X40670842Y-95977659D01*
X40605659Y-95988389D01*
X40551378Y-95982828D01*
X40544958Y-95982500D01*
X40543115Y-95982500D01*
X40527876Y-95986975D01*
X40526671Y-95988365D01*
X40525000Y-95996048D01*
X40525000Y-97081500D01*
X40504998Y-97149621D01*
X40451342Y-97196114D01*
X40399000Y-97207500D01*
X40151000Y-97207500D01*
X40082879Y-97187498D01*
X40036386Y-97133842D01*
X40025000Y-97081500D01*
X40025000Y-96000615D01*
X40010604Y-95951587D01*
X40005500Y-95916089D01*
X40005500Y-95876000D01*
X39993948Y-95768551D01*
X39982562Y-95716209D01*
X39948433Y-95613667D01*
X39870646Y-95492627D01*
X39824153Y-95438971D01*
X39812955Y-95429267D01*
X39722226Y-95350650D01*
X39722223Y-95350648D01*
X39715414Y-95344748D01*
X39584536Y-95284978D01*
X39516415Y-95264976D01*
X39511975Y-95264338D01*
X39511972Y-95264337D01*
X39378446Y-95245139D01*
X39378443Y-95245139D01*
X39374000Y-95244500D01*
X38631500Y-95244500D01*
X38563379Y-95224498D01*
X38516886Y-95170842D01*
X38505500Y-95118500D01*
X38505500Y-92052190D01*
X38502605Y-91998163D01*
X38499726Y-91971380D01*
X38491067Y-91917949D01*
X38440785Y-91783141D01*
X38432794Y-91768506D01*
X38408917Y-91724781D01*
X38406759Y-91720829D01*
X38404062Y-91717227D01*
X38404058Y-91717220D01*
X38323242Y-91609266D01*
X38323240Y-91609264D01*
X38320537Y-91605653D01*
X37108595Y-90393711D01*
X37104029Y-90389201D01*
X37101716Y-90386946D01*
X37097003Y-90382411D01*
X37096878Y-90382292D01*
X37096787Y-90382205D01*
X36135708Y-89469180D01*
X36135698Y-89469171D01*
X36134637Y-89468163D01*
X36098595Y-89437019D01*
X36079934Y-89422371D01*
X36041106Y-89394748D01*
X36035663Y-89392262D01*
X36035659Y-89392260D01*
X35957937Y-89356766D01*
X35910228Y-89334978D01*
X35842107Y-89314976D01*
X35837667Y-89314338D01*
X35837664Y-89314337D01*
X35704138Y-89295139D01*
X35704135Y-89295139D01*
X35699692Y-89294500D01*
X35381500Y-89294500D01*
X35313379Y-89274498D01*
X35266886Y-89220842D01*
X35255500Y-89168500D01*
X35255500Y-85101877D01*
X35275502Y-85033756D01*
X35308208Y-85001606D01*
X35307383Y-85000565D01*
X35313119Y-84996018D01*
X35319345Y-84992166D01*
X35351123Y-84960333D01*
X35437813Y-84873491D01*
X35442984Y-84868311D01*
X35534814Y-84719334D01*
X35537119Y-84712385D01*
X35587744Y-84559759D01*
X35587745Y-84559757D01*
X35589910Y-84553228D01*
X35600500Y-84449866D01*
X35600500Y-84446567D01*
X36400001Y-84446567D01*
X36400339Y-84453087D01*
X36410140Y-84547560D01*
X36413031Y-84560951D01*
X36463882Y-84713368D01*
X36470056Y-84726547D01*
X36554374Y-84862804D01*
X36563410Y-84874205D01*
X36676821Y-84987418D01*
X36688232Y-84996430D01*
X36824646Y-85080516D01*
X36837827Y-85086663D01*
X36990343Y-85137251D01*
X37003719Y-85140118D01*
X37096966Y-85149672D01*
X37103382Y-85150000D01*
X37206885Y-85150000D01*
X37222124Y-85145525D01*
X37223329Y-85144135D01*
X37225000Y-85136452D01*
X37225000Y-84018115D01*
X37220525Y-84002876D01*
X37219135Y-84001671D01*
X37211452Y-84000000D01*
X36418116Y-84000000D01*
X36402877Y-84004475D01*
X36401672Y-84005865D01*
X36400001Y-84013548D01*
X36400001Y-84446567D01*
X35600500Y-84446567D01*
X35600500Y-83050134D01*
X35589641Y-82945481D01*
X35534256Y-82779471D01*
X35442166Y-82630655D01*
X35318311Y-82507016D01*
X35312080Y-82503175D01*
X35306335Y-82498638D01*
X35307800Y-82496783D01*
X35267894Y-82452446D01*
X35255500Y-82397952D01*
X35255500Y-77876000D01*
X35243948Y-77768551D01*
X35232562Y-77716209D01*
X35198433Y-77613667D01*
X35120646Y-77492627D01*
X35074153Y-77438971D01*
X35020470Y-77392454D01*
X34972226Y-77350650D01*
X34972223Y-77350648D01*
X34965414Y-77344748D01*
X34834536Y-77284978D01*
X34766415Y-77264976D01*
X34761975Y-77264338D01*
X34761972Y-77264337D01*
X34628446Y-77245139D01*
X34628443Y-77245139D01*
X34624000Y-77244500D01*
X32126500Y-77244500D01*
X32058379Y-77224498D01*
X32011886Y-77170842D01*
X32000500Y-77118500D01*
X32000500Y-75881500D01*
X32020502Y-75813379D01*
X32074158Y-75766886D01*
X32126500Y-75755500D01*
X38946312Y-75755500D01*
X39014433Y-75775502D01*
X39060926Y-75829158D01*
X39071030Y-75899432D01*
X39041536Y-75964012D01*
X39012616Y-75988644D01*
X38987193Y-76004377D01*
X38975795Y-76013410D01*
X38862582Y-76126821D01*
X38853570Y-76138232D01*
X38769484Y-76274646D01*
X38763337Y-76287827D01*
X38712749Y-76440343D01*
X38709882Y-76453719D01*
X38700328Y-76546966D01*
X38700000Y-76553382D01*
X38700001Y-77125651D01*
X38679999Y-77193772D01*
X38626343Y-77240265D01*
X38560393Y-77250914D01*
X38550774Y-77249869D01*
X38550773Y-77249869D01*
X38547377Y-77249500D01*
X37550146Y-77249500D01*
X36552624Y-77249501D01*
X36549230Y-77249870D01*
X36549224Y-77249870D01*
X36499278Y-77255295D01*
X36499274Y-77255296D01*
X36491420Y-77256149D01*
X36357176Y-77306474D01*
X36349997Y-77311854D01*
X36349994Y-77311856D01*
X36249635Y-77387072D01*
X36242454Y-77392454D01*
X36237072Y-77399635D01*
X36161856Y-77499994D01*
X36161854Y-77499997D01*
X36156474Y-77507176D01*
X36122966Y-77596561D01*
X36113750Y-77621145D01*
X36106149Y-77641420D01*
X36105296Y-77649270D01*
X36105296Y-77649271D01*
X36102117Y-77678534D01*
X36091468Y-77717268D01*
X36034978Y-77840964D01*
X36014976Y-77909085D01*
X35994500Y-78051500D01*
X35994500Y-82124000D01*
X36006052Y-82231449D01*
X36017438Y-82283791D01*
X36051567Y-82386333D01*
X36129354Y-82507373D01*
X36175847Y-82561029D01*
X36179240Y-82563969D01*
X36277774Y-82649350D01*
X36277777Y-82649352D01*
X36284586Y-82655252D01*
X36292783Y-82658996D01*
X36292784Y-82658996D01*
X36375165Y-82696618D01*
X36428821Y-82743111D01*
X36448823Y-82811232D01*
X36442416Y-82850899D01*
X36412750Y-82940340D01*
X36409882Y-82953719D01*
X36400328Y-83046966D01*
X36400000Y-83053383D01*
X36400000Y-83481885D01*
X36404475Y-83497124D01*
X36405865Y-83498329D01*
X36413548Y-83500000D01*
X37599000Y-83500000D01*
X37667121Y-83520002D01*
X37713614Y-83573658D01*
X37725000Y-83626000D01*
X37725000Y-85131884D01*
X37729475Y-85147123D01*
X37730865Y-85148328D01*
X37738548Y-85149999D01*
X37846567Y-85149999D01*
X37853087Y-85149661D01*
X37947560Y-85139860D01*
X37960952Y-85136969D01*
X38078624Y-85097710D01*
X38149573Y-85095126D01*
X38210657Y-85131309D01*
X38242482Y-85194774D01*
X38244500Y-85217234D01*
X38244500Y-88197810D01*
X38247395Y-88251837D01*
X38250274Y-88278620D01*
X38258933Y-88332051D01*
X38309215Y-88466859D01*
X38343241Y-88529171D01*
X38345938Y-88532773D01*
X38345942Y-88532780D01*
X38426758Y-88640734D01*
X38429463Y-88644347D01*
X39355653Y-89570537D01*
X39395897Y-89606688D01*
X39416871Y-89623591D01*
X39460776Y-89655252D01*
X39591654Y-89715022D01*
X39659775Y-89735024D01*
X39664215Y-89735662D01*
X39664218Y-89735663D01*
X39797744Y-89754861D01*
X39797747Y-89754861D01*
X39802190Y-89755500D01*
X41381595Y-89755500D01*
X41425824Y-89763518D01*
X41495825Y-89789760D01*
X41552590Y-89832401D01*
X41577290Y-89898963D01*
X41562083Y-89968312D01*
X41538567Y-89998912D01*
X41513533Y-90022793D01*
X41506488Y-90030756D01*
X41371034Y-90212812D01*
X41365430Y-90221849D01*
X41262588Y-90424126D01*
X41258588Y-90433977D01*
X41191296Y-90650693D01*
X41189014Y-90661071D01*
X41185241Y-90689542D01*
X41187438Y-90703707D01*
X41200622Y-90707500D01*
X44621947Y-90707500D01*
X44635478Y-90703527D01*
X44637003Y-90692920D01*
X44608897Y-90558968D01*
X44605837Y-90548771D01*
X44522493Y-90337729D01*
X44517762Y-90328197D01*
X44400043Y-90134203D01*
X44393779Y-90125612D01*
X44276591Y-89990566D01*
X44247051Y-89926006D01*
X44257105Y-89855725D01*
X44303559Y-89802036D01*
X44327527Y-89790003D01*
X44398176Y-89763518D01*
X44442405Y-89755500D01*
X45947810Y-89755500D01*
X45971804Y-89754214D01*
X46000145Y-89752696D01*
X46000157Y-89752695D01*
X46001837Y-89752605D01*
X46028620Y-89749726D01*
X46030311Y-89749452D01*
X46075944Y-89742057D01*
X46075947Y-89742056D01*
X46082051Y-89741067D01*
X46087846Y-89738906D01*
X46087848Y-89738905D01*
X46148479Y-89716290D01*
X46216859Y-89690785D01*
X46220803Y-89688631D01*
X46220806Y-89688630D01*
X46275219Y-89658917D01*
X46279171Y-89656759D01*
X46282773Y-89654062D01*
X46282780Y-89654058D01*
X46390734Y-89573242D01*
X46390736Y-89573240D01*
X46394347Y-89570537D01*
X48320537Y-87644347D01*
X48356688Y-87604103D01*
X48373591Y-87583129D01*
X48405252Y-87539224D01*
X48465022Y-87408346D01*
X48485024Y-87340225D01*
X48505500Y-87197810D01*
X48505500Y-84859474D01*
X48525502Y-84791353D01*
X48579158Y-84744860D01*
X48649432Y-84734756D01*
X48697616Y-84752214D01*
X48824646Y-84830516D01*
X48837827Y-84836663D01*
X48990343Y-84887251D01*
X49003719Y-84890118D01*
X49096966Y-84899672D01*
X49103382Y-84900000D01*
X49206885Y-84900000D01*
X49222124Y-84895525D01*
X49223329Y-84894135D01*
X49225000Y-84886452D01*
X49225000Y-82118116D01*
X49220525Y-82102877D01*
X49219135Y-82101672D01*
X49211452Y-82100001D01*
X49103433Y-82100001D01*
X49096913Y-82100339D01*
X49002440Y-82110140D01*
X48989049Y-82113031D01*
X48836632Y-82163882D01*
X48823460Y-82170053D01*
X48697803Y-82247811D01*
X48629351Y-82266648D01*
X48561581Y-82245487D01*
X48516010Y-82191046D01*
X48505500Y-82140666D01*
X48505500Y-80126000D01*
X48493948Y-80018551D01*
X48482562Y-79966209D01*
X48448433Y-79863667D01*
X48370646Y-79742627D01*
X48324153Y-79688971D01*
X48312955Y-79679267D01*
X48222226Y-79600650D01*
X48222223Y-79600648D01*
X48215414Y-79594748D01*
X48084536Y-79534978D01*
X48016415Y-79514976D01*
X48011975Y-79514338D01*
X48011972Y-79514337D01*
X47878446Y-79495139D01*
X47878443Y-79495139D01*
X47874000Y-79494500D01*
X41131500Y-79494500D01*
X41063379Y-79474498D01*
X41016886Y-79420842D01*
X41005500Y-79368500D01*
X41005500Y-78732607D01*
X41003472Y-78687371D01*
X41001454Y-78664911D01*
X41001266Y-78663518D01*
X40999201Y-78648243D01*
X41009896Y-78578056D01*
X41056839Y-78524794D01*
X41125107Y-78505372D01*
X41126000Y-78505500D01*
X41916280Y-78505500D01*
X41982396Y-78524240D01*
X42080666Y-78584814D01*
X42087614Y-78587119D01*
X42087615Y-78587119D01*
X42240241Y-78637744D01*
X42240243Y-78637745D01*
X42246772Y-78639910D01*
X42350134Y-78650500D01*
X43099866Y-78650500D01*
X43103112Y-78650163D01*
X43103116Y-78650163D01*
X43197661Y-78640353D01*
X43197665Y-78640352D01*
X43204519Y-78639641D01*
X43211055Y-78637460D01*
X43211057Y-78637460D01*
X43363581Y-78586574D01*
X43370529Y-78584256D01*
X43467326Y-78524356D01*
X43533629Y-78505500D01*
X44124000Y-78505500D01*
X44127348Y-78505140D01*
X44127349Y-78505140D01*
X44153032Y-78502379D01*
X44231449Y-78493948D01*
X44234733Y-78493234D01*
X44234737Y-78493233D01*
X44259808Y-78487779D01*
X44283791Y-78482562D01*
X44386333Y-78448433D01*
X44507373Y-78370646D01*
X44543498Y-78339343D01*
X44608080Y-78309850D01*
X44678354Y-78319955D01*
X44708523Y-78339343D01*
X44784586Y-78405252D01*
X44915464Y-78465022D01*
X44944893Y-78473663D01*
X44978589Y-78483557D01*
X44983585Y-78485024D01*
X44988025Y-78485662D01*
X44988028Y-78485663D01*
X45121554Y-78504861D01*
X45121557Y-78504861D01*
X45126000Y-78505500D01*
X47874000Y-78505500D01*
X47877348Y-78505140D01*
X47877349Y-78505140D01*
X47903032Y-78502379D01*
X47981449Y-78493948D01*
X47984733Y-78493234D01*
X47984737Y-78493233D01*
X48009808Y-78487779D01*
X48033791Y-78482562D01*
X48136333Y-78448433D01*
X48257373Y-78370646D01*
X48311029Y-78324153D01*
X48323423Y-78309850D01*
X48399350Y-78222226D01*
X48399352Y-78222223D01*
X48405252Y-78215414D01*
X48465022Y-78084536D01*
X48485024Y-78016415D01*
X48486716Y-78004647D01*
X48504861Y-77878446D01*
X48504861Y-77878443D01*
X48505500Y-77874000D01*
X48505500Y-69359474D01*
X48525502Y-69291353D01*
X48579158Y-69244860D01*
X48649432Y-69234756D01*
X48697616Y-69252214D01*
X48824646Y-69330516D01*
X48837827Y-69336663D01*
X48990343Y-69387251D01*
X49003719Y-69390118D01*
X49096966Y-69399672D01*
X49103382Y-69400000D01*
X49206885Y-69400000D01*
X49222124Y-69395525D01*
X49223329Y-69394135D01*
X49225000Y-69386452D01*
X49225000Y-66618116D01*
X49220525Y-66602877D01*
X49219135Y-66601672D01*
X49211452Y-66600001D01*
X49103433Y-66600001D01*
X49096913Y-66600339D01*
X49002440Y-66610140D01*
X48989049Y-66613031D01*
X48836632Y-66663882D01*
X48823460Y-66670053D01*
X48697803Y-66747811D01*
X48629351Y-66766648D01*
X48561581Y-66745487D01*
X48516010Y-66691046D01*
X48505500Y-66640666D01*
X48505500Y-55626000D01*
X48493948Y-55518551D01*
X48482562Y-55466209D01*
X48448433Y-55363667D01*
X48370646Y-55242627D01*
X48324153Y-55188971D01*
X48258757Y-55132305D01*
X48222226Y-55100650D01*
X48222223Y-55100648D01*
X48215414Y-55094748D01*
X48084536Y-55034978D01*
X48016415Y-55014976D01*
X48011975Y-55014338D01*
X48011972Y-55014337D01*
X47878446Y-54995139D01*
X47878443Y-54995139D01*
X47874000Y-54994500D01*
X47720299Y-54994500D01*
X47652178Y-54974498D01*
X47605685Y-54920842D01*
X47595581Y-54850568D01*
X47625075Y-54785988D01*
X47631126Y-54779482D01*
X47637418Y-54773179D01*
X47646430Y-54761768D01*
X47730516Y-54625354D01*
X47736663Y-54612173D01*
X47787251Y-54459657D01*
X47790118Y-54446281D01*
X47799672Y-54353034D01*
X47800000Y-54346618D01*
X47800000Y-53068115D01*
X47795525Y-53052876D01*
X47794135Y-53051671D01*
X47786452Y-53050000D01*
X45218116Y-53050000D01*
X45202877Y-53054475D01*
X45201672Y-53055865D01*
X45200001Y-53063548D01*
X45200001Y-54346567D01*
X45200339Y-54353087D01*
X45210140Y-54447560D01*
X45213031Y-54460951D01*
X45263882Y-54613368D01*
X45270056Y-54626547D01*
X45354374Y-54762804D01*
X45363410Y-54774205D01*
X45368541Y-54779327D01*
X45402620Y-54841609D01*
X45397617Y-54912429D01*
X45355120Y-54969302D01*
X45288622Y-54994171D01*
X45279523Y-54994500D01*
X45126000Y-54994500D01*
X45122652Y-54994860D01*
X45122651Y-54994860D01*
X45120056Y-54995139D01*
X45018551Y-55006052D01*
X45015267Y-55006766D01*
X45015263Y-55006767D01*
X44990192Y-55012221D01*
X44966209Y-55017438D01*
X44863667Y-55051567D01*
X44742627Y-55129354D01*
X44688971Y-55175847D01*
X44686031Y-55179240D01*
X44600650Y-55277774D01*
X44600648Y-55277777D01*
X44594748Y-55284586D01*
X44534978Y-55415464D01*
X44514976Y-55483585D01*
X44514338Y-55488025D01*
X44514337Y-55488028D01*
X44509949Y-55518551D01*
X44494500Y-55626000D01*
X44494500Y-61368500D01*
X44474498Y-61436621D01*
X44420842Y-61483114D01*
X44368500Y-61494500D01*
X43619515Y-61494500D01*
X43551394Y-61474498D01*
X43504901Y-61420842D01*
X43494252Y-61354892D01*
X43500131Y-61300774D01*
X43500131Y-61300773D01*
X43500500Y-61297377D01*
X43500499Y-58702624D01*
X43493851Y-58641420D01*
X43443526Y-58507176D01*
X43438146Y-58499997D01*
X43438144Y-58499994D01*
X43362928Y-58399635D01*
X43357546Y-58392454D01*
X43350365Y-58387072D01*
X43250006Y-58311856D01*
X43250003Y-58311854D01*
X43242824Y-58306474D01*
X43153439Y-58272966D01*
X43115975Y-58258921D01*
X43115973Y-58258921D01*
X43108580Y-58256149D01*
X43100730Y-58255296D01*
X43100729Y-58255296D01*
X43050774Y-58249869D01*
X43050773Y-58249869D01*
X43047377Y-58249500D01*
X41000300Y-58249500D01*
X38952624Y-58249501D01*
X38949230Y-58249870D01*
X38949224Y-58249870D01*
X38899278Y-58255295D01*
X38899274Y-58255296D01*
X38891420Y-58256149D01*
X38757176Y-58306474D01*
X38749997Y-58311854D01*
X38749994Y-58311856D01*
X38649635Y-58387072D01*
X38642454Y-58392454D01*
X38637072Y-58399635D01*
X38561856Y-58499994D01*
X38561854Y-58499997D01*
X38556474Y-58507176D01*
X38506149Y-58641420D01*
X38499500Y-58702623D01*
X38499501Y-61297376D01*
X38505749Y-61354892D01*
X38505749Y-61354893D01*
X38493221Y-61424775D01*
X38444899Y-61476791D01*
X38380486Y-61494500D01*
X38126000Y-61494500D01*
X38122652Y-61494860D01*
X38122651Y-61494860D01*
X38096968Y-61497621D01*
X38018551Y-61506052D01*
X38015267Y-61506766D01*
X38015263Y-61506767D01*
X37992012Y-61511825D01*
X37966209Y-61517438D01*
X37863667Y-61551567D01*
X37742627Y-61629354D01*
X37688971Y-61675847D01*
X37686031Y-61679240D01*
X37600650Y-61777774D01*
X37600648Y-61777777D01*
X37594748Y-61784586D01*
X37534978Y-61915464D01*
X37533710Y-61919783D01*
X37518704Y-61970890D01*
X37514976Y-61983585D01*
X37514338Y-61988025D01*
X37514337Y-61988028D01*
X37498870Y-62095608D01*
X37494500Y-62126000D01*
X37494500Y-68374000D01*
X37506052Y-68481449D01*
X37517438Y-68533791D01*
X37551567Y-68636333D01*
X37629354Y-68757373D01*
X37675847Y-68811029D01*
X37679240Y-68813969D01*
X37777774Y-68899350D01*
X37777777Y-68899352D01*
X37784586Y-68905252D01*
X37915464Y-68965022D01*
X37983585Y-68985024D01*
X37988025Y-68985662D01*
X37988028Y-68985663D01*
X38121554Y-69004861D01*
X38121557Y-69004861D01*
X38126000Y-69005500D01*
X44368500Y-69005500D01*
X44436621Y-69025502D01*
X44483114Y-69079158D01*
X44494500Y-69131500D01*
X44494500Y-69913632D01*
X44474498Y-69981753D01*
X44420842Y-70028246D01*
X44350568Y-70038350D01*
X44333010Y-70034530D01*
X44266415Y-70014976D01*
X44261975Y-70014338D01*
X44261972Y-70014337D01*
X44128446Y-69995139D01*
X44128443Y-69995139D01*
X44124000Y-69994500D01*
X39126000Y-69994500D01*
X39122652Y-69994860D01*
X39122651Y-69994860D01*
X39120056Y-69995139D01*
X39018551Y-70006052D01*
X39015267Y-70006766D01*
X39015263Y-70006767D01*
X38990192Y-70012221D01*
X38966209Y-70017438D01*
X38863667Y-70051567D01*
X38742627Y-70129354D01*
X38688971Y-70175847D01*
X38686031Y-70179240D01*
X38600650Y-70277774D01*
X38600648Y-70277777D01*
X38594748Y-70284586D01*
X38534978Y-70415464D01*
X38514976Y-70483585D01*
X38494500Y-70626000D01*
X38494500Y-71868500D01*
X38474498Y-71936621D01*
X38420842Y-71983114D01*
X38368500Y-71994500D01*
X35349824Y-71994500D01*
X35281703Y-71974498D01*
X35248998Y-71944065D01*
X35245678Y-71939635D01*
X35245677Y-71939634D01*
X35240296Y-71932454D01*
X35125574Y-71846474D01*
X35117640Y-71843500D01*
X35067673Y-71793422D01*
X35052658Y-71724032D01*
X35079445Y-71655067D01*
X35133212Y-71586987D01*
X35138911Y-71578409D01*
X35253120Y-71371518D01*
X35257345Y-71362119D01*
X35336230Y-71139357D01*
X35338864Y-71129386D01*
X35358734Y-71017837D01*
X35357274Y-71004540D01*
X35342717Y-71000000D01*
X33383750Y-71000000D01*
X33315629Y-70979998D01*
X33269136Y-70926342D01*
X33257750Y-70874000D01*
X33257750Y-70626000D01*
X33277752Y-70557879D01*
X33331408Y-70511386D01*
X33383750Y-70500000D01*
X35343921Y-70500000D01*
X35357265Y-70496082D01*
X35359252Y-70481806D01*
X35347697Y-70406300D01*
X35345308Y-70396272D01*
X35271891Y-70171652D01*
X35267894Y-70162143D01*
X35158779Y-69952535D01*
X35153285Y-69943810D01*
X35011397Y-69754832D01*
X35004554Y-69747125D01*
X34833701Y-69583856D01*
X34825436Y-69577162D01*
X34785085Y-69518746D01*
X34782722Y-69447789D01*
X34819934Y-69386050D01*
X34824513Y-69381884D01*
X34983908Y-69236846D01*
X34987107Y-69232795D01*
X34987111Y-69232791D01*
X35133631Y-69047264D01*
X35133634Y-69047259D01*
X35136832Y-69043210D01*
X35139327Y-69038691D01*
X35253580Y-68831722D01*
X35253582Y-68831718D01*
X35256077Y-68827198D01*
X35263005Y-68807636D01*
X35336715Y-68599485D01*
X35336716Y-68599481D01*
X35338441Y-68594610D01*
X35349862Y-68530494D01*
X35380805Y-68356783D01*
X35380806Y-68356777D01*
X35381711Y-68351694D01*
X35384725Y-68104972D01*
X35347403Y-67861070D01*
X35270747Y-67626540D01*
X35156815Y-67407679D01*
X35017797Y-67222523D01*
X35011772Y-67214499D01*
X35011770Y-67214496D01*
X35008667Y-67210364D01*
X34830282Y-67039896D01*
X34626450Y-66900851D01*
X34581200Y-66879847D01*
X34527833Y-66833023D01*
X34508250Y-66765559D01*
X34508250Y-65281116D01*
X34528252Y-65212995D01*
X34567947Y-65173972D01*
X34613117Y-65146020D01*
X34619345Y-65142166D01*
X34742984Y-65018311D01*
X34834814Y-64869334D01*
X34889910Y-64703228D01*
X34900500Y-64599866D01*
X34900500Y-63850134D01*
X34889641Y-63745481D01*
X34834256Y-63579471D01*
X34742166Y-63430655D01*
X34618311Y-63307016D01*
X34469334Y-63215186D01*
X34462385Y-63212881D01*
X34309759Y-63162256D01*
X34309757Y-63162255D01*
X34303228Y-63160090D01*
X34199866Y-63149500D01*
X32800134Y-63149500D01*
X32796888Y-63149837D01*
X32796884Y-63149837D01*
X32702339Y-63159647D01*
X32702335Y-63159648D01*
X32695481Y-63160359D01*
X32688945Y-63162540D01*
X32688943Y-63162540D01*
X32549860Y-63208942D01*
X32529471Y-63215744D01*
X32380655Y-63307834D01*
X32257016Y-63431689D01*
X32233759Y-63469418D01*
X32180989Y-63516911D01*
X32110917Y-63528335D01*
X32045793Y-63500062D01*
X32006293Y-63441068D01*
X32000500Y-63403302D01*
X32000500Y-62095608D01*
X32020502Y-62027487D01*
X32074158Y-61980994D01*
X32144432Y-61970890D01*
X32209012Y-62000384D01*
X32233644Y-62029305D01*
X32254374Y-62062804D01*
X32263410Y-62074205D01*
X32376821Y-62187418D01*
X32388232Y-62196430D01*
X32524646Y-62280516D01*
X32537827Y-62286663D01*
X32690343Y-62337251D01*
X32703719Y-62340118D01*
X32796966Y-62349672D01*
X32803382Y-62350000D01*
X33231885Y-62350000D01*
X33247124Y-62345525D01*
X33248329Y-62344135D01*
X33250000Y-62336452D01*
X33250000Y-62331884D01*
X33750000Y-62331884D01*
X33754475Y-62347123D01*
X33755865Y-62348328D01*
X33763548Y-62349999D01*
X34196567Y-62349999D01*
X34203087Y-62349661D01*
X34297560Y-62339860D01*
X34310951Y-62336969D01*
X34463368Y-62286118D01*
X34476547Y-62279944D01*
X34612804Y-62195626D01*
X34624205Y-62186590D01*
X34737418Y-62073179D01*
X34746430Y-62061768D01*
X34830516Y-61925354D01*
X34836663Y-61912173D01*
X34887251Y-61759657D01*
X34890118Y-61746281D01*
X34899672Y-61653034D01*
X34900000Y-61646618D01*
X34900000Y-61543115D01*
X34895525Y-61527876D01*
X34894135Y-61526671D01*
X34886452Y-61525000D01*
X33768115Y-61525000D01*
X33752876Y-61529475D01*
X33751671Y-61530865D01*
X33750000Y-61538548D01*
X33750000Y-62331884D01*
X33250000Y-62331884D01*
X33250000Y-61006885D01*
X33750000Y-61006885D01*
X33754475Y-61022124D01*
X33755865Y-61023329D01*
X33763548Y-61025000D01*
X34881884Y-61025000D01*
X34897123Y-61020525D01*
X34898328Y-61019135D01*
X34899999Y-61011452D01*
X34899999Y-60903433D01*
X34899661Y-60896913D01*
X34889860Y-60802440D01*
X34886969Y-60789049D01*
X34836118Y-60636632D01*
X34829944Y-60623453D01*
X34745626Y-60487196D01*
X34736590Y-60475795D01*
X34623179Y-60362582D01*
X34611768Y-60353570D01*
X34475354Y-60269484D01*
X34462173Y-60263337D01*
X34309657Y-60212749D01*
X34296281Y-60209882D01*
X34203034Y-60200328D01*
X34196617Y-60200000D01*
X33768115Y-60200000D01*
X33752876Y-60204475D01*
X33751671Y-60205865D01*
X33750000Y-60213548D01*
X33750000Y-61006885D01*
X33250000Y-61006885D01*
X33250000Y-60218116D01*
X33245525Y-60202877D01*
X33244135Y-60201672D01*
X33236452Y-60200001D01*
X32803433Y-60200001D01*
X32796913Y-60200339D01*
X32702440Y-60210140D01*
X32689049Y-60213031D01*
X32536632Y-60263882D01*
X32523453Y-60270056D01*
X32387196Y-60354374D01*
X32375795Y-60363410D01*
X32262582Y-60476821D01*
X32253570Y-60488232D01*
X32233760Y-60520370D01*
X32180988Y-60567863D01*
X32110916Y-60579287D01*
X32045792Y-60551013D01*
X32006293Y-60492019D01*
X32000500Y-60454254D01*
X32000500Y-50388380D01*
X37000242Y-50388380D01*
X37005983Y-50651471D01*
X37050548Y-50910825D01*
X37132958Y-51160742D01*
X37251403Y-51395733D01*
X37254103Y-51399554D01*
X37254104Y-51399555D01*
X37400584Y-51606819D01*
X37403281Y-51610635D01*
X37406510Y-51614008D01*
X37532812Y-51745944D01*
X37585256Y-51800728D01*
X37588954Y-51803591D01*
X37588957Y-51803594D01*
X37789631Y-51958971D01*
X37793330Y-51961835D01*
X37797412Y-51964121D01*
X37797415Y-51964123D01*
X37843270Y-51989803D01*
X38022931Y-52090418D01*
X38228348Y-52168244D01*
X39585475Y-52531885D01*
X40830782Y-52865564D01*
X40830787Y-52865565D01*
X40833022Y-52866164D01*
X40835293Y-52866595D01*
X40835301Y-52866597D01*
X41021148Y-52901881D01*
X41021151Y-52901881D01*
X41025737Y-52902752D01*
X41157213Y-52907918D01*
X41284021Y-52912901D01*
X41284027Y-52912901D01*
X41288689Y-52913084D01*
X41390982Y-52901881D01*
X41545625Y-52884945D01*
X41545630Y-52884944D01*
X41550278Y-52884435D01*
X41554802Y-52883244D01*
X41800238Y-52818626D01*
X41800240Y-52818625D01*
X41804761Y-52817435D01*
X42046545Y-52713556D01*
X42145240Y-52652482D01*
X42266345Y-52577540D01*
X42266349Y-52577537D01*
X42270318Y-52575081D01*
X42321343Y-52531885D01*
X45200000Y-52531885D01*
X45204475Y-52547124D01*
X45205865Y-52548329D01*
X45213548Y-52550000D01*
X46231885Y-52550000D01*
X46247124Y-52545525D01*
X46248329Y-52544135D01*
X46250000Y-52536452D01*
X46250000Y-52531885D01*
X46750000Y-52531885D01*
X46754475Y-52547124D01*
X46755865Y-52548329D01*
X46763548Y-52550000D01*
X47781884Y-52550000D01*
X47797123Y-52545525D01*
X47798328Y-52544135D01*
X47799999Y-52536452D01*
X47799999Y-51253433D01*
X47799661Y-51246913D01*
X47789860Y-51152440D01*
X47786969Y-51139049D01*
X47736118Y-50986632D01*
X47729944Y-50973453D01*
X47645626Y-50837196D01*
X47636590Y-50825795D01*
X47523179Y-50712582D01*
X47511768Y-50703570D01*
X47375354Y-50619484D01*
X47362173Y-50613337D01*
X47209657Y-50562749D01*
X47196281Y-50559882D01*
X47103034Y-50550328D01*
X47096617Y-50550000D01*
X46768115Y-50550000D01*
X46752876Y-50554475D01*
X46751671Y-50555865D01*
X46750000Y-50563548D01*
X46750000Y-52531885D01*
X46250000Y-52531885D01*
X46250000Y-50568116D01*
X46245525Y-50552877D01*
X46244135Y-50551672D01*
X46236452Y-50550001D01*
X45903433Y-50550001D01*
X45896913Y-50550339D01*
X45802440Y-50560140D01*
X45789049Y-50563031D01*
X45636632Y-50613882D01*
X45623453Y-50620056D01*
X45487196Y-50704374D01*
X45475795Y-50713410D01*
X45362582Y-50826821D01*
X45353570Y-50838232D01*
X45269484Y-50974646D01*
X45263337Y-50987827D01*
X45212749Y-51140343D01*
X45209882Y-51153719D01*
X45200328Y-51246966D01*
X45200000Y-51253383D01*
X45200000Y-52531885D01*
X42321343Y-52531885D01*
X42471165Y-52405051D01*
X42491923Y-52381381D01*
X42641593Y-52210716D01*
X42641597Y-52210711D01*
X42644675Y-52207201D01*
X42787035Y-51985878D01*
X42895117Y-51745944D01*
X42966548Y-51492670D01*
X42999758Y-51231620D01*
X42994017Y-50968529D01*
X42949452Y-50709175D01*
X42900222Y-50559882D01*
X42868506Y-50463700D01*
X42868505Y-50463697D01*
X42867041Y-50459258D01*
X42748597Y-50224267D01*
X42745903Y-50220456D01*
X42745900Y-50220450D01*
X42615206Y-50035525D01*
X42596718Y-50009365D01*
X42471503Y-49878564D01*
X42417978Y-49822651D01*
X42417976Y-49822649D01*
X42414743Y-49819272D01*
X42206670Y-49658165D01*
X42202588Y-49655879D01*
X42202585Y-49655877D01*
X42074087Y-49583915D01*
X43040000Y-49583915D01*
X43040369Y-49590729D01*
X43045789Y-49640621D01*
X43049414Y-49655867D01*
X43093767Y-49774177D01*
X43102299Y-49789763D01*
X43177430Y-49890009D01*
X43189991Y-49902570D01*
X43290237Y-49977701D01*
X43305823Y-49986233D01*
X43424133Y-50030586D01*
X43439379Y-50034211D01*
X43489271Y-50039631D01*
X43496085Y-50040000D01*
X44541885Y-50040000D01*
X44557124Y-50035525D01*
X44558329Y-50034135D01*
X44560000Y-50026452D01*
X44560000Y-50021885D01*
X45060000Y-50021885D01*
X45064475Y-50037124D01*
X45065865Y-50038329D01*
X45073548Y-50040000D01*
X46123915Y-50040000D01*
X46130729Y-50039631D01*
X46180621Y-50034211D01*
X46195867Y-50030586D01*
X46314177Y-49986233D01*
X46329763Y-49977701D01*
X46430009Y-49902570D01*
X46442570Y-49890009D01*
X46517701Y-49789763D01*
X46526233Y-49774177D01*
X46570586Y-49655867D01*
X46574211Y-49640621D01*
X46579631Y-49590729D01*
X46580000Y-49583915D01*
X46580000Y-47268115D01*
X46575525Y-47252876D01*
X46574135Y-47251671D01*
X46566452Y-47250000D01*
X45078115Y-47250000D01*
X45062876Y-47254475D01*
X45061671Y-47255865D01*
X45060000Y-47263548D01*
X45060000Y-50021885D01*
X44560000Y-50021885D01*
X44560000Y-47268115D01*
X44555525Y-47252876D01*
X44554135Y-47251671D01*
X44546452Y-47250000D01*
X43058115Y-47250000D01*
X43042876Y-47254475D01*
X43041671Y-47255865D01*
X43040000Y-47263548D01*
X43040000Y-49583915D01*
X42074087Y-49583915D01*
X41977069Y-49529582D01*
X41771652Y-49451756D01*
X39745707Y-48908906D01*
X39169217Y-48754436D01*
X39169212Y-48754435D01*
X39166977Y-48753836D01*
X39164706Y-48753405D01*
X39164698Y-48753403D01*
X38978851Y-48718119D01*
X38978848Y-48718119D01*
X38974262Y-48717248D01*
X38842786Y-48712082D01*
X38715979Y-48707099D01*
X38715973Y-48707099D01*
X38711311Y-48706916D01*
X38630799Y-48715734D01*
X38454374Y-48735055D01*
X38454369Y-48735056D01*
X38449721Y-48735565D01*
X38445198Y-48736756D01*
X38445197Y-48736756D01*
X38199762Y-48801374D01*
X38199760Y-48801375D01*
X38195239Y-48802565D01*
X37953455Y-48906444D01*
X37854760Y-48967518D01*
X37733655Y-49042460D01*
X37733651Y-49042463D01*
X37729682Y-49044919D01*
X37528834Y-49214949D01*
X37355325Y-49412799D01*
X37352801Y-49416723D01*
X37352798Y-49416727D01*
X37278736Y-49531870D01*
X37212965Y-49634122D01*
X37211048Y-49638377D01*
X37211045Y-49638383D01*
X37210037Y-49640621D01*
X37104882Y-49874055D01*
X37103612Y-49878560D01*
X37103610Y-49878564D01*
X37096840Y-49902570D01*
X37033452Y-50127330D01*
X37000242Y-50388380D01*
X32000500Y-50388380D01*
X32000500Y-43962092D01*
X32020502Y-43893971D01*
X32074158Y-43847478D01*
X32144432Y-43837374D01*
X32209012Y-43866868D01*
X32227327Y-43886528D01*
X32237431Y-43900010D01*
X32249991Y-43912570D01*
X32350237Y-43987701D01*
X32365823Y-43996233D01*
X32484133Y-44040586D01*
X32499379Y-44044211D01*
X32549271Y-44049631D01*
X32556085Y-44050000D01*
X33731885Y-44050000D01*
X33747124Y-44045525D01*
X33748329Y-44044135D01*
X33750000Y-44036452D01*
X33750000Y-44031885D01*
X34250000Y-44031885D01*
X34254475Y-44047124D01*
X34255865Y-44048329D01*
X34263548Y-44050000D01*
X35443915Y-44050000D01*
X35450729Y-44049631D01*
X35500621Y-44044211D01*
X35515867Y-44040586D01*
X35634177Y-43996233D01*
X35649763Y-43987701D01*
X35750009Y-43912570D01*
X35762570Y-43900009D01*
X35837701Y-43799763D01*
X35846233Y-43784177D01*
X35890586Y-43665867D01*
X35894211Y-43650621D01*
X35899631Y-43600729D01*
X35900000Y-43593915D01*
X35900000Y-43457710D01*
X37980034Y-43457710D01*
X37993193Y-43554396D01*
X37995134Y-43563532D01*
X38066132Y-43807112D01*
X38069401Y-43815855D01*
X38175625Y-44046273D01*
X38180145Y-44054428D01*
X38319261Y-44266616D01*
X38324944Y-44274021D01*
X38493890Y-44463310D01*
X38500606Y-44469795D01*
X38695680Y-44632035D01*
X38703267Y-44637448D01*
X38920186Y-44769078D01*
X38928502Y-44773315D01*
X39162482Y-44871430D01*
X39171328Y-44874390D01*
X39417242Y-44936844D01*
X39426439Y-44938466D01*
X39637150Y-44959684D01*
X39643442Y-44960000D01*
X40731885Y-44960000D01*
X40747124Y-44955525D01*
X40748329Y-44954135D01*
X40750000Y-44946452D01*
X40750000Y-44941885D01*
X41250000Y-44941885D01*
X41254475Y-44957124D01*
X41255865Y-44958329D01*
X41263548Y-44960000D01*
X42334442Y-44960000D01*
X42339120Y-44959827D01*
X42527691Y-44945814D01*
X42536922Y-44944434D01*
X42784388Y-44888438D01*
X42793304Y-44885712D01*
X42868332Y-44856535D01*
X42939071Y-44850487D01*
X43001849Y-44883644D01*
X43036737Y-44945477D01*
X43040000Y-44973968D01*
X43040000Y-46731885D01*
X43044475Y-46747124D01*
X43045865Y-46748329D01*
X43053548Y-46750000D01*
X44541885Y-46750000D01*
X44557124Y-46745525D01*
X44558329Y-46744135D01*
X44560000Y-46736452D01*
X44560000Y-46731885D01*
X45060000Y-46731885D01*
X45064475Y-46747124D01*
X45065865Y-46748329D01*
X45073548Y-46750000D01*
X46561885Y-46750000D01*
X46577124Y-46745525D01*
X46578329Y-46744135D01*
X46580000Y-46736452D01*
X46580000Y-44416085D01*
X46579631Y-44409271D01*
X46574211Y-44359379D01*
X46570586Y-44344133D01*
X46526233Y-44225823D01*
X46517701Y-44210237D01*
X46442570Y-44109991D01*
X46430009Y-44097430D01*
X46329763Y-44022299D01*
X46314177Y-44013767D01*
X46195867Y-43969414D01*
X46180621Y-43965789D01*
X46130729Y-43960369D01*
X46123915Y-43960000D01*
X45078115Y-43960000D01*
X45062876Y-43964475D01*
X45061671Y-43965865D01*
X45060000Y-43973548D01*
X45060000Y-46731885D01*
X44560000Y-46731885D01*
X44560000Y-43978115D01*
X44555525Y-43962876D01*
X44554135Y-43961671D01*
X44546452Y-43960000D01*
X44054709Y-43960000D01*
X43986588Y-43939998D01*
X43940095Y-43886342D01*
X43929991Y-43816068D01*
X43934707Y-43795587D01*
X43994498Y-43608802D01*
X43996671Y-43599751D01*
X44019776Y-43457880D01*
X44018079Y-43444285D01*
X44003973Y-43440000D01*
X41268115Y-43440000D01*
X41252876Y-43444475D01*
X41251671Y-43445865D01*
X41250000Y-43453548D01*
X41250000Y-44941885D01*
X40750000Y-44941885D01*
X40750000Y-43458115D01*
X40745525Y-43442876D01*
X40744135Y-43441671D01*
X40736452Y-43440000D01*
X37995739Y-43440000D01*
X37982055Y-43444018D01*
X37980034Y-43457710D01*
X35900000Y-43457710D01*
X35900000Y-43018115D01*
X35895525Y-43002876D01*
X35894135Y-43001671D01*
X35886452Y-43000000D01*
X34268115Y-43000000D01*
X34252876Y-43004475D01*
X34251671Y-43005865D01*
X34250000Y-43013548D01*
X34250000Y-44031885D01*
X33750000Y-44031885D01*
X33750000Y-42922120D01*
X37980224Y-42922120D01*
X37981921Y-42935715D01*
X37996027Y-42940000D01*
X40731885Y-42940000D01*
X40747124Y-42935525D01*
X40748329Y-42934135D01*
X40750000Y-42926452D01*
X40750000Y-42921885D01*
X41250000Y-42921885D01*
X41254475Y-42937124D01*
X41255865Y-42938329D01*
X41263548Y-42940000D01*
X44004261Y-42940000D01*
X44017945Y-42935982D01*
X44019966Y-42922290D01*
X44006807Y-42825604D01*
X44004866Y-42816468D01*
X43933868Y-42572888D01*
X43930599Y-42564145D01*
X43824375Y-42333727D01*
X43819855Y-42325572D01*
X43680739Y-42113384D01*
X43675056Y-42105979D01*
X43506110Y-41916690D01*
X43499394Y-41910205D01*
X43304320Y-41747965D01*
X43296733Y-41742552D01*
X43079814Y-41610922D01*
X43071498Y-41606685D01*
X42837518Y-41508570D01*
X42828672Y-41505610D01*
X42582758Y-41443156D01*
X42573561Y-41441534D01*
X42362850Y-41420316D01*
X42356558Y-41420000D01*
X41268115Y-41420000D01*
X41252876Y-41424475D01*
X41251671Y-41425865D01*
X41250000Y-41433548D01*
X41250000Y-42921885D01*
X40750000Y-42921885D01*
X40750000Y-41438115D01*
X40745525Y-41422876D01*
X40744135Y-41421671D01*
X40736452Y-41420000D01*
X39665558Y-41420000D01*
X39660880Y-41420173D01*
X39472309Y-41434186D01*
X39463078Y-41435566D01*
X39215612Y-41491562D01*
X39206695Y-41494288D01*
X38970213Y-41586252D01*
X38961800Y-41590265D01*
X38741510Y-41716170D01*
X38733785Y-41721381D01*
X38534520Y-41878469D01*
X38527652Y-41884762D01*
X38353801Y-42069572D01*
X38347927Y-42076827D01*
X38203305Y-42285296D01*
X38198572Y-42293331D01*
X38086348Y-42520899D01*
X38082860Y-42529532D01*
X38005502Y-42771198D01*
X38003329Y-42780249D01*
X37980224Y-42922120D01*
X33750000Y-42922120D01*
X33750000Y-42481885D01*
X34250000Y-42481885D01*
X34254475Y-42497124D01*
X34255865Y-42498329D01*
X34263548Y-42500000D01*
X35881885Y-42500000D01*
X35897124Y-42495525D01*
X35898329Y-42494135D01*
X35900000Y-42486452D01*
X35900000Y-41906085D01*
X35899631Y-41899271D01*
X35894211Y-41849379D01*
X35890586Y-41834133D01*
X35846233Y-41715823D01*
X35837701Y-41700237D01*
X35762570Y-41599991D01*
X35750009Y-41587430D01*
X35649763Y-41512299D01*
X35634177Y-41503767D01*
X35515867Y-41459414D01*
X35500621Y-41455789D01*
X35450729Y-41450369D01*
X35443915Y-41450000D01*
X34268115Y-41450000D01*
X34252876Y-41454475D01*
X34251671Y-41455865D01*
X34250000Y-41463548D01*
X34250000Y-42481885D01*
X33750000Y-42481885D01*
X33750000Y-41468115D01*
X33745525Y-41452876D01*
X33744135Y-41451671D01*
X33736452Y-41450000D01*
X32556085Y-41450000D01*
X32549271Y-41450369D01*
X32499379Y-41455789D01*
X32484133Y-41459414D01*
X32365823Y-41503767D01*
X32350237Y-41512299D01*
X32249991Y-41587430D01*
X32237431Y-41599990D01*
X32227327Y-41613472D01*
X32170468Y-41655988D01*
X32099650Y-41661014D01*
X32037356Y-41626955D01*
X32003365Y-41564624D01*
X32000500Y-41537908D01*
X32000500Y-40876500D01*
X32020502Y-40808379D01*
X32074158Y-40761886D01*
X32126500Y-40750500D01*
X49873500Y-40750500D01*
X49941621Y-40770502D01*
G37*
G04 #@! TD.AperFunction*
G04 #@! TA.AperFunction,Conductor*
G36*
X48000000Y-118100000D02*
G01*
X34756187Y-118100000D01*
X34743837Y-118099393D01*
X34567260Y-118082001D01*
X34543043Y-118077185D01*
X34379190Y-118027482D01*
X34356371Y-118018029D01*
X34297583Y-117986607D01*
X34205369Y-117937317D01*
X34184842Y-117923601D01*
X34052479Y-117814974D01*
X34035026Y-117797521D01*
X33926399Y-117665158D01*
X33912681Y-117644628D01*
X33831971Y-117493629D01*
X33822518Y-117470809D01*
X33772815Y-117306957D01*
X33767998Y-117282737D01*
X33751216Y-117112350D01*
X33751216Y-117087650D01*
X33767998Y-116917263D01*
X33772815Y-116893043D01*
X33822518Y-116729190D01*
X33831971Y-116706371D01*
X33912681Y-116555372D01*
X33926399Y-116534842D01*
X34035026Y-116402479D01*
X34052479Y-116385026D01*
X34184842Y-116276399D01*
X34205369Y-116262683D01*
X34356371Y-116181971D01*
X34379191Y-116172518D01*
X34543043Y-116122815D01*
X34567260Y-116117999D01*
X34743837Y-116100607D01*
X34756187Y-116100000D01*
X48000000Y-116100000D01*
X48000000Y-118100000D01*
G37*
G04 #@! TD.AperFunction*
G04 #@! TA.AperFunction,Conductor*
G36*
X38651490Y-77945502D02*
G01*
X38697983Y-77999158D01*
X38708696Y-78038493D01*
X38710359Y-78054519D01*
X38765744Y-78220529D01*
X38857834Y-78369345D01*
X38981689Y-78492984D01*
X39130666Y-78584814D01*
X39137614Y-78587119D01*
X39137615Y-78587119D01*
X39290241Y-78637744D01*
X39290243Y-78637745D01*
X39296772Y-78639910D01*
X39400134Y-78650500D01*
X40149866Y-78650500D01*
X40153112Y-78650163D01*
X40153116Y-78650163D01*
X40247661Y-78640353D01*
X40247665Y-78640352D01*
X40254519Y-78639641D01*
X40261053Y-78637461D01*
X40261058Y-78637460D01*
X40334124Y-78613083D01*
X40405074Y-78610499D01*
X40466158Y-78646683D01*
X40497982Y-78710147D01*
X40500000Y-78732607D01*
X40500000Y-80000000D01*
X47874000Y-80000000D01*
X47942121Y-80020002D01*
X47988614Y-80073658D01*
X48000000Y-80126000D01*
X48000000Y-87197810D01*
X47979998Y-87265931D01*
X47963095Y-87286905D01*
X46036905Y-89213095D01*
X45974593Y-89247121D01*
X45947810Y-89250000D01*
X39802190Y-89250000D01*
X39734069Y-89229998D01*
X39713095Y-89213095D01*
X38786905Y-88286905D01*
X38752879Y-88224593D01*
X38750000Y-88197810D01*
X38750000Y-82250000D01*
X36626000Y-82250000D01*
X36557879Y-82229998D01*
X36511386Y-82176342D01*
X36500000Y-82124000D01*
X36500000Y-78051500D01*
X36520002Y-77983379D01*
X36573658Y-77936886D01*
X36626000Y-77925500D01*
X38583369Y-77925500D01*
X38651490Y-77945502D01*
G37*
G04 #@! TD.AperFunction*
G04 #@! TA.AperFunction,Conductor*
G36*
X36942121Y-101270002D02*
G01*
X36988614Y-101323658D01*
X37000000Y-101376000D01*
X37000000Y-105750000D01*
X38624000Y-105750000D01*
X38692121Y-105770002D01*
X38738614Y-105823658D01*
X38750000Y-105876000D01*
X38750000Y-107499644D01*
X38749997Y-107500462D01*
X38744032Y-108419043D01*
X38723588Y-108487033D01*
X38669632Y-108533176D01*
X38599294Y-108542823D01*
X38533235Y-108511419D01*
X38504107Y-108484914D01*
X38315010Y-108366293D01*
X38107895Y-108283034D01*
X38102407Y-108281897D01*
X38102402Y-108281896D01*
X37937845Y-108247818D01*
X37889310Y-108237767D01*
X37884697Y-108237501D01*
X37834474Y-108234605D01*
X37834470Y-108234605D01*
X37832651Y-108234500D01*
X36988370Y-108234500D01*
X36985583Y-108234749D01*
X36985577Y-108234749D01*
X36916003Y-108240959D01*
X36822661Y-108249289D01*
X36817247Y-108250770D01*
X36817242Y-108250771D01*
X36703470Y-108281896D01*
X36607349Y-108308192D01*
X36602291Y-108310604D01*
X36602287Y-108310606D01*
X36506610Y-108356242D01*
X36405871Y-108404292D01*
X36224595Y-108534552D01*
X36220688Y-108538584D01*
X36213068Y-108546447D01*
X36151298Y-108581447D01*
X36080412Y-108577495D01*
X36037784Y-108551955D01*
X35968260Y-108488693D01*
X35964107Y-108484914D01*
X35775010Y-108366293D01*
X35567895Y-108283034D01*
X35562407Y-108281897D01*
X35562402Y-108281896D01*
X35397845Y-108247818D01*
X35349310Y-108237767D01*
X35344697Y-108237501D01*
X35294474Y-108234605D01*
X35294470Y-108234605D01*
X35292651Y-108234500D01*
X34448370Y-108234500D01*
X34445583Y-108234749D01*
X34445577Y-108234749D01*
X34376003Y-108240959D01*
X34282661Y-108249289D01*
X34277247Y-108250770D01*
X34277242Y-108250771D01*
X34163470Y-108281896D01*
X34067349Y-108308192D01*
X34062291Y-108310604D01*
X34062287Y-108310606D01*
X33966610Y-108356242D01*
X33865871Y-108404292D01*
X33684595Y-108534552D01*
X33529251Y-108694854D01*
X33404750Y-108880132D01*
X33315026Y-109084529D01*
X33313718Y-109089977D01*
X33313716Y-109089983D01*
X33281552Y-109223956D01*
X33262915Y-109301585D01*
X33250066Y-109524438D01*
X33276883Y-109746044D01*
X33342519Y-109959400D01*
X33444901Y-110157759D01*
X33448310Y-110162201D01*
X33448312Y-110162205D01*
X33534975Y-110275146D01*
X33580790Y-110334854D01*
X33745893Y-110485086D01*
X33934990Y-110603707D01*
X33940200Y-110605801D01*
X33940207Y-110605805D01*
X34018640Y-110637335D01*
X34074385Y-110681301D01*
X34097510Y-110748426D01*
X34080673Y-110817398D01*
X34025888Y-110867968D01*
X33865871Y-110944292D01*
X33684595Y-111074552D01*
X33529251Y-111234854D01*
X33404750Y-111420132D01*
X33315026Y-111624529D01*
X33313718Y-111629977D01*
X33313716Y-111629983D01*
X33281552Y-111763956D01*
X33262915Y-111841585D01*
X33250066Y-112064438D01*
X33276883Y-112286044D01*
X33342519Y-112499400D01*
X33444901Y-112697759D01*
X33448310Y-112702201D01*
X33448312Y-112702205D01*
X33534975Y-112815146D01*
X33580790Y-112874854D01*
X33745893Y-113025086D01*
X33934990Y-113143707D01*
X33940200Y-113145801D01*
X33940207Y-113145805D01*
X34018640Y-113177335D01*
X34074385Y-113221301D01*
X34097510Y-113288426D01*
X34080673Y-113357398D01*
X34025888Y-113407968D01*
X33865871Y-113484292D01*
X33684595Y-113614552D01*
X33529251Y-113774854D01*
X33404750Y-113960132D01*
X33315026Y-114164529D01*
X33313718Y-114169977D01*
X33313716Y-114169983D01*
X33281552Y-114303956D01*
X33262915Y-114381585D01*
X33250066Y-114604438D01*
X33276883Y-114826044D01*
X33342519Y-115039400D01*
X33444901Y-115237759D01*
X33448310Y-115242201D01*
X33448312Y-115242205D01*
X33534975Y-115355146D01*
X33580790Y-115414854D01*
X33745893Y-115565086D01*
X33887839Y-115654129D01*
X33934915Y-115707271D01*
X33945787Y-115777431D01*
X33917003Y-115842330D01*
X33895939Y-115862069D01*
X33865426Y-115884699D01*
X33865404Y-115884716D01*
X33864157Y-115885641D01*
X33862961Y-115886623D01*
X33862954Y-115886628D01*
X33732983Y-115993292D01*
X33731794Y-115994268D01*
X33730661Y-115995295D01*
X33730647Y-115995307D01*
X33713884Y-116010501D01*
X33695037Y-116027584D01*
X33677584Y-116045037D01*
X33660501Y-116063884D01*
X33645307Y-116080647D01*
X33645295Y-116080661D01*
X33644268Y-116081794D01*
X33535641Y-116214157D01*
X33506094Y-116253997D01*
X33492376Y-116274527D01*
X33466869Y-116317082D01*
X33386159Y-116468081D01*
X33364958Y-116512906D01*
X33355505Y-116535725D01*
X33338784Y-116582455D01*
X33289081Y-116746308D01*
X33277025Y-116794438D01*
X33272208Y-116818658D01*
X33264932Y-116867714D01*
X33264783Y-116869222D01*
X33264781Y-116869242D01*
X33256217Y-116956198D01*
X33248150Y-117038101D01*
X33245716Y-117087650D01*
X33245716Y-117112350D01*
X33248150Y-117161899D01*
X33248305Y-117163468D01*
X33264781Y-117330758D01*
X33264783Y-117330778D01*
X33264932Y-117332286D01*
X33272208Y-117381342D01*
X33277025Y-117405562D01*
X33289081Y-117453693D01*
X33338784Y-117617545D01*
X33355502Y-117664267D01*
X33356091Y-117665689D01*
X33356098Y-117665707D01*
X33364365Y-117685663D01*
X33364955Y-117687087D01*
X33386159Y-117731919D01*
X33466869Y-117882918D01*
X33492376Y-117925473D01*
X33506094Y-117946003D01*
X33535641Y-117985843D01*
X33644268Y-118118206D01*
X33645295Y-118119339D01*
X33645307Y-118119353D01*
X33660501Y-118136116D01*
X33677584Y-118154963D01*
X33695037Y-118172416D01*
X33713884Y-118189499D01*
X33730647Y-118204693D01*
X33730661Y-118204705D01*
X33731794Y-118205732D01*
X33864157Y-118314359D01*
X33865418Y-118315294D01*
X33865419Y-118315295D01*
X33901696Y-118342200D01*
X33944497Y-118398845D01*
X33949878Y-118469637D01*
X33916132Y-118532101D01*
X33880887Y-118557129D01*
X33870936Y-118561876D01*
X33865871Y-118564292D01*
X33684595Y-118694552D01*
X33529251Y-118854854D01*
X33404750Y-119040132D01*
X33315026Y-119244529D01*
X33313718Y-119249977D01*
X33313716Y-119249983D01*
X33281552Y-119383956D01*
X33262915Y-119461585D01*
X33250066Y-119684438D01*
X33276883Y-119906044D01*
X33342519Y-120119400D01*
X33444901Y-120317759D01*
X33448310Y-120322201D01*
X33448312Y-120322205D01*
X33534975Y-120435146D01*
X33580790Y-120494854D01*
X33745893Y-120645086D01*
X33934990Y-120763707D01*
X33940200Y-120765801D01*
X33940207Y-120765805D01*
X34018640Y-120797335D01*
X34074385Y-120841301D01*
X34097510Y-120908426D01*
X34080673Y-120977398D01*
X34025888Y-121027968D01*
X33865871Y-121104292D01*
X33684595Y-121234552D01*
X33529251Y-121394854D01*
X33404750Y-121580132D01*
X33315026Y-121784529D01*
X33313718Y-121789977D01*
X33313716Y-121789983D01*
X33281552Y-121923956D01*
X33262915Y-122001585D01*
X33250066Y-122224438D01*
X33276883Y-122446044D01*
X33342519Y-122659400D01*
X33444901Y-122857759D01*
X33448310Y-122862201D01*
X33448312Y-122862205D01*
X33534975Y-122975146D01*
X33580790Y-123034854D01*
X33745893Y-123185086D01*
X33934990Y-123303707D01*
X33940200Y-123305801D01*
X33940207Y-123305805D01*
X34018640Y-123337335D01*
X34074385Y-123381301D01*
X34097510Y-123448426D01*
X34080673Y-123517398D01*
X34025888Y-123567968D01*
X33865871Y-123644292D01*
X33684595Y-123774552D01*
X33529251Y-123934854D01*
X33404750Y-124120132D01*
X33315026Y-124324529D01*
X33313718Y-124329977D01*
X33313716Y-124329983D01*
X33281552Y-124463956D01*
X33262915Y-124541585D01*
X33250066Y-124764438D01*
X33276883Y-124986044D01*
X33342519Y-125199400D01*
X33444901Y-125397759D01*
X33448310Y-125402201D01*
X33448312Y-125402205D01*
X33534975Y-125515146D01*
X33580790Y-125574854D01*
X33745893Y-125725086D01*
X33934990Y-125843707D01*
X34142105Y-125926966D01*
X34147593Y-125928103D01*
X34147598Y-125928104D01*
X34297896Y-125959229D01*
X34360690Y-125972233D01*
X34365303Y-125972499D01*
X34415526Y-125975395D01*
X34415530Y-125975395D01*
X34417349Y-125975500D01*
X35261630Y-125975500D01*
X35264417Y-125975251D01*
X35264423Y-125975251D01*
X35333997Y-125969041D01*
X35427339Y-125960711D01*
X35432753Y-125959230D01*
X35432758Y-125959229D01*
X35560104Y-125924390D01*
X35642651Y-125901808D01*
X35647709Y-125899396D01*
X35647713Y-125899394D01*
X35764462Y-125843707D01*
X35844129Y-125805708D01*
X36025405Y-125675448D01*
X36036932Y-125663553D01*
X36098702Y-125628553D01*
X36169588Y-125632505D01*
X36212216Y-125658045D01*
X36285893Y-125725086D01*
X36290647Y-125728068D01*
X36290651Y-125728071D01*
X36349280Y-125764849D01*
X36474990Y-125843707D01*
X36682105Y-125926966D01*
X36687593Y-125928103D01*
X36687598Y-125928104D01*
X36837896Y-125959229D01*
X36900690Y-125972233D01*
X36905303Y-125972499D01*
X36955526Y-125975395D01*
X36955530Y-125975395D01*
X36957349Y-125975500D01*
X37801630Y-125975500D01*
X37804417Y-125975251D01*
X37804423Y-125975251D01*
X37873997Y-125969041D01*
X37967339Y-125960711D01*
X37972753Y-125959230D01*
X37972758Y-125959229D01*
X38100104Y-125924390D01*
X38182651Y-125901808D01*
X38187709Y-125899396D01*
X38187713Y-125899394D01*
X38304462Y-125843707D01*
X38384129Y-125805708D01*
X38388680Y-125802438D01*
X38388688Y-125802433D01*
X38431160Y-125771914D01*
X38498151Y-125748407D01*
X38567218Y-125764849D01*
X38616430Y-125816022D01*
X38630681Y-125875053D01*
X38628246Y-126250000D01*
X33250000Y-126250000D01*
X33250000Y-128250000D01*
X38615259Y-128250000D01*
X38593764Y-131560303D01*
X38575083Y-134437176D01*
X38554639Y-134505166D01*
X38545288Y-134517332D01*
X38545389Y-134517413D01*
X38543180Y-134520161D01*
X38540827Y-134522774D01*
X38474076Y-134616011D01*
X38337806Y-134806351D01*
X38337802Y-134806358D01*
X38335754Y-134809218D01*
X38163888Y-135116736D01*
X38027372Y-135441495D01*
X38026381Y-135444864D01*
X38026379Y-135444868D01*
X37989983Y-135568530D01*
X37927907Y-135779447D01*
X37866733Y-136126381D01*
X37844613Y-136477971D01*
X37848391Y-136555223D01*
X37860597Y-136804786D01*
X37861822Y-136829836D01*
X37862384Y-136833304D01*
X37862384Y-136833307D01*
X37917583Y-137174115D01*
X37918146Y-137177590D01*
X38012882Y-137516898D01*
X38144851Y-137843531D01*
X38312406Y-138153419D01*
X38513460Y-138442698D01*
X38515773Y-138445341D01*
X38515780Y-138445349D01*
X38517313Y-138447100D01*
X38517552Y-138447617D01*
X38517943Y-138448117D01*
X38517826Y-138448208D01*
X38547129Y-138511532D01*
X38548500Y-138530906D01*
X38521307Y-142718683D01*
X38500863Y-142786673D01*
X38470875Y-142818691D01*
X38372454Y-142892454D01*
X38367072Y-142899635D01*
X38291856Y-142999994D01*
X38291854Y-142999997D01*
X38286474Y-143007176D01*
X38236149Y-143141420D01*
X38229500Y-143202623D01*
X38229501Y-145797376D01*
X38229870Y-145800770D01*
X38229870Y-145800776D01*
X38236149Y-145858580D01*
X38233169Y-145858904D01*
X38230191Y-145915773D01*
X38188736Y-145973410D01*
X38122701Y-145999485D01*
X38111317Y-146000000D01*
X35381500Y-146000000D01*
X35313379Y-145979998D01*
X35266886Y-145926342D01*
X35255500Y-145874000D01*
X35255500Y-145586693D01*
X35234808Y-145443546D01*
X35214600Y-145375106D01*
X35212712Y-145370997D01*
X35212710Y-145370991D01*
X35156106Y-145247785D01*
X35154219Y-145243677D01*
X35151767Y-145239887D01*
X35151761Y-145239876D01*
X35145700Y-145230508D01*
X35135944Y-145212314D01*
X35078960Y-145081262D01*
X35072307Y-145061718D01*
X35037492Y-144923115D01*
X35034120Y-144902743D01*
X35025424Y-144796967D01*
X35025000Y-144786643D01*
X35025000Y-144202948D01*
X35025713Y-144189558D01*
X35038148Y-144073206D01*
X35042018Y-144052924D01*
X35080205Y-143915227D01*
X35087334Y-143895849D01*
X35168555Y-143720871D01*
X35169362Y-143719133D01*
X35169125Y-143719023D01*
X35170653Y-143714064D01*
X35209064Y-143634343D01*
X35209067Y-143634335D01*
X35211111Y-143630093D01*
X35233023Y-143559089D01*
X35255500Y-143410027D01*
X35255500Y-142302190D01*
X35252605Y-142248163D01*
X35249726Y-142221380D01*
X35241067Y-142167949D01*
X35190785Y-142033141D01*
X35156759Y-141970829D01*
X35154062Y-141967227D01*
X35154058Y-141967220D01*
X35073242Y-141859266D01*
X35073240Y-141859264D01*
X35070537Y-141855653D01*
X34292405Y-141077521D01*
X34258379Y-141015209D01*
X34255500Y-140988426D01*
X34255500Y-137078280D01*
X34252580Y-137024024D01*
X34249677Y-136997133D01*
X34249407Y-136995471D01*
X34249404Y-136995452D01*
X34241945Y-136949618D01*
X34240950Y-136943501D01*
X34190550Y-136808737D01*
X34156470Y-136746455D01*
X34087192Y-136654078D01*
X34080864Y-136644806D01*
X34057132Y-136606456D01*
X34044755Y-136580032D01*
X34036478Y-136555223D01*
X34030001Y-136515347D01*
X34030000Y-135984737D01*
X34036408Y-135945068D01*
X34044615Y-135920326D01*
X34056947Y-135893879D01*
X34071398Y-135870435D01*
X34084866Y-135852413D01*
X34105792Y-135829086D01*
X34105793Y-135829085D01*
X34106916Y-135827833D01*
X34111283Y-135822410D01*
X34122674Y-135808261D01*
X34123740Y-135806937D01*
X34124719Y-135805579D01*
X34124731Y-135805563D01*
X34151633Y-135768238D01*
X34155252Y-135763217D01*
X34215022Y-135632339D01*
X34235024Y-135564218D01*
X34255500Y-135421803D01*
X34255500Y-133126000D01*
X34243948Y-133018551D01*
X34232562Y-132966209D01*
X34198433Y-132863667D01*
X34120646Y-132742627D01*
X34074153Y-132688971D01*
X34062955Y-132679267D01*
X33972226Y-132600650D01*
X33972223Y-132600648D01*
X33965414Y-132594748D01*
X33834536Y-132534978D01*
X33766415Y-132514976D01*
X33761975Y-132514338D01*
X33761972Y-132514337D01*
X33628446Y-132495139D01*
X33628443Y-132495139D01*
X33624000Y-132494500D01*
X32126500Y-132494500D01*
X32058379Y-132474498D01*
X32011886Y-132420842D01*
X32000500Y-132368500D01*
X32000500Y-101376000D01*
X32020502Y-101307879D01*
X32074158Y-101261386D01*
X32126500Y-101250000D01*
X36874000Y-101250000D01*
X36942121Y-101270002D01*
G37*
G04 #@! TD.AperFunction*
G04 #@! TA.AperFunction,Conductor*
G36*
X44442121Y-62020002D02*
G01*
X44488614Y-62073658D01*
X44500000Y-62126000D01*
X44500000Y-68374000D01*
X44479998Y-68442121D01*
X44426342Y-68488614D01*
X44374000Y-68500000D01*
X38126000Y-68500000D01*
X38057879Y-68479998D01*
X38011386Y-68426342D01*
X38000000Y-68374000D01*
X38000000Y-62126000D01*
X38020002Y-62057879D01*
X38073658Y-62011386D01*
X38126000Y-62000000D01*
X44374000Y-62000000D01*
X44442121Y-62020002D01*
G37*
G04 #@! TD.AperFunction*
G04 #@! TA.AperFunction,Conductor*
G36*
X34692121Y-77770002D02*
G01*
X34738614Y-77823658D01*
X34750000Y-77876000D01*
X34750000Y-89224000D01*
X34729998Y-89292121D01*
X34676342Y-89338614D01*
X34624000Y-89350000D01*
X32126500Y-89350000D01*
X32058379Y-89329998D01*
X32011886Y-89276342D01*
X32000500Y-89224000D01*
X32000500Y-77876000D01*
X32020502Y-77807879D01*
X32074158Y-77761386D01*
X32126500Y-77750000D01*
X34624000Y-77750000D01*
X34692121Y-77770002D01*
G37*
G04 #@! TD.AperFunction*
G04 #@! TA.AperFunction,Conductor*
G36*
X42038887Y-92257561D02*
G01*
X42190829Y-92312714D01*
X42190833Y-92312715D01*
X42195844Y-92314534D01*
X42201093Y-92315483D01*
X42201096Y-92315484D01*
X42425641Y-92356088D01*
X42425648Y-92356089D01*
X42429725Y-92356826D01*
X42447991Y-92357687D01*
X42453131Y-92357930D01*
X42453138Y-92357930D01*
X42454619Y-92358000D01*
X43321680Y-92358000D01*
X43404026Y-92351013D01*
X43493512Y-92343420D01*
X43493516Y-92343419D01*
X43498823Y-92342969D01*
X43503978Y-92341631D01*
X43503984Y-92341630D01*
X43608379Y-92314534D01*
X43728874Y-92283260D01*
X43733740Y-92281068D01*
X43733743Y-92281067D01*
X43778028Y-92261118D01*
X43829778Y-92250000D01*
X49873500Y-92250000D01*
X49941621Y-92270002D01*
X49988114Y-92323658D01*
X49999500Y-92376000D01*
X49999500Y-132618500D01*
X49979498Y-132686621D01*
X49925842Y-132733114D01*
X49873500Y-132744500D01*
X48376000Y-132744500D01*
X48372652Y-132744860D01*
X48372651Y-132744860D01*
X48346968Y-132747621D01*
X48268551Y-132756052D01*
X48265267Y-132756766D01*
X48265263Y-132756767D01*
X48240192Y-132762221D01*
X48216209Y-132767438D01*
X48113667Y-132801567D01*
X47992627Y-132879354D01*
X47938971Y-132925847D01*
X47936031Y-132929240D01*
X47850650Y-133027774D01*
X47850648Y-133027777D01*
X47844748Y-133034586D01*
X47784978Y-133165464D01*
X47764976Y-133233585D01*
X47744500Y-133376000D01*
X47744500Y-135421720D01*
X47747420Y-135475976D01*
X47747600Y-135477643D01*
X47747601Y-135477656D01*
X47748189Y-135483102D01*
X47750323Y-135502867D01*
X47750593Y-135504529D01*
X47750596Y-135504548D01*
X47755054Y-135531942D01*
X47759050Y-135556499D01*
X47809450Y-135691263D01*
X47843530Y-135753545D01*
X47912808Y-135845922D01*
X47919136Y-135855194D01*
X47942867Y-135893541D01*
X47955245Y-135919968D01*
X47963522Y-135944777D01*
X47969999Y-135984653D01*
X47970000Y-136515263D01*
X47963592Y-136554932D01*
X47955385Y-136579674D01*
X47943053Y-136606121D01*
X47928602Y-136629565D01*
X47915134Y-136647587D01*
X47893084Y-136672167D01*
X47876260Y-136693063D01*
X47875281Y-136694421D01*
X47875269Y-136694437D01*
X47849200Y-136730606D01*
X47844748Y-136736783D01*
X47784978Y-136867661D01*
X47764976Y-136935782D01*
X47744500Y-137078197D01*
X47744500Y-141238426D01*
X47724498Y-141306547D01*
X47707595Y-141327521D01*
X46929463Y-142105653D01*
X46893312Y-142145897D01*
X46876409Y-142166871D01*
X46844748Y-142210776D01*
X46784978Y-142341654D01*
X46764976Y-142409775D01*
X46744500Y-142552190D01*
X46744500Y-142778804D01*
X46752507Y-142868420D01*
X46760427Y-142912387D01*
X46784194Y-142999163D01*
X46853079Y-143125482D01*
X46855777Y-143129090D01*
X46892903Y-143178743D01*
X46892908Y-143178749D01*
X46895594Y-143182341D01*
X46898769Y-143185519D01*
X46918144Y-143204916D01*
X46952134Y-143267247D01*
X46954999Y-143293962D01*
X46955000Y-145624000D01*
X46934998Y-145692121D01*
X46881342Y-145738614D01*
X46829000Y-145750000D01*
X43642788Y-145750000D01*
X43574667Y-145729998D01*
X43528174Y-145676342D01*
X43518070Y-145606068D01*
X43538700Y-145552996D01*
X43576230Y-145497979D01*
X43579149Y-145493700D01*
X43683035Y-145269896D01*
X43748974Y-145032129D01*
X43770500Y-144830708D01*
X43770500Y-144187446D01*
X43770288Y-144184862D01*
X43755849Y-144009240D01*
X43755848Y-144009234D01*
X43755425Y-144004089D01*
X43695316Y-143764783D01*
X43596928Y-143538507D01*
X43520208Y-143419916D01*
X43500000Y-143351476D01*
X43500000Y-138460653D01*
X43523549Y-138387306D01*
X43662194Y-138193649D01*
X43662198Y-138193642D01*
X43664246Y-138190782D01*
X43836112Y-137883264D01*
X43972628Y-137558505D01*
X44072093Y-137220553D01*
X44133267Y-136873619D01*
X44147488Y-136647587D01*
X44155166Y-136525547D01*
X44155166Y-136525541D01*
X44155387Y-136522029D01*
X44138178Y-136170164D01*
X44107046Y-135977946D01*
X44082417Y-135825885D01*
X44082416Y-135825882D01*
X44081854Y-135822410D01*
X43987118Y-135483102D01*
X43855149Y-135156469D01*
X43687594Y-134846581D01*
X43522535Y-134609092D01*
X43500000Y-134537182D01*
X43500000Y-128881500D01*
X43520002Y-128813379D01*
X43573658Y-128766886D01*
X43626000Y-128755500D01*
X46993813Y-128755500D01*
X46994542Y-128755482D01*
X46994551Y-128755482D01*
X47013427Y-128755019D01*
X47018628Y-128754891D01*
X47019435Y-128754851D01*
X47019444Y-128754851D01*
X47022470Y-128754702D01*
X47030978Y-128754284D01*
X47055713Y-128752459D01*
X47056468Y-128752385D01*
X47056487Y-128752383D01*
X47230738Y-128735220D01*
X47230743Y-128735219D01*
X47232290Y-128735067D01*
X47233819Y-128734840D01*
X47233837Y-128734838D01*
X47279794Y-128728021D01*
X47279799Y-128728020D01*
X47281337Y-128727792D01*
X47305554Y-128722976D01*
X47353692Y-128710919D01*
X47517545Y-128661216D01*
X47519003Y-128660694D01*
X47519013Y-128660691D01*
X47538993Y-128653541D01*
X47564275Y-128644495D01*
X47565690Y-128643909D01*
X47585692Y-128635623D01*
X47585699Y-128635620D01*
X47587094Y-128635042D01*
X47631919Y-128613841D01*
X47633280Y-128613114D01*
X47633293Y-128613107D01*
X47781552Y-128533861D01*
X47781560Y-128533856D01*
X47782921Y-128533129D01*
X47825476Y-128507622D01*
X47846003Y-128493906D01*
X47885843Y-128464359D01*
X47891165Y-128459992D01*
X48017019Y-128356706D01*
X48018206Y-128355732D01*
X48024498Y-128350029D01*
X48035583Y-128341070D01*
X48205846Y-128218724D01*
X48210405Y-128215448D01*
X48365749Y-128055146D01*
X48490250Y-127869868D01*
X48579974Y-127665471D01*
X48581282Y-127660023D01*
X48581284Y-127660017D01*
X48630775Y-127453872D01*
X48630775Y-127453871D01*
X48632085Y-127448415D01*
X48644934Y-127225562D01*
X48618117Y-127003956D01*
X48552481Y-126790600D01*
X48450099Y-126592241D01*
X48446690Y-126587799D01*
X48446688Y-126587795D01*
X48317620Y-126419590D01*
X48314210Y-126415146D01*
X48149107Y-126264914D01*
X48132795Y-126254681D01*
X48105937Y-126231609D01*
X48105732Y-126231794D01*
X48072416Y-126195037D01*
X48054963Y-126177584D01*
X48036116Y-126160501D01*
X48019353Y-126145307D01*
X48019339Y-126145295D01*
X48018206Y-126144268D01*
X48017012Y-126143288D01*
X47914574Y-126059219D01*
X47874606Y-126000542D01*
X47872705Y-125929571D01*
X47909476Y-125868839D01*
X47940262Y-125848095D01*
X48029129Y-125805708D01*
X48210405Y-125675448D01*
X48365749Y-125515146D01*
X48490250Y-125329868D01*
X48579974Y-125125471D01*
X48581282Y-125120023D01*
X48581284Y-125120017D01*
X48630775Y-124913872D01*
X48630775Y-124913871D01*
X48632085Y-124908415D01*
X48644934Y-124685562D01*
X48618117Y-124463956D01*
X48552481Y-124250600D01*
X48450099Y-124052241D01*
X48446690Y-124047799D01*
X48446688Y-124047795D01*
X48317620Y-123879590D01*
X48314210Y-123875146D01*
X48149107Y-123724914D01*
X47960010Y-123606293D01*
X47954800Y-123604199D01*
X47954793Y-123604195D01*
X47876360Y-123572665D01*
X47820615Y-123528699D01*
X47797490Y-123461574D01*
X47814327Y-123392602D01*
X47869112Y-123342032D01*
X48029129Y-123265708D01*
X48210405Y-123135448D01*
X48365749Y-122975146D01*
X48490250Y-122789868D01*
X48579974Y-122585471D01*
X48581282Y-122580023D01*
X48581284Y-122580017D01*
X48630775Y-122373872D01*
X48630775Y-122373871D01*
X48632085Y-122368415D01*
X48644934Y-122145562D01*
X48618117Y-121923956D01*
X48552481Y-121710600D01*
X48450099Y-121512241D01*
X48446690Y-121507799D01*
X48446688Y-121507795D01*
X48317620Y-121339590D01*
X48314210Y-121335146D01*
X48149107Y-121184914D01*
X47960010Y-121066293D01*
X47954800Y-121064199D01*
X47954793Y-121064195D01*
X47876360Y-121032665D01*
X47820615Y-120988699D01*
X47797490Y-120921574D01*
X47814327Y-120852602D01*
X47869112Y-120802032D01*
X48029129Y-120725708D01*
X48210405Y-120595448D01*
X48365749Y-120435146D01*
X48490250Y-120249868D01*
X48579974Y-120045471D01*
X48581282Y-120040023D01*
X48581284Y-120040017D01*
X48630775Y-119833872D01*
X48630775Y-119833871D01*
X48632085Y-119828415D01*
X48644934Y-119605562D01*
X48618117Y-119383956D01*
X48552481Y-119170600D01*
X48450099Y-118972241D01*
X48446690Y-118967799D01*
X48446688Y-118967795D01*
X48317620Y-118799590D01*
X48314210Y-118795146D01*
X48149107Y-118644914D01*
X47960010Y-118526293D01*
X47752895Y-118443034D01*
X47747407Y-118441897D01*
X47747402Y-118441896D01*
X47580270Y-118407285D01*
X47534310Y-118397767D01*
X47529697Y-118397501D01*
X47479474Y-118394605D01*
X47479470Y-118394605D01*
X47477651Y-118394500D01*
X46633370Y-118394500D01*
X46630583Y-118394749D01*
X46630577Y-118394749D01*
X46561003Y-118400959D01*
X46467661Y-118409289D01*
X46462247Y-118410770D01*
X46462242Y-118410771D01*
X46348470Y-118441896D01*
X46252349Y-118468192D01*
X46247291Y-118470604D01*
X46247287Y-118470606D01*
X46196610Y-118494778D01*
X46050871Y-118564292D01*
X45869595Y-118694552D01*
X45865688Y-118698584D01*
X45858068Y-118706447D01*
X45796298Y-118741447D01*
X45725412Y-118737495D01*
X45682784Y-118711955D01*
X45613260Y-118648693D01*
X45609107Y-118644914D01*
X45420010Y-118526293D01*
X45212895Y-118443034D01*
X45207407Y-118441897D01*
X45207402Y-118441896D01*
X45040270Y-118407285D01*
X44994310Y-118397767D01*
X44989697Y-118397501D01*
X44939474Y-118394605D01*
X44939470Y-118394605D01*
X44937651Y-118394500D01*
X44093370Y-118394500D01*
X44090583Y-118394749D01*
X44090577Y-118394749D01*
X44021003Y-118400959D01*
X43927661Y-118409289D01*
X43922247Y-118410770D01*
X43922242Y-118410771D01*
X43808470Y-118441896D01*
X43712349Y-118468192D01*
X43707291Y-118470604D01*
X43707287Y-118470606D01*
X43680244Y-118483505D01*
X43610148Y-118494778D01*
X43545085Y-118466364D01*
X43505712Y-118407285D01*
X43500000Y-118369779D01*
X43500000Y-118100000D01*
X48000000Y-118100000D01*
X48000000Y-116100000D01*
X43500000Y-116100000D01*
X43500000Y-115838003D01*
X43520002Y-115769882D01*
X43573658Y-115723389D01*
X43643932Y-115713285D01*
X43672996Y-115721095D01*
X43728204Y-115743288D01*
X43787105Y-115766966D01*
X43792593Y-115768103D01*
X43792598Y-115768104D01*
X43942896Y-115799229D01*
X44005690Y-115812233D01*
X44010303Y-115812499D01*
X44060526Y-115815395D01*
X44060530Y-115815395D01*
X44062349Y-115815500D01*
X44906630Y-115815500D01*
X44909417Y-115815251D01*
X44909423Y-115815251D01*
X44978997Y-115809041D01*
X45072339Y-115800711D01*
X45077753Y-115799230D01*
X45077758Y-115799229D01*
X45205104Y-115764390D01*
X45287651Y-115741808D01*
X45292709Y-115739396D01*
X45292713Y-115739394D01*
X45409462Y-115683707D01*
X45489129Y-115645708D01*
X45670405Y-115515448D01*
X45681932Y-115503553D01*
X45743702Y-115468553D01*
X45814588Y-115472505D01*
X45857216Y-115498045D01*
X45930893Y-115565086D01*
X46119990Y-115683707D01*
X46327105Y-115766966D01*
X46332593Y-115768103D01*
X46332598Y-115768104D01*
X46482896Y-115799229D01*
X46545690Y-115812233D01*
X46550303Y-115812499D01*
X46600526Y-115815395D01*
X46600530Y-115815395D01*
X46602349Y-115815500D01*
X47446630Y-115815500D01*
X47449417Y-115815251D01*
X47449423Y-115815251D01*
X47518997Y-115809041D01*
X47612339Y-115800711D01*
X47617753Y-115799230D01*
X47617758Y-115799229D01*
X47745104Y-115764390D01*
X47827651Y-115741808D01*
X47832709Y-115739396D01*
X47832713Y-115739394D01*
X47949462Y-115683707D01*
X48029129Y-115645708D01*
X48210405Y-115515448D01*
X48365749Y-115355146D01*
X48490250Y-115169868D01*
X48579974Y-114965471D01*
X48581282Y-114960023D01*
X48581284Y-114960017D01*
X48630775Y-114753872D01*
X48630775Y-114753871D01*
X48632085Y-114748415D01*
X48644934Y-114525562D01*
X48618117Y-114303956D01*
X48552481Y-114090600D01*
X48450099Y-113892241D01*
X48446690Y-113887799D01*
X48446688Y-113887795D01*
X48317620Y-113719590D01*
X48314210Y-113715146D01*
X48149107Y-113564914D01*
X47960010Y-113446293D01*
X47954800Y-113444199D01*
X47954793Y-113444195D01*
X47876360Y-113412665D01*
X47820615Y-113368699D01*
X47797490Y-113301574D01*
X47814327Y-113232602D01*
X47869112Y-113182032D01*
X48029129Y-113105708D01*
X48210405Y-112975448D01*
X48365749Y-112815146D01*
X48490250Y-112629868D01*
X48579974Y-112425471D01*
X48581282Y-112420023D01*
X48581284Y-112420017D01*
X48630775Y-112213872D01*
X48630775Y-112213871D01*
X48632085Y-112208415D01*
X48644934Y-111985562D01*
X48618117Y-111763956D01*
X48552481Y-111550600D01*
X48450099Y-111352241D01*
X48446690Y-111347799D01*
X48446688Y-111347795D01*
X48317620Y-111179590D01*
X48314210Y-111175146D01*
X48149107Y-111024914D01*
X47960010Y-110906293D01*
X47954800Y-110904199D01*
X47954793Y-110904195D01*
X47876360Y-110872665D01*
X47820615Y-110828699D01*
X47797490Y-110761574D01*
X47814327Y-110692602D01*
X47869112Y-110642032D01*
X48029129Y-110565708D01*
X48210405Y-110435448D01*
X48365749Y-110275146D01*
X48490250Y-110089868D01*
X48579974Y-109885471D01*
X48581282Y-109880023D01*
X48581284Y-109880017D01*
X48630775Y-109673872D01*
X48630775Y-109673871D01*
X48632085Y-109668415D01*
X48644934Y-109445562D01*
X48618117Y-109223956D01*
X48552481Y-109010600D01*
X48450099Y-108812241D01*
X48446690Y-108807799D01*
X48446688Y-108807795D01*
X48317620Y-108639590D01*
X48314210Y-108635146D01*
X48149107Y-108484914D01*
X47960010Y-108366293D01*
X47752895Y-108283034D01*
X47747407Y-108281897D01*
X47747402Y-108281896D01*
X47580270Y-108247285D01*
X47534310Y-108237767D01*
X47529697Y-108237501D01*
X47479474Y-108234605D01*
X47479470Y-108234605D01*
X47477651Y-108234500D01*
X46633370Y-108234500D01*
X46630583Y-108234749D01*
X46630577Y-108234749D01*
X46561003Y-108240959D01*
X46467661Y-108249289D01*
X46462247Y-108250770D01*
X46462242Y-108250771D01*
X46348470Y-108281896D01*
X46252349Y-108308192D01*
X46247291Y-108310604D01*
X46247287Y-108310606D01*
X46196610Y-108334778D01*
X46050871Y-108404292D01*
X45869595Y-108534552D01*
X45865688Y-108538584D01*
X45858068Y-108546447D01*
X45796298Y-108581447D01*
X45725412Y-108577495D01*
X45682784Y-108551955D01*
X45613260Y-108488693D01*
X45609107Y-108484914D01*
X45420010Y-108366293D01*
X45212895Y-108283034D01*
X45207407Y-108281897D01*
X45207402Y-108281896D01*
X45040270Y-108247285D01*
X44994310Y-108237767D01*
X44989697Y-108237501D01*
X44939474Y-108234605D01*
X44939470Y-108234605D01*
X44937651Y-108234500D01*
X44093370Y-108234500D01*
X44090583Y-108234749D01*
X44090577Y-108234749D01*
X44021003Y-108240959D01*
X43927661Y-108249289D01*
X43922247Y-108250770D01*
X43922242Y-108250771D01*
X43808470Y-108281896D01*
X43712349Y-108308192D01*
X43707291Y-108310604D01*
X43707287Y-108310606D01*
X43680244Y-108323505D01*
X43610148Y-108334778D01*
X43545085Y-108306364D01*
X43505712Y-108247285D01*
X43500000Y-108209779D01*
X43500000Y-99937821D01*
X43520002Y-99869700D01*
X43548253Y-99838668D01*
X43553910Y-99834233D01*
X43560408Y-99830297D01*
X43680297Y-99710408D01*
X43768127Y-99565383D01*
X43818829Y-99403594D01*
X43825500Y-99330993D01*
X43825499Y-98669008D01*
X43818829Y-98596406D01*
X43768127Y-98434617D01*
X43680297Y-98289592D01*
X43560408Y-98169703D01*
X43553910Y-98165767D01*
X43548253Y-98161332D01*
X43506989Y-98103559D01*
X43500000Y-98062179D01*
X43500000Y-97250000D01*
X41376000Y-97250000D01*
X41307879Y-97229998D01*
X41261386Y-97176342D01*
X41250000Y-97124000D01*
X41250000Y-92376000D01*
X41270002Y-92307879D01*
X41323658Y-92261386D01*
X41376000Y-92250000D01*
X41995896Y-92250000D01*
X42038887Y-92257561D01*
G37*
G04 #@! TD.AperFunction*
G04 #@! TA.AperFunction,Conductor*
G36*
X47942121Y-55520002D02*
G01*
X47988614Y-55573658D01*
X48000000Y-55626000D01*
X48000000Y-77874000D01*
X47979998Y-77942121D01*
X47926342Y-77988614D01*
X47874000Y-78000000D01*
X45126000Y-78000000D01*
X45057879Y-77979998D01*
X45011386Y-77926342D01*
X45000000Y-77874000D01*
X45000000Y-55626000D01*
X45020002Y-55557879D01*
X45073658Y-55511386D01*
X45126000Y-55500000D01*
X47874000Y-55500000D01*
X47942121Y-55520002D01*
G37*
G04 #@! TD.AperFunction*
G04 #@! TA.AperFunction,Conductor*
G36*
X49941621Y-133270002D02*
G01*
X49988114Y-133323658D01*
X49999500Y-133376000D01*
X49999500Y-147623500D01*
X49979498Y-147691621D01*
X49925842Y-147738114D01*
X49873500Y-147749500D01*
X47250000Y-147749500D01*
X47250000Y-146158170D01*
X47310365Y-146112928D01*
X47317546Y-146107546D01*
X47322928Y-146100365D01*
X47398144Y-146000006D01*
X47398146Y-146000003D01*
X47403526Y-145992824D01*
X47453851Y-145858580D01*
X47460500Y-145797377D01*
X47460499Y-143202624D01*
X47453851Y-143141420D01*
X47403526Y-143007176D01*
X47398146Y-142999997D01*
X47398144Y-142999994D01*
X47322928Y-142899635D01*
X47317546Y-142892454D01*
X47300435Y-142879630D01*
X47257920Y-142822771D01*
X47250000Y-142778804D01*
X47250000Y-142552190D01*
X47270002Y-142484069D01*
X47286905Y-142463095D01*
X48250000Y-141500000D01*
X48250000Y-137078197D01*
X48270002Y-137010076D01*
X48286826Y-136989180D01*
X48318059Y-136957892D01*
X48323231Y-136952711D01*
X48412003Y-136808697D01*
X48465263Y-136648124D01*
X48475500Y-136548207D01*
X48475499Y-135951794D01*
X48465003Y-135850628D01*
X48411463Y-135690148D01*
X48322440Y-135546289D01*
X48317258Y-135541116D01*
X48317254Y-135541111D01*
X48286983Y-135510893D01*
X48252903Y-135448611D01*
X48250000Y-135421720D01*
X48250000Y-133376000D01*
X48270002Y-133307879D01*
X48323658Y-133261386D01*
X48376000Y-133250000D01*
X49873500Y-133250000D01*
X49941621Y-133270002D01*
G37*
G04 #@! TD.AperFunction*
G04 #@! TA.AperFunction,Conductor*
G36*
X33692121Y-133020002D02*
G01*
X33738614Y-133073658D01*
X33750000Y-133126000D01*
X33750000Y-135421803D01*
X33729998Y-135489924D01*
X33713174Y-135510820D01*
X33676769Y-135547289D01*
X33587997Y-135691303D01*
X33534737Y-135851876D01*
X33524500Y-135951793D01*
X33524501Y-136548206D01*
X33534997Y-136649372D01*
X33588537Y-136809852D01*
X33677560Y-136953711D01*
X33682742Y-136958884D01*
X33682746Y-136958889D01*
X33713017Y-136989107D01*
X33747097Y-137051389D01*
X33750000Y-137078280D01*
X33750000Y-141250000D01*
X34713095Y-142213095D01*
X34747121Y-142275407D01*
X34750000Y-142302190D01*
X34750000Y-143410027D01*
X34728088Y-143481031D01*
X34710851Y-143506300D01*
X34606965Y-143730104D01*
X34541026Y-143967871D01*
X34519500Y-144169292D01*
X34519500Y-144812554D01*
X34519712Y-144815127D01*
X34519712Y-144815138D01*
X34534151Y-144990760D01*
X34534152Y-144990766D01*
X34534575Y-144995911D01*
X34594684Y-145235217D01*
X34693072Y-145461493D01*
X34713908Y-145493700D01*
X34729792Y-145518253D01*
X34750000Y-145586693D01*
X34750000Y-147749500D01*
X32126500Y-147749500D01*
X32058379Y-147729498D01*
X32011886Y-147675842D01*
X32000500Y-147623500D01*
X32000500Y-133126000D01*
X32020502Y-133057879D01*
X32074158Y-133011386D01*
X32126500Y-133000000D01*
X33624000Y-133000000D01*
X33692121Y-133020002D01*
G37*
G04 #@! TD.AperFunction*
M02*
