G04 #@! TF.GenerationSoftware,KiCad,Pcbnew,6.0.10-86aedd382b~118~ubuntu18.04.1*
G04 #@! TF.CreationDate,2024-03-18T10:27:50-04:00*
G04 #@! TF.ProjectId,4UP,3455502e-6b69-4636-9164-5f7063625858,rev?*
G04 #@! TF.SameCoordinates,Original*
G04 #@! TF.FileFunction,Copper,L3,Inr*
G04 #@! TF.FilePolarity,Positive*
%FSLAX46Y46*%
G04 Gerber Fmt 4.6, Leading zero omitted, Abs format (unit mm)*
G04 Created by KiCad (PCBNEW 6.0.10-86aedd382b~118~ubuntu18.04.1) date 2024-03-18 10:27:50*
%MOMM*%
%LPD*%
G01*
G04 APERTURE LIST*
G04 Aperture macros list*
%AMRoundRect*
0 Rectangle with rounded corners*
0 $1 Rounding radius*
0 $2 $3 $4 $5 $6 $7 $8 $9 X,Y pos of 4 corners*
0 Add a 4 corners polygon primitive as box body*
4,1,4,$2,$3,$4,$5,$6,$7,$8,$9,$2,$3,0*
0 Add four circle primitives for the rounded corners*
1,1,$1+$1,$2,$3*
1,1,$1+$1,$4,$5*
1,1,$1+$1,$6,$7*
1,1,$1+$1,$8,$9*
0 Add four rect primitives between the rounded corners*
20,1,$1+$1,$2,$3,$4,$5,0*
20,1,$1+$1,$4,$5,$6,$7,0*
20,1,$1+$1,$6,$7,$8,$9,0*
20,1,$1+$1,$8,$9,$2,$3,0*%
%AMHorizOval*
0 Thick line with rounded ends*
0 $1 width*
0 $2 $3 position (X,Y) of the first rounded end (center of the circle)*
0 $4 $5 position (X,Y) of the second rounded end (center of the circle)*
0 Add line between two ends*
20,1,$1,$2,$3,$4,$5,0*
0 Add two circle primitives to create the rounded ends*
1,1,$1,$2,$3*
1,1,$1,$4,$5*%
G04 Aperture macros list end*
G04 #@! TA.AperFunction,ComponentPad*
%ADD10R,1.800000X1.800000*%
G04 #@! TD*
G04 #@! TA.AperFunction,ComponentPad*
%ADD11C,1.800000*%
G04 #@! TD*
G04 #@! TA.AperFunction,ComponentPad*
%ADD12RoundRect,0.220589X-0.879411X-0.529411X0.879411X-0.529411X0.879411X0.529411X-0.879411X0.529411X0*%
G04 #@! TD*
G04 #@! TA.AperFunction,ComponentPad*
%ADD13O,2.200000X1.500000*%
G04 #@! TD*
G04 #@! TA.AperFunction,ComponentPad*
%ADD14R,4.000000X2.500000*%
G04 #@! TD*
G04 #@! TA.AperFunction,ComponentPad*
%ADD15O,4.000000X2.500000*%
G04 #@! TD*
G04 #@! TA.AperFunction,ComponentPad*
%ADD16R,2.000000X2.500000*%
G04 #@! TD*
G04 #@! TA.AperFunction,ComponentPad*
%ADD17O,2.000000X2.500000*%
G04 #@! TD*
G04 #@! TA.AperFunction,ComponentPad*
%ADD18HorizOval,2.540000X1.226726X-0.328700X-1.226726X0.328700X0*%
G04 #@! TD*
G04 #@! TA.AperFunction,ComponentPad*
%ADD19R,2.540000X5.080000*%
G04 #@! TD*
G04 #@! TA.AperFunction,ComponentPad*
%ADD20O,5.080000X2.540000*%
G04 #@! TD*
G04 #@! TA.AperFunction,ComponentPad*
%ADD21R,2.750000X2.000000*%
G04 #@! TD*
G04 #@! TA.AperFunction,ComponentPad*
%ADD22O,2.750000X2.000000*%
G04 #@! TD*
G04 #@! TA.AperFunction,ComponentPad*
%ADD23R,2.500000X1.800000*%
G04 #@! TD*
G04 #@! TA.AperFunction,ComponentPad*
%ADD24O,2.500000X1.800000*%
G04 #@! TD*
G04 #@! TA.AperFunction,ComponentPad*
%ADD25R,2.800000X1.600000*%
G04 #@! TD*
G04 #@! TA.AperFunction,ViaPad*
%ADD26C,0.800000*%
G04 #@! TD*
G04 #@! TA.AperFunction,Conductor*
%ADD27C,1.000000*%
G04 #@! TD*
G04 APERTURE END LIST*
D10*
X41000000Y-101500000D03*
D11*
X41000000Y-98960000D03*
D12*
X34855000Y-127265000D03*
D13*
X37395000Y-127265000D03*
X34855000Y-124725000D03*
X37395000Y-124725000D03*
X34855000Y-122185000D03*
X37395000Y-122185000D03*
X34855000Y-119645000D03*
X37395000Y-119645000D03*
X34855000Y-117105000D03*
X37395000Y-117105000D03*
X34855000Y-114565000D03*
X37395000Y-114565000D03*
X34855000Y-112025000D03*
X37395000Y-112025000D03*
X34855000Y-109485000D03*
X37395000Y-109485000D03*
D12*
X44500000Y-127265000D03*
D13*
X47040000Y-127265000D03*
X44500000Y-124725000D03*
X47040000Y-124725000D03*
X44500000Y-122185000D03*
X47040000Y-122185000D03*
X44500000Y-119645000D03*
X47040000Y-119645000D03*
X44500000Y-117105000D03*
X47040000Y-117105000D03*
X44500000Y-114565000D03*
X47040000Y-114565000D03*
X44500000Y-112025000D03*
X47040000Y-112025000D03*
X44500000Y-109485000D03*
X47040000Y-109485000D03*
D14*
X41000000Y-60000000D03*
D15*
X41000000Y-67000000D03*
D16*
X45960000Y-144500000D03*
D17*
X48500000Y-144500000D03*
D16*
X39730000Y-144500000D03*
D17*
X42270000Y-144500000D03*
D18*
X40000000Y-50810000D03*
D19*
X44810000Y-47000000D03*
D20*
X41000000Y-43190000D03*
D16*
X33480000Y-144500000D03*
D17*
X36020000Y-144500000D03*
D21*
X33507750Y-73290000D03*
D22*
X33507750Y-70750000D03*
X33507750Y-68210000D03*
D23*
X42912000Y-88417500D03*
D24*
X42912000Y-90957500D03*
X42912000Y-93497500D03*
D25*
X34000000Y-42750000D03*
D23*
X33412000Y-88417500D03*
D24*
X33412000Y-90957500D03*
X33412000Y-93497500D03*
D26*
X33000000Y-76500000D03*
X34000000Y-76500000D03*
X35000000Y-76500000D03*
X36000000Y-76500000D03*
X37000000Y-76500000D03*
X38000000Y-76500000D03*
X32500000Y-59500000D03*
X33500000Y-59500000D03*
X34500000Y-59500000D03*
X40250000Y-104750000D03*
X40250000Y-95000000D03*
X36000000Y-86000000D03*
X37500000Y-86000000D03*
X49250000Y-72000000D03*
X49250000Y-85750000D03*
X49250000Y-71000000D03*
X49250000Y-86750000D03*
X49250000Y-70000000D03*
X49250000Y-65250000D03*
X49250000Y-63250000D03*
X49250000Y-64250000D03*
X49250000Y-73000000D03*
X35500000Y-104750000D03*
X34500000Y-105750000D03*
X35500000Y-106750000D03*
X34500000Y-106750000D03*
X36500000Y-106750000D03*
X35500000Y-105750000D03*
X33500000Y-105750000D03*
X32500000Y-104750000D03*
X33500000Y-106750000D03*
X32500000Y-106750000D03*
X32500000Y-105750000D03*
X36500000Y-104750000D03*
X33500000Y-104750000D03*
X34500000Y-104750000D03*
X36500000Y-105750000D03*
X49000000Y-103500000D03*
X46000000Y-103500000D03*
X47000000Y-102500000D03*
X49000000Y-99500000D03*
X48000000Y-100500000D03*
X47000000Y-100500000D03*
X49000000Y-98500000D03*
X49000000Y-102500000D03*
X49000000Y-100500000D03*
X47000000Y-101500000D03*
X46000000Y-98500000D03*
X46000000Y-99500000D03*
X48000000Y-98500000D03*
X47000000Y-99500000D03*
X46000000Y-101500000D03*
X48000000Y-101500000D03*
X48000000Y-103500000D03*
X48000000Y-102500000D03*
X49000000Y-101500000D03*
X46000000Y-102500000D03*
X47000000Y-98500000D03*
X47000000Y-103500000D03*
X46000000Y-100500000D03*
X48000000Y-99500000D03*
D27*
X47040000Y-124725000D02*
X34855000Y-124725000D01*
X47040000Y-122185000D02*
X34855000Y-122185000D01*
X34855000Y-119645000D02*
X47040000Y-119645000D01*
G04 #@! TA.AperFunction,Conductor*
G36*
X42923984Y-139088470D02*
G01*
X42972749Y-139140070D01*
X42986500Y-139197308D01*
X42986500Y-142726386D01*
X42966498Y-142794507D01*
X42912842Y-142841000D01*
X42842568Y-142851104D01*
X42815346Y-142844017D01*
X42701885Y-142800463D01*
X42692196Y-142797612D01*
X42541736Y-142766179D01*
X42527675Y-142767302D01*
X42524000Y-142777410D01*
X42524000Y-146220590D01*
X42528136Y-146234676D01*
X42541114Y-146236725D01*
X42558830Y-146234675D01*
X42568727Y-146232715D01*
X42792494Y-146169396D01*
X42801938Y-146165884D01*
X43012705Y-146067601D01*
X43021474Y-146062619D01*
X43031668Y-146055692D01*
X43099252Y-146033947D01*
X43167864Y-146052192D01*
X43186269Y-146066638D01*
X43186589Y-146066268D01*
X43290238Y-146156081D01*
X43290241Y-146156083D01*
X43297049Y-146161982D01*
X43429998Y-146222698D01*
X43453752Y-146229673D01*
X43493796Y-146241431D01*
X43493800Y-146241432D01*
X43498119Y-146242700D01*
X43502568Y-146243340D01*
X43502574Y-146243341D01*
X43638341Y-146262861D01*
X43638346Y-146262861D01*
X43642788Y-146263500D01*
X47128135Y-146263500D01*
X47182338Y-146257631D01*
X47234679Y-146251964D01*
X47234687Y-146251963D01*
X47238046Y-146251599D01*
X47290734Y-146240054D01*
X47395545Y-146204906D01*
X47402182Y-146200613D01*
X47402185Y-146200611D01*
X47514488Y-146127960D01*
X47514493Y-146127956D01*
X47518262Y-146125518D01*
X47533951Y-146111841D01*
X47568384Y-146081822D01*
X47571777Y-146078864D01*
X47574712Y-146075456D01*
X47577889Y-146072260D01*
X47578586Y-146072953D01*
X47634310Y-146036894D01*
X47705307Y-146036671D01*
X47733568Y-146048780D01*
X47841917Y-146111841D01*
X47851018Y-146116201D01*
X48068115Y-146199537D01*
X48077804Y-146202388D01*
X48228264Y-146233821D01*
X48242325Y-146232698D01*
X48246000Y-146222590D01*
X48246000Y-144372000D01*
X48266002Y-144303879D01*
X48319658Y-144257386D01*
X48372000Y-144246000D01*
X48628000Y-144246000D01*
X48696121Y-144266002D01*
X48742614Y-144319658D01*
X48754000Y-144372000D01*
X48754000Y-146220590D01*
X48758136Y-146234676D01*
X48771114Y-146236725D01*
X48788830Y-146234675D01*
X48798727Y-146232715D01*
X49022494Y-146169396D01*
X49031938Y-146165884D01*
X49242705Y-146067601D01*
X49251471Y-146062622D01*
X49443802Y-145931913D01*
X49451677Y-145925581D01*
X49620626Y-145765814D01*
X49627387Y-145758305D01*
X49765404Y-145577786D01*
X49822669Y-145535818D01*
X49893532Y-145531473D01*
X49955496Y-145566129D01*
X49988886Y-145628783D01*
X49991500Y-145654315D01*
X49991500Y-147615500D01*
X49971498Y-147683621D01*
X49917842Y-147730114D01*
X49865500Y-147741500D01*
X32134500Y-147741500D01*
X32066379Y-147721498D01*
X32019886Y-147667842D01*
X32008500Y-147615500D01*
X32008500Y-146283406D01*
X32028502Y-146215285D01*
X32082158Y-146168792D01*
X32152432Y-146158688D01*
X32210065Y-146182580D01*
X32226351Y-146194786D01*
X32241946Y-146203324D01*
X32362394Y-146248478D01*
X32377649Y-146252105D01*
X32428514Y-146257631D01*
X32435328Y-146258000D01*
X33207885Y-146258000D01*
X33223124Y-146253525D01*
X33224329Y-146252135D01*
X33226000Y-146244452D01*
X33226000Y-144372000D01*
X33246002Y-144303879D01*
X33299658Y-144257386D01*
X33352000Y-144246000D01*
X33608000Y-144246000D01*
X33676121Y-144266002D01*
X33722614Y-144319658D01*
X33734000Y-144372000D01*
X33734000Y-146239884D01*
X33738475Y-146255123D01*
X33739865Y-146256328D01*
X33747548Y-146257999D01*
X34524677Y-146257999D01*
X34527356Y-146257854D01*
X34527971Y-146257999D01*
X34528088Y-146257999D01*
X34528088Y-146258027D01*
X34596458Y-146274145D01*
X34629390Y-146301157D01*
X34642484Y-146316268D01*
X34645877Y-146319208D01*
X34746133Y-146406081D01*
X34746136Y-146406083D01*
X34752944Y-146411982D01*
X34885893Y-146472698D01*
X34895252Y-146475446D01*
X34949691Y-146491431D01*
X34949695Y-146491432D01*
X34954014Y-146492700D01*
X34958463Y-146493340D01*
X34958469Y-146493341D01*
X35094236Y-146512861D01*
X35094241Y-146512861D01*
X35098683Y-146513500D01*
X38111317Y-146513500D01*
X38134523Y-146512975D01*
X38145907Y-146512460D01*
X38146679Y-146512408D01*
X38146689Y-146512407D01*
X38163887Y-146511239D01*
X38163889Y-146511239D01*
X38169096Y-146510885D01*
X38231286Y-146496109D01*
X38306915Y-146478140D01*
X38306919Y-146478139D01*
X38311295Y-146477099D01*
X38315478Y-146475447D01*
X38315482Y-146475446D01*
X38373139Y-146452679D01*
X38373140Y-146452678D01*
X38377330Y-146451024D01*
X38504250Y-146378544D01*
X38583047Y-146296682D01*
X38644696Y-146261477D01*
X38680048Y-146258302D01*
X38681866Y-146258500D01*
X40778134Y-146258500D01*
X40840316Y-146251745D01*
X40976705Y-146200615D01*
X41093261Y-146113261D01*
X41180615Y-145996705D01*
X41181077Y-145995472D01*
X41228608Y-145948047D01*
X41297999Y-145933034D01*
X41368845Y-145961339D01*
X41402654Y-145989110D01*
X41410936Y-145994866D01*
X41611919Y-146111841D01*
X41621024Y-146116203D01*
X41838115Y-146199537D01*
X41847804Y-146202388D01*
X41998264Y-146233821D01*
X42012325Y-146232698D01*
X42016000Y-146222590D01*
X42016000Y-142779410D01*
X42011864Y-142765324D01*
X41998886Y-142763275D01*
X41981170Y-142765325D01*
X41971273Y-142767285D01*
X41747506Y-142830604D01*
X41738062Y-142834116D01*
X41527295Y-142932399D01*
X41518523Y-142937382D01*
X41359617Y-143045374D01*
X41292033Y-143067120D01*
X41223421Y-143048876D01*
X41181122Y-143004648D01*
X41180615Y-143003295D01*
X41093261Y-142886739D01*
X40976705Y-142799385D01*
X40840316Y-142748255D01*
X40778134Y-142741500D01*
X39389500Y-142741500D01*
X39321379Y-142721498D01*
X39274886Y-142667842D01*
X39263500Y-142615500D01*
X39263500Y-139353438D01*
X39283502Y-139285317D01*
X39337158Y-139238824D01*
X39407432Y-139228720D01*
X39451736Y-139243882D01*
X39596970Y-139326386D01*
X39600205Y-139327773D01*
X39600210Y-139327775D01*
X39917536Y-139463781D01*
X39917540Y-139463782D01*
X39920768Y-139465166D01*
X39965287Y-139478607D01*
X40254642Y-139565969D01*
X40254647Y-139565970D01*
X40258018Y-139566988D01*
X40407608Y-139594443D01*
X40601042Y-139629945D01*
X40601049Y-139629946D01*
X40604515Y-139630582D01*
X40794855Y-139643892D01*
X40887168Y-139650347D01*
X40887172Y-139650347D01*
X40889358Y-139650500D01*
X41088788Y-139650500D01*
X41090517Y-139650403D01*
X41090529Y-139650403D01*
X41277765Y-139639935D01*
X41351736Y-139635799D01*
X41455307Y-139618281D01*
X41695619Y-139577636D01*
X41695624Y-139577635D01*
X41699088Y-139577049D01*
X42037727Y-139479946D01*
X42151465Y-139433066D01*
X42360186Y-139347038D01*
X42360193Y-139347034D01*
X42363431Y-139345700D01*
X42548637Y-139243882D01*
X42669057Y-139177681D01*
X42669064Y-139177676D01*
X42672141Y-139175985D01*
X42675021Y-139173953D01*
X42675028Y-139173949D01*
X42787870Y-139094348D01*
X42855064Y-139071425D01*
X42923984Y-139088470D01*
G37*
G04 #@! TD.AperFunction*
G04 #@! TA.AperFunction,Conductor*
G36*
X49933621Y-40778502D02*
G01*
X49980114Y-40832158D01*
X49991500Y-40884500D01*
X49991500Y-91610500D01*
X49971498Y-91678621D01*
X49917842Y-91725114D01*
X49865500Y-91736500D01*
X44650917Y-91736500D01*
X44582796Y-91716498D01*
X44536303Y-91662842D01*
X44526199Y-91592568D01*
X44538600Y-91553396D01*
X44568849Y-91493899D01*
X44572852Y-91484041D01*
X44640544Y-91266039D01*
X44642828Y-91255652D01*
X44646300Y-91229457D01*
X44644104Y-91215293D01*
X44630919Y-91211500D01*
X41194718Y-91211500D01*
X41181187Y-91215473D01*
X41179662Y-91226080D01*
X41207413Y-91358340D01*
X41210473Y-91368537D01*
X41294317Y-91580843D01*
X41294911Y-91582041D01*
X41295010Y-91582598D01*
X41296278Y-91585810D01*
X41295623Y-91586068D01*
X41307278Y-91651952D01*
X41279886Y-91717452D01*
X41215703Y-91759360D01*
X41214509Y-91759620D01*
X41110343Y-91794290D01*
X40987388Y-91873308D01*
X40933732Y-91919801D01*
X40930792Y-91923194D01*
X40843919Y-92023450D01*
X40843917Y-92023453D01*
X40838018Y-92030261D01*
X40777302Y-92163210D01*
X40757300Y-92231331D01*
X40756660Y-92235780D01*
X40756659Y-92235786D01*
X40737139Y-92371553D01*
X40736500Y-92376000D01*
X40736500Y-95947810D01*
X40739441Y-96002692D01*
X40742320Y-96029475D01*
X40742588Y-96031132D01*
X40742590Y-96031143D01*
X40750125Y-96077640D01*
X40750126Y-96077645D01*
X40751116Y-96083752D01*
X40802194Y-96220693D01*
X40836220Y-96283005D01*
X40838915Y-96286605D01*
X40921109Y-96396402D01*
X40921113Y-96396406D01*
X40923806Y-96400004D01*
X42099996Y-97576194D01*
X42101253Y-97577323D01*
X42101256Y-97577326D01*
X42109966Y-97585150D01*
X42140877Y-97612917D01*
X42161851Y-97629820D01*
X42163224Y-97630810D01*
X42201430Y-97658362D01*
X42201435Y-97658365D01*
X42206451Y-97661982D01*
X42339400Y-97722698D01*
X42363154Y-97729673D01*
X42403198Y-97741431D01*
X42403202Y-97741432D01*
X42407521Y-97742700D01*
X42411970Y-97743340D01*
X42411976Y-97743341D01*
X42547743Y-97762861D01*
X42547748Y-97762861D01*
X42552190Y-97763500D01*
X42860500Y-97763500D01*
X42928621Y-97783502D01*
X42975114Y-97837158D01*
X42986500Y-97889500D01*
X42986500Y-108209779D01*
X42992353Y-108287091D01*
X42998065Y-108324597D01*
X43015490Y-108400138D01*
X43078411Y-108532058D01*
X43080908Y-108535805D01*
X43080911Y-108535810D01*
X43099609Y-108563866D01*
X43117784Y-108591137D01*
X43120783Y-108594484D01*
X43123544Y-108598047D01*
X43122145Y-108599131D01*
X43149520Y-108656530D01*
X43140585Y-108726962D01*
X43129700Y-108746807D01*
X43045836Y-108871610D01*
X43042710Y-108876262D01*
X42952412Y-109081967D01*
X42899968Y-109300411D01*
X42887037Y-109524690D01*
X42914025Y-109747715D01*
X42980082Y-109962435D01*
X42982652Y-109967415D01*
X42982654Y-109967419D01*
X43070698Y-110138001D01*
X43083118Y-110162064D01*
X43219877Y-110340292D01*
X43386036Y-110491485D01*
X43390783Y-110494463D01*
X43390786Y-110494465D01*
X43571595Y-110607885D01*
X43576344Y-110610864D01*
X43643750Y-110637961D01*
X43699490Y-110681925D01*
X43722616Y-110749050D01*
X43705779Y-110818021D01*
X43650995Y-110868592D01*
X43506782Y-110937378D01*
X43324346Y-111068471D01*
X43320439Y-111072503D01*
X43219715Y-111176442D01*
X43168008Y-111229799D01*
X43042710Y-111416262D01*
X42952412Y-111621967D01*
X42899968Y-111840411D01*
X42887037Y-112064690D01*
X42914025Y-112287715D01*
X42980082Y-112502435D01*
X42982652Y-112507415D01*
X42982654Y-112507419D01*
X43070698Y-112678001D01*
X43083118Y-112702064D01*
X43219877Y-112880292D01*
X43386036Y-113031485D01*
X43390783Y-113034463D01*
X43390786Y-113034465D01*
X43571595Y-113147885D01*
X43576344Y-113150864D01*
X43643750Y-113177961D01*
X43699490Y-113221925D01*
X43722616Y-113289050D01*
X43705779Y-113358021D01*
X43650995Y-113408592D01*
X43506782Y-113477378D01*
X43324346Y-113608471D01*
X43320439Y-113612503D01*
X43219715Y-113716442D01*
X43168008Y-113769799D01*
X43042710Y-113956262D01*
X42952412Y-114161967D01*
X42899968Y-114380411D01*
X42887037Y-114604690D01*
X42914025Y-114827715D01*
X42980082Y-115042435D01*
X42982652Y-115047415D01*
X42982654Y-115047419D01*
X43070698Y-115218001D01*
X43083118Y-115242064D01*
X43124672Y-115296218D01*
X43150271Y-115362437D01*
X43136006Y-115431986D01*
X43119933Y-115455432D01*
X43093919Y-115485453D01*
X43093917Y-115485456D01*
X43088018Y-115492264D01*
X43027302Y-115625213D01*
X43007300Y-115693334D01*
X42986500Y-115838003D01*
X42986500Y-116597874D01*
X42975874Y-116648519D01*
X42952412Y-116701967D01*
X42899968Y-116920411D01*
X42887037Y-117144690D01*
X42914025Y-117367715D01*
X42915675Y-117373077D01*
X42980082Y-117582435D01*
X42978895Y-117582800D01*
X42986500Y-117621562D01*
X42986500Y-118369779D01*
X42992353Y-118447091D01*
X42998065Y-118484597D01*
X43015490Y-118560138D01*
X43078411Y-118692058D01*
X43080908Y-118695805D01*
X43080911Y-118695810D01*
X43101679Y-118726971D01*
X43117784Y-118751137D01*
X43120783Y-118754484D01*
X43123544Y-118758047D01*
X43122263Y-118759040D01*
X43149865Y-118816913D01*
X43140931Y-118887346D01*
X43130045Y-118907192D01*
X43046277Y-119031852D01*
X43040895Y-119041642D01*
X42955143Y-119236990D01*
X42951578Y-119247582D01*
X42921376Y-119373384D01*
X42922081Y-119387470D01*
X42930960Y-119391000D01*
X47168000Y-119391000D01*
X47236121Y-119411002D01*
X47282614Y-119464658D01*
X47294000Y-119517000D01*
X47294000Y-120841563D01*
X47293412Y-120853720D01*
X47284537Y-120945275D01*
X47286230Y-120954126D01*
X47291757Y-120983024D01*
X47294000Y-121006694D01*
X47294000Y-123381563D01*
X47293412Y-123393720D01*
X47284537Y-123485275D01*
X47286230Y-123494126D01*
X47291757Y-123523024D01*
X47294000Y-123546694D01*
X47294000Y-124853000D01*
X47273998Y-124921121D01*
X47220342Y-124967614D01*
X47168000Y-124979000D01*
X42931589Y-124979000D01*
X42917607Y-124983105D01*
X42916114Y-124992728D01*
X42916166Y-124992973D01*
X42978898Y-125196883D01*
X42983119Y-125207229D01*
X43080971Y-125396814D01*
X43086957Y-125406245D01*
X43216832Y-125575501D01*
X43224393Y-125583724D01*
X43382194Y-125727312D01*
X43391094Y-125734067D01*
X43487085Y-125794282D01*
X43534163Y-125847425D01*
X43545035Y-125917584D01*
X43516251Y-125982484D01*
X43460005Y-126020543D01*
X43309205Y-126070854D01*
X43164634Y-126160317D01*
X43044522Y-126280639D01*
X42955312Y-126425365D01*
X42901789Y-126586733D01*
X42891500Y-126687151D01*
X42891501Y-127842848D01*
X42902049Y-127944522D01*
X42904228Y-127951053D01*
X42904229Y-127951058D01*
X42950437Y-128089560D01*
X42955854Y-128105795D01*
X42959710Y-128112026D01*
X43045317Y-128250366D01*
X43042919Y-128251850D01*
X43064687Y-128305673D01*
X43053915Y-128370435D01*
X43027302Y-128428710D01*
X43007300Y-128496831D01*
X42986500Y-128641500D01*
X42986500Y-133801701D01*
X42966498Y-133869822D01*
X42912842Y-133916315D01*
X42842568Y-133926419D01*
X42786439Y-133903637D01*
X42712190Y-133849692D01*
X42709341Y-133847622D01*
X42403030Y-133673614D01*
X42399795Y-133672227D01*
X42399790Y-133672225D01*
X42082464Y-133536219D01*
X42082460Y-133536218D01*
X42079232Y-133534834D01*
X41953212Y-133496786D01*
X41745358Y-133434031D01*
X41745353Y-133434030D01*
X41741982Y-133433012D01*
X41592392Y-133405557D01*
X41398958Y-133370055D01*
X41398951Y-133370054D01*
X41395485Y-133369418D01*
X41205145Y-133356108D01*
X41112832Y-133349653D01*
X41112828Y-133349653D01*
X41110642Y-133349500D01*
X40911212Y-133349500D01*
X40909483Y-133349597D01*
X40909471Y-133349597D01*
X40722235Y-133360065D01*
X40648264Y-133364201D01*
X40613653Y-133370055D01*
X40304381Y-133422364D01*
X40304376Y-133422365D01*
X40300912Y-133422951D01*
X39962273Y-133520054D01*
X39923054Y-133536219D01*
X39639814Y-133652962D01*
X39639807Y-133652966D01*
X39636569Y-133654300D01*
X39467174Y-133747426D01*
X39450201Y-133756757D01*
X39380870Y-133772046D01*
X39314280Y-133747426D01*
X39271571Y-133690712D01*
X39263500Y-133646342D01*
X39263500Y-125851500D01*
X39260988Y-125828135D01*
X39252128Y-125745715D01*
X39252127Y-125745708D01*
X39251766Y-125742351D01*
X39240380Y-125690009D01*
X39205710Y-125585843D01*
X39126692Y-125462888D01*
X39080199Y-125409232D01*
X38969739Y-125313518D01*
X38970154Y-125313039D01*
X38928101Y-125264505D01*
X38917999Y-125194231D01*
X38927343Y-125161520D01*
X38939854Y-125133020D01*
X38943422Y-125122418D01*
X38973624Y-124996616D01*
X38972919Y-124982530D01*
X38964040Y-124979000D01*
X34727000Y-124979000D01*
X34658879Y-124958998D01*
X34612386Y-124905342D01*
X34601000Y-124853000D01*
X34601000Y-123528437D01*
X34601588Y-123516280D01*
X34601633Y-123515819D01*
X34604594Y-123485275D01*
X35099537Y-123485275D01*
X35101230Y-123494126D01*
X35106757Y-123523024D01*
X35109000Y-123546694D01*
X35109000Y-124452885D01*
X35113475Y-124468124D01*
X35114865Y-124469329D01*
X35122548Y-124471000D01*
X37122885Y-124471000D01*
X37138124Y-124466525D01*
X37139329Y-124465135D01*
X37141000Y-124457452D01*
X37141000Y-123528437D01*
X37141588Y-123516280D01*
X37141633Y-123515819D01*
X37144594Y-123485275D01*
X37639537Y-123485275D01*
X37641230Y-123494126D01*
X37646757Y-123523024D01*
X37649000Y-123546694D01*
X37649000Y-124452885D01*
X37653475Y-124468124D01*
X37654865Y-124469329D01*
X37662548Y-124471000D01*
X38963411Y-124471000D01*
X38977393Y-124466895D01*
X38978886Y-124457272D01*
X38978835Y-124457030D01*
X38921118Y-124269422D01*
X38920206Y-124198431D01*
X38957818Y-124138216D01*
X38973429Y-124126373D01*
X39008828Y-124103624D01*
X39008830Y-124103623D01*
X39012612Y-124101192D01*
X39027791Y-124088040D01*
X39062875Y-124057639D01*
X39066268Y-124054699D01*
X39086417Y-124031446D01*
X39156081Y-123951050D01*
X39156083Y-123951047D01*
X39161982Y-123944239D01*
X39222698Y-123811290D01*
X39242700Y-123743169D01*
X39249489Y-123695956D01*
X39262861Y-123602947D01*
X39262861Y-123602942D01*
X39263500Y-123598500D01*
X39263500Y-123311500D01*
X39263063Y-123307434D01*
X39252128Y-123205715D01*
X39252127Y-123205708D01*
X39251766Y-123202351D01*
X39240380Y-123150009D01*
X39205710Y-123045843D01*
X39126692Y-122922888D01*
X39080199Y-122869232D01*
X38969739Y-122773518D01*
X38970154Y-122773039D01*
X38928101Y-122724505D01*
X38917999Y-122654231D01*
X38927343Y-122621520D01*
X38939854Y-122593020D01*
X38943422Y-122582418D01*
X38973624Y-122456616D01*
X38973429Y-122452728D01*
X42916114Y-122452728D01*
X42916166Y-122452973D01*
X42978898Y-122656883D01*
X42983119Y-122667229D01*
X43080971Y-122856814D01*
X43086957Y-122866245D01*
X43216832Y-123035501D01*
X43224393Y-123043724D01*
X43382194Y-123187312D01*
X43391094Y-123194067D01*
X43571815Y-123307434D01*
X43581781Y-123312511D01*
X43644987Y-123337920D01*
X43700732Y-123381886D01*
X43723857Y-123449011D01*
X43707020Y-123517983D01*
X43652236Y-123568553D01*
X43512097Y-123635397D01*
X43502484Y-123641082D01*
X43329233Y-123765575D01*
X43320767Y-123772883D01*
X43172308Y-123926082D01*
X43165265Y-123934779D01*
X43046281Y-124111844D01*
X43040895Y-124121642D01*
X42955143Y-124316990D01*
X42951578Y-124327582D01*
X42921376Y-124453384D01*
X42922081Y-124467470D01*
X42930960Y-124471000D01*
X44227885Y-124471000D01*
X44243124Y-124466525D01*
X44244329Y-124465135D01*
X44246000Y-124457452D01*
X44246000Y-123485275D01*
X44744537Y-123485275D01*
X44746230Y-123494126D01*
X44751757Y-123523024D01*
X44754000Y-123546694D01*
X44754000Y-124452885D01*
X44758475Y-124468124D01*
X44759865Y-124469329D01*
X44767548Y-124471000D01*
X46767885Y-124471000D01*
X46783124Y-124466525D01*
X46784329Y-124465135D01*
X46786000Y-124457452D01*
X46786000Y-123528437D01*
X46786588Y-123516280D01*
X46786633Y-123515819D01*
X46795463Y-123424725D01*
X46788243Y-123386973D01*
X46786000Y-123363306D01*
X46786000Y-122457115D01*
X46781525Y-122441876D01*
X46780135Y-122440671D01*
X46772452Y-122439000D01*
X44772115Y-122439000D01*
X44756876Y-122443475D01*
X44755671Y-122444865D01*
X44754000Y-122452548D01*
X44754000Y-123381563D01*
X44753412Y-123393720D01*
X44744537Y-123485275D01*
X44246000Y-123485275D01*
X44246000Y-123467000D01*
X44247202Y-123467000D01*
X44246345Y-123443000D01*
X44246000Y-123443000D01*
X44246000Y-123433334D01*
X44245881Y-123430002D01*
X44246000Y-123429455D01*
X44246000Y-122457115D01*
X44241525Y-122441876D01*
X44240135Y-122440671D01*
X44232452Y-122439000D01*
X42931589Y-122439000D01*
X42917607Y-122443105D01*
X42916114Y-122452728D01*
X38973429Y-122452728D01*
X38972919Y-122442530D01*
X38964040Y-122439000D01*
X37667115Y-122439000D01*
X37651876Y-122443475D01*
X37650671Y-122444865D01*
X37649000Y-122452548D01*
X37649000Y-123381563D01*
X37648412Y-123393720D01*
X37639537Y-123485275D01*
X37144594Y-123485275D01*
X37150463Y-123424725D01*
X37143243Y-123386973D01*
X37141000Y-123363306D01*
X37141000Y-122457115D01*
X37136525Y-122441876D01*
X37135135Y-122440671D01*
X37127452Y-122439000D01*
X35127115Y-122439000D01*
X35111876Y-122443475D01*
X35110671Y-122444865D01*
X35109000Y-122452548D01*
X35109000Y-123381563D01*
X35108412Y-123393720D01*
X35099537Y-123485275D01*
X34604594Y-123485275D01*
X34610463Y-123424725D01*
X34603243Y-123386973D01*
X34601000Y-123363306D01*
X34601000Y-120988437D01*
X34601588Y-120976280D01*
X34601633Y-120975819D01*
X34604594Y-120945275D01*
X35099537Y-120945275D01*
X35101230Y-120954126D01*
X35106757Y-120983024D01*
X35109000Y-121006694D01*
X35109000Y-121912885D01*
X35113475Y-121928124D01*
X35114865Y-121929329D01*
X35122548Y-121931000D01*
X37122885Y-121931000D01*
X37138124Y-121926525D01*
X37139329Y-121925135D01*
X37141000Y-121917452D01*
X37141000Y-120988437D01*
X37141588Y-120976280D01*
X37141633Y-120975819D01*
X37144594Y-120945275D01*
X37639537Y-120945275D01*
X37641230Y-120954126D01*
X37646757Y-120983024D01*
X37649000Y-121006694D01*
X37649000Y-121912885D01*
X37653475Y-121928124D01*
X37654865Y-121929329D01*
X37662548Y-121931000D01*
X38963411Y-121931000D01*
X38977393Y-121926895D01*
X38978886Y-121917272D01*
X38978835Y-121917030D01*
X38921118Y-121729422D01*
X38920206Y-121658431D01*
X38957818Y-121598216D01*
X38973429Y-121586373D01*
X39008828Y-121563624D01*
X39008830Y-121563623D01*
X39012612Y-121561192D01*
X39027791Y-121548040D01*
X39062875Y-121517639D01*
X39066268Y-121514699D01*
X39086417Y-121491446D01*
X39156081Y-121411050D01*
X39156083Y-121411047D01*
X39161982Y-121404239D01*
X39222698Y-121271290D01*
X39242700Y-121203169D01*
X39249489Y-121155956D01*
X39262861Y-121062947D01*
X39262861Y-121062942D01*
X39263500Y-121058500D01*
X39263500Y-120771500D01*
X39263063Y-120767434D01*
X39252128Y-120665715D01*
X39252127Y-120665708D01*
X39251766Y-120662351D01*
X39240380Y-120610009D01*
X39205710Y-120505843D01*
X39126692Y-120382888D01*
X39080199Y-120329232D01*
X38969739Y-120233518D01*
X38970154Y-120233039D01*
X38928101Y-120184505D01*
X38917999Y-120114231D01*
X38927343Y-120081520D01*
X38939854Y-120053020D01*
X38943422Y-120042418D01*
X38973624Y-119916616D01*
X38973429Y-119912728D01*
X42916114Y-119912728D01*
X42916166Y-119912973D01*
X42978898Y-120116883D01*
X42983119Y-120127229D01*
X43080971Y-120316814D01*
X43086957Y-120326245D01*
X43216832Y-120495501D01*
X43224393Y-120503724D01*
X43382194Y-120647312D01*
X43391094Y-120654067D01*
X43571815Y-120767434D01*
X43581781Y-120772511D01*
X43644987Y-120797920D01*
X43700732Y-120841886D01*
X43723857Y-120909011D01*
X43707020Y-120977983D01*
X43652236Y-121028553D01*
X43512097Y-121095397D01*
X43502484Y-121101082D01*
X43329233Y-121225575D01*
X43320767Y-121232883D01*
X43172308Y-121386082D01*
X43165265Y-121394779D01*
X43046281Y-121571844D01*
X43040895Y-121581642D01*
X42955143Y-121776990D01*
X42951578Y-121787582D01*
X42921376Y-121913384D01*
X42922081Y-121927470D01*
X42930960Y-121931000D01*
X44227885Y-121931000D01*
X44243124Y-121926525D01*
X44244329Y-121925135D01*
X44246000Y-121917452D01*
X44246000Y-120945275D01*
X44744537Y-120945275D01*
X44746230Y-120954126D01*
X44751757Y-120983024D01*
X44754000Y-121006694D01*
X44754000Y-121912885D01*
X44758475Y-121928124D01*
X44759865Y-121929329D01*
X44767548Y-121931000D01*
X46767885Y-121931000D01*
X46783124Y-121926525D01*
X46784329Y-121925135D01*
X46786000Y-121917452D01*
X46786000Y-120988437D01*
X46786588Y-120976280D01*
X46786633Y-120975819D01*
X46795463Y-120884725D01*
X46788243Y-120846973D01*
X46786000Y-120823306D01*
X46786000Y-119917115D01*
X46781525Y-119901876D01*
X46780135Y-119900671D01*
X46772452Y-119899000D01*
X44772115Y-119899000D01*
X44756876Y-119903475D01*
X44755671Y-119904865D01*
X44754000Y-119912548D01*
X44754000Y-120841563D01*
X44753412Y-120853720D01*
X44744537Y-120945275D01*
X44246000Y-120945275D01*
X44246000Y-120927000D01*
X44247202Y-120927000D01*
X44246345Y-120903000D01*
X44246000Y-120903000D01*
X44246000Y-120893334D01*
X44245881Y-120890002D01*
X44246000Y-120889455D01*
X44246000Y-119917115D01*
X44241525Y-119901876D01*
X44240135Y-119900671D01*
X44232452Y-119899000D01*
X42931589Y-119899000D01*
X42917607Y-119903105D01*
X42916114Y-119912728D01*
X38973429Y-119912728D01*
X38972919Y-119902530D01*
X38964040Y-119899000D01*
X37667115Y-119899000D01*
X37651876Y-119903475D01*
X37650671Y-119904865D01*
X37649000Y-119912548D01*
X37649000Y-120841563D01*
X37648412Y-120853720D01*
X37639537Y-120945275D01*
X37144594Y-120945275D01*
X37150463Y-120884725D01*
X37143243Y-120846973D01*
X37141000Y-120823306D01*
X37141000Y-119917115D01*
X37136525Y-119901876D01*
X37135135Y-119900671D01*
X37127452Y-119899000D01*
X35127115Y-119899000D01*
X35111876Y-119903475D01*
X35110671Y-119904865D01*
X35109000Y-119912548D01*
X35109000Y-120841563D01*
X35108412Y-120853720D01*
X35099537Y-120945275D01*
X34604594Y-120945275D01*
X34610463Y-120884725D01*
X34603243Y-120846973D01*
X34601000Y-120823306D01*
X34601000Y-119517000D01*
X34621002Y-119448879D01*
X34674658Y-119402386D01*
X34727000Y-119391000D01*
X38963411Y-119391000D01*
X38977393Y-119386895D01*
X38978886Y-119377272D01*
X38978835Y-119377030D01*
X38921118Y-119189422D01*
X38920206Y-119118431D01*
X38957818Y-119058216D01*
X38973429Y-119046373D01*
X39008828Y-119023624D01*
X39008830Y-119023623D01*
X39012612Y-119021192D01*
X39027791Y-119008040D01*
X39062875Y-118977639D01*
X39066268Y-118974699D01*
X39086417Y-118951446D01*
X39156081Y-118871050D01*
X39156083Y-118871047D01*
X39161982Y-118864239D01*
X39222698Y-118731290D01*
X39233417Y-118694784D01*
X39241431Y-118667492D01*
X39241432Y-118667488D01*
X39242700Y-118663169D01*
X39249489Y-118615956D01*
X39262861Y-118522947D01*
X39262861Y-118522942D01*
X39263500Y-118518500D01*
X39263500Y-118168500D01*
X39248765Y-118046370D01*
X39234510Y-117988154D01*
X39191149Y-117873030D01*
X39105860Y-117754338D01*
X39056647Y-117703166D01*
X39053103Y-117700403D01*
X39053098Y-117700399D01*
X38984298Y-117646770D01*
X38942868Y-117589115D01*
X38939185Y-117518214D01*
X38941191Y-117511215D01*
X38942588Y-117508033D01*
X38995032Y-117289589D01*
X39007963Y-117065310D01*
X38980975Y-116842285D01*
X38938290Y-116703536D01*
X38937378Y-116632547D01*
X38974990Y-116572332D01*
X38990590Y-116560496D01*
X39012612Y-116546344D01*
X39066268Y-116499851D01*
X39074297Y-116490585D01*
X39156081Y-116396202D01*
X39156083Y-116396199D01*
X39161982Y-116389391D01*
X39222698Y-116256442D01*
X39242700Y-116188321D01*
X39263500Y-116043652D01*
X39263500Y-115628500D01*
X39248765Y-115506370D01*
X39247319Y-115500462D01*
X39235410Y-115451831D01*
X39234510Y-115448154D01*
X39228421Y-115431986D01*
X39220198Y-115410156D01*
X39191149Y-115333030D01*
X39164696Y-115296216D01*
X39108492Y-115218001D01*
X39105860Y-115214338D01*
X39056647Y-115163166D01*
X39053103Y-115160403D01*
X39053098Y-115160399D01*
X38984298Y-115106770D01*
X38942868Y-115049115D01*
X38939185Y-114978214D01*
X38941191Y-114971215D01*
X38942588Y-114968033D01*
X38995032Y-114749589D01*
X39007963Y-114525310D01*
X38980975Y-114302285D01*
X38938290Y-114163536D01*
X38937378Y-114092547D01*
X38974990Y-114032332D01*
X38990590Y-114020496D01*
X39012612Y-114006344D01*
X39066268Y-113959851D01*
X39074297Y-113950585D01*
X39156081Y-113856202D01*
X39156083Y-113856199D01*
X39161982Y-113849391D01*
X39222698Y-113716442D01*
X39242700Y-113648321D01*
X39248430Y-113608471D01*
X39262861Y-113508099D01*
X39262861Y-113508094D01*
X39263500Y-113503652D01*
X39263500Y-113088500D01*
X39248765Y-112966370D01*
X39234510Y-112908154D01*
X39225436Y-112884061D01*
X39194071Y-112800789D01*
X39191149Y-112793030D01*
X39105860Y-112674338D01*
X39056647Y-112623166D01*
X39053103Y-112620403D01*
X39053098Y-112620399D01*
X38984298Y-112566770D01*
X38942868Y-112509115D01*
X38939185Y-112438214D01*
X38941191Y-112431215D01*
X38942588Y-112428033D01*
X38995032Y-112209589D01*
X39007963Y-111985310D01*
X38980975Y-111762285D01*
X38938290Y-111623536D01*
X38937378Y-111552547D01*
X38974990Y-111492332D01*
X38990590Y-111480496D01*
X39012612Y-111466344D01*
X39066268Y-111419851D01*
X39074297Y-111410585D01*
X39156081Y-111316202D01*
X39156083Y-111316199D01*
X39161982Y-111309391D01*
X39222698Y-111176442D01*
X39242700Y-111108321D01*
X39248430Y-111068471D01*
X39262861Y-110968099D01*
X39262861Y-110968094D01*
X39263500Y-110963652D01*
X39263500Y-110548500D01*
X39248765Y-110426370D01*
X39234510Y-110368154D01*
X39225436Y-110344061D01*
X39194071Y-110260789D01*
X39191149Y-110253030D01*
X39105860Y-110134338D01*
X39056647Y-110083166D01*
X39053103Y-110080403D01*
X39053098Y-110080399D01*
X38984298Y-110026770D01*
X38942868Y-109969115D01*
X38939185Y-109898214D01*
X38941191Y-109891215D01*
X38942588Y-109888033D01*
X38995032Y-109669589D01*
X39007963Y-109445310D01*
X38980975Y-109222285D01*
X38938290Y-109083536D01*
X38937378Y-109012547D01*
X38974990Y-108952332D01*
X38990590Y-108940496D01*
X39012612Y-108926344D01*
X39066268Y-108879851D01*
X39074297Y-108870585D01*
X39156081Y-108776202D01*
X39156083Y-108776199D01*
X39161982Y-108769391D01*
X39222698Y-108636442D01*
X39229673Y-108612688D01*
X39241431Y-108572644D01*
X39241432Y-108572640D01*
X39242700Y-108568321D01*
X39247375Y-108535810D01*
X39262861Y-108428099D01*
X39262861Y-108428094D01*
X39263500Y-108423652D01*
X39263500Y-103626000D01*
X39251766Y-103516851D01*
X39240380Y-103464509D01*
X39205710Y-103360343D01*
X39126692Y-103237388D01*
X39080199Y-103183732D01*
X39070933Y-103175703D01*
X38976550Y-103093919D01*
X38976547Y-103093917D01*
X38969739Y-103088018D01*
X38836790Y-103027302D01*
X38813036Y-103020327D01*
X38772992Y-103008569D01*
X38772988Y-103008568D01*
X38768669Y-103007300D01*
X38764220Y-103006660D01*
X38764214Y-103006659D01*
X38628447Y-102987139D01*
X38628442Y-102987139D01*
X38624000Y-102986500D01*
X32134500Y-102986500D01*
X32066379Y-102966498D01*
X32019886Y-102912842D01*
X32008500Y-102860500D01*
X32008500Y-102444669D01*
X39592001Y-102444669D01*
X39592371Y-102451490D01*
X39597895Y-102502352D01*
X39601521Y-102517604D01*
X39646676Y-102638054D01*
X39655214Y-102653649D01*
X39731715Y-102755724D01*
X39744276Y-102768285D01*
X39846351Y-102844786D01*
X39861946Y-102853324D01*
X39982394Y-102898478D01*
X39997649Y-102902105D01*
X40048514Y-102907631D01*
X40055328Y-102908000D01*
X40727885Y-102908000D01*
X40743124Y-102903525D01*
X40744329Y-102902135D01*
X40746000Y-102894452D01*
X40746000Y-102889884D01*
X41254000Y-102889884D01*
X41258475Y-102905123D01*
X41259865Y-102906328D01*
X41267548Y-102907999D01*
X41944669Y-102907999D01*
X41951490Y-102907629D01*
X42002352Y-102902105D01*
X42017604Y-102898479D01*
X42138054Y-102853324D01*
X42153649Y-102844786D01*
X42255724Y-102768285D01*
X42268285Y-102755724D01*
X42344786Y-102653649D01*
X42353324Y-102638054D01*
X42398478Y-102517606D01*
X42402105Y-102502351D01*
X42407631Y-102451486D01*
X42408000Y-102444672D01*
X42408000Y-101772115D01*
X42403525Y-101756876D01*
X42402135Y-101755671D01*
X42394452Y-101754000D01*
X41272115Y-101754000D01*
X41256876Y-101758475D01*
X41255671Y-101759865D01*
X41254000Y-101767548D01*
X41254000Y-102889884D01*
X40746000Y-102889884D01*
X40746000Y-101772115D01*
X40741525Y-101756876D01*
X40740135Y-101755671D01*
X40732452Y-101754000D01*
X39610116Y-101754000D01*
X39594877Y-101758475D01*
X39593672Y-101759865D01*
X39592001Y-101767548D01*
X39592001Y-102444669D01*
X32008500Y-102444669D01*
X32008500Y-98925469D01*
X39587095Y-98925469D01*
X39587392Y-98930622D01*
X39587392Y-98930625D01*
X39593067Y-99029041D01*
X39600427Y-99156697D01*
X39601564Y-99161743D01*
X39601565Y-99161749D01*
X39633741Y-99304523D01*
X39651346Y-99382642D01*
X39653288Y-99387424D01*
X39653289Y-99387428D01*
X39736540Y-99592450D01*
X39738484Y-99597237D01*
X39859501Y-99794719D01*
X39862882Y-99798622D01*
X39971653Y-99924191D01*
X40001135Y-99988776D01*
X39991020Y-100059049D01*
X39944519Y-100112697D01*
X39920646Y-100124670D01*
X39861944Y-100146677D01*
X39846351Y-100155214D01*
X39744276Y-100231715D01*
X39731715Y-100244276D01*
X39655214Y-100346351D01*
X39646676Y-100361946D01*
X39601522Y-100482394D01*
X39597895Y-100497649D01*
X39592369Y-100548514D01*
X39592000Y-100555328D01*
X39592000Y-101227885D01*
X39596475Y-101243124D01*
X39597865Y-101244329D01*
X39605548Y-101246000D01*
X42389884Y-101246000D01*
X42405123Y-101241525D01*
X42406328Y-101240135D01*
X42407999Y-101232452D01*
X42407999Y-100555331D01*
X42407629Y-100548510D01*
X42402105Y-100497648D01*
X42398479Y-100482396D01*
X42353324Y-100361946D01*
X42344786Y-100346351D01*
X42268285Y-100244276D01*
X42255724Y-100231715D01*
X42153649Y-100155214D01*
X42138052Y-100146675D01*
X42079415Y-100124693D01*
X42022650Y-100082052D01*
X41997950Y-100015490D01*
X42013157Y-99946141D01*
X42034703Y-99917461D01*
X42072641Y-99879654D01*
X42076303Y-99876005D01*
X42211458Y-99687917D01*
X42258641Y-99592450D01*
X42311784Y-99484922D01*
X42311785Y-99484920D01*
X42314078Y-99480280D01*
X42381408Y-99258671D01*
X42411640Y-99029041D01*
X42413327Y-98960000D01*
X42407032Y-98883434D01*
X42394773Y-98734318D01*
X42394772Y-98734312D01*
X42394349Y-98729167D01*
X42337925Y-98504533D01*
X42335866Y-98499797D01*
X42247630Y-98296868D01*
X42247628Y-98296865D01*
X42245570Y-98292131D01*
X42119764Y-98097665D01*
X41963887Y-97926358D01*
X41959836Y-97923159D01*
X41959832Y-97923155D01*
X41786177Y-97786011D01*
X41786172Y-97786008D01*
X41782123Y-97782810D01*
X41777607Y-97780317D01*
X41777604Y-97780315D01*
X41583879Y-97673373D01*
X41583875Y-97673371D01*
X41579355Y-97670876D01*
X41574486Y-97669152D01*
X41574482Y-97669150D01*
X41365903Y-97595288D01*
X41365899Y-97595287D01*
X41361028Y-97593562D01*
X41355935Y-97592655D01*
X41355932Y-97592654D01*
X41138095Y-97553851D01*
X41138089Y-97553850D01*
X41133006Y-97552945D01*
X41060096Y-97552054D01*
X40906581Y-97550179D01*
X40906579Y-97550179D01*
X40901411Y-97550116D01*
X40672464Y-97585150D01*
X40452314Y-97657106D01*
X40447726Y-97659494D01*
X40447722Y-97659496D01*
X40251461Y-97761663D01*
X40246872Y-97764052D01*
X40242739Y-97767155D01*
X40242736Y-97767157D01*
X40220967Y-97783502D01*
X40061655Y-97903117D01*
X39901639Y-98070564D01*
X39898725Y-98074836D01*
X39898724Y-98074837D01*
X39883152Y-98097665D01*
X39771119Y-98261899D01*
X39673602Y-98471981D01*
X39611707Y-98695169D01*
X39587095Y-98925469D01*
X32008500Y-98925469D01*
X32008500Y-94720777D01*
X32028502Y-94652656D01*
X32082158Y-94606163D01*
X32152432Y-94596059D01*
X32214391Y-94623343D01*
X32257488Y-94658680D01*
X32266255Y-94664706D01*
X32464633Y-94777629D01*
X32474297Y-94782095D01*
X32688868Y-94859981D01*
X32699135Y-94862751D01*
X32924932Y-94903581D01*
X32933162Y-94904516D01*
X32952550Y-94905430D01*
X32955526Y-94905500D01*
X33139885Y-94905500D01*
X33155124Y-94901025D01*
X33156329Y-94899635D01*
X33158000Y-94891952D01*
X33158000Y-94887385D01*
X33666000Y-94887385D01*
X33670475Y-94902624D01*
X33671865Y-94903829D01*
X33679548Y-94905500D01*
X33819340Y-94905500D01*
X33824649Y-94905275D01*
X33994771Y-94890840D01*
X34005259Y-94889048D01*
X34226211Y-94831699D01*
X34236239Y-94828167D01*
X34444363Y-94734415D01*
X34453669Y-94729235D01*
X34643024Y-94601753D01*
X34651307Y-94595094D01*
X34816478Y-94437529D01*
X34823530Y-94429558D01*
X34959790Y-94246418D01*
X34965394Y-94237381D01*
X35068851Y-94033894D01*
X35072852Y-94024041D01*
X35140544Y-93806039D01*
X35142828Y-93795652D01*
X35146300Y-93769457D01*
X35144104Y-93755293D01*
X35130919Y-93751500D01*
X33684115Y-93751500D01*
X33668876Y-93755975D01*
X33667671Y-93757365D01*
X33666000Y-93765048D01*
X33666000Y-94887385D01*
X33158000Y-94887385D01*
X33158000Y-93369500D01*
X33178002Y-93301379D01*
X33231658Y-93254886D01*
X33284000Y-93243500D01*
X35129282Y-93243500D01*
X35142813Y-93239527D01*
X35144338Y-93228920D01*
X35116587Y-93096660D01*
X35113527Y-93086463D01*
X35029685Y-92874160D01*
X35024951Y-92864624D01*
X34906532Y-92669475D01*
X34900266Y-92660882D01*
X34750658Y-92488473D01*
X34743028Y-92481053D01*
X34566511Y-92336319D01*
X34555656Y-92328858D01*
X34510847Y-92273788D01*
X34502924Y-92203235D01*
X34534402Y-92139599D01*
X34556659Y-92120500D01*
X34647762Y-92059166D01*
X34820718Y-91894174D01*
X34963402Y-91702400D01*
X34983515Y-91662842D01*
X35069314Y-91494086D01*
X35069314Y-91494085D01*
X35071733Y-91489328D01*
X35112406Y-91358340D01*
X35141032Y-91266151D01*
X35141033Y-91266145D01*
X35142616Y-91261048D01*
X35174023Y-91024089D01*
X35165055Y-90785226D01*
X35115970Y-90551289D01*
X35028171Y-90328967D01*
X34904168Y-90124617D01*
X34790676Y-89993829D01*
X34761137Y-89929270D01*
X34771191Y-89858989D01*
X34817646Y-89805300D01*
X34841613Y-89793267D01*
X34900295Y-89771268D01*
X34900296Y-89771267D01*
X34908705Y-89768115D01*
X35025261Y-89680761D01*
X35112615Y-89564205D01*
X35163745Y-89427816D01*
X35170500Y-89365634D01*
X41153500Y-89365634D01*
X41160255Y-89427816D01*
X41211385Y-89564205D01*
X41298739Y-89680761D01*
X41415295Y-89768115D01*
X41423703Y-89771267D01*
X41481075Y-89792775D01*
X41537839Y-89835417D01*
X41562539Y-89901978D01*
X41547331Y-89971327D01*
X41523817Y-90001926D01*
X41507522Y-90017470D01*
X41500470Y-90025442D01*
X41364210Y-90208582D01*
X41358606Y-90217619D01*
X41255149Y-90421106D01*
X41251148Y-90430959D01*
X41183456Y-90648961D01*
X41181172Y-90659348D01*
X41177700Y-90685543D01*
X41179896Y-90699707D01*
X41193081Y-90703500D01*
X44629282Y-90703500D01*
X44642813Y-90699527D01*
X44644338Y-90688920D01*
X44616587Y-90556660D01*
X44613527Y-90546463D01*
X44529685Y-90334160D01*
X44524951Y-90324624D01*
X44406532Y-90129475D01*
X44400266Y-90120882D01*
X44290178Y-89994016D01*
X44260639Y-89929456D01*
X44270693Y-89859175D01*
X44317148Y-89805486D01*
X44341114Y-89793454D01*
X44400297Y-89771267D01*
X44408705Y-89768115D01*
X44525261Y-89680761D01*
X44612615Y-89564205D01*
X44663745Y-89427816D01*
X44670500Y-89365634D01*
X44670500Y-87469366D01*
X44663745Y-87407184D01*
X44612615Y-87270795D01*
X44525261Y-87154239D01*
X44408705Y-87066885D01*
X44272316Y-87015755D01*
X44210134Y-87009000D01*
X41613866Y-87009000D01*
X41551684Y-87015755D01*
X41415295Y-87066885D01*
X41298739Y-87154239D01*
X41211385Y-87270795D01*
X41160255Y-87407184D01*
X41153500Y-87469366D01*
X41153500Y-89365634D01*
X35170500Y-89365634D01*
X35170500Y-87469366D01*
X35163745Y-87407184D01*
X35112615Y-87270795D01*
X35025261Y-87154239D01*
X34908705Y-87066885D01*
X34772316Y-87015755D01*
X34710134Y-87009000D01*
X32134500Y-87009000D01*
X32066379Y-86988998D01*
X32019886Y-86935342D01*
X32008500Y-86883000D01*
X32008500Y-74924500D01*
X32028502Y-74856379D01*
X32082158Y-74809886D01*
X32134500Y-74798500D01*
X34930884Y-74798500D01*
X34993066Y-74791745D01*
X35129455Y-74740615D01*
X35246011Y-74653261D01*
X35333365Y-74536705D01*
X35384495Y-74400316D01*
X35391250Y-74338134D01*
X35391250Y-72241866D01*
X35384495Y-72179684D01*
X35333365Y-72043295D01*
X35246011Y-71926739D01*
X35129455Y-71839385D01*
X35128222Y-71838923D01*
X35080797Y-71791392D01*
X35065784Y-71722001D01*
X35094089Y-71651155D01*
X35121860Y-71617346D01*
X35127616Y-71609064D01*
X35244591Y-71408081D01*
X35248953Y-71398976D01*
X35332287Y-71181885D01*
X35335138Y-71172196D01*
X35366571Y-71021736D01*
X35365448Y-71007675D01*
X35355340Y-71004000D01*
X33379750Y-71004000D01*
X33311629Y-70983998D01*
X33265136Y-70930342D01*
X33253750Y-70878000D01*
X33253750Y-70622000D01*
X33273752Y-70553879D01*
X33327408Y-70507386D01*
X33379750Y-70496000D01*
X35353340Y-70496000D01*
X35367426Y-70491864D01*
X35369475Y-70478886D01*
X35367425Y-70461170D01*
X35365465Y-70451273D01*
X35302146Y-70227506D01*
X35298634Y-70218062D01*
X35200351Y-70007295D01*
X35195372Y-69998529D01*
X35064663Y-69806198D01*
X35058331Y-69798323D01*
X34898564Y-69629374D01*
X34891055Y-69622613D01*
X34836460Y-69580872D01*
X34794492Y-69523607D01*
X34790147Y-69452744D01*
X34829663Y-69386263D01*
X34903261Y-69321378D01*
X34967608Y-69264650D01*
X34967611Y-69264647D01*
X34971405Y-69261302D01*
X35125484Y-69073722D01*
X35247591Y-68863922D01*
X35249404Y-68859199D01*
X35332770Y-68642022D01*
X35332771Y-68642018D01*
X35334583Y-68637298D01*
X35335618Y-68632345D01*
X35383190Y-68404631D01*
X35383190Y-68404627D01*
X35384224Y-68399680D01*
X35395236Y-68157183D01*
X35390144Y-68113171D01*
X35367917Y-67921071D01*
X35367916Y-67921067D01*
X35367335Y-67916044D01*
X35301240Y-67682468D01*
X35299106Y-67677892D01*
X35299104Y-67677886D01*
X35200788Y-67467046D01*
X35200786Y-67467042D01*
X35198651Y-67462464D01*
X35062206Y-67261693D01*
X34916540Y-67107655D01*
X38489858Y-67107655D01*
X38525104Y-67366638D01*
X38526412Y-67371124D01*
X38526412Y-67371126D01*
X38546098Y-67438664D01*
X38598243Y-67617567D01*
X38707668Y-67854928D01*
X38710231Y-67858837D01*
X38848410Y-68069596D01*
X38848414Y-68069601D01*
X38850976Y-68073509D01*
X39025018Y-68268506D01*
X39225970Y-68435637D01*
X39229973Y-68438066D01*
X39445422Y-68568804D01*
X39445426Y-68568806D01*
X39449419Y-68571229D01*
X39690455Y-68672303D01*
X39943783Y-68736641D01*
X39948434Y-68737109D01*
X39948438Y-68737110D01*
X40141308Y-68756531D01*
X40160867Y-68758500D01*
X41816354Y-68758500D01*
X41818679Y-68758327D01*
X41818685Y-68758327D01*
X42006000Y-68744407D01*
X42006004Y-68744406D01*
X42010652Y-68744061D01*
X42015200Y-68743032D01*
X42015206Y-68743031D01*
X42201601Y-68700853D01*
X42265577Y-68686377D01*
X42301769Y-68672303D01*
X42504824Y-68593340D01*
X42504827Y-68593339D01*
X42509177Y-68591647D01*
X42736098Y-68461951D01*
X42941357Y-68300138D01*
X43120443Y-68109763D01*
X43251344Y-67921071D01*
X43266759Y-67898851D01*
X43266761Y-67898848D01*
X43269424Y-67895009D01*
X43291284Y-67850682D01*
X43382960Y-67664781D01*
X43382961Y-67664778D01*
X43385025Y-67660593D01*
X43464707Y-67411665D01*
X43506721Y-67153693D01*
X43510142Y-66892345D01*
X43474896Y-66633362D01*
X43460473Y-66583877D01*
X43403068Y-66386932D01*
X43401757Y-66382433D01*
X43292332Y-66145072D01*
X43259519Y-66095024D01*
X43151590Y-65930404D01*
X43151586Y-65930399D01*
X43149024Y-65926491D01*
X42974982Y-65731494D01*
X42774030Y-65564363D01*
X42726844Y-65535730D01*
X42554578Y-65431196D01*
X42554574Y-65431194D01*
X42550581Y-65428771D01*
X42309545Y-65327697D01*
X42056217Y-65263359D01*
X42051566Y-65262891D01*
X42051562Y-65262890D01*
X41842271Y-65241816D01*
X41839133Y-65241500D01*
X40183646Y-65241500D01*
X40181321Y-65241673D01*
X40181315Y-65241673D01*
X39994000Y-65255593D01*
X39993996Y-65255594D01*
X39989348Y-65255939D01*
X39984800Y-65256968D01*
X39984794Y-65256969D01*
X39798399Y-65299147D01*
X39734423Y-65313623D01*
X39730071Y-65315315D01*
X39730069Y-65315316D01*
X39495176Y-65406660D01*
X39495173Y-65406661D01*
X39490823Y-65408353D01*
X39263902Y-65538049D01*
X39058643Y-65699862D01*
X38879557Y-65890237D01*
X38730576Y-66104991D01*
X38614975Y-66339407D01*
X38535293Y-66588335D01*
X38493279Y-66846307D01*
X38492949Y-66871510D01*
X38490191Y-67082240D01*
X38489858Y-67107655D01*
X34916540Y-67107655D01*
X34895418Y-67085319D01*
X34891391Y-67082240D01*
X34706596Y-66940953D01*
X34706592Y-66940950D01*
X34702576Y-66937880D01*
X34488641Y-66823169D01*
X34259119Y-66744138D01*
X34159772Y-66726978D01*
X34023824Y-66703496D01*
X34023818Y-66703495D01*
X34019914Y-66702821D01*
X34015953Y-66702641D01*
X34015952Y-66702641D01*
X33992244Y-66701564D01*
X33992225Y-66701564D01*
X33990825Y-66701500D01*
X33071749Y-66701500D01*
X33069241Y-66701702D01*
X33069236Y-66701702D01*
X32895826Y-66715654D01*
X32895821Y-66715655D01*
X32890785Y-66716060D01*
X32885877Y-66717266D01*
X32885874Y-66717266D01*
X32769757Y-66745787D01*
X32655044Y-66773963D01*
X32650392Y-66775938D01*
X32650388Y-66775939D01*
X32543002Y-66821522D01*
X32431594Y-66868812D01*
X32386798Y-66897022D01*
X32230462Y-66995472D01*
X32230459Y-66995474D01*
X32226183Y-66998167D01*
X32217825Y-67005535D01*
X32153503Y-67035581D01*
X32083145Y-67026081D01*
X32029092Y-66980051D01*
X32008500Y-66911022D01*
X32008500Y-61298134D01*
X38491500Y-61298134D01*
X38498255Y-61360316D01*
X38549385Y-61496705D01*
X38636739Y-61613261D01*
X38753295Y-61700615D01*
X38889684Y-61751745D01*
X38951866Y-61758500D01*
X43048134Y-61758500D01*
X43110316Y-61751745D01*
X43246705Y-61700615D01*
X43363261Y-61613261D01*
X43450615Y-61496705D01*
X43501745Y-61360316D01*
X43508500Y-61298134D01*
X43508500Y-58701866D01*
X43501745Y-58639684D01*
X43450615Y-58503295D01*
X43363261Y-58386739D01*
X43246705Y-58299385D01*
X43110316Y-58248255D01*
X43048134Y-58241500D01*
X38951866Y-58241500D01*
X38889684Y-58248255D01*
X38753295Y-58299385D01*
X38636739Y-58386739D01*
X38549385Y-58503295D01*
X38498255Y-58639684D01*
X38491500Y-58701866D01*
X38491500Y-61298134D01*
X32008500Y-61298134D01*
X32008500Y-50387960D01*
X36992231Y-50387960D01*
X36997998Y-50652240D01*
X36998790Y-50656848D01*
X36998790Y-50656850D01*
X37007448Y-50707235D01*
X37042764Y-50912765D01*
X37125547Y-51163811D01*
X37127649Y-51167981D01*
X37242423Y-51395689D01*
X37242427Y-51395695D01*
X37244528Y-51399864D01*
X37307974Y-51489638D01*
X37394391Y-51611916D01*
X37394395Y-51611921D01*
X37397092Y-51615737D01*
X37400326Y-51619115D01*
X37400329Y-51619119D01*
X37524364Y-51748688D01*
X37579889Y-51806690D01*
X37788902Y-51968525D01*
X37792984Y-51970811D01*
X37792987Y-51970813D01*
X38015458Y-52095403D01*
X38019540Y-52097689D01*
X38225892Y-52175868D01*
X38228935Y-52176683D01*
X38228937Y-52176684D01*
X40828998Y-52873368D01*
X40829003Y-52873369D01*
X40831238Y-52873968D01*
X40833509Y-52874399D01*
X40833517Y-52874401D01*
X41020240Y-52909851D01*
X41020243Y-52909851D01*
X41024829Y-52910722D01*
X41150398Y-52915656D01*
X41284301Y-52920917D01*
X41284306Y-52920917D01*
X41288969Y-52921100D01*
X41391684Y-52909851D01*
X41547088Y-52892832D01*
X41547094Y-52892831D01*
X41551741Y-52892322D01*
X41619810Y-52874401D01*
X41802849Y-52826211D01*
X41802851Y-52826210D01*
X41807372Y-52825020D01*
X42050248Y-52720672D01*
X42275034Y-52581571D01*
X42476788Y-52410772D01*
X42500613Y-52383605D01*
X42648000Y-52215544D01*
X42648004Y-52215539D01*
X42651082Y-52212029D01*
X42674342Y-52175868D01*
X42791560Y-51993632D01*
X42791562Y-51993629D01*
X42794085Y-51989706D01*
X42902655Y-51748688D01*
X42974408Y-51494270D01*
X43007769Y-51232040D01*
X43002002Y-50967760D01*
X42993315Y-50917201D01*
X42958027Y-50711839D01*
X42957236Y-50707235D01*
X42874452Y-50456189D01*
X42755472Y-50220136D01*
X42752771Y-50216314D01*
X42605609Y-50008084D01*
X42605605Y-50008079D01*
X42602908Y-50004263D01*
X42599674Y-50000885D01*
X42599671Y-50000881D01*
X42423348Y-49816691D01*
X42423345Y-49816688D01*
X42420111Y-49813310D01*
X42416411Y-49810445D01*
X42214792Y-49654335D01*
X42214790Y-49654334D01*
X42211098Y-49651475D01*
X42091807Y-49584669D01*
X43032001Y-49584669D01*
X43032371Y-49591490D01*
X43037895Y-49642352D01*
X43041521Y-49657604D01*
X43086676Y-49778054D01*
X43095214Y-49793649D01*
X43171715Y-49895724D01*
X43184276Y-49908285D01*
X43286351Y-49984786D01*
X43301946Y-49993324D01*
X43422394Y-50038478D01*
X43437649Y-50042105D01*
X43488514Y-50047631D01*
X43495328Y-50048000D01*
X44537885Y-50048000D01*
X44553124Y-50043525D01*
X44554329Y-50042135D01*
X44556000Y-50034452D01*
X44556000Y-50029884D01*
X45064000Y-50029884D01*
X45068475Y-50045123D01*
X45069865Y-50046328D01*
X45077548Y-50047999D01*
X46124669Y-50047999D01*
X46131490Y-50047629D01*
X46182352Y-50042105D01*
X46197604Y-50038479D01*
X46318054Y-49993324D01*
X46333649Y-49984786D01*
X46435724Y-49908285D01*
X46448285Y-49895724D01*
X46524786Y-49793649D01*
X46533324Y-49778054D01*
X46578478Y-49657606D01*
X46582105Y-49642351D01*
X46587631Y-49591486D01*
X46588000Y-49584672D01*
X46588000Y-47272115D01*
X46583525Y-47256876D01*
X46582135Y-47255671D01*
X46574452Y-47254000D01*
X45082115Y-47254000D01*
X45066876Y-47258475D01*
X45065671Y-47259865D01*
X45064000Y-47267548D01*
X45064000Y-50029884D01*
X44556000Y-50029884D01*
X44556000Y-47272115D01*
X44551525Y-47256876D01*
X44550135Y-47255671D01*
X44542452Y-47254000D01*
X43050116Y-47254000D01*
X43034877Y-47258475D01*
X43033672Y-47259865D01*
X43032001Y-47267548D01*
X43032001Y-49584669D01*
X42091807Y-49584669D01*
X41980459Y-49522311D01*
X41976085Y-49520654D01*
X41976081Y-49520652D01*
X41855047Y-49474797D01*
X41774107Y-49444132D01*
X41771062Y-49443316D01*
X39171002Y-48746632D01*
X39170997Y-48746631D01*
X39168762Y-48746032D01*
X39166491Y-48745601D01*
X39166483Y-48745599D01*
X39031793Y-48720027D01*
X38975170Y-48709277D01*
X38849901Y-48704356D01*
X38715699Y-48699083D01*
X38715694Y-48699083D01*
X38711031Y-48698900D01*
X38628826Y-48707903D01*
X38452912Y-48727168D01*
X38452906Y-48727169D01*
X38448259Y-48727678D01*
X38443736Y-48728869D01*
X38443735Y-48728869D01*
X38197150Y-48793789D01*
X38197148Y-48793790D01*
X38192627Y-48794980D01*
X37949752Y-48899328D01*
X37724966Y-49038429D01*
X37523212Y-49209228D01*
X37520133Y-49212739D01*
X37352000Y-49404456D01*
X37351996Y-49404461D01*
X37348918Y-49407971D01*
X37346389Y-49411902D01*
X37346388Y-49411904D01*
X37230875Y-49591490D01*
X37205915Y-49630294D01*
X37097345Y-49871312D01*
X37025591Y-50125730D01*
X36992231Y-50387960D01*
X32008500Y-50387960D01*
X32008500Y-43986107D01*
X32028502Y-43917986D01*
X32082158Y-43871493D01*
X32152432Y-43861389D01*
X32217012Y-43890883D01*
X32225136Y-43899603D01*
X32225365Y-43899374D01*
X32244276Y-43918285D01*
X32346351Y-43994786D01*
X32361946Y-44003324D01*
X32482394Y-44048478D01*
X32497649Y-44052105D01*
X32548514Y-44057631D01*
X32555328Y-44058000D01*
X33727885Y-44058000D01*
X33743124Y-44053525D01*
X33744329Y-44052135D01*
X33746000Y-44044452D01*
X33746000Y-44039884D01*
X34254000Y-44039884D01*
X34258475Y-44055123D01*
X34259865Y-44056328D01*
X34267548Y-44057999D01*
X35444669Y-44057999D01*
X35451490Y-44057629D01*
X35502352Y-44052105D01*
X35517604Y-44048479D01*
X35638054Y-44003324D01*
X35653649Y-43994786D01*
X35755724Y-43918285D01*
X35768285Y-43905724D01*
X35844786Y-43803649D01*
X35853324Y-43788054D01*
X35898478Y-43667606D01*
X35902105Y-43652351D01*
X35907631Y-43601486D01*
X35908000Y-43594672D01*
X35908000Y-43461710D01*
X37972504Y-43461710D01*
X37985346Y-43556070D01*
X37987287Y-43565197D01*
X38058616Y-43809916D01*
X38061888Y-43818669D01*
X38168608Y-44050163D01*
X38173128Y-44058318D01*
X38312896Y-44271500D01*
X38318579Y-44278905D01*
X38488317Y-44469081D01*
X38495033Y-44475566D01*
X38691020Y-44638567D01*
X38698612Y-44643982D01*
X38916540Y-44776224D01*
X38924857Y-44780462D01*
X39159935Y-44879039D01*
X39168785Y-44882000D01*
X39415849Y-44944745D01*
X39425046Y-44946367D01*
X39636742Y-44967684D01*
X39643034Y-44968000D01*
X40727885Y-44968000D01*
X40743124Y-44963525D01*
X40744329Y-44962135D01*
X40746000Y-44954452D01*
X40746000Y-44949885D01*
X41254000Y-44949885D01*
X41258475Y-44965124D01*
X41259865Y-44966329D01*
X41267548Y-44968000D01*
X42334749Y-44968000D01*
X42339424Y-44967827D01*
X42528890Y-44953747D01*
X42538096Y-44952370D01*
X42786738Y-44896109D01*
X42795649Y-44893385D01*
X42860333Y-44868231D01*
X42931072Y-44862184D01*
X42993850Y-44895341D01*
X43028737Y-44957175D01*
X43032000Y-44985664D01*
X43032000Y-46727885D01*
X43036475Y-46743124D01*
X43037865Y-46744329D01*
X43045548Y-46746000D01*
X44537885Y-46746000D01*
X44553124Y-46741525D01*
X44554329Y-46740135D01*
X44556000Y-46732452D01*
X44556000Y-46727885D01*
X45064000Y-46727885D01*
X45068475Y-46743124D01*
X45069865Y-46744329D01*
X45077548Y-46746000D01*
X46569884Y-46746000D01*
X46585123Y-46741525D01*
X46586328Y-46740135D01*
X46587999Y-46732452D01*
X46587999Y-44415331D01*
X46587629Y-44408510D01*
X46582105Y-44357648D01*
X46578479Y-44342396D01*
X46533324Y-44221946D01*
X46524786Y-44206351D01*
X46448285Y-44104276D01*
X46435724Y-44091715D01*
X46333649Y-44015214D01*
X46318054Y-44006676D01*
X46197606Y-43961522D01*
X46182351Y-43957895D01*
X46131486Y-43952369D01*
X46124672Y-43952000D01*
X45082115Y-43952000D01*
X45066876Y-43956475D01*
X45065671Y-43957865D01*
X45064000Y-43965548D01*
X45064000Y-46727885D01*
X44556000Y-46727885D01*
X44556000Y-43970116D01*
X44551525Y-43954877D01*
X44550135Y-43953672D01*
X44542452Y-43952001D01*
X44065671Y-43952001D01*
X43997550Y-43931999D01*
X43951057Y-43878343D01*
X43940953Y-43808069D01*
X43945669Y-43787588D01*
X44002297Y-43610681D01*
X44004473Y-43601620D01*
X44027231Y-43461878D01*
X44025535Y-43448285D01*
X44011428Y-43444000D01*
X41272115Y-43444000D01*
X41256876Y-43448475D01*
X41255671Y-43449865D01*
X41254000Y-43457548D01*
X41254000Y-44949885D01*
X40746000Y-44949885D01*
X40746000Y-43462115D01*
X40741525Y-43446876D01*
X40740135Y-43445671D01*
X40732452Y-43444000D01*
X37988209Y-43444000D01*
X37974526Y-43448018D01*
X37972504Y-43461710D01*
X35908000Y-43461710D01*
X35908000Y-43022115D01*
X35903525Y-43006876D01*
X35902135Y-43005671D01*
X35894452Y-43004000D01*
X34272115Y-43004000D01*
X34256876Y-43008475D01*
X34255671Y-43009865D01*
X34254000Y-43017548D01*
X34254000Y-44039884D01*
X33746000Y-44039884D01*
X33746000Y-42918122D01*
X37972769Y-42918122D01*
X37974465Y-42931715D01*
X37988572Y-42936000D01*
X40727885Y-42936000D01*
X40743124Y-42931525D01*
X40744329Y-42930135D01*
X40746000Y-42922452D01*
X40746000Y-42917885D01*
X41254000Y-42917885D01*
X41258475Y-42933124D01*
X41259865Y-42934329D01*
X41267548Y-42936000D01*
X44011791Y-42936000D01*
X44025474Y-42931982D01*
X44027496Y-42918290D01*
X44014654Y-42823930D01*
X44012713Y-42814803D01*
X43941384Y-42570084D01*
X43938112Y-42561331D01*
X43831392Y-42329837D01*
X43826872Y-42321682D01*
X43687104Y-42108500D01*
X43681421Y-42101095D01*
X43511683Y-41910919D01*
X43504967Y-41904434D01*
X43308980Y-41741433D01*
X43301388Y-41736018D01*
X43083460Y-41603776D01*
X43075143Y-41599538D01*
X42840065Y-41500961D01*
X42831215Y-41498000D01*
X42584151Y-41435255D01*
X42574954Y-41433633D01*
X42363258Y-41412316D01*
X42356966Y-41412000D01*
X41272115Y-41412000D01*
X41256876Y-41416475D01*
X41255671Y-41417865D01*
X41254000Y-41425548D01*
X41254000Y-42917885D01*
X40746000Y-42917885D01*
X40746000Y-41430115D01*
X40741525Y-41414876D01*
X40740135Y-41413671D01*
X40732452Y-41412000D01*
X39665251Y-41412000D01*
X39660576Y-41412173D01*
X39471110Y-41426253D01*
X39461904Y-41427630D01*
X39213262Y-41483891D01*
X39204351Y-41486615D01*
X38966758Y-41579010D01*
X38958349Y-41583021D01*
X38737025Y-41709519D01*
X38729299Y-41714730D01*
X38529100Y-41872554D01*
X38522232Y-41878847D01*
X38347566Y-42064523D01*
X38341691Y-42071778D01*
X38196392Y-42281224D01*
X38191659Y-42289259D01*
X38078909Y-42517894D01*
X38075421Y-42526527D01*
X37997703Y-42769319D01*
X37995527Y-42778380D01*
X37972769Y-42918122D01*
X33746000Y-42918122D01*
X33746000Y-42477885D01*
X34254000Y-42477885D01*
X34258475Y-42493124D01*
X34259865Y-42494329D01*
X34267548Y-42496000D01*
X35889884Y-42496000D01*
X35905123Y-42491525D01*
X35906328Y-42490135D01*
X35907999Y-42482452D01*
X35907999Y-41905331D01*
X35907629Y-41898510D01*
X35902105Y-41847648D01*
X35898479Y-41832396D01*
X35853324Y-41711946D01*
X35844786Y-41696351D01*
X35768285Y-41594276D01*
X35755724Y-41581715D01*
X35653649Y-41505214D01*
X35638054Y-41496676D01*
X35517606Y-41451522D01*
X35502351Y-41447895D01*
X35451486Y-41442369D01*
X35444672Y-41442000D01*
X34272115Y-41442000D01*
X34256876Y-41446475D01*
X34255671Y-41447865D01*
X34254000Y-41455548D01*
X34254000Y-42477885D01*
X33746000Y-42477885D01*
X33746000Y-41460116D01*
X33741525Y-41444877D01*
X33740135Y-41443672D01*
X33732452Y-41442001D01*
X32555331Y-41442001D01*
X32548510Y-41442371D01*
X32497648Y-41447895D01*
X32482396Y-41451521D01*
X32361946Y-41496676D01*
X32346351Y-41505214D01*
X32244276Y-41581715D01*
X32225365Y-41600626D01*
X32223236Y-41598497D01*
X32178474Y-41631970D01*
X32107656Y-41637000D01*
X32045360Y-41602944D01*
X32011366Y-41540615D01*
X32008500Y-41513893D01*
X32008500Y-40884500D01*
X32028502Y-40816379D01*
X32082158Y-40769886D01*
X32134500Y-40758500D01*
X49865500Y-40758500D01*
X49933621Y-40778502D01*
G37*
G04 #@! TD.AperFunction*
G04 #@! TA.AperFunction,Conductor*
G36*
X38692121Y-103520002D02*
G01*
X38738614Y-103573658D01*
X38750000Y-103626000D01*
X38750000Y-108423652D01*
X38729998Y-108491773D01*
X38676342Y-108538266D01*
X38606068Y-108548370D01*
X38539201Y-108516846D01*
X38508259Y-108488691D01*
X38508252Y-108488686D01*
X38504107Y-108484914D01*
X38315010Y-108366293D01*
X38107895Y-108283034D01*
X38102407Y-108281897D01*
X38102402Y-108281896D01*
X37937845Y-108247818D01*
X37889310Y-108237767D01*
X37884697Y-108237501D01*
X37834474Y-108234605D01*
X37834470Y-108234605D01*
X37832651Y-108234500D01*
X36988370Y-108234500D01*
X36985583Y-108234749D01*
X36985577Y-108234749D01*
X36916003Y-108240959D01*
X36822661Y-108249289D01*
X36817247Y-108250770D01*
X36817242Y-108250771D01*
X36703470Y-108281896D01*
X36607349Y-108308192D01*
X36602291Y-108310604D01*
X36602287Y-108310606D01*
X36506610Y-108356242D01*
X36405871Y-108404292D01*
X36224595Y-108534552D01*
X36220688Y-108538584D01*
X36213068Y-108546447D01*
X36151298Y-108581447D01*
X36080412Y-108577495D01*
X36037784Y-108551955D01*
X35968260Y-108488693D01*
X35964107Y-108484914D01*
X35775010Y-108366293D01*
X35567895Y-108283034D01*
X35562407Y-108281897D01*
X35562402Y-108281896D01*
X35397845Y-108247818D01*
X35349310Y-108237767D01*
X35344697Y-108237501D01*
X35294474Y-108234605D01*
X35294470Y-108234605D01*
X35292651Y-108234500D01*
X34448370Y-108234500D01*
X34445583Y-108234749D01*
X34445577Y-108234749D01*
X34376003Y-108240959D01*
X34282661Y-108249289D01*
X34277247Y-108250770D01*
X34277242Y-108250771D01*
X34163470Y-108281896D01*
X34067349Y-108308192D01*
X34062291Y-108310604D01*
X34062287Y-108310606D01*
X33966610Y-108356242D01*
X33865871Y-108404292D01*
X33684595Y-108534552D01*
X33529251Y-108694854D01*
X33404750Y-108880132D01*
X33315026Y-109084529D01*
X33313718Y-109089977D01*
X33313716Y-109089983D01*
X33281552Y-109223956D01*
X33262915Y-109301585D01*
X33250066Y-109524438D01*
X33276883Y-109746044D01*
X33342519Y-109959400D01*
X33444901Y-110157759D01*
X33448310Y-110162201D01*
X33448312Y-110162205D01*
X33534975Y-110275146D01*
X33580790Y-110334854D01*
X33745893Y-110485086D01*
X33934990Y-110603707D01*
X33940200Y-110605801D01*
X33940207Y-110605805D01*
X34018640Y-110637335D01*
X34074385Y-110681301D01*
X34097510Y-110748426D01*
X34080673Y-110817398D01*
X34025888Y-110867968D01*
X33865871Y-110944292D01*
X33684595Y-111074552D01*
X33529251Y-111234854D01*
X33404750Y-111420132D01*
X33315026Y-111624529D01*
X33313718Y-111629977D01*
X33313716Y-111629983D01*
X33281552Y-111763956D01*
X33262915Y-111841585D01*
X33250066Y-112064438D01*
X33276883Y-112286044D01*
X33342519Y-112499400D01*
X33444901Y-112697759D01*
X33448310Y-112702201D01*
X33448312Y-112702205D01*
X33534975Y-112815146D01*
X33580790Y-112874854D01*
X33745893Y-113025086D01*
X33934990Y-113143707D01*
X33940200Y-113145801D01*
X33940207Y-113145805D01*
X34018640Y-113177335D01*
X34074385Y-113221301D01*
X34097510Y-113288426D01*
X34080673Y-113357398D01*
X34025888Y-113407968D01*
X33865871Y-113484292D01*
X33684595Y-113614552D01*
X33529251Y-113774854D01*
X33404750Y-113960132D01*
X33315026Y-114164529D01*
X33313718Y-114169977D01*
X33313716Y-114169983D01*
X33281552Y-114303956D01*
X33262915Y-114381585D01*
X33250066Y-114604438D01*
X33276883Y-114826044D01*
X33342519Y-115039400D01*
X33444901Y-115237759D01*
X33448310Y-115242201D01*
X33448312Y-115242205D01*
X33534975Y-115355146D01*
X33580790Y-115414854D01*
X33745893Y-115565086D01*
X33934990Y-115683707D01*
X33940200Y-115685801D01*
X33940207Y-115685805D01*
X34018640Y-115717335D01*
X34074385Y-115761301D01*
X34097510Y-115828426D01*
X34080673Y-115897398D01*
X34025888Y-115947968D01*
X33865871Y-116024292D01*
X33684595Y-116154552D01*
X33529251Y-116314854D01*
X33404750Y-116500132D01*
X33315026Y-116704529D01*
X33313718Y-116709977D01*
X33313716Y-116709983D01*
X33281552Y-116843956D01*
X33262915Y-116921585D01*
X33250066Y-117144438D01*
X33276883Y-117366044D01*
X33342519Y-117579400D01*
X33444901Y-117777759D01*
X33448310Y-117782201D01*
X33448312Y-117782205D01*
X33534975Y-117895146D01*
X33580790Y-117954854D01*
X33745893Y-118105086D01*
X33934990Y-118223707D01*
X33940200Y-118225801D01*
X33940207Y-118225805D01*
X34018640Y-118257335D01*
X34074385Y-118301301D01*
X34097510Y-118368426D01*
X34080673Y-118437398D01*
X34025888Y-118487968D01*
X33865871Y-118564292D01*
X33684595Y-118694552D01*
X33529251Y-118854854D01*
X33404750Y-119040132D01*
X33315026Y-119244529D01*
X33313718Y-119249977D01*
X33313716Y-119249983D01*
X33278924Y-119394903D01*
X33262915Y-119461585D01*
X33250066Y-119684438D01*
X33276883Y-119906044D01*
X33342519Y-120119400D01*
X33444901Y-120317759D01*
X33448310Y-120322201D01*
X33448312Y-120322205D01*
X33577380Y-120490410D01*
X33580790Y-120494854D01*
X33745893Y-120645086D01*
X33934990Y-120763707D01*
X33940200Y-120765801D01*
X33940207Y-120765805D01*
X34018640Y-120797335D01*
X34074385Y-120841301D01*
X34097510Y-120908426D01*
X34080673Y-120977398D01*
X34025888Y-121027968D01*
X33865871Y-121104292D01*
X33684595Y-121234552D01*
X33529251Y-121394854D01*
X33404750Y-121580132D01*
X33315026Y-121784529D01*
X33313718Y-121789977D01*
X33313716Y-121789983D01*
X33278924Y-121934903D01*
X33262915Y-122001585D01*
X33250066Y-122224438D01*
X33276883Y-122446044D01*
X33342519Y-122659400D01*
X33444901Y-122857759D01*
X33448310Y-122862201D01*
X33448312Y-122862205D01*
X33577380Y-123030410D01*
X33580790Y-123034854D01*
X33745893Y-123185086D01*
X33934990Y-123303707D01*
X33940200Y-123305801D01*
X33940207Y-123305805D01*
X34018640Y-123337335D01*
X34074385Y-123381301D01*
X34097510Y-123448426D01*
X34080673Y-123517398D01*
X34025888Y-123567968D01*
X33865871Y-123644292D01*
X33684595Y-123774552D01*
X33529251Y-123934854D01*
X33404750Y-124120132D01*
X33315026Y-124324529D01*
X33313718Y-124329977D01*
X33313716Y-124329983D01*
X33278924Y-124474903D01*
X33262915Y-124541585D01*
X33250066Y-124764438D01*
X33276883Y-124986044D01*
X33342519Y-125199400D01*
X33444901Y-125397759D01*
X33448310Y-125402201D01*
X33448312Y-125402205D01*
X33577380Y-125570410D01*
X33580790Y-125574854D01*
X33745893Y-125725086D01*
X33934990Y-125843707D01*
X34142105Y-125926966D01*
X34147593Y-125928103D01*
X34147598Y-125928104D01*
X34297896Y-125959229D01*
X34360690Y-125972233D01*
X34365303Y-125972499D01*
X34415526Y-125975395D01*
X34415530Y-125975395D01*
X34417349Y-125975500D01*
X35261630Y-125975500D01*
X35264417Y-125975251D01*
X35264423Y-125975251D01*
X35333997Y-125969041D01*
X35427339Y-125960711D01*
X35432753Y-125959230D01*
X35432758Y-125959229D01*
X35560104Y-125924390D01*
X35642651Y-125901808D01*
X35647709Y-125899396D01*
X35647713Y-125899394D01*
X35839062Y-125808125D01*
X35839063Y-125808124D01*
X35844129Y-125805708D01*
X35922801Y-125749176D01*
X35996325Y-125725500D01*
X36250304Y-125725500D01*
X36317261Y-125744763D01*
X36470239Y-125840727D01*
X36470242Y-125840728D01*
X36474990Y-125843707D01*
X36480192Y-125845798D01*
X36623204Y-125903288D01*
X36682105Y-125926966D01*
X36687593Y-125928103D01*
X36687598Y-125928104D01*
X36837896Y-125959229D01*
X36900690Y-125972233D01*
X36905303Y-125972499D01*
X36955526Y-125975395D01*
X36955530Y-125975395D01*
X36957349Y-125975500D01*
X37801630Y-125975500D01*
X37804417Y-125975251D01*
X37804423Y-125975251D01*
X37873997Y-125969041D01*
X37967339Y-125960711D01*
X37972753Y-125959230D01*
X37972758Y-125959229D01*
X38100104Y-125924390D01*
X38182651Y-125901808D01*
X38187709Y-125899396D01*
X38187713Y-125899394D01*
X38379062Y-125808125D01*
X38379063Y-125808124D01*
X38384129Y-125805708D01*
X38462801Y-125749176D01*
X38536325Y-125725500D01*
X38624000Y-125725500D01*
X38692121Y-125745502D01*
X38738614Y-125799158D01*
X38750000Y-125851500D01*
X38750000Y-134242098D01*
X38729998Y-134310219D01*
X38717642Y-134326401D01*
X38540827Y-134522774D01*
X38538785Y-134525627D01*
X38538778Y-134525635D01*
X38337806Y-134806351D01*
X38337802Y-134806358D01*
X38335754Y-134809218D01*
X38163888Y-135116736D01*
X38027372Y-135441495D01*
X37927907Y-135779447D01*
X37866733Y-136126381D01*
X37844613Y-136477971D01*
X37861822Y-136829836D01*
X37918146Y-137177590D01*
X38012882Y-137516898D01*
X38144851Y-137843531D01*
X38312406Y-138153419D01*
X38513460Y-138442698D01*
X38515773Y-138445340D01*
X38515776Y-138445344D01*
X38718804Y-138677260D01*
X38748625Y-138741690D01*
X38750000Y-138760255D01*
X38750000Y-142629128D01*
X38729998Y-142697249D01*
X38676342Y-142743742D01*
X38637605Y-142754391D01*
X38629279Y-142755295D01*
X38629276Y-142755296D01*
X38621420Y-142756149D01*
X38487176Y-142806474D01*
X38479997Y-142811854D01*
X38479994Y-142811856D01*
X38452064Y-142832789D01*
X38372454Y-142892454D01*
X38367072Y-142899635D01*
X38291856Y-142999994D01*
X38291854Y-142999997D01*
X38286474Y-143007176D01*
X38236149Y-143141420D01*
X38229500Y-143202623D01*
X38229501Y-145797376D01*
X38229870Y-145800770D01*
X38229870Y-145800776D01*
X38236149Y-145858580D01*
X38233169Y-145858904D01*
X38230191Y-145915773D01*
X38188736Y-145973410D01*
X38122701Y-145999485D01*
X38111317Y-146000000D01*
X35098683Y-146000000D01*
X35030562Y-145979998D01*
X34984069Y-145926342D01*
X34974334Y-145858632D01*
X34973851Y-145858580D01*
X34974056Y-145856698D01*
X34974056Y-145856696D01*
X34980500Y-145797377D01*
X34980499Y-143202624D01*
X34973851Y-143141420D01*
X34923526Y-143007176D01*
X34918146Y-142999997D01*
X34918144Y-142999994D01*
X34842928Y-142899635D01*
X34837546Y-142892454D01*
X34757936Y-142832789D01*
X34730006Y-142811856D01*
X34730003Y-142811854D01*
X34722824Y-142806474D01*
X34633439Y-142772966D01*
X34595975Y-142758921D01*
X34595973Y-142758921D01*
X34588580Y-142756149D01*
X34580730Y-142755296D01*
X34580729Y-142755296D01*
X34530774Y-142749869D01*
X34530773Y-142749869D01*
X34527377Y-142749500D01*
X33480154Y-142749500D01*
X32432624Y-142749501D01*
X32429230Y-142749870D01*
X32429224Y-142749870D01*
X32379278Y-142755295D01*
X32379274Y-142755296D01*
X32371420Y-142756149D01*
X32237176Y-142806474D01*
X32202063Y-142832790D01*
X32135558Y-142857636D01*
X32066176Y-142842583D01*
X32015946Y-142792408D01*
X32000500Y-142731962D01*
X32000500Y-103626000D01*
X32020502Y-103557879D01*
X32074158Y-103511386D01*
X32126500Y-103500000D01*
X38624000Y-103500000D01*
X38692121Y-103520002D01*
G37*
G04 #@! TD.AperFunction*
G04 #@! TA.AperFunction,Conductor*
G36*
X42038887Y-92257561D02*
G01*
X42190829Y-92312714D01*
X42190833Y-92312715D01*
X42195844Y-92314534D01*
X42201093Y-92315483D01*
X42201096Y-92315484D01*
X42425641Y-92356088D01*
X42425648Y-92356089D01*
X42429725Y-92356826D01*
X42447991Y-92357687D01*
X42453131Y-92357930D01*
X42453138Y-92357930D01*
X42454619Y-92358000D01*
X43321680Y-92358000D01*
X43404026Y-92351013D01*
X43493512Y-92343420D01*
X43493516Y-92343419D01*
X43498823Y-92342969D01*
X43503978Y-92341631D01*
X43503984Y-92341630D01*
X43608379Y-92314534D01*
X43728874Y-92283260D01*
X43733740Y-92281068D01*
X43733743Y-92281067D01*
X43778028Y-92261118D01*
X43829778Y-92250000D01*
X49873500Y-92250000D01*
X49941621Y-92270002D01*
X49988114Y-92323658D01*
X49999500Y-92376000D01*
X49999500Y-143378527D01*
X49979498Y-143446648D01*
X49925842Y-143493141D01*
X49855568Y-143503245D01*
X49790988Y-143473751D01*
X49767708Y-143446967D01*
X49695715Y-143335683D01*
X49692905Y-143331339D01*
X49666635Y-143302468D01*
X49640243Y-143273464D01*
X49526846Y-143148842D01*
X49522795Y-143145643D01*
X49522791Y-143145639D01*
X49337264Y-142999119D01*
X49337259Y-142999116D01*
X49333210Y-142995918D01*
X49328694Y-142993425D01*
X49328691Y-142993423D01*
X49121722Y-142879170D01*
X49121718Y-142879168D01*
X49117198Y-142876673D01*
X49112329Y-142874949D01*
X49112325Y-142874947D01*
X48889485Y-142796035D01*
X48889481Y-142796034D01*
X48884610Y-142794309D01*
X48879517Y-142793402D01*
X48879514Y-142793401D01*
X48646783Y-142751945D01*
X48646777Y-142751944D01*
X48641694Y-142751039D01*
X48562324Y-142750069D01*
X48400142Y-142748088D01*
X48400140Y-142748088D01*
X48394972Y-142748025D01*
X48151070Y-142785347D01*
X47916540Y-142862003D01*
X47697679Y-142975935D01*
X47693546Y-142979038D01*
X47693543Y-142979040D01*
X47504499Y-143120978D01*
X47500364Y-143124083D01*
X47329896Y-143302468D01*
X47326982Y-143306740D01*
X47326981Y-143306741D01*
X47307238Y-143335683D01*
X47190851Y-143506300D01*
X47086965Y-143730104D01*
X47021026Y-143967871D01*
X46999500Y-144169292D01*
X46999500Y-144812554D01*
X46999712Y-144815127D01*
X46999712Y-144815138D01*
X47014151Y-144990760D01*
X47014152Y-144990766D01*
X47014575Y-144995911D01*
X47074684Y-145235217D01*
X47173072Y-145461493D01*
X47190871Y-145489005D01*
X47233927Y-145555560D01*
X47254134Y-145623620D01*
X47234338Y-145691801D01*
X47180823Y-145738455D01*
X47128135Y-145750000D01*
X43642788Y-145750000D01*
X43574667Y-145729998D01*
X43528174Y-145676342D01*
X43518070Y-145606068D01*
X43538700Y-145552996D01*
X43576230Y-145497979D01*
X43579149Y-145493700D01*
X43683035Y-145269896D01*
X43748974Y-145032129D01*
X43770500Y-144830708D01*
X43770500Y-144187446D01*
X43769500Y-144175283D01*
X43755849Y-144009240D01*
X43755848Y-144009234D01*
X43755425Y-144004089D01*
X43695316Y-143764783D01*
X43596928Y-143538507D01*
X43520208Y-143419916D01*
X43500000Y-143351476D01*
X43500000Y-138460653D01*
X43523549Y-138387306D01*
X43662194Y-138193649D01*
X43662198Y-138193642D01*
X43664246Y-138190782D01*
X43836112Y-137883264D01*
X43972628Y-137558505D01*
X44072093Y-137220553D01*
X44133267Y-136873619D01*
X44155387Y-136522029D01*
X44138178Y-136170164D01*
X44081854Y-135822410D01*
X43987118Y-135483102D01*
X43855149Y-135156469D01*
X43687594Y-134846581D01*
X43522535Y-134609092D01*
X43500000Y-134537182D01*
X43500000Y-128641500D01*
X43520002Y-128573379D01*
X43573658Y-128526886D01*
X43626000Y-128515500D01*
X45427324Y-128515500D01*
X45430570Y-128515163D01*
X45430574Y-128515163D01*
X45521017Y-128505779D01*
X45521021Y-128505778D01*
X45527875Y-128505067D01*
X45534411Y-128502886D01*
X45534413Y-128502886D01*
X45680431Y-128454170D01*
X45687379Y-128451852D01*
X45830363Y-128363371D01*
X45858409Y-128335276D01*
X45920691Y-128301197D01*
X45991511Y-128306200D01*
X46014538Y-128317557D01*
X46119990Y-128383707D01*
X46327105Y-128466966D01*
X46332593Y-128468103D01*
X46332598Y-128468104D01*
X46482896Y-128499229D01*
X46545690Y-128512233D01*
X46550303Y-128512499D01*
X46600526Y-128515395D01*
X46600530Y-128515395D01*
X46602349Y-128515500D01*
X47446630Y-128515500D01*
X47449417Y-128515251D01*
X47449423Y-128515251D01*
X47518997Y-128509041D01*
X47612339Y-128500711D01*
X47617753Y-128499230D01*
X47617758Y-128499229D01*
X47782463Y-128454170D01*
X47827651Y-128441808D01*
X47832709Y-128439396D01*
X47832713Y-128439394D01*
X47949462Y-128383707D01*
X48029129Y-128345708D01*
X48210405Y-128215448D01*
X48365749Y-128055146D01*
X48490250Y-127869868D01*
X48579974Y-127665471D01*
X48581282Y-127660023D01*
X48581284Y-127660017D01*
X48630775Y-127453872D01*
X48630775Y-127453871D01*
X48632085Y-127448415D01*
X48644934Y-127225562D01*
X48618117Y-127003956D01*
X48552481Y-126790600D01*
X48450099Y-126592241D01*
X48446690Y-126587799D01*
X48446688Y-126587795D01*
X48317620Y-126419590D01*
X48314210Y-126415146D01*
X48149107Y-126264914D01*
X47960010Y-126146293D01*
X47954800Y-126144199D01*
X47954793Y-126144195D01*
X47876360Y-126112665D01*
X47820615Y-126068699D01*
X47797490Y-126001574D01*
X47814327Y-125932602D01*
X47869112Y-125882032D01*
X48029129Y-125805708D01*
X48210405Y-125675448D01*
X48365749Y-125515146D01*
X48490250Y-125329868D01*
X48579974Y-125125471D01*
X48581282Y-125120023D01*
X48581284Y-125120017D01*
X48630775Y-124913872D01*
X48630775Y-124913871D01*
X48632085Y-124908415D01*
X48644934Y-124685562D01*
X48618117Y-124463956D01*
X48552481Y-124250600D01*
X48450099Y-124052241D01*
X48446690Y-124047799D01*
X48446688Y-124047795D01*
X48317620Y-123879590D01*
X48314210Y-123875146D01*
X48149107Y-123724914D01*
X47960010Y-123606293D01*
X47954800Y-123604199D01*
X47954793Y-123604195D01*
X47876360Y-123572665D01*
X47820615Y-123528699D01*
X47797490Y-123461574D01*
X47814327Y-123392602D01*
X47869112Y-123342032D01*
X48029129Y-123265708D01*
X48210405Y-123135448D01*
X48365749Y-122975146D01*
X48490250Y-122789868D01*
X48579974Y-122585471D01*
X48581282Y-122580023D01*
X48581284Y-122580017D01*
X48630775Y-122373872D01*
X48630775Y-122373871D01*
X48632085Y-122368415D01*
X48644934Y-122145562D01*
X48618117Y-121923956D01*
X48552481Y-121710600D01*
X48450099Y-121512241D01*
X48446690Y-121507799D01*
X48446688Y-121507795D01*
X48317620Y-121339590D01*
X48314210Y-121335146D01*
X48149107Y-121184914D01*
X47960010Y-121066293D01*
X47954800Y-121064199D01*
X47954793Y-121064195D01*
X47876360Y-121032665D01*
X47820615Y-120988699D01*
X47797490Y-120921574D01*
X47814327Y-120852602D01*
X47869112Y-120802032D01*
X48029129Y-120725708D01*
X48210405Y-120595448D01*
X48365749Y-120435146D01*
X48490250Y-120249868D01*
X48579974Y-120045471D01*
X48581282Y-120040023D01*
X48581284Y-120040017D01*
X48630775Y-119833872D01*
X48630775Y-119833871D01*
X48632085Y-119828415D01*
X48644934Y-119605562D01*
X48618117Y-119383956D01*
X48552481Y-119170600D01*
X48450099Y-118972241D01*
X48446690Y-118967799D01*
X48446688Y-118967795D01*
X48317620Y-118799590D01*
X48314210Y-118795146D01*
X48149107Y-118644914D01*
X47960010Y-118526293D01*
X47752895Y-118443034D01*
X47747407Y-118441897D01*
X47747402Y-118441896D01*
X47580270Y-118407285D01*
X47534310Y-118397767D01*
X47529697Y-118397501D01*
X47479474Y-118394605D01*
X47479470Y-118394605D01*
X47477651Y-118394500D01*
X46633370Y-118394500D01*
X46630583Y-118394749D01*
X46630577Y-118394749D01*
X46561003Y-118400959D01*
X46467661Y-118409289D01*
X46462247Y-118410770D01*
X46462242Y-118410771D01*
X46348470Y-118441896D01*
X46252349Y-118468192D01*
X46247291Y-118470604D01*
X46247287Y-118470606D01*
X46124279Y-118529278D01*
X46050871Y-118564292D01*
X45972199Y-118620824D01*
X45898675Y-118644500D01*
X45644696Y-118644500D01*
X45577739Y-118625237D01*
X45424761Y-118529273D01*
X45424758Y-118529272D01*
X45420010Y-118526293D01*
X45275478Y-118468192D01*
X45218097Y-118445125D01*
X45218095Y-118445124D01*
X45212895Y-118443034D01*
X45207407Y-118441897D01*
X45207402Y-118441896D01*
X45040270Y-118407285D01*
X44994310Y-118397767D01*
X44989697Y-118397501D01*
X44939474Y-118394605D01*
X44939470Y-118394605D01*
X44937651Y-118394500D01*
X44093370Y-118394500D01*
X44090583Y-118394749D01*
X44090577Y-118394749D01*
X44021003Y-118400959D01*
X43927661Y-118409289D01*
X43922247Y-118410770D01*
X43922242Y-118410771D01*
X43808470Y-118441896D01*
X43712349Y-118468192D01*
X43707291Y-118470604D01*
X43707287Y-118470606D01*
X43680244Y-118483505D01*
X43610148Y-118494778D01*
X43545085Y-118466364D01*
X43505712Y-118407285D01*
X43500000Y-118369779D01*
X43500000Y-115838003D01*
X43520002Y-115769882D01*
X43573658Y-115723389D01*
X43643932Y-115713285D01*
X43672996Y-115721095D01*
X43728204Y-115743288D01*
X43787105Y-115766966D01*
X43792593Y-115768103D01*
X43792598Y-115768104D01*
X43942896Y-115799229D01*
X44005690Y-115812233D01*
X44010303Y-115812499D01*
X44060526Y-115815395D01*
X44060530Y-115815395D01*
X44062349Y-115815500D01*
X44906630Y-115815500D01*
X44909417Y-115815251D01*
X44909423Y-115815251D01*
X44978997Y-115809041D01*
X45072339Y-115800711D01*
X45077753Y-115799230D01*
X45077758Y-115799229D01*
X45205104Y-115764390D01*
X45287651Y-115741808D01*
X45292709Y-115739396D01*
X45292713Y-115739394D01*
X45409462Y-115683707D01*
X45489129Y-115645708D01*
X45670405Y-115515448D01*
X45681932Y-115503553D01*
X45743702Y-115468553D01*
X45814588Y-115472505D01*
X45857216Y-115498045D01*
X45930893Y-115565086D01*
X46119990Y-115683707D01*
X46327105Y-115766966D01*
X46332593Y-115768103D01*
X46332598Y-115768104D01*
X46482896Y-115799229D01*
X46545690Y-115812233D01*
X46550303Y-115812499D01*
X46600526Y-115815395D01*
X46600530Y-115815395D01*
X46602349Y-115815500D01*
X47446630Y-115815500D01*
X47449417Y-115815251D01*
X47449423Y-115815251D01*
X47518997Y-115809041D01*
X47612339Y-115800711D01*
X47617753Y-115799230D01*
X47617758Y-115799229D01*
X47745104Y-115764390D01*
X47827651Y-115741808D01*
X47832709Y-115739396D01*
X47832713Y-115739394D01*
X47949462Y-115683707D01*
X48029129Y-115645708D01*
X48210405Y-115515448D01*
X48365749Y-115355146D01*
X48490250Y-115169868D01*
X48579974Y-114965471D01*
X48581282Y-114960023D01*
X48581284Y-114960017D01*
X48630775Y-114753872D01*
X48630775Y-114753871D01*
X48632085Y-114748415D01*
X48644934Y-114525562D01*
X48618117Y-114303956D01*
X48552481Y-114090600D01*
X48450099Y-113892241D01*
X48446690Y-113887799D01*
X48446688Y-113887795D01*
X48317620Y-113719590D01*
X48314210Y-113715146D01*
X48149107Y-113564914D01*
X47960010Y-113446293D01*
X47954800Y-113444199D01*
X47954793Y-113444195D01*
X47876360Y-113412665D01*
X47820615Y-113368699D01*
X47797490Y-113301574D01*
X47814327Y-113232602D01*
X47869112Y-113182032D01*
X48029129Y-113105708D01*
X48210405Y-112975448D01*
X48365749Y-112815146D01*
X48490250Y-112629868D01*
X48579974Y-112425471D01*
X48581282Y-112420023D01*
X48581284Y-112420017D01*
X48630775Y-112213872D01*
X48630775Y-112213871D01*
X48632085Y-112208415D01*
X48644934Y-111985562D01*
X48618117Y-111763956D01*
X48552481Y-111550600D01*
X48450099Y-111352241D01*
X48446690Y-111347799D01*
X48446688Y-111347795D01*
X48317620Y-111179590D01*
X48314210Y-111175146D01*
X48149107Y-111024914D01*
X47960010Y-110906293D01*
X47954800Y-110904199D01*
X47954793Y-110904195D01*
X47876360Y-110872665D01*
X47820615Y-110828699D01*
X47797490Y-110761574D01*
X47814327Y-110692602D01*
X47869112Y-110642032D01*
X48029129Y-110565708D01*
X48210405Y-110435448D01*
X48365749Y-110275146D01*
X48490250Y-110089868D01*
X48579974Y-109885471D01*
X48581282Y-109880023D01*
X48581284Y-109880017D01*
X48630775Y-109673872D01*
X48630775Y-109673871D01*
X48632085Y-109668415D01*
X48644934Y-109445562D01*
X48618117Y-109223956D01*
X48552481Y-109010600D01*
X48450099Y-108812241D01*
X48446690Y-108807799D01*
X48446688Y-108807795D01*
X48317620Y-108639590D01*
X48314210Y-108635146D01*
X48149107Y-108484914D01*
X47960010Y-108366293D01*
X47752895Y-108283034D01*
X47747407Y-108281897D01*
X47747402Y-108281896D01*
X47580270Y-108247285D01*
X47534310Y-108237767D01*
X47529697Y-108237501D01*
X47479474Y-108234605D01*
X47479470Y-108234605D01*
X47477651Y-108234500D01*
X46633370Y-108234500D01*
X46630583Y-108234749D01*
X46630577Y-108234749D01*
X46561003Y-108240959D01*
X46467661Y-108249289D01*
X46462247Y-108250770D01*
X46462242Y-108250771D01*
X46348470Y-108281896D01*
X46252349Y-108308192D01*
X46247291Y-108310604D01*
X46247287Y-108310606D01*
X46196610Y-108334778D01*
X46050871Y-108404292D01*
X45869595Y-108534552D01*
X45865688Y-108538584D01*
X45858068Y-108546447D01*
X45796298Y-108581447D01*
X45725412Y-108577495D01*
X45682784Y-108551955D01*
X45613260Y-108488693D01*
X45609107Y-108484914D01*
X45420010Y-108366293D01*
X45212895Y-108283034D01*
X45207407Y-108281897D01*
X45207402Y-108281896D01*
X45040270Y-108247285D01*
X44994310Y-108237767D01*
X44989697Y-108237501D01*
X44939474Y-108234605D01*
X44939470Y-108234605D01*
X44937651Y-108234500D01*
X44093370Y-108234500D01*
X44090583Y-108234749D01*
X44090577Y-108234749D01*
X44021003Y-108240959D01*
X43927661Y-108249289D01*
X43922247Y-108250770D01*
X43922242Y-108250771D01*
X43808470Y-108281896D01*
X43712349Y-108308192D01*
X43707291Y-108310604D01*
X43707287Y-108310606D01*
X43680244Y-108323505D01*
X43610148Y-108334778D01*
X43545085Y-108306364D01*
X43505712Y-108247285D01*
X43500000Y-108209779D01*
X43500000Y-97250000D01*
X42552190Y-97250000D01*
X42484069Y-97229998D01*
X42463095Y-97213095D01*
X41286905Y-96036905D01*
X41252879Y-95974593D01*
X41250000Y-95947810D01*
X41250000Y-92376000D01*
X41270002Y-92307879D01*
X41323658Y-92261386D01*
X41376000Y-92250000D01*
X41995896Y-92250000D01*
X42038887Y-92257561D01*
G37*
G04 #@! TD.AperFunction*
M02*
