G04 #@! TF.GenerationSoftware,KiCad,Pcbnew,6.0.4-6f826c9f35~116~ubuntu18.04.1*
G04 #@! TF.CreationDate,2022-10-10T17:48:02-04:00*
G04 #@! TF.ProjectId,4UP,3455502e-6b69-4636-9164-5f7063625858,rev?*
G04 #@! TF.SameCoordinates,Original*
G04 #@! TF.FileFunction,Copper,L2,Inr*
G04 #@! TF.FilePolarity,Positive*
%FSLAX46Y46*%
G04 Gerber Fmt 4.6, Leading zero omitted, Abs format (unit mm)*
G04 Created by KiCad (PCBNEW 6.0.4-6f826c9f35~116~ubuntu18.04.1) date 2022-10-10 17:48:02*
%MOMM*%
%LPD*%
G01*
G04 APERTURE LIST*
G04 Aperture macros list*
%AMHorizOval*
0 Thick line with rounded ends*
0 $1 width*
0 $2 $3 position (X,Y) of the first rounded end (center of the circle)*
0 $4 $5 position (X,Y) of the second rounded end (center of the circle)*
0 Add line between two ends*
20,1,$1,$2,$3,$4,$5,0*
0 Add two circle primitives to create the rounded ends*
1,1,$1,$2,$3*
1,1,$1,$4,$5*%
G04 Aperture macros list end*
G04 #@! TA.AperFunction,ComponentPad*
%ADD10R,1.800000X1.800000*%
G04 #@! TD*
G04 #@! TA.AperFunction,ComponentPad*
%ADD11C,1.800000*%
G04 #@! TD*
G04 #@! TA.AperFunction,ComponentPad*
%ADD12R,4.000000X2.500000*%
G04 #@! TD*
G04 #@! TA.AperFunction,ComponentPad*
%ADD13O,4.000000X2.500000*%
G04 #@! TD*
G04 #@! TA.AperFunction,ComponentPad*
%ADD14R,2.000000X2.500000*%
G04 #@! TD*
G04 #@! TA.AperFunction,ComponentPad*
%ADD15O,2.000000X2.500000*%
G04 #@! TD*
G04 #@! TA.AperFunction,ComponentPad*
%ADD16HorizOval,2.540000X1.226726X-0.328700X-1.226726X0.328700X0*%
G04 #@! TD*
G04 #@! TA.AperFunction,ComponentPad*
%ADD17R,2.540000X5.080000*%
G04 #@! TD*
G04 #@! TA.AperFunction,ComponentPad*
%ADD18O,5.080000X2.540000*%
G04 #@! TD*
G04 #@! TA.AperFunction,ComponentPad*
%ADD19R,2.750000X2.000000*%
G04 #@! TD*
G04 #@! TA.AperFunction,ComponentPad*
%ADD20O,2.750000X2.000000*%
G04 #@! TD*
G04 #@! TA.AperFunction,ComponentPad*
%ADD21R,2.500000X1.800000*%
G04 #@! TD*
G04 #@! TA.AperFunction,ComponentPad*
%ADD22O,2.500000X1.800000*%
G04 #@! TD*
G04 #@! TA.AperFunction,ComponentPad*
%ADD23R,2.800000X1.600000*%
G04 #@! TD*
G04 #@! TA.AperFunction,ComponentPad*
%ADD24R,1.727200X1.727200*%
G04 #@! TD*
G04 #@! TA.AperFunction,ComponentPad*
%ADD25O,1.727200X1.727200*%
G04 #@! TD*
G04 #@! TA.AperFunction,ViaPad*
%ADD26C,0.800000*%
G04 #@! TD*
G04 #@! TA.AperFunction,Conductor*
%ADD27C,1.800000*%
G04 #@! TD*
G04 APERTURE END LIST*
D10*
X41000000Y-101500000D03*
D11*
X41000000Y-98960000D03*
D12*
X41000000Y-60000000D03*
D13*
X41000000Y-67000000D03*
D14*
X45960000Y-144500000D03*
D15*
X48500000Y-144500000D03*
D14*
X39730000Y-144500000D03*
D15*
X42270000Y-144500000D03*
D16*
X40000000Y-50810000D03*
D17*
X44810000Y-47000000D03*
D18*
X41000000Y-43190000D03*
D14*
X33480000Y-144500000D03*
D15*
X36020000Y-144500000D03*
D19*
X33507750Y-73790000D03*
D20*
X33507750Y-71250000D03*
X33507750Y-68710000D03*
D21*
X42912000Y-88417500D03*
D22*
X42912000Y-90957500D03*
X42912000Y-93497500D03*
D23*
X34000000Y-42750000D03*
D24*
X44500000Y-127265000D03*
D25*
X47040000Y-127265000D03*
X44500000Y-124725000D03*
X47040000Y-124725000D03*
X44500000Y-122185000D03*
X47040000Y-122185000D03*
X44500000Y-119645000D03*
X47040000Y-119645000D03*
X44500000Y-117105000D03*
X47040000Y-117105000D03*
X44500000Y-114565000D03*
X47040000Y-114565000D03*
X44500000Y-112025000D03*
X47040000Y-112025000D03*
X44500000Y-109485000D03*
X47040000Y-109485000D03*
D24*
X34855000Y-127265000D03*
D25*
X37395000Y-127265000D03*
X34855000Y-124725000D03*
X37395000Y-124725000D03*
X34855000Y-122185000D03*
X37395000Y-122185000D03*
X34855000Y-119645000D03*
X37395000Y-119645000D03*
X34855000Y-117105000D03*
X37395000Y-117105000D03*
X34855000Y-114565000D03*
X37395000Y-114565000D03*
X34855000Y-112025000D03*
X37395000Y-112025000D03*
X34855000Y-109485000D03*
X37395000Y-109485000D03*
D21*
X33412000Y-88417500D03*
D22*
X33412000Y-90957500D03*
X33412000Y-93497500D03*
D26*
X49250000Y-72000000D03*
X49250000Y-85750000D03*
X49250000Y-71000000D03*
X37750000Y-77000000D03*
X49250000Y-86750000D03*
X49250000Y-70000000D03*
X49250000Y-65250000D03*
X49250000Y-63250000D03*
X35750000Y-77000000D03*
X36750000Y-77000000D03*
X40250000Y-79000000D03*
X49250000Y-64250000D03*
X49250000Y-73000000D03*
X36500000Y-104500000D03*
X35500000Y-105500000D03*
X36500000Y-106500000D03*
X35500000Y-106500000D03*
X37500000Y-106500000D03*
X36500000Y-105500000D03*
X34500000Y-105500000D03*
X33500000Y-104500000D03*
X34500000Y-106500000D03*
X33500000Y-106500000D03*
X33500000Y-105500000D03*
X37500000Y-104500000D03*
X34500000Y-104500000D03*
X35500000Y-104500000D03*
X37500000Y-105500000D03*
X49000000Y-101000000D03*
X46000000Y-101000000D03*
X47000000Y-100000000D03*
X49000000Y-97000000D03*
X48000000Y-98000000D03*
X47000000Y-98000000D03*
X49000000Y-96000000D03*
X49000000Y-100000000D03*
X49000000Y-98000000D03*
X47000000Y-99000000D03*
X46000000Y-96000000D03*
X46000000Y-97000000D03*
X48000000Y-96000000D03*
X47000000Y-97000000D03*
X46000000Y-99000000D03*
X48000000Y-99000000D03*
X48000000Y-101000000D03*
X48000000Y-100000000D03*
X49000000Y-99000000D03*
X46000000Y-100000000D03*
X47000000Y-96000000D03*
X47000000Y-101000000D03*
X46000000Y-98000000D03*
X48000000Y-97000000D03*
D27*
X46895000Y-127265000D02*
X34855000Y-127265000D01*
X46895000Y-117105000D02*
X34855000Y-117105000D01*
G04 #@! TA.AperFunction,Conductor*
G36*
X37651331Y-48918799D02*
G01*
X37686811Y-48980294D01*
X37683412Y-49051209D01*
X37645765Y-49106131D01*
X37527137Y-49206557D01*
X37520479Y-49213100D01*
X37352399Y-49404759D01*
X37346791Y-49412201D01*
X37208880Y-49626608D01*
X37204437Y-49634791D01*
X37146287Y-49763880D01*
X37144408Y-49777451D01*
X37156924Y-49785241D01*
X39820395Y-50498915D01*
X42974907Y-51344164D01*
X42989163Y-51343824D01*
X42994660Y-51331121D01*
X43006679Y-51236641D01*
X43007166Y-51227345D01*
X43004778Y-51117881D01*
X43023289Y-51049340D01*
X43075918Y-51001688D01*
X43145955Y-50990054D01*
X43211164Y-51018131D01*
X43229136Y-51036420D01*
X43867807Y-51834759D01*
X43972389Y-51965486D01*
X43999325Y-52031175D01*
X44000000Y-52044198D01*
X44000000Y-61374000D01*
X43979998Y-61442121D01*
X43926342Y-61488614D01*
X43874000Y-61500000D01*
X43626471Y-61500000D01*
X43558350Y-61479998D01*
X43511857Y-61426342D01*
X43502365Y-61360328D01*
X43501252Y-61360207D01*
X43507631Y-61301486D01*
X43508000Y-61294672D01*
X43508000Y-60272115D01*
X43503525Y-60256876D01*
X43502135Y-60255671D01*
X43494452Y-60254000D01*
X38510116Y-60254000D01*
X38494877Y-60258475D01*
X38493672Y-60259865D01*
X38492001Y-60267548D01*
X38492001Y-61294669D01*
X38492371Y-61301490D01*
X38498748Y-61360207D01*
X38495262Y-61360586D01*
X38492474Y-61415574D01*
X38451115Y-61473280D01*
X38385123Y-61499466D01*
X38373530Y-61500000D01*
X36126000Y-61500000D01*
X36057879Y-61479998D01*
X36011386Y-61426342D01*
X36000000Y-61374000D01*
X36000000Y-59727885D01*
X38492000Y-59727885D01*
X38496475Y-59743124D01*
X38497865Y-59744329D01*
X38505548Y-59746000D01*
X40727885Y-59746000D01*
X40743124Y-59741525D01*
X40744329Y-59740135D01*
X40746000Y-59732452D01*
X40746000Y-59727885D01*
X41254000Y-59727885D01*
X41258475Y-59743124D01*
X41259865Y-59744329D01*
X41267548Y-59746000D01*
X43489884Y-59746000D01*
X43505123Y-59741525D01*
X43506328Y-59740135D01*
X43507999Y-59732452D01*
X43507999Y-58705331D01*
X43507629Y-58698510D01*
X43502105Y-58647648D01*
X43498479Y-58632396D01*
X43453324Y-58511946D01*
X43444786Y-58496351D01*
X43368285Y-58394276D01*
X43355724Y-58381715D01*
X43253649Y-58305214D01*
X43238054Y-58296676D01*
X43117606Y-58251522D01*
X43102351Y-58247895D01*
X43051486Y-58242369D01*
X43044672Y-58242000D01*
X41272115Y-58242000D01*
X41256876Y-58246475D01*
X41255671Y-58247865D01*
X41254000Y-58255548D01*
X41254000Y-59727885D01*
X40746000Y-59727885D01*
X40746000Y-58260116D01*
X40741525Y-58244877D01*
X40740135Y-58243672D01*
X40732452Y-58242001D01*
X38955331Y-58242001D01*
X38948510Y-58242371D01*
X38897648Y-58247895D01*
X38882396Y-58251521D01*
X38761946Y-58296676D01*
X38746351Y-58305214D01*
X38644276Y-58381715D01*
X38631715Y-58394276D01*
X38555214Y-58496351D01*
X38546676Y-58511946D01*
X38501522Y-58632394D01*
X38497895Y-58647649D01*
X38492369Y-58698514D01*
X38492000Y-58705328D01*
X38492000Y-59727885D01*
X36000000Y-59727885D01*
X36000000Y-52575659D01*
X39789853Y-52575659D01*
X39790231Y-52591535D01*
X39791264Y-52593061D01*
X39798249Y-52596662D01*
X40829113Y-52872881D01*
X40833632Y-52873914D01*
X41020297Y-52909353D01*
X41029554Y-52910407D01*
X41284284Y-52920417D01*
X41293598Y-52920091D01*
X41546996Y-52892340D01*
X41556173Y-52890639D01*
X41802686Y-52825737D01*
X41811506Y-52822700D01*
X42045723Y-52722073D01*
X42053995Y-52717766D01*
X42270764Y-52583625D01*
X42278304Y-52578147D01*
X42472871Y-52413436D01*
X42479521Y-52406900D01*
X42647601Y-52215241D01*
X42653208Y-52207799D01*
X42791116Y-51993398D01*
X42795563Y-51985206D01*
X42853713Y-51856119D01*
X42855592Y-51842550D01*
X42843074Y-51834759D01*
X40197102Y-51125773D01*
X40181226Y-51126151D01*
X40179700Y-51127184D01*
X40176099Y-51134169D01*
X39789853Y-52575659D01*
X36000000Y-52575659D01*
X36000000Y-50392654D01*
X36992834Y-50392654D01*
X36998395Y-50647516D01*
X36999289Y-50656802D01*
X37042459Y-50908040D01*
X37044713Y-50917080D01*
X37124548Y-51159185D01*
X37128113Y-51167791D01*
X37242849Y-51395424D01*
X37247658Y-51403428D01*
X37394781Y-51611603D01*
X37400707Y-51618792D01*
X37576988Y-51802938D01*
X37583924Y-51809183D01*
X37785484Y-51965247D01*
X37793252Y-51970388D01*
X38015671Y-52094948D01*
X38024130Y-52098893D01*
X38223092Y-52174272D01*
X38229090Y-52176207D01*
X39276978Y-52456988D01*
X39292854Y-52456610D01*
X39294380Y-52455577D01*
X39297981Y-52448592D01*
X39684227Y-51007102D01*
X39683849Y-50991226D01*
X39682816Y-50989700D01*
X39675831Y-50986099D01*
X37025093Y-50275836D01*
X37010837Y-50276176D01*
X37005340Y-50288879D01*
X36993321Y-50383359D01*
X36992834Y-50392654D01*
X36000000Y-50392654D01*
X36000000Y-49585306D01*
X36020002Y-49517185D01*
X36079205Y-49468318D01*
X37517560Y-48892976D01*
X37588236Y-48886248D01*
X37651331Y-48918799D01*
G37*
G04 #@! TD.AperFunction*
G04 #@! TA.AperFunction,Conductor*
G36*
X38813942Y-65770002D02*
G01*
X38860435Y-65823658D01*
X38870539Y-65893932D01*
X38849348Y-65947820D01*
X38789458Y-66034151D01*
X38737489Y-66109063D01*
X38735423Y-66113253D01*
X38735421Y-66113256D01*
X38715720Y-66153207D01*
X38622414Y-66342413D01*
X38543094Y-66590208D01*
X38501272Y-66847006D01*
X38497866Y-67107165D01*
X38532952Y-67364970D01*
X38605758Y-67614757D01*
X38714686Y-67851039D01*
X38717246Y-67854944D01*
X38717249Y-67854949D01*
X38854775Y-68064712D01*
X38854779Y-68064717D01*
X38857341Y-68068625D01*
X39030591Y-68262735D01*
X39230629Y-68429105D01*
X39453061Y-68564080D01*
X39457375Y-68565889D01*
X39457377Y-68565890D01*
X39688686Y-68662886D01*
X39688691Y-68662888D01*
X39693001Y-68664695D01*
X39697533Y-68665846D01*
X39697536Y-68665847D01*
X39822815Y-68697663D01*
X39945177Y-68728739D01*
X40161286Y-68750500D01*
X41816044Y-68750500D01*
X41818369Y-68750327D01*
X41818375Y-68750327D01*
X42004814Y-68736472D01*
X42004818Y-68736471D01*
X42009466Y-68736126D01*
X42263232Y-68678705D01*
X42267586Y-68677012D01*
X42501370Y-68586098D01*
X42501372Y-68586097D01*
X42505723Y-68584405D01*
X42541285Y-68564080D01*
X42589038Y-68536786D01*
X42731612Y-68455299D01*
X42935936Y-68294223D01*
X43114208Y-68104714D01*
X43262511Y-67890937D01*
X43280258Y-67854949D01*
X43375521Y-67661775D01*
X43375522Y-67661772D01*
X43377586Y-67657587D01*
X43456906Y-67409792D01*
X43498728Y-67152994D01*
X43502134Y-66892835D01*
X43467048Y-66635030D01*
X43394242Y-66385243D01*
X43285314Y-66148961D01*
X43261421Y-66112517D01*
X43151648Y-65945085D01*
X43131025Y-65877149D01*
X43150405Y-65808849D01*
X43203635Y-65761868D01*
X43257020Y-65750000D01*
X48432361Y-65750000D01*
X48500482Y-65770002D01*
X48525997Y-65791690D01*
X48639709Y-65917981D01*
X48639718Y-65917989D01*
X48644129Y-65922888D01*
X48797270Y-66034151D01*
X48970197Y-66111144D01*
X49068212Y-66131978D01*
X49148897Y-66149128D01*
X49148901Y-66149128D01*
X49155354Y-66150500D01*
X49344646Y-66150500D01*
X49351099Y-66149128D01*
X49351103Y-66149128D01*
X49431788Y-66131978D01*
X49529803Y-66111144D01*
X49702730Y-66034151D01*
X49799439Y-65963888D01*
X49866307Y-65940029D01*
X49935458Y-65956110D01*
X49984939Y-66007024D01*
X49999500Y-66065824D01*
X49999500Y-69184176D01*
X49979498Y-69252297D01*
X49925842Y-69298790D01*
X49855568Y-69308894D01*
X49799439Y-69286112D01*
X49708072Y-69219730D01*
X49708071Y-69219729D01*
X49702730Y-69215849D01*
X49529803Y-69138856D01*
X49431788Y-69118022D01*
X49351103Y-69100872D01*
X49351099Y-69100872D01*
X49344646Y-69099500D01*
X49155354Y-69099500D01*
X49148901Y-69100872D01*
X49148897Y-69100872D01*
X49068212Y-69118022D01*
X48970197Y-69138856D01*
X48797270Y-69215849D01*
X48644129Y-69327112D01*
X48517467Y-69467784D01*
X48422821Y-69631716D01*
X48364326Y-69811744D01*
X48344540Y-70000000D01*
X48364326Y-70188256D01*
X48422821Y-70368284D01*
X48426124Y-70374006D01*
X48426125Y-70374007D01*
X48462494Y-70437000D01*
X48479232Y-70505996D01*
X48462494Y-70563000D01*
X48422821Y-70631716D01*
X48364326Y-70811744D01*
X48344540Y-71000000D01*
X48364326Y-71188256D01*
X48422821Y-71368284D01*
X48426124Y-71374006D01*
X48426125Y-71374007D01*
X48462494Y-71437000D01*
X48479232Y-71505996D01*
X48462494Y-71563000D01*
X48422821Y-71631716D01*
X48364326Y-71811744D01*
X48344540Y-72000000D01*
X48345230Y-72006565D01*
X48360864Y-72155312D01*
X48364326Y-72188256D01*
X48422821Y-72368284D01*
X48426124Y-72374006D01*
X48426125Y-72374007D01*
X48462494Y-72437000D01*
X48479232Y-72505996D01*
X48462494Y-72563000D01*
X48422821Y-72631716D01*
X48364326Y-72811744D01*
X48344540Y-73000000D01*
X48364326Y-73188256D01*
X48422821Y-73368284D01*
X48517467Y-73532216D01*
X48644129Y-73672888D01*
X48797270Y-73784151D01*
X48970197Y-73861144D01*
X49068212Y-73881978D01*
X49148897Y-73899128D01*
X49148901Y-73899128D01*
X49155354Y-73900500D01*
X49344646Y-73900500D01*
X49351099Y-73899128D01*
X49351103Y-73899128D01*
X49431788Y-73881978D01*
X49529803Y-73861144D01*
X49702730Y-73784151D01*
X49799439Y-73713888D01*
X49866307Y-73690029D01*
X49935458Y-73706110D01*
X49984939Y-73757024D01*
X49999500Y-73815824D01*
X49999500Y-84934176D01*
X49979498Y-85002297D01*
X49925842Y-85048790D01*
X49855568Y-85058894D01*
X49799439Y-85036112D01*
X49708072Y-84969730D01*
X49708071Y-84969729D01*
X49702730Y-84965849D01*
X49529803Y-84888856D01*
X49431788Y-84868022D01*
X49351103Y-84850872D01*
X49351099Y-84850872D01*
X49344646Y-84849500D01*
X49155354Y-84849500D01*
X49148901Y-84850872D01*
X49148897Y-84850872D01*
X49068212Y-84868022D01*
X48970197Y-84888856D01*
X48797270Y-84965849D01*
X48644129Y-85077112D01*
X48517467Y-85217784D01*
X48422821Y-85381716D01*
X48364326Y-85561744D01*
X48344540Y-85750000D01*
X48364326Y-85938256D01*
X48422821Y-86118284D01*
X48426124Y-86124006D01*
X48426125Y-86124007D01*
X48462494Y-86187000D01*
X48479232Y-86255996D01*
X48462494Y-86313000D01*
X48422821Y-86381716D01*
X48364326Y-86561744D01*
X48344540Y-86750000D01*
X48364326Y-86938256D01*
X48422821Y-87118284D01*
X48517467Y-87282216D01*
X48521885Y-87287123D01*
X48521886Y-87287124D01*
X48638628Y-87416778D01*
X48644129Y-87422888D01*
X48649468Y-87426767D01*
X48713849Y-87473542D01*
X48797270Y-87534151D01*
X48970197Y-87611144D01*
X49068212Y-87631978D01*
X49148897Y-87649128D01*
X49148901Y-87649128D01*
X49155354Y-87650500D01*
X49344646Y-87650500D01*
X49351099Y-87649128D01*
X49351103Y-87649128D01*
X49431788Y-87631978D01*
X49529803Y-87611144D01*
X49702730Y-87534151D01*
X49799439Y-87463888D01*
X49866307Y-87440029D01*
X49935458Y-87456110D01*
X49984939Y-87507024D01*
X49999500Y-87565824D01*
X49999500Y-95459946D01*
X49979498Y-95528067D01*
X49925842Y-95574560D01*
X49855568Y-95584664D01*
X49790988Y-95555170D01*
X49764381Y-95522946D01*
X49735836Y-95473505D01*
X49732533Y-95467784D01*
X49605871Y-95327112D01*
X49452730Y-95215849D01*
X49279803Y-95138856D01*
X49181788Y-95118022D01*
X49101103Y-95100872D01*
X49101099Y-95100872D01*
X49094646Y-95099500D01*
X48905354Y-95099500D01*
X48898901Y-95100872D01*
X48898897Y-95100872D01*
X48818212Y-95118022D01*
X48720197Y-95138856D01*
X48551247Y-95214078D01*
X48480882Y-95223512D01*
X48448755Y-95214079D01*
X48279803Y-95138856D01*
X48181788Y-95118022D01*
X48101103Y-95100872D01*
X48101099Y-95100872D01*
X48094646Y-95099500D01*
X47905354Y-95099500D01*
X47898901Y-95100872D01*
X47898897Y-95100872D01*
X47818212Y-95118022D01*
X47720197Y-95138856D01*
X47551247Y-95214078D01*
X47480882Y-95223512D01*
X47448755Y-95214079D01*
X47279803Y-95138856D01*
X47181788Y-95118022D01*
X47101103Y-95100872D01*
X47101099Y-95100872D01*
X47094646Y-95099500D01*
X46905354Y-95099500D01*
X46898901Y-95100872D01*
X46898897Y-95100872D01*
X46818212Y-95118022D01*
X46720197Y-95138856D01*
X46551247Y-95214078D01*
X46480882Y-95223512D01*
X46448755Y-95214079D01*
X46279803Y-95138856D01*
X46181788Y-95118022D01*
X46101103Y-95100872D01*
X46101099Y-95100872D01*
X46094646Y-95099500D01*
X45905354Y-95099500D01*
X45898901Y-95100872D01*
X45898897Y-95100872D01*
X45818212Y-95118022D01*
X45720197Y-95138856D01*
X45547270Y-95215849D01*
X45394129Y-95327112D01*
X45267467Y-95467784D01*
X45172821Y-95631716D01*
X45114326Y-95811744D01*
X45094540Y-96000000D01*
X45114326Y-96188256D01*
X45172821Y-96368284D01*
X45176124Y-96374006D01*
X45176125Y-96374007D01*
X45212494Y-96437000D01*
X45229232Y-96505996D01*
X45212494Y-96563000D01*
X45172821Y-96631716D01*
X45114326Y-96811744D01*
X45094540Y-97000000D01*
X45114326Y-97188256D01*
X45172821Y-97368284D01*
X45176124Y-97374006D01*
X45176125Y-97374007D01*
X45212494Y-97437000D01*
X45229232Y-97505996D01*
X45212494Y-97563000D01*
X45190893Y-97600415D01*
X45172821Y-97631716D01*
X45114326Y-97811744D01*
X45094540Y-98000000D01*
X45095230Y-98006565D01*
X45105320Y-98102563D01*
X45114326Y-98188256D01*
X45172821Y-98368284D01*
X45176124Y-98374006D01*
X45176125Y-98374007D01*
X45212494Y-98437000D01*
X45229232Y-98505996D01*
X45212494Y-98563000D01*
X45172821Y-98631716D01*
X45114326Y-98811744D01*
X45113636Y-98818305D01*
X45113636Y-98818307D01*
X45095899Y-98987074D01*
X45094540Y-99000000D01*
X45095230Y-99006565D01*
X45111423Y-99160632D01*
X45114326Y-99188256D01*
X45172821Y-99368284D01*
X45176124Y-99374006D01*
X45176125Y-99374007D01*
X45212494Y-99437000D01*
X45229232Y-99505996D01*
X45212494Y-99563000D01*
X45197581Y-99588831D01*
X45172821Y-99631716D01*
X45114326Y-99811744D01*
X45094540Y-100000000D01*
X45095230Y-100006565D01*
X45110986Y-100156474D01*
X45114326Y-100188256D01*
X45172821Y-100368284D01*
X45176124Y-100374006D01*
X45176125Y-100374007D01*
X45212494Y-100437000D01*
X45229232Y-100505996D01*
X45212494Y-100563000D01*
X45172821Y-100631716D01*
X45114326Y-100811744D01*
X45094540Y-101000000D01*
X45114326Y-101188256D01*
X45172821Y-101368284D01*
X45267467Y-101532216D01*
X45394129Y-101672888D01*
X45547270Y-101784151D01*
X45720197Y-101861144D01*
X45818212Y-101881978D01*
X45898897Y-101899128D01*
X45898901Y-101899128D01*
X45905354Y-101900500D01*
X46094646Y-101900500D01*
X46101099Y-101899128D01*
X46101103Y-101899128D01*
X46181788Y-101881978D01*
X46279803Y-101861144D01*
X46448753Y-101785922D01*
X46519118Y-101776488D01*
X46551245Y-101785921D01*
X46720197Y-101861144D01*
X46818212Y-101881978D01*
X46898897Y-101899128D01*
X46898901Y-101899128D01*
X46905354Y-101900500D01*
X47094646Y-101900500D01*
X47101099Y-101899128D01*
X47101103Y-101899128D01*
X47181788Y-101881978D01*
X47279803Y-101861144D01*
X47448753Y-101785922D01*
X47519118Y-101776488D01*
X47551245Y-101785921D01*
X47720197Y-101861144D01*
X47818212Y-101881978D01*
X47898897Y-101899128D01*
X47898901Y-101899128D01*
X47905354Y-101900500D01*
X48094646Y-101900500D01*
X48101099Y-101899128D01*
X48101103Y-101899128D01*
X48181788Y-101881978D01*
X48279803Y-101861144D01*
X48448753Y-101785922D01*
X48519118Y-101776488D01*
X48551245Y-101785921D01*
X48720197Y-101861144D01*
X48818212Y-101881978D01*
X48898897Y-101899128D01*
X48898901Y-101899128D01*
X48905354Y-101900500D01*
X49094646Y-101900500D01*
X49101099Y-101899128D01*
X49101103Y-101899128D01*
X49181788Y-101881978D01*
X49279803Y-101861144D01*
X49452730Y-101784151D01*
X49605871Y-101672888D01*
X49732533Y-101532216D01*
X49764381Y-101477054D01*
X49815764Y-101428061D01*
X49885477Y-101414625D01*
X49951388Y-101441012D01*
X49992570Y-101498844D01*
X49999500Y-101540054D01*
X49999500Y-143378527D01*
X49979498Y-143446648D01*
X49925842Y-143493141D01*
X49855568Y-143503245D01*
X49790988Y-143473751D01*
X49767708Y-143446967D01*
X49695715Y-143335683D01*
X49692905Y-143331339D01*
X49666635Y-143302468D01*
X49578892Y-143206040D01*
X49526846Y-143148842D01*
X49522795Y-143145643D01*
X49522791Y-143145639D01*
X49337264Y-142999119D01*
X49337259Y-142999116D01*
X49333210Y-142995918D01*
X49328694Y-142993425D01*
X49328691Y-142993423D01*
X49121722Y-142879170D01*
X49121718Y-142879168D01*
X49117198Y-142876673D01*
X49112329Y-142874949D01*
X49112325Y-142874947D01*
X48889485Y-142796035D01*
X48889481Y-142796034D01*
X48884610Y-142794309D01*
X48879517Y-142793402D01*
X48879514Y-142793401D01*
X48646783Y-142751945D01*
X48646777Y-142751944D01*
X48641694Y-142751039D01*
X48556643Y-142750000D01*
X48400142Y-142748088D01*
X48400140Y-142748088D01*
X48394972Y-142748025D01*
X48151070Y-142785347D01*
X47916540Y-142862003D01*
X47697679Y-142975935D01*
X47592387Y-143054990D01*
X47525903Y-143079895D01*
X47456507Y-143064902D01*
X47406447Y-143014969D01*
X47403526Y-143007176D01*
X47398146Y-142999997D01*
X47398144Y-142999994D01*
X47322928Y-142899635D01*
X47317546Y-142892454D01*
X47310365Y-142887072D01*
X47210006Y-142811856D01*
X47210003Y-142811854D01*
X47202824Y-142806474D01*
X47100500Y-142768115D01*
X47075975Y-142758921D01*
X47075973Y-142758921D01*
X47068580Y-142756149D01*
X47060730Y-142755296D01*
X47060729Y-142755296D01*
X47010774Y-142749869D01*
X47010773Y-142749869D01*
X47007377Y-142749500D01*
X45960154Y-142749500D01*
X44912624Y-142749501D01*
X44909230Y-142749870D01*
X44909224Y-142749870D01*
X44859278Y-142755295D01*
X44859274Y-142755296D01*
X44851420Y-142756149D01*
X44717176Y-142806474D01*
X44709997Y-142811854D01*
X44709994Y-142811856D01*
X44609635Y-142887072D01*
X44602454Y-142892454D01*
X44597072Y-142899635D01*
X44521856Y-142999994D01*
X44521854Y-142999997D01*
X44516474Y-143007176D01*
X44466149Y-143141420D01*
X44459500Y-143202623D01*
X44459501Y-145797376D01*
X44466149Y-145858580D01*
X44516474Y-145992824D01*
X44521854Y-146000003D01*
X44521856Y-146000006D01*
X44541678Y-146026454D01*
X44602454Y-146107546D01*
X44609635Y-146112928D01*
X44709994Y-146188144D01*
X44709997Y-146188146D01*
X44717176Y-146193526D01*
X44806561Y-146227034D01*
X44844025Y-146241079D01*
X44844027Y-146241079D01*
X44851420Y-146243851D01*
X44859270Y-146244704D01*
X44859271Y-146244704D01*
X44909217Y-146250130D01*
X44912623Y-146250500D01*
X45959846Y-146250500D01*
X47007376Y-146250499D01*
X47010770Y-146250130D01*
X47010776Y-146250130D01*
X47060722Y-146244705D01*
X47060726Y-146244704D01*
X47068580Y-146243851D01*
X47202824Y-146193526D01*
X47210003Y-146188146D01*
X47210006Y-146188144D01*
X47310365Y-146112928D01*
X47317546Y-146107546D01*
X47378322Y-146026454D01*
X47398144Y-146000006D01*
X47398146Y-146000003D01*
X47403526Y-145992824D01*
X47406379Y-145985214D01*
X47456334Y-145935369D01*
X47525725Y-145920354D01*
X47594688Y-145947141D01*
X47662730Y-146000876D01*
X47666790Y-146004082D01*
X47671306Y-146006575D01*
X47671309Y-146006577D01*
X47878278Y-146120830D01*
X47878282Y-146120832D01*
X47882802Y-146123327D01*
X47887671Y-146125051D01*
X47887675Y-146125053D01*
X48110515Y-146203965D01*
X48110519Y-146203966D01*
X48115390Y-146205691D01*
X48120483Y-146206598D01*
X48120486Y-146206599D01*
X48353217Y-146248055D01*
X48353223Y-146248056D01*
X48358306Y-146248961D01*
X48437676Y-146249931D01*
X48599858Y-146251912D01*
X48599860Y-146251912D01*
X48605028Y-146251975D01*
X48848930Y-146214653D01*
X49083460Y-146137997D01*
X49302321Y-146024065D01*
X49306454Y-146020962D01*
X49306457Y-146020960D01*
X49495501Y-145879022D01*
X49495504Y-145879020D01*
X49499636Y-145875917D01*
X49670104Y-145697532D01*
X49689799Y-145668661D01*
X49769412Y-145551952D01*
X49824323Y-145506949D01*
X49894848Y-145498778D01*
X49958595Y-145530032D01*
X49995325Y-145590789D01*
X49999500Y-145622956D01*
X49999500Y-147623500D01*
X49979498Y-147691621D01*
X49925842Y-147738114D01*
X49873500Y-147749500D01*
X32126500Y-147749500D01*
X32058379Y-147729498D01*
X32011886Y-147675842D01*
X32000500Y-147623500D01*
X32000500Y-146268038D01*
X32020502Y-146199917D01*
X32074158Y-146153424D01*
X32144432Y-146143320D01*
X32202063Y-146167210D01*
X32237176Y-146193526D01*
X32326561Y-146227034D01*
X32364025Y-146241079D01*
X32364027Y-146241079D01*
X32371420Y-146243851D01*
X32379270Y-146244704D01*
X32379271Y-146244704D01*
X32429217Y-146250130D01*
X32432623Y-146250500D01*
X33479846Y-146250500D01*
X34527376Y-146250499D01*
X34530770Y-146250130D01*
X34530776Y-146250130D01*
X34580722Y-146244705D01*
X34580726Y-146244704D01*
X34588580Y-146243851D01*
X34722824Y-146193526D01*
X34730003Y-146188146D01*
X34730006Y-146188144D01*
X34830365Y-146112928D01*
X34837546Y-146107546D01*
X34898322Y-146026454D01*
X34918144Y-146000006D01*
X34918146Y-146000003D01*
X34923526Y-145992824D01*
X34926379Y-145985214D01*
X34976334Y-145935369D01*
X35045725Y-145920354D01*
X35114688Y-145947141D01*
X35182730Y-146000876D01*
X35186790Y-146004082D01*
X35191306Y-146006575D01*
X35191309Y-146006577D01*
X35398278Y-146120830D01*
X35398282Y-146120832D01*
X35402802Y-146123327D01*
X35407671Y-146125051D01*
X35407675Y-146125053D01*
X35630515Y-146203965D01*
X35630519Y-146203966D01*
X35635390Y-146205691D01*
X35640483Y-146206598D01*
X35640486Y-146206599D01*
X35873217Y-146248055D01*
X35873223Y-146248056D01*
X35878306Y-146248961D01*
X35957676Y-146249931D01*
X36119858Y-146251912D01*
X36119860Y-146251912D01*
X36125028Y-146251975D01*
X36368930Y-146214653D01*
X36603460Y-146137997D01*
X36822321Y-146024065D01*
X36826454Y-146020962D01*
X36826457Y-146020960D01*
X37015501Y-145879022D01*
X37015504Y-145879020D01*
X37019636Y-145875917D01*
X37097999Y-145793915D01*
X38230000Y-145793915D01*
X38230369Y-145800729D01*
X38235789Y-145850621D01*
X38239414Y-145865867D01*
X38283767Y-145984177D01*
X38292299Y-145999763D01*
X38367430Y-146100009D01*
X38379991Y-146112570D01*
X38480237Y-146187701D01*
X38495823Y-146196233D01*
X38614133Y-146240586D01*
X38629379Y-146244211D01*
X38679271Y-146249631D01*
X38686085Y-146250000D01*
X39336885Y-146250000D01*
X39352124Y-146245525D01*
X39353329Y-146244135D01*
X39355000Y-146236452D01*
X39355000Y-146231885D01*
X40105000Y-146231885D01*
X40109475Y-146247124D01*
X40110865Y-146248329D01*
X40118548Y-146250000D01*
X40773915Y-146250000D01*
X40780729Y-146249631D01*
X40830621Y-146244211D01*
X40845867Y-146240586D01*
X40964177Y-146196233D01*
X40979763Y-146187701D01*
X41080009Y-146112570D01*
X41092570Y-146100009D01*
X41167697Y-145999768D01*
X41175674Y-145985197D01*
X41225932Y-145935051D01*
X41295323Y-145920036D01*
X41364287Y-145946823D01*
X41432736Y-146000881D01*
X41432741Y-146000884D01*
X41436790Y-146004082D01*
X41441306Y-146006575D01*
X41441309Y-146006577D01*
X41648278Y-146120830D01*
X41648282Y-146120832D01*
X41652802Y-146123327D01*
X41657671Y-146125051D01*
X41657675Y-146125053D01*
X41880515Y-146203965D01*
X41880519Y-146203966D01*
X41885390Y-146205691D01*
X41890483Y-146206598D01*
X41890486Y-146206599D01*
X42123217Y-146248055D01*
X42123223Y-146248056D01*
X42128306Y-146248961D01*
X42207676Y-146249931D01*
X42369858Y-146251912D01*
X42369860Y-146251912D01*
X42375028Y-146251975D01*
X42618930Y-146214653D01*
X42853460Y-146137997D01*
X43072321Y-146024065D01*
X43076454Y-146020962D01*
X43076457Y-146020960D01*
X43265501Y-145879022D01*
X43265504Y-145879020D01*
X43269636Y-145875917D01*
X43440104Y-145697532D01*
X43459799Y-145668661D01*
X43576230Y-145497979D01*
X43579149Y-145493700D01*
X43683035Y-145269896D01*
X43748974Y-145032129D01*
X43765140Y-144880865D01*
X43770144Y-144834043D01*
X43770144Y-144834035D01*
X43770500Y-144830708D01*
X43770500Y-144187446D01*
X43769500Y-144175283D01*
X43755849Y-144009240D01*
X43755848Y-144009234D01*
X43755425Y-144004089D01*
X43695316Y-143764783D01*
X43596928Y-143538507D01*
X43462905Y-143331339D01*
X43436635Y-143302468D01*
X43348892Y-143206040D01*
X43296846Y-143148842D01*
X43292795Y-143145643D01*
X43292791Y-143145639D01*
X43107264Y-142999119D01*
X43107259Y-142999116D01*
X43103210Y-142995918D01*
X43098694Y-142993425D01*
X43098691Y-142993423D01*
X42891722Y-142879170D01*
X42891718Y-142879168D01*
X42887198Y-142876673D01*
X42882329Y-142874949D01*
X42882325Y-142874947D01*
X42659485Y-142796035D01*
X42659481Y-142796034D01*
X42654610Y-142794309D01*
X42649517Y-142793402D01*
X42649514Y-142793401D01*
X42416783Y-142751945D01*
X42416777Y-142751944D01*
X42411694Y-142751039D01*
X42326643Y-142750000D01*
X42170142Y-142748088D01*
X42170140Y-142748088D01*
X42164972Y-142748025D01*
X41921070Y-142785347D01*
X41686540Y-142862003D01*
X41467679Y-142975935D01*
X41463546Y-142979038D01*
X41463543Y-142979040D01*
X41414877Y-143015580D01*
X41362388Y-143054990D01*
X41361980Y-143055296D01*
X41295495Y-143080202D01*
X41226100Y-143065210D01*
X41175807Y-143015044D01*
X41167701Y-143000237D01*
X41092570Y-142899991D01*
X41080009Y-142887430D01*
X40979763Y-142812299D01*
X40964177Y-142803767D01*
X40845867Y-142759414D01*
X40830621Y-142755789D01*
X40780729Y-142750369D01*
X40773915Y-142750000D01*
X40123115Y-142750000D01*
X40107876Y-142754475D01*
X40106671Y-142755865D01*
X40105000Y-142763548D01*
X40105000Y-146231885D01*
X39355000Y-146231885D01*
X39355000Y-144893115D01*
X39350525Y-144877876D01*
X39349135Y-144876671D01*
X39341452Y-144875000D01*
X38248115Y-144875000D01*
X38232876Y-144879475D01*
X38231671Y-144880865D01*
X38230000Y-144888548D01*
X38230000Y-145793915D01*
X37097999Y-145793915D01*
X37190104Y-145697532D01*
X37209799Y-145668661D01*
X37326230Y-145497979D01*
X37329149Y-145493700D01*
X37433035Y-145269896D01*
X37498974Y-145032129D01*
X37515140Y-144880865D01*
X37520144Y-144834043D01*
X37520144Y-144834035D01*
X37520500Y-144830708D01*
X37520500Y-144187446D01*
X37519500Y-144175283D01*
X37513877Y-144106885D01*
X38230000Y-144106885D01*
X38234475Y-144122124D01*
X38235865Y-144123329D01*
X38243548Y-144125000D01*
X39336885Y-144125000D01*
X39352124Y-144120525D01*
X39353329Y-144119135D01*
X39355000Y-144111452D01*
X39355000Y-142768115D01*
X39350525Y-142752876D01*
X39349135Y-142751671D01*
X39341452Y-142750000D01*
X38686085Y-142750000D01*
X38679271Y-142750369D01*
X38629379Y-142755789D01*
X38614133Y-142759414D01*
X38495823Y-142803767D01*
X38480237Y-142812299D01*
X38379991Y-142887430D01*
X38367430Y-142899991D01*
X38292299Y-143000237D01*
X38283767Y-143015823D01*
X38239414Y-143134133D01*
X38235789Y-143149379D01*
X38230369Y-143199271D01*
X38230000Y-143206085D01*
X38230000Y-144106885D01*
X37513877Y-144106885D01*
X37505849Y-144009240D01*
X37505848Y-144009234D01*
X37505425Y-144004089D01*
X37445316Y-143764783D01*
X37346928Y-143538507D01*
X37212905Y-143331339D01*
X37186635Y-143302468D01*
X37098892Y-143206040D01*
X37046846Y-143148842D01*
X37042795Y-143145643D01*
X37042791Y-143145639D01*
X36857264Y-142999119D01*
X36857259Y-142999116D01*
X36853210Y-142995918D01*
X36848694Y-142993425D01*
X36848691Y-142993423D01*
X36641722Y-142879170D01*
X36641718Y-142879168D01*
X36637198Y-142876673D01*
X36632329Y-142874949D01*
X36632325Y-142874947D01*
X36409485Y-142796035D01*
X36409481Y-142796034D01*
X36404610Y-142794309D01*
X36399517Y-142793402D01*
X36399514Y-142793401D01*
X36166783Y-142751945D01*
X36166777Y-142751944D01*
X36161694Y-142751039D01*
X36076643Y-142750000D01*
X35920142Y-142748088D01*
X35920140Y-142748088D01*
X35914972Y-142748025D01*
X35671070Y-142785347D01*
X35436540Y-142862003D01*
X35217679Y-142975935D01*
X35112387Y-143054990D01*
X35045903Y-143079895D01*
X34976507Y-143064902D01*
X34926447Y-143014969D01*
X34923526Y-143007176D01*
X34918146Y-142999997D01*
X34918144Y-142999994D01*
X34842928Y-142899635D01*
X34837546Y-142892454D01*
X34830365Y-142887072D01*
X34730006Y-142811856D01*
X34730003Y-142811854D01*
X34722824Y-142806474D01*
X34620500Y-142768115D01*
X34595975Y-142758921D01*
X34595973Y-142758921D01*
X34588580Y-142756149D01*
X34580730Y-142755296D01*
X34580729Y-142755296D01*
X34530774Y-142749869D01*
X34530773Y-142749869D01*
X34527377Y-142749500D01*
X33480154Y-142749500D01*
X32432624Y-142749501D01*
X32429230Y-142749870D01*
X32429224Y-142749870D01*
X32379278Y-142755295D01*
X32379274Y-142755296D01*
X32371420Y-142756149D01*
X32237176Y-142806474D01*
X32202063Y-142832790D01*
X32135558Y-142857636D01*
X32066176Y-142842583D01*
X32015946Y-142792408D01*
X32000500Y-142731962D01*
X32000500Y-136500000D01*
X37344490Y-136500000D01*
X37364515Y-136882105D01*
X37424372Y-137260023D01*
X37523403Y-137629615D01*
X37660525Y-137986830D01*
X37834235Y-138327755D01*
X38042630Y-138648655D01*
X38283427Y-138946014D01*
X38553986Y-139216573D01*
X38851345Y-139457370D01*
X39172245Y-139665765D01*
X39513170Y-139839475D01*
X39870385Y-139976597D01*
X40239977Y-140075628D01*
X40440654Y-140107413D01*
X40614647Y-140134971D01*
X40614655Y-140134972D01*
X40617895Y-140135485D01*
X40904402Y-140150500D01*
X41095598Y-140150500D01*
X41382105Y-140135485D01*
X41385345Y-140134972D01*
X41385353Y-140134971D01*
X41559346Y-140107413D01*
X41760023Y-140075628D01*
X42129615Y-139976597D01*
X42486830Y-139839475D01*
X42827755Y-139665765D01*
X43148655Y-139457370D01*
X43446014Y-139216573D01*
X43716573Y-138946014D01*
X43957370Y-138648655D01*
X44165765Y-138327755D01*
X44339475Y-137986830D01*
X44476597Y-137629615D01*
X44575628Y-137260023D01*
X44635485Y-136882105D01*
X44655510Y-136500000D01*
X44635485Y-136117895D01*
X44575628Y-135739977D01*
X44476597Y-135370385D01*
X44339475Y-135013170D01*
X44165765Y-134672245D01*
X43957370Y-134351345D01*
X43716573Y-134053986D01*
X43446014Y-133783427D01*
X43148655Y-133542630D01*
X42827755Y-133334235D01*
X42486830Y-133160525D01*
X42129615Y-133023403D01*
X41760023Y-132924372D01*
X41559346Y-132892587D01*
X41385353Y-132865029D01*
X41385345Y-132865028D01*
X41382105Y-132864515D01*
X41095598Y-132849500D01*
X40904402Y-132849500D01*
X40617895Y-132864515D01*
X40614655Y-132865028D01*
X40614647Y-132865029D01*
X40440654Y-132892587D01*
X40239977Y-132924372D01*
X39870385Y-133023403D01*
X39513170Y-133160525D01*
X39172245Y-133334235D01*
X38851345Y-133542630D01*
X38553986Y-133783427D01*
X38283427Y-134053986D01*
X38042630Y-134351345D01*
X37834235Y-134672245D01*
X37660525Y-135013170D01*
X37523403Y-135370385D01*
X37424372Y-135739977D01*
X37364515Y-136117895D01*
X37344490Y-136500000D01*
X32000500Y-136500000D01*
X32000500Y-127198789D01*
X33450996Y-127198789D01*
X33459913Y-127436295D01*
X33461008Y-127441513D01*
X33488216Y-127571185D01*
X33490901Y-127597059D01*
X33490901Y-128175976D01*
X33497549Y-128237180D01*
X33547874Y-128371424D01*
X33553254Y-128378603D01*
X33553256Y-128378606D01*
X33628472Y-128478965D01*
X33633854Y-128486146D01*
X33641035Y-128491528D01*
X33741394Y-128566744D01*
X33741397Y-128566746D01*
X33748576Y-128572126D01*
X33829277Y-128602379D01*
X33875425Y-128619679D01*
X33875427Y-128619679D01*
X33882820Y-128622451D01*
X33890670Y-128623304D01*
X33890671Y-128623304D01*
X33940626Y-128628731D01*
X33944023Y-128629100D01*
X34516619Y-128629100D01*
X34539039Y-128631111D01*
X34722725Y-128664326D01*
X34726866Y-128664521D01*
X34726872Y-128664522D01*
X34746131Y-128665430D01*
X34746138Y-128665430D01*
X34747619Y-128665500D01*
X46954680Y-128665500D01*
X47037026Y-128658513D01*
X47126512Y-128650920D01*
X47126516Y-128650919D01*
X47131823Y-128650469D01*
X47136978Y-128649131D01*
X47136984Y-128649130D01*
X47290795Y-128609208D01*
X47306440Y-128606188D01*
X47307593Y-128606040D01*
X47324584Y-128603864D01*
X47539434Y-128539406D01*
X47740871Y-128440723D01*
X47923486Y-128310465D01*
X48082375Y-128152130D01*
X48213269Y-127969971D01*
X48312655Y-127768880D01*
X48377862Y-127554256D01*
X48407141Y-127331864D01*
X48408775Y-127265000D01*
X48402693Y-127191030D01*
X48390819Y-127046595D01*
X48390818Y-127046589D01*
X48390395Y-127041444D01*
X48335750Y-126823891D01*
X48246306Y-126618184D01*
X48243500Y-126613846D01*
X48127277Y-126434193D01*
X48127272Y-126434187D01*
X48124466Y-126429849D01*
X47973502Y-126263941D01*
X47969451Y-126260742D01*
X47969447Y-126260738D01*
X47801524Y-126128120D01*
X47801520Y-126128118D01*
X47797469Y-126124918D01*
X47792945Y-126122421D01*
X47792941Y-126122418D01*
X47763546Y-126106191D01*
X47713576Y-126055759D01*
X47698804Y-125986316D01*
X47723920Y-125919911D01*
X47751272Y-125893304D01*
X47919278Y-125773467D01*
X47919282Y-125773464D01*
X47923486Y-125770465D01*
X48082375Y-125612130D01*
X48213269Y-125429971D01*
X48232524Y-125391013D01*
X48310361Y-125233522D01*
X48310362Y-125233520D01*
X48312655Y-125228880D01*
X48377862Y-125014256D01*
X48407141Y-124791864D01*
X48408775Y-124725000D01*
X48402693Y-124651030D01*
X48390819Y-124506595D01*
X48390818Y-124506589D01*
X48390395Y-124501444D01*
X48335750Y-124283891D01*
X48333691Y-124279155D01*
X48248366Y-124082921D01*
X48248364Y-124082918D01*
X48246306Y-124078184D01*
X48234220Y-124059502D01*
X48127277Y-123894193D01*
X48127272Y-123894187D01*
X48124466Y-123889849D01*
X47973502Y-123723941D01*
X47969451Y-123720742D01*
X47969447Y-123720738D01*
X47801524Y-123588120D01*
X47801520Y-123588118D01*
X47797469Y-123584918D01*
X47792945Y-123582421D01*
X47792941Y-123582418D01*
X47763546Y-123566191D01*
X47713576Y-123515759D01*
X47698804Y-123446316D01*
X47723920Y-123379911D01*
X47751272Y-123353304D01*
X47919278Y-123233467D01*
X47919282Y-123233464D01*
X47923486Y-123230465D01*
X48082375Y-123072130D01*
X48213269Y-122889971D01*
X48232524Y-122851013D01*
X48310361Y-122693522D01*
X48310362Y-122693520D01*
X48312655Y-122688880D01*
X48377862Y-122474256D01*
X48407141Y-122251864D01*
X48408775Y-122185000D01*
X48402693Y-122111030D01*
X48390819Y-121966595D01*
X48390818Y-121966589D01*
X48390395Y-121961444D01*
X48335750Y-121743891D01*
X48333691Y-121739155D01*
X48248366Y-121542921D01*
X48248364Y-121542918D01*
X48246306Y-121538184D01*
X48234220Y-121519502D01*
X48127277Y-121354193D01*
X48127272Y-121354187D01*
X48124466Y-121349849D01*
X47973502Y-121183941D01*
X47969451Y-121180742D01*
X47969447Y-121180738D01*
X47801524Y-121048120D01*
X47801520Y-121048118D01*
X47797469Y-121044918D01*
X47792945Y-121042421D01*
X47792941Y-121042418D01*
X47763546Y-121026191D01*
X47713576Y-120975759D01*
X47698804Y-120906316D01*
X47723920Y-120839911D01*
X47751272Y-120813304D01*
X47919278Y-120693467D01*
X47919282Y-120693464D01*
X47923486Y-120690465D01*
X48082375Y-120532130D01*
X48213269Y-120349971D01*
X48232524Y-120311013D01*
X48310361Y-120153522D01*
X48310362Y-120153520D01*
X48312655Y-120148880D01*
X48377862Y-119934256D01*
X48407141Y-119711864D01*
X48408775Y-119645000D01*
X48402693Y-119571030D01*
X48390819Y-119426595D01*
X48390818Y-119426589D01*
X48390395Y-119421444D01*
X48335750Y-119203891D01*
X48333691Y-119199155D01*
X48248366Y-119002921D01*
X48248364Y-119002918D01*
X48246306Y-118998184D01*
X48234220Y-118979502D01*
X48127277Y-118814193D01*
X48127272Y-118814187D01*
X48124466Y-118809849D01*
X47973502Y-118643941D01*
X47969451Y-118640742D01*
X47969447Y-118640738D01*
X47801524Y-118508120D01*
X47801520Y-118508118D01*
X47797469Y-118504918D01*
X47792945Y-118502421D01*
X47792941Y-118502418D01*
X47763546Y-118486191D01*
X47713576Y-118435759D01*
X47698804Y-118366316D01*
X47723920Y-118299911D01*
X47751272Y-118273304D01*
X47919278Y-118153467D01*
X47919282Y-118153464D01*
X47923486Y-118150465D01*
X47958021Y-118116051D01*
X48078714Y-117995778D01*
X48082375Y-117992130D01*
X48213269Y-117809971D01*
X48312655Y-117608880D01*
X48377862Y-117394256D01*
X48407141Y-117171864D01*
X48408775Y-117105000D01*
X48402693Y-117031030D01*
X48390819Y-116886595D01*
X48390818Y-116886589D01*
X48390395Y-116881444D01*
X48335750Y-116663891D01*
X48297618Y-116576193D01*
X48248366Y-116462921D01*
X48248364Y-116462918D01*
X48246306Y-116458184D01*
X48243500Y-116453846D01*
X48127277Y-116274193D01*
X48127272Y-116274187D01*
X48124466Y-116269849D01*
X47973502Y-116103941D01*
X47969451Y-116100742D01*
X47969447Y-116100738D01*
X47801524Y-115968120D01*
X47801520Y-115968118D01*
X47797469Y-115964918D01*
X47763061Y-115945924D01*
X47713090Y-115895491D01*
X47698318Y-115826049D01*
X47723434Y-115759643D01*
X47750785Y-115733037D01*
X47918950Y-115613086D01*
X47926825Y-115606430D01*
X48078332Y-115455452D01*
X48085010Y-115447605D01*
X48209821Y-115273914D01*
X48215130Y-115265077D01*
X48309894Y-115073336D01*
X48313693Y-115063741D01*
X48346023Y-114957333D01*
X48346155Y-114943232D01*
X48339250Y-114940000D01*
X43204754Y-114940000D01*
X43191223Y-114943973D01*
X43189786Y-114953967D01*
X43193203Y-114969130D01*
X43196283Y-114978956D01*
X43276755Y-115177137D01*
X43281398Y-115186328D01*
X43393160Y-115368707D01*
X43399238Y-115377011D01*
X43502312Y-115496002D01*
X43531795Y-115560588D01*
X43521681Y-115630860D01*
X43475179Y-115684509D01*
X43407075Y-115704500D01*
X38488357Y-115704500D01*
X38420236Y-115684498D01*
X38373743Y-115630842D01*
X38363639Y-115560568D01*
X38393133Y-115495988D01*
X38399417Y-115489249D01*
X38433332Y-115455452D01*
X38440010Y-115447605D01*
X38564821Y-115273914D01*
X38570130Y-115265077D01*
X38664894Y-115073336D01*
X38668693Y-115063741D01*
X38701023Y-114957333D01*
X38701155Y-114943232D01*
X38694250Y-114940000D01*
X33559754Y-114940000D01*
X33546223Y-114943973D01*
X33544786Y-114953967D01*
X33548203Y-114969130D01*
X33551283Y-114978956D01*
X33631755Y-115177137D01*
X33636398Y-115186328D01*
X33748160Y-115368707D01*
X33754243Y-115377018D01*
X33894282Y-115538682D01*
X33901649Y-115545898D01*
X34066211Y-115682519D01*
X34074653Y-115688431D01*
X34103035Y-115705016D01*
X34151758Y-115756655D01*
X34164829Y-115826438D01*
X34138097Y-115892210D01*
X34109831Y-115918324D01*
X33974268Y-116009591D01*
X33802295Y-116173645D01*
X33660421Y-116364330D01*
X33552705Y-116576193D01*
X33551124Y-116581284D01*
X33551123Y-116581287D01*
X33525474Y-116663891D01*
X33482225Y-116803176D01*
X33450996Y-117038789D01*
X33459913Y-117276295D01*
X33508719Y-117508904D01*
X33510677Y-117513863D01*
X33510678Y-117513865D01*
X33548202Y-117608880D01*
X33596020Y-117729963D01*
X33719319Y-117933153D01*
X33875090Y-118112664D01*
X33879216Y-118116047D01*
X33879220Y-118116051D01*
X33924853Y-118153467D01*
X34058880Y-118263362D01*
X34099206Y-118286317D01*
X34148511Y-118337399D01*
X34162372Y-118407029D01*
X34136388Y-118473100D01*
X34112525Y-118496578D01*
X33998814Y-118581955D01*
X33946234Y-118621433D01*
X33791262Y-118783602D01*
X33788348Y-118787874D01*
X33788347Y-118787875D01*
X33770394Y-118814193D01*
X33664857Y-118968905D01*
X33570414Y-119172364D01*
X33510470Y-119388517D01*
X33486634Y-119611558D01*
X33499546Y-119835497D01*
X33500683Y-119840543D01*
X33500684Y-119840549D01*
X33520647Y-119929129D01*
X33548860Y-120054320D01*
X33550802Y-120059102D01*
X33550803Y-120059106D01*
X33631307Y-120257363D01*
X33633251Y-120262150D01*
X33750453Y-120453406D01*
X33897318Y-120622952D01*
X34069903Y-120766235D01*
X34134862Y-120804194D01*
X34183584Y-120855832D01*
X34196655Y-120925615D01*
X34169923Y-120991387D01*
X34134127Y-121020902D01*
X34134573Y-121021610D01*
X34130200Y-121024364D01*
X34125612Y-121026752D01*
X34121479Y-121029855D01*
X34121476Y-121029857D01*
X33950369Y-121158328D01*
X33946234Y-121161433D01*
X33791262Y-121323602D01*
X33788348Y-121327874D01*
X33788347Y-121327875D01*
X33770394Y-121354193D01*
X33664857Y-121508905D01*
X33570414Y-121712364D01*
X33510470Y-121928517D01*
X33486634Y-122151558D01*
X33499546Y-122375497D01*
X33500683Y-122380543D01*
X33500684Y-122380549D01*
X33520647Y-122469129D01*
X33548860Y-122594320D01*
X33550802Y-122599102D01*
X33550803Y-122599106D01*
X33631307Y-122797363D01*
X33633251Y-122802150D01*
X33750453Y-122993406D01*
X33897318Y-123162952D01*
X34069903Y-123306235D01*
X34134862Y-123344194D01*
X34183584Y-123395832D01*
X34196655Y-123465615D01*
X34169923Y-123531387D01*
X34134127Y-123560902D01*
X34134573Y-123561610D01*
X34130200Y-123564364D01*
X34125612Y-123566752D01*
X34121479Y-123569855D01*
X34121476Y-123569857D01*
X33950369Y-123698328D01*
X33946234Y-123701433D01*
X33791262Y-123863602D01*
X33788348Y-123867874D01*
X33788347Y-123867875D01*
X33770394Y-123894193D01*
X33664857Y-124048905D01*
X33570414Y-124252364D01*
X33510470Y-124468517D01*
X33486634Y-124691558D01*
X33499546Y-124915497D01*
X33500683Y-124920543D01*
X33500684Y-124920549D01*
X33520647Y-125009129D01*
X33548860Y-125134320D01*
X33550802Y-125139102D01*
X33550803Y-125139106D01*
X33631307Y-125337363D01*
X33633251Y-125342150D01*
X33750453Y-125533406D01*
X33897318Y-125702952D01*
X33901298Y-125706256D01*
X33903385Y-125708300D01*
X33938062Y-125770252D01*
X33933740Y-125841117D01*
X33891792Y-125898396D01*
X33859459Y-125916307D01*
X33748576Y-125957874D01*
X33741397Y-125963254D01*
X33741394Y-125963256D01*
X33641035Y-126038472D01*
X33633854Y-126043854D01*
X33628472Y-126051035D01*
X33553256Y-126151394D01*
X33553254Y-126151397D01*
X33547874Y-126158576D01*
X33497549Y-126292820D01*
X33490900Y-126354023D01*
X33490900Y-126916125D01*
X33485233Y-126953487D01*
X33482225Y-126963176D01*
X33450996Y-127198789D01*
X32000500Y-127198789D01*
X32000500Y-111991558D01*
X33486634Y-111991558D01*
X33499546Y-112215497D01*
X33500683Y-112220543D01*
X33500684Y-112220549D01*
X33520647Y-112309129D01*
X33548860Y-112434320D01*
X33550802Y-112439102D01*
X33550803Y-112439106D01*
X33631307Y-112637363D01*
X33633251Y-112642150D01*
X33750453Y-112833406D01*
X33897318Y-113002952D01*
X34069903Y-113146235D01*
X34135372Y-113184492D01*
X34184095Y-113236129D01*
X34197166Y-113305912D01*
X34170435Y-113371684D01*
X34134427Y-113401378D01*
X34134841Y-113402035D01*
X34121744Y-113410282D01*
X33950703Y-113538703D01*
X33942996Y-113545546D01*
X33795223Y-113700181D01*
X33788740Y-113708187D01*
X33668204Y-113884888D01*
X33663118Y-113893840D01*
X33573064Y-114087844D01*
X33569503Y-114097521D01*
X33548698Y-114172542D01*
X33548911Y-114186644D01*
X33556564Y-114190000D01*
X38688725Y-114190000D01*
X38702256Y-114186027D01*
X38703561Y-114176947D01*
X38691534Y-114129065D01*
X38688214Y-114119314D01*
X38602924Y-113923159D01*
X38598057Y-113914084D01*
X38481877Y-113734495D01*
X38475593Y-113726335D01*
X38331635Y-113568127D01*
X38324105Y-113561106D01*
X38156246Y-113428538D01*
X38147663Y-113422836D01*
X38118097Y-113406515D01*
X38068125Y-113356083D01*
X38053353Y-113286640D01*
X38078469Y-113220235D01*
X38105820Y-113193628D01*
X38274275Y-113073470D01*
X38274285Y-113073462D01*
X38278486Y-113070465D01*
X38437375Y-112912130D01*
X38568269Y-112729971D01*
X38587524Y-112691013D01*
X38665361Y-112533522D01*
X38665362Y-112533520D01*
X38667655Y-112528880D01*
X38732862Y-112314256D01*
X38762141Y-112091864D01*
X38763775Y-112025000D01*
X38761025Y-111991558D01*
X43131634Y-111991558D01*
X43144546Y-112215497D01*
X43145683Y-112220543D01*
X43145684Y-112220549D01*
X43165647Y-112309129D01*
X43193860Y-112434320D01*
X43195802Y-112439102D01*
X43195803Y-112439106D01*
X43276307Y-112637363D01*
X43278251Y-112642150D01*
X43395453Y-112833406D01*
X43542318Y-113002952D01*
X43714903Y-113146235D01*
X43780372Y-113184492D01*
X43829095Y-113236129D01*
X43842166Y-113305912D01*
X43815435Y-113371684D01*
X43779427Y-113401378D01*
X43779841Y-113402035D01*
X43766744Y-113410282D01*
X43595703Y-113538703D01*
X43587996Y-113545546D01*
X43440223Y-113700181D01*
X43433740Y-113708187D01*
X43313204Y-113884888D01*
X43308118Y-113893840D01*
X43218064Y-114087844D01*
X43214503Y-114097521D01*
X43193698Y-114172542D01*
X43193911Y-114186644D01*
X43201564Y-114190000D01*
X48333725Y-114190000D01*
X48347256Y-114186027D01*
X48348561Y-114176947D01*
X48336534Y-114129065D01*
X48333214Y-114119314D01*
X48247924Y-113923159D01*
X48243057Y-113914084D01*
X48126877Y-113734495D01*
X48120593Y-113726335D01*
X47976635Y-113568127D01*
X47969105Y-113561106D01*
X47801246Y-113428538D01*
X47792663Y-113422836D01*
X47763097Y-113406515D01*
X47713125Y-113356083D01*
X47698353Y-113286640D01*
X47723469Y-113220235D01*
X47750820Y-113193628D01*
X47919275Y-113073470D01*
X47919285Y-113073462D01*
X47923486Y-113070465D01*
X48082375Y-112912130D01*
X48213269Y-112729971D01*
X48232524Y-112691013D01*
X48310361Y-112533522D01*
X48310362Y-112533520D01*
X48312655Y-112528880D01*
X48377862Y-112314256D01*
X48407141Y-112091864D01*
X48408775Y-112025000D01*
X48402693Y-111951030D01*
X48390819Y-111806595D01*
X48390818Y-111806589D01*
X48390395Y-111801444D01*
X48335750Y-111583891D01*
X48333691Y-111579155D01*
X48248366Y-111382921D01*
X48248364Y-111382918D01*
X48246306Y-111378184D01*
X48234220Y-111359502D01*
X48127277Y-111194193D01*
X48127272Y-111194187D01*
X48124466Y-111189849D01*
X47973502Y-111023941D01*
X47969451Y-111020742D01*
X47969447Y-111020738D01*
X47801524Y-110888120D01*
X47801520Y-110888118D01*
X47797469Y-110884918D01*
X47792945Y-110882421D01*
X47792941Y-110882418D01*
X47763546Y-110866191D01*
X47713576Y-110815759D01*
X47698804Y-110746316D01*
X47723920Y-110679911D01*
X47751272Y-110653304D01*
X47919278Y-110533467D01*
X47919282Y-110533464D01*
X47923486Y-110530465D01*
X48082375Y-110372130D01*
X48213269Y-110189971D01*
X48232524Y-110151013D01*
X48310361Y-109993522D01*
X48310362Y-109993520D01*
X48312655Y-109988880D01*
X48377862Y-109774256D01*
X48407141Y-109551864D01*
X48408775Y-109485000D01*
X48402693Y-109411030D01*
X48390819Y-109266595D01*
X48390818Y-109266589D01*
X48390395Y-109261444D01*
X48335750Y-109043891D01*
X48333691Y-109039155D01*
X48248366Y-108842921D01*
X48248364Y-108842918D01*
X48246306Y-108838184D01*
X48234220Y-108819502D01*
X48127277Y-108654193D01*
X48127272Y-108654187D01*
X48124466Y-108649849D01*
X47973502Y-108483941D01*
X47969451Y-108480742D01*
X47969447Y-108480738D01*
X47801524Y-108348120D01*
X47801520Y-108348118D01*
X47797469Y-108344918D01*
X47760234Y-108324363D01*
X47605619Y-108239012D01*
X47601092Y-108236513D01*
X47596223Y-108234789D01*
X47596219Y-108234787D01*
X47394523Y-108163362D01*
X47394519Y-108163361D01*
X47389648Y-108161636D01*
X47384558Y-108160729D01*
X47384553Y-108160728D01*
X47264964Y-108139427D01*
X47168813Y-108122300D01*
X47083968Y-108121263D01*
X46949689Y-108119622D01*
X46949687Y-108119622D01*
X46944519Y-108119559D01*
X46722789Y-108153489D01*
X46509578Y-108223177D01*
X46504990Y-108225565D01*
X46504986Y-108225567D01*
X46315201Y-108324363D01*
X46310612Y-108326752D01*
X46306479Y-108329855D01*
X46306476Y-108329857D01*
X46135369Y-108458328D01*
X46131234Y-108461433D01*
X45976262Y-108623602D01*
X45973348Y-108627874D01*
X45973347Y-108627875D01*
X45873327Y-108774499D01*
X45818416Y-108819502D01*
X45747891Y-108827673D01*
X45684144Y-108796419D01*
X45663447Y-108771935D01*
X45587276Y-108654193D01*
X45584466Y-108649849D01*
X45433502Y-108483941D01*
X45429451Y-108480742D01*
X45429447Y-108480738D01*
X45261524Y-108348120D01*
X45261520Y-108348118D01*
X45257469Y-108344918D01*
X45220234Y-108324363D01*
X45065619Y-108239012D01*
X45061092Y-108236513D01*
X45056223Y-108234789D01*
X45056219Y-108234787D01*
X44854523Y-108163362D01*
X44854519Y-108163361D01*
X44849648Y-108161636D01*
X44844558Y-108160729D01*
X44844553Y-108160728D01*
X44724964Y-108139427D01*
X44628813Y-108122300D01*
X44543968Y-108121263D01*
X44409689Y-108119622D01*
X44409687Y-108119622D01*
X44404519Y-108119559D01*
X44182789Y-108153489D01*
X43969578Y-108223177D01*
X43964990Y-108225565D01*
X43964986Y-108225567D01*
X43775201Y-108324363D01*
X43770612Y-108326752D01*
X43766479Y-108329855D01*
X43766476Y-108329857D01*
X43595369Y-108458328D01*
X43591234Y-108461433D01*
X43436262Y-108623602D01*
X43433348Y-108627874D01*
X43433347Y-108627875D01*
X43415394Y-108654193D01*
X43309857Y-108808905D01*
X43215414Y-109012364D01*
X43155470Y-109228517D01*
X43131634Y-109451558D01*
X43144546Y-109675497D01*
X43145683Y-109680543D01*
X43145684Y-109680549D01*
X43165647Y-109769129D01*
X43193860Y-109894320D01*
X43195802Y-109899102D01*
X43195803Y-109899106D01*
X43276307Y-110097363D01*
X43278251Y-110102150D01*
X43395453Y-110293406D01*
X43542318Y-110462952D01*
X43714903Y-110606235D01*
X43779862Y-110644194D01*
X43828584Y-110695832D01*
X43841655Y-110765615D01*
X43814923Y-110831387D01*
X43779127Y-110860902D01*
X43779573Y-110861610D01*
X43775200Y-110864364D01*
X43770612Y-110866752D01*
X43766479Y-110869855D01*
X43766476Y-110869857D01*
X43595369Y-110998328D01*
X43591234Y-111001433D01*
X43436262Y-111163602D01*
X43433348Y-111167874D01*
X43433347Y-111167875D01*
X43415394Y-111194193D01*
X43309857Y-111348905D01*
X43215414Y-111552364D01*
X43155470Y-111768517D01*
X43131634Y-111991558D01*
X38761025Y-111991558D01*
X38757693Y-111951030D01*
X38745819Y-111806595D01*
X38745818Y-111806589D01*
X38745395Y-111801444D01*
X38690750Y-111583891D01*
X38688691Y-111579155D01*
X38603366Y-111382921D01*
X38603364Y-111382918D01*
X38601306Y-111378184D01*
X38589220Y-111359502D01*
X38482277Y-111194193D01*
X38482272Y-111194187D01*
X38479466Y-111189849D01*
X38328502Y-111023941D01*
X38324451Y-111020742D01*
X38324447Y-111020738D01*
X38156524Y-110888120D01*
X38156520Y-110888118D01*
X38152469Y-110884918D01*
X38147945Y-110882421D01*
X38147941Y-110882418D01*
X38118546Y-110866191D01*
X38068576Y-110815759D01*
X38053804Y-110746316D01*
X38078920Y-110679911D01*
X38106272Y-110653304D01*
X38274278Y-110533467D01*
X38274282Y-110533464D01*
X38278486Y-110530465D01*
X38437375Y-110372130D01*
X38568269Y-110189971D01*
X38587524Y-110151013D01*
X38665361Y-109993522D01*
X38665362Y-109993520D01*
X38667655Y-109988880D01*
X38732862Y-109774256D01*
X38762141Y-109551864D01*
X38763775Y-109485000D01*
X38757693Y-109411030D01*
X38745819Y-109266595D01*
X38745818Y-109266589D01*
X38745395Y-109261444D01*
X38690750Y-109043891D01*
X38688691Y-109039155D01*
X38603366Y-108842921D01*
X38603364Y-108842918D01*
X38601306Y-108838184D01*
X38589220Y-108819502D01*
X38482277Y-108654193D01*
X38482272Y-108654187D01*
X38479466Y-108649849D01*
X38328502Y-108483941D01*
X38324451Y-108480742D01*
X38324447Y-108480738D01*
X38156524Y-108348120D01*
X38156520Y-108348118D01*
X38152469Y-108344918D01*
X38115234Y-108324363D01*
X37960619Y-108239012D01*
X37956092Y-108236513D01*
X37951223Y-108234789D01*
X37951219Y-108234787D01*
X37749523Y-108163362D01*
X37749519Y-108163361D01*
X37744648Y-108161636D01*
X37739558Y-108160729D01*
X37739553Y-108160728D01*
X37619964Y-108139427D01*
X37523813Y-108122300D01*
X37438968Y-108121263D01*
X37304689Y-108119622D01*
X37304687Y-108119622D01*
X37299519Y-108119559D01*
X37077789Y-108153489D01*
X36864578Y-108223177D01*
X36859990Y-108225565D01*
X36859986Y-108225567D01*
X36670201Y-108324363D01*
X36665612Y-108326752D01*
X36661479Y-108329855D01*
X36661476Y-108329857D01*
X36490369Y-108458328D01*
X36486234Y-108461433D01*
X36331262Y-108623602D01*
X36328348Y-108627874D01*
X36328347Y-108627875D01*
X36228327Y-108774499D01*
X36173416Y-108819502D01*
X36102891Y-108827673D01*
X36039144Y-108796419D01*
X36018447Y-108771935D01*
X35942276Y-108654193D01*
X35939466Y-108649849D01*
X35788502Y-108483941D01*
X35784451Y-108480742D01*
X35784447Y-108480738D01*
X35616524Y-108348120D01*
X35616520Y-108348118D01*
X35612469Y-108344918D01*
X35575234Y-108324363D01*
X35420619Y-108239012D01*
X35416092Y-108236513D01*
X35411223Y-108234789D01*
X35411219Y-108234787D01*
X35209523Y-108163362D01*
X35209519Y-108163361D01*
X35204648Y-108161636D01*
X35199558Y-108160729D01*
X35199553Y-108160728D01*
X35079964Y-108139427D01*
X34983813Y-108122300D01*
X34898968Y-108121263D01*
X34764689Y-108119622D01*
X34764687Y-108119622D01*
X34759519Y-108119559D01*
X34537789Y-108153489D01*
X34324578Y-108223177D01*
X34319990Y-108225565D01*
X34319986Y-108225567D01*
X34130201Y-108324363D01*
X34125612Y-108326752D01*
X34121479Y-108329855D01*
X34121476Y-108329857D01*
X33950369Y-108458328D01*
X33946234Y-108461433D01*
X33791262Y-108623602D01*
X33788348Y-108627874D01*
X33788347Y-108627875D01*
X33770394Y-108654193D01*
X33664857Y-108808905D01*
X33570414Y-109012364D01*
X33510470Y-109228517D01*
X33486634Y-109451558D01*
X33499546Y-109675497D01*
X33500683Y-109680543D01*
X33500684Y-109680549D01*
X33520647Y-109769129D01*
X33548860Y-109894320D01*
X33550802Y-109899102D01*
X33550803Y-109899106D01*
X33631307Y-110097363D01*
X33633251Y-110102150D01*
X33750453Y-110293406D01*
X33897318Y-110462952D01*
X34069903Y-110606235D01*
X34134862Y-110644194D01*
X34183584Y-110695832D01*
X34196655Y-110765615D01*
X34169923Y-110831387D01*
X34134127Y-110860902D01*
X34134573Y-110861610D01*
X34130200Y-110864364D01*
X34125612Y-110866752D01*
X34121479Y-110869855D01*
X34121476Y-110869857D01*
X33950369Y-110998328D01*
X33946234Y-111001433D01*
X33791262Y-111163602D01*
X33788348Y-111167874D01*
X33788347Y-111167875D01*
X33770394Y-111194193D01*
X33664857Y-111348905D01*
X33570414Y-111552364D01*
X33510470Y-111768517D01*
X33486634Y-111991558D01*
X32000500Y-111991558D01*
X32000500Y-106500000D01*
X32594540Y-106500000D01*
X32614326Y-106688256D01*
X32672821Y-106868284D01*
X32767467Y-107032216D01*
X32894129Y-107172888D01*
X33047270Y-107284151D01*
X33220197Y-107361144D01*
X33318212Y-107381978D01*
X33398897Y-107399128D01*
X33398901Y-107399128D01*
X33405354Y-107400500D01*
X33594646Y-107400500D01*
X33601099Y-107399128D01*
X33601103Y-107399128D01*
X33681788Y-107381978D01*
X33779803Y-107361144D01*
X33948753Y-107285922D01*
X34019118Y-107276488D01*
X34051245Y-107285921D01*
X34220197Y-107361144D01*
X34318212Y-107381978D01*
X34398897Y-107399128D01*
X34398901Y-107399128D01*
X34405354Y-107400500D01*
X34594646Y-107400500D01*
X34601099Y-107399128D01*
X34601103Y-107399128D01*
X34681788Y-107381978D01*
X34779803Y-107361144D01*
X34948753Y-107285922D01*
X35019118Y-107276488D01*
X35051245Y-107285921D01*
X35220197Y-107361144D01*
X35318212Y-107381978D01*
X35398897Y-107399128D01*
X35398901Y-107399128D01*
X35405354Y-107400500D01*
X35594646Y-107400500D01*
X35601099Y-107399128D01*
X35601103Y-107399128D01*
X35681788Y-107381978D01*
X35779803Y-107361144D01*
X35948753Y-107285922D01*
X36019118Y-107276488D01*
X36051245Y-107285921D01*
X36220197Y-107361144D01*
X36318212Y-107381978D01*
X36398897Y-107399128D01*
X36398901Y-107399128D01*
X36405354Y-107400500D01*
X36594646Y-107400500D01*
X36601099Y-107399128D01*
X36601103Y-107399128D01*
X36681788Y-107381978D01*
X36779803Y-107361144D01*
X36948753Y-107285922D01*
X37019118Y-107276488D01*
X37051245Y-107285921D01*
X37220197Y-107361144D01*
X37318212Y-107381978D01*
X37398897Y-107399128D01*
X37398901Y-107399128D01*
X37405354Y-107400500D01*
X37594646Y-107400500D01*
X37601099Y-107399128D01*
X37601103Y-107399128D01*
X37681788Y-107381978D01*
X37779803Y-107361144D01*
X37952730Y-107284151D01*
X38105871Y-107172888D01*
X38232533Y-107032216D01*
X38327179Y-106868284D01*
X38385674Y-106688256D01*
X38405460Y-106500000D01*
X38385674Y-106311744D01*
X38327179Y-106131716D01*
X38287506Y-106063000D01*
X38270768Y-105994004D01*
X38287506Y-105937000D01*
X38323875Y-105874007D01*
X38323876Y-105874006D01*
X38327179Y-105868284D01*
X38385674Y-105688256D01*
X38405460Y-105500000D01*
X38385674Y-105311744D01*
X38327179Y-105131716D01*
X38287506Y-105063000D01*
X38270768Y-104994004D01*
X38287506Y-104937000D01*
X38323875Y-104874007D01*
X38323876Y-104874006D01*
X38327179Y-104868284D01*
X38385674Y-104688256D01*
X38405460Y-104500000D01*
X38385674Y-104311744D01*
X38327179Y-104131716D01*
X38232533Y-103967784D01*
X38105871Y-103827112D01*
X37952730Y-103715849D01*
X37779803Y-103638856D01*
X37681788Y-103618022D01*
X37601103Y-103600872D01*
X37601099Y-103600872D01*
X37594646Y-103599500D01*
X37405354Y-103599500D01*
X37398901Y-103600872D01*
X37398897Y-103600872D01*
X37318212Y-103618022D01*
X37220197Y-103638856D01*
X37051247Y-103714078D01*
X36980882Y-103723512D01*
X36948755Y-103714079D01*
X36779803Y-103638856D01*
X36681788Y-103618022D01*
X36601103Y-103600872D01*
X36601099Y-103600872D01*
X36594646Y-103599500D01*
X36405354Y-103599500D01*
X36398901Y-103600872D01*
X36398897Y-103600872D01*
X36318212Y-103618022D01*
X36220197Y-103638856D01*
X36051247Y-103714078D01*
X35980882Y-103723512D01*
X35948755Y-103714079D01*
X35779803Y-103638856D01*
X35681788Y-103618022D01*
X35601103Y-103600872D01*
X35601099Y-103600872D01*
X35594646Y-103599500D01*
X35405354Y-103599500D01*
X35398901Y-103600872D01*
X35398897Y-103600872D01*
X35318212Y-103618022D01*
X35220197Y-103638856D01*
X35051247Y-103714078D01*
X34980882Y-103723512D01*
X34948755Y-103714079D01*
X34779803Y-103638856D01*
X34681788Y-103618022D01*
X34601103Y-103600872D01*
X34601099Y-103600872D01*
X34594646Y-103599500D01*
X34405354Y-103599500D01*
X34398901Y-103600872D01*
X34398897Y-103600872D01*
X34318212Y-103618022D01*
X34220197Y-103638856D01*
X34051247Y-103714078D01*
X33980882Y-103723512D01*
X33948755Y-103714079D01*
X33779803Y-103638856D01*
X33681788Y-103618022D01*
X33601103Y-103600872D01*
X33601099Y-103600872D01*
X33594646Y-103599500D01*
X33405354Y-103599500D01*
X33398901Y-103600872D01*
X33398897Y-103600872D01*
X33318212Y-103618022D01*
X33220197Y-103638856D01*
X33047270Y-103715849D01*
X32894129Y-103827112D01*
X32767467Y-103967784D01*
X32672821Y-104131716D01*
X32614326Y-104311744D01*
X32594540Y-104500000D01*
X32614326Y-104688256D01*
X32672821Y-104868284D01*
X32676124Y-104874006D01*
X32676125Y-104874007D01*
X32712494Y-104937000D01*
X32729232Y-105005996D01*
X32712494Y-105063000D01*
X32672821Y-105131716D01*
X32614326Y-105311744D01*
X32594540Y-105500000D01*
X32614326Y-105688256D01*
X32672821Y-105868284D01*
X32676124Y-105874006D01*
X32676125Y-105874007D01*
X32712494Y-105937000D01*
X32729232Y-106005996D01*
X32712494Y-106063000D01*
X32672821Y-106131716D01*
X32614326Y-106311744D01*
X32594540Y-106500000D01*
X32000500Y-106500000D01*
X32000500Y-98925665D01*
X39595119Y-98925665D01*
X39595416Y-98930817D01*
X39595416Y-98930821D01*
X39599405Y-99000000D01*
X39608376Y-99155580D01*
X39609513Y-99160626D01*
X39609514Y-99160632D01*
X39631226Y-99256975D01*
X39659006Y-99380242D01*
X39660948Y-99385024D01*
X39660949Y-99385028D01*
X39710069Y-99505996D01*
X39745649Y-99593618D01*
X39865979Y-99789978D01*
X39869360Y-99793881D01*
X39869365Y-99793888D01*
X39984881Y-99927243D01*
X40014364Y-99991828D01*
X40004249Y-100062100D01*
X39957748Y-100115749D01*
X39933873Y-100127722D01*
X39857176Y-100156474D01*
X39849997Y-100161854D01*
X39849994Y-100161856D01*
X39749635Y-100237072D01*
X39742454Y-100242454D01*
X39737072Y-100249635D01*
X39661856Y-100349994D01*
X39661854Y-100349997D01*
X39656474Y-100357176D01*
X39606149Y-100491420D01*
X39599500Y-100552623D01*
X39599501Y-102447376D01*
X39606149Y-102508580D01*
X39656474Y-102642824D01*
X39661854Y-102650003D01*
X39661856Y-102650006D01*
X39737072Y-102750365D01*
X39742454Y-102757546D01*
X39749635Y-102762928D01*
X39849994Y-102838144D01*
X39849997Y-102838146D01*
X39857176Y-102843526D01*
X39946561Y-102877034D01*
X39984025Y-102891079D01*
X39984027Y-102891079D01*
X39991420Y-102893851D01*
X39999270Y-102894704D01*
X39999271Y-102894704D01*
X40049217Y-102900130D01*
X40052623Y-102900500D01*
X40999861Y-102900500D01*
X41947376Y-102900499D01*
X41950770Y-102900130D01*
X41950776Y-102900130D01*
X42000722Y-102894705D01*
X42000726Y-102894704D01*
X42008580Y-102893851D01*
X42142824Y-102843526D01*
X42150003Y-102838146D01*
X42150006Y-102838144D01*
X42250365Y-102762928D01*
X42257546Y-102757546D01*
X42262928Y-102750365D01*
X42338144Y-102650006D01*
X42338146Y-102650003D01*
X42343526Y-102642824D01*
X42393851Y-102508580D01*
X42400500Y-102447377D01*
X42400499Y-100552624D01*
X42400130Y-100549224D01*
X42394705Y-100499278D01*
X42394704Y-100499274D01*
X42393851Y-100491420D01*
X42343526Y-100357176D01*
X42338146Y-100349997D01*
X42338144Y-100349994D01*
X42262928Y-100249635D01*
X42257546Y-100242454D01*
X42250365Y-100237072D01*
X42150006Y-100161856D01*
X42150003Y-100161854D01*
X42142824Y-100156474D01*
X42090871Y-100136998D01*
X42065338Y-100127426D01*
X42008573Y-100084785D01*
X41983873Y-100018223D01*
X41999080Y-99948874D01*
X42020627Y-99920193D01*
X42066529Y-99874451D01*
X42070190Y-99870803D01*
X42128269Y-99789978D01*
X42201559Y-99687983D01*
X42204577Y-99683783D01*
X42306615Y-99477325D01*
X42338006Y-99374007D01*
X42372059Y-99261927D01*
X42372060Y-99261921D01*
X42373563Y-99256975D01*
X42403622Y-99028649D01*
X42405300Y-98960000D01*
X42386430Y-98730478D01*
X42330326Y-98507120D01*
X42238496Y-98295924D01*
X42113405Y-98102563D01*
X42092774Y-98079889D01*
X41961890Y-97936051D01*
X41961889Y-97936050D01*
X41958412Y-97932229D01*
X41954361Y-97929030D01*
X41954357Y-97929026D01*
X41781735Y-97792697D01*
X41781730Y-97792693D01*
X41777681Y-97789496D01*
X41773165Y-97787003D01*
X41773162Y-97787001D01*
X41580589Y-97680695D01*
X41580585Y-97680693D01*
X41576065Y-97678198D01*
X41571196Y-97676474D01*
X41571192Y-97676472D01*
X41363853Y-97603049D01*
X41363849Y-97603048D01*
X41358978Y-97601323D01*
X41353885Y-97600416D01*
X41353882Y-97600415D01*
X41257707Y-97583284D01*
X41132250Y-97560937D01*
X41045802Y-97559881D01*
X40907141Y-97558186D01*
X40907139Y-97558186D01*
X40901971Y-97558123D01*
X40674325Y-97592958D01*
X40455424Y-97664506D01*
X40251149Y-97770845D01*
X40066984Y-97909119D01*
X39907877Y-98075616D01*
X39778099Y-98265863D01*
X39775923Y-98270552D01*
X39775919Y-98270558D01*
X39683315Y-98470057D01*
X39681136Y-98474752D01*
X39619592Y-98696673D01*
X39619043Y-98701810D01*
X39606593Y-98818307D01*
X39595119Y-98925665D01*
X32000500Y-98925665D01*
X32000500Y-94704518D01*
X32020502Y-94636397D01*
X32074158Y-94589904D01*
X32144432Y-94579800D01*
X32206391Y-94607084D01*
X32261752Y-94652478D01*
X32261758Y-94652482D01*
X32265880Y-94655862D01*
X32270516Y-94658501D01*
X32270519Y-94658503D01*
X32351356Y-94704518D01*
X32472433Y-94773439D01*
X32695844Y-94854534D01*
X32701092Y-94855483D01*
X32925641Y-94896088D01*
X32925648Y-94896089D01*
X32929725Y-94896826D01*
X32947991Y-94897687D01*
X32953131Y-94897930D01*
X32953138Y-94897930D01*
X32954619Y-94898000D01*
X33821680Y-94898000D01*
X33904026Y-94891013D01*
X33993512Y-94883420D01*
X33993516Y-94883419D01*
X33998823Y-94882969D01*
X34003978Y-94881631D01*
X34003984Y-94881630D01*
X34223703Y-94824602D01*
X34223702Y-94824602D01*
X34228874Y-94823260D01*
X34345327Y-94770802D01*
X34440715Y-94727833D01*
X34440718Y-94727832D01*
X34445576Y-94725643D01*
X34642732Y-94592909D01*
X34814705Y-94428855D01*
X34956579Y-94238170D01*
X35064295Y-94026307D01*
X35103079Y-93901404D01*
X35133193Y-93804419D01*
X35134775Y-93799324D01*
X35166004Y-93563711D01*
X35161032Y-93431289D01*
X41157996Y-93431289D01*
X41166913Y-93668795D01*
X41215719Y-93901404D01*
X41217677Y-93906363D01*
X41217678Y-93906365D01*
X41266925Y-94031064D01*
X41303020Y-94122463D01*
X41426319Y-94325653D01*
X41429816Y-94329683D01*
X41500500Y-94411139D01*
X41582090Y-94505164D01*
X41586216Y-94508547D01*
X41586220Y-94508551D01*
X41673115Y-94579800D01*
X41765880Y-94655862D01*
X41770516Y-94658501D01*
X41770519Y-94658503D01*
X41851356Y-94704518D01*
X41972433Y-94773439D01*
X42195844Y-94854534D01*
X42201092Y-94855483D01*
X42425641Y-94896088D01*
X42425648Y-94896089D01*
X42429725Y-94896826D01*
X42447991Y-94897687D01*
X42453131Y-94897930D01*
X42453138Y-94897930D01*
X42454619Y-94898000D01*
X43321680Y-94898000D01*
X43404026Y-94891013D01*
X43493512Y-94883420D01*
X43493516Y-94883419D01*
X43498823Y-94882969D01*
X43503978Y-94881631D01*
X43503984Y-94881630D01*
X43723703Y-94824602D01*
X43723702Y-94824602D01*
X43728874Y-94823260D01*
X43845327Y-94770802D01*
X43940715Y-94727833D01*
X43940718Y-94727832D01*
X43945576Y-94725643D01*
X44142732Y-94592909D01*
X44314705Y-94428855D01*
X44456579Y-94238170D01*
X44564295Y-94026307D01*
X44603079Y-93901404D01*
X44633193Y-93804419D01*
X44634775Y-93799324D01*
X44666004Y-93563711D01*
X44657087Y-93326205D01*
X44608281Y-93093596D01*
X44558954Y-92968693D01*
X44522941Y-92877502D01*
X44522940Y-92877500D01*
X44520980Y-92872537D01*
X44397681Y-92669347D01*
X44241910Y-92489836D01*
X44237784Y-92486453D01*
X44237780Y-92486449D01*
X44062247Y-92342522D01*
X44062248Y-92342522D01*
X44058120Y-92339138D01*
X44050211Y-92334636D01*
X44049102Y-92333487D01*
X44049083Y-92333474D01*
X44049086Y-92333470D01*
X44000902Y-92283556D01*
X43987037Y-92213926D01*
X44013018Y-92147854D01*
X44042171Y-92120611D01*
X44121677Y-92067084D01*
X44142732Y-92052909D01*
X44314705Y-91888855D01*
X44456579Y-91698170D01*
X44564295Y-91486307D01*
X44603079Y-91361404D01*
X44633193Y-91264419D01*
X44634775Y-91259324D01*
X44666004Y-91023711D01*
X44657087Y-90786205D01*
X44608281Y-90553596D01*
X44558954Y-90428693D01*
X44522941Y-90337502D01*
X44522940Y-90337500D01*
X44520980Y-90332537D01*
X44397681Y-90129347D01*
X44311840Y-90030423D01*
X44277090Y-89990377D01*
X44247551Y-89925817D01*
X44257605Y-89855536D01*
X44304060Y-89801847D01*
X44328028Y-89789815D01*
X44396419Y-89764177D01*
X44396420Y-89764176D01*
X44404824Y-89761026D01*
X44412003Y-89755646D01*
X44412006Y-89755644D01*
X44512365Y-89680428D01*
X44519546Y-89675046D01*
X44524928Y-89667865D01*
X44600144Y-89567506D01*
X44600146Y-89567503D01*
X44605526Y-89560324D01*
X44655851Y-89426080D01*
X44662500Y-89364877D01*
X44662499Y-87470124D01*
X44657790Y-87426767D01*
X44656705Y-87416778D01*
X44656704Y-87416774D01*
X44655851Y-87408920D01*
X44605526Y-87274676D01*
X44600146Y-87267497D01*
X44600144Y-87267494D01*
X44524928Y-87167135D01*
X44519546Y-87159954D01*
X44512365Y-87154572D01*
X44412006Y-87079356D01*
X44412003Y-87079354D01*
X44404824Y-87073974D01*
X44315439Y-87040466D01*
X44277975Y-87026421D01*
X44277973Y-87026421D01*
X44270580Y-87023649D01*
X44262730Y-87022796D01*
X44262729Y-87022796D01*
X44212774Y-87017369D01*
X44212773Y-87017369D01*
X44209377Y-87017000D01*
X42912190Y-87017000D01*
X41614624Y-87017001D01*
X41611230Y-87017370D01*
X41611224Y-87017370D01*
X41561278Y-87022795D01*
X41561274Y-87022796D01*
X41553420Y-87023649D01*
X41419176Y-87073974D01*
X41411997Y-87079354D01*
X41411994Y-87079356D01*
X41311635Y-87154572D01*
X41304454Y-87159954D01*
X41299072Y-87167135D01*
X41223856Y-87267494D01*
X41223854Y-87267497D01*
X41218474Y-87274676D01*
X41168149Y-87408920D01*
X41167296Y-87416770D01*
X41167296Y-87416771D01*
X41166210Y-87426767D01*
X41161500Y-87470123D01*
X41161501Y-89364876D01*
X41168149Y-89426080D01*
X41218474Y-89560324D01*
X41223854Y-89567503D01*
X41223856Y-89567506D01*
X41299072Y-89667865D01*
X41304454Y-89675046D01*
X41311635Y-89680428D01*
X41411994Y-89755644D01*
X41411997Y-89755646D01*
X41419176Y-89761026D01*
X41465968Y-89778567D01*
X41495304Y-89789565D01*
X41552069Y-89832206D01*
X41576769Y-89898768D01*
X41561562Y-89968117D01*
X41538047Y-89998717D01*
X41509295Y-90026145D01*
X41367421Y-90216830D01*
X41259705Y-90428693D01*
X41258124Y-90433784D01*
X41258123Y-90433787D01*
X41219301Y-90558815D01*
X41189225Y-90655676D01*
X41157996Y-90891289D01*
X41166913Y-91128795D01*
X41215719Y-91361404D01*
X41217677Y-91366363D01*
X41217678Y-91366365D01*
X41266925Y-91491064D01*
X41303020Y-91582463D01*
X41426319Y-91785653D01*
X41429816Y-91789683D01*
X41500500Y-91871139D01*
X41582090Y-91965164D01*
X41586216Y-91968547D01*
X41586220Y-91968551D01*
X41685438Y-92049904D01*
X41765880Y-92115862D01*
X41770516Y-92118501D01*
X41773789Y-92120364D01*
X41774898Y-92121513D01*
X41774917Y-92121526D01*
X41774914Y-92121530D01*
X41823098Y-92171444D01*
X41836963Y-92241074D01*
X41810982Y-92307146D01*
X41781829Y-92334389D01*
X41681268Y-92402091D01*
X41509295Y-92566145D01*
X41367421Y-92756830D01*
X41259705Y-92968693D01*
X41258124Y-92973784D01*
X41258123Y-92973787D01*
X41219301Y-93098815D01*
X41189225Y-93195676D01*
X41157996Y-93431289D01*
X35161032Y-93431289D01*
X35157087Y-93326205D01*
X35108281Y-93093596D01*
X35058954Y-92968693D01*
X35022941Y-92877502D01*
X35022940Y-92877500D01*
X35020980Y-92872537D01*
X34897681Y-92669347D01*
X34741910Y-92489836D01*
X34737784Y-92486453D01*
X34737780Y-92486449D01*
X34562247Y-92342522D01*
X34562248Y-92342522D01*
X34558120Y-92339138D01*
X34550211Y-92334636D01*
X34549102Y-92333487D01*
X34549083Y-92333474D01*
X34549086Y-92333470D01*
X34500902Y-92283556D01*
X34487037Y-92213926D01*
X34513018Y-92147854D01*
X34542171Y-92120611D01*
X34621677Y-92067084D01*
X34642732Y-92052909D01*
X34814705Y-91888855D01*
X34956579Y-91698170D01*
X35064295Y-91486307D01*
X35103079Y-91361404D01*
X35133193Y-91264419D01*
X35134775Y-91259324D01*
X35166004Y-91023711D01*
X35157087Y-90786205D01*
X35108281Y-90553596D01*
X35058954Y-90428693D01*
X35022941Y-90337502D01*
X35022940Y-90337500D01*
X35020980Y-90332537D01*
X34897681Y-90129347D01*
X34811840Y-90030423D01*
X34777090Y-89990377D01*
X34747551Y-89925817D01*
X34757605Y-89855536D01*
X34804060Y-89801847D01*
X34828028Y-89789815D01*
X34896419Y-89764177D01*
X34896420Y-89764176D01*
X34904824Y-89761026D01*
X34912003Y-89755646D01*
X34912006Y-89755644D01*
X35012365Y-89680428D01*
X35019546Y-89675046D01*
X35024928Y-89667865D01*
X35100144Y-89567506D01*
X35100146Y-89567503D01*
X35105526Y-89560324D01*
X35155851Y-89426080D01*
X35162500Y-89364877D01*
X35162499Y-87470124D01*
X35157790Y-87426767D01*
X35156705Y-87416778D01*
X35156704Y-87416774D01*
X35155851Y-87408920D01*
X35105526Y-87274676D01*
X35100146Y-87267497D01*
X35100144Y-87267494D01*
X35024928Y-87167135D01*
X35019546Y-87159954D01*
X35012365Y-87154572D01*
X34912006Y-87079356D01*
X34912003Y-87079354D01*
X34904824Y-87073974D01*
X34815439Y-87040466D01*
X34777975Y-87026421D01*
X34777973Y-87026421D01*
X34770580Y-87023649D01*
X34762730Y-87022796D01*
X34762729Y-87022796D01*
X34712774Y-87017369D01*
X34712773Y-87017369D01*
X34709377Y-87017000D01*
X34129617Y-87017000D01*
X32126500Y-87017001D01*
X32058379Y-86996999D01*
X32011886Y-86943343D01*
X32000500Y-86891001D01*
X32000500Y-79000000D01*
X39344540Y-79000000D01*
X39364326Y-79188256D01*
X39422821Y-79368284D01*
X39517467Y-79532216D01*
X39644129Y-79672888D01*
X39797270Y-79784151D01*
X39970197Y-79861144D01*
X40068212Y-79881978D01*
X40148897Y-79899128D01*
X40148901Y-79899128D01*
X40155354Y-79900500D01*
X40344646Y-79900500D01*
X40351099Y-79899128D01*
X40351103Y-79899128D01*
X40431788Y-79881978D01*
X40529803Y-79861144D01*
X40702730Y-79784151D01*
X40855871Y-79672888D01*
X40982533Y-79532216D01*
X41077179Y-79368284D01*
X41135674Y-79188256D01*
X41155460Y-79000000D01*
X41135674Y-78811744D01*
X41077179Y-78631716D01*
X40982533Y-78467784D01*
X40855871Y-78327112D01*
X40702730Y-78215849D01*
X40529803Y-78138856D01*
X40431788Y-78118022D01*
X40351103Y-78100872D01*
X40351099Y-78100872D01*
X40344646Y-78099500D01*
X40155354Y-78099500D01*
X40148901Y-78100872D01*
X40148897Y-78100872D01*
X40068212Y-78118022D01*
X39970197Y-78138856D01*
X39797270Y-78215849D01*
X39644129Y-78327112D01*
X39517467Y-78467784D01*
X39422821Y-78631716D01*
X39364326Y-78811744D01*
X39344540Y-79000000D01*
X32000500Y-79000000D01*
X32000500Y-77000000D01*
X34844540Y-77000000D01*
X34864326Y-77188256D01*
X34922821Y-77368284D01*
X35017467Y-77532216D01*
X35144129Y-77672888D01*
X35297270Y-77784151D01*
X35470197Y-77861144D01*
X35568212Y-77881978D01*
X35648897Y-77899128D01*
X35648901Y-77899128D01*
X35655354Y-77900500D01*
X35844646Y-77900500D01*
X35851099Y-77899128D01*
X35851103Y-77899128D01*
X35931788Y-77881978D01*
X36029803Y-77861144D01*
X36198753Y-77785922D01*
X36269118Y-77776488D01*
X36301245Y-77785921D01*
X36470197Y-77861144D01*
X36568212Y-77881978D01*
X36648897Y-77899128D01*
X36648901Y-77899128D01*
X36655354Y-77900500D01*
X36844646Y-77900500D01*
X36851099Y-77899128D01*
X36851103Y-77899128D01*
X36931788Y-77881978D01*
X37029803Y-77861144D01*
X37198753Y-77785922D01*
X37269118Y-77776488D01*
X37301245Y-77785921D01*
X37470197Y-77861144D01*
X37568212Y-77881978D01*
X37648897Y-77899128D01*
X37648901Y-77899128D01*
X37655354Y-77900500D01*
X37844646Y-77900500D01*
X37851099Y-77899128D01*
X37851103Y-77899128D01*
X37931788Y-77881978D01*
X38029803Y-77861144D01*
X38202730Y-77784151D01*
X38355871Y-77672888D01*
X38482533Y-77532216D01*
X38577179Y-77368284D01*
X38635674Y-77188256D01*
X38655460Y-77000000D01*
X38635674Y-76811744D01*
X38577179Y-76631716D01*
X38482533Y-76467784D01*
X38355871Y-76327112D01*
X38202730Y-76215849D01*
X38029803Y-76138856D01*
X37931788Y-76118022D01*
X37851103Y-76100872D01*
X37851099Y-76100872D01*
X37844646Y-76099500D01*
X37655354Y-76099500D01*
X37648901Y-76100872D01*
X37648897Y-76100872D01*
X37568212Y-76118022D01*
X37470197Y-76138856D01*
X37301247Y-76214078D01*
X37230882Y-76223512D01*
X37198755Y-76214079D01*
X37029803Y-76138856D01*
X36931788Y-76118022D01*
X36851103Y-76100872D01*
X36851099Y-76100872D01*
X36844646Y-76099500D01*
X36655354Y-76099500D01*
X36648901Y-76100872D01*
X36648897Y-76100872D01*
X36568212Y-76118022D01*
X36470197Y-76138856D01*
X36301247Y-76214078D01*
X36230882Y-76223512D01*
X36198755Y-76214079D01*
X36029803Y-76138856D01*
X35931788Y-76118022D01*
X35851103Y-76100872D01*
X35851099Y-76100872D01*
X35844646Y-76099500D01*
X35655354Y-76099500D01*
X35648901Y-76100872D01*
X35648897Y-76100872D01*
X35568212Y-76118022D01*
X35470197Y-76138856D01*
X35297270Y-76215849D01*
X35144129Y-76327112D01*
X35017467Y-76467784D01*
X34922821Y-76631716D01*
X34864326Y-76811744D01*
X34844540Y-77000000D01*
X32000500Y-77000000D01*
X32000500Y-75416500D01*
X32020502Y-75348379D01*
X32074158Y-75301886D01*
X32126500Y-75290500D01*
X34711844Y-75290499D01*
X34930126Y-75290499D01*
X34933520Y-75290130D01*
X34933526Y-75290130D01*
X34983472Y-75284705D01*
X34983476Y-75284704D01*
X34991330Y-75283851D01*
X35125574Y-75233526D01*
X35132753Y-75228146D01*
X35132756Y-75228144D01*
X35233115Y-75152928D01*
X35240296Y-75147546D01*
X35245678Y-75140365D01*
X35320894Y-75040006D01*
X35320896Y-75040003D01*
X35326276Y-75032824D01*
X35376601Y-74898580D01*
X35383250Y-74837377D01*
X35383249Y-72742624D01*
X35376601Y-72681420D01*
X35326276Y-72547176D01*
X35320896Y-72539997D01*
X35320894Y-72539994D01*
X35245678Y-72439635D01*
X35240296Y-72432454D01*
X35233115Y-72427072D01*
X35132756Y-72351856D01*
X35132753Y-72351854D01*
X35125574Y-72346474D01*
X35117964Y-72343621D01*
X35068119Y-72293666D01*
X35053104Y-72224275D01*
X35079891Y-72155312D01*
X35133626Y-72087270D01*
X35133628Y-72087267D01*
X35136832Y-72083210D01*
X35139327Y-72078691D01*
X35253580Y-71871722D01*
X35253582Y-71871718D01*
X35256077Y-71867198D01*
X35273391Y-71818307D01*
X35336715Y-71639485D01*
X35336716Y-71639481D01*
X35338441Y-71634610D01*
X35381711Y-71391694D01*
X35384196Y-71188256D01*
X35384662Y-71150142D01*
X35384662Y-71150140D01*
X35384725Y-71144972D01*
X35347403Y-70901070D01*
X35270747Y-70666540D01*
X35156815Y-70447679D01*
X35017797Y-70262523D01*
X35011772Y-70254499D01*
X35011770Y-70254496D01*
X35008667Y-70250364D01*
X34830282Y-70079896D01*
X34826007Y-70076980D01*
X34825422Y-70076506D01*
X34785070Y-70018091D01*
X34782704Y-69947134D01*
X34819916Y-69885392D01*
X34979717Y-69739982D01*
X34986743Y-69732449D01*
X35133212Y-69546987D01*
X35138911Y-69538409D01*
X35253120Y-69331518D01*
X35257345Y-69322119D01*
X35336120Y-69099667D01*
X35335008Y-69089540D01*
X35320451Y-69085000D01*
X33258750Y-69085000D01*
X33190629Y-69064998D01*
X33144136Y-69011342D01*
X33132750Y-68959000D01*
X33132750Y-68316885D01*
X33882750Y-68316885D01*
X33887225Y-68332124D01*
X33888615Y-68333329D01*
X33896298Y-68335000D01*
X35320241Y-68335000D01*
X35333772Y-68331027D01*
X35334776Y-68324046D01*
X35271891Y-68131652D01*
X35267894Y-68122143D01*
X35158779Y-67912535D01*
X35153285Y-67903810D01*
X35011397Y-67714832D01*
X35004554Y-67707125D01*
X34833703Y-67543858D01*
X34825693Y-67537371D01*
X34630478Y-67404205D01*
X34621514Y-67399112D01*
X34407157Y-67299611D01*
X34397489Y-67296054D01*
X34169768Y-67232901D01*
X34159648Y-67230970D01*
X33966763Y-67210356D01*
X33960071Y-67210000D01*
X33900865Y-67210000D01*
X33885626Y-67214475D01*
X33884421Y-67215865D01*
X33882750Y-67223548D01*
X33882750Y-68316885D01*
X33132750Y-68316885D01*
X33132750Y-67228115D01*
X33128275Y-67212876D01*
X33126885Y-67211671D01*
X33119202Y-67210000D01*
X33072808Y-67210000D01*
X33067635Y-67210212D01*
X32892072Y-67224646D01*
X32881910Y-67226329D01*
X32652706Y-67283900D01*
X32642959Y-67287218D01*
X32426231Y-67381454D01*
X32417156Y-67386321D01*
X32218738Y-67514683D01*
X32206474Y-67524127D01*
X32205650Y-67523057D01*
X32147449Y-67551361D01*
X32076950Y-67542963D01*
X32022184Y-67497784D01*
X32000500Y-67427115D01*
X32000500Y-65876000D01*
X32020502Y-65807879D01*
X32074158Y-65761386D01*
X32126500Y-65750000D01*
X38745821Y-65750000D01*
X38813942Y-65770002D01*
G37*
G04 #@! TD.AperFunction*
M02*
