G04 #@! TF.GenerationSoftware,KiCad,Pcbnew,6.0.4-6f826c9f35~116~ubuntu18.04.1*
G04 #@! TF.CreationDate,2022-10-10T17:48:02-04:00*
G04 #@! TF.ProjectId,4UP,3455502e-6b69-4636-9164-5f7063625858,rev?*
G04 #@! TF.SameCoordinates,Original*
G04 #@! TF.FileFunction,Soldermask,Top*
G04 #@! TF.FilePolarity,Negative*
%FSLAX46Y46*%
G04 Gerber Fmt 4.6, Leading zero omitted, Abs format (unit mm)*
G04 Created by KiCad (PCBNEW 6.0.4-6f826c9f35~116~ubuntu18.04.1) date 2022-10-10 17:48:02*
%MOMM*%
%LPD*%
G01*
G04 APERTURE LIST*
G04 Aperture macros list*
%AMHorizOval*
0 Thick line with rounded ends*
0 $1 width*
0 $2 $3 position (X,Y) of the first rounded end (center of the circle)*
0 $4 $5 position (X,Y) of the second rounded end (center of the circle)*
0 Add line between two ends*
20,1,$1,$2,$3,$4,$5,0*
0 Add two circle primitives to create the rounded ends*
1,1,$1,$2,$3*
1,1,$1,$4,$5*%
G04 Aperture macros list end*
%ADD10C,3.300000*%
%ADD11R,1.800000X1.800000*%
%ADD12C,1.800000*%
%ADD13R,4.000000X2.500000*%
%ADD14O,4.000000X2.500000*%
%ADD15R,2.000000X2.500000*%
%ADD16O,2.000000X2.500000*%
%ADD17HorizOval,2.540000X1.226726X-0.328700X-1.226726X0.328700X0*%
%ADD18R,2.540000X5.080000*%
%ADD19O,5.080000X2.540000*%
%ADD20R,2.750000X2.000000*%
%ADD21O,2.750000X2.000000*%
%ADD22R,2.500000X1.800000*%
%ADD23O,2.500000X1.800000*%
%ADD24R,2.800000X1.600000*%
%ADD25R,1.727200X1.727200*%
%ADD26O,1.727200X1.727200*%
G04 APERTURE END LIST*
D10*
X41000000Y-136500000D03*
D11*
X41000000Y-101500000D03*
D12*
X41000000Y-98960000D03*
D13*
X41000000Y-60000000D03*
D14*
X41000000Y-67000000D03*
D15*
X45960000Y-144500000D03*
D16*
X48500000Y-144500000D03*
D15*
X39730000Y-144500000D03*
D16*
X42270000Y-144500000D03*
D17*
X40000000Y-50810000D03*
D18*
X44810000Y-47000000D03*
D19*
X41000000Y-43190000D03*
D15*
X33480000Y-144500000D03*
D16*
X36020000Y-144500000D03*
D20*
X33507750Y-73790000D03*
D21*
X33507750Y-71250000D03*
X33507750Y-68710000D03*
D22*
X42912000Y-88417500D03*
D23*
X42912000Y-90957500D03*
X42912000Y-93497500D03*
D24*
X34000000Y-42750000D03*
D25*
X44500000Y-127265000D03*
D26*
X47040000Y-127265000D03*
X44500000Y-124725000D03*
X47040000Y-124725000D03*
X44500000Y-122185000D03*
X47040000Y-122185000D03*
X44500000Y-119645000D03*
X47040000Y-119645000D03*
X44500000Y-117105000D03*
X47040000Y-117105000D03*
X44500000Y-114565000D03*
X47040000Y-114565000D03*
X44500000Y-112025000D03*
X47040000Y-112025000D03*
X44500000Y-109485000D03*
X47040000Y-109485000D03*
D25*
X34855000Y-127265000D03*
D26*
X37395000Y-127265000D03*
X34855000Y-124725000D03*
X37395000Y-124725000D03*
X34855000Y-122185000D03*
X37395000Y-122185000D03*
X34855000Y-119645000D03*
X37395000Y-119645000D03*
X34855000Y-117105000D03*
X37395000Y-117105000D03*
X34855000Y-114565000D03*
X37395000Y-114565000D03*
X34855000Y-112025000D03*
X37395000Y-112025000D03*
X34855000Y-109485000D03*
X37395000Y-109485000D03*
D22*
X33412000Y-88417500D03*
D23*
X33412000Y-90957500D03*
X33412000Y-93497500D03*
M02*
