G04 #@! TF.GenerationSoftware,KiCad,Pcbnew,6.0.4-6f826c9f35~116~ubuntu18.04.1*
G04 #@! TF.CreationDate,2022-10-10T17:48:02-04:00*
G04 #@! TF.ProjectId,4UP,3455502e-6b69-4636-9164-5f7063625858,rev?*
G04 #@! TF.SameCoordinates,Original*
G04 #@! TF.FileFunction,Copper,L1,Top*
G04 #@! TF.FilePolarity,Positive*
%FSLAX46Y46*%
G04 Gerber Fmt 4.6, Leading zero omitted, Abs format (unit mm)*
G04 Created by KiCad (PCBNEW 6.0.4-6f826c9f35~116~ubuntu18.04.1) date 2022-10-10 17:48:02*
%MOMM*%
%LPD*%
G01*
G04 APERTURE LIST*
G04 Aperture macros list*
%AMHorizOval*
0 Thick line with rounded ends*
0 $1 width*
0 $2 $3 position (X,Y) of the first rounded end (center of the circle)*
0 $4 $5 position (X,Y) of the second rounded end (center of the circle)*
0 Add line between two ends*
20,1,$1,$2,$3,$4,$5,0*
0 Add two circle primitives to create the rounded ends*
1,1,$1,$2,$3*
1,1,$1,$4,$5*%
G04 Aperture macros list end*
G04 #@! TA.AperFunction,ComponentPad*
%ADD10R,1.800000X1.800000*%
G04 #@! TD*
G04 #@! TA.AperFunction,ComponentPad*
%ADD11C,1.800000*%
G04 #@! TD*
G04 #@! TA.AperFunction,ComponentPad*
%ADD12R,4.000000X2.500000*%
G04 #@! TD*
G04 #@! TA.AperFunction,ComponentPad*
%ADD13O,4.000000X2.500000*%
G04 #@! TD*
G04 #@! TA.AperFunction,ComponentPad*
%ADD14R,2.000000X2.500000*%
G04 #@! TD*
G04 #@! TA.AperFunction,ComponentPad*
%ADD15O,2.000000X2.500000*%
G04 #@! TD*
G04 #@! TA.AperFunction,ComponentPad*
%ADD16HorizOval,2.540000X1.226726X-0.328700X-1.226726X0.328700X0*%
G04 #@! TD*
G04 #@! TA.AperFunction,ComponentPad*
%ADD17R,2.540000X5.080000*%
G04 #@! TD*
G04 #@! TA.AperFunction,ComponentPad*
%ADD18O,5.080000X2.540000*%
G04 #@! TD*
G04 #@! TA.AperFunction,ComponentPad*
%ADD19R,2.750000X2.000000*%
G04 #@! TD*
G04 #@! TA.AperFunction,ComponentPad*
%ADD20O,2.750000X2.000000*%
G04 #@! TD*
G04 #@! TA.AperFunction,ComponentPad*
%ADD21R,2.500000X1.800000*%
G04 #@! TD*
G04 #@! TA.AperFunction,ComponentPad*
%ADD22O,2.500000X1.800000*%
G04 #@! TD*
G04 #@! TA.AperFunction,ComponentPad*
%ADD23R,2.800000X1.600000*%
G04 #@! TD*
G04 #@! TA.AperFunction,ComponentPad*
%ADD24R,1.727200X1.727200*%
G04 #@! TD*
G04 #@! TA.AperFunction,ComponentPad*
%ADD25O,1.727200X1.727200*%
G04 #@! TD*
G04 #@! TA.AperFunction,ViaPad*
%ADD26C,0.800000*%
G04 #@! TD*
G04 APERTURE END LIST*
D10*
X41000000Y-101500000D03*
D11*
X41000000Y-98960000D03*
D12*
X41000000Y-60000000D03*
D13*
X41000000Y-67000000D03*
D14*
X45960000Y-144500000D03*
D15*
X48500000Y-144500000D03*
D14*
X39730000Y-144500000D03*
D15*
X42270000Y-144500000D03*
D16*
X40000000Y-50810000D03*
D17*
X44810000Y-47000000D03*
D18*
X41000000Y-43190000D03*
D14*
X33480000Y-144500000D03*
D15*
X36020000Y-144500000D03*
D19*
X33507750Y-73790000D03*
D20*
X33507750Y-71250000D03*
X33507750Y-68710000D03*
D21*
X42912000Y-88417500D03*
D22*
X42912000Y-90957500D03*
X42912000Y-93497500D03*
D23*
X34000000Y-42750000D03*
D24*
X44500000Y-127265000D03*
D25*
X47040000Y-127265000D03*
X44500000Y-124725000D03*
X47040000Y-124725000D03*
X44500000Y-122185000D03*
X47040000Y-122185000D03*
X44500000Y-119645000D03*
X47040000Y-119645000D03*
X44500000Y-117105000D03*
X47040000Y-117105000D03*
X44500000Y-114565000D03*
X47040000Y-114565000D03*
X44500000Y-112025000D03*
X47040000Y-112025000D03*
X44500000Y-109485000D03*
X47040000Y-109485000D03*
D24*
X34855000Y-127265000D03*
D25*
X37395000Y-127265000D03*
X34855000Y-124725000D03*
X37395000Y-124725000D03*
X34855000Y-122185000D03*
X37395000Y-122185000D03*
X34855000Y-119645000D03*
X37395000Y-119645000D03*
X34855000Y-117105000D03*
X37395000Y-117105000D03*
X34855000Y-114565000D03*
X37395000Y-114565000D03*
X34855000Y-112025000D03*
X37395000Y-112025000D03*
X34855000Y-109485000D03*
X37395000Y-109485000D03*
D21*
X33412000Y-88417500D03*
D22*
X33412000Y-90957500D03*
X33412000Y-93497500D03*
D26*
X49250000Y-72000000D03*
X49250000Y-85750000D03*
X49250000Y-71000000D03*
X37750000Y-77000000D03*
X49250000Y-86750000D03*
X49250000Y-70000000D03*
X49250000Y-65250000D03*
X49250000Y-63250000D03*
X35750000Y-77000000D03*
X36750000Y-77000000D03*
X40250000Y-79000000D03*
X49250000Y-64250000D03*
X49250000Y-73000000D03*
X36500000Y-104500000D03*
X35500000Y-105500000D03*
X36500000Y-106500000D03*
X35500000Y-106500000D03*
X37500000Y-106500000D03*
X36500000Y-105500000D03*
X34500000Y-105500000D03*
X33500000Y-104500000D03*
X34500000Y-106500000D03*
X33500000Y-106500000D03*
X33500000Y-105500000D03*
X37500000Y-104500000D03*
X34500000Y-104500000D03*
X35500000Y-104500000D03*
X37500000Y-105500000D03*
X49000000Y-101000000D03*
X46000000Y-101000000D03*
X47000000Y-100000000D03*
X49000000Y-97000000D03*
X48000000Y-98000000D03*
X47000000Y-98000000D03*
X49000000Y-96000000D03*
X49000000Y-100000000D03*
X49000000Y-98000000D03*
X47000000Y-99000000D03*
X46000000Y-96000000D03*
X46000000Y-97000000D03*
X48000000Y-96000000D03*
X47000000Y-97000000D03*
X46000000Y-99000000D03*
X48000000Y-99000000D03*
X48000000Y-101000000D03*
X48000000Y-100000000D03*
X49000000Y-99000000D03*
X46000000Y-100000000D03*
X47000000Y-96000000D03*
X47000000Y-101000000D03*
X46000000Y-98000000D03*
X48000000Y-97000000D03*
G04 #@! TA.AperFunction,Conductor*
G36*
X49941621Y-40770502D02*
G01*
X49988114Y-40824158D01*
X49999500Y-40876500D01*
X49999500Y-95459946D01*
X49979498Y-95528067D01*
X49925842Y-95574560D01*
X49855568Y-95584664D01*
X49790988Y-95555170D01*
X49764381Y-95522946D01*
X49735836Y-95473505D01*
X49732533Y-95467784D01*
X49605871Y-95327112D01*
X49452730Y-95215849D01*
X49279803Y-95138856D01*
X49181788Y-95118022D01*
X49101103Y-95100872D01*
X49101099Y-95100872D01*
X49094646Y-95099500D01*
X48905354Y-95099500D01*
X48898901Y-95100872D01*
X48898897Y-95100872D01*
X48818212Y-95118022D01*
X48720197Y-95138856D01*
X48551247Y-95214078D01*
X48480882Y-95223512D01*
X48448755Y-95214079D01*
X48279803Y-95138856D01*
X48181788Y-95118022D01*
X48101103Y-95100872D01*
X48101099Y-95100872D01*
X48094646Y-95099500D01*
X47905354Y-95099500D01*
X47898901Y-95100872D01*
X47898897Y-95100872D01*
X47818212Y-95118022D01*
X47720197Y-95138856D01*
X47551247Y-95214078D01*
X47480882Y-95223512D01*
X47448755Y-95214079D01*
X47279803Y-95138856D01*
X47181788Y-95118022D01*
X47101103Y-95100872D01*
X47101099Y-95100872D01*
X47094646Y-95099500D01*
X46905354Y-95099500D01*
X46898901Y-95100872D01*
X46898897Y-95100872D01*
X46818212Y-95118022D01*
X46720197Y-95138856D01*
X46551247Y-95214078D01*
X46480882Y-95223512D01*
X46448755Y-95214079D01*
X46279803Y-95138856D01*
X46181788Y-95118022D01*
X46101103Y-95100872D01*
X46101099Y-95100872D01*
X46094646Y-95099500D01*
X45905354Y-95099500D01*
X45898901Y-95100872D01*
X45898897Y-95100872D01*
X45818212Y-95118022D01*
X45720197Y-95138856D01*
X45547270Y-95215849D01*
X45394129Y-95327112D01*
X45267467Y-95467784D01*
X45172821Y-95631716D01*
X45114326Y-95811744D01*
X45094540Y-96000000D01*
X45114326Y-96188256D01*
X45172821Y-96368284D01*
X45176124Y-96374006D01*
X45176125Y-96374007D01*
X45212494Y-96437000D01*
X45229232Y-96505996D01*
X45212494Y-96563000D01*
X45172821Y-96631716D01*
X45114326Y-96811744D01*
X45094540Y-97000000D01*
X45114326Y-97188256D01*
X45172821Y-97368284D01*
X45176124Y-97374006D01*
X45176125Y-97374007D01*
X45212494Y-97437000D01*
X45229232Y-97505996D01*
X45212494Y-97563000D01*
X45190893Y-97600415D01*
X45172821Y-97631716D01*
X45114326Y-97811744D01*
X45094540Y-98000000D01*
X45095230Y-98006565D01*
X45105320Y-98102563D01*
X45114326Y-98188256D01*
X45172821Y-98368284D01*
X45176124Y-98374006D01*
X45176125Y-98374007D01*
X45212494Y-98437000D01*
X45229232Y-98505996D01*
X45212494Y-98563000D01*
X45172821Y-98631716D01*
X45114326Y-98811744D01*
X45113636Y-98818305D01*
X45113636Y-98818307D01*
X45095899Y-98987074D01*
X45094540Y-99000000D01*
X45095230Y-99006565D01*
X45111423Y-99160632D01*
X45114326Y-99188256D01*
X45172821Y-99368284D01*
X45176124Y-99374006D01*
X45176125Y-99374007D01*
X45212494Y-99437000D01*
X45229232Y-99505996D01*
X45212494Y-99563000D01*
X45197581Y-99588831D01*
X45172821Y-99631716D01*
X45114326Y-99811744D01*
X45113636Y-99818305D01*
X45113636Y-99818307D01*
X45099873Y-99949262D01*
X45094540Y-100000000D01*
X45095230Y-100006565D01*
X45098047Y-100033363D01*
X45114326Y-100188256D01*
X45172821Y-100368284D01*
X45176124Y-100374006D01*
X45176125Y-100374007D01*
X45212494Y-100437000D01*
X45229232Y-100505996D01*
X45212494Y-100563000D01*
X45172821Y-100631716D01*
X45114326Y-100811744D01*
X45094540Y-101000000D01*
X45114326Y-101188256D01*
X45172821Y-101368284D01*
X45267467Y-101532216D01*
X45394129Y-101672888D01*
X45399468Y-101676767D01*
X45508338Y-101755865D01*
X45547270Y-101784151D01*
X45720197Y-101861144D01*
X45818212Y-101881978D01*
X45898897Y-101899128D01*
X45898901Y-101899128D01*
X45905354Y-101900500D01*
X46094646Y-101900500D01*
X46101099Y-101899128D01*
X46101103Y-101899128D01*
X46181788Y-101881978D01*
X46279803Y-101861144D01*
X46448753Y-101785922D01*
X46519118Y-101776488D01*
X46551245Y-101785921D01*
X46720197Y-101861144D01*
X46818212Y-101881978D01*
X46898897Y-101899128D01*
X46898901Y-101899128D01*
X46905354Y-101900500D01*
X47094646Y-101900500D01*
X47101099Y-101899128D01*
X47101103Y-101899128D01*
X47181788Y-101881978D01*
X47279803Y-101861144D01*
X47448753Y-101785922D01*
X47519118Y-101776488D01*
X47551245Y-101785921D01*
X47720197Y-101861144D01*
X47818212Y-101881978D01*
X47898897Y-101899128D01*
X47898901Y-101899128D01*
X47905354Y-101900500D01*
X48094646Y-101900500D01*
X48101099Y-101899128D01*
X48101103Y-101899128D01*
X48181788Y-101881978D01*
X48279803Y-101861144D01*
X48448753Y-101785922D01*
X48519118Y-101776488D01*
X48551245Y-101785921D01*
X48720197Y-101861144D01*
X48818212Y-101881978D01*
X48898897Y-101899128D01*
X48898901Y-101899128D01*
X48905354Y-101900500D01*
X49094646Y-101900500D01*
X49101099Y-101899128D01*
X49101103Y-101899128D01*
X49181788Y-101881978D01*
X49279803Y-101861144D01*
X49452730Y-101784151D01*
X49491663Y-101755865D01*
X49600532Y-101676767D01*
X49605871Y-101672888D01*
X49732533Y-101532216D01*
X49764381Y-101477054D01*
X49815764Y-101428061D01*
X49885477Y-101414625D01*
X49951388Y-101441012D01*
X49992570Y-101498844D01*
X49999500Y-101540054D01*
X49999500Y-143379447D01*
X49979498Y-143447568D01*
X49925842Y-143494061D01*
X49855568Y-143504165D01*
X49790988Y-143474671D01*
X49767708Y-143447887D01*
X49695317Y-143335988D01*
X49689027Y-143327819D01*
X49529982Y-143153032D01*
X49522449Y-143146007D01*
X49336987Y-142999538D01*
X49328409Y-142993839D01*
X49121518Y-142879630D01*
X49112119Y-142875405D01*
X48889357Y-142796520D01*
X48879386Y-142793886D01*
X48767837Y-142774016D01*
X48754540Y-142775476D01*
X48750000Y-142790033D01*
X48750000Y-146211171D01*
X48753918Y-146224515D01*
X48768194Y-146226502D01*
X48843700Y-146214947D01*
X48853728Y-146212558D01*
X49078348Y-146139141D01*
X49087857Y-146135144D01*
X49297465Y-146026029D01*
X49306190Y-146020535D01*
X49495168Y-145878647D01*
X49502875Y-145871804D01*
X49666142Y-145700953D01*
X49672629Y-145692943D01*
X49769412Y-145551064D01*
X49824323Y-145506061D01*
X49894848Y-145497890D01*
X49958595Y-145529144D01*
X49995325Y-145589901D01*
X49999500Y-145622068D01*
X49999500Y-147623500D01*
X49979498Y-147691621D01*
X49925842Y-147738114D01*
X49873500Y-147749500D01*
X32126500Y-147749500D01*
X32058379Y-147729498D01*
X32011886Y-147675842D01*
X32000500Y-147623500D01*
X32000500Y-146267413D01*
X32020502Y-146199292D01*
X32074158Y-146152799D01*
X32144432Y-146142695D01*
X32202064Y-146166586D01*
X32230238Y-146187701D01*
X32245823Y-146196233D01*
X32364133Y-146240586D01*
X32379379Y-146244211D01*
X32429271Y-146249631D01*
X32436085Y-146250000D01*
X33211885Y-146250000D01*
X33227124Y-146245525D01*
X33228329Y-146244135D01*
X33230000Y-146236452D01*
X33230000Y-146231885D01*
X33730000Y-146231885D01*
X33734475Y-146247124D01*
X33735865Y-146248329D01*
X33743548Y-146250000D01*
X34523915Y-146250000D01*
X34530729Y-146249631D01*
X34580621Y-146244211D01*
X34595867Y-146240586D01*
X34714177Y-146196233D01*
X34729763Y-146187701D01*
X34830009Y-146112570D01*
X34842570Y-146100009D01*
X34917697Y-145999768D01*
X34925674Y-145985197D01*
X34975932Y-145935051D01*
X35045323Y-145920036D01*
X35114287Y-145946823D01*
X35182736Y-146000881D01*
X35182741Y-146000884D01*
X35186790Y-146004082D01*
X35191306Y-146006575D01*
X35191309Y-146006577D01*
X35398278Y-146120830D01*
X35398282Y-146120832D01*
X35402802Y-146123327D01*
X35407671Y-146125051D01*
X35407675Y-146125053D01*
X35630515Y-146203965D01*
X35630519Y-146203966D01*
X35635390Y-146205691D01*
X35640483Y-146206598D01*
X35640486Y-146206599D01*
X35873217Y-146248055D01*
X35873223Y-146248056D01*
X35878306Y-146248961D01*
X35957676Y-146249931D01*
X36119858Y-146251912D01*
X36119860Y-146251912D01*
X36125028Y-146251975D01*
X36368930Y-146214653D01*
X36603460Y-146137997D01*
X36822321Y-146024065D01*
X36826454Y-146020962D01*
X36826457Y-146020960D01*
X37015501Y-145879022D01*
X37015504Y-145879020D01*
X37019636Y-145875917D01*
X37190104Y-145697532D01*
X37193235Y-145692943D01*
X37326230Y-145497979D01*
X37329149Y-145493700D01*
X37433035Y-145269896D01*
X37498974Y-145032129D01*
X37520500Y-144830708D01*
X37520500Y-144187446D01*
X37520288Y-144184862D01*
X37505849Y-144009240D01*
X37505848Y-144009234D01*
X37505425Y-144004089D01*
X37445316Y-143764783D01*
X37346928Y-143538507D01*
X37212905Y-143331339D01*
X37186635Y-143302468D01*
X37098892Y-143206040D01*
X37095783Y-143202623D01*
X38229500Y-143202623D01*
X38229501Y-145797376D01*
X38236149Y-145858580D01*
X38286474Y-145992824D01*
X38291854Y-146000003D01*
X38291856Y-146000006D01*
X38311678Y-146026454D01*
X38372454Y-146107546D01*
X38379635Y-146112928D01*
X38479994Y-146188144D01*
X38479997Y-146188146D01*
X38487176Y-146193526D01*
X38573759Y-146225984D01*
X38614025Y-146241079D01*
X38614027Y-146241079D01*
X38621420Y-146243851D01*
X38629270Y-146244704D01*
X38629271Y-146244704D01*
X38679217Y-146250130D01*
X38682623Y-146250500D01*
X39729846Y-146250500D01*
X40777376Y-146250499D01*
X40780770Y-146250130D01*
X40780776Y-146250130D01*
X40830722Y-146244705D01*
X40830726Y-146244704D01*
X40838580Y-146243851D01*
X40972824Y-146193526D01*
X40980003Y-146188146D01*
X40980006Y-146188144D01*
X41080365Y-146112928D01*
X41087546Y-146107546D01*
X41163219Y-146006577D01*
X41168142Y-146000008D01*
X41168143Y-146000006D01*
X41173526Y-145992824D01*
X41176500Y-145984890D01*
X41226578Y-145934923D01*
X41295968Y-145919908D01*
X41364933Y-145946695D01*
X41433013Y-146000462D01*
X41441591Y-146006161D01*
X41648482Y-146120370D01*
X41657881Y-146124595D01*
X41880643Y-146203480D01*
X41890614Y-146206114D01*
X42002163Y-146225984D01*
X42015460Y-146224524D01*
X42019624Y-146211171D01*
X42520000Y-146211171D01*
X42523918Y-146224515D01*
X42538194Y-146226502D01*
X42613700Y-146214947D01*
X42623728Y-146212558D01*
X42848348Y-146139141D01*
X42857857Y-146135144D01*
X43067465Y-146026029D01*
X43076190Y-146020535D01*
X43265168Y-145878647D01*
X43272875Y-145871804D01*
X43436142Y-145700953D01*
X43442629Y-145692943D01*
X43575795Y-145497728D01*
X43580888Y-145488764D01*
X43680389Y-145274407D01*
X43683946Y-145264739D01*
X43747099Y-145037018D01*
X43749030Y-145026898D01*
X43769644Y-144834013D01*
X43770000Y-144827321D01*
X43770000Y-144768115D01*
X43765525Y-144752876D01*
X43764135Y-144751671D01*
X43756452Y-144750000D01*
X42538115Y-144750000D01*
X42522876Y-144754475D01*
X42521671Y-144755865D01*
X42520000Y-144763548D01*
X42520000Y-146211171D01*
X42019624Y-146211171D01*
X42020000Y-146209967D01*
X42020000Y-144231885D01*
X42520000Y-144231885D01*
X42524475Y-144247124D01*
X42525865Y-144248329D01*
X42533548Y-144250000D01*
X43751885Y-144250000D01*
X43767124Y-144245525D01*
X43768329Y-144244135D01*
X43770000Y-144236452D01*
X43770000Y-144190058D01*
X43769788Y-144184885D01*
X43755354Y-144009322D01*
X43753671Y-143999160D01*
X43696100Y-143769956D01*
X43692782Y-143760209D01*
X43598546Y-143543481D01*
X43593679Y-143534406D01*
X43465317Y-143335988D01*
X43459027Y-143327819D01*
X43345107Y-143202623D01*
X44459500Y-143202623D01*
X44459501Y-145797376D01*
X44466149Y-145858580D01*
X44516474Y-145992824D01*
X44521854Y-146000003D01*
X44521856Y-146000006D01*
X44541678Y-146026454D01*
X44602454Y-146107546D01*
X44609635Y-146112928D01*
X44709994Y-146188144D01*
X44709997Y-146188146D01*
X44717176Y-146193526D01*
X44803759Y-146225984D01*
X44844025Y-146241079D01*
X44844027Y-146241079D01*
X44851420Y-146243851D01*
X44859270Y-146244704D01*
X44859271Y-146244704D01*
X44909217Y-146250130D01*
X44912623Y-146250500D01*
X45959846Y-146250500D01*
X47007376Y-146250499D01*
X47010770Y-146250130D01*
X47010776Y-146250130D01*
X47060722Y-146244705D01*
X47060726Y-146244704D01*
X47068580Y-146243851D01*
X47202824Y-146193526D01*
X47210003Y-146188146D01*
X47210006Y-146188144D01*
X47310365Y-146112928D01*
X47317546Y-146107546D01*
X47393219Y-146006577D01*
X47398142Y-146000008D01*
X47398143Y-146000006D01*
X47403526Y-145992824D01*
X47406500Y-145984890D01*
X47456578Y-145934923D01*
X47525968Y-145919908D01*
X47594933Y-145946695D01*
X47663013Y-146000462D01*
X47671591Y-146006161D01*
X47878482Y-146120370D01*
X47887881Y-146124595D01*
X48110643Y-146203480D01*
X48120614Y-146206114D01*
X48232163Y-146225984D01*
X48245460Y-146224524D01*
X48250000Y-146209967D01*
X48250000Y-142788829D01*
X48246082Y-142775485D01*
X48231806Y-142773498D01*
X48156300Y-142785053D01*
X48146272Y-142787442D01*
X47921652Y-142860859D01*
X47912143Y-142864856D01*
X47702535Y-142973971D01*
X47693812Y-142979464D01*
X47592630Y-143055433D01*
X47526146Y-143080338D01*
X47456750Y-143065345D01*
X47406568Y-143015291D01*
X47403526Y-143007176D01*
X47317546Y-142892454D01*
X47300435Y-142879630D01*
X47210006Y-142811856D01*
X47210003Y-142811854D01*
X47202824Y-142806474D01*
X47100500Y-142768115D01*
X47075975Y-142758921D01*
X47075973Y-142758921D01*
X47068580Y-142756149D01*
X47060730Y-142755296D01*
X47060729Y-142755296D01*
X47010774Y-142749869D01*
X47010773Y-142749869D01*
X47007377Y-142749500D01*
X45960154Y-142749500D01*
X44912624Y-142749501D01*
X44909230Y-142749870D01*
X44909224Y-142749870D01*
X44859278Y-142755295D01*
X44859274Y-142755296D01*
X44851420Y-142756149D01*
X44717176Y-142806474D01*
X44709997Y-142811854D01*
X44709994Y-142811856D01*
X44619565Y-142879630D01*
X44602454Y-142892454D01*
X44597072Y-142899635D01*
X44521856Y-142999994D01*
X44521854Y-142999997D01*
X44516474Y-143007176D01*
X44466149Y-143141420D01*
X44459500Y-143202623D01*
X43345107Y-143202623D01*
X43299982Y-143153032D01*
X43292449Y-143146007D01*
X43106987Y-142999538D01*
X43098409Y-142993839D01*
X42891518Y-142879630D01*
X42882119Y-142875405D01*
X42659357Y-142796520D01*
X42649386Y-142793886D01*
X42537837Y-142774016D01*
X42524540Y-142775476D01*
X42520000Y-142790033D01*
X42520000Y-144231885D01*
X42020000Y-144231885D01*
X42020000Y-142788829D01*
X42016082Y-142775485D01*
X42001806Y-142773498D01*
X41926300Y-142785053D01*
X41916272Y-142787442D01*
X41691652Y-142860859D01*
X41682143Y-142864856D01*
X41472535Y-142973971D01*
X41463812Y-142979464D01*
X41362630Y-143055433D01*
X41296146Y-143080338D01*
X41226750Y-143065345D01*
X41176568Y-143015291D01*
X41173526Y-143007176D01*
X41087546Y-142892454D01*
X41070435Y-142879630D01*
X40980006Y-142811856D01*
X40980003Y-142811854D01*
X40972824Y-142806474D01*
X40870500Y-142768115D01*
X40845975Y-142758921D01*
X40845973Y-142758921D01*
X40838580Y-142756149D01*
X40830730Y-142755296D01*
X40830729Y-142755296D01*
X40780774Y-142749869D01*
X40780773Y-142749869D01*
X40777377Y-142749500D01*
X39730154Y-142749500D01*
X38682624Y-142749501D01*
X38679230Y-142749870D01*
X38679224Y-142749870D01*
X38629278Y-142755295D01*
X38629274Y-142755296D01*
X38621420Y-142756149D01*
X38487176Y-142806474D01*
X38479997Y-142811854D01*
X38479994Y-142811856D01*
X38389565Y-142879630D01*
X38372454Y-142892454D01*
X38367072Y-142899635D01*
X38291856Y-142999994D01*
X38291854Y-142999997D01*
X38286474Y-143007176D01*
X38236149Y-143141420D01*
X38229500Y-143202623D01*
X37095783Y-143202623D01*
X37046846Y-143148842D01*
X37042795Y-143145643D01*
X37042791Y-143145639D01*
X36857264Y-142999119D01*
X36857259Y-142999116D01*
X36853210Y-142995918D01*
X36848694Y-142993425D01*
X36848691Y-142993423D01*
X36641722Y-142879170D01*
X36641718Y-142879168D01*
X36637198Y-142876673D01*
X36632329Y-142874949D01*
X36632325Y-142874947D01*
X36409485Y-142796035D01*
X36409481Y-142796034D01*
X36404610Y-142794309D01*
X36399517Y-142793402D01*
X36399514Y-142793401D01*
X36166783Y-142751945D01*
X36166777Y-142751944D01*
X36161694Y-142751039D01*
X36076643Y-142750000D01*
X35920142Y-142748088D01*
X35920140Y-142748088D01*
X35914972Y-142748025D01*
X35671070Y-142785347D01*
X35436540Y-142862003D01*
X35217679Y-142975935D01*
X35213546Y-142979038D01*
X35213543Y-142979040D01*
X35111980Y-143055296D01*
X35045495Y-143080202D01*
X34976100Y-143065210D01*
X34925807Y-143015044D01*
X34917701Y-143000237D01*
X34842570Y-142899991D01*
X34830009Y-142887430D01*
X34729763Y-142812299D01*
X34714177Y-142803767D01*
X34595867Y-142759414D01*
X34580621Y-142755789D01*
X34530729Y-142750369D01*
X34523915Y-142750000D01*
X33748115Y-142750000D01*
X33732876Y-142754475D01*
X33731671Y-142755865D01*
X33730000Y-142763548D01*
X33730000Y-146231885D01*
X33230000Y-146231885D01*
X33230000Y-142768115D01*
X33225525Y-142752876D01*
X33224135Y-142751671D01*
X33216452Y-142750000D01*
X32436085Y-142750000D01*
X32429271Y-142750369D01*
X32379379Y-142755789D01*
X32364133Y-142759414D01*
X32245823Y-142803767D01*
X32230238Y-142812299D01*
X32202064Y-142833414D01*
X32135558Y-142858261D01*
X32066175Y-142843208D01*
X32015946Y-142793033D01*
X32000500Y-142732587D01*
X32000500Y-136500000D01*
X37344490Y-136500000D01*
X37364515Y-136882105D01*
X37424372Y-137260023D01*
X37523403Y-137629615D01*
X37660525Y-137986830D01*
X37834235Y-138327755D01*
X38042630Y-138648655D01*
X38283427Y-138946014D01*
X38553986Y-139216573D01*
X38851345Y-139457370D01*
X39172245Y-139665765D01*
X39513170Y-139839475D01*
X39870385Y-139976597D01*
X40239977Y-140075628D01*
X40440654Y-140107413D01*
X40614647Y-140134971D01*
X40614655Y-140134972D01*
X40617895Y-140135485D01*
X40904402Y-140150500D01*
X41095598Y-140150500D01*
X41382105Y-140135485D01*
X41385345Y-140134972D01*
X41385353Y-140134971D01*
X41559346Y-140107413D01*
X41760023Y-140075628D01*
X42129615Y-139976597D01*
X42486830Y-139839475D01*
X42827755Y-139665765D01*
X43148655Y-139457370D01*
X43446014Y-139216573D01*
X43716573Y-138946014D01*
X43957370Y-138648655D01*
X44165765Y-138327755D01*
X44339475Y-137986830D01*
X44476597Y-137629615D01*
X44575628Y-137260023D01*
X44635485Y-136882105D01*
X44655510Y-136500000D01*
X44635485Y-136117895D01*
X44575628Y-135739977D01*
X44476597Y-135370385D01*
X44339475Y-135013170D01*
X44165765Y-134672245D01*
X43957370Y-134351345D01*
X43716573Y-134053986D01*
X43446014Y-133783427D01*
X43148655Y-133542630D01*
X42827755Y-133334235D01*
X42486830Y-133160525D01*
X42129615Y-133023403D01*
X41760023Y-132924372D01*
X41559346Y-132892587D01*
X41385353Y-132865029D01*
X41385345Y-132865028D01*
X41382105Y-132864515D01*
X41095598Y-132849500D01*
X40904402Y-132849500D01*
X40617895Y-132864515D01*
X40614655Y-132865028D01*
X40614647Y-132865029D01*
X40440654Y-132892587D01*
X40239977Y-132924372D01*
X39870385Y-133023403D01*
X39513170Y-133160525D01*
X39172245Y-133334235D01*
X38851345Y-133542630D01*
X38553986Y-133783427D01*
X38283427Y-134053986D01*
X38042630Y-134351345D01*
X37834235Y-134672245D01*
X37660525Y-135013170D01*
X37523403Y-135370385D01*
X37424372Y-135739977D01*
X37364515Y-136117895D01*
X37344490Y-136500000D01*
X32000500Y-136500000D01*
X32000500Y-126354023D01*
X33490900Y-126354023D01*
X33490901Y-128175976D01*
X33491270Y-128179370D01*
X33491270Y-128179376D01*
X33495712Y-128220265D01*
X33497549Y-128237180D01*
X33547874Y-128371424D01*
X33553254Y-128378603D01*
X33553256Y-128378606D01*
X33628472Y-128478965D01*
X33633854Y-128486146D01*
X33641035Y-128491528D01*
X33741394Y-128566744D01*
X33741397Y-128566746D01*
X33748576Y-128572126D01*
X33833238Y-128603864D01*
X33875425Y-128619679D01*
X33875427Y-128619679D01*
X33882820Y-128622451D01*
X33890670Y-128623304D01*
X33890671Y-128623304D01*
X33940617Y-128628730D01*
X33944023Y-128629100D01*
X34854866Y-128629100D01*
X35765976Y-128629099D01*
X35769370Y-128628730D01*
X35769376Y-128628730D01*
X35819322Y-128623305D01*
X35819326Y-128623304D01*
X35827180Y-128622451D01*
X35961424Y-128572126D01*
X35968603Y-128566746D01*
X35968606Y-128566744D01*
X36068965Y-128491528D01*
X36076146Y-128486146D01*
X36081528Y-128478965D01*
X36156744Y-128378606D01*
X36156746Y-128378603D01*
X36162126Y-128371424D01*
X36204446Y-128258532D01*
X36247087Y-128201768D01*
X36313648Y-128177068D01*
X36382997Y-128192275D01*
X36417666Y-128220265D01*
X36437318Y-128242952D01*
X36609903Y-128386235D01*
X36803572Y-128499406D01*
X37013124Y-128579426D01*
X37018190Y-128580457D01*
X37018191Y-128580457D01*
X37115856Y-128600327D01*
X37232932Y-128624146D01*
X37357938Y-128628730D01*
X37451928Y-128632177D01*
X37451932Y-128632177D01*
X37457092Y-128632366D01*
X37462212Y-128631710D01*
X37462214Y-128631710D01*
X37556129Y-128619679D01*
X37679584Y-128603864D01*
X37684532Y-128602379D01*
X37684539Y-128602378D01*
X37889484Y-128540891D01*
X37889483Y-128540891D01*
X37894434Y-128539406D01*
X38095871Y-128440723D01*
X38168602Y-128388845D01*
X38274283Y-128313463D01*
X38278486Y-128310465D01*
X38437375Y-128152130D01*
X38568269Y-127969971D01*
X38667655Y-127768880D01*
X38732862Y-127554256D01*
X38762141Y-127331864D01*
X38763775Y-127265000D01*
X38757693Y-127191030D01*
X38745819Y-127046595D01*
X38745818Y-127046589D01*
X38745395Y-127041444D01*
X38690750Y-126823891D01*
X38601306Y-126618184D01*
X38568858Y-126568027D01*
X38482277Y-126434193D01*
X38482272Y-126434187D01*
X38479466Y-126429849D01*
X38410470Y-126354023D01*
X43135900Y-126354023D01*
X43135901Y-128175976D01*
X43136270Y-128179370D01*
X43136270Y-128179376D01*
X43140712Y-128220265D01*
X43142549Y-128237180D01*
X43192874Y-128371424D01*
X43198254Y-128378603D01*
X43198256Y-128378606D01*
X43273472Y-128478965D01*
X43278854Y-128486146D01*
X43286035Y-128491528D01*
X43386394Y-128566744D01*
X43386397Y-128566746D01*
X43393576Y-128572126D01*
X43478238Y-128603864D01*
X43520425Y-128619679D01*
X43520427Y-128619679D01*
X43527820Y-128622451D01*
X43535670Y-128623304D01*
X43535671Y-128623304D01*
X43585617Y-128628730D01*
X43589023Y-128629100D01*
X44499866Y-128629100D01*
X45410976Y-128629099D01*
X45414370Y-128628730D01*
X45414376Y-128628730D01*
X45464322Y-128623305D01*
X45464326Y-128623304D01*
X45472180Y-128622451D01*
X45606424Y-128572126D01*
X45613603Y-128566746D01*
X45613606Y-128566744D01*
X45713965Y-128491528D01*
X45721146Y-128486146D01*
X45726528Y-128478965D01*
X45801744Y-128378606D01*
X45801746Y-128378603D01*
X45807126Y-128371424D01*
X45849446Y-128258532D01*
X45892087Y-128201768D01*
X45958648Y-128177068D01*
X46027997Y-128192275D01*
X46062666Y-128220265D01*
X46082318Y-128242952D01*
X46254903Y-128386235D01*
X46448572Y-128499406D01*
X46658124Y-128579426D01*
X46663190Y-128580457D01*
X46663191Y-128580457D01*
X46760856Y-128600327D01*
X46877932Y-128624146D01*
X47002938Y-128628730D01*
X47096928Y-128632177D01*
X47096932Y-128632177D01*
X47102092Y-128632366D01*
X47107212Y-128631710D01*
X47107214Y-128631710D01*
X47201129Y-128619679D01*
X47324584Y-128603864D01*
X47329532Y-128602379D01*
X47329539Y-128602378D01*
X47534484Y-128540891D01*
X47534483Y-128540891D01*
X47539434Y-128539406D01*
X47740871Y-128440723D01*
X47813602Y-128388845D01*
X47919283Y-128313463D01*
X47923486Y-128310465D01*
X48082375Y-128152130D01*
X48213269Y-127969971D01*
X48312655Y-127768880D01*
X48377862Y-127554256D01*
X48407141Y-127331864D01*
X48408775Y-127265000D01*
X48402693Y-127191030D01*
X48390819Y-127046595D01*
X48390818Y-127046589D01*
X48390395Y-127041444D01*
X48335750Y-126823891D01*
X48246306Y-126618184D01*
X48213858Y-126568027D01*
X48127277Y-126434193D01*
X48127272Y-126434187D01*
X48124466Y-126429849D01*
X47973502Y-126263941D01*
X47969451Y-126260742D01*
X47969447Y-126260738D01*
X47801524Y-126128120D01*
X47801520Y-126128118D01*
X47797469Y-126124918D01*
X47763061Y-126105924D01*
X47713090Y-126055491D01*
X47698318Y-125986049D01*
X47723434Y-125919643D01*
X47750785Y-125893037D01*
X47918950Y-125773086D01*
X47926825Y-125766430D01*
X48078332Y-125615452D01*
X48085010Y-125607605D01*
X48209821Y-125433914D01*
X48215130Y-125425077D01*
X48309894Y-125233336D01*
X48313693Y-125223741D01*
X48375868Y-125019102D01*
X48378047Y-125009021D01*
X48380161Y-124992961D01*
X48377950Y-124978779D01*
X48364792Y-124975000D01*
X43176583Y-124975000D01*
X43163052Y-124978973D01*
X43161615Y-124988966D01*
X43193203Y-125129126D01*
X43196283Y-125138955D01*
X43276755Y-125337137D01*
X43281398Y-125346328D01*
X43393160Y-125528707D01*
X43399243Y-125537018D01*
X43539275Y-125698674D01*
X43548906Y-125708106D01*
X43583581Y-125770059D01*
X43579258Y-125840924D01*
X43537309Y-125898202D01*
X43504977Y-125916112D01*
X43463307Y-125931733D01*
X43393576Y-125957874D01*
X43386397Y-125963254D01*
X43386394Y-125963256D01*
X43286035Y-126038472D01*
X43278854Y-126043854D01*
X43273472Y-126051035D01*
X43198256Y-126151394D01*
X43198254Y-126151397D01*
X43192874Y-126158576D01*
X43142549Y-126292820D01*
X43135900Y-126354023D01*
X38410470Y-126354023D01*
X38328502Y-126263941D01*
X38324451Y-126260742D01*
X38324447Y-126260738D01*
X38156524Y-126128120D01*
X38156520Y-126128118D01*
X38152469Y-126124918D01*
X38118061Y-126105924D01*
X38068090Y-126055491D01*
X38053318Y-125986049D01*
X38078434Y-125919643D01*
X38105785Y-125893037D01*
X38273950Y-125773086D01*
X38281825Y-125766430D01*
X38433332Y-125615452D01*
X38440010Y-125607605D01*
X38564821Y-125433914D01*
X38570130Y-125425077D01*
X38664894Y-125233336D01*
X38668693Y-125223741D01*
X38730868Y-125019102D01*
X38733047Y-125009021D01*
X38735161Y-124992961D01*
X38732950Y-124978779D01*
X38719792Y-124975000D01*
X33531583Y-124975000D01*
X33518052Y-124978973D01*
X33516615Y-124988966D01*
X33548203Y-125129126D01*
X33551283Y-125138955D01*
X33631755Y-125337137D01*
X33636398Y-125346328D01*
X33748160Y-125528707D01*
X33754243Y-125537018D01*
X33894275Y-125698674D01*
X33903906Y-125708106D01*
X33938581Y-125770059D01*
X33934258Y-125840924D01*
X33892309Y-125898202D01*
X33859977Y-125916112D01*
X33818307Y-125931733D01*
X33748576Y-125957874D01*
X33741397Y-125963254D01*
X33741394Y-125963256D01*
X33641035Y-126038472D01*
X33633854Y-126043854D01*
X33628472Y-126051035D01*
X33553256Y-126151394D01*
X33553254Y-126151397D01*
X33547874Y-126158576D01*
X33497549Y-126292820D01*
X33490900Y-126354023D01*
X32000500Y-126354023D01*
X32000500Y-124461309D01*
X33512988Y-124461309D01*
X33514853Y-124471608D01*
X33527230Y-124475000D01*
X34586885Y-124475000D01*
X34602124Y-124470525D01*
X34603329Y-124469135D01*
X34605000Y-124461452D01*
X34605000Y-124456885D01*
X35105000Y-124456885D01*
X35109475Y-124472124D01*
X35110865Y-124473329D01*
X35118548Y-124475000D01*
X37126885Y-124475000D01*
X37142124Y-124470525D01*
X37143329Y-124469135D01*
X37145000Y-124461452D01*
X37145000Y-124456885D01*
X37645000Y-124456885D01*
X37649475Y-124472124D01*
X37650865Y-124473329D01*
X37658548Y-124475000D01*
X38720122Y-124475000D01*
X38733653Y-124471027D01*
X38734958Y-124461947D01*
X38734798Y-124461309D01*
X43157988Y-124461309D01*
X43159853Y-124471608D01*
X43172230Y-124475000D01*
X44231885Y-124475000D01*
X44247124Y-124470525D01*
X44248329Y-124469135D01*
X44250000Y-124461452D01*
X44250000Y-124456885D01*
X44750000Y-124456885D01*
X44754475Y-124472124D01*
X44755865Y-124473329D01*
X44763548Y-124475000D01*
X46771885Y-124475000D01*
X46787124Y-124470525D01*
X46788329Y-124469135D01*
X46790000Y-124461452D01*
X46790000Y-124456885D01*
X47290000Y-124456885D01*
X47294475Y-124472124D01*
X47295865Y-124473329D01*
X47303548Y-124475000D01*
X48365122Y-124475000D01*
X48378653Y-124471027D01*
X48379958Y-124461947D01*
X48336534Y-124289064D01*
X48333216Y-124279317D01*
X48247924Y-124083159D01*
X48243057Y-124074084D01*
X48126877Y-123894495D01*
X48120593Y-123886335D01*
X47976635Y-123728127D01*
X47969105Y-123721106D01*
X47801246Y-123588538D01*
X47792663Y-123582836D01*
X47762609Y-123566245D01*
X47712638Y-123515812D01*
X47697867Y-123446369D01*
X47722984Y-123379964D01*
X47750334Y-123353359D01*
X47918950Y-123233086D01*
X47926825Y-123226430D01*
X48078332Y-123075452D01*
X48085010Y-123067605D01*
X48209821Y-122893914D01*
X48215130Y-122885077D01*
X48309894Y-122693336D01*
X48313693Y-122683741D01*
X48375868Y-122479102D01*
X48378047Y-122469021D01*
X48380161Y-122452961D01*
X48377950Y-122438779D01*
X48364792Y-122435000D01*
X47308115Y-122435000D01*
X47292876Y-122439475D01*
X47291671Y-122440865D01*
X47290000Y-122448548D01*
X47290000Y-124456885D01*
X46790000Y-124456885D01*
X46790000Y-122453115D01*
X46785525Y-122437876D01*
X46784135Y-122436671D01*
X46776452Y-122435000D01*
X44768115Y-122435000D01*
X44752876Y-122439475D01*
X44751671Y-122440865D01*
X44750000Y-122448548D01*
X44750000Y-124456885D01*
X44250000Y-124456885D01*
X44250000Y-122453115D01*
X44245525Y-122437876D01*
X44244135Y-122436671D01*
X44236452Y-122435000D01*
X43176583Y-122435000D01*
X43163052Y-122438973D01*
X43161615Y-122448966D01*
X43193203Y-122589126D01*
X43196283Y-122598955D01*
X43276755Y-122797137D01*
X43281398Y-122806328D01*
X43393160Y-122988707D01*
X43399243Y-122997018D01*
X43539282Y-123158682D01*
X43546649Y-123165898D01*
X43711211Y-123302519D01*
X43719658Y-123308434D01*
X43780895Y-123344218D01*
X43829619Y-123395856D01*
X43842690Y-123465639D01*
X43815959Y-123531411D01*
X43779494Y-123561483D01*
X43779841Y-123562035D01*
X43775542Y-123564742D01*
X43775513Y-123564766D01*
X43775462Y-123564793D01*
X43766744Y-123570282D01*
X43595703Y-123698703D01*
X43587996Y-123705546D01*
X43440223Y-123860181D01*
X43433740Y-123868187D01*
X43313204Y-124044888D01*
X43308118Y-124053840D01*
X43218062Y-124247847D01*
X43214503Y-124257522D01*
X43157988Y-124461309D01*
X38734798Y-124461309D01*
X38691534Y-124289064D01*
X38688216Y-124279317D01*
X38602924Y-124083159D01*
X38598057Y-124074084D01*
X38481877Y-123894495D01*
X38475593Y-123886335D01*
X38331635Y-123728127D01*
X38324105Y-123721106D01*
X38156246Y-123588538D01*
X38147663Y-123582836D01*
X38117609Y-123566245D01*
X38067638Y-123515812D01*
X38052867Y-123446369D01*
X38077984Y-123379964D01*
X38105334Y-123353359D01*
X38273950Y-123233086D01*
X38281825Y-123226430D01*
X38433332Y-123075452D01*
X38440010Y-123067605D01*
X38564821Y-122893914D01*
X38570130Y-122885077D01*
X38664894Y-122693336D01*
X38668693Y-122683741D01*
X38730868Y-122479102D01*
X38733047Y-122469021D01*
X38735161Y-122452961D01*
X38732950Y-122438779D01*
X38719792Y-122435000D01*
X37663115Y-122435000D01*
X37647876Y-122439475D01*
X37646671Y-122440865D01*
X37645000Y-122448548D01*
X37645000Y-124456885D01*
X37145000Y-124456885D01*
X37145000Y-122453115D01*
X37140525Y-122437876D01*
X37139135Y-122436671D01*
X37131452Y-122435000D01*
X35123115Y-122435000D01*
X35107876Y-122439475D01*
X35106671Y-122440865D01*
X35105000Y-122448548D01*
X35105000Y-124456885D01*
X34605000Y-124456885D01*
X34605000Y-122453115D01*
X34600525Y-122437876D01*
X34599135Y-122436671D01*
X34591452Y-122435000D01*
X33531583Y-122435000D01*
X33518052Y-122438973D01*
X33516615Y-122448966D01*
X33548203Y-122589126D01*
X33551283Y-122598955D01*
X33631755Y-122797137D01*
X33636398Y-122806328D01*
X33748160Y-122988707D01*
X33754243Y-122997018D01*
X33894282Y-123158682D01*
X33901649Y-123165898D01*
X34066211Y-123302519D01*
X34074658Y-123308434D01*
X34135895Y-123344218D01*
X34184619Y-123395856D01*
X34197690Y-123465639D01*
X34170959Y-123531411D01*
X34134494Y-123561483D01*
X34134841Y-123562035D01*
X34130542Y-123564742D01*
X34130513Y-123564766D01*
X34130462Y-123564793D01*
X34121744Y-123570282D01*
X33950703Y-123698703D01*
X33942996Y-123705546D01*
X33795223Y-123860181D01*
X33788740Y-123868187D01*
X33668204Y-124044888D01*
X33663118Y-124053840D01*
X33573062Y-124247847D01*
X33569503Y-124257522D01*
X33512988Y-124461309D01*
X32000500Y-124461309D01*
X32000500Y-121921309D01*
X33512988Y-121921309D01*
X33514853Y-121931608D01*
X33527230Y-121935000D01*
X34586885Y-121935000D01*
X34602124Y-121930525D01*
X34603329Y-121929135D01*
X34605000Y-121921452D01*
X34605000Y-121916885D01*
X35105000Y-121916885D01*
X35109475Y-121932124D01*
X35110865Y-121933329D01*
X35118548Y-121935000D01*
X37126885Y-121935000D01*
X37142124Y-121930525D01*
X37143329Y-121929135D01*
X37145000Y-121921452D01*
X37145000Y-121916885D01*
X37645000Y-121916885D01*
X37649475Y-121932124D01*
X37650865Y-121933329D01*
X37658548Y-121935000D01*
X38720122Y-121935000D01*
X38733653Y-121931027D01*
X38734958Y-121921947D01*
X38734798Y-121921309D01*
X43157988Y-121921309D01*
X43159853Y-121931608D01*
X43172230Y-121935000D01*
X44231885Y-121935000D01*
X44247124Y-121930525D01*
X44248329Y-121929135D01*
X44250000Y-121921452D01*
X44250000Y-121916885D01*
X44750000Y-121916885D01*
X44754475Y-121932124D01*
X44755865Y-121933329D01*
X44763548Y-121935000D01*
X46771885Y-121935000D01*
X46787124Y-121930525D01*
X46788329Y-121929135D01*
X46790000Y-121921452D01*
X46790000Y-121916885D01*
X47290000Y-121916885D01*
X47294475Y-121932124D01*
X47295865Y-121933329D01*
X47303548Y-121935000D01*
X48365122Y-121935000D01*
X48378653Y-121931027D01*
X48379958Y-121921947D01*
X48336534Y-121749064D01*
X48333216Y-121739317D01*
X48247924Y-121543159D01*
X48243057Y-121534084D01*
X48126877Y-121354495D01*
X48120593Y-121346335D01*
X47976635Y-121188127D01*
X47969105Y-121181106D01*
X47801246Y-121048538D01*
X47792663Y-121042836D01*
X47762609Y-121026245D01*
X47712638Y-120975812D01*
X47697867Y-120906369D01*
X47722984Y-120839964D01*
X47750334Y-120813359D01*
X47918950Y-120693086D01*
X47926825Y-120686430D01*
X48078332Y-120535452D01*
X48085010Y-120527605D01*
X48209821Y-120353914D01*
X48215130Y-120345077D01*
X48309894Y-120153336D01*
X48313693Y-120143741D01*
X48375868Y-119939102D01*
X48378047Y-119929021D01*
X48380161Y-119912961D01*
X48377950Y-119898779D01*
X48364792Y-119895000D01*
X47308115Y-119895000D01*
X47292876Y-119899475D01*
X47291671Y-119900865D01*
X47290000Y-119908548D01*
X47290000Y-121916885D01*
X46790000Y-121916885D01*
X46790000Y-119913115D01*
X46785525Y-119897876D01*
X46784135Y-119896671D01*
X46776452Y-119895000D01*
X44768115Y-119895000D01*
X44752876Y-119899475D01*
X44751671Y-119900865D01*
X44750000Y-119908548D01*
X44750000Y-121916885D01*
X44250000Y-121916885D01*
X44250000Y-119913115D01*
X44245525Y-119897876D01*
X44244135Y-119896671D01*
X44236452Y-119895000D01*
X43176583Y-119895000D01*
X43163052Y-119898973D01*
X43161615Y-119908966D01*
X43193203Y-120049126D01*
X43196283Y-120058955D01*
X43276755Y-120257137D01*
X43281398Y-120266328D01*
X43393160Y-120448707D01*
X43399243Y-120457018D01*
X43539282Y-120618682D01*
X43546649Y-120625898D01*
X43711211Y-120762519D01*
X43719658Y-120768434D01*
X43780895Y-120804218D01*
X43829619Y-120855856D01*
X43842690Y-120925639D01*
X43815959Y-120991411D01*
X43779494Y-121021483D01*
X43779841Y-121022035D01*
X43775542Y-121024742D01*
X43775513Y-121024766D01*
X43775462Y-121024793D01*
X43766744Y-121030282D01*
X43595703Y-121158703D01*
X43587996Y-121165546D01*
X43440223Y-121320181D01*
X43433740Y-121328187D01*
X43313204Y-121504888D01*
X43308118Y-121513840D01*
X43218062Y-121707847D01*
X43214503Y-121717522D01*
X43157988Y-121921309D01*
X38734798Y-121921309D01*
X38691534Y-121749064D01*
X38688216Y-121739317D01*
X38602924Y-121543159D01*
X38598057Y-121534084D01*
X38481877Y-121354495D01*
X38475593Y-121346335D01*
X38331635Y-121188127D01*
X38324105Y-121181106D01*
X38156246Y-121048538D01*
X38147663Y-121042836D01*
X38117609Y-121026245D01*
X38067638Y-120975812D01*
X38052867Y-120906369D01*
X38077984Y-120839964D01*
X38105334Y-120813359D01*
X38273950Y-120693086D01*
X38281825Y-120686430D01*
X38433332Y-120535452D01*
X38440010Y-120527605D01*
X38564821Y-120353914D01*
X38570130Y-120345077D01*
X38664894Y-120153336D01*
X38668693Y-120143741D01*
X38730868Y-119939102D01*
X38733047Y-119929021D01*
X38735161Y-119912961D01*
X38732950Y-119898779D01*
X38719792Y-119895000D01*
X37663115Y-119895000D01*
X37647876Y-119899475D01*
X37646671Y-119900865D01*
X37645000Y-119908548D01*
X37645000Y-121916885D01*
X37145000Y-121916885D01*
X37145000Y-119913115D01*
X37140525Y-119897876D01*
X37139135Y-119896671D01*
X37131452Y-119895000D01*
X35123115Y-119895000D01*
X35107876Y-119899475D01*
X35106671Y-119900865D01*
X35105000Y-119908548D01*
X35105000Y-121916885D01*
X34605000Y-121916885D01*
X34605000Y-119913115D01*
X34600525Y-119897876D01*
X34599135Y-119896671D01*
X34591452Y-119895000D01*
X33531583Y-119895000D01*
X33518052Y-119898973D01*
X33516615Y-119908966D01*
X33548203Y-120049126D01*
X33551283Y-120058955D01*
X33631755Y-120257137D01*
X33636398Y-120266328D01*
X33748160Y-120448707D01*
X33754243Y-120457018D01*
X33894282Y-120618682D01*
X33901649Y-120625898D01*
X34066211Y-120762519D01*
X34074658Y-120768434D01*
X34135895Y-120804218D01*
X34184619Y-120855856D01*
X34197690Y-120925639D01*
X34170959Y-120991411D01*
X34134494Y-121021483D01*
X34134841Y-121022035D01*
X34130542Y-121024742D01*
X34130513Y-121024766D01*
X34130462Y-121024793D01*
X34121744Y-121030282D01*
X33950703Y-121158703D01*
X33942996Y-121165546D01*
X33795223Y-121320181D01*
X33788740Y-121328187D01*
X33668204Y-121504888D01*
X33663118Y-121513840D01*
X33573062Y-121707847D01*
X33569503Y-121717522D01*
X33512988Y-121921309D01*
X32000500Y-121921309D01*
X32000500Y-117071558D01*
X33486634Y-117071558D01*
X33499546Y-117295497D01*
X33500683Y-117300543D01*
X33500684Y-117300549D01*
X33520647Y-117389129D01*
X33548860Y-117514320D01*
X33550802Y-117519102D01*
X33550803Y-117519106D01*
X33631307Y-117717363D01*
X33633251Y-117722150D01*
X33750453Y-117913406D01*
X33897318Y-118082952D01*
X34069903Y-118226235D01*
X34135372Y-118264492D01*
X34184095Y-118316129D01*
X34197166Y-118385912D01*
X34170435Y-118451684D01*
X34134427Y-118481378D01*
X34134841Y-118482035D01*
X34121744Y-118490282D01*
X33950703Y-118618703D01*
X33942996Y-118625546D01*
X33795223Y-118780181D01*
X33788740Y-118788187D01*
X33668204Y-118964888D01*
X33663118Y-118973840D01*
X33573062Y-119167847D01*
X33569503Y-119177522D01*
X33512988Y-119381309D01*
X33514853Y-119391608D01*
X33527230Y-119395000D01*
X38720122Y-119395000D01*
X38733653Y-119391027D01*
X38734958Y-119381947D01*
X38691534Y-119209064D01*
X38688216Y-119199317D01*
X38602924Y-119003159D01*
X38598057Y-118994084D01*
X38481877Y-118814495D01*
X38475593Y-118806335D01*
X38331635Y-118648127D01*
X38324105Y-118641106D01*
X38156246Y-118508538D01*
X38147663Y-118502836D01*
X38118097Y-118486515D01*
X38068125Y-118436083D01*
X38053353Y-118366640D01*
X38078469Y-118300235D01*
X38105820Y-118273628D01*
X38274275Y-118153470D01*
X38274285Y-118153462D01*
X38278486Y-118150465D01*
X38437375Y-117992130D01*
X38568269Y-117809971D01*
X38587524Y-117771013D01*
X38665361Y-117613522D01*
X38665362Y-117613520D01*
X38667655Y-117608880D01*
X38732862Y-117394256D01*
X38762141Y-117171864D01*
X38763775Y-117105000D01*
X38761025Y-117071558D01*
X43131634Y-117071558D01*
X43144546Y-117295497D01*
X43145683Y-117300543D01*
X43145684Y-117300549D01*
X43165647Y-117389129D01*
X43193860Y-117514320D01*
X43195802Y-117519102D01*
X43195803Y-117519106D01*
X43276307Y-117717363D01*
X43278251Y-117722150D01*
X43395453Y-117913406D01*
X43542318Y-118082952D01*
X43714903Y-118226235D01*
X43780372Y-118264492D01*
X43829095Y-118316129D01*
X43842166Y-118385912D01*
X43815435Y-118451684D01*
X43779427Y-118481378D01*
X43779841Y-118482035D01*
X43766744Y-118490282D01*
X43595703Y-118618703D01*
X43587996Y-118625546D01*
X43440223Y-118780181D01*
X43433740Y-118788187D01*
X43313204Y-118964888D01*
X43308118Y-118973840D01*
X43218062Y-119167847D01*
X43214503Y-119177522D01*
X43157988Y-119381309D01*
X43159853Y-119391608D01*
X43172230Y-119395000D01*
X48365122Y-119395000D01*
X48378653Y-119391027D01*
X48379958Y-119381947D01*
X48336534Y-119209064D01*
X48333216Y-119199317D01*
X48247924Y-119003159D01*
X48243057Y-118994084D01*
X48126877Y-118814495D01*
X48120593Y-118806335D01*
X47976635Y-118648127D01*
X47969105Y-118641106D01*
X47801246Y-118508538D01*
X47792663Y-118502836D01*
X47763097Y-118486515D01*
X47713125Y-118436083D01*
X47698353Y-118366640D01*
X47723469Y-118300235D01*
X47750820Y-118273628D01*
X47919275Y-118153470D01*
X47919285Y-118153462D01*
X47923486Y-118150465D01*
X48082375Y-117992130D01*
X48213269Y-117809971D01*
X48232524Y-117771013D01*
X48310361Y-117613522D01*
X48310362Y-117613520D01*
X48312655Y-117608880D01*
X48377862Y-117394256D01*
X48407141Y-117171864D01*
X48408775Y-117105000D01*
X48402693Y-117031030D01*
X48390819Y-116886595D01*
X48390818Y-116886589D01*
X48390395Y-116881444D01*
X48335750Y-116663891D01*
X48333691Y-116659155D01*
X48248366Y-116462921D01*
X48248364Y-116462918D01*
X48246306Y-116458184D01*
X48234220Y-116439502D01*
X48127277Y-116274193D01*
X48127272Y-116274187D01*
X48124466Y-116269849D01*
X47973502Y-116103941D01*
X47969451Y-116100742D01*
X47969447Y-116100738D01*
X47801524Y-115968120D01*
X47801520Y-115968118D01*
X47797469Y-115964918D01*
X47792945Y-115962421D01*
X47792941Y-115962418D01*
X47763546Y-115946191D01*
X47713576Y-115895759D01*
X47698804Y-115826316D01*
X47723920Y-115759911D01*
X47751272Y-115733304D01*
X47919278Y-115613467D01*
X47919282Y-115613464D01*
X47923486Y-115610465D01*
X48082375Y-115452130D01*
X48213269Y-115269971D01*
X48232524Y-115231013D01*
X48310361Y-115073522D01*
X48310362Y-115073520D01*
X48312655Y-115068880D01*
X48377862Y-114854256D01*
X48407141Y-114631864D01*
X48408775Y-114565000D01*
X48402693Y-114491030D01*
X48390819Y-114346595D01*
X48390818Y-114346589D01*
X48390395Y-114341444D01*
X48335750Y-114123891D01*
X48333691Y-114119155D01*
X48248366Y-113922921D01*
X48248364Y-113922918D01*
X48246306Y-113918184D01*
X48234220Y-113899502D01*
X48127277Y-113734193D01*
X48127272Y-113734187D01*
X48124466Y-113729849D01*
X47973502Y-113563941D01*
X47969451Y-113560742D01*
X47969447Y-113560738D01*
X47801524Y-113428120D01*
X47801520Y-113428118D01*
X47797469Y-113424918D01*
X47792945Y-113422421D01*
X47792941Y-113422418D01*
X47763546Y-113406191D01*
X47713576Y-113355759D01*
X47698804Y-113286316D01*
X47723920Y-113219911D01*
X47751272Y-113193304D01*
X47919278Y-113073467D01*
X47919282Y-113073464D01*
X47923486Y-113070465D01*
X48082375Y-112912130D01*
X48213269Y-112729971D01*
X48232524Y-112691013D01*
X48310361Y-112533522D01*
X48310362Y-112533520D01*
X48312655Y-112528880D01*
X48377862Y-112314256D01*
X48407141Y-112091864D01*
X48408775Y-112025000D01*
X48402693Y-111951030D01*
X48390819Y-111806595D01*
X48390818Y-111806589D01*
X48390395Y-111801444D01*
X48335750Y-111583891D01*
X48333691Y-111579155D01*
X48248366Y-111382921D01*
X48248364Y-111382918D01*
X48246306Y-111378184D01*
X48234220Y-111359502D01*
X48127277Y-111194193D01*
X48127272Y-111194187D01*
X48124466Y-111189849D01*
X47973502Y-111023941D01*
X47969451Y-111020742D01*
X47969447Y-111020738D01*
X47801524Y-110888120D01*
X47801520Y-110888118D01*
X47797469Y-110884918D01*
X47792945Y-110882421D01*
X47792941Y-110882418D01*
X47763546Y-110866191D01*
X47713576Y-110815759D01*
X47698804Y-110746316D01*
X47723920Y-110679911D01*
X47751272Y-110653304D01*
X47919278Y-110533467D01*
X47919282Y-110533464D01*
X47923486Y-110530465D01*
X48082375Y-110372130D01*
X48213269Y-110189971D01*
X48232524Y-110151013D01*
X48310361Y-109993522D01*
X48310362Y-109993520D01*
X48312655Y-109988880D01*
X48377862Y-109774256D01*
X48407141Y-109551864D01*
X48408775Y-109485000D01*
X48402693Y-109411030D01*
X48390819Y-109266595D01*
X48390818Y-109266589D01*
X48390395Y-109261444D01*
X48335750Y-109043891D01*
X48333691Y-109039155D01*
X48248366Y-108842921D01*
X48248364Y-108842918D01*
X48246306Y-108838184D01*
X48234220Y-108819502D01*
X48127277Y-108654193D01*
X48127272Y-108654187D01*
X48124466Y-108649849D01*
X47973502Y-108483941D01*
X47969451Y-108480742D01*
X47969447Y-108480738D01*
X47801524Y-108348120D01*
X47801520Y-108348118D01*
X47797469Y-108344918D01*
X47760234Y-108324363D01*
X47605619Y-108239012D01*
X47601092Y-108236513D01*
X47596223Y-108234789D01*
X47596219Y-108234787D01*
X47394523Y-108163362D01*
X47394519Y-108163361D01*
X47389648Y-108161636D01*
X47384558Y-108160729D01*
X47384553Y-108160728D01*
X47264964Y-108139427D01*
X47168813Y-108122300D01*
X47083968Y-108121263D01*
X46949689Y-108119622D01*
X46949687Y-108119622D01*
X46944519Y-108119559D01*
X46722789Y-108153489D01*
X46509578Y-108223177D01*
X46504990Y-108225565D01*
X46504986Y-108225567D01*
X46315201Y-108324363D01*
X46310612Y-108326752D01*
X46306479Y-108329855D01*
X46306476Y-108329857D01*
X46135369Y-108458328D01*
X46131234Y-108461433D01*
X45976262Y-108623602D01*
X45973348Y-108627874D01*
X45973347Y-108627875D01*
X45873327Y-108774499D01*
X45818416Y-108819502D01*
X45747891Y-108827673D01*
X45684144Y-108796419D01*
X45663447Y-108771935D01*
X45587276Y-108654193D01*
X45584466Y-108649849D01*
X45433502Y-108483941D01*
X45429451Y-108480742D01*
X45429447Y-108480738D01*
X45261524Y-108348120D01*
X45261520Y-108348118D01*
X45257469Y-108344918D01*
X45220234Y-108324363D01*
X45065619Y-108239012D01*
X45061092Y-108236513D01*
X45056223Y-108234789D01*
X45056219Y-108234787D01*
X44854523Y-108163362D01*
X44854519Y-108163361D01*
X44849648Y-108161636D01*
X44844558Y-108160729D01*
X44844553Y-108160728D01*
X44724964Y-108139427D01*
X44628813Y-108122300D01*
X44543968Y-108121263D01*
X44409689Y-108119622D01*
X44409687Y-108119622D01*
X44404519Y-108119559D01*
X44182789Y-108153489D01*
X43969578Y-108223177D01*
X43964990Y-108225565D01*
X43964986Y-108225567D01*
X43775201Y-108324363D01*
X43770612Y-108326752D01*
X43766479Y-108329855D01*
X43766476Y-108329857D01*
X43595369Y-108458328D01*
X43591234Y-108461433D01*
X43436262Y-108623602D01*
X43433348Y-108627874D01*
X43433347Y-108627875D01*
X43415394Y-108654193D01*
X43309857Y-108808905D01*
X43215414Y-109012364D01*
X43155470Y-109228517D01*
X43131634Y-109451558D01*
X43144546Y-109675497D01*
X43145683Y-109680543D01*
X43145684Y-109680549D01*
X43165647Y-109769129D01*
X43193860Y-109894320D01*
X43195802Y-109899102D01*
X43195803Y-109899106D01*
X43276307Y-110097363D01*
X43278251Y-110102150D01*
X43395453Y-110293406D01*
X43542318Y-110462952D01*
X43714903Y-110606235D01*
X43779862Y-110644194D01*
X43828584Y-110695832D01*
X43841655Y-110765615D01*
X43814923Y-110831387D01*
X43779127Y-110860902D01*
X43779573Y-110861610D01*
X43775200Y-110864364D01*
X43770612Y-110866752D01*
X43766479Y-110869855D01*
X43766476Y-110869857D01*
X43595369Y-110998328D01*
X43591234Y-111001433D01*
X43436262Y-111163602D01*
X43433348Y-111167874D01*
X43433347Y-111167875D01*
X43415394Y-111194193D01*
X43309857Y-111348905D01*
X43215414Y-111552364D01*
X43155470Y-111768517D01*
X43131634Y-111991558D01*
X43144546Y-112215497D01*
X43145683Y-112220543D01*
X43145684Y-112220549D01*
X43165647Y-112309129D01*
X43193860Y-112434320D01*
X43195802Y-112439102D01*
X43195803Y-112439106D01*
X43276307Y-112637363D01*
X43278251Y-112642150D01*
X43395453Y-112833406D01*
X43542318Y-113002952D01*
X43714903Y-113146235D01*
X43779862Y-113184194D01*
X43828584Y-113235832D01*
X43841655Y-113305615D01*
X43814923Y-113371387D01*
X43779127Y-113400902D01*
X43779573Y-113401610D01*
X43775200Y-113404364D01*
X43770612Y-113406752D01*
X43766479Y-113409855D01*
X43766476Y-113409857D01*
X43595369Y-113538328D01*
X43591234Y-113541433D01*
X43436262Y-113703602D01*
X43433348Y-113707874D01*
X43433347Y-113707875D01*
X43415394Y-113734193D01*
X43309857Y-113888905D01*
X43215414Y-114092364D01*
X43155470Y-114308517D01*
X43131634Y-114531558D01*
X43144546Y-114755497D01*
X43145683Y-114760543D01*
X43145684Y-114760549D01*
X43165647Y-114849129D01*
X43193860Y-114974320D01*
X43195802Y-114979102D01*
X43195803Y-114979106D01*
X43276307Y-115177363D01*
X43278251Y-115182150D01*
X43395453Y-115373406D01*
X43542318Y-115542952D01*
X43714903Y-115686235D01*
X43779862Y-115724194D01*
X43828584Y-115775832D01*
X43841655Y-115845615D01*
X43814923Y-115911387D01*
X43779127Y-115940902D01*
X43779573Y-115941610D01*
X43775200Y-115944364D01*
X43770612Y-115946752D01*
X43766479Y-115949855D01*
X43766476Y-115949857D01*
X43595369Y-116078328D01*
X43591234Y-116081433D01*
X43436262Y-116243602D01*
X43433348Y-116247874D01*
X43433347Y-116247875D01*
X43415394Y-116274193D01*
X43309857Y-116428905D01*
X43215414Y-116632364D01*
X43155470Y-116848517D01*
X43131634Y-117071558D01*
X38761025Y-117071558D01*
X38757693Y-117031030D01*
X38745819Y-116886595D01*
X38745818Y-116886589D01*
X38745395Y-116881444D01*
X38690750Y-116663891D01*
X38688691Y-116659155D01*
X38603366Y-116462921D01*
X38603364Y-116462918D01*
X38601306Y-116458184D01*
X38589220Y-116439502D01*
X38482277Y-116274193D01*
X38482272Y-116274187D01*
X38479466Y-116269849D01*
X38328502Y-116103941D01*
X38324451Y-116100742D01*
X38324447Y-116100738D01*
X38156524Y-115968120D01*
X38156520Y-115968118D01*
X38152469Y-115964918D01*
X38147945Y-115962421D01*
X38147941Y-115962418D01*
X38118546Y-115946191D01*
X38068576Y-115895759D01*
X38053804Y-115826316D01*
X38078920Y-115759911D01*
X38106272Y-115733304D01*
X38274278Y-115613467D01*
X38274282Y-115613464D01*
X38278486Y-115610465D01*
X38437375Y-115452130D01*
X38568269Y-115269971D01*
X38587524Y-115231013D01*
X38665361Y-115073522D01*
X38665362Y-115073520D01*
X38667655Y-115068880D01*
X38732862Y-114854256D01*
X38762141Y-114631864D01*
X38763775Y-114565000D01*
X38757693Y-114491030D01*
X38745819Y-114346595D01*
X38745818Y-114346589D01*
X38745395Y-114341444D01*
X38690750Y-114123891D01*
X38688691Y-114119155D01*
X38603366Y-113922921D01*
X38603364Y-113922918D01*
X38601306Y-113918184D01*
X38589220Y-113899502D01*
X38482277Y-113734193D01*
X38482272Y-113734187D01*
X38479466Y-113729849D01*
X38328502Y-113563941D01*
X38324451Y-113560742D01*
X38324447Y-113560738D01*
X38156524Y-113428120D01*
X38156520Y-113428118D01*
X38152469Y-113424918D01*
X38147945Y-113422421D01*
X38147941Y-113422418D01*
X38118546Y-113406191D01*
X38068576Y-113355759D01*
X38053804Y-113286316D01*
X38078920Y-113219911D01*
X38106272Y-113193304D01*
X38274278Y-113073467D01*
X38274282Y-113073464D01*
X38278486Y-113070465D01*
X38437375Y-112912130D01*
X38568269Y-112729971D01*
X38587524Y-112691013D01*
X38665361Y-112533522D01*
X38665362Y-112533520D01*
X38667655Y-112528880D01*
X38732862Y-112314256D01*
X38762141Y-112091864D01*
X38763775Y-112025000D01*
X38757693Y-111951030D01*
X38745819Y-111806595D01*
X38745818Y-111806589D01*
X38745395Y-111801444D01*
X38690750Y-111583891D01*
X38688691Y-111579155D01*
X38603366Y-111382921D01*
X38603364Y-111382918D01*
X38601306Y-111378184D01*
X38589220Y-111359502D01*
X38482277Y-111194193D01*
X38482272Y-111194187D01*
X38479466Y-111189849D01*
X38328502Y-111023941D01*
X38324451Y-111020742D01*
X38324447Y-111020738D01*
X38156524Y-110888120D01*
X38156520Y-110888118D01*
X38152469Y-110884918D01*
X38147945Y-110882421D01*
X38147941Y-110882418D01*
X38118546Y-110866191D01*
X38068576Y-110815759D01*
X38053804Y-110746316D01*
X38078920Y-110679911D01*
X38106272Y-110653304D01*
X38274278Y-110533467D01*
X38274282Y-110533464D01*
X38278486Y-110530465D01*
X38437375Y-110372130D01*
X38568269Y-110189971D01*
X38587524Y-110151013D01*
X38665361Y-109993522D01*
X38665362Y-109993520D01*
X38667655Y-109988880D01*
X38732862Y-109774256D01*
X38762141Y-109551864D01*
X38763775Y-109485000D01*
X38757693Y-109411030D01*
X38745819Y-109266595D01*
X38745818Y-109266589D01*
X38745395Y-109261444D01*
X38690750Y-109043891D01*
X38688691Y-109039155D01*
X38603366Y-108842921D01*
X38603364Y-108842918D01*
X38601306Y-108838184D01*
X38589220Y-108819502D01*
X38482277Y-108654193D01*
X38482272Y-108654187D01*
X38479466Y-108649849D01*
X38328502Y-108483941D01*
X38324451Y-108480742D01*
X38324447Y-108480738D01*
X38156524Y-108348120D01*
X38156520Y-108348118D01*
X38152469Y-108344918D01*
X38115234Y-108324363D01*
X37960619Y-108239012D01*
X37956092Y-108236513D01*
X37951223Y-108234789D01*
X37951219Y-108234787D01*
X37749523Y-108163362D01*
X37749519Y-108163361D01*
X37744648Y-108161636D01*
X37739558Y-108160729D01*
X37739553Y-108160728D01*
X37619964Y-108139427D01*
X37523813Y-108122300D01*
X37438968Y-108121263D01*
X37304689Y-108119622D01*
X37304687Y-108119622D01*
X37299519Y-108119559D01*
X37077789Y-108153489D01*
X36864578Y-108223177D01*
X36859990Y-108225565D01*
X36859986Y-108225567D01*
X36670201Y-108324363D01*
X36665612Y-108326752D01*
X36661479Y-108329855D01*
X36661476Y-108329857D01*
X36490369Y-108458328D01*
X36486234Y-108461433D01*
X36331262Y-108623602D01*
X36328348Y-108627874D01*
X36328347Y-108627875D01*
X36228327Y-108774499D01*
X36173416Y-108819502D01*
X36102891Y-108827673D01*
X36039144Y-108796419D01*
X36018447Y-108771935D01*
X35942276Y-108654193D01*
X35939466Y-108649849D01*
X35788502Y-108483941D01*
X35784451Y-108480742D01*
X35784447Y-108480738D01*
X35616524Y-108348120D01*
X35616520Y-108348118D01*
X35612469Y-108344918D01*
X35575234Y-108324363D01*
X35420619Y-108239012D01*
X35416092Y-108236513D01*
X35411223Y-108234789D01*
X35411219Y-108234787D01*
X35209523Y-108163362D01*
X35209519Y-108163361D01*
X35204648Y-108161636D01*
X35199558Y-108160729D01*
X35199553Y-108160728D01*
X35079964Y-108139427D01*
X34983813Y-108122300D01*
X34898968Y-108121263D01*
X34764689Y-108119622D01*
X34764687Y-108119622D01*
X34759519Y-108119559D01*
X34537789Y-108153489D01*
X34324578Y-108223177D01*
X34319990Y-108225565D01*
X34319986Y-108225567D01*
X34130201Y-108324363D01*
X34125612Y-108326752D01*
X34121479Y-108329855D01*
X34121476Y-108329857D01*
X33950369Y-108458328D01*
X33946234Y-108461433D01*
X33791262Y-108623602D01*
X33788348Y-108627874D01*
X33788347Y-108627875D01*
X33770394Y-108654193D01*
X33664857Y-108808905D01*
X33570414Y-109012364D01*
X33510470Y-109228517D01*
X33486634Y-109451558D01*
X33499546Y-109675497D01*
X33500683Y-109680543D01*
X33500684Y-109680549D01*
X33520647Y-109769129D01*
X33548860Y-109894320D01*
X33550802Y-109899102D01*
X33550803Y-109899106D01*
X33631307Y-110097363D01*
X33633251Y-110102150D01*
X33750453Y-110293406D01*
X33897318Y-110462952D01*
X34069903Y-110606235D01*
X34134862Y-110644194D01*
X34183584Y-110695832D01*
X34196655Y-110765615D01*
X34169923Y-110831387D01*
X34134127Y-110860902D01*
X34134573Y-110861610D01*
X34130200Y-110864364D01*
X34125612Y-110866752D01*
X34121479Y-110869855D01*
X34121476Y-110869857D01*
X33950369Y-110998328D01*
X33946234Y-111001433D01*
X33791262Y-111163602D01*
X33788348Y-111167874D01*
X33788347Y-111167875D01*
X33770394Y-111194193D01*
X33664857Y-111348905D01*
X33570414Y-111552364D01*
X33510470Y-111768517D01*
X33486634Y-111991558D01*
X33499546Y-112215497D01*
X33500683Y-112220543D01*
X33500684Y-112220549D01*
X33520647Y-112309129D01*
X33548860Y-112434320D01*
X33550802Y-112439102D01*
X33550803Y-112439106D01*
X33631307Y-112637363D01*
X33633251Y-112642150D01*
X33750453Y-112833406D01*
X33897318Y-113002952D01*
X34069903Y-113146235D01*
X34134862Y-113184194D01*
X34183584Y-113235832D01*
X34196655Y-113305615D01*
X34169923Y-113371387D01*
X34134127Y-113400902D01*
X34134573Y-113401610D01*
X34130200Y-113404364D01*
X34125612Y-113406752D01*
X34121479Y-113409855D01*
X34121476Y-113409857D01*
X33950369Y-113538328D01*
X33946234Y-113541433D01*
X33791262Y-113703602D01*
X33788348Y-113707874D01*
X33788347Y-113707875D01*
X33770394Y-113734193D01*
X33664857Y-113888905D01*
X33570414Y-114092364D01*
X33510470Y-114308517D01*
X33486634Y-114531558D01*
X33499546Y-114755497D01*
X33500683Y-114760543D01*
X33500684Y-114760549D01*
X33520647Y-114849129D01*
X33548860Y-114974320D01*
X33550802Y-114979102D01*
X33550803Y-114979106D01*
X33631307Y-115177363D01*
X33633251Y-115182150D01*
X33750453Y-115373406D01*
X33897318Y-115542952D01*
X34069903Y-115686235D01*
X34134862Y-115724194D01*
X34183584Y-115775832D01*
X34196655Y-115845615D01*
X34169923Y-115911387D01*
X34134127Y-115940902D01*
X34134573Y-115941610D01*
X34130200Y-115944364D01*
X34125612Y-115946752D01*
X34121479Y-115949855D01*
X34121476Y-115949857D01*
X33950369Y-116078328D01*
X33946234Y-116081433D01*
X33791262Y-116243602D01*
X33788348Y-116247874D01*
X33788347Y-116247875D01*
X33770394Y-116274193D01*
X33664857Y-116428905D01*
X33570414Y-116632364D01*
X33510470Y-116848517D01*
X33486634Y-117071558D01*
X32000500Y-117071558D01*
X32000500Y-106500000D01*
X32594540Y-106500000D01*
X32614326Y-106688256D01*
X32672821Y-106868284D01*
X32767467Y-107032216D01*
X32894129Y-107172888D01*
X33047270Y-107284151D01*
X33220197Y-107361144D01*
X33318212Y-107381978D01*
X33398897Y-107399128D01*
X33398901Y-107399128D01*
X33405354Y-107400500D01*
X33594646Y-107400500D01*
X33601099Y-107399128D01*
X33601103Y-107399128D01*
X33681788Y-107381978D01*
X33779803Y-107361144D01*
X33948753Y-107285922D01*
X34019118Y-107276488D01*
X34051245Y-107285921D01*
X34220197Y-107361144D01*
X34318212Y-107381978D01*
X34398897Y-107399128D01*
X34398901Y-107399128D01*
X34405354Y-107400500D01*
X34594646Y-107400500D01*
X34601099Y-107399128D01*
X34601103Y-107399128D01*
X34681788Y-107381978D01*
X34779803Y-107361144D01*
X34948753Y-107285922D01*
X35019118Y-107276488D01*
X35051245Y-107285921D01*
X35220197Y-107361144D01*
X35318212Y-107381978D01*
X35398897Y-107399128D01*
X35398901Y-107399128D01*
X35405354Y-107400500D01*
X35594646Y-107400500D01*
X35601099Y-107399128D01*
X35601103Y-107399128D01*
X35681788Y-107381978D01*
X35779803Y-107361144D01*
X35948753Y-107285922D01*
X36019118Y-107276488D01*
X36051245Y-107285921D01*
X36220197Y-107361144D01*
X36318212Y-107381978D01*
X36398897Y-107399128D01*
X36398901Y-107399128D01*
X36405354Y-107400500D01*
X36594646Y-107400500D01*
X36601099Y-107399128D01*
X36601103Y-107399128D01*
X36681788Y-107381978D01*
X36779803Y-107361144D01*
X36948753Y-107285922D01*
X37019118Y-107276488D01*
X37051245Y-107285921D01*
X37220197Y-107361144D01*
X37318212Y-107381978D01*
X37398897Y-107399128D01*
X37398901Y-107399128D01*
X37405354Y-107400500D01*
X37594646Y-107400500D01*
X37601099Y-107399128D01*
X37601103Y-107399128D01*
X37681788Y-107381978D01*
X37779803Y-107361144D01*
X37952730Y-107284151D01*
X38105871Y-107172888D01*
X38232533Y-107032216D01*
X38327179Y-106868284D01*
X38385674Y-106688256D01*
X38405460Y-106500000D01*
X38385674Y-106311744D01*
X38327179Y-106131716D01*
X38287506Y-106063000D01*
X38270768Y-105994004D01*
X38287506Y-105937000D01*
X38323875Y-105874007D01*
X38323876Y-105874006D01*
X38327179Y-105868284D01*
X38385674Y-105688256D01*
X38405460Y-105500000D01*
X38385674Y-105311744D01*
X38327179Y-105131716D01*
X38287506Y-105063000D01*
X38270768Y-104994004D01*
X38287506Y-104937000D01*
X38323875Y-104874007D01*
X38323876Y-104874006D01*
X38327179Y-104868284D01*
X38385674Y-104688256D01*
X38405460Y-104500000D01*
X38385674Y-104311744D01*
X38327179Y-104131716D01*
X38232533Y-103967784D01*
X38105871Y-103827112D01*
X37952730Y-103715849D01*
X37779803Y-103638856D01*
X37681788Y-103618022D01*
X37601103Y-103600872D01*
X37601099Y-103600872D01*
X37594646Y-103599500D01*
X37405354Y-103599500D01*
X37398901Y-103600872D01*
X37398897Y-103600872D01*
X37318212Y-103618022D01*
X37220197Y-103638856D01*
X37051247Y-103714078D01*
X36980882Y-103723512D01*
X36948755Y-103714079D01*
X36779803Y-103638856D01*
X36681788Y-103618022D01*
X36601103Y-103600872D01*
X36601099Y-103600872D01*
X36594646Y-103599500D01*
X36405354Y-103599500D01*
X36398901Y-103600872D01*
X36398897Y-103600872D01*
X36318212Y-103618022D01*
X36220197Y-103638856D01*
X36051247Y-103714078D01*
X35980882Y-103723512D01*
X35948755Y-103714079D01*
X35779803Y-103638856D01*
X35681788Y-103618022D01*
X35601103Y-103600872D01*
X35601099Y-103600872D01*
X35594646Y-103599500D01*
X35405354Y-103599500D01*
X35398901Y-103600872D01*
X35398897Y-103600872D01*
X35318212Y-103618022D01*
X35220197Y-103638856D01*
X35051247Y-103714078D01*
X34980882Y-103723512D01*
X34948755Y-103714079D01*
X34779803Y-103638856D01*
X34681788Y-103618022D01*
X34601103Y-103600872D01*
X34601099Y-103600872D01*
X34594646Y-103599500D01*
X34405354Y-103599500D01*
X34398901Y-103600872D01*
X34398897Y-103600872D01*
X34318212Y-103618022D01*
X34220197Y-103638856D01*
X34051247Y-103714078D01*
X33980882Y-103723512D01*
X33948755Y-103714079D01*
X33779803Y-103638856D01*
X33681788Y-103618022D01*
X33601103Y-103600872D01*
X33601099Y-103600872D01*
X33594646Y-103599500D01*
X33405354Y-103599500D01*
X33398901Y-103600872D01*
X33398897Y-103600872D01*
X33318212Y-103618022D01*
X33220197Y-103638856D01*
X33047270Y-103715849D01*
X32894129Y-103827112D01*
X32767467Y-103967784D01*
X32672821Y-104131716D01*
X32614326Y-104311744D01*
X32594540Y-104500000D01*
X32614326Y-104688256D01*
X32672821Y-104868284D01*
X32676124Y-104874006D01*
X32676125Y-104874007D01*
X32712494Y-104937000D01*
X32729232Y-105005996D01*
X32712494Y-105063000D01*
X32672821Y-105131716D01*
X32614326Y-105311744D01*
X32594540Y-105500000D01*
X32614326Y-105688256D01*
X32672821Y-105868284D01*
X32676124Y-105874006D01*
X32676125Y-105874007D01*
X32712494Y-105937000D01*
X32729232Y-106005996D01*
X32712494Y-106063000D01*
X32672821Y-106131716D01*
X32614326Y-106311744D01*
X32594540Y-106500000D01*
X32000500Y-106500000D01*
X32000500Y-102443915D01*
X39600000Y-102443915D01*
X39600369Y-102450729D01*
X39605789Y-102500621D01*
X39609414Y-102515867D01*
X39653767Y-102634177D01*
X39662299Y-102649763D01*
X39737430Y-102750009D01*
X39749991Y-102762570D01*
X39850237Y-102837701D01*
X39865823Y-102846233D01*
X39984133Y-102890586D01*
X39999379Y-102894211D01*
X40049271Y-102899631D01*
X40056085Y-102900000D01*
X40731885Y-102900000D01*
X40747124Y-102895525D01*
X40748329Y-102894135D01*
X40750000Y-102886452D01*
X40750000Y-102881885D01*
X41250000Y-102881885D01*
X41254475Y-102897124D01*
X41255865Y-102898329D01*
X41263548Y-102900000D01*
X41943915Y-102900000D01*
X41950729Y-102899631D01*
X42000621Y-102894211D01*
X42015867Y-102890586D01*
X42134177Y-102846233D01*
X42149763Y-102837701D01*
X42250009Y-102762570D01*
X42262570Y-102750009D01*
X42337701Y-102649763D01*
X42346233Y-102634177D01*
X42390586Y-102515867D01*
X42394211Y-102500621D01*
X42399631Y-102450729D01*
X42400000Y-102443915D01*
X42400000Y-101768115D01*
X42395525Y-101752876D01*
X42394135Y-101751671D01*
X42386452Y-101750000D01*
X41268115Y-101750000D01*
X41252876Y-101754475D01*
X41251671Y-101755865D01*
X41250000Y-101763548D01*
X41250000Y-102881885D01*
X40750000Y-102881885D01*
X40750000Y-101768115D01*
X40745525Y-101752876D01*
X40744135Y-101751671D01*
X40736452Y-101750000D01*
X39618115Y-101750000D01*
X39602876Y-101754475D01*
X39601671Y-101755865D01*
X39600000Y-101763548D01*
X39600000Y-102443915D01*
X32000500Y-102443915D01*
X32000500Y-98925665D01*
X39595119Y-98925665D01*
X39595416Y-98930817D01*
X39595416Y-98930821D01*
X39599405Y-99000000D01*
X39608376Y-99155580D01*
X39609513Y-99160626D01*
X39609514Y-99160632D01*
X39631226Y-99256975D01*
X39659006Y-99380242D01*
X39660948Y-99385024D01*
X39660949Y-99385028D01*
X39710069Y-99505996D01*
X39745649Y-99593618D01*
X39865979Y-99789978D01*
X39869360Y-99793881D01*
X39869365Y-99793888D01*
X39985230Y-99927646D01*
X40014713Y-99992231D01*
X40004598Y-100062503D01*
X39958097Y-100116152D01*
X39934222Y-100128125D01*
X39865823Y-100153767D01*
X39850237Y-100162299D01*
X39749991Y-100237430D01*
X39737430Y-100249991D01*
X39662299Y-100350237D01*
X39653767Y-100365823D01*
X39609414Y-100484133D01*
X39605789Y-100499379D01*
X39600369Y-100549271D01*
X39600000Y-100556085D01*
X39600000Y-101231885D01*
X39604475Y-101247124D01*
X39605865Y-101248329D01*
X39613548Y-101250000D01*
X42381885Y-101250000D01*
X42397124Y-101245525D01*
X42398329Y-101244135D01*
X42400000Y-101236452D01*
X42400000Y-100556085D01*
X42399631Y-100549271D01*
X42394211Y-100499379D01*
X42390586Y-100484133D01*
X42346233Y-100365823D01*
X42337701Y-100350237D01*
X42262570Y-100249991D01*
X42250009Y-100237430D01*
X42149763Y-100162299D01*
X42134179Y-100153768D01*
X42064948Y-100127814D01*
X42008184Y-100085172D01*
X41983484Y-100018611D01*
X41998691Y-99949262D01*
X42020238Y-99920581D01*
X42066529Y-99874451D01*
X42070190Y-99870803D01*
X42128269Y-99789978D01*
X42201559Y-99687983D01*
X42204577Y-99683783D01*
X42306615Y-99477325D01*
X42338006Y-99374007D01*
X42372059Y-99261927D01*
X42372060Y-99261921D01*
X42373563Y-99256975D01*
X42403622Y-99028649D01*
X42405300Y-98960000D01*
X42386430Y-98730478D01*
X42330326Y-98507120D01*
X42238496Y-98295924D01*
X42113405Y-98102563D01*
X42092774Y-98079889D01*
X41961890Y-97936051D01*
X41961889Y-97936050D01*
X41958412Y-97932229D01*
X41954361Y-97929030D01*
X41954357Y-97929026D01*
X41781735Y-97792697D01*
X41781730Y-97792693D01*
X41777681Y-97789496D01*
X41773165Y-97787003D01*
X41773162Y-97787001D01*
X41580589Y-97680695D01*
X41580585Y-97680693D01*
X41576065Y-97678198D01*
X41571196Y-97676474D01*
X41571192Y-97676472D01*
X41363853Y-97603049D01*
X41363849Y-97603048D01*
X41358978Y-97601323D01*
X41353885Y-97600416D01*
X41353882Y-97600415D01*
X41257707Y-97583284D01*
X41132250Y-97560937D01*
X41045802Y-97559881D01*
X40907141Y-97558186D01*
X40907139Y-97558186D01*
X40901971Y-97558123D01*
X40674325Y-97592958D01*
X40455424Y-97664506D01*
X40251149Y-97770845D01*
X40066984Y-97909119D01*
X39907877Y-98075616D01*
X39778099Y-98265863D01*
X39775923Y-98270552D01*
X39775919Y-98270558D01*
X39683315Y-98470057D01*
X39681136Y-98474752D01*
X39619592Y-98696673D01*
X39619043Y-98701810D01*
X39606593Y-98818307D01*
X39595119Y-98925665D01*
X32000500Y-98925665D01*
X32000500Y-94703871D01*
X32020502Y-94635750D01*
X32074158Y-94589257D01*
X32144432Y-94579153D01*
X32206391Y-94606437D01*
X32262036Y-94652064D01*
X32270803Y-94658089D01*
X32468001Y-94770341D01*
X32477665Y-94774806D01*
X32690960Y-94852228D01*
X32701227Y-94854999D01*
X32925688Y-94895588D01*
X32933917Y-94896521D01*
X32953177Y-94897430D01*
X32956152Y-94897500D01*
X33143885Y-94897500D01*
X33159124Y-94893025D01*
X33160329Y-94891635D01*
X33162000Y-94883952D01*
X33162000Y-94879385D01*
X33662000Y-94879385D01*
X33666475Y-94894624D01*
X33667865Y-94895829D01*
X33675548Y-94897500D01*
X33818996Y-94897500D01*
X33824304Y-94897275D01*
X33993427Y-94882925D01*
X34003899Y-94881135D01*
X34223536Y-94824128D01*
X34233576Y-94820592D01*
X34440470Y-94727394D01*
X34449756Y-94722225D01*
X34637990Y-94595498D01*
X34646276Y-94588837D01*
X34810472Y-94432201D01*
X34817512Y-94424244D01*
X34952966Y-94242188D01*
X34958570Y-94233151D01*
X35061412Y-94030874D01*
X35065412Y-94021023D01*
X35132704Y-93804307D01*
X35134986Y-93793929D01*
X35138759Y-93765458D01*
X35136562Y-93751293D01*
X35123378Y-93747500D01*
X33680115Y-93747500D01*
X33664876Y-93751975D01*
X33663671Y-93753365D01*
X33662000Y-93761048D01*
X33662000Y-94879385D01*
X33162000Y-94879385D01*
X33162000Y-93431289D01*
X41157996Y-93431289D01*
X41166913Y-93668795D01*
X41215719Y-93901404D01*
X41217677Y-93906363D01*
X41217678Y-93906365D01*
X41266925Y-94031064D01*
X41303020Y-94122463D01*
X41426319Y-94325653D01*
X41429816Y-94329683D01*
X41511872Y-94424244D01*
X41582090Y-94505164D01*
X41586216Y-94508547D01*
X41586220Y-94508551D01*
X41692737Y-94595889D01*
X41765880Y-94655862D01*
X41770516Y-94658501D01*
X41770519Y-94658503D01*
X41850220Y-94703871D01*
X41972433Y-94773439D01*
X42195844Y-94854534D01*
X42201092Y-94855483D01*
X42425641Y-94896088D01*
X42425648Y-94896089D01*
X42429725Y-94896826D01*
X42447991Y-94897687D01*
X42453131Y-94897930D01*
X42453138Y-94897930D01*
X42454619Y-94898000D01*
X43321680Y-94898000D01*
X43404026Y-94891013D01*
X43493512Y-94883420D01*
X43493516Y-94883419D01*
X43498823Y-94882969D01*
X43503978Y-94881631D01*
X43503984Y-94881630D01*
X43723703Y-94824602D01*
X43723702Y-94824602D01*
X43728874Y-94823260D01*
X43846350Y-94770341D01*
X43940715Y-94727833D01*
X43940718Y-94727832D01*
X43945576Y-94725643D01*
X44142732Y-94592909D01*
X44314705Y-94428855D01*
X44456579Y-94238170D01*
X44564295Y-94026307D01*
X44603079Y-93901404D01*
X44633193Y-93804419D01*
X44634775Y-93799324D01*
X44666004Y-93563711D01*
X44657087Y-93326205D01*
X44608281Y-93093596D01*
X44558954Y-92968693D01*
X44522941Y-92877502D01*
X44522940Y-92877500D01*
X44520980Y-92872537D01*
X44397681Y-92669347D01*
X44241910Y-92489836D01*
X44237784Y-92486453D01*
X44237780Y-92486449D01*
X44062248Y-92342523D01*
X44058120Y-92339138D01*
X44049723Y-92334358D01*
X44000416Y-92283280D01*
X43986551Y-92213651D01*
X44012531Y-92147578D01*
X44041685Y-92120335D01*
X44137990Y-92055498D01*
X44146276Y-92048837D01*
X44310472Y-91892201D01*
X44317512Y-91884244D01*
X44452966Y-91702188D01*
X44458570Y-91693151D01*
X44561412Y-91490874D01*
X44565412Y-91481023D01*
X44632704Y-91264307D01*
X44634986Y-91253929D01*
X44638759Y-91225458D01*
X44636562Y-91211293D01*
X44623378Y-91207500D01*
X41202053Y-91207500D01*
X41188522Y-91211473D01*
X41186997Y-91222080D01*
X41215103Y-91356032D01*
X41218163Y-91366229D01*
X41301507Y-91577271D01*
X41306238Y-91586803D01*
X41423957Y-91780797D01*
X41430221Y-91789387D01*
X41578940Y-91960771D01*
X41586570Y-91968191D01*
X41762037Y-92112064D01*
X41770804Y-92118090D01*
X41774253Y-92120053D01*
X41823561Y-92171133D01*
X41837426Y-92240763D01*
X41811444Y-92306835D01*
X41782295Y-92334075D01*
X41681268Y-92402091D01*
X41509295Y-92566145D01*
X41367421Y-92756830D01*
X41259705Y-92968693D01*
X41258124Y-92973784D01*
X41258123Y-92973787D01*
X41190807Y-93190581D01*
X41189225Y-93195676D01*
X41188524Y-93200965D01*
X41165656Y-93373500D01*
X41157996Y-93431289D01*
X33162000Y-93431289D01*
X33162000Y-93373500D01*
X33182002Y-93305379D01*
X33235658Y-93258886D01*
X33288000Y-93247500D01*
X35121947Y-93247500D01*
X35135478Y-93243527D01*
X35137003Y-93232920D01*
X35108897Y-93098968D01*
X35105837Y-93088771D01*
X35022493Y-92877729D01*
X35017762Y-92868197D01*
X34900043Y-92674203D01*
X34893779Y-92665613D01*
X34745060Y-92494229D01*
X34737430Y-92486809D01*
X34561963Y-92342936D01*
X34553196Y-92336910D01*
X34549747Y-92334947D01*
X34500439Y-92283867D01*
X34486574Y-92214237D01*
X34512556Y-92148165D01*
X34541705Y-92120925D01*
X34642732Y-92052909D01*
X34814705Y-91888855D01*
X34956579Y-91698170D01*
X35064295Y-91486307D01*
X35104747Y-91356032D01*
X35133193Y-91264419D01*
X35134775Y-91259324D01*
X35166004Y-91023711D01*
X35157087Y-90786205D01*
X35108281Y-90553596D01*
X35061041Y-90433977D01*
X35022941Y-90337502D01*
X35022940Y-90337500D01*
X35020980Y-90332537D01*
X34897681Y-90129347D01*
X34818385Y-90037966D01*
X34777090Y-89990377D01*
X34747551Y-89925817D01*
X34757605Y-89855536D01*
X34804060Y-89801847D01*
X34828028Y-89789815D01*
X34896419Y-89764177D01*
X34896420Y-89764176D01*
X34904824Y-89761026D01*
X34912003Y-89755646D01*
X34912006Y-89755644D01*
X35012365Y-89680428D01*
X35019546Y-89675046D01*
X35024928Y-89667865D01*
X35100144Y-89567506D01*
X35100146Y-89567503D01*
X35105526Y-89560324D01*
X35155851Y-89426080D01*
X35162500Y-89364877D01*
X35162499Y-87470124D01*
X35162499Y-87470123D01*
X41161500Y-87470123D01*
X41161501Y-89364876D01*
X41168149Y-89426080D01*
X41218474Y-89560324D01*
X41223854Y-89567503D01*
X41223856Y-89567506D01*
X41299072Y-89667865D01*
X41304454Y-89675046D01*
X41311635Y-89680428D01*
X41411994Y-89755644D01*
X41411997Y-89755646D01*
X41419176Y-89761026D01*
X41489710Y-89787468D01*
X41495825Y-89789760D01*
X41552590Y-89832401D01*
X41577290Y-89898962D01*
X41562083Y-89968311D01*
X41538567Y-89998912D01*
X41513533Y-90022793D01*
X41506488Y-90030756D01*
X41371034Y-90212812D01*
X41365430Y-90221849D01*
X41262588Y-90424126D01*
X41258588Y-90433977D01*
X41191296Y-90650693D01*
X41189014Y-90661071D01*
X41185241Y-90689542D01*
X41187438Y-90703707D01*
X41200622Y-90707500D01*
X44621947Y-90707500D01*
X44635478Y-90703527D01*
X44637003Y-90692920D01*
X44608897Y-90558968D01*
X44605837Y-90548771D01*
X44522493Y-90337729D01*
X44517762Y-90328197D01*
X44400043Y-90134203D01*
X44393779Y-90125612D01*
X44276591Y-89990566D01*
X44247051Y-89926006D01*
X44257105Y-89855725D01*
X44303559Y-89802036D01*
X44327527Y-89790003D01*
X44342129Y-89784529D01*
X44404824Y-89761026D01*
X44412003Y-89755646D01*
X44412006Y-89755644D01*
X44512365Y-89680428D01*
X44519546Y-89675046D01*
X44524928Y-89667865D01*
X44600144Y-89567506D01*
X44600146Y-89567503D01*
X44605526Y-89560324D01*
X44655851Y-89426080D01*
X44662500Y-89364877D01*
X44662499Y-87470124D01*
X44655851Y-87408920D01*
X44605526Y-87274676D01*
X44600146Y-87267497D01*
X44600144Y-87267494D01*
X44524928Y-87167135D01*
X44519546Y-87159954D01*
X44512365Y-87154572D01*
X44412006Y-87079356D01*
X44412003Y-87079354D01*
X44404824Y-87073974D01*
X44315439Y-87040466D01*
X44277975Y-87026421D01*
X44277973Y-87026421D01*
X44270580Y-87023649D01*
X44262730Y-87022796D01*
X44262729Y-87022796D01*
X44212774Y-87017369D01*
X44212773Y-87017369D01*
X44209377Y-87017000D01*
X42912190Y-87017000D01*
X41614624Y-87017001D01*
X41611230Y-87017370D01*
X41611224Y-87017370D01*
X41561278Y-87022795D01*
X41561274Y-87022796D01*
X41553420Y-87023649D01*
X41419176Y-87073974D01*
X41411997Y-87079354D01*
X41411994Y-87079356D01*
X41311635Y-87154572D01*
X41304454Y-87159954D01*
X41299072Y-87167135D01*
X41223856Y-87267494D01*
X41223854Y-87267497D01*
X41218474Y-87274676D01*
X41168149Y-87408920D01*
X41161500Y-87470123D01*
X35162499Y-87470123D01*
X35155851Y-87408920D01*
X35105526Y-87274676D01*
X35100146Y-87267497D01*
X35100144Y-87267494D01*
X35024928Y-87167135D01*
X35019546Y-87159954D01*
X35012365Y-87154572D01*
X34912006Y-87079356D01*
X34912003Y-87079354D01*
X34904824Y-87073974D01*
X34815439Y-87040466D01*
X34777975Y-87026421D01*
X34777973Y-87026421D01*
X34770580Y-87023649D01*
X34762730Y-87022796D01*
X34762729Y-87022796D01*
X34712774Y-87017369D01*
X34712773Y-87017369D01*
X34709377Y-87017000D01*
X34129617Y-87017000D01*
X32126500Y-87017001D01*
X32058379Y-86996999D01*
X32011886Y-86943343D01*
X32000500Y-86891001D01*
X32000500Y-75416500D01*
X32020502Y-75348379D01*
X32074158Y-75301886D01*
X32126500Y-75290500D01*
X34711844Y-75290499D01*
X34930126Y-75290499D01*
X34933520Y-75290130D01*
X34933526Y-75290130D01*
X34983472Y-75284705D01*
X34983476Y-75284704D01*
X34991330Y-75283851D01*
X35125574Y-75233526D01*
X35132753Y-75228146D01*
X35132756Y-75228144D01*
X35233115Y-75152928D01*
X35240296Y-75147546D01*
X35245678Y-75140365D01*
X35320894Y-75040006D01*
X35320896Y-75040003D01*
X35326276Y-75032824D01*
X35376601Y-74898580D01*
X35383250Y-74837377D01*
X35383249Y-72742624D01*
X35376601Y-72681420D01*
X35326276Y-72547176D01*
X35320896Y-72539997D01*
X35320894Y-72539994D01*
X35245678Y-72439635D01*
X35240296Y-72432454D01*
X35125574Y-72346474D01*
X35117640Y-72343500D01*
X35067673Y-72293422D01*
X35052658Y-72224032D01*
X35079445Y-72155067D01*
X35133212Y-72086987D01*
X35138911Y-72078409D01*
X35253120Y-71871518D01*
X35257345Y-71862119D01*
X35336230Y-71639357D01*
X35338864Y-71629386D01*
X35358734Y-71517837D01*
X35357274Y-71504540D01*
X35342717Y-71500000D01*
X33383750Y-71500000D01*
X33315629Y-71479998D01*
X33269136Y-71426342D01*
X33257750Y-71374000D01*
X33257750Y-71126000D01*
X33277752Y-71057879D01*
X33331408Y-71011386D01*
X33383750Y-71000000D01*
X35343921Y-71000000D01*
X35357265Y-70996082D01*
X35359252Y-70981806D01*
X35347697Y-70906300D01*
X35345308Y-70896272D01*
X35271891Y-70671652D01*
X35267894Y-70662143D01*
X35158779Y-70452535D01*
X35153285Y-70443810D01*
X35011397Y-70254832D01*
X35004554Y-70247125D01*
X34833701Y-70083856D01*
X34825436Y-70077162D01*
X34785085Y-70018746D01*
X34782722Y-69947789D01*
X34819934Y-69886050D01*
X34980086Y-69740324D01*
X34980088Y-69740322D01*
X34983908Y-69736846D01*
X34987107Y-69732795D01*
X34987111Y-69732791D01*
X35133631Y-69547264D01*
X35133634Y-69547259D01*
X35136832Y-69543210D01*
X35256077Y-69327198D01*
X35338441Y-69094610D01*
X35381711Y-68851694D01*
X35383981Y-68665847D01*
X35384662Y-68610142D01*
X35384662Y-68610140D01*
X35384725Y-68604972D01*
X35347403Y-68361070D01*
X35270747Y-68126540D01*
X35156815Y-67907679D01*
X35147130Y-67894779D01*
X35011772Y-67714499D01*
X35011770Y-67714496D01*
X35008667Y-67710364D01*
X34830282Y-67539896D01*
X34626450Y-67400851D01*
X34514548Y-67348908D01*
X34407341Y-67299144D01*
X34407337Y-67299143D01*
X34402646Y-67296965D01*
X34164879Y-67231026D01*
X34159742Y-67230477D01*
X33966793Y-67209856D01*
X33966785Y-67209856D01*
X33963458Y-67209500D01*
X33070196Y-67209500D01*
X33067623Y-67209712D01*
X33067612Y-67209712D01*
X32891990Y-67224151D01*
X32891984Y-67224152D01*
X32886839Y-67224575D01*
X32647533Y-67284684D01*
X32507963Y-67345371D01*
X32462889Y-67364970D01*
X32421257Y-67383072D01*
X32214089Y-67517095D01*
X32210262Y-67520577D01*
X32206168Y-67523730D01*
X32205270Y-67522564D01*
X32147461Y-67550684D01*
X32076962Y-67542293D01*
X32022191Y-67497120D01*
X32000500Y-67426440D01*
X32000500Y-67107165D01*
X38497866Y-67107165D01*
X38532952Y-67364970D01*
X38605758Y-67614757D01*
X38714686Y-67851039D01*
X38717246Y-67854944D01*
X38717249Y-67854949D01*
X38854775Y-68064712D01*
X38854779Y-68064717D01*
X38857341Y-68068625D01*
X39030591Y-68262735D01*
X39230629Y-68429105D01*
X39453061Y-68564080D01*
X39457375Y-68565889D01*
X39457377Y-68565890D01*
X39688686Y-68662886D01*
X39688691Y-68662888D01*
X39693001Y-68664695D01*
X39697533Y-68665846D01*
X39697536Y-68665847D01*
X39822815Y-68697663D01*
X39945177Y-68728739D01*
X40161286Y-68750500D01*
X41816044Y-68750500D01*
X41818369Y-68750327D01*
X41818375Y-68750327D01*
X42004814Y-68736472D01*
X42004818Y-68736471D01*
X42009466Y-68736126D01*
X42263232Y-68678705D01*
X42267586Y-68677012D01*
X42501370Y-68586098D01*
X42501372Y-68586097D01*
X42505723Y-68584405D01*
X42541285Y-68564080D01*
X42589038Y-68536786D01*
X42731612Y-68455299D01*
X42935936Y-68294223D01*
X43114208Y-68104714D01*
X43262511Y-67890937D01*
X43280258Y-67854949D01*
X43375521Y-67661775D01*
X43375522Y-67661772D01*
X43377586Y-67657587D01*
X43456906Y-67409792D01*
X43487139Y-67224151D01*
X43497977Y-67157606D01*
X43497977Y-67157605D01*
X43498728Y-67152994D01*
X43502134Y-66892835D01*
X43467048Y-66635030D01*
X43394242Y-66385243D01*
X43285314Y-66148961D01*
X43256637Y-66105221D01*
X43145225Y-65935288D01*
X43145221Y-65935283D01*
X43142659Y-65931375D01*
X42969409Y-65737265D01*
X42769371Y-65570895D01*
X42546939Y-65435920D01*
X42542623Y-65434110D01*
X42311314Y-65337114D01*
X42311309Y-65337112D01*
X42306999Y-65335305D01*
X42302467Y-65334154D01*
X42302464Y-65334153D01*
X42177185Y-65302337D01*
X42054823Y-65271261D01*
X41838714Y-65249500D01*
X40183956Y-65249500D01*
X40181631Y-65249673D01*
X40181625Y-65249673D01*
X39995186Y-65263528D01*
X39995182Y-65263529D01*
X39990534Y-65263874D01*
X39736768Y-65321295D01*
X39732416Y-65322987D01*
X39732414Y-65322988D01*
X39498630Y-65413902D01*
X39498628Y-65413903D01*
X39494277Y-65415595D01*
X39490223Y-65417912D01*
X39490221Y-65417913D01*
X39454467Y-65438348D01*
X39268388Y-65544701D01*
X39064064Y-65705777D01*
X38885792Y-65895286D01*
X38737489Y-66109063D01*
X38735423Y-66113253D01*
X38735421Y-66113256D01*
X38715720Y-66153207D01*
X38622414Y-66342413D01*
X38543094Y-66590208D01*
X38501272Y-66847006D01*
X38497866Y-67107165D01*
X32000500Y-67107165D01*
X32000500Y-61374000D01*
X35486500Y-61374000D01*
X35498234Y-61483149D01*
X35498952Y-61486449D01*
X35498952Y-61486450D01*
X35505961Y-61518669D01*
X35509620Y-61535491D01*
X35544290Y-61639657D01*
X35623308Y-61762612D01*
X35669801Y-61816268D01*
X35673194Y-61819208D01*
X35773450Y-61906081D01*
X35773453Y-61906083D01*
X35780261Y-61911982D01*
X35913210Y-61972698D01*
X35921411Y-61975106D01*
X35977008Y-61991431D01*
X35977012Y-61991432D01*
X35981331Y-61992700D01*
X35985780Y-61993340D01*
X35985786Y-61993341D01*
X36121553Y-62012861D01*
X36121558Y-62012861D01*
X36126000Y-62013500D01*
X38373530Y-62013500D01*
X38374207Y-62013484D01*
X38374244Y-62013484D01*
X38396473Y-62012972D01*
X38396493Y-62012971D01*
X38397158Y-62012956D01*
X38397810Y-62012926D01*
X38397838Y-62012925D01*
X38408082Y-62012453D01*
X38408098Y-62012452D01*
X38408751Y-62012422D01*
X38409417Y-62012376D01*
X38409450Y-62012374D01*
X38417925Y-62011787D01*
X38432375Y-62010787D01*
X38574517Y-61976763D01*
X38578688Y-61975108D01*
X38578694Y-61975106D01*
X38636326Y-61952237D01*
X38636328Y-61952236D01*
X38640509Y-61950577D01*
X38644413Y-61948339D01*
X38644419Y-61948336D01*
X38759484Y-61882371D01*
X38759486Y-61882369D01*
X38767303Y-61877888D01*
X38852781Y-61788788D01*
X38914373Y-61753479D01*
X38950165Y-61750233D01*
X38952623Y-61750500D01*
X38956038Y-61750500D01*
X41002701Y-61750499D01*
X43047376Y-61750499D01*
X43048897Y-61750334D01*
X43117649Y-61766537D01*
X43150589Y-61793553D01*
X43170272Y-61816268D01*
X43173665Y-61819208D01*
X43273921Y-61906081D01*
X43273924Y-61906083D01*
X43280732Y-61911982D01*
X43413681Y-61972698D01*
X43421882Y-61975106D01*
X43477479Y-61991431D01*
X43477483Y-61991432D01*
X43481802Y-61992700D01*
X43486251Y-61993340D01*
X43486257Y-61993341D01*
X43622024Y-62012861D01*
X43622029Y-62012861D01*
X43626471Y-62013500D01*
X43874000Y-62013500D01*
X43877346Y-62013140D01*
X43877351Y-62013140D01*
X43979785Y-62002128D01*
X43979792Y-62002127D01*
X43983149Y-62001766D01*
X43986450Y-62001048D01*
X44032210Y-61991094D01*
X44032215Y-61991093D01*
X44035491Y-61990380D01*
X44139657Y-61955710D01*
X44262612Y-61876692D01*
X44316268Y-61830199D01*
X44352150Y-61788789D01*
X44406081Y-61726550D01*
X44406083Y-61726547D01*
X44411982Y-61719739D01*
X44472698Y-61586790D01*
X44492700Y-61518669D01*
X44497333Y-61486450D01*
X44512861Y-61378447D01*
X44512861Y-61378442D01*
X44513500Y-61374000D01*
X44513500Y-52044198D01*
X44512812Y-52017618D01*
X44512137Y-52004595D01*
X44510075Y-51978100D01*
X44474433Y-51836355D01*
X44447497Y-51770666D01*
X44445220Y-51766797D01*
X44445217Y-51766791D01*
X44375646Y-51648580D01*
X44375643Y-51648576D01*
X44373365Y-51644705D01*
X43630112Y-50715639D01*
X43595396Y-50676509D01*
X43577424Y-50658220D01*
X43538888Y-50622809D01*
X43414237Y-50546492D01*
X43410102Y-50544712D01*
X43410097Y-50544709D01*
X43353160Y-50520194D01*
X43353159Y-50520194D01*
X43349028Y-50518415D01*
X43344695Y-50517245D01*
X43344690Y-50517243D01*
X43216629Y-50482657D01*
X43216630Y-50482657D01*
X43207932Y-50480308D01*
X43198927Y-50480504D01*
X43198924Y-50480504D01*
X43076194Y-50483181D01*
X43061809Y-50483495D01*
X42991772Y-50495129D01*
X42991726Y-50494854D01*
X42922942Y-50491440D01*
X42865192Y-50450143D01*
X42851874Y-50429164D01*
X42750707Y-50228452D01*
X42750703Y-50228446D01*
X42748597Y-50224267D01*
X42745903Y-50220456D01*
X42745900Y-50220450D01*
X42615206Y-50035525D01*
X42596718Y-50009365D01*
X42414743Y-49819272D01*
X42206670Y-49658165D01*
X42202588Y-49655879D01*
X42202585Y-49655877D01*
X42074087Y-49583915D01*
X43040000Y-49583915D01*
X43040369Y-49590729D01*
X43045789Y-49640621D01*
X43049414Y-49655867D01*
X43093767Y-49774177D01*
X43102299Y-49789763D01*
X43177430Y-49890009D01*
X43189991Y-49902570D01*
X43290237Y-49977701D01*
X43305823Y-49986233D01*
X43424133Y-50030586D01*
X43439379Y-50034211D01*
X43489271Y-50039631D01*
X43496085Y-50040000D01*
X44541885Y-50040000D01*
X44557124Y-50035525D01*
X44558329Y-50034135D01*
X44560000Y-50026452D01*
X44560000Y-50021885D01*
X45060000Y-50021885D01*
X45064475Y-50037124D01*
X45065865Y-50038329D01*
X45073548Y-50040000D01*
X46123915Y-50040000D01*
X46130729Y-50039631D01*
X46180621Y-50034211D01*
X46195867Y-50030586D01*
X46314177Y-49986233D01*
X46329763Y-49977701D01*
X46430009Y-49902570D01*
X46442570Y-49890009D01*
X46517701Y-49789763D01*
X46526233Y-49774177D01*
X46570586Y-49655867D01*
X46574211Y-49640621D01*
X46579631Y-49590729D01*
X46580000Y-49583915D01*
X46580000Y-47268115D01*
X46575525Y-47252876D01*
X46574135Y-47251671D01*
X46566452Y-47250000D01*
X45078115Y-47250000D01*
X45062876Y-47254475D01*
X45061671Y-47255865D01*
X45060000Y-47263548D01*
X45060000Y-50021885D01*
X44560000Y-50021885D01*
X44560000Y-47268115D01*
X44555525Y-47252876D01*
X44554135Y-47251671D01*
X44546452Y-47250000D01*
X43058115Y-47250000D01*
X43042876Y-47254475D01*
X43041671Y-47255865D01*
X43040000Y-47263548D01*
X43040000Y-49583915D01*
X42074087Y-49583915D01*
X42068630Y-49580859D01*
X41977069Y-49529582D01*
X41771652Y-49451756D01*
X39392748Y-48814331D01*
X39169217Y-48754436D01*
X39169212Y-48754435D01*
X39166977Y-48753836D01*
X39164706Y-48753405D01*
X39164698Y-48753403D01*
X38978851Y-48718119D01*
X38978848Y-48718119D01*
X38974262Y-48717248D01*
X38842786Y-48712082D01*
X38715979Y-48707099D01*
X38715973Y-48707099D01*
X38711311Y-48706916D01*
X38630799Y-48715734D01*
X38454374Y-48735055D01*
X38454369Y-48735056D01*
X38449721Y-48735565D01*
X38272602Y-48782197D01*
X38201634Y-48780198D01*
X38143012Y-48740147D01*
X38131384Y-48723316D01*
X38098363Y-48666082D01*
X38098358Y-48666075D01*
X38096111Y-48662180D01*
X38005795Y-48547265D01*
X37998459Y-48542038D01*
X37998457Y-48542036D01*
X37890427Y-48465061D01*
X37890420Y-48465057D01*
X37886763Y-48462451D01*
X37882762Y-48460387D01*
X37882759Y-48460385D01*
X37827665Y-48431962D01*
X37827664Y-48431962D01*
X37823668Y-48429900D01*
X37685563Y-48382056D01*
X37573546Y-48376687D01*
X37544061Y-48375274D01*
X37544060Y-48375274D01*
X37539573Y-48375059D01*
X37535098Y-48375485D01*
X37535097Y-48375485D01*
X37473369Y-48381361D01*
X37473365Y-48381362D01*
X37468897Y-48381787D01*
X37326851Y-48416203D01*
X37322669Y-48417876D01*
X35893032Y-48989730D01*
X35893026Y-48989733D01*
X35888496Y-48991545D01*
X35752325Y-49072298D01*
X35693122Y-49121165D01*
X35588018Y-49239567D01*
X35527302Y-49372516D01*
X35507300Y-49440637D01*
X35506660Y-49445086D01*
X35506659Y-49445092D01*
X35487139Y-49580859D01*
X35486500Y-49585306D01*
X35486500Y-61374000D01*
X32000500Y-61374000D01*
X32000500Y-43962092D01*
X32020502Y-43893971D01*
X32074158Y-43847478D01*
X32144432Y-43837374D01*
X32209012Y-43866868D01*
X32227327Y-43886528D01*
X32237431Y-43900010D01*
X32249991Y-43912570D01*
X32350237Y-43987701D01*
X32365823Y-43996233D01*
X32484133Y-44040586D01*
X32499379Y-44044211D01*
X32549271Y-44049631D01*
X32556085Y-44050000D01*
X33731885Y-44050000D01*
X33747124Y-44045525D01*
X33748329Y-44044135D01*
X33750000Y-44036452D01*
X33750000Y-44031885D01*
X34250000Y-44031885D01*
X34254475Y-44047124D01*
X34255865Y-44048329D01*
X34263548Y-44050000D01*
X35443915Y-44050000D01*
X35450729Y-44049631D01*
X35500621Y-44044211D01*
X35515867Y-44040586D01*
X35634177Y-43996233D01*
X35649763Y-43987701D01*
X35750009Y-43912570D01*
X35762570Y-43900009D01*
X35837701Y-43799763D01*
X35846233Y-43784177D01*
X35890586Y-43665867D01*
X35894211Y-43650621D01*
X35899631Y-43600729D01*
X35900000Y-43593915D01*
X35900000Y-43457710D01*
X37980034Y-43457710D01*
X37993193Y-43554396D01*
X37995134Y-43563532D01*
X38066132Y-43807112D01*
X38069401Y-43815855D01*
X38175625Y-44046273D01*
X38180145Y-44054428D01*
X38319261Y-44266616D01*
X38324944Y-44274021D01*
X38493890Y-44463310D01*
X38500606Y-44469795D01*
X38695680Y-44632035D01*
X38703267Y-44637448D01*
X38920186Y-44769078D01*
X38928502Y-44773315D01*
X39162482Y-44871430D01*
X39171328Y-44874390D01*
X39417242Y-44936844D01*
X39426439Y-44938466D01*
X39637150Y-44959684D01*
X39643442Y-44960000D01*
X40731885Y-44960000D01*
X40747124Y-44955525D01*
X40748329Y-44954135D01*
X40750000Y-44946452D01*
X40750000Y-44941885D01*
X41250000Y-44941885D01*
X41254475Y-44957124D01*
X41255865Y-44958329D01*
X41263548Y-44960000D01*
X42334442Y-44960000D01*
X42339120Y-44959827D01*
X42527691Y-44945814D01*
X42536922Y-44944434D01*
X42784388Y-44888438D01*
X42793304Y-44885712D01*
X42868332Y-44856535D01*
X42939071Y-44850487D01*
X43001849Y-44883644D01*
X43036737Y-44945477D01*
X43040000Y-44973968D01*
X43040000Y-46731885D01*
X43044475Y-46747124D01*
X43045865Y-46748329D01*
X43053548Y-46750000D01*
X44541885Y-46750000D01*
X44557124Y-46745525D01*
X44558329Y-46744135D01*
X44560000Y-46736452D01*
X44560000Y-46731885D01*
X45060000Y-46731885D01*
X45064475Y-46747124D01*
X45065865Y-46748329D01*
X45073548Y-46750000D01*
X46561885Y-46750000D01*
X46577124Y-46745525D01*
X46578329Y-46744135D01*
X46580000Y-46736452D01*
X46580000Y-44416085D01*
X46579631Y-44409271D01*
X46574211Y-44359379D01*
X46570586Y-44344133D01*
X46526233Y-44225823D01*
X46517701Y-44210237D01*
X46442570Y-44109991D01*
X46430009Y-44097430D01*
X46329763Y-44022299D01*
X46314177Y-44013767D01*
X46195867Y-43969414D01*
X46180621Y-43965789D01*
X46130729Y-43960369D01*
X46123915Y-43960000D01*
X45078115Y-43960000D01*
X45062876Y-43964475D01*
X45061671Y-43965865D01*
X45060000Y-43973548D01*
X45060000Y-46731885D01*
X44560000Y-46731885D01*
X44560000Y-43978115D01*
X44555525Y-43962876D01*
X44554135Y-43961671D01*
X44546452Y-43960000D01*
X44054709Y-43960000D01*
X43986588Y-43939998D01*
X43940095Y-43886342D01*
X43929991Y-43816068D01*
X43934707Y-43795587D01*
X43994498Y-43608802D01*
X43996671Y-43599751D01*
X44019776Y-43457880D01*
X44018079Y-43444285D01*
X44003973Y-43440000D01*
X41268115Y-43440000D01*
X41252876Y-43444475D01*
X41251671Y-43445865D01*
X41250000Y-43453548D01*
X41250000Y-44941885D01*
X40750000Y-44941885D01*
X40750000Y-43458115D01*
X40745525Y-43442876D01*
X40744135Y-43441671D01*
X40736452Y-43440000D01*
X37995739Y-43440000D01*
X37982055Y-43444018D01*
X37980034Y-43457710D01*
X35900000Y-43457710D01*
X35900000Y-43018115D01*
X35895525Y-43002876D01*
X35894135Y-43001671D01*
X35886452Y-43000000D01*
X34268115Y-43000000D01*
X34252876Y-43004475D01*
X34251671Y-43005865D01*
X34250000Y-43013548D01*
X34250000Y-44031885D01*
X33750000Y-44031885D01*
X33750000Y-42922120D01*
X37980224Y-42922120D01*
X37981921Y-42935715D01*
X37996027Y-42940000D01*
X40731885Y-42940000D01*
X40747124Y-42935525D01*
X40748329Y-42934135D01*
X40750000Y-42926452D01*
X40750000Y-42921885D01*
X41250000Y-42921885D01*
X41254475Y-42937124D01*
X41255865Y-42938329D01*
X41263548Y-42940000D01*
X44004261Y-42940000D01*
X44017945Y-42935982D01*
X44019966Y-42922290D01*
X44006807Y-42825604D01*
X44004866Y-42816468D01*
X43933868Y-42572888D01*
X43930599Y-42564145D01*
X43824375Y-42333727D01*
X43819855Y-42325572D01*
X43680739Y-42113384D01*
X43675056Y-42105979D01*
X43506110Y-41916690D01*
X43499394Y-41910205D01*
X43304320Y-41747965D01*
X43296733Y-41742552D01*
X43079814Y-41610922D01*
X43071498Y-41606685D01*
X42837518Y-41508570D01*
X42828672Y-41505610D01*
X42582758Y-41443156D01*
X42573561Y-41441534D01*
X42362850Y-41420316D01*
X42356558Y-41420000D01*
X41268115Y-41420000D01*
X41252876Y-41424475D01*
X41251671Y-41425865D01*
X41250000Y-41433548D01*
X41250000Y-42921885D01*
X40750000Y-42921885D01*
X40750000Y-41438115D01*
X40745525Y-41422876D01*
X40744135Y-41421671D01*
X40736452Y-41420000D01*
X39665558Y-41420000D01*
X39660880Y-41420173D01*
X39472309Y-41434186D01*
X39463078Y-41435566D01*
X39215612Y-41491562D01*
X39206695Y-41494288D01*
X38970213Y-41586252D01*
X38961800Y-41590265D01*
X38741510Y-41716170D01*
X38733785Y-41721381D01*
X38534520Y-41878469D01*
X38527652Y-41884762D01*
X38353801Y-42069572D01*
X38347927Y-42076827D01*
X38203305Y-42285296D01*
X38198572Y-42293331D01*
X38086348Y-42520899D01*
X38082860Y-42529532D01*
X38005502Y-42771198D01*
X38003329Y-42780249D01*
X37980224Y-42922120D01*
X33750000Y-42922120D01*
X33750000Y-42481885D01*
X34250000Y-42481885D01*
X34254475Y-42497124D01*
X34255865Y-42498329D01*
X34263548Y-42500000D01*
X35881885Y-42500000D01*
X35897124Y-42495525D01*
X35898329Y-42494135D01*
X35900000Y-42486452D01*
X35900000Y-41906085D01*
X35899631Y-41899271D01*
X35894211Y-41849379D01*
X35890586Y-41834133D01*
X35846233Y-41715823D01*
X35837701Y-41700237D01*
X35762570Y-41599991D01*
X35750009Y-41587430D01*
X35649763Y-41512299D01*
X35634177Y-41503767D01*
X35515867Y-41459414D01*
X35500621Y-41455789D01*
X35450729Y-41450369D01*
X35443915Y-41450000D01*
X34268115Y-41450000D01*
X34252876Y-41454475D01*
X34251671Y-41455865D01*
X34250000Y-41463548D01*
X34250000Y-42481885D01*
X33750000Y-42481885D01*
X33750000Y-41468115D01*
X33745525Y-41452876D01*
X33744135Y-41451671D01*
X33736452Y-41450000D01*
X32556085Y-41450000D01*
X32549271Y-41450369D01*
X32499379Y-41455789D01*
X32484133Y-41459414D01*
X32365823Y-41503767D01*
X32350237Y-41512299D01*
X32249991Y-41587430D01*
X32237431Y-41599990D01*
X32227327Y-41613472D01*
X32170468Y-41655988D01*
X32099650Y-41661014D01*
X32037356Y-41626955D01*
X32003365Y-41564624D01*
X32000500Y-41537908D01*
X32000500Y-40876500D01*
X32020502Y-40808379D01*
X32074158Y-40761886D01*
X32126500Y-40750500D01*
X49873500Y-40750500D01*
X49941621Y-40770502D01*
G37*
G04 #@! TD.AperFunction*
G04 #@! TA.AperFunction,Conductor*
G36*
X37651331Y-48918799D02*
G01*
X37686811Y-48980294D01*
X37683412Y-49051209D01*
X37645765Y-49106131D01*
X37527137Y-49206557D01*
X37520479Y-49213100D01*
X37352399Y-49404759D01*
X37346791Y-49412201D01*
X37208880Y-49626608D01*
X37204437Y-49634791D01*
X37146287Y-49763880D01*
X37144408Y-49777451D01*
X37156924Y-49785241D01*
X39820395Y-50498915D01*
X42974907Y-51344164D01*
X42989163Y-51343824D01*
X42994660Y-51331121D01*
X43006679Y-51236641D01*
X43007166Y-51227345D01*
X43004778Y-51117881D01*
X43023289Y-51049340D01*
X43075918Y-51001688D01*
X43145955Y-50990054D01*
X43211164Y-51018131D01*
X43229136Y-51036420D01*
X43867807Y-51834759D01*
X43972389Y-51965486D01*
X43999325Y-52031175D01*
X44000000Y-52044198D01*
X44000000Y-61374000D01*
X43979998Y-61442121D01*
X43926342Y-61488614D01*
X43874000Y-61500000D01*
X43626471Y-61500000D01*
X43558350Y-61479998D01*
X43511857Y-61426342D01*
X43502365Y-61360328D01*
X43501252Y-61360207D01*
X43507631Y-61301486D01*
X43508000Y-61294672D01*
X43508000Y-60272115D01*
X43503525Y-60256876D01*
X43502135Y-60255671D01*
X43494452Y-60254000D01*
X38510116Y-60254000D01*
X38494877Y-60258475D01*
X38493672Y-60259865D01*
X38492001Y-60267548D01*
X38492001Y-61294669D01*
X38492371Y-61301490D01*
X38498748Y-61360207D01*
X38495262Y-61360586D01*
X38492474Y-61415574D01*
X38451115Y-61473280D01*
X38385123Y-61499466D01*
X38373530Y-61500000D01*
X36126000Y-61500000D01*
X36057879Y-61479998D01*
X36011386Y-61426342D01*
X36000000Y-61374000D01*
X36000000Y-59727885D01*
X38492000Y-59727885D01*
X38496475Y-59743124D01*
X38497865Y-59744329D01*
X38505548Y-59746000D01*
X40727885Y-59746000D01*
X40743124Y-59741525D01*
X40744329Y-59740135D01*
X40746000Y-59732452D01*
X40746000Y-59727885D01*
X41254000Y-59727885D01*
X41258475Y-59743124D01*
X41259865Y-59744329D01*
X41267548Y-59746000D01*
X43489884Y-59746000D01*
X43505123Y-59741525D01*
X43506328Y-59740135D01*
X43507999Y-59732452D01*
X43507999Y-58705331D01*
X43507629Y-58698510D01*
X43502105Y-58647648D01*
X43498479Y-58632396D01*
X43453324Y-58511946D01*
X43444786Y-58496351D01*
X43368285Y-58394276D01*
X43355724Y-58381715D01*
X43253649Y-58305214D01*
X43238054Y-58296676D01*
X43117606Y-58251522D01*
X43102351Y-58247895D01*
X43051486Y-58242369D01*
X43044672Y-58242000D01*
X41272115Y-58242000D01*
X41256876Y-58246475D01*
X41255671Y-58247865D01*
X41254000Y-58255548D01*
X41254000Y-59727885D01*
X40746000Y-59727885D01*
X40746000Y-58260116D01*
X40741525Y-58244877D01*
X40740135Y-58243672D01*
X40732452Y-58242001D01*
X38955331Y-58242001D01*
X38948510Y-58242371D01*
X38897648Y-58247895D01*
X38882396Y-58251521D01*
X38761946Y-58296676D01*
X38746351Y-58305214D01*
X38644276Y-58381715D01*
X38631715Y-58394276D01*
X38555214Y-58496351D01*
X38546676Y-58511946D01*
X38501522Y-58632394D01*
X38497895Y-58647649D01*
X38492369Y-58698514D01*
X38492000Y-58705328D01*
X38492000Y-59727885D01*
X36000000Y-59727885D01*
X36000000Y-52575659D01*
X39789853Y-52575659D01*
X39790231Y-52591535D01*
X39791264Y-52593061D01*
X39798249Y-52596662D01*
X40829113Y-52872881D01*
X40833632Y-52873914D01*
X41020297Y-52909353D01*
X41029554Y-52910407D01*
X41284284Y-52920417D01*
X41293598Y-52920091D01*
X41546996Y-52892340D01*
X41556173Y-52890639D01*
X41802686Y-52825737D01*
X41811506Y-52822700D01*
X42045723Y-52722073D01*
X42053995Y-52717766D01*
X42270764Y-52583625D01*
X42278304Y-52578147D01*
X42472871Y-52413436D01*
X42479521Y-52406900D01*
X42647601Y-52215241D01*
X42653208Y-52207799D01*
X42791116Y-51993398D01*
X42795563Y-51985206D01*
X42853713Y-51856119D01*
X42855592Y-51842550D01*
X42843074Y-51834759D01*
X40197102Y-51125773D01*
X40181226Y-51126151D01*
X40179700Y-51127184D01*
X40176099Y-51134169D01*
X39789853Y-52575659D01*
X36000000Y-52575659D01*
X36000000Y-50392654D01*
X36992834Y-50392654D01*
X36998395Y-50647516D01*
X36999289Y-50656802D01*
X37042459Y-50908040D01*
X37044713Y-50917080D01*
X37124548Y-51159185D01*
X37128113Y-51167791D01*
X37242849Y-51395424D01*
X37247658Y-51403428D01*
X37394781Y-51611603D01*
X37400707Y-51618792D01*
X37576988Y-51802938D01*
X37583924Y-51809183D01*
X37785484Y-51965247D01*
X37793252Y-51970388D01*
X38015671Y-52094948D01*
X38024130Y-52098893D01*
X38223092Y-52174272D01*
X38229090Y-52176207D01*
X39276978Y-52456988D01*
X39292854Y-52456610D01*
X39294380Y-52455577D01*
X39297981Y-52448592D01*
X39684227Y-51007102D01*
X39683849Y-50991226D01*
X39682816Y-50989700D01*
X39675831Y-50986099D01*
X37025093Y-50275836D01*
X37010837Y-50276176D01*
X37005340Y-50288879D01*
X36993321Y-50383359D01*
X36992834Y-50392654D01*
X36000000Y-50392654D01*
X36000000Y-49585306D01*
X36020002Y-49517185D01*
X36079205Y-49468318D01*
X37517560Y-48892976D01*
X37588236Y-48886248D01*
X37651331Y-48918799D01*
G37*
G04 #@! TD.AperFunction*
M02*
