G04 #@! TF.GenerationSoftware,KiCad,Pcbnew,6.0.4-6f826c9f35~116~ubuntu18.04.1*
G04 #@! TF.CreationDate,2022-10-10T17:48:02-04:00*
G04 #@! TF.ProjectId,4UP,3455502e-6b69-4636-9164-5f7063625858,rev?*
G04 #@! TF.SameCoordinates,Original*
G04 #@! TF.FileFunction,Legend,Top*
G04 #@! TF.FilePolarity,Positive*
%FSLAX46Y46*%
G04 Gerber Fmt 4.6, Leading zero omitted, Abs format (unit mm)*
G04 Created by KiCad (PCBNEW 6.0.4-6f826c9f35~116~ubuntu18.04.1) date 2022-10-10 17:48:02*
%MOMM*%
%LPD*%
G01*
G04 APERTURE LIST*
G04 Aperture macros list*
%AMHorizOval*
0 Thick line with rounded ends*
0 $1 width*
0 $2 $3 position (X,Y) of the first rounded end (center of the circle)*
0 $4 $5 position (X,Y) of the second rounded end (center of the circle)*
0 Add line between two ends*
20,1,$1,$2,$3,$4,$5,0*
0 Add two circle primitives to create the rounded ends*
1,1,$1,$2,$3*
1,1,$1,$4,$5*%
G04 Aperture macros list end*
%ADD10C,0.150000*%
%ADD11C,0.120000*%
%ADD12C,3.300000*%
%ADD13R,1.800000X1.800000*%
%ADD14C,1.800000*%
%ADD15R,4.000000X2.500000*%
%ADD16O,4.000000X2.500000*%
%ADD17R,2.000000X2.500000*%
%ADD18O,2.000000X2.500000*%
%ADD19HorizOval,2.540000X1.226726X-0.328700X-1.226726X0.328700X0*%
%ADD20R,2.540000X5.080000*%
%ADD21O,5.080000X2.540000*%
%ADD22R,2.750000X2.000000*%
%ADD23O,2.750000X2.000000*%
%ADD24R,2.500000X1.800000*%
%ADD25O,2.500000X1.800000*%
%ADD26R,2.800000X1.600000*%
%ADD27R,1.727200X1.727200*%
%ADD28O,1.727200X1.727200*%
G04 APERTURE END LIST*
D10*
X39571428Y-140857142D02*
X39571428Y-140095238D01*
X39952380Y-140476190D02*
X39190476Y-140476190D01*
X38952380Y-139142857D02*
X38952380Y-139619047D01*
X39428571Y-139666666D01*
X39380952Y-139619047D01*
X39333333Y-139523809D01*
X39333333Y-139285714D01*
X39380952Y-139190476D01*
X39428571Y-139142857D01*
X39523809Y-139095238D01*
X39761904Y-139095238D01*
X39857142Y-139142857D01*
X39904761Y-139190476D01*
X39952380Y-139285714D01*
X39952380Y-139523809D01*
X39904761Y-139619047D01*
X39857142Y-139666666D01*
X33000000Y-140261904D02*
X32952380Y-140357142D01*
X32952380Y-140500000D01*
X33000000Y-140642857D01*
X33095238Y-140738095D01*
X33190476Y-140785714D01*
X33380952Y-140833333D01*
X33523809Y-140833333D01*
X33714285Y-140785714D01*
X33809523Y-140738095D01*
X33904761Y-140642857D01*
X33952380Y-140500000D01*
X33952380Y-140404761D01*
X33904761Y-140261904D01*
X33857142Y-140214285D01*
X33523809Y-140214285D01*
X33523809Y-140404761D01*
X33952380Y-139785714D02*
X32952380Y-139785714D01*
X33952380Y-139214285D01*
X32952380Y-139214285D01*
X33952380Y-138738095D02*
X32952380Y-138738095D01*
X32952380Y-138500000D01*
X33000000Y-138357142D01*
X33095238Y-138261904D01*
X33190476Y-138214285D01*
X33380952Y-138166666D01*
X33523809Y-138166666D01*
X33714285Y-138214285D01*
X33809523Y-138261904D01*
X33904761Y-138357142D01*
X33952380Y-138500000D01*
X33952380Y-138738095D01*
X41488095Y-139750000D02*
X41392857Y-139702380D01*
X41250000Y-139702380D01*
X41107142Y-139750000D01*
X41011904Y-139845238D01*
X40964285Y-139940476D01*
X40916666Y-140130952D01*
X40916666Y-140273809D01*
X40964285Y-140464285D01*
X41011904Y-140559523D01*
X41107142Y-140654761D01*
X41250000Y-140702380D01*
X41345238Y-140702380D01*
X41488095Y-140654761D01*
X41535714Y-140607142D01*
X41535714Y-140273809D01*
X41345238Y-140273809D01*
X41964285Y-140702380D02*
X41964285Y-139702380D01*
X42535714Y-140702380D01*
X42535714Y-139702380D01*
X43011904Y-140702380D02*
X43011904Y-139702380D01*
X43250000Y-139702380D01*
X43392857Y-139750000D01*
X43488095Y-139845238D01*
X43535714Y-139940476D01*
X43583333Y-140130952D01*
X43583333Y-140273809D01*
X43535714Y-140464285D01*
X43488095Y-140559523D01*
X43392857Y-140654761D01*
X43250000Y-140702380D01*
X43011904Y-140702380D01*
X36071428Y-140833333D02*
X36071428Y-140071428D01*
X36452380Y-139071428D02*
X36452380Y-139642857D01*
X36452380Y-139357142D02*
X35452380Y-139357142D01*
X35595238Y-139452380D01*
X35690476Y-139547619D01*
X35738095Y-139642857D01*
X35547619Y-138690476D02*
X35500000Y-138642857D01*
X35452380Y-138547619D01*
X35452380Y-138309523D01*
X35500000Y-138214285D01*
X35547619Y-138166666D01*
X35642857Y-138119047D01*
X35738095Y-138119047D01*
X35880952Y-138166666D01*
X36452380Y-138738095D01*
X36452380Y-138119047D01*
X48000000Y-140261904D02*
X47952380Y-140357142D01*
X47952380Y-140500000D01*
X48000000Y-140642857D01*
X48095238Y-140738095D01*
X48190476Y-140785714D01*
X48380952Y-140833333D01*
X48523809Y-140833333D01*
X48714285Y-140785714D01*
X48809523Y-140738095D01*
X48904761Y-140642857D01*
X48952380Y-140500000D01*
X48952380Y-140404761D01*
X48904761Y-140261904D01*
X48857142Y-140214285D01*
X48523809Y-140214285D01*
X48523809Y-140404761D01*
X48952380Y-139785714D02*
X47952380Y-139785714D01*
X48952380Y-139214285D01*
X47952380Y-139214285D01*
X48952380Y-138738095D02*
X47952380Y-138738095D01*
X47952380Y-138500000D01*
X48000000Y-138357142D01*
X48095238Y-138261904D01*
X48190476Y-138214285D01*
X48380952Y-138166666D01*
X48523809Y-138166666D01*
X48714285Y-138214285D01*
X48809523Y-138261904D01*
X48904761Y-138357142D01*
X48952380Y-138500000D01*
X48952380Y-138738095D01*
X45821428Y-140833333D02*
X45821428Y-140071428D01*
X46202380Y-140452380D02*
X45440476Y-140452380D01*
X46202380Y-139071428D02*
X46202380Y-139642857D01*
X46202380Y-139357142D02*
X45202380Y-139357142D01*
X45345238Y-139452380D01*
X45440476Y-139547619D01*
X45488095Y-139642857D01*
X45297619Y-138690476D02*
X45250000Y-138642857D01*
X45202380Y-138547619D01*
X45202380Y-138309523D01*
X45250000Y-138214285D01*
X45297619Y-138166666D01*
X45392857Y-138119047D01*
X45488095Y-138119047D01*
X45630952Y-138166666D01*
X46202380Y-138738095D01*
X46202380Y-138119047D01*
X40261904Y-104202380D02*
X40261904Y-103202380D01*
X40500000Y-103202380D01*
X40642857Y-103250000D01*
X40738095Y-103345238D01*
X40785714Y-103440476D01*
X40833333Y-103630952D01*
X40833333Y-103773809D01*
X40785714Y-103964285D01*
X40738095Y-104059523D01*
X40642857Y-104154761D01*
X40500000Y-104202380D01*
X40261904Y-104202380D01*
X41785714Y-104202380D02*
X41214285Y-104202380D01*
X41500000Y-104202380D02*
X41500000Y-103202380D01*
X41404761Y-103345238D01*
X41309523Y-103440476D01*
X41214285Y-103488095D01*
X46195238Y-65966666D02*
X46147619Y-66109523D01*
X46147619Y-66347619D01*
X46195238Y-66442857D01*
X46242857Y-66490476D01*
X46338095Y-66538095D01*
X46433333Y-66538095D01*
X46528571Y-66490476D01*
X46576190Y-66442857D01*
X46623809Y-66347619D01*
X46671428Y-66157142D01*
X46719047Y-66061904D01*
X46766666Y-66014285D01*
X46861904Y-65966666D01*
X46957142Y-65966666D01*
X47052380Y-66014285D01*
X47100000Y-66061904D01*
X47147619Y-66157142D01*
X47147619Y-66395238D01*
X47100000Y-66538095D01*
X47147619Y-66871428D02*
X46147619Y-67109523D01*
X46861904Y-67300000D01*
X46147619Y-67490476D01*
X47147619Y-67728571D01*
X46147619Y-68633333D02*
X46147619Y-68061904D01*
X46147619Y-68347619D02*
X47147619Y-68347619D01*
X47004761Y-68252380D01*
X46909523Y-68157142D01*
X46861904Y-68061904D01*
D11*
X42080000Y-101790000D02*
X42236000Y-101790000D01*
X39764000Y-101790000D02*
X39920000Y-101790000D01*
X42080000Y-101270961D02*
G75*
G03*
X42079837Y-99188870I-1080000J1040961D01*
G01*
X39920163Y-99188870D02*
G75*
G03*
X39920000Y-101270961I1079837J-1041130D01*
G01*
X39921392Y-98557665D02*
G75*
G03*
X39764484Y-101790000I1078608J-1672335D01*
G01*
X42235516Y-101790000D02*
G75*
G03*
X42078608Y-98557665I-1235516J1560000D01*
G01*
X47550000Y-57300000D02*
X34450000Y-57300000D01*
X34450000Y-57300000D02*
X34450000Y-76700000D01*
X34450000Y-76700000D02*
X47550000Y-76700000D01*
X47550000Y-76700000D02*
X47550000Y-57300000D01*
X44340000Y-141130000D02*
X44340000Y-147870000D01*
X44100000Y-148110000D02*
X44500000Y-148110000D01*
X44340000Y-142250000D02*
X50120000Y-142250000D01*
X44340000Y-147350000D02*
X50120000Y-147350000D01*
X44340000Y-141130000D02*
X50120000Y-141130000D01*
X44340000Y-147870000D02*
X50120000Y-147870000D01*
X44100000Y-147470000D02*
X44100000Y-148110000D01*
X50120000Y-141130000D02*
X50120000Y-147870000D01*
X43890000Y-141130000D02*
X43890000Y-147870000D01*
X38110000Y-147350000D02*
X43890000Y-147350000D01*
X37870000Y-148110000D02*
X38270000Y-148110000D01*
X38110000Y-141130000D02*
X43890000Y-141130000D01*
X38110000Y-141130000D02*
X38110000Y-147870000D01*
X37870000Y-147470000D02*
X37870000Y-148110000D01*
X38110000Y-147870000D02*
X43890000Y-147870000D01*
X38110000Y-142250000D02*
X43890000Y-142250000D01*
D10*
X45750000Y-47000000D02*
G75*
G03*
X45750000Y-47000000I-4750000J0D01*
G01*
D11*
X31860000Y-147870000D02*
X37640000Y-147870000D01*
X31860000Y-147350000D02*
X37640000Y-147350000D01*
X31860000Y-141130000D02*
X31860000Y-147870000D01*
X31620000Y-147470000D02*
X31620000Y-148110000D01*
X31860000Y-141130000D02*
X37640000Y-141130000D01*
X31860000Y-142250000D02*
X37640000Y-142250000D01*
X37640000Y-141130000D02*
X37640000Y-147870000D01*
X31620000Y-148110000D02*
X32020000Y-148110000D01*
%LPC*%
D12*
X41000000Y-136500000D03*
D13*
X41000000Y-101500000D03*
D14*
X41000000Y-98960000D03*
D15*
X41000000Y-60000000D03*
D16*
X41000000Y-67000000D03*
D17*
X45960000Y-144500000D03*
D18*
X48500000Y-144500000D03*
D17*
X39730000Y-144500000D03*
D18*
X42270000Y-144500000D03*
D19*
X40000000Y-50810000D03*
D20*
X44810000Y-47000000D03*
D21*
X41000000Y-43190000D03*
D17*
X33480000Y-144500000D03*
D18*
X36020000Y-144500000D03*
D22*
X33507750Y-73790000D03*
D23*
X33507750Y-71250000D03*
X33507750Y-68710000D03*
D24*
X42912000Y-88417500D03*
D25*
X42912000Y-90957500D03*
X42912000Y-93497500D03*
D26*
X34000000Y-42750000D03*
D27*
X44500000Y-127265000D03*
D28*
X47040000Y-127265000D03*
X44500000Y-124725000D03*
X47040000Y-124725000D03*
X44500000Y-122185000D03*
X47040000Y-122185000D03*
X44500000Y-119645000D03*
X47040000Y-119645000D03*
X44500000Y-117105000D03*
X47040000Y-117105000D03*
X44500000Y-114565000D03*
X47040000Y-114565000D03*
X44500000Y-112025000D03*
X47040000Y-112025000D03*
X44500000Y-109485000D03*
X47040000Y-109485000D03*
D27*
X34855000Y-127265000D03*
D28*
X37395000Y-127265000D03*
X34855000Y-124725000D03*
X37395000Y-124725000D03*
X34855000Y-122185000D03*
X37395000Y-122185000D03*
X34855000Y-119645000D03*
X37395000Y-119645000D03*
X34855000Y-117105000D03*
X37395000Y-117105000D03*
X34855000Y-114565000D03*
X37395000Y-114565000D03*
X34855000Y-112025000D03*
X37395000Y-112025000D03*
X34855000Y-109485000D03*
X37395000Y-109485000D03*
D24*
X33412000Y-88417500D03*
D25*
X33412000Y-90957500D03*
X33412000Y-93497500D03*
M02*
