M48
; DRILL file {KiCad 6.0.4-6f826c9f35~116~ubuntu18.04.1} date Mon 10 Oct 2022 05:48:04 PM EDT
; FORMAT={-:-/ absolute / metric / decimal}
; #@! TF.CreationDate,2022-10-10T17:48:04-04:00
; #@! TF.GenerationSoftware,Kicad,Pcbnew,6.0.4-6f826c9f35~116~ubuntu18.04.1
; #@! TF.FileFunction,MixedPlating,1,4
FMAT,2
METRIC
; #@! TA.AperFunction,Plated,PTH,ViaDrill
T1C0.400
; #@! TA.AperFunction,Plated,PTH,ComponentDrill
T2C0.635
; #@! TA.AperFunction,Plated,PTH,ComponentDrill
T3C0.900
; #@! TA.AperFunction,Plated,PTH,ComponentDrill
T4C1.016
; #@! TA.AperFunction,Plated,PTH,ComponentDrill
T5C1.100
; #@! TA.AperFunction,Plated,PTH,ComponentDrill
T6C1.190
; #@! TA.AperFunction,Plated,PTH,ComponentDrill
T7C1.200
; #@! TA.AperFunction,Plated,PTH,ComponentDrill
T8C1.400
; #@! TA.AperFunction,NonPlated,NPTH,ComponentDrill
T9C3.300
%
G90
G05
T1
X33.5Y-104.5
X33.5Y-105.5
X33.5Y-106.5
X34.5Y-104.5
X34.5Y-105.5
X34.5Y-106.5
X35.5Y-104.5
X35.5Y-105.5
X35.5Y-106.5
X35.75Y-77.0
X36.5Y-104.5
X36.5Y-105.5
X36.5Y-106.5
X36.75Y-77.0
X37.5Y-104.5
X37.5Y-105.5
X37.5Y-106.5
X37.75Y-77.0
X40.25Y-79.0
X46.0Y-96.0
X46.0Y-97.0
X46.0Y-98.0
X46.0Y-99.0
X46.0Y-100.0
X46.0Y-101.0
X47.0Y-96.0
X47.0Y-97.0
X47.0Y-98.0
X47.0Y-99.0
X47.0Y-100.0
X47.0Y-101.0
X48.0Y-96.0
X48.0Y-97.0
X48.0Y-98.0
X48.0Y-99.0
X48.0Y-100.0
X48.0Y-101.0
X49.0Y-96.0
X49.0Y-97.0
X49.0Y-98.0
X49.0Y-99.0
X49.0Y-100.0
X49.0Y-101.0
X49.25Y-63.25
X49.25Y-64.25
X49.25Y-65.25
X49.25Y-70.0
X49.25Y-71.0
X49.25Y-72.0
X49.25Y-73.0
X49.25Y-85.75
X49.25Y-86.75
T3
X41.0Y-98.96
X41.0Y-101.5
T4
X34.855Y-109.485
X34.855Y-112.025
X34.855Y-114.565
X34.855Y-117.105
X34.855Y-119.645
X34.855Y-122.185
X34.855Y-124.725
X34.855Y-127.265
X37.395Y-109.485
X37.395Y-112.025
X37.395Y-114.565
X37.395Y-117.105
X37.395Y-119.645
X37.395Y-122.185
X37.395Y-124.725
X37.395Y-127.265
X44.5Y-109.485
X44.5Y-112.025
X44.5Y-114.565
X44.5Y-117.105
X44.5Y-119.645
X44.5Y-122.185
X44.5Y-124.725
X44.5Y-127.265
X47.04Y-109.485
X47.04Y-112.025
X47.04Y-114.565
X47.04Y-117.105
X47.04Y-119.645
X47.04Y-122.185
X47.04Y-124.725
X47.04Y-127.265
T5
X33.48Y-144.5
X36.02Y-144.5
X39.73Y-144.5
X42.27Y-144.5
X45.96Y-144.5
X48.5Y-144.5
T6
X34.0Y-42.75
T7
X33.412Y-88.417
X33.412Y-90.957
X33.412Y-93.498
X33.508Y-68.71
X33.508Y-71.25
X33.508Y-73.79
X42.912Y-88.417
X42.912Y-90.957
X42.912Y-93.498
T8
X41.0Y-60.0
X41.0Y-67.0
T9
X41.0Y-136.5
T2
X38.773Y-50.481G85X41.227Y-51.139
G05
X39.73Y-43.19G85X42.27Y-43.19
G05
X44.81Y-45.73G85X44.81Y-48.27
G05
T0
M30
