G04 #@! TF.GenerationSoftware,KiCad,Pcbnew,6.0.4-6f826c9f35~116~ubuntu18.04.1*
G04 #@! TF.CreationDate,2022-10-10T17:57:14-04:00*
G04 #@! TF.ProjectId,4UP-panel,3455502d-7061-46e6-956c-2e6b69636164,rev?*
G04 #@! TF.SameCoordinates,Original*
G04 #@! TF.FileFunction,Legend,Top*
G04 #@! TF.FilePolarity,Positive*
%FSLAX46Y46*%
G04 Gerber Fmt 4.6, Leading zero omitted, Abs format (unit mm)*
G04 Created by KiCad (PCBNEW 6.0.4-6f826c9f35~116~ubuntu18.04.1) date 2022-10-10 17:57:14*
%MOMM*%
%LPD*%
G01*
G04 APERTURE LIST*
%ADD10C,0.384998*%
%ADD11C,0.000000*%
%ADD12C,3.300000*%
%ADD13O,6.300000X3.300000*%
G04 APERTURE END LIST*
D10*
X46667009Y-37874935D02*
X46714163Y-37908467D01*
X47078674Y-38350818D02*
X47102759Y-38404093D01*
X47023153Y-38248593D02*
X47052113Y-38298959D01*
X44864823Y-38458710D02*
X44886358Y-38404093D01*
X37405777Y-38934136D02*
X37401133Y-38995215D01*
X45104288Y-39680924D02*
X45066486Y-39637284D01*
X45066486Y-39637284D02*
X45030781Y-39591849D01*
X37382907Y-39114633D02*
X37369478Y-39172822D01*
X35580978Y-39900840D02*
X35532180Y-39869556D01*
X46056453Y-40073396D02*
X45994562Y-40074961D01*
X44793406Y-38810353D02*
X44798051Y-38749273D01*
X45473135Y-39956360D02*
X45421276Y-39929800D01*
X35096425Y-38404093D02*
X35120511Y-38350818D01*
X46714163Y-39836024D02*
X46667009Y-39869556D01*
X45636912Y-37723603D02*
X45693985Y-37707396D01*
X44965964Y-38248593D02*
X44997248Y-38199795D01*
X45932670Y-40073396D02*
X45871592Y-40068752D01*
X35791096Y-40001980D02*
X35736479Y-39980446D01*
X45370910Y-39900840D02*
X45322112Y-39869556D01*
X36204629Y-40074961D02*
X36204629Y-40074961D01*
X37132701Y-38107206D02*
X37168405Y-38152641D01*
X46922633Y-39637284D02*
X46884831Y-39680924D01*
X37393484Y-39055406D02*
X37382907Y-39114633D01*
X37233221Y-39495896D02*
X37201937Y-39544694D01*
D11*
G36*
X43429765Y-31563776D02*
G01*
X44099824Y-31563776D01*
X44099824Y-33334334D01*
X44400331Y-33334334D01*
X44400331Y-33805403D01*
X44099824Y-33805403D01*
X44099824Y-34442972D01*
X43531297Y-34442972D01*
X43531297Y-33805403D01*
X42377992Y-33805403D01*
X42377992Y-33334334D01*
X42780016Y-33334334D01*
X43531297Y-33334334D01*
X43531297Y-32103876D01*
X42780016Y-33334334D01*
X42377992Y-33334334D01*
X42377992Y-33326216D01*
X43429765Y-31563776D01*
G37*
D10*
X37353271Y-39229895D02*
X37334362Y-39285778D01*
X35683203Y-37788131D02*
X35736479Y-37764046D01*
D11*
G36*
X42219560Y-54635397D02*
G01*
X42663606Y-53102209D01*
X43085298Y-53102209D01*
X42387117Y-55138090D01*
X42032457Y-55138090D01*
X41345445Y-53102209D01*
X41767137Y-53102209D01*
X42219560Y-54635397D01*
G37*
D10*
X35580978Y-37843652D02*
X35631344Y-37814692D01*
X45104288Y-38063566D02*
X45144112Y-38021797D01*
X37405777Y-38810353D02*
X37407342Y-38872244D01*
X45421276Y-39929800D02*
X45370910Y-39900840D01*
X45229522Y-39800319D02*
X45185882Y-39762517D01*
X45752173Y-40050526D02*
X45693985Y-40037096D01*
X46884831Y-38063566D02*
X46922633Y-38107206D01*
X36204629Y-37669531D02*
X36266521Y-37671096D01*
X35003474Y-38934136D02*
X35001909Y-38872244D01*
X36726054Y-37788131D02*
X36777913Y-37814692D01*
X46618211Y-37843652D02*
X46667009Y-37874935D01*
X47172840Y-38629855D02*
X47183417Y-38689082D01*
X36327599Y-37675741D02*
X36387790Y-37683389D01*
X35039774Y-39172822D02*
X35026344Y-39114633D01*
X46958338Y-38152641D02*
X46991870Y-38199795D01*
X44997248Y-39544694D02*
X44965964Y-39495896D01*
X45473135Y-37788131D02*
X45526411Y-37764046D01*
D11*
G36*
X36600664Y-53507140D02*
G01*
X35782403Y-53507140D01*
X35718164Y-53920462D01*
X35739449Y-53904846D01*
X35760415Y-53890445D01*
X35781136Y-53877230D01*
X35801684Y-53865173D01*
X35822135Y-53854246D01*
X35842561Y-53844419D01*
X35863036Y-53835664D01*
X35883634Y-53827952D01*
X35904428Y-53821255D01*
X35925493Y-53815543D01*
X35946900Y-53810789D01*
X35968725Y-53806964D01*
X35991041Y-53804038D01*
X36013921Y-53801984D01*
X36037440Y-53800773D01*
X36061670Y-53800375D01*
X36095628Y-53801189D01*
X36128890Y-53803611D01*
X36161432Y-53807612D01*
X36193227Y-53813166D01*
X36224251Y-53820244D01*
X36254479Y-53828817D01*
X36283886Y-53838858D01*
X36312446Y-53850339D01*
X36340135Y-53863231D01*
X36366928Y-53877506D01*
X36392799Y-53893136D01*
X36417723Y-53910093D01*
X36441676Y-53928350D01*
X36464633Y-53947876D01*
X36486567Y-53968646D01*
X36507455Y-53990629D01*
X36527271Y-54013800D01*
X36545991Y-54038128D01*
X36563588Y-54063587D01*
X36580038Y-54090147D01*
X36595317Y-54117781D01*
X36609398Y-54146461D01*
X36622257Y-54176159D01*
X36633869Y-54206846D01*
X36644208Y-54238494D01*
X36653251Y-54271076D01*
X36660970Y-54304562D01*
X36667343Y-54338926D01*
X36672343Y-54374138D01*
X36675945Y-54410171D01*
X36678125Y-54446997D01*
X36678857Y-54484587D01*
X36678011Y-54524239D01*
X36675492Y-54563062D01*
X36671328Y-54601026D01*
X36665548Y-54638104D01*
X36658181Y-54674268D01*
X36649255Y-54709489D01*
X36638799Y-54743740D01*
X36626842Y-54776992D01*
X36613412Y-54809218D01*
X36598538Y-54840388D01*
X36582248Y-54870476D01*
X36564572Y-54899452D01*
X36545537Y-54927289D01*
X36525173Y-54953958D01*
X36503508Y-54979432D01*
X36480571Y-55003683D01*
X36456391Y-55026681D01*
X36430995Y-55048399D01*
X36404413Y-55068810D01*
X36376673Y-55087884D01*
X36347804Y-55105594D01*
X36317835Y-55121911D01*
X36286794Y-55136808D01*
X36254710Y-55150257D01*
X36221611Y-55162228D01*
X36187527Y-55172694D01*
X36152485Y-55181628D01*
X36116515Y-55189000D01*
X36079645Y-55194783D01*
X36041904Y-55198949D01*
X36003320Y-55201468D01*
X35963922Y-55202315D01*
X35928156Y-55201631D01*
X35893134Y-55199596D01*
X35858881Y-55196231D01*
X35825422Y-55191558D01*
X35792781Y-55185602D01*
X35760983Y-55178383D01*
X35730052Y-55169925D01*
X35700013Y-55160249D01*
X35670890Y-55149379D01*
X35642708Y-55137337D01*
X35615492Y-55124146D01*
X35589265Y-55109828D01*
X35564054Y-55094404D01*
X35539881Y-55077899D01*
X35516772Y-55060335D01*
X35494750Y-55041733D01*
X35473842Y-55022117D01*
X35454071Y-55001509D01*
X35435462Y-54979931D01*
X35418039Y-54957406D01*
X35401827Y-54933956D01*
X35386850Y-54909605D01*
X35373134Y-54884374D01*
X35360702Y-54858286D01*
X35349579Y-54831363D01*
X35339790Y-54803629D01*
X35331358Y-54775105D01*
X35324310Y-54745813D01*
X35318669Y-54715777D01*
X35314459Y-54685020D01*
X35311706Y-54653562D01*
X35310434Y-54621428D01*
X35695825Y-54621428D01*
X35696864Y-54636139D01*
X35698408Y-54650421D01*
X35700455Y-54664273D01*
X35703003Y-54677692D01*
X35706050Y-54690676D01*
X35709595Y-54703221D01*
X35713634Y-54715325D01*
X35718167Y-54726986D01*
X35723190Y-54738201D01*
X35728702Y-54748967D01*
X35734701Y-54759283D01*
X35741185Y-54769145D01*
X35748152Y-54778551D01*
X35755599Y-54787498D01*
X35763525Y-54795984D01*
X35771927Y-54804006D01*
X35780804Y-54811562D01*
X35790154Y-54818648D01*
X35799974Y-54825264D01*
X35810262Y-54831405D01*
X35821017Y-54837070D01*
X35832236Y-54842255D01*
X35843918Y-54846959D01*
X35856059Y-54851178D01*
X35868659Y-54854911D01*
X35881715Y-54858154D01*
X35895225Y-54860906D01*
X35909187Y-54863162D01*
X35923599Y-54864922D01*
X35938459Y-54866182D01*
X35969514Y-54867194D01*
X35987627Y-54866778D01*
X36005305Y-54865537D01*
X36022539Y-54863482D01*
X36039321Y-54860621D01*
X36055640Y-54856964D01*
X36071487Y-54852521D01*
X36086854Y-54847302D01*
X36101731Y-54841317D01*
X36116109Y-54834574D01*
X36129978Y-54827085D01*
X36143330Y-54818858D01*
X36156155Y-54809904D01*
X36168445Y-54800231D01*
X36180189Y-54789850D01*
X36191379Y-54778771D01*
X36202006Y-54767003D01*
X36212060Y-54754556D01*
X36221532Y-54741440D01*
X36230412Y-54727664D01*
X36238693Y-54713238D01*
X36246364Y-54698172D01*
X36253416Y-54682475D01*
X36259840Y-54666158D01*
X36265627Y-54649230D01*
X36270768Y-54631700D01*
X36275253Y-54613579D01*
X36279073Y-54594876D01*
X36282220Y-54575600D01*
X36286454Y-54535372D01*
X36287881Y-54492972D01*
X36287531Y-54470743D01*
X36286484Y-54449096D01*
X36284750Y-54428037D01*
X36282334Y-54407576D01*
X36279246Y-54387720D01*
X36275492Y-54368478D01*
X36271081Y-54349858D01*
X36266020Y-54331868D01*
X36260316Y-54314516D01*
X36253978Y-54297810D01*
X36247013Y-54281759D01*
X36239429Y-54266370D01*
X36231233Y-54251653D01*
X36222434Y-54237614D01*
X36213037Y-54224263D01*
X36203053Y-54211607D01*
X36192488Y-54199655D01*
X36181349Y-54188415D01*
X36169645Y-54177895D01*
X36157383Y-54168103D01*
X36144570Y-54159047D01*
X36131215Y-54150736D01*
X36117326Y-54143177D01*
X36102909Y-54136380D01*
X36087972Y-54130351D01*
X36072524Y-54125100D01*
X36056571Y-54120634D01*
X36040122Y-54116962D01*
X36023184Y-54114091D01*
X36005765Y-54112031D01*
X35987873Y-54110789D01*
X35969514Y-54110373D01*
X35958347Y-54110528D01*
X35947362Y-54110993D01*
X35936564Y-54111765D01*
X35925954Y-54112844D01*
X35915537Y-54114227D01*
X35905316Y-54115913D01*
X35895292Y-54117902D01*
X35885470Y-54120190D01*
X35875853Y-54122777D01*
X35866443Y-54125661D01*
X35857244Y-54128841D01*
X35848259Y-54132314D01*
X35839491Y-54136081D01*
X35830942Y-54140138D01*
X35822616Y-54144484D01*
X35814517Y-54149119D01*
X35806646Y-54154040D01*
X35799008Y-54159245D01*
X35791604Y-54164734D01*
X35784439Y-54170505D01*
X35777516Y-54176556D01*
X35770837Y-54182886D01*
X35764405Y-54189493D01*
X35758224Y-54196375D01*
X35752296Y-54203532D01*
X35746626Y-54210961D01*
X35741215Y-54218661D01*
X35736067Y-54226631D01*
X35731184Y-54234869D01*
X35726571Y-54243374D01*
X35722230Y-54252143D01*
X35718164Y-54261175D01*
X35366281Y-54261175D01*
X35542223Y-53158064D01*
X36600664Y-53158064D01*
X36600664Y-53507140D01*
G37*
D10*
X47143203Y-38514593D02*
X47159410Y-38571667D01*
X47124294Y-39285778D02*
X47102759Y-39340396D01*
X44937004Y-39445530D02*
X44910443Y-39393672D01*
X36672779Y-39980446D02*
X36618162Y-40001980D01*
X47191065Y-38749273D02*
X47195710Y-38810353D01*
X36021468Y-40061103D02*
X35962241Y-40050526D01*
X46462711Y-39980446D02*
X46408094Y-40001980D01*
X37055075Y-39722693D02*
X37013306Y-39762517D01*
D11*
G36*
X37215353Y-54261446D02*
G01*
X37231971Y-54262236D01*
X37248171Y-54263558D01*
X37263974Y-54265416D01*
X37279401Y-54267815D01*
X37294471Y-54270757D01*
X37309206Y-54274247D01*
X37323625Y-54278290D01*
X37337750Y-54282889D01*
X37351600Y-54288048D01*
X37365197Y-54293772D01*
X37378561Y-54300064D01*
X37391712Y-54306929D01*
X37404670Y-54314371D01*
X37417458Y-54322393D01*
X37430093Y-54331000D01*
X37589273Y-54448294D01*
X37602507Y-54457820D01*
X37615034Y-54466524D01*
X37626931Y-54474436D01*
X37638276Y-54481582D01*
X37649146Y-54487993D01*
X37659620Y-54493696D01*
X37669774Y-54498721D01*
X37679687Y-54503095D01*
X37689436Y-54506848D01*
X37699100Y-54510007D01*
X37708755Y-54512602D01*
X37718480Y-54514661D01*
X37728353Y-54516213D01*
X37738450Y-54517286D01*
X37748850Y-54517909D01*
X37759630Y-54518111D01*
X37771840Y-54517891D01*
X37783351Y-54517237D01*
X37794185Y-54516157D01*
X37804360Y-54514658D01*
X37813900Y-54512748D01*
X37822824Y-54510434D01*
X37831154Y-54507725D01*
X37838911Y-54504627D01*
X37846116Y-54501149D01*
X37852789Y-54497299D01*
X37858952Y-54493083D01*
X37864625Y-54488510D01*
X37869830Y-54483586D01*
X37874588Y-54478321D01*
X37878919Y-54472722D01*
X37882845Y-54466795D01*
X37886387Y-54460550D01*
X37889565Y-54453993D01*
X37892401Y-54447132D01*
X37894915Y-54439976D01*
X37899063Y-54424805D01*
X37902176Y-54408541D01*
X37904424Y-54391247D01*
X37905973Y-54372983D01*
X37906991Y-54353811D01*
X37907648Y-54333792D01*
X38125482Y-54333792D01*
X38121191Y-54383474D01*
X38118182Y-54407090D01*
X38114593Y-54429891D01*
X38110424Y-54451878D01*
X38105671Y-54473051D01*
X38100334Y-54493413D01*
X38094410Y-54512964D01*
X38087897Y-54531704D01*
X38080792Y-54549636D01*
X38073095Y-54566760D01*
X38064802Y-54583076D01*
X38055912Y-54598587D01*
X38046423Y-54613293D01*
X38036332Y-54627195D01*
X38025638Y-54640294D01*
X38014339Y-54652592D01*
X38002432Y-54664088D01*
X37989915Y-54674785D01*
X37976788Y-54684683D01*
X37963046Y-54693783D01*
X37948689Y-54702087D01*
X37933714Y-54709595D01*
X37918119Y-54716308D01*
X37901903Y-54722228D01*
X37885063Y-54727355D01*
X37867597Y-54731690D01*
X37849503Y-54735235D01*
X37830779Y-54737991D01*
X37811423Y-54739957D01*
X37791433Y-54741137D01*
X37770807Y-54741530D01*
X37753815Y-54741267D01*
X37737367Y-54740471D01*
X37721417Y-54739136D01*
X37705922Y-54737253D01*
X37690836Y-54734813D01*
X37676114Y-54731808D01*
X37661711Y-54728231D01*
X37647582Y-54724073D01*
X37633681Y-54719325D01*
X37619965Y-54713981D01*
X37606388Y-54708031D01*
X37592904Y-54701467D01*
X37579470Y-54694282D01*
X37566040Y-54686466D01*
X37552568Y-54678013D01*
X37539011Y-54668913D01*
X37379831Y-54551627D01*
X37367977Y-54543051D01*
X37356475Y-54535118D01*
X37345283Y-54527814D01*
X37334362Y-54521127D01*
X37323670Y-54515047D01*
X37313166Y-54509559D01*
X37302809Y-54504652D01*
X37292559Y-54500313D01*
X37282374Y-54496531D01*
X37272214Y-54493293D01*
X37262038Y-54490586D01*
X37251805Y-54488399D01*
X37241473Y-54486720D01*
X37231003Y-54485535D01*
X37220353Y-54484833D01*
X37209482Y-54484602D01*
X37197770Y-54484806D01*
X37186711Y-54485414D01*
X37176283Y-54486420D01*
X37166468Y-54487820D01*
X37157245Y-54489609D01*
X37148597Y-54491782D01*
X37140503Y-54494332D01*
X37132944Y-54497257D01*
X37125900Y-54500549D01*
X37119352Y-54504204D01*
X37113281Y-54508218D01*
X37107667Y-54512584D01*
X37102490Y-54517297D01*
X37097732Y-54522354D01*
X37093373Y-54527748D01*
X37089393Y-54533474D01*
X37085773Y-54539528D01*
X37082494Y-54545904D01*
X37079536Y-54552597D01*
X37076880Y-54559601D01*
X37072394Y-54574526D01*
X37068882Y-54590638D01*
X37066189Y-54607894D01*
X37064158Y-54626256D01*
X37062635Y-54645681D01*
X37061464Y-54666128D01*
X36843629Y-54666128D01*
X36845249Y-54641133D01*
X36847489Y-54616938D01*
X36850350Y-54593545D01*
X36853829Y-54570951D01*
X36857925Y-54549158D01*
X36862639Y-54528164D01*
X36867968Y-54507968D01*
X36873912Y-54488571D01*
X36880469Y-54469972D01*
X36887639Y-54452169D01*
X36895421Y-54435164D01*
X36903813Y-54418955D01*
X36912815Y-54403541D01*
X36922425Y-54388923D01*
X36932643Y-54375099D01*
X36943467Y-54362069D01*
X36954896Y-54349833D01*
X36966930Y-54338391D01*
X36979568Y-54327740D01*
X36992807Y-54317882D01*
X37006649Y-54308816D01*
X37021090Y-54300541D01*
X37036131Y-54293056D01*
X37051770Y-54286361D01*
X37068006Y-54280456D01*
X37084839Y-54275340D01*
X37102266Y-54271012D01*
X37120288Y-54267472D01*
X37138903Y-54264720D01*
X37158110Y-54262755D01*
X37177909Y-54261576D01*
X37198297Y-54261183D01*
X37215353Y-54261446D01*
G37*
D10*
X35147072Y-38298959D02*
X35176032Y-38248593D01*
X44793406Y-38934136D02*
X44791841Y-38872244D01*
X36924231Y-37908467D02*
X36969666Y-37944172D01*
X44816276Y-38629855D02*
X44829706Y-38571667D01*
X35015767Y-38689082D02*
X35026344Y-38629855D01*
X36447017Y-37693966D02*
X36505205Y-37707396D01*
X35015767Y-39055406D02*
X35008118Y-38995215D01*
X36387790Y-37683389D02*
X36447017Y-37693966D01*
D11*
G36*
X49167848Y-31482554D02*
G01*
X49224893Y-31483504D01*
X49280285Y-31486347D01*
X49334015Y-31491073D01*
X49386072Y-31497671D01*
X49436445Y-31506131D01*
X49485125Y-31516443D01*
X49532101Y-31528596D01*
X49577362Y-31542579D01*
X49620898Y-31558382D01*
X49662698Y-31575996D01*
X49702753Y-31595409D01*
X49741051Y-31616611D01*
X49777583Y-31639592D01*
X49812338Y-31664341D01*
X49845305Y-31690847D01*
X49876474Y-31719101D01*
X49905835Y-31749092D01*
X49933377Y-31780810D01*
X49959090Y-31814244D01*
X49982963Y-31849383D01*
X50004986Y-31886219D01*
X50025149Y-31924738D01*
X50043441Y-31964933D01*
X50059852Y-32006792D01*
X50074371Y-32050304D01*
X50086988Y-32095460D01*
X50097693Y-32142248D01*
X50106474Y-32190659D01*
X50113323Y-32240682D01*
X50118227Y-32292307D01*
X50121178Y-32345523D01*
X50122163Y-32400320D01*
X50121145Y-32456030D01*
X50118108Y-32510448D01*
X50113082Y-32563542D01*
X50106094Y-32615281D01*
X50097173Y-32665634D01*
X50086346Y-32714570D01*
X50073643Y-32762057D01*
X50059092Y-32808064D01*
X50042720Y-32852561D01*
X50024556Y-32895515D01*
X50004628Y-32936896D01*
X49982965Y-32976672D01*
X49959594Y-33014812D01*
X49934545Y-33051286D01*
X49907845Y-33086060D01*
X49879522Y-33119106D01*
X49849605Y-33150390D01*
X49818122Y-33179883D01*
X49785102Y-33207552D01*
X49750572Y-33233366D01*
X49714560Y-33257295D01*
X49677096Y-33279307D01*
X49638208Y-33299371D01*
X49597922Y-33317456D01*
X49556269Y-33333529D01*
X49513276Y-33347561D01*
X49468971Y-33359520D01*
X49423383Y-33369375D01*
X49376539Y-33377094D01*
X49328469Y-33382646D01*
X49279200Y-33386000D01*
X49228761Y-33387125D01*
X48469362Y-33387125D01*
X48469362Y-34442965D01*
X47860231Y-34442965D01*
X47860231Y-32879511D01*
X48469362Y-32879511D01*
X49037889Y-32879511D01*
X49096763Y-32877842D01*
X49124676Y-32875750D01*
X49151579Y-32872817D01*
X49177477Y-32869039D01*
X49202375Y-32864414D01*
X49226276Y-32858938D01*
X49249184Y-32852608D01*
X49271106Y-32845422D01*
X49292044Y-32837376D01*
X49312004Y-32828467D01*
X49330990Y-32818694D01*
X49349006Y-32808051D01*
X49366057Y-32796537D01*
X49382147Y-32784149D01*
X49397281Y-32770883D01*
X49411463Y-32756737D01*
X49424698Y-32741707D01*
X49436990Y-32725791D01*
X49448344Y-32708986D01*
X49458764Y-32691288D01*
X49468254Y-32672695D01*
X49476819Y-32653204D01*
X49484464Y-32632811D01*
X49491193Y-32611515D01*
X49497009Y-32589311D01*
X49501919Y-32566196D01*
X49505926Y-32542169D01*
X49509035Y-32517226D01*
X49511250Y-32491363D01*
X49512576Y-32464579D01*
X49513017Y-32436869D01*
X49511250Y-32381662D01*
X49509035Y-32355476D01*
X49505926Y-32330231D01*
X49501919Y-32305923D01*
X49497009Y-32282549D01*
X49491193Y-32260103D01*
X49484464Y-32238584D01*
X49476819Y-32217987D01*
X49468254Y-32198307D01*
X49458764Y-32179543D01*
X49448344Y-32161689D01*
X49436990Y-32144742D01*
X49424698Y-32128699D01*
X49411463Y-32113556D01*
X49397281Y-32099308D01*
X49382147Y-32085953D01*
X49366057Y-32073487D01*
X49349006Y-32061905D01*
X49330990Y-32051204D01*
X49312004Y-32041381D01*
X49292044Y-32032432D01*
X49271106Y-32024352D01*
X49249184Y-32017139D01*
X49226276Y-32010788D01*
X49202375Y-32005296D01*
X49177477Y-32000659D01*
X49151579Y-31996874D01*
X49096763Y-31991842D01*
X49037889Y-31990172D01*
X48469362Y-31990172D01*
X48469362Y-32879511D01*
X47860231Y-32879511D01*
X47860231Y-31482554D01*
X49167848Y-31482554D01*
G37*
D10*
X45322112Y-39869556D02*
X45274957Y-39836024D01*
X44816276Y-39114633D02*
X44805699Y-39055406D01*
X37132701Y-39637284D02*
X37094899Y-39680924D01*
X45144112Y-39722693D02*
X45104288Y-39680924D01*
X44910443Y-38350818D02*
X44937004Y-38298959D01*
X35008118Y-38749273D02*
X35015767Y-38689082D01*
X37407022Y-38900000D02*
X39606897Y-38900000D01*
X45370910Y-37843652D02*
X45421276Y-37814692D01*
X35207316Y-38199795D02*
X35240849Y-38152641D01*
X45811401Y-37683389D02*
X45871592Y-37675741D01*
X47195710Y-38934136D02*
X47191065Y-38995215D01*
X37312827Y-38404093D02*
X37334362Y-38458710D01*
X37055075Y-38021797D02*
X37094899Y-38063566D01*
X37312827Y-39340396D02*
X37288742Y-39393672D01*
X47078674Y-39393672D02*
X47052113Y-39445530D01*
X47197275Y-38872244D02*
X47197275Y-38872244D01*
X46295138Y-40037096D02*
X46236950Y-40050526D01*
X35001909Y-38872244D02*
X35001909Y-38872244D01*
X46567845Y-39929800D02*
X46515987Y-39956360D01*
X46408094Y-40001980D02*
X46352211Y-40020889D01*
X35736479Y-37764046D02*
X35791096Y-37742511D01*
X44791841Y-38872244D02*
X44793406Y-38810353D01*
X47183417Y-38689082D02*
X47191065Y-38749273D01*
X35439590Y-39800319D02*
X35395950Y-39762517D01*
X46803238Y-37981974D02*
X46845007Y-38021797D01*
X46759598Y-37944172D02*
X46803238Y-37981974D01*
X46352211Y-40020889D02*
X46295138Y-40037096D01*
X37401133Y-38995215D02*
X37393484Y-39055406D01*
X46759598Y-39800319D02*
X46714163Y-39836024D01*
X45185882Y-39762517D02*
X45144112Y-39722693D01*
X36266521Y-40073396D02*
X36204629Y-40074961D01*
X35055981Y-38514593D02*
X35074890Y-38458710D01*
X35354180Y-38021797D02*
X35395950Y-37981974D01*
X35532180Y-37874935D02*
X35580978Y-37843652D01*
X36618162Y-37742511D02*
X36672779Y-37764046D01*
X44845914Y-39229895D02*
X44829706Y-39172822D01*
X45871592Y-37675741D02*
X45932670Y-37671096D01*
X45994562Y-40074961D02*
X45994562Y-40074961D01*
X36327599Y-40068752D02*
X36266521Y-40073396D01*
X35240849Y-39591849D02*
X35207316Y-39544694D01*
X46117532Y-40068752D02*
X46056453Y-40073396D01*
X47172840Y-39114633D02*
X47159410Y-39172822D01*
X44791841Y-38872244D02*
X44791841Y-38872244D01*
X44965964Y-39495896D02*
X44937004Y-39445530D01*
X37013306Y-39762517D02*
X36969666Y-39800319D01*
X44937004Y-38298959D02*
X44965964Y-38248593D01*
X36081659Y-37675741D02*
X36142738Y-37671096D01*
X47159410Y-39172822D02*
X47143203Y-39229895D01*
X35485025Y-37908467D02*
X35532180Y-37874935D01*
X37288742Y-39393672D02*
X37262181Y-39445530D01*
D11*
G36*
X41109421Y-38349211D02*
G01*
X41137429Y-38351341D01*
X41165030Y-38354848D01*
X41192189Y-38359698D01*
X41218871Y-38365857D01*
X41245042Y-38373288D01*
X41270667Y-38381959D01*
X41295712Y-38391833D01*
X41320141Y-38402878D01*
X41343921Y-38415057D01*
X41367017Y-38428336D01*
X41389393Y-38442681D01*
X41411016Y-38458058D01*
X41431850Y-38474430D01*
X41451861Y-38491764D01*
X41471014Y-38510025D01*
X41489276Y-38529178D01*
X41506610Y-38549189D01*
X41522982Y-38570023D01*
X41538358Y-38591646D01*
X41552703Y-38614022D01*
X41565983Y-38637118D01*
X41578162Y-38660898D01*
X41589207Y-38685327D01*
X41599082Y-38710372D01*
X41607752Y-38735997D01*
X41615184Y-38762169D01*
X41621342Y-38788851D01*
X41626192Y-38816010D01*
X41629699Y-38843611D01*
X41631829Y-38871619D01*
X41632547Y-38900000D01*
X41631829Y-38928381D01*
X41629700Y-38956389D01*
X41626193Y-38983990D01*
X41621343Y-39011149D01*
X41615184Y-39037831D01*
X41607753Y-39064003D01*
X41599083Y-39089628D01*
X41589208Y-39114673D01*
X41578164Y-39139103D01*
X41565985Y-39162883D01*
X41552705Y-39185979D01*
X41538360Y-39208355D01*
X41522984Y-39229978D01*
X41506612Y-39250812D01*
X41489278Y-39270823D01*
X41471017Y-39289977D01*
X41451864Y-39308238D01*
X41431853Y-39325572D01*
X41411019Y-39341945D01*
X41389396Y-39357321D01*
X41367020Y-39371666D01*
X41343925Y-39384946D01*
X41320145Y-39397125D01*
X41295715Y-39408170D01*
X41270670Y-39418044D01*
X41245045Y-39426715D01*
X41218873Y-39434147D01*
X41192191Y-39440305D01*
X41165032Y-39445155D01*
X41137430Y-39448662D01*
X41109422Y-39450792D01*
X41081041Y-39451510D01*
X41052660Y-39450792D01*
X41024651Y-39448662D01*
X40997050Y-39445155D01*
X40969891Y-39440305D01*
X40943208Y-39434147D01*
X40917036Y-39426715D01*
X40891411Y-39418044D01*
X40866365Y-39408170D01*
X40841935Y-39397125D01*
X40818155Y-39384946D01*
X40795059Y-39371666D01*
X40772683Y-39357321D01*
X40751060Y-39341945D01*
X40730226Y-39325572D01*
X40710214Y-39308238D01*
X40691061Y-39289977D01*
X40672799Y-39270823D01*
X40655465Y-39250812D01*
X40639092Y-39229978D01*
X40623716Y-39208355D01*
X40609371Y-39185979D01*
X40596091Y-39162883D01*
X40583912Y-39139103D01*
X40572867Y-39114673D01*
X40562992Y-39089628D01*
X40554322Y-39064003D01*
X40546890Y-39037831D01*
X40540732Y-39011149D01*
X40535882Y-38983990D01*
X40532375Y-38956389D01*
X40530245Y-38928381D01*
X40529527Y-38900000D01*
X40530245Y-38871619D01*
X40532375Y-38843611D01*
X40535882Y-38816010D01*
X40540732Y-38788851D01*
X40546890Y-38762169D01*
X40554322Y-38735997D01*
X40562992Y-38710372D01*
X40572867Y-38685327D01*
X40583912Y-38660898D01*
X40596091Y-38637118D01*
X40609371Y-38614022D01*
X40623716Y-38591646D01*
X40639092Y-38570023D01*
X40655465Y-38549189D01*
X40672799Y-38529178D01*
X40691061Y-38510025D01*
X40710214Y-38491764D01*
X40730226Y-38474430D01*
X40751060Y-38458058D01*
X40772683Y-38442681D01*
X40795059Y-38428336D01*
X40818155Y-38415057D01*
X40841935Y-38402878D01*
X40866365Y-38391833D01*
X40891411Y-38381959D01*
X40917036Y-38373288D01*
X40943208Y-38365857D01*
X40969891Y-38359698D01*
X40997050Y-38354848D01*
X41024651Y-38351341D01*
X41052660Y-38349211D01*
X41081041Y-38348494D01*
X41109421Y-38349211D01*
G37*
D10*
X37262181Y-39445530D02*
X37233221Y-39495896D01*
X36081659Y-40068752D02*
X36021468Y-40061103D01*
X47197275Y-38872244D02*
X47195710Y-38934136D01*
X35240849Y-38152641D02*
X35276554Y-38107206D01*
X46056453Y-37671096D02*
X46117532Y-37675741D01*
X44864823Y-39285778D02*
X44845914Y-39229895D01*
X44829706Y-38571667D02*
X44845914Y-38514593D01*
X35276554Y-39637284D02*
X35240849Y-39591849D01*
X45932670Y-37671096D02*
X45994562Y-37669531D01*
X35395950Y-39762517D02*
X35354180Y-39722693D01*
X37353271Y-38514593D02*
X37369478Y-38571667D01*
D11*
G36*
X46180620Y-38692686D02*
G01*
X46749757Y-38692686D01*
X46749757Y-39051810D01*
X46180620Y-39051810D01*
X46180620Y-39601054D01*
X45808496Y-39601054D01*
X45808496Y-39051810D01*
X45239366Y-39051810D01*
X45239366Y-38692686D01*
X45808496Y-38692686D01*
X45808496Y-38143442D01*
X46180620Y-38143442D01*
X46180620Y-38692686D01*
G37*
D10*
X37013306Y-37981974D02*
X37055075Y-38021797D01*
X46618211Y-39900840D02*
X46567845Y-39929800D01*
X35120511Y-38350818D02*
X35147072Y-38298959D01*
X37201937Y-38199795D02*
X37233221Y-38248593D01*
X36387790Y-40061103D02*
X36327599Y-40068752D01*
X45274957Y-37908467D02*
X45322112Y-37874935D01*
X35631344Y-37814692D02*
X35683203Y-37788131D01*
X44886358Y-38404093D02*
X44910443Y-38350818D01*
X37369478Y-38571667D02*
X37382907Y-38629855D01*
D11*
G36*
X44388145Y-156120070D02*
G01*
X44389818Y-156074141D01*
X44392621Y-156029480D01*
X44396567Y-155986097D01*
X44401668Y-155944001D01*
X44407936Y-155903202D01*
X44415383Y-155863710D01*
X44424022Y-155825533D01*
X44433865Y-155788683D01*
X44444924Y-155753167D01*
X44457212Y-155718997D01*
X44470741Y-155686181D01*
X44485522Y-155654729D01*
X44501569Y-155624651D01*
X44518893Y-155595957D01*
X44537508Y-155568655D01*
X44542400Y-155562004D01*
X44547526Y-155555703D01*
X44552862Y-155549718D01*
X44558389Y-155544017D01*
X44564084Y-155538565D01*
X44569927Y-155533328D01*
X44575896Y-155528274D01*
X44581970Y-155523367D01*
X44594346Y-155513864D01*
X44606887Y-155504548D01*
X44619420Y-155495151D01*
X44631776Y-155485403D01*
X44625623Y-155480453D01*
X44619407Y-155475618D01*
X44606867Y-155466160D01*
X44594326Y-155456768D01*
X44581953Y-155447180D01*
X44575881Y-155442231D01*
X44569915Y-155437134D01*
X44564075Y-155431858D01*
X44558383Y-155426369D01*
X44552858Y-155420635D01*
X44547524Y-155414622D01*
X44542400Y-155408299D01*
X44537508Y-155401633D01*
X44518954Y-155374343D01*
X44501674Y-155345674D01*
X44485658Y-155315632D01*
X44470895Y-155284227D01*
X44457374Y-155251466D01*
X44445085Y-155217359D01*
X44434017Y-155181915D01*
X44424160Y-155145140D01*
X44415501Y-155107044D01*
X44408032Y-155067636D01*
X44401742Y-155026924D01*
X44396619Y-154984916D01*
X44392653Y-154941621D01*
X44389833Y-154897047D01*
X44388149Y-154851204D01*
X44387590Y-154804098D01*
X44673112Y-154804098D01*
X44673522Y-154843052D01*
X44674736Y-154880348D01*
X44676734Y-154915995D01*
X44679493Y-154950000D01*
X44682991Y-154982371D01*
X44687207Y-155013117D01*
X44692119Y-155042246D01*
X44697706Y-155069765D01*
X44703945Y-155095684D01*
X44710815Y-155120009D01*
X44718295Y-155142750D01*
X44726362Y-155163914D01*
X44734994Y-155183509D01*
X44744171Y-155201543D01*
X44753870Y-155218025D01*
X44764070Y-155232962D01*
X44774997Y-155246193D01*
X44786543Y-155258581D01*
X44798755Y-155270123D01*
X44811678Y-155280818D01*
X44825356Y-155290666D01*
X44839834Y-155299664D01*
X44855159Y-155307812D01*
X44871374Y-155315108D01*
X44888525Y-155321550D01*
X44906657Y-155327138D01*
X44925815Y-155331870D01*
X44946044Y-155335744D01*
X44967390Y-155338760D01*
X44989897Y-155340916D01*
X45013610Y-155342210D01*
X45038576Y-155342642D01*
X45063776Y-155342254D01*
X45087609Y-155341077D01*
X45110130Y-155339096D01*
X45131399Y-155336293D01*
X45151472Y-155332652D01*
X45161077Y-155330511D01*
X45170406Y-155328155D01*
X45179464Y-155325580D01*
X45188259Y-155322786D01*
X45196799Y-155319768D01*
X45205089Y-155316527D01*
X45213138Y-155313059D01*
X45220953Y-155309362D01*
X45228540Y-155305434D01*
X45235908Y-155301274D01*
X45243062Y-155296878D01*
X45250011Y-155292245D01*
X45256762Y-155287373D01*
X45263321Y-155282260D01*
X45269696Y-155276904D01*
X45275895Y-155271301D01*
X45281923Y-155265451D01*
X45287789Y-155259352D01*
X45293499Y-155253000D01*
X45299062Y-155246394D01*
X45309770Y-155232413D01*
X45319960Y-155217195D01*
X45329625Y-155200530D01*
X45338749Y-155182397D01*
X45347311Y-155162776D01*
X45355294Y-155141648D01*
X45362679Y-155118993D01*
X45369448Y-155094791D01*
X45375583Y-155069022D01*
X45381065Y-155041666D01*
X45385876Y-155012705D01*
X45389997Y-154982117D01*
X45393410Y-154949884D01*
X45396097Y-154915985D01*
X45398038Y-154880401D01*
X45399217Y-154843112D01*
X45399614Y-154804098D01*
X45399217Y-154765090D01*
X45398038Y-154727806D01*
X45396097Y-154692226D01*
X45393410Y-154658331D01*
X45389997Y-154626100D01*
X45385876Y-154595515D01*
X45381065Y-154566556D01*
X45375583Y-154539202D01*
X45369448Y-154513434D01*
X45362679Y-154489233D01*
X45355294Y-154466578D01*
X45347311Y-154445451D01*
X45338749Y-154425830D01*
X45329625Y-154407697D01*
X45319960Y-154391032D01*
X45309770Y-154375815D01*
X45299062Y-154361827D01*
X45287789Y-154348852D01*
X45275895Y-154336875D01*
X45263321Y-154325881D01*
X45250011Y-154315855D01*
X45235908Y-154306780D01*
X45220953Y-154298642D01*
X45205089Y-154291426D01*
X45188259Y-154285116D01*
X45170406Y-154279697D01*
X45151472Y-154275153D01*
X45131399Y-154271470D01*
X45110130Y-154268632D01*
X45087609Y-154266624D01*
X45063776Y-154265430D01*
X45038576Y-154265036D01*
X45013352Y-154265435D01*
X44989458Y-154266641D01*
X44966841Y-154268670D01*
X44945447Y-154271535D01*
X44925223Y-154275250D01*
X44915532Y-154277431D01*
X44906114Y-154279830D01*
X44896962Y-154282449D01*
X44888068Y-154285290D01*
X44879426Y-154288354D01*
X44871030Y-154291643D01*
X44862873Y-154295160D01*
X44854948Y-154298905D01*
X44847248Y-154302880D01*
X44839767Y-154307088D01*
X44832498Y-154311531D01*
X44825435Y-154316209D01*
X44818570Y-154321125D01*
X44811897Y-154326280D01*
X44805409Y-154331677D01*
X44799100Y-154337317D01*
X44792963Y-154343202D01*
X44786990Y-154349334D01*
X44781177Y-154355714D01*
X44775515Y-154362345D01*
X44764619Y-154376364D01*
X44754253Y-154391603D01*
X44744417Y-154408277D01*
X44735130Y-154426406D01*
X44726413Y-154446013D01*
X44718284Y-154467117D01*
X44710762Y-154489740D01*
X44703865Y-154513903D01*
X44697614Y-154539625D01*
X44692027Y-154566930D01*
X44687123Y-154595837D01*
X44682921Y-154626367D01*
X44679441Y-154658541D01*
X44676701Y-154692380D01*
X44674720Y-154727906D01*
X44673517Y-154765138D01*
X44673112Y-154804098D01*
X44387590Y-154804098D01*
X44388107Y-154757009D01*
X44389678Y-154711136D01*
X44392334Y-154666488D01*
X44396106Y-154623075D01*
X44401025Y-154580908D01*
X44407123Y-154539996D01*
X44414430Y-154500351D01*
X44422977Y-154461981D01*
X44432795Y-154424898D01*
X44443916Y-154389110D01*
X44456369Y-154354629D01*
X44470187Y-154321464D01*
X44485400Y-154289625D01*
X44502039Y-154259123D01*
X44520136Y-154229968D01*
X44539720Y-154202170D01*
X44560816Y-154175885D01*
X44583404Y-154151269D01*
X44607453Y-154128324D01*
X44632931Y-154107054D01*
X44659807Y-154087463D01*
X44688047Y-154069555D01*
X44717622Y-154053335D01*
X44748498Y-154038805D01*
X44780645Y-154025970D01*
X44814031Y-154014834D01*
X44848623Y-154005401D01*
X44884390Y-153997674D01*
X44921301Y-153991657D01*
X44959323Y-153987355D01*
X44998425Y-153984770D01*
X45038576Y-153983908D01*
X45077878Y-153984731D01*
X45116201Y-153987201D01*
X45153514Y-153991324D01*
X45189782Y-153997103D01*
X45224972Y-154004543D01*
X45259051Y-154013648D01*
X45291984Y-154024423D01*
X45323740Y-154036871D01*
X45354283Y-154050998D01*
X45383582Y-154066806D01*
X45411602Y-154084301D01*
X45438311Y-154103487D01*
X45463674Y-154124368D01*
X45487658Y-154146949D01*
X45510231Y-154171234D01*
X45531358Y-154197226D01*
X45551000Y-154224769D01*
X45569165Y-154253712D01*
X45585882Y-154284053D01*
X45601179Y-154315786D01*
X45615086Y-154348910D01*
X45627631Y-154383421D01*
X45638844Y-154419316D01*
X45648754Y-154456591D01*
X45657389Y-154495243D01*
X45664779Y-154535270D01*
X45670952Y-154576667D01*
X45675938Y-154619431D01*
X45679765Y-154663560D01*
X45682463Y-154709050D01*
X45684061Y-154755897D01*
X45684587Y-154804098D01*
X45684040Y-154852008D01*
X45682387Y-154898570D01*
X45679612Y-154943776D01*
X45675700Y-154987615D01*
X45670633Y-155030080D01*
X45664396Y-155071161D01*
X45656973Y-155110849D01*
X45648347Y-155149134D01*
X45638503Y-155186008D01*
X45627423Y-155221461D01*
X45615092Y-155255484D01*
X45601494Y-155288068D01*
X45586613Y-155319203D01*
X45570431Y-155348882D01*
X45552934Y-155377094D01*
X45534105Y-155403830D01*
X45529371Y-155409875D01*
X45524417Y-155415699D01*
X45519266Y-155421323D01*
X45513936Y-155426768D01*
X45508450Y-155432056D01*
X45502828Y-155437209D01*
X45497091Y-155442247D01*
X45491260Y-155447192D01*
X45479398Y-155456887D01*
X45467408Y-155466465D01*
X45455457Y-155476097D01*
X45443712Y-155485953D01*
X45449584Y-155490909D01*
X45455527Y-155495760D01*
X45467535Y-155505261D01*
X45479565Y-155514685D01*
X45491449Y-155524260D01*
X45497282Y-155529176D01*
X45503015Y-155534216D01*
X45508625Y-155539408D01*
X45514093Y-155544781D01*
X45519396Y-155550364D01*
X45524513Y-155556185D01*
X45529423Y-155562272D01*
X45534105Y-155568655D01*
X45552869Y-155595379D01*
X45570317Y-155623565D01*
X45586465Y-155653205D01*
X45601327Y-155684293D01*
X45614917Y-155716818D01*
X45627249Y-155750775D01*
X45638338Y-155786153D01*
X45648199Y-155822947D01*
X45656845Y-155861147D01*
X45664292Y-155900745D01*
X45670553Y-155941734D01*
X45675644Y-155984106D01*
X45679578Y-156027852D01*
X45682370Y-156072965D01*
X45684035Y-156119436D01*
X45684587Y-156167258D01*
X45684061Y-156215464D01*
X45682463Y-156262315D01*
X45679765Y-156307808D01*
X45675938Y-156351938D01*
X45670952Y-156394704D01*
X45664779Y-156436101D01*
X45657389Y-156476128D01*
X45648754Y-156514780D01*
X45638844Y-156552056D01*
X45627631Y-156587950D01*
X45615086Y-156622462D01*
X45601179Y-156655587D01*
X45585882Y-156687322D01*
X45569165Y-156717665D01*
X45551000Y-156746612D01*
X45531358Y-156774161D01*
X45510231Y-156800148D01*
X45487659Y-156824429D01*
X45463675Y-156847007D01*
X45438313Y-156867886D01*
X45411605Y-156887072D01*
X45383586Y-156904567D01*
X45354288Y-156920376D01*
X45323745Y-156934504D01*
X45291991Y-156946954D01*
X45259057Y-156957730D01*
X45224979Y-156966837D01*
X45189789Y-156974279D01*
X45153520Y-156980060D01*
X45116206Y-156984184D01*
X45077880Y-156986656D01*
X45038576Y-156987479D01*
X44998425Y-156986610D01*
X44959323Y-156984007D01*
X44921301Y-156979676D01*
X44884390Y-156973622D01*
X44848623Y-156965851D01*
X44814031Y-156956369D01*
X44780645Y-156945180D01*
X44748498Y-156932291D01*
X44717622Y-156917708D01*
X44688047Y-156901435D01*
X44659807Y-156883478D01*
X44632931Y-156863844D01*
X44607453Y-156842537D01*
X44583404Y-156819563D01*
X44560816Y-156794928D01*
X44539720Y-156768637D01*
X44520136Y-156740845D01*
X44502039Y-156711707D01*
X44485400Y-156681232D01*
X44470187Y-156649429D01*
X44456369Y-156616305D01*
X44443916Y-156581870D01*
X44432795Y-156546133D01*
X44422977Y-156509100D01*
X44414430Y-156470782D01*
X44407123Y-156431186D01*
X44401025Y-156390321D01*
X44396106Y-156348195D01*
X44392334Y-156304818D01*
X44389678Y-156260197D01*
X44388107Y-156214340D01*
X44387590Y-156167288D01*
X44673128Y-156167288D01*
X44673533Y-156206248D01*
X44674735Y-156243481D01*
X44676716Y-156279006D01*
X44679456Y-156312846D01*
X44682936Y-156345020D01*
X44687138Y-156375550D01*
X44692041Y-156404457D01*
X44697628Y-156431761D01*
X44703878Y-156457484D01*
X44710773Y-156481647D01*
X44718294Y-156504270D01*
X44726422Y-156525374D01*
X44735138Y-156544980D01*
X44744422Y-156563110D01*
X44754255Y-156579784D01*
X44764619Y-156595023D01*
X44775517Y-156609036D01*
X44786995Y-156622029D01*
X44799105Y-156634019D01*
X44811903Y-156645020D01*
X44825442Y-156655050D01*
X44839774Y-156664124D01*
X44854954Y-156672258D01*
X44871036Y-156679469D01*
X44888073Y-156685771D01*
X44906118Y-156691181D01*
X44925226Y-156695715D01*
X44945450Y-156699388D01*
X44966843Y-156702218D01*
X44989459Y-156704219D01*
X45013352Y-156705409D01*
X45038576Y-156705801D01*
X45063630Y-156705367D01*
X45087396Y-156704068D01*
X45109916Y-156701908D01*
X45131232Y-156698891D01*
X45151383Y-156695019D01*
X45161036Y-156692765D01*
X45170413Y-156690299D01*
X45179520Y-156687621D01*
X45188362Y-156684732D01*
X45196944Y-156681633D01*
X45205272Y-156678324D01*
X45213351Y-156674806D01*
X45221185Y-156671078D01*
X45228780Y-156667142D01*
X45236141Y-156662998D01*
X45243274Y-156658646D01*
X45250183Y-156654087D01*
X45256874Y-156649322D01*
X45263351Y-156644351D01*
X45269621Y-156639174D01*
X45275688Y-156633792D01*
X45281557Y-156628205D01*
X45287234Y-156622414D01*
X45292724Y-156616420D01*
X45298032Y-156610222D01*
X45308122Y-156597220D01*
X45308122Y-156596640D01*
X45318346Y-156581715D01*
X45328075Y-156565235D01*
X45337288Y-156547194D01*
X45345961Y-156527583D01*
X45354072Y-156506397D01*
X45361598Y-156483628D01*
X45368515Y-156459268D01*
X45374801Y-156433310D01*
X45380433Y-156405747D01*
X45385389Y-156376572D01*
X45389645Y-156345777D01*
X45393178Y-156313356D01*
X45395966Y-156279300D01*
X45397986Y-156243604D01*
X45399215Y-156206258D01*
X45399629Y-156167258D01*
X45399235Y-156128237D01*
X45398063Y-156090918D01*
X45396131Y-156055282D01*
X45393457Y-156021309D01*
X45390058Y-155988983D01*
X45385951Y-155958283D01*
X45381153Y-155929193D01*
X45375682Y-155901694D01*
X45369556Y-155875766D01*
X45362791Y-155851392D01*
X45355405Y-155828554D01*
X45347416Y-155807232D01*
X45338841Y-155787409D01*
X45329696Y-155769066D01*
X45320000Y-155752184D01*
X45309770Y-155736746D01*
X45299020Y-155722549D01*
X45287709Y-155709380D01*
X45275781Y-155697224D01*
X45263177Y-155686066D01*
X45249842Y-155675890D01*
X45235719Y-155666680D01*
X45220749Y-155658422D01*
X45204877Y-155651099D01*
X45188046Y-155644695D01*
X45170198Y-155639196D01*
X45151277Y-155634586D01*
X45131225Y-155630848D01*
X45109986Y-155627969D01*
X45087503Y-155625931D01*
X45063718Y-155624720D01*
X45038576Y-155624319D01*
X45013413Y-155624718D01*
X44989569Y-155625926D01*
X44966993Y-155627958D01*
X44945630Y-155630832D01*
X44925428Y-155634562D01*
X44915745Y-155636754D01*
X44906333Y-155639165D01*
X44897184Y-155641800D01*
X44888293Y-155644658D01*
X44879651Y-155647743D01*
X44871253Y-155651057D01*
X44863093Y-155654600D01*
X44855163Y-155658377D01*
X44847456Y-155662387D01*
X44839967Y-155666634D01*
X44832688Y-155671120D01*
X44825614Y-155675846D01*
X44818736Y-155680814D01*
X44812049Y-155686027D01*
X44805546Y-155691487D01*
X44799221Y-155697195D01*
X44793066Y-155703154D01*
X44787075Y-155709365D01*
X44781241Y-155715831D01*
X44775559Y-155722554D01*
X44764619Y-155736777D01*
X44754218Y-155752237D01*
X44744356Y-155769140D01*
X44735053Y-155787503D01*
X44726326Y-155807344D01*
X44718193Y-155828681D01*
X44710673Y-155851533D01*
X44703783Y-155875916D01*
X44697542Y-155901850D01*
X44691967Y-155929352D01*
X44687077Y-155958440D01*
X44682890Y-155989132D01*
X44679424Y-156021447D01*
X44676696Y-156055402D01*
X44674726Y-156091015D01*
X44673530Y-156128304D01*
X44673128Y-156167288D01*
X44387590Y-156167288D01*
X44387590Y-156167258D01*
X44388145Y-156120070D01*
G37*
D10*
X46236950Y-37693966D02*
X46295138Y-37707396D01*
X35962241Y-37693966D02*
X36021468Y-37683389D01*
X35008118Y-38995215D02*
X35003474Y-38934136D01*
X46803238Y-39762517D02*
X46759598Y-39800319D01*
X37201937Y-39544694D02*
X37168405Y-39591849D01*
X35791096Y-37742511D02*
X35846979Y-37723603D01*
X46922633Y-38107206D02*
X46958338Y-38152641D01*
X35147072Y-39445530D02*
X35120511Y-39393672D01*
X47102759Y-38404093D02*
X47124294Y-38458710D01*
X44805699Y-38689082D02*
X44816276Y-38629855D01*
X37168405Y-39591849D02*
X37132701Y-39637284D01*
X37369478Y-39172822D02*
X37353271Y-39229895D01*
X47183417Y-39055406D02*
X47172840Y-39114633D01*
X36142738Y-37671096D02*
X36204629Y-37669531D01*
X44910443Y-39393672D02*
X44886358Y-39340396D01*
X36969666Y-37944172D02*
X37013306Y-37981974D01*
X36726054Y-39956360D02*
X36672779Y-39980446D01*
X35074890Y-39285778D02*
X35055981Y-39229895D01*
X47197275Y-38872244D02*
X47197275Y-38872244D01*
X44798051Y-38749273D02*
X44805699Y-38689082D01*
D11*
G36*
X45472398Y-33488650D02*
G01*
X45474544Y-33553470D01*
X45477230Y-33584245D01*
X45480997Y-33613935D01*
X45485845Y-33642542D01*
X45491780Y-33670070D01*
X45498803Y-33696521D01*
X45506918Y-33721898D01*
X45516128Y-33746205D01*
X45526435Y-33769443D01*
X45537842Y-33791617D01*
X45550353Y-33812729D01*
X45563971Y-33832782D01*
X45578698Y-33851779D01*
X45594537Y-33869724D01*
X45611492Y-33886618D01*
X45629565Y-33902465D01*
X45648759Y-33917269D01*
X45669078Y-33931031D01*
X45690524Y-33943756D01*
X45713100Y-33955445D01*
X45736809Y-33966102D01*
X45761655Y-33975731D01*
X45787639Y-33984333D01*
X45814766Y-33991912D01*
X45843038Y-33998470D01*
X45872458Y-34004012D01*
X45903029Y-34008539D01*
X45967636Y-34014563D01*
X46036882Y-34016566D01*
X46106126Y-34014563D01*
X46139006Y-34012055D01*
X46170730Y-34008539D01*
X46201300Y-34004012D01*
X46230719Y-33998470D01*
X46258990Y-33991912D01*
X46286116Y-33984333D01*
X46312099Y-33975731D01*
X46336944Y-33966102D01*
X46360653Y-33955445D01*
X46383229Y-33943756D01*
X46404674Y-33931031D01*
X46424992Y-33917269D01*
X46444186Y-33902465D01*
X46462259Y-33886618D01*
X46479213Y-33869724D01*
X46495052Y-33851779D01*
X46509779Y-33832782D01*
X46523396Y-33812729D01*
X46535907Y-33791617D01*
X46547314Y-33769443D01*
X46557621Y-33746205D01*
X46566831Y-33721898D01*
X46574945Y-33696521D01*
X46581969Y-33670070D01*
X46587903Y-33642542D01*
X46592752Y-33613935D01*
X46596518Y-33584245D01*
X46599205Y-33553470D01*
X46600814Y-33521605D01*
X46601350Y-33488650D01*
X46601350Y-31482554D01*
X47210481Y-31482554D01*
X47210481Y-33488650D01*
X47208532Y-33565257D01*
X47202789Y-33638275D01*
X47193406Y-33707781D01*
X47180540Y-33773850D01*
X47164345Y-33836558D01*
X47144978Y-33895980D01*
X47122593Y-33952194D01*
X47097346Y-34005274D01*
X47069392Y-34055297D01*
X47038888Y-34102338D01*
X47005987Y-34146473D01*
X46970846Y-34187778D01*
X46933620Y-34226329D01*
X46894465Y-34262201D01*
X46853535Y-34295471D01*
X46810987Y-34326214D01*
X46766975Y-34354507D01*
X46721656Y-34380424D01*
X46675184Y-34404042D01*
X46627715Y-34425437D01*
X46530407Y-34461861D01*
X46430975Y-34490301D01*
X46330664Y-34511366D01*
X46230716Y-34525660D01*
X46132374Y-34533792D01*
X46036882Y-34536368D01*
X45941387Y-34533792D01*
X45843043Y-34525660D01*
X45743093Y-34511366D01*
X45642780Y-34490302D01*
X45543347Y-34461862D01*
X45494349Y-34444686D01*
X45446038Y-34425438D01*
X45398568Y-34404044D01*
X45352095Y-34380425D01*
X45306776Y-34354508D01*
X45262763Y-34326216D01*
X45220215Y-34295472D01*
X45179285Y-34262203D01*
X45140129Y-34226330D01*
X45102903Y-34187779D01*
X45067762Y-34146475D01*
X45034861Y-34102339D01*
X45004357Y-34055299D01*
X44976403Y-34005276D01*
X44951156Y-33952196D01*
X44928771Y-33895982D01*
X44909404Y-33836559D01*
X44893209Y-33773851D01*
X44880343Y-33707781D01*
X44870960Y-33638275D01*
X44865216Y-33565257D01*
X44863267Y-33488650D01*
X44863267Y-31482554D01*
X45472398Y-31482554D01*
X45472398Y-33488650D01*
G37*
D10*
X45185882Y-37981974D02*
X45229522Y-37944172D01*
X35176032Y-39495896D02*
X35147072Y-39445530D01*
D11*
G36*
X50362321Y-153317602D02*
G01*
X31362482Y-153317602D01*
X31362482Y-153001211D01*
X50362321Y-153001211D01*
X50362321Y-153317602D01*
G37*
D10*
X36777913Y-37814692D02*
X36828279Y-37843652D01*
X36877077Y-37874935D02*
X36924231Y-37908467D01*
X46352211Y-37723603D02*
X46408094Y-37742511D01*
X36505205Y-40037096D02*
X36447017Y-40050526D01*
X37233221Y-38248593D02*
X37262181Y-38298959D01*
X35846979Y-37723603D02*
X35904053Y-37707396D01*
X47052113Y-38298959D02*
X47078674Y-38350818D01*
X35207316Y-39544694D02*
X35176032Y-39495896D01*
X35846979Y-40020889D02*
X35791096Y-40001980D01*
X47124294Y-38458710D02*
X47143203Y-38514593D01*
X35631344Y-39929800D02*
X35580978Y-39900840D01*
X35532180Y-39869556D02*
X35485025Y-39836024D01*
X45030781Y-39591849D02*
X44997248Y-39544694D01*
X35039774Y-38571667D02*
X35055981Y-38514593D01*
X47159410Y-38571667D02*
X47172840Y-38629855D01*
X35354180Y-39722693D02*
X35314356Y-39680924D01*
X37334362Y-38458710D02*
X37353271Y-38514593D01*
X35904053Y-40037096D02*
X35846979Y-40020889D01*
X36828279Y-39900840D02*
X36777913Y-39929800D01*
X35962241Y-40050526D02*
X35904053Y-40037096D01*
X36447017Y-40050526D02*
X36387790Y-40061103D01*
X36021468Y-37683389D02*
X36081659Y-37675741D01*
X35683203Y-39956360D02*
X35631344Y-39929800D01*
X46714163Y-37908467D02*
X46759598Y-37944172D01*
X45636912Y-40020889D02*
X45581028Y-40001980D01*
X46991870Y-38199795D02*
X47023153Y-38248593D01*
X37393484Y-38689082D02*
X37401133Y-38749273D01*
X46236950Y-40050526D02*
X46177723Y-40061103D01*
X35736479Y-39980446D02*
X35683203Y-39956360D01*
X47052113Y-39445530D02*
X47023153Y-39495896D01*
X37288742Y-38350818D02*
X37312827Y-38404093D01*
X45229522Y-37944172D02*
X45274957Y-37908467D01*
X37094899Y-39680924D02*
X37055075Y-39722693D01*
X36142738Y-40073396D02*
X36081659Y-40068752D01*
X36505205Y-37707396D02*
X36562279Y-37723603D01*
X37334362Y-39285778D02*
X37312827Y-39340396D01*
X35074890Y-38458710D02*
X35096425Y-38404093D01*
X35395950Y-37981974D02*
X35439590Y-37944172D01*
X35176032Y-38248593D02*
X35207316Y-38199795D01*
X36562279Y-37723603D02*
X36618162Y-37742511D01*
X36969666Y-39800319D02*
X36924231Y-39836024D01*
X45322112Y-37874935D02*
X45370910Y-37843652D01*
X46958338Y-39591849D02*
X46922633Y-39637284D01*
X46991870Y-39544694D02*
X46958338Y-39591849D01*
X41100000Y-38900000D02*
X44771440Y-38900000D01*
X35904053Y-37707396D02*
X35962241Y-37693966D01*
X36562279Y-40020889D02*
X36505205Y-40037096D01*
X36266521Y-37671096D02*
X36327599Y-37675741D01*
D11*
G36*
X39802815Y-54484220D02*
G01*
X39805391Y-54464333D01*
X39808560Y-54444885D01*
X39812327Y-54425866D01*
X39816702Y-54407268D01*
X39821689Y-54389078D01*
X39827298Y-54371287D01*
X39833535Y-54353884D01*
X39840406Y-54336860D01*
X39847920Y-54320204D01*
X39856084Y-54303907D01*
X39864904Y-54287957D01*
X39874387Y-54272344D01*
X39884542Y-54257059D01*
X39895375Y-54242091D01*
X39906893Y-54227429D01*
X39919103Y-54213064D01*
X39932013Y-54198986D01*
X39945629Y-54185184D01*
X39959960Y-54171648D01*
X39975011Y-54158367D01*
X40007306Y-54132533D01*
X40042571Y-54107598D01*
X40080863Y-54083482D01*
X40122240Y-54060103D01*
X40089900Y-54041993D01*
X40059884Y-54023229D01*
X40032158Y-54003746D01*
X40006691Y-53983477D01*
X39983450Y-53962357D01*
X39962401Y-53940321D01*
X39943512Y-53917303D01*
X39926751Y-53893238D01*
X39912084Y-53868061D01*
X39899478Y-53841704D01*
X39888902Y-53814105D01*
X39880323Y-53785196D01*
X39873706Y-53754912D01*
X39869021Y-53723188D01*
X39866234Y-53689958D01*
X39866200Y-53688673D01*
X40208818Y-53688673D01*
X40209176Y-53702941D01*
X40210240Y-53716934D01*
X40211998Y-53730643D01*
X40214436Y-53744054D01*
X40217540Y-53757157D01*
X40221299Y-53769938D01*
X40225697Y-53782388D01*
X40230722Y-53794493D01*
X40236361Y-53806243D01*
X40242600Y-53817624D01*
X40249426Y-53828626D01*
X40256826Y-53839237D01*
X40264786Y-53849445D01*
X40273294Y-53859239D01*
X40282335Y-53868606D01*
X40291897Y-53877534D01*
X40301966Y-53886013D01*
X40312530Y-53894030D01*
X40323574Y-53901573D01*
X40335085Y-53908631D01*
X40347050Y-53915192D01*
X40359456Y-53921244D01*
X40372290Y-53926776D01*
X40385538Y-53931775D01*
X40399187Y-53936230D01*
X40413223Y-53940129D01*
X40427634Y-53943461D01*
X40442406Y-53946213D01*
X40457526Y-53948374D01*
X40472980Y-53949932D01*
X40488755Y-53950876D01*
X40504839Y-53951193D01*
X40520667Y-53950876D01*
X40536204Y-53949933D01*
X40551435Y-53948377D01*
X40566347Y-53946219D01*
X40580925Y-53943471D01*
X40595156Y-53940148D01*
X40609026Y-53936259D01*
X40622521Y-53931819D01*
X40635628Y-53926838D01*
X40648332Y-53921329D01*
X40660620Y-53915306D01*
X40672478Y-53908779D01*
X40683892Y-53901761D01*
X40694849Y-53894264D01*
X40705334Y-53886301D01*
X40715333Y-53877884D01*
X40724834Y-53869025D01*
X40733822Y-53859737D01*
X40742283Y-53850032D01*
X40750204Y-53839921D01*
X40757570Y-53829418D01*
X40764368Y-53818534D01*
X40770585Y-53807282D01*
X40776205Y-53795674D01*
X40781216Y-53783723D01*
X40785604Y-53771440D01*
X40789354Y-53758839D01*
X40792454Y-53745930D01*
X40794889Y-53732727D01*
X40796645Y-53719242D01*
X40797709Y-53705486D01*
X40798067Y-53691473D01*
X40797717Y-53677214D01*
X40796676Y-53663243D01*
X40794955Y-53649573D01*
X40792568Y-53636212D01*
X40789527Y-53623173D01*
X40785843Y-53610466D01*
X40781529Y-53598101D01*
X40776598Y-53586090D01*
X40771061Y-53574443D01*
X40764931Y-53563170D01*
X40758220Y-53552283D01*
X40750940Y-53541793D01*
X40743104Y-53531709D01*
X40734724Y-53522044D01*
X40725812Y-53512806D01*
X40716381Y-53504009D01*
X40706442Y-53495661D01*
X40696008Y-53487774D01*
X40685092Y-53480358D01*
X40673705Y-53473425D01*
X40661860Y-53466984D01*
X40649570Y-53461047D01*
X40636845Y-53455625D01*
X40623699Y-53450728D01*
X40610145Y-53446367D01*
X40596193Y-53442552D01*
X40581857Y-53439295D01*
X40567149Y-53436606D01*
X40552080Y-53434496D01*
X40536664Y-53432975D01*
X40520913Y-53432055D01*
X40504839Y-53431746D01*
X40488510Y-53432055D01*
X40472521Y-53432974D01*
X40456883Y-53434493D01*
X40441607Y-53436600D01*
X40426705Y-53439284D01*
X40412189Y-53442534D01*
X40398071Y-53446337D01*
X40384363Y-53450684D01*
X40371076Y-53455563D01*
X40358222Y-53460962D01*
X40345813Y-53466870D01*
X40333861Y-53473277D01*
X40322377Y-53480170D01*
X40311373Y-53487539D01*
X40300861Y-53495372D01*
X40290853Y-53503659D01*
X40281360Y-53512387D01*
X40272394Y-53521545D01*
X40263968Y-53531123D01*
X40256092Y-53541109D01*
X40248778Y-53551492D01*
X40242039Y-53562260D01*
X40235886Y-53573403D01*
X40230331Y-53584909D01*
X40225384Y-53596766D01*
X40221060Y-53608964D01*
X40217368Y-53621491D01*
X40214322Y-53634337D01*
X40211931Y-53647489D01*
X40210210Y-53660936D01*
X40209168Y-53674668D01*
X40208818Y-53688673D01*
X39866200Y-53688673D01*
X39865312Y-53655157D01*
X39866092Y-53626092D01*
X39868413Y-53597559D01*
X39872243Y-53569585D01*
X39877552Y-53542195D01*
X39884309Y-53515414D01*
X39892484Y-53489269D01*
X39902046Y-53463784D01*
X39912963Y-53438986D01*
X39925206Y-53414899D01*
X39938744Y-53391550D01*
X39953546Y-53368963D01*
X39969581Y-53347166D01*
X39986820Y-53326182D01*
X40005230Y-53306038D01*
X40024781Y-53286759D01*
X40045443Y-53268371D01*
X40067185Y-53250899D01*
X40089976Y-53234369D01*
X40113786Y-53218807D01*
X40138584Y-53204238D01*
X40164339Y-53190687D01*
X40191021Y-53178181D01*
X40218598Y-53166744D01*
X40247041Y-53156403D01*
X40276318Y-53147182D01*
X40306399Y-53139108D01*
X40337253Y-53132206D01*
X40368849Y-53126502D01*
X40401158Y-53122021D01*
X40434147Y-53118788D01*
X40467787Y-53116830D01*
X40502046Y-53116171D01*
X40536052Y-53116830D01*
X40569455Y-53118787D01*
X40602222Y-53122018D01*
X40634323Y-53126497D01*
X40665727Y-53132196D01*
X40696402Y-53139090D01*
X40726316Y-53147154D01*
X40755440Y-53156360D01*
X40783742Y-53166683D01*
X40811190Y-53178097D01*
X40837753Y-53190576D01*
X40863401Y-53204093D01*
X40888101Y-53218622D01*
X40911824Y-53234138D01*
X40934537Y-53250614D01*
X40956209Y-53268025D01*
X40976809Y-53286343D01*
X40996307Y-53305544D01*
X41014670Y-53325601D01*
X41031868Y-53346487D01*
X41047869Y-53368178D01*
X41062642Y-53390646D01*
X41076157Y-53413866D01*
X41088381Y-53437811D01*
X41099284Y-53462456D01*
X41108835Y-53487774D01*
X41117002Y-53513740D01*
X41123753Y-53540327D01*
X41129059Y-53567509D01*
X41132888Y-53595260D01*
X41135207Y-53623554D01*
X41135988Y-53652365D01*
X41135639Y-53673477D01*
X41134606Y-53693885D01*
X41132907Y-53713606D01*
X41130561Y-53732656D01*
X41127587Y-53751051D01*
X41124004Y-53768808D01*
X41119830Y-53785944D01*
X41115086Y-53802473D01*
X41109789Y-53818414D01*
X41103960Y-53833782D01*
X41097615Y-53848594D01*
X41090775Y-53862865D01*
X41083459Y-53876613D01*
X41075685Y-53889854D01*
X41067472Y-53902604D01*
X41058839Y-53914879D01*
X41049806Y-53926696D01*
X41040390Y-53938072D01*
X41030612Y-53949021D01*
X41020489Y-53959562D01*
X40999287Y-53979482D01*
X40976935Y-53997962D01*
X40953585Y-54015133D01*
X40929388Y-54031127D01*
X40904496Y-54046073D01*
X40879060Y-54060103D01*
X40920437Y-54083483D01*
X40958730Y-54107600D01*
X40993995Y-54132536D01*
X41026290Y-54158371D01*
X41055672Y-54185187D01*
X41082200Y-54213068D01*
X41105928Y-54242094D01*
X41126916Y-54272347D01*
X41145221Y-54303909D01*
X41160899Y-54336862D01*
X41174008Y-54371288D01*
X41184605Y-54407269D01*
X41192747Y-54444886D01*
X41198492Y-54484221D01*
X41201897Y-54525356D01*
X41203020Y-54568373D01*
X41202182Y-54603116D01*
X41199688Y-54637162D01*
X41195569Y-54670484D01*
X41189853Y-54703055D01*
X41182570Y-54734849D01*
X41173750Y-54765839D01*
X41163422Y-54795999D01*
X41151617Y-54825301D01*
X41138364Y-54853720D01*
X41123692Y-54881229D01*
X41107631Y-54907801D01*
X41090211Y-54933409D01*
X41071461Y-54958028D01*
X41051412Y-54981629D01*
X41030092Y-55004188D01*
X41007532Y-55025677D01*
X40983760Y-55046070D01*
X40958808Y-55065339D01*
X40932704Y-55083459D01*
X40905478Y-55100403D01*
X40877159Y-55116145D01*
X40847778Y-55130657D01*
X40817364Y-55143913D01*
X40785947Y-55155886D01*
X40753556Y-55166551D01*
X40720221Y-55175880D01*
X40685971Y-55183846D01*
X40650837Y-55190424D01*
X40614848Y-55195586D01*
X40578033Y-55199307D01*
X40540423Y-55201558D01*
X40502046Y-55202315D01*
X40463417Y-55201558D01*
X40425570Y-55199307D01*
X40388534Y-55195586D01*
X40352338Y-55190424D01*
X40317012Y-55183846D01*
X40282583Y-55175879D01*
X40249083Y-55166550D01*
X40216539Y-55155885D01*
X40184981Y-55143911D01*
X40154438Y-55130655D01*
X40124939Y-55116143D01*
X40096513Y-55100401D01*
X40069190Y-55083457D01*
X40042998Y-55065337D01*
X40017968Y-55046067D01*
X39994127Y-55025674D01*
X39971505Y-55004185D01*
X39950131Y-54981626D01*
X39930035Y-54958024D01*
X39911246Y-54933406D01*
X39893792Y-54907797D01*
X39877702Y-54881225D01*
X39863007Y-54853717D01*
X39849735Y-54825298D01*
X39837915Y-54795996D01*
X39827577Y-54765836D01*
X39818749Y-54734847D01*
X39811461Y-54703053D01*
X39805741Y-54670482D01*
X39801620Y-54637161D01*
X39799126Y-54603116D01*
X39798288Y-54568373D01*
X39798871Y-54546034D01*
X40189264Y-54546034D01*
X40189614Y-54564155D01*
X40190659Y-54581856D01*
X40192389Y-54599128D01*
X40194795Y-54615960D01*
X40197868Y-54632343D01*
X40201598Y-54648264D01*
X40205977Y-54663716D01*
X40210995Y-54678687D01*
X40216643Y-54693167D01*
X40222911Y-54707145D01*
X40229792Y-54720613D01*
X40237274Y-54733559D01*
X40245350Y-54745973D01*
X40254010Y-54757845D01*
X40263245Y-54769165D01*
X40273045Y-54779922D01*
X40283402Y-54790106D01*
X40294305Y-54799708D01*
X40305747Y-54808716D01*
X40317717Y-54817121D01*
X40330207Y-54824913D01*
X40343208Y-54832080D01*
X40356709Y-54838614D01*
X40370702Y-54844503D01*
X40385178Y-54849738D01*
X40400128Y-54854307D01*
X40415542Y-54858202D01*
X40431411Y-54861412D01*
X40447726Y-54863926D01*
X40464477Y-54865735D01*
X40481656Y-54866827D01*
X40499254Y-54867194D01*
X40516858Y-54866827D01*
X40534060Y-54865736D01*
X40550849Y-54863931D01*
X40567214Y-54861423D01*
X40583146Y-54858224D01*
X40598634Y-54854345D01*
X40613667Y-54849797D01*
X40628237Y-54844591D01*
X40642332Y-54838739D01*
X40655942Y-54832252D01*
X40669058Y-54825141D01*
X40681668Y-54817418D01*
X40693763Y-54809093D01*
X40705332Y-54800178D01*
X40716365Y-54790684D01*
X40726852Y-54780623D01*
X40736783Y-54770005D01*
X40746147Y-54758842D01*
X40754934Y-54747145D01*
X40763135Y-54734926D01*
X40770738Y-54722195D01*
X40777734Y-54708964D01*
X40784111Y-54695244D01*
X40789861Y-54681046D01*
X40794973Y-54666382D01*
X40799437Y-54651263D01*
X40803242Y-54635700D01*
X40806378Y-54619704D01*
X40808834Y-54603287D01*
X40810602Y-54586459D01*
X40811670Y-54569233D01*
X40812028Y-54551619D01*
X40811678Y-54532475D01*
X40810633Y-54513798D01*
X40808901Y-54495598D01*
X40806492Y-54477883D01*
X40803414Y-54460664D01*
X40799676Y-54443949D01*
X40795286Y-54427747D01*
X40790254Y-54412068D01*
X40784588Y-54396921D01*
X40778296Y-54382315D01*
X40771387Y-54368259D01*
X40763871Y-54354762D01*
X40755755Y-54341835D01*
X40747049Y-54329485D01*
X40737761Y-54317722D01*
X40727899Y-54306555D01*
X40717473Y-54295994D01*
X40706491Y-54286047D01*
X40694962Y-54276725D01*
X40682895Y-54268035D01*
X40670298Y-54259988D01*
X40657180Y-54252592D01*
X40643549Y-54245857D01*
X40629415Y-54239792D01*
X40614786Y-54234406D01*
X40599671Y-54229708D01*
X40584078Y-54225707D01*
X40568016Y-54222414D01*
X40551494Y-54219836D01*
X40534520Y-54217983D01*
X40517104Y-54216865D01*
X40499254Y-54216490D01*
X40481902Y-54216865D01*
X40464937Y-54217982D01*
X40448371Y-54219831D01*
X40432213Y-54222403D01*
X40416474Y-54225687D01*
X40401165Y-54229672D01*
X40386297Y-54234348D01*
X40371880Y-54239706D01*
X40357926Y-54245734D01*
X40344445Y-54252423D01*
X40331448Y-54259763D01*
X40318945Y-54267743D01*
X40306947Y-54276353D01*
X40295465Y-54285582D01*
X40284510Y-54295421D01*
X40274092Y-54305860D01*
X40264223Y-54316887D01*
X40254912Y-54328494D01*
X40246171Y-54340669D01*
X40238011Y-54353402D01*
X40230441Y-54366684D01*
X40223474Y-54380503D01*
X40217119Y-54394851D01*
X40211387Y-54409715D01*
X40206290Y-54425087D01*
X40201837Y-54440956D01*
X40198040Y-54457312D01*
X40194909Y-54474144D01*
X40192455Y-54491443D01*
X40190690Y-54509197D01*
X40189622Y-54527398D01*
X40189264Y-54546034D01*
X39798871Y-54546034D01*
X39799410Y-54525356D01*
X39802815Y-54484220D01*
G37*
G36*
X45793800Y-154765338D02*
G01*
X45795658Y-154719451D01*
X45798776Y-154674724D01*
X45803168Y-154631173D01*
X45808853Y-154588817D01*
X45815845Y-154547672D01*
X45824162Y-154507756D01*
X45833820Y-154469084D01*
X45844834Y-154431675D01*
X45857222Y-154395546D01*
X45871000Y-154360713D01*
X45886183Y-154327194D01*
X45902790Y-154295005D01*
X45920834Y-154264164D01*
X45940334Y-154234689D01*
X45961305Y-154206595D01*
X45983748Y-154180014D01*
X46007628Y-154155074D01*
X46032911Y-154131785D01*
X46059561Y-154110156D01*
X46087545Y-154090199D01*
X46116827Y-154071923D01*
X46147372Y-154055339D01*
X46179145Y-154040457D01*
X46212112Y-154027287D01*
X46246238Y-154015840D01*
X46281488Y-154006126D01*
X46317827Y-153998155D01*
X46355219Y-153991937D01*
X46393632Y-153987483D01*
X46433028Y-153984804D01*
X46473375Y-153983908D01*
X46514038Y-153984789D01*
X46553743Y-153987429D01*
X46592456Y-153991819D01*
X46630140Y-153997953D01*
X46666761Y-154005824D01*
X46702284Y-154015423D01*
X46736672Y-154026745D01*
X46769891Y-154039782D01*
X46801906Y-154054526D01*
X46832681Y-154070971D01*
X46862181Y-154089109D01*
X46890370Y-154108933D01*
X46917214Y-154130436D01*
X46942678Y-154153611D01*
X46966725Y-154178450D01*
X46989320Y-154204947D01*
X47010426Y-154232972D01*
X47030038Y-154262391D01*
X47048176Y-154293189D01*
X47064856Y-154325352D01*
X47080098Y-154358866D01*
X47093919Y-154393714D01*
X47106338Y-154429882D01*
X47117372Y-154467356D01*
X47127040Y-154506121D01*
X47135361Y-154546161D01*
X47142351Y-154587463D01*
X47148030Y-154630011D01*
X47152415Y-154673790D01*
X47155525Y-154718786D01*
X47157377Y-154764984D01*
X47157991Y-154812369D01*
X47157991Y-156154593D01*
X47156985Y-156215070D01*
X47154005Y-156272731D01*
X47149107Y-156327645D01*
X47142347Y-156379878D01*
X47133781Y-156429498D01*
X47123465Y-156476573D01*
X47111456Y-156521168D01*
X47097808Y-156563353D01*
X47082579Y-156603194D01*
X47065825Y-156640758D01*
X47047601Y-156676112D01*
X47027964Y-156709325D01*
X47006969Y-156740463D01*
X46984674Y-156769594D01*
X46961133Y-156796785D01*
X46936403Y-156822104D01*
X46910278Y-156845732D01*
X46883340Y-156867140D01*
X46855682Y-156886423D01*
X46827398Y-156903678D01*
X46798583Y-156919000D01*
X46769329Y-156932486D01*
X46739732Y-156944231D01*
X46709884Y-156954333D01*
X46679880Y-156962886D01*
X46649815Y-156969987D01*
X46619780Y-156975732D01*
X46589872Y-156980217D01*
X46560183Y-156983538D01*
X46530808Y-156985791D01*
X46501841Y-156987073D01*
X46473375Y-156987479D01*
X46445608Y-156987073D01*
X46417277Y-156985791D01*
X46388476Y-156983538D01*
X46359303Y-156980217D01*
X46329854Y-156975732D01*
X46300226Y-156969987D01*
X46270515Y-156962886D01*
X46240818Y-156954333D01*
X46211231Y-156944231D01*
X46181851Y-156932486D01*
X46152774Y-156919000D01*
X46124098Y-156903678D01*
X46095917Y-156886423D01*
X46068330Y-156867140D01*
X46041433Y-156845732D01*
X46015321Y-156822104D01*
X45990585Y-156796790D01*
X45967027Y-156769603D01*
X45944704Y-156740475D01*
X45923674Y-156709338D01*
X45903995Y-156676126D01*
X45885725Y-156640771D01*
X45868921Y-156603206D01*
X45853641Y-156563364D01*
X45839943Y-156521178D01*
X45827883Y-156476581D01*
X45817521Y-156429505D01*
X45808913Y-156379883D01*
X45802118Y-156327648D01*
X45797193Y-156272733D01*
X45794196Y-156215070D01*
X45793184Y-156154593D01*
X46074297Y-156154593D01*
X46074746Y-156192198D01*
X46076081Y-156228291D01*
X46078283Y-156262884D01*
X46081332Y-156295992D01*
X46085208Y-156327627D01*
X46089891Y-156357804D01*
X46095362Y-156386536D01*
X46101602Y-156413836D01*
X46108591Y-156439718D01*
X46116309Y-156464196D01*
X46124737Y-156487283D01*
X46133854Y-156508992D01*
X46143643Y-156529338D01*
X46154082Y-156548333D01*
X46165153Y-156565992D01*
X46176836Y-156582327D01*
X46189122Y-156597494D01*
X46202052Y-156611640D01*
X46215665Y-156624773D01*
X46230002Y-156636896D01*
X46245104Y-156648017D01*
X46261012Y-156658141D01*
X46277766Y-156667274D01*
X46295408Y-156675421D01*
X46313977Y-156682588D01*
X46333516Y-156688781D01*
X46354064Y-156694006D01*
X46375662Y-156698267D01*
X46398352Y-156701572D01*
X46422173Y-156703925D01*
X46447167Y-156705333D01*
X46473375Y-156705801D01*
X46498952Y-156705359D01*
X46523414Y-156704026D01*
X46546794Y-156701791D01*
X46569126Y-156698645D01*
X46590444Y-156694579D01*
X46610782Y-156689581D01*
X46630175Y-156683642D01*
X46648654Y-156676752D01*
X46666256Y-156668902D01*
X46674738Y-156664613D01*
X46683014Y-156660080D01*
X46691087Y-156655302D01*
X46698961Y-156650278D01*
X46706642Y-156645005D01*
X46714132Y-156639484D01*
X46728561Y-156627690D01*
X46742281Y-156614885D01*
X46755327Y-156601059D01*
X46767732Y-156586203D01*
X46779540Y-156570153D01*
X46790755Y-156552749D01*
X46801354Y-156533971D01*
X46811314Y-156513794D01*
X46820611Y-156492198D01*
X46829222Y-156469160D01*
X46837124Y-156444658D01*
X46844293Y-156418669D01*
X46850706Y-156391172D01*
X46856340Y-156362144D01*
X46861171Y-156331564D01*
X46865176Y-156299408D01*
X46868331Y-156265656D01*
X46870614Y-156230284D01*
X46872001Y-156193270D01*
X46872468Y-156154593D01*
X46872468Y-154812369D01*
X46872019Y-154774001D01*
X46870683Y-154737275D01*
X46868482Y-154702172D01*
X46865436Y-154668670D01*
X46861565Y-154636748D01*
X46856892Y-154606387D01*
X46851435Y-154577566D01*
X46845216Y-154550265D01*
X46838256Y-154524462D01*
X46830574Y-154500137D01*
X46822192Y-154477270D01*
X46813129Y-154455841D01*
X46803408Y-154435828D01*
X46793048Y-154417212D01*
X46782070Y-154399971D01*
X46770494Y-154384085D01*
X46758307Y-154369376D01*
X46745460Y-154355672D01*
X46731913Y-154342966D01*
X46717623Y-154331250D01*
X46702551Y-154320516D01*
X46686655Y-154310757D01*
X46669894Y-154301964D01*
X46652227Y-154294131D01*
X46633614Y-154287248D01*
X46614013Y-154281308D01*
X46593383Y-154276303D01*
X46571684Y-154272226D01*
X46548875Y-154269069D01*
X46524914Y-154266823D01*
X46499761Y-154265481D01*
X46473375Y-154265036D01*
X46446766Y-154265505D01*
X46421434Y-154266916D01*
X46397336Y-154269272D01*
X46374424Y-154272578D01*
X46352655Y-154276839D01*
X46331983Y-154282058D01*
X46322045Y-154285028D01*
X46312364Y-154288240D01*
X46302935Y-154291694D01*
X46293752Y-154295390D01*
X46284810Y-154299328D01*
X46276103Y-154303511D01*
X46267625Y-154307937D01*
X46259371Y-154312608D01*
X46251335Y-154317524D01*
X46243511Y-154322685D01*
X46235894Y-154328093D01*
X46228478Y-154333748D01*
X46221258Y-154339649D01*
X46214228Y-154345799D01*
X46200715Y-154358844D01*
X46187895Y-154372886D01*
X46175722Y-154387930D01*
X46164157Y-154404140D01*
X46153200Y-154421670D01*
X46142870Y-154440534D01*
X46133185Y-154460742D01*
X46124165Y-154482306D01*
X46115829Y-154505239D01*
X46108196Y-154529551D01*
X46101285Y-154555254D01*
X46095116Y-154582361D01*
X46089707Y-154610882D01*
X46085078Y-154640829D01*
X46081248Y-154672214D01*
X46078235Y-154705049D01*
X46076060Y-154739346D01*
X46074741Y-154775115D01*
X46074297Y-154812369D01*
X46074297Y-156154593D01*
X45793184Y-156154593D01*
X45793184Y-154812369D01*
X45793800Y-154765338D01*
G37*
D10*
X45526411Y-39980446D02*
X45473135Y-39956360D01*
X46845007Y-39722693D02*
X46803238Y-39762517D01*
X44845914Y-38514593D02*
X44864823Y-38458710D01*
X35096425Y-39340396D02*
X35074890Y-39285778D01*
X37407342Y-38872244D02*
X37407342Y-38872244D01*
X35026344Y-39114633D02*
X35015767Y-39055406D01*
X45994562Y-37669531D02*
X46056453Y-37671096D01*
X35120511Y-39393672D02*
X35096425Y-39340396D01*
X44997248Y-38199795D02*
X45030781Y-38152641D01*
D11*
G36*
X34737924Y-55138090D02*
G01*
X34346948Y-55138090D01*
X34346948Y-53772459D01*
X33872186Y-53772459D01*
X33872186Y-53512739D01*
X33903727Y-53512388D01*
X33934465Y-53511334D01*
X33964399Y-53509578D01*
X33993528Y-53507121D01*
X34021851Y-53503965D01*
X34049368Y-53500111D01*
X34076076Y-53495559D01*
X34101975Y-53490310D01*
X34127064Y-53484367D01*
X34151343Y-53477728D01*
X34174809Y-53470396D01*
X34197462Y-53462372D01*
X34219301Y-53453657D01*
X34240325Y-53444251D01*
X34260532Y-53434156D01*
X34279923Y-53423373D01*
X34298495Y-53411902D01*
X34316249Y-53399745D01*
X34333181Y-53386903D01*
X34349293Y-53373376D01*
X34364582Y-53359167D01*
X34379049Y-53344275D01*
X34392690Y-53328702D01*
X34405507Y-53312449D01*
X34417497Y-53295517D01*
X34428660Y-53277907D01*
X34438994Y-53259620D01*
X34448499Y-53240657D01*
X34457174Y-53221019D01*
X34465017Y-53200706D01*
X34472027Y-53179721D01*
X34478204Y-53158064D01*
X34737924Y-53158064D01*
X34737924Y-55138090D01*
G37*
D10*
X46177723Y-37683389D02*
X46236950Y-37693966D01*
X35276554Y-38107206D02*
X35314356Y-38063566D01*
X44798051Y-38995215D02*
X44793406Y-38934136D01*
X47023153Y-39495896D02*
X46991870Y-39544694D01*
X47191065Y-38995215D02*
X47183417Y-39055406D01*
X37401133Y-38749273D02*
X37405777Y-38810353D01*
X36924231Y-39836024D02*
X36877077Y-39869556D01*
X36877077Y-39869556D02*
X36828279Y-39900840D01*
X35439590Y-37944172D02*
X35485025Y-37908467D01*
X37168405Y-38152641D02*
X37201937Y-38199795D01*
X35026344Y-38629855D02*
X35039774Y-38571667D01*
X45994562Y-40074961D02*
X45932670Y-40073396D01*
X45693985Y-40037096D02*
X45636912Y-40020889D01*
X36672779Y-37764046D02*
X36726054Y-37788131D01*
X35314356Y-38063566D02*
X35354180Y-38021797D01*
X47195710Y-38810353D02*
X47197275Y-38872244D01*
X36618162Y-40001980D02*
X36562279Y-40020889D01*
X44886358Y-39340396D02*
X44864823Y-39285778D01*
X45274957Y-39836024D02*
X45229522Y-39800319D01*
X37262181Y-38298959D02*
X37288742Y-38350818D01*
X46408094Y-37742511D02*
X46462711Y-37764046D01*
X45144112Y-38021797D02*
X45185882Y-37981974D01*
X37382907Y-38629855D02*
X37393484Y-38689082D01*
D11*
G36*
X41181427Y-37259973D02*
G01*
X41260180Y-37265588D01*
X41338636Y-37274949D01*
X41416649Y-37288056D01*
X41494069Y-37304910D01*
X41570750Y-37325512D01*
X41646544Y-37349862D01*
X41721303Y-37377962D01*
X41794880Y-37409813D01*
X41867127Y-37445416D01*
X41937897Y-37484770D01*
X42007041Y-37527879D01*
X42074413Y-37574741D01*
X42139863Y-37625359D01*
X42203246Y-37679733D01*
X42264413Y-37737864D01*
X41992136Y-38010149D01*
X41945056Y-37965376D01*
X41896328Y-37923492D01*
X41846060Y-37884496D01*
X41794363Y-37848389D01*
X41741347Y-37815170D01*
X41687120Y-37784840D01*
X41631795Y-37757398D01*
X41575479Y-37732845D01*
X41518284Y-37711181D01*
X41460319Y-37692405D01*
X41401695Y-37676518D01*
X41342521Y-37663519D01*
X41282906Y-37653409D01*
X41222962Y-37646188D01*
X41162798Y-37641855D01*
X41102524Y-37640411D01*
X41042250Y-37641855D01*
X40982086Y-37646188D01*
X40922142Y-37653409D01*
X40862528Y-37663519D01*
X40803353Y-37676518D01*
X40744728Y-37692405D01*
X40686763Y-37711181D01*
X40629568Y-37732845D01*
X40573252Y-37757398D01*
X40517926Y-37784840D01*
X40463699Y-37815170D01*
X40410682Y-37848389D01*
X40358984Y-37884496D01*
X40308716Y-37923492D01*
X40259987Y-37965376D01*
X40212907Y-38010149D01*
X40168135Y-38057231D01*
X40126251Y-38105965D01*
X40087255Y-38156241D01*
X40051148Y-38207949D01*
X40017929Y-38260979D01*
X39987600Y-38315220D01*
X39960158Y-38370564D01*
X39935606Y-38426898D01*
X39913941Y-38484114D01*
X39895166Y-38542101D01*
X39879279Y-38600748D01*
X39866280Y-38659947D01*
X39856170Y-38719586D01*
X39848949Y-38779555D01*
X39844616Y-38839745D01*
X39843172Y-38900045D01*
X39844616Y-38960345D01*
X39848949Y-39020534D01*
X39856170Y-39080504D01*
X39866280Y-39140143D01*
X39879279Y-39199341D01*
X39895166Y-39257988D01*
X39913941Y-39315975D01*
X39935606Y-39373190D01*
X39960158Y-39429524D01*
X39987600Y-39484867D01*
X40017929Y-39539108D01*
X40051148Y-39592137D01*
X40087255Y-39643845D01*
X40126251Y-39694120D01*
X40168135Y-39742854D01*
X40212907Y-39789934D01*
X40259987Y-39834709D01*
X40308716Y-39876595D01*
X40358984Y-39915592D01*
X40410682Y-39951700D01*
X40463699Y-39984920D01*
X40517925Y-40015251D01*
X40573251Y-40042693D01*
X40629567Y-40067247D01*
X40686762Y-40088912D01*
X40744727Y-40107688D01*
X40803351Y-40123576D01*
X40862526Y-40136575D01*
X40922140Y-40146685D01*
X40982084Y-40153907D01*
X41042248Y-40158240D01*
X41102521Y-40159685D01*
X41162795Y-40158240D01*
X41222959Y-40153907D01*
X41282903Y-40146685D01*
X41342517Y-40136575D01*
X41401691Y-40123576D01*
X41460316Y-40107688D01*
X41518281Y-40088912D01*
X41575476Y-40067247D01*
X41631792Y-40042693D01*
X41687117Y-40015251D01*
X41741344Y-39984920D01*
X41794361Y-39951700D01*
X41846059Y-39915592D01*
X41896327Y-39876595D01*
X41945056Y-39834709D01*
X41992136Y-39789934D01*
X42264413Y-40062220D01*
X42203245Y-40120356D01*
X42139861Y-40174742D01*
X42074409Y-40225377D01*
X42007036Y-40272261D01*
X41937890Y-40315394D01*
X41867118Y-40354777D01*
X41794869Y-40390409D01*
X41721291Y-40422290D01*
X41646531Y-40450421D01*
X41570736Y-40474801D01*
X41494055Y-40495430D01*
X41416636Y-40512308D01*
X41338625Y-40525436D01*
X41260171Y-40534812D01*
X41181422Y-40540438D01*
X41102524Y-40542314D01*
X41023627Y-40540438D01*
X40944877Y-40534812D01*
X40866423Y-40525436D01*
X40788413Y-40512308D01*
X40710993Y-40495430D01*
X40634311Y-40474801D01*
X40558517Y-40450421D01*
X40483756Y-40422290D01*
X40410177Y-40390409D01*
X40337928Y-40354777D01*
X40267156Y-40315394D01*
X40198010Y-40272261D01*
X40130636Y-40225377D01*
X40065183Y-40174742D01*
X40001798Y-40120356D01*
X39940629Y-40062220D01*
X39882494Y-40001050D01*
X39828109Y-39937660D01*
X39777475Y-39872199D01*
X39730592Y-39804815D01*
X39687459Y-39735656D01*
X39648078Y-39664869D01*
X39612446Y-39592603D01*
X39580565Y-39519006D01*
X39552435Y-39444224D01*
X39528056Y-39368408D01*
X39507427Y-39291703D01*
X39490550Y-39214259D01*
X39477422Y-39136223D01*
X39468045Y-39057743D01*
X39462419Y-38978967D01*
X39460544Y-38900043D01*
X39462419Y-38821120D01*
X39468045Y-38742344D01*
X39477422Y-38663864D01*
X39490550Y-38585828D01*
X39507427Y-38508383D01*
X39528056Y-38431679D01*
X39552435Y-38355862D01*
X39580565Y-38281080D01*
X39612446Y-38207482D01*
X39648078Y-38135216D01*
X39687459Y-38064429D01*
X39730592Y-37995270D01*
X39777475Y-37927885D01*
X39828109Y-37862424D01*
X39882494Y-37799034D01*
X39940629Y-37737864D01*
X40001798Y-37679733D01*
X40065181Y-37625359D01*
X40130633Y-37574741D01*
X40198005Y-37527879D01*
X40267150Y-37484770D01*
X40337919Y-37445416D01*
X40410166Y-37409813D01*
X40483743Y-37377962D01*
X40558503Y-37349862D01*
X40634297Y-37325512D01*
X40710978Y-37304910D01*
X40788398Y-37288056D01*
X40866411Y-37274949D01*
X40944868Y-37265588D01*
X41023622Y-37259973D01*
X41102525Y-37258101D01*
X41181427Y-37259973D01*
G37*
G36*
X44936861Y-53102209D02*
G01*
X44994114Y-53103034D01*
X45048648Y-53105531D01*
X45100555Y-53109739D01*
X45149929Y-53115694D01*
X45196866Y-53123432D01*
X45241459Y-53132991D01*
X45283802Y-53144407D01*
X45323989Y-53157717D01*
X45362115Y-53172958D01*
X45398274Y-53190166D01*
X45415645Y-53199520D01*
X45432559Y-53209379D01*
X45449028Y-53219749D01*
X45465065Y-53230634D01*
X45480680Y-53242038D01*
X45495886Y-53253966D01*
X45525116Y-53279413D01*
X45552849Y-53307011D01*
X45579179Y-53336798D01*
X45608663Y-53373899D01*
X45636363Y-53412894D01*
X45662263Y-53453713D01*
X45686347Y-53496288D01*
X45708599Y-53540547D01*
X45729001Y-53586423D01*
X45747539Y-53633845D01*
X45764194Y-53682744D01*
X45778951Y-53733050D01*
X45791794Y-53784694D01*
X45802706Y-53837606D01*
X45811671Y-53891716D01*
X45818672Y-53946955D01*
X45823693Y-54003253D01*
X45826718Y-54060542D01*
X45827730Y-54118750D01*
X45826718Y-54177450D01*
X45823693Y-54235165D01*
X45818672Y-54291825D01*
X45811671Y-54347359D01*
X45802706Y-54401699D01*
X45791794Y-54454775D01*
X45778951Y-54506517D01*
X45764194Y-54556856D01*
X45747539Y-54605723D01*
X45729001Y-54653047D01*
X45708599Y-54698760D01*
X45686347Y-54742791D01*
X45662263Y-54785071D01*
X45636363Y-54825530D01*
X45608663Y-54864100D01*
X45579179Y-54900709D01*
X45552818Y-54930528D01*
X45525001Y-54958215D01*
X45495646Y-54983800D01*
X45464672Y-55007310D01*
X45431996Y-55028776D01*
X45397537Y-55048225D01*
X45361213Y-55065685D01*
X45322942Y-55081187D01*
X45282642Y-55094757D01*
X45240232Y-55106425D01*
X45195629Y-55116220D01*
X45148751Y-55124170D01*
X45099518Y-55130303D01*
X45047846Y-55134648D01*
X44993654Y-55137235D01*
X44936861Y-55138090D01*
X44140932Y-55138090D01*
X44140932Y-54789000D01*
X44559846Y-54789000D01*
X44936861Y-54789007D01*
X44994165Y-54786421D01*
X45021419Y-54783186D01*
X45047743Y-54778655D01*
X45073136Y-54772827D01*
X45097598Y-54765701D01*
X45121132Y-54757277D01*
X45143736Y-54747553D01*
X45165411Y-54736528D01*
X45186159Y-54724200D01*
X45205979Y-54710571D01*
X45224872Y-54695636D01*
X45242838Y-54679397D01*
X45259878Y-54661852D01*
X45275993Y-54643000D01*
X45291183Y-54622840D01*
X45305448Y-54601371D01*
X45318790Y-54578592D01*
X45331207Y-54554501D01*
X45342702Y-54529099D01*
X45362925Y-54474353D01*
X45379461Y-54414347D01*
X45392316Y-54349072D01*
X45401493Y-54278519D01*
X45406997Y-54202681D01*
X45408830Y-54121550D01*
X45408372Y-54080068D01*
X45406997Y-54039926D01*
X45404704Y-54001123D01*
X45401493Y-53963657D01*
X45397364Y-53927527D01*
X45392316Y-53892731D01*
X45386349Y-53859268D01*
X45379461Y-53827135D01*
X45371654Y-53796333D01*
X45362925Y-53766858D01*
X45353274Y-53738710D01*
X45342702Y-53711887D01*
X45331207Y-53686387D01*
X45318790Y-53662210D01*
X45305448Y-53639352D01*
X45291183Y-53617813D01*
X45275993Y-53597592D01*
X45259878Y-53578686D01*
X45242838Y-53561095D01*
X45224872Y-53544816D01*
X45205979Y-53529849D01*
X45186159Y-53516191D01*
X45165411Y-53503841D01*
X45143736Y-53492797D01*
X45121132Y-53483059D01*
X45097598Y-53474624D01*
X45073136Y-53467491D01*
X45047743Y-53461658D01*
X45021419Y-53457124D01*
X44994165Y-53453887D01*
X44965979Y-53451947D01*
X44936861Y-53451300D01*
X44559846Y-53451300D01*
X44559846Y-54789000D01*
X44140932Y-54789000D01*
X44140932Y-53102209D01*
X44936861Y-53102209D01*
G37*
D10*
X45811401Y-40061103D02*
X45752173Y-40050526D01*
X45066486Y-38107206D02*
X45104288Y-38063566D01*
X37407342Y-38872244D02*
X37407342Y-38872244D01*
X45994562Y-37669531D02*
X45994562Y-37669531D01*
D11*
G36*
X47028005Y-53069476D02*
G01*
X47071275Y-53071792D01*
X47113682Y-53075637D01*
X47155198Y-53080996D01*
X47195791Y-53087856D01*
X47235431Y-53096204D01*
X47274089Y-53106027D01*
X47311734Y-53117311D01*
X47348336Y-53130044D01*
X47383864Y-53144211D01*
X47418289Y-53159800D01*
X47451581Y-53176797D01*
X47483708Y-53195190D01*
X47514642Y-53214964D01*
X47544352Y-53236106D01*
X47572807Y-53258603D01*
X47599978Y-53282443D01*
X47625834Y-53307610D01*
X47650345Y-53334093D01*
X47673482Y-53361878D01*
X47695213Y-53390951D01*
X47715509Y-53421300D01*
X47734339Y-53452911D01*
X47751674Y-53485771D01*
X47767483Y-53519866D01*
X47781736Y-53555183D01*
X47794403Y-53591709D01*
X47805453Y-53629430D01*
X47814857Y-53668334D01*
X47822584Y-53708407D01*
X47828604Y-53749635D01*
X47832887Y-53792006D01*
X47433519Y-53792006D01*
X47433519Y-53792014D01*
X47422704Y-53746626D01*
X47414934Y-53719880D01*
X47405115Y-53691257D01*
X47392890Y-53661374D01*
X47377904Y-53630848D01*
X47359800Y-53600298D01*
X47349469Y-53585207D01*
X47338224Y-53570341D01*
X47326022Y-53555778D01*
X47312818Y-53541596D01*
X47298568Y-53527870D01*
X47283228Y-53514678D01*
X47266752Y-53502099D01*
X47249096Y-53490208D01*
X47230216Y-53479083D01*
X47210067Y-53468801D01*
X47188605Y-53459440D01*
X47165786Y-53451076D01*
X47141564Y-53443787D01*
X47115896Y-53437650D01*
X47088736Y-53432743D01*
X47060041Y-53429142D01*
X47029765Y-53426925D01*
X46997865Y-53426169D01*
X46967357Y-53426952D01*
X46937630Y-53429289D01*
X46908697Y-53433166D01*
X46880570Y-53438567D01*
X46853262Y-53445475D01*
X46826783Y-53453874D01*
X46801148Y-53463749D01*
X46776367Y-53475084D01*
X46752454Y-53487864D01*
X46729421Y-53502071D01*
X46707279Y-53517691D01*
X46686042Y-53534707D01*
X46665720Y-53553104D01*
X46646328Y-53572866D01*
X46627876Y-53593977D01*
X46610378Y-53616421D01*
X46593845Y-53640182D01*
X46578290Y-53665245D01*
X46563724Y-53691593D01*
X46550161Y-53719211D01*
X46526091Y-53778193D01*
X46506178Y-53842064D01*
X46490518Y-53910696D01*
X46479212Y-53983963D01*
X46472356Y-54061739D01*
X46470048Y-54143896D01*
X46470603Y-54184991D01*
X46472260Y-54225007D01*
X46475009Y-54263929D01*
X46478841Y-54301744D01*
X46483744Y-54338435D01*
X46489708Y-54373989D01*
X46496724Y-54408390D01*
X46504782Y-54441624D01*
X46513869Y-54473675D01*
X46523978Y-54504529D01*
X46535097Y-54534172D01*
X46547216Y-54562588D01*
X46560326Y-54589762D01*
X46574415Y-54615679D01*
X46589473Y-54640326D01*
X46605491Y-54663686D01*
X46622458Y-54685746D01*
X46640364Y-54706489D01*
X46659199Y-54725903D01*
X46678952Y-54743970D01*
X46699613Y-54760678D01*
X46721172Y-54776011D01*
X46743619Y-54789953D01*
X46766943Y-54802491D01*
X46791135Y-54813610D01*
X46816184Y-54823294D01*
X46842080Y-54831529D01*
X46868812Y-54838300D01*
X46896371Y-54843592D01*
X46924746Y-54847390D01*
X46953927Y-54849680D01*
X46983903Y-54850447D01*
X47007973Y-54850015D01*
X47031477Y-54848721D01*
X47054409Y-54846574D01*
X47076759Y-54843580D01*
X47098521Y-54839745D01*
X47119685Y-54835076D01*
X47140244Y-54829579D01*
X47160189Y-54823262D01*
X47179512Y-54816131D01*
X47198205Y-54808192D01*
X47216260Y-54799453D01*
X47233669Y-54789919D01*
X47250423Y-54779598D01*
X47266514Y-54768496D01*
X47281935Y-54756620D01*
X47296676Y-54743976D01*
X47310730Y-54730571D01*
X47324089Y-54716412D01*
X47336744Y-54701506D01*
X47348688Y-54685858D01*
X47359911Y-54669476D01*
X47370407Y-54652367D01*
X47380166Y-54634536D01*
X47389181Y-54615991D01*
X47397443Y-54596738D01*
X47404945Y-54576784D01*
X47411677Y-54556136D01*
X47417632Y-54534799D01*
X47422802Y-54512782D01*
X47427179Y-54490090D01*
X47430754Y-54466730D01*
X47433519Y-54442709D01*
X47841264Y-54442709D01*
X47837995Y-54485922D01*
X47832920Y-54528098D01*
X47826065Y-54569215D01*
X47817457Y-54609252D01*
X47807123Y-54648187D01*
X47795090Y-54685997D01*
X47781383Y-54722660D01*
X47766030Y-54758155D01*
X47749057Y-54792459D01*
X47730491Y-54825551D01*
X47710358Y-54857409D01*
X47688685Y-54888010D01*
X47665498Y-54917332D01*
X47640824Y-54945355D01*
X47614690Y-54972055D01*
X47587121Y-54997410D01*
X47558146Y-55021399D01*
X47527790Y-55044000D01*
X47496080Y-55065190D01*
X47463042Y-55084949D01*
X47428703Y-55103252D01*
X47393090Y-55120080D01*
X47356230Y-55135409D01*
X47318148Y-55149218D01*
X47278871Y-55161485D01*
X47238426Y-55172187D01*
X47196840Y-55181304D01*
X47154140Y-55188812D01*
X47110350Y-55194690D01*
X47065499Y-55198915D01*
X47019613Y-55201467D01*
X46972719Y-55202322D01*
X46920197Y-55201125D01*
X46868945Y-55197552D01*
X46818989Y-55191636D01*
X46770354Y-55183406D01*
X46723068Y-55172893D01*
X46677155Y-55160129D01*
X46632642Y-55145143D01*
X46589556Y-55127966D01*
X46547922Y-55108630D01*
X46507766Y-55087164D01*
X46469114Y-55063599D01*
X46431993Y-55037967D01*
X46396429Y-55010297D01*
X46362447Y-54980621D01*
X46330073Y-54948969D01*
X46299335Y-54915371D01*
X46270257Y-54879859D01*
X46242867Y-54842464D01*
X46217189Y-54803215D01*
X46193251Y-54762144D01*
X46171078Y-54719280D01*
X46150696Y-54674656D01*
X46132131Y-54628302D01*
X46115410Y-54580247D01*
X46100558Y-54530524D01*
X46087602Y-54479162D01*
X46076567Y-54426193D01*
X46067481Y-54371646D01*
X46060368Y-54315553D01*
X46055255Y-54257945D01*
X46051134Y-54138304D01*
X46052177Y-54077248D01*
X46055289Y-54017679D01*
X46060444Y-53959625D01*
X46067617Y-53903116D01*
X46076783Y-53848183D01*
X46087915Y-53794854D01*
X46100988Y-53743159D01*
X46115977Y-53693129D01*
X46132856Y-53644792D01*
X46151599Y-53598179D01*
X46172181Y-53553318D01*
X46194577Y-53510240D01*
X46218760Y-53468974D01*
X46244705Y-53429551D01*
X46272387Y-53391998D01*
X46301780Y-53356347D01*
X46332859Y-53322627D01*
X46365597Y-53290868D01*
X46399969Y-53261099D01*
X46435951Y-53233349D01*
X46473516Y-53207649D01*
X46512638Y-53184029D01*
X46553292Y-53162517D01*
X46595453Y-53143143D01*
X46639094Y-53125938D01*
X46684191Y-53110931D01*
X46730718Y-53098151D01*
X46778649Y-53087628D01*
X46827958Y-53079392D01*
X46878621Y-53073472D01*
X46930611Y-53069899D01*
X46983903Y-53068701D01*
X47028005Y-53069476D01*
G37*
D10*
X46295138Y-37707396D02*
X46352211Y-37723603D01*
X46515987Y-37788131D02*
X46567845Y-37814692D01*
X46515987Y-39956360D02*
X46462711Y-39980446D01*
X35485025Y-39836024D02*
X35439590Y-39800319D01*
X45030781Y-38152641D02*
X45066486Y-38107206D01*
X36204629Y-37669531D02*
X36204629Y-37669531D01*
X35001909Y-38872244D02*
X35003474Y-38810353D01*
X44805699Y-39055406D02*
X44798051Y-38995215D01*
X45752173Y-37693966D02*
X45811401Y-37683389D01*
X46462711Y-37764046D02*
X46515987Y-37788131D01*
D11*
G36*
X36971025Y-39079562D02*
G01*
X35460634Y-39079562D01*
X35460634Y-38720438D01*
X36971025Y-38720438D01*
X36971025Y-39079562D01*
G37*
D10*
X46177723Y-40061103D02*
X46117532Y-40068752D01*
X37407342Y-38872244D02*
X37405777Y-38934136D01*
X36777913Y-39929800D02*
X36726054Y-39956360D01*
X45581028Y-40001980D02*
X45526411Y-39980446D01*
X37094899Y-38063566D02*
X37132701Y-38107206D01*
X45421276Y-37814692D02*
X45473135Y-37788131D01*
X45581028Y-37742511D02*
X45636912Y-37723603D01*
X45526411Y-37764046D02*
X45581028Y-37742511D01*
X36204629Y-40074961D02*
X36142738Y-40073396D01*
X46845007Y-38021797D02*
X46884831Y-38063566D01*
D11*
G36*
X39239755Y-55138090D02*
G01*
X38848779Y-55138090D01*
X38848779Y-53772459D01*
X38374017Y-53772459D01*
X38374017Y-53512739D01*
X38405558Y-53512388D01*
X38436296Y-53511334D01*
X38466230Y-53509578D01*
X38495359Y-53507121D01*
X38523682Y-53503965D01*
X38551198Y-53500111D01*
X38577906Y-53495559D01*
X38603805Y-53490310D01*
X38628894Y-53484367D01*
X38653172Y-53477728D01*
X38676638Y-53470396D01*
X38699291Y-53462372D01*
X38721130Y-53453657D01*
X38742153Y-53444251D01*
X38762361Y-53434156D01*
X38781751Y-53423373D01*
X38800323Y-53411902D01*
X38818076Y-53399745D01*
X38835009Y-53386903D01*
X38851121Y-53373376D01*
X38866410Y-53359167D01*
X38880876Y-53344275D01*
X38894518Y-53328702D01*
X38907335Y-53312449D01*
X38919325Y-53295517D01*
X38930488Y-53277907D01*
X38940823Y-53259620D01*
X38950328Y-53240657D01*
X38959003Y-53221019D01*
X38966846Y-53200706D01*
X38973858Y-53179721D01*
X38980035Y-53158064D01*
X39239755Y-53158064D01*
X39239755Y-55138090D01*
G37*
D10*
X47102759Y-39340396D02*
X47078674Y-39393672D01*
X45871592Y-40068752D02*
X45811401Y-40061103D01*
X36828279Y-37843652D02*
X36877077Y-37874935D01*
X47143203Y-39229895D02*
X47124294Y-39285778D01*
X35003474Y-38810353D02*
X35008118Y-38749273D01*
X35314356Y-39680924D02*
X35276554Y-39637284D01*
X46567845Y-37814692D02*
X46618211Y-37843652D01*
X45693985Y-37707396D02*
X45752173Y-37693966D01*
X44829706Y-39172822D02*
X44816276Y-39114633D01*
X46884831Y-39680924D02*
X46845007Y-39722693D01*
X46667009Y-39869556D02*
X46618211Y-39900840D01*
X35055981Y-39229895D02*
X35039774Y-39172822D01*
X46117532Y-37675741D02*
X46177723Y-37683389D01*
%LPC*%
D12*
X41000000Y-136500000D03*
X41000000Y-100250000D03*
D13*
X38500000Y-33000000D03*
X38500000Y-155500000D03*
M02*
