G04 #@! TF.GenerationSoftware,KiCad,Pcbnew,6.0.4-6f826c9f35~116~ubuntu18.04.1*
G04 #@! TF.CreationDate,2022-10-10T17:57:14-04:00*
G04 #@! TF.ProjectId,4UP-panel,3455502d-7061-46e6-956c-2e6b69636164,rev?*
G04 #@! TF.SameCoordinates,Original*
G04 #@! TF.FileFunction,Copper,L1,Top*
G04 #@! TF.FilePolarity,Positive*
%FSLAX46Y46*%
G04 Gerber Fmt 4.6, Leading zero omitted, Abs format (unit mm)*
G04 Created by KiCad (PCBNEW 6.0.4-6f826c9f35~116~ubuntu18.04.1) date 2022-10-10 17:57:14*
%MOMM*%
%LPD*%
G01*
G04 APERTURE LIST*
G04 APERTURE END LIST*
G04 #@! TA.AperFunction,NonConductor*
G36*
X50931621Y-30030502D02*
G01*
X50978114Y-30084158D01*
X50989500Y-30136500D01*
X50989500Y-158363500D01*
X50969498Y-158431621D01*
X50915842Y-158478114D01*
X50863500Y-158489500D01*
X31136500Y-158489500D01*
X31068379Y-158469498D01*
X31021886Y-158415842D01*
X31010500Y-158363500D01*
X31010500Y-155543233D01*
X35094906Y-155543233D01*
X35121102Y-155817792D01*
X35186657Y-156085694D01*
X35290199Y-156341326D01*
X35292500Y-156345256D01*
X35292503Y-156345262D01*
X35427255Y-156575403D01*
X35427260Y-156575410D01*
X35429558Y-156579335D01*
X35432405Y-156582895D01*
X35550028Y-156729974D01*
X35601816Y-156794732D01*
X35803364Y-156983008D01*
X36029979Y-157140216D01*
X36034055Y-157142244D01*
X36034057Y-157142245D01*
X36272827Y-157261032D01*
X36272830Y-157261033D01*
X36276914Y-157263065D01*
X36538998Y-157348980D01*
X36543489Y-157349760D01*
X36543490Y-157349760D01*
X36806957Y-157395506D01*
X36806965Y-157395507D01*
X36810738Y-157396162D01*
X36814575Y-157396353D01*
X36896305Y-157400422D01*
X36896313Y-157400422D01*
X36897876Y-157400500D01*
X40070070Y-157400500D01*
X40072338Y-157400335D01*
X40072350Y-157400335D01*
X40206603Y-157390594D01*
X40275083Y-157385625D01*
X40279538Y-157384641D01*
X40279541Y-157384641D01*
X40539947Y-157327148D01*
X40539950Y-157327147D01*
X40544403Y-157326164D01*
X40802319Y-157228449D01*
X41043428Y-157094525D01*
X41262678Y-156927198D01*
X41265873Y-156923930D01*
X41452283Y-156733242D01*
X41452287Y-156733237D01*
X41455477Y-156729974D01*
X41617787Y-156506984D01*
X41746206Y-156262899D01*
X41838045Y-156002832D01*
X41874516Y-155817792D01*
X41890499Y-155736704D01*
X41890500Y-155736698D01*
X41891380Y-155732232D01*
X41891607Y-155727676D01*
X41904867Y-155461336D01*
X41904867Y-155461330D01*
X41905094Y-155456767D01*
X41878898Y-155182208D01*
X41813343Y-154914306D01*
X41709801Y-154658674D01*
X41707500Y-154654744D01*
X41707497Y-154654738D01*
X41572745Y-154424597D01*
X41572740Y-154424590D01*
X41570442Y-154420665D01*
X41452927Y-154273720D01*
X41401036Y-154208834D01*
X41401035Y-154208833D01*
X41398184Y-154205268D01*
X41196636Y-154016992D01*
X40970021Y-153859784D01*
X40792667Y-153771551D01*
X40727173Y-153738968D01*
X40727170Y-153738967D01*
X40723086Y-153736935D01*
X40461002Y-153651020D01*
X40456510Y-153650240D01*
X40193043Y-153604494D01*
X40193035Y-153604493D01*
X40189262Y-153603838D01*
X40179029Y-153603329D01*
X40103695Y-153599578D01*
X40103687Y-153599578D01*
X40102124Y-153599500D01*
X36929930Y-153599500D01*
X36927662Y-153599665D01*
X36927650Y-153599665D01*
X36793397Y-153609406D01*
X36724917Y-153614375D01*
X36720462Y-153615359D01*
X36720459Y-153615359D01*
X36460053Y-153672852D01*
X36460050Y-153672853D01*
X36455597Y-153673836D01*
X36197681Y-153771551D01*
X35956572Y-153905475D01*
X35737322Y-154072802D01*
X35734129Y-154076068D01*
X35734127Y-154076070D01*
X35547717Y-154266758D01*
X35547713Y-154266763D01*
X35544523Y-154270026D01*
X35382213Y-154493016D01*
X35253794Y-154737101D01*
X35161955Y-154997168D01*
X35161075Y-155001634D01*
X35124587Y-155186760D01*
X35108620Y-155267768D01*
X35108393Y-155272322D01*
X35108393Y-155272324D01*
X35099211Y-155456767D01*
X35094906Y-155543233D01*
X31010500Y-155543233D01*
X31010500Y-136543233D01*
X39094906Y-136543233D01*
X39121102Y-136817792D01*
X39186657Y-137085694D01*
X39290199Y-137341326D01*
X39292500Y-137345256D01*
X39292503Y-137345262D01*
X39427255Y-137575403D01*
X39427260Y-137575410D01*
X39429558Y-137579335D01*
X39432405Y-137582895D01*
X39550028Y-137729974D01*
X39601816Y-137794732D01*
X39803364Y-137983008D01*
X40029979Y-138140216D01*
X40034055Y-138142244D01*
X40034057Y-138142245D01*
X40272827Y-138261032D01*
X40272830Y-138261033D01*
X40276914Y-138263065D01*
X40538998Y-138348980D01*
X40543489Y-138349760D01*
X40543490Y-138349760D01*
X40806957Y-138395506D01*
X40806965Y-138395507D01*
X40810738Y-138396162D01*
X40814575Y-138396353D01*
X40896305Y-138400422D01*
X40896313Y-138400422D01*
X40897876Y-138400500D01*
X41070070Y-138400500D01*
X41072338Y-138400335D01*
X41072350Y-138400335D01*
X41206603Y-138390594D01*
X41275083Y-138385625D01*
X41279538Y-138384641D01*
X41279541Y-138384641D01*
X41539947Y-138327148D01*
X41539950Y-138327147D01*
X41544403Y-138326164D01*
X41802319Y-138228449D01*
X42043428Y-138094525D01*
X42262678Y-137927198D01*
X42265873Y-137923930D01*
X42452283Y-137733242D01*
X42452287Y-137733237D01*
X42455477Y-137729974D01*
X42617787Y-137506984D01*
X42746206Y-137262899D01*
X42838045Y-137002832D01*
X42874516Y-136817792D01*
X42890499Y-136736704D01*
X42890500Y-136736698D01*
X42891380Y-136732232D01*
X42891607Y-136727676D01*
X42904867Y-136461336D01*
X42904867Y-136461330D01*
X42905094Y-136456767D01*
X42878898Y-136182208D01*
X42813343Y-135914306D01*
X42709801Y-135658674D01*
X42707500Y-135654744D01*
X42707497Y-135654738D01*
X42572745Y-135424597D01*
X42572740Y-135424590D01*
X42570442Y-135420665D01*
X42452927Y-135273720D01*
X42401036Y-135208834D01*
X42401035Y-135208833D01*
X42398184Y-135205268D01*
X42196636Y-135016992D01*
X41970021Y-134859784D01*
X41792667Y-134771551D01*
X41727173Y-134738968D01*
X41727170Y-134738967D01*
X41723086Y-134736935D01*
X41461002Y-134651020D01*
X41456510Y-134650240D01*
X41193043Y-134604494D01*
X41193035Y-134604493D01*
X41189262Y-134603838D01*
X41179029Y-134603329D01*
X41103695Y-134599578D01*
X41103687Y-134599578D01*
X41102124Y-134599500D01*
X40929930Y-134599500D01*
X40927662Y-134599665D01*
X40927650Y-134599665D01*
X40793397Y-134609406D01*
X40724917Y-134614375D01*
X40720462Y-134615359D01*
X40720459Y-134615359D01*
X40460053Y-134672852D01*
X40460050Y-134672853D01*
X40455597Y-134673836D01*
X40197681Y-134771551D01*
X39956572Y-134905475D01*
X39737322Y-135072802D01*
X39734129Y-135076068D01*
X39734127Y-135076070D01*
X39547717Y-135266758D01*
X39547713Y-135266763D01*
X39544523Y-135270026D01*
X39382213Y-135493016D01*
X39253794Y-135737101D01*
X39161955Y-135997168D01*
X39161075Y-136001634D01*
X39124587Y-136186760D01*
X39108620Y-136267768D01*
X39108393Y-136272322D01*
X39108393Y-136272324D01*
X39099211Y-136456767D01*
X39094906Y-136543233D01*
X31010500Y-136543233D01*
X31010500Y-100293233D01*
X39094906Y-100293233D01*
X39121102Y-100567792D01*
X39186657Y-100835694D01*
X39290199Y-101091326D01*
X39292500Y-101095256D01*
X39292503Y-101095262D01*
X39427255Y-101325403D01*
X39427260Y-101325410D01*
X39429558Y-101329335D01*
X39432405Y-101332895D01*
X39550028Y-101479974D01*
X39601816Y-101544732D01*
X39803364Y-101733008D01*
X40029979Y-101890216D01*
X40034055Y-101892244D01*
X40034057Y-101892245D01*
X40272827Y-102011032D01*
X40272830Y-102011033D01*
X40276914Y-102013065D01*
X40538998Y-102098980D01*
X40543489Y-102099760D01*
X40543490Y-102099760D01*
X40806957Y-102145506D01*
X40806965Y-102145507D01*
X40810738Y-102146162D01*
X40814575Y-102146353D01*
X40896305Y-102150422D01*
X40896313Y-102150422D01*
X40897876Y-102150500D01*
X41070070Y-102150500D01*
X41072338Y-102150335D01*
X41072350Y-102150335D01*
X41206603Y-102140594D01*
X41275083Y-102135625D01*
X41279538Y-102134641D01*
X41279541Y-102134641D01*
X41539947Y-102077148D01*
X41539950Y-102077147D01*
X41544403Y-102076164D01*
X41802319Y-101978449D01*
X42043428Y-101844525D01*
X42262678Y-101677198D01*
X42265873Y-101673930D01*
X42452283Y-101483242D01*
X42452287Y-101483237D01*
X42455477Y-101479974D01*
X42617787Y-101256984D01*
X42746206Y-101012899D01*
X42838045Y-100752832D01*
X42874516Y-100567792D01*
X42890499Y-100486704D01*
X42890500Y-100486698D01*
X42891380Y-100482232D01*
X42891607Y-100477676D01*
X42904867Y-100211336D01*
X42904867Y-100211330D01*
X42905094Y-100206767D01*
X42878898Y-99932208D01*
X42813343Y-99664306D01*
X42709801Y-99408674D01*
X42707500Y-99404744D01*
X42707497Y-99404738D01*
X42572745Y-99174597D01*
X42572740Y-99174590D01*
X42570442Y-99170665D01*
X42452927Y-99023720D01*
X42401036Y-98958834D01*
X42401035Y-98958833D01*
X42398184Y-98955268D01*
X42196636Y-98766992D01*
X41970021Y-98609784D01*
X41792667Y-98521551D01*
X41727173Y-98488968D01*
X41727170Y-98488967D01*
X41723086Y-98486935D01*
X41461002Y-98401020D01*
X41456510Y-98400240D01*
X41193043Y-98354494D01*
X41193035Y-98354493D01*
X41189262Y-98353838D01*
X41179029Y-98353329D01*
X41103695Y-98349578D01*
X41103687Y-98349578D01*
X41102124Y-98349500D01*
X40929930Y-98349500D01*
X40927662Y-98349665D01*
X40927650Y-98349665D01*
X40793397Y-98359406D01*
X40724917Y-98364375D01*
X40720462Y-98365359D01*
X40720459Y-98365359D01*
X40460053Y-98422852D01*
X40460050Y-98422853D01*
X40455597Y-98423836D01*
X40197681Y-98521551D01*
X39956572Y-98655475D01*
X39737322Y-98822802D01*
X39734129Y-98826068D01*
X39734127Y-98826070D01*
X39547717Y-99016758D01*
X39547713Y-99016763D01*
X39544523Y-99020026D01*
X39382213Y-99243016D01*
X39253794Y-99487101D01*
X39161955Y-99747168D01*
X39161075Y-99751634D01*
X39124587Y-99936760D01*
X39108620Y-100017768D01*
X39108393Y-100022322D01*
X39108393Y-100022324D01*
X39099211Y-100206767D01*
X39094906Y-100293233D01*
X31010500Y-100293233D01*
X31010500Y-76700000D01*
X34488635Y-76700000D01*
X34489500Y-76702088D01*
X34491964Y-76708036D01*
X34500000Y-76711365D01*
X34502088Y-76710500D01*
X47597912Y-76710500D01*
X47600000Y-76711365D01*
X47602088Y-76710500D01*
X47608036Y-76708036D01*
X47611365Y-76700000D01*
X47610500Y-76697912D01*
X47610500Y-57302088D01*
X47611365Y-57300000D01*
X47608036Y-57291964D01*
X47602088Y-57289500D01*
X47600000Y-57288635D01*
X47597912Y-57289500D01*
X34502088Y-57289500D01*
X34500000Y-57288635D01*
X34497912Y-57289500D01*
X34491964Y-57291964D01*
X34488635Y-57300000D01*
X34489500Y-57302088D01*
X34489500Y-76697912D01*
X34488635Y-76700000D01*
X31010500Y-76700000D01*
X31010500Y-46941840D01*
X36834888Y-46941840D01*
X36834901Y-46942204D01*
X36834998Y-46944984D01*
X36834998Y-46944988D01*
X36840981Y-47116308D01*
X36849091Y-47348562D01*
X36902915Y-47751956D01*
X36995847Y-48148172D01*
X37126999Y-48533429D01*
X37295120Y-48904050D01*
X37498605Y-49256495D01*
X37500394Y-49258993D01*
X37500396Y-49258997D01*
X37600286Y-49398521D01*
X37735511Y-49587402D01*
X37737538Y-49589717D01*
X37737540Y-49589720D01*
X37851075Y-49719410D01*
X38003577Y-49893612D01*
X38300245Y-50172202D01*
X38302695Y-50174089D01*
X38302700Y-50174093D01*
X38594939Y-50399147D01*
X38622682Y-50420512D01*
X38967812Y-50636173D01*
X39332339Y-50817125D01*
X39507367Y-50883612D01*
X39709898Y-50960547D01*
X39709903Y-50960549D01*
X39712784Y-50961643D01*
X40105516Y-51068346D01*
X40108559Y-51068861D01*
X40108565Y-51068862D01*
X40503745Y-51135702D01*
X40503752Y-51135703D01*
X40506786Y-51136216D01*
X40509857Y-51136431D01*
X40509859Y-51136431D01*
X40909698Y-51164390D01*
X40909706Y-51164390D01*
X40912764Y-51164604D01*
X41174146Y-51157303D01*
X41316500Y-51153327D01*
X41316503Y-51153327D01*
X41319574Y-51153241D01*
X41322627Y-51152855D01*
X41322631Y-51152855D01*
X41468743Y-51134397D01*
X41723335Y-51102234D01*
X41726339Y-51101552D01*
X41726342Y-51101551D01*
X42117194Y-51012752D01*
X42117200Y-51012750D01*
X42120190Y-51012071D01*
X42346170Y-50936898D01*
X42503430Y-50884585D01*
X42503436Y-50884583D01*
X42506354Y-50883612D01*
X42560838Y-50859354D01*
X42875339Y-50719329D01*
X42875345Y-50719326D01*
X42878139Y-50718082D01*
X43022325Y-50636173D01*
X43229323Y-50518582D01*
X43229331Y-50518577D01*
X43231996Y-50517063D01*
X43564549Y-50282473D01*
X43872623Y-50016551D01*
X43874744Y-50014324D01*
X43874750Y-50014318D01*
X44151160Y-49724058D01*
X44153277Y-49721835D01*
X44256497Y-49589720D01*
X44401922Y-49403584D01*
X44401924Y-49403581D01*
X44403832Y-49401139D01*
X44405488Y-49398529D01*
X44405494Y-49398521D01*
X44620244Y-49060129D01*
X44620246Y-49060126D01*
X44621897Y-49057524D01*
X44805390Y-48694269D01*
X44952560Y-48314842D01*
X45062002Y-47922864D01*
X45132672Y-47522078D01*
X45163894Y-47116308D01*
X45165518Y-47000000D01*
X45162692Y-46942204D01*
X45145788Y-46596587D01*
X45145638Y-46593517D01*
X45137525Y-46538574D01*
X45086636Y-46193959D01*
X45086635Y-46193955D01*
X45086186Y-46190913D01*
X44987732Y-45796033D01*
X44851213Y-45412644D01*
X44677934Y-45044408D01*
X44676367Y-45041779D01*
X44676362Y-45041770D01*
X44471118Y-44697472D01*
X44469548Y-44694838D01*
X44467734Y-44692378D01*
X44467729Y-44692370D01*
X44363621Y-44551162D01*
X44228045Y-44367271D01*
X44155281Y-44286458D01*
X43957799Y-44067131D01*
X43957791Y-44067123D01*
X43955730Y-44064834D01*
X43655201Y-43790413D01*
X43329328Y-43546629D01*
X43273610Y-43512885D01*
X42983849Y-43337399D01*
X42983840Y-43337394D01*
X42981221Y-43335808D01*
X42751954Y-43225962D01*
X42616975Y-43161290D01*
X42616973Y-43161289D01*
X42614203Y-43159962D01*
X42611314Y-43158910D01*
X42611308Y-43158908D01*
X42234676Y-43021826D01*
X42234673Y-43021825D01*
X42231777Y-43020771D01*
X41893133Y-42933822D01*
X41840578Y-42920328D01*
X41840575Y-42920327D01*
X41837594Y-42919562D01*
X41435415Y-42857301D01*
X41029081Y-42834584D01*
X41026003Y-42834713D01*
X41025999Y-42834713D01*
X40761784Y-42845787D01*
X40622468Y-42851626D01*
X40619424Y-42852054D01*
X40619422Y-42852054D01*
X40558607Y-42860601D01*
X40219460Y-42908265D01*
X39823902Y-43003960D01*
X39439569Y-43137799D01*
X39436771Y-43139092D01*
X39072929Y-43307210D01*
X39072919Y-43307215D01*
X39070132Y-43308503D01*
X38719116Y-43514443D01*
X38553038Y-43635106D01*
X38392352Y-43751851D01*
X38392346Y-43751856D01*
X38389871Y-43753654D01*
X38387585Y-43755683D01*
X38387582Y-43755686D01*
X38350544Y-43788570D01*
X38085540Y-44023851D01*
X38083461Y-44026096D01*
X38083454Y-44026103D01*
X37811114Y-44320204D01*
X37809028Y-44322457D01*
X37562975Y-44646620D01*
X37561364Y-44649238D01*
X37561361Y-44649243D01*
X37524453Y-44709236D01*
X37349729Y-44993246D01*
X37171325Y-45359028D01*
X37029467Y-45740473D01*
X36925509Y-46133940D01*
X36860442Y-46535674D01*
X36834888Y-46941840D01*
X31010500Y-46941840D01*
X31010500Y-33043233D01*
X35094906Y-33043233D01*
X35121102Y-33317792D01*
X35186657Y-33585694D01*
X35290199Y-33841326D01*
X35292500Y-33845256D01*
X35292503Y-33845262D01*
X35427255Y-34075403D01*
X35427260Y-34075410D01*
X35429558Y-34079335D01*
X35432405Y-34082895D01*
X35550028Y-34229974D01*
X35601816Y-34294732D01*
X35803364Y-34483008D01*
X36029979Y-34640216D01*
X36034055Y-34642244D01*
X36034057Y-34642245D01*
X36272827Y-34761032D01*
X36272830Y-34761033D01*
X36276914Y-34763065D01*
X36538998Y-34848980D01*
X36543489Y-34849760D01*
X36543490Y-34849760D01*
X36806957Y-34895506D01*
X36806965Y-34895507D01*
X36810738Y-34896162D01*
X36814575Y-34896353D01*
X36896305Y-34900422D01*
X36896313Y-34900422D01*
X36897876Y-34900500D01*
X40070070Y-34900500D01*
X40072338Y-34900335D01*
X40072350Y-34900335D01*
X40206603Y-34890594D01*
X40275083Y-34885625D01*
X40279538Y-34884641D01*
X40279541Y-34884641D01*
X40539947Y-34827148D01*
X40539950Y-34827147D01*
X40544403Y-34826164D01*
X40802319Y-34728449D01*
X41043428Y-34594525D01*
X41262678Y-34427198D01*
X41265873Y-34423930D01*
X41452283Y-34233242D01*
X41452287Y-34233237D01*
X41455477Y-34229974D01*
X41617787Y-34006984D01*
X41746206Y-33762899D01*
X41838045Y-33502832D01*
X41874516Y-33317792D01*
X41890499Y-33236704D01*
X41890500Y-33236698D01*
X41891380Y-33232232D01*
X41891607Y-33227676D01*
X41904867Y-32961336D01*
X41904867Y-32961330D01*
X41905094Y-32956767D01*
X41878898Y-32682208D01*
X41813343Y-32414306D01*
X41709801Y-32158674D01*
X41707500Y-32154744D01*
X41707497Y-32154738D01*
X41572745Y-31924597D01*
X41572740Y-31924590D01*
X41570442Y-31920665D01*
X41452927Y-31773720D01*
X41401036Y-31708834D01*
X41401035Y-31708833D01*
X41398184Y-31705268D01*
X41196636Y-31516992D01*
X40970021Y-31359784D01*
X40792667Y-31271551D01*
X40727173Y-31238968D01*
X40727170Y-31238967D01*
X40723086Y-31236935D01*
X40461002Y-31151020D01*
X40456510Y-31150240D01*
X40193043Y-31104494D01*
X40193035Y-31104493D01*
X40189262Y-31103838D01*
X40179029Y-31103329D01*
X40103695Y-31099578D01*
X40103687Y-31099578D01*
X40102124Y-31099500D01*
X36929930Y-31099500D01*
X36927662Y-31099665D01*
X36927650Y-31099665D01*
X36793397Y-31109406D01*
X36724917Y-31114375D01*
X36720462Y-31115359D01*
X36720459Y-31115359D01*
X36460053Y-31172852D01*
X36460050Y-31172853D01*
X36455597Y-31173836D01*
X36197681Y-31271551D01*
X35956572Y-31405475D01*
X35737322Y-31572802D01*
X35734129Y-31576068D01*
X35734127Y-31576070D01*
X35547717Y-31766758D01*
X35547713Y-31766763D01*
X35544523Y-31770026D01*
X35382213Y-31993016D01*
X35253794Y-32237101D01*
X35161955Y-32497168D01*
X35161075Y-32501634D01*
X35124587Y-32686760D01*
X35108620Y-32767768D01*
X35108393Y-32772322D01*
X35108393Y-32772324D01*
X35099211Y-32956767D01*
X35094906Y-33043233D01*
X31010500Y-33043233D01*
X31010500Y-30136500D01*
X31030502Y-30068379D01*
X31084158Y-30021886D01*
X31136500Y-30010500D01*
X50863500Y-30010500D01*
X50931621Y-30030502D01*
G37*
G04 #@! TD.AperFunction*
M02*
